<?xml version="1.0" encoding="UTF-8" standalone="no"?>
<!-- Created with Inkscape (http://www.inkscape.org/) -->

<svg
   xmlns:dc="http://purl.org/dc/elements/1.1/"
   xmlns:cc="http://creativecommons.org/ns#"
   xmlns:rdf="http://www.w3.org/1999/02/22-rdf-syntax-ns#"
   xmlns:svg="http://www.w3.org/2000/svg"
   xmlns="http://www.w3.org/2000/svg"
   xmlns:sodipodi="http://sodipodi.sourceforge.net/DTD/sodipodi-0.dtd"
   xmlns:inkscape="http://www.inkscape.org/namespaces/inkscape"
   width="532.54291"
   height="65.947884"
   id="svg6947"
   version="1.1"
   inkscape:version="0.48.4 r9939"
   sodipodi:docname="New document 19">
  <defs
     id="defs6949" />
  <sodipodi:namedview
     id="base"
     pagecolor="#ffffff"
     bordercolor="#666666"
     borderopacity="1.0"
     inkscape:pageopacity="0.0"
     inkscape:pageshadow="2"
     inkscape:zoom="0.86377106"
     inkscape:cx="469.29244"
     inkscape:cy="-2.3333385"
     inkscape:document-units="px"
     inkscape:current-layer="layer1"
     showgrid="false"
     fit-margin-top="0"
     fit-margin-left="0"
     fit-margin-right="0"
     fit-margin-bottom="0"
     inkscape:window-width="1855"
     inkscape:window-height="1056"
     inkscape:window-x="65"
     inkscape:window-y="24"
     inkscape:window-maximized="1" />
  <metadata
     id="metadata6952">
    <rdf:RDF>
      <cc:Work
         rdf:about="">
        <dc:format>image/svg+xml</dc:format>
        <dc:type
           rdf:resource="http://purl.org/dc/dcmitype/StillImage" />
        <dc:title></dc:title>
      </cc:Work>
    </rdf:RDF>
  </metadata>
  <g
     inkscape:label="Layer 1"
     inkscape:groupmode="layer"
     id="layer1"
     transform="translate(97.245195,-457.89987)">
    <g
       transform="translate(-118.2605,-101.35013)"
       id="g938">
      <g
         id="g940">
        <g
           id="g942">
          <g
             id="g944">
            <path
               style="fill:#ffffff;fill-rule:evenodd;stroke:#000000;stroke-width:2;stroke-linejoin:round"
               inkscape:connector-curvature="0"
               d="m 525.422,595.68 c 2.071,0 3.75,-1.679 3.75,-3.75 l 0,-27.936 c 0,-2.071 -1.679,-3.75 -3.75,-3.75 l -65.436,0 c -2.071,0 -3.75,1.679 -3.75,3.75 l 0,27.936 c 0,2.071 1.679,3.75 3.75,3.75 z"
               id="path946" />
            <path
               style="fill:none;stroke:#000000;stroke-width:2"
               inkscape:connector-curvature="0"
               d="m 492.704,593.337 0,-30.75 z"
               id="path948" />
          </g>
          <g
             id="g950">
            <path
               style="stroke:#000000;stroke-width:2"
               inkscape:connector-curvature="0"
               d="m 510.731,574.212 c -2.071,0 -3.75,1.679 -3.75,3.75 0,2.071 1.679,3.75 3.75,3.75 2.072,0 3.75,-1.679 3.75,-3.75 0,-2.071 -1.678,-3.75 -3.75,-3.75 z"
               id="path952" />
            <path
               style="stroke:#000000;stroke-width:2"
               inkscape:connector-curvature="0"
               d="m 474.731,574.212 c -2.071,0 -3.75,1.679 -3.75,3.75 0,2.071 1.679,3.75 3.75,3.75 2.072,0 3.75,-1.679 3.75,-3.75 0,-2.071 -1.678,-3.75 -3.75,-3.75 z"
               id="path954" />
          </g>
        </g>
        <g
           id="g956">
          <g
             id="g958">
            <path
               style="fill:#ffffff;fill-rule:evenodd;stroke:#000000;stroke-width:2;stroke-linejoin:round"
               inkscape:connector-curvature="0"
               d="m 443.486,595.866 c 2.071,0 3.75,-1.679 3.75,-3.75 l 0,-27.936 c 0,-2.071 -1.679,-3.75 -3.75,-3.75 l -65.436,0 c -2.071,0 -3.75,1.679 -3.75,3.75 l 0,27.936 c 0,2.071 1.679,3.75 3.75,3.75 z"
               id="path960" />
            <path
               style="fill:none;stroke:#000000;stroke-width:2"
               inkscape:connector-curvature="0"
               d="m 410.768,593.523 0,-30.75 z"
               id="path962" />
          </g>
          <g
             id="g964">
            <path
               style="stroke:#000000;stroke-width:2"
               inkscape:connector-curvature="0"
               d="m 428.795,574.398 c -2.071,0 -3.75,1.679 -3.75,3.75 0,2.071 1.679,3.75 3.75,3.75 2.072,0 3.75,-1.679 3.75,-3.75 0,-2.071 -1.678,-3.75 -3.75,-3.75 z"
               id="path966" />
            <path
               style="stroke:#000000;stroke-width:2"
               inkscape:connector-curvature="0"
               d="m 392.795,574.398 c -2.071,0 -3.75,1.679 -3.75,3.75 0,2.071 1.679,3.75 3.75,3.75 2.072,0 3.75,-1.679 3.75,-3.75 0,-2.071 -1.678,-3.75 -3.75,-3.75 z"
               id="path968" />
          </g>
        </g>
        <g
           id="g970">
          <g
             id="g972">
            <path
               style="fill:#ffffff;fill-rule:evenodd;stroke:#000000;stroke-width:2;stroke-linejoin:round"
               inkscape:connector-curvature="0"
               d="m 361.55,596.052 c 2.071,0 3.75,-1.679 3.75,-3.75 l 0,-27.936 c 0,-2.071 -1.679,-3.75 -3.75,-3.75 l -65.436,0 c -2.071,0 -3.75,1.679 -3.75,3.75 l 0,27.936 c 0,2.071 1.679,3.75 3.75,3.75 z"
               id="path974" />
            <path
               style="fill:none;stroke:#000000;stroke-width:2"
               inkscape:connector-curvature="0"
               d="m 328.832,593.709 0,-30.75 z"
               id="path976" />
          </g>
          <g
             id="g978">
            <path
               style="stroke:#000000;stroke-width:2"
               inkscape:connector-curvature="0"
               d="m 346.859,574.584 c -2.071,0 -3.75,1.679 -3.75,3.75 0,2.071 1.679,3.75 3.75,3.75 2.072,0 3.75,-1.679 3.75,-3.75 0,-2.071 -1.678,-3.75 -3.75,-3.75 z"
               id="path980" />
            <path
               style="stroke:#000000;stroke-width:2"
               inkscape:connector-curvature="0"
               d="m 310.859,574.584 c -2.071,0 -3.75,1.679 -3.75,3.75 0,2.071 1.679,3.75 3.75,3.75 2.072,0 3.75,-1.679 3.75,-3.75 0,-2.071 -1.678,-3.75 -3.75,-3.75 z"
               id="path982" />
          </g>
        </g>
        <path
           style="fill:#0049fd;fill-opacity:0.49000005;stroke:#000000;stroke-dasharray:2"
           inkscape:connector-curvature="0"
           d="m 522.905,574.067 c 0,-1.533 -1.362,-2.775 -3.043,-2.775 l -53.539,0 c -1.68,0 -3.043,1.242 -3.043,2.775 l 0,8.325 c 0,1.533 1.363,2.775 3.043,2.775 l 53.539,0 c 1.681,0 3.043,-1.242 3.043,-2.775 z"
           id="path984" />
        <path
           style="fill:#0049fd;fill-opacity:0.49000005;stroke:#000000;stroke-dasharray:2"
           inkscape:connector-curvature="0"
           d="m 441.905,574.067 c 0,-1.533 -1.362,-2.775 -3.043,-2.775 l -53.539,0 c -1.68,0 -3.043,1.242 -3.043,2.775 l 0,8.325 c 0,1.533 1.363,2.775 3.043,2.775 l 53.539,0 c 1.681,0 3.043,-1.242 3.043,-2.775 z"
           id="path986" />
        <path
           style="fill:#0049fd;fill-opacity:0.49000005;stroke:#000000;stroke-dasharray:2"
           inkscape:connector-curvature="0"
           d="m 360.905,574.067 c 0,-1.533 -1.362,-2.775 -3.043,-2.775 l -53.539,0 c -1.68,0 -3.043,1.242 -3.043,2.775 l 0,8.325 c 0,1.533 1.363,2.775 3.043,2.775 l 53.539,0 c 1.681,0 3.043,-1.242 3.043,-2.775 z"
           id="path988" />
        <g
           id="g990">
          <g
             id="g992">
            <path
               style="fill:#ffffff;fill-rule:evenodd;stroke:#000000;stroke-width:2;stroke-linejoin:round"
               inkscape:connector-curvature="0"
               d="m 275.858,597.1 c 2.071,0 3.75,-1.679 3.75,-3.75 l 0,-27.936 c 0,-2.071 -1.679,-3.75 -3.75,-3.75 l -65.436,0 c -2.071,0 -3.75,1.679 -3.75,3.75 l 0,27.936 c 0,2.071 1.679,3.75 3.75,3.75 z"
               id="path994" />
            <path
               style="fill:none;stroke:#000000;stroke-width:2"
               inkscape:connector-curvature="0"
               d="m 243.14,594.757 0,-30.75 z"
               id="path996" />
          </g>
          <g
             id="g998">
            <path
               style="stroke:#000000;stroke-width:2"
               inkscape:connector-curvature="0"
               d="m 261.167,575.632 c -2.071,0 -3.75,1.679 -3.75,3.75 0,2.071 1.679,3.75 3.75,3.75 2.072,0 3.75,-1.679 3.75,-3.75 0,-2.071 -1.678,-3.75 -3.75,-3.75 z"
               id="path1000" />
            <path
               style="stroke:#000000;stroke-width:2"
               inkscape:connector-curvature="0"
               d="m 225.167,575.632 c -2.071,0 -3.75,1.679 -3.75,3.75 0,2.071 1.679,3.75 3.75,3.75 2.072,0 3.75,-1.679 3.75,-3.75 0,-2.071 -1.678,-3.75 -3.75,-3.75 z"
               id="path1002" />
          </g>
        </g>
        <g
           id="g1004">
          <g
             id="g1006">
            <path
               style="fill:#ffffff;fill-rule:evenodd;stroke:#000000;stroke-width:2;stroke-linejoin:round"
               inkscape:connector-curvature="0"
               d="m 193.922,597.286 c 2.071,0 3.75,-1.679 3.75,-3.75 l 0,-27.936 c 0,-2.071 -1.679,-3.75 -3.75,-3.75 l -65.436,0 c -2.071,0 -3.75,1.679 -3.75,3.75 l 0,27.936 c 0,2.071 1.679,3.75 3.75,3.75 z"
               id="path1008" />
            <path
               style="fill:none;stroke:#000000;stroke-width:2"
               inkscape:connector-curvature="0"
               d="m 161.204,594.943 0,-30.75 z"
               id="path1010" />
          </g>
          <g
             id="g1012">
            <path
               style="stroke:#000000;stroke-width:2"
               inkscape:connector-curvature="0"
               d="m 179.231,575.818 c -2.071,0 -3.75,1.679 -3.75,3.75 0,2.071 1.679,3.75 3.75,3.75 2.072,0 3.75,-1.679 3.75,-3.75 0,-2.071 -1.678,-3.75 -3.75,-3.75 z"
               id="path1014" />
            <path
               style="stroke:#000000;stroke-width:2"
               inkscape:connector-curvature="0"
               d="m 143.231,575.818 c -2.071,0 -3.75,1.679 -3.75,3.75 0,2.071 1.679,3.75 3.75,3.75 2.072,0 3.75,-1.679 3.75,-3.75 0,-2.071 -1.678,-3.75 -3.75,-3.75 z"
               id="path1016" />
          </g>
        </g>
        <g
           id="g1018">
          <g
             id="g1020">
            <path
               style="fill:#ffffff;fill-rule:evenodd;stroke:#000000;stroke-width:2;stroke-linejoin:round"
               inkscape:connector-curvature="0"
               d="m 111.986,597.472 c 2.071,0 3.75,-1.679 3.75,-3.75 l 0,-27.936 c 0,-2.071 -1.679,-3.75 -3.75,-3.75 l -65.4356,0 c -2.071,0 -3.75,1.679 -3.75,3.75 l 0,27.936 c 0,2.071 1.679,3.75 3.75,3.75 z"
               id="path1022" />
            <path
               style="fill:none;stroke:#000000;stroke-width:2"
               inkscape:connector-curvature="0"
               d="m 79.2685,595.129 0,-30.75 z"
               id="path1024" />
          </g>
          <g
             id="g1026">
            <path
               style="stroke:#000000;stroke-width:2"
               inkscape:connector-curvature="0"
               d="m 97.2955,576.004 c -2.0711,0 -3.75,1.679 -3.75,3.75 0,2.071 1.6789,3.75 3.75,3.75 2.0711,0 3.7495,-1.679 3.7495,-3.75 0,-2.071 -1.6784,-3.75 -3.7495,-3.75 z"
               id="path1028" />
            <path
               style="stroke:#000000;stroke-width:2"
               inkscape:connector-curvature="0"
               d="m 61.2955,576.004 c -2.0711,0 -3.75,1.679 -3.75,3.75 0,2.071 1.6789,3.75 3.75,3.75 2.0711,0 3.75,-1.679 3.75,-3.75 0,-2.071 -1.6789,-3.75 -3.75,-3.75 z"
               id="path1030" />
          </g>
        </g>
        <path
           style="fill:#ff464c;fill-opacity:0.47000002;stroke:#000000;stroke-dasharray:2"
           inkscape:connector-curvature="0"
           d="m 231.53,574.923 c 0,-1.533 -1.362,-2.775 -3.043,-2.775 l -53.539,0 c -1.68,0 -3.043,1.242 -3.043,2.775 l 0,8.325 c 0,1.533 1.363,2.775 3.043,2.775 l 53.539,0 c 1.681,0 3.043,-1.242 3.043,-2.775 z"
           id="path1032" />
        <path
           style="fill:#ff464c;fill-opacity:0.47000002;stroke:#000000;stroke-dasharray:2"
           inkscape:connector-curvature="0"
           d="m 150.587,574.923 c 0,-1.533 -1.363,-2.775 -3.043,-2.775 l -53.5394,0 c -1.6806,0 -3.0429,1.242 -3.0429,2.775 l 0,8.325 c 0,1.533 1.3623,2.775 3.0429,2.775 l 53.5394,0 c 1.68,0 3.043,-1.242 3.043,-2.775 z"
           id="path1034" />
        <path
           style="fill:#ff464c;fill-opacity:0.47000002;stroke:#000000;stroke-dasharray:2"
           inkscape:connector-curvature="0"
           d="m 42.8004,574.923 c 0,-1.533 0.5936,-2.775 1.3259,-2.775 l 23.3282,0 c 0.7323,0 1.3259,1.242 1.3259,2.775 l 0,8.325 c 0,1.533 -0.5936,2.775 -1.3259,2.775 l -23.3282,0 c -0.7323,0 -1.3259,-1.242 -1.3259,-2.775"
           id="path1036" />
      </g>
      <text
         style="font-size:18px;font-family:American Typewriter"
         font-size="18"
         transform="translate(19.0905,577.695)"
         xml:space="preserve"
         id="text1038"><tspan
           id="tspan1040">...</tspan></text>
      <text
         style="font-size:18px;font-family:American Typewriter"
         font-size="18"
         transform="translate(538.318,577.195)"
         xml:space="preserve"
         id="text1042"><tspan
           id="tspan1044">...</tspan></text>
      <g
         id="g1046">
        <path
           style="fill:none;stroke:#000000"
           inkscape:connector-curvature="0"
           d="m 268.546,589.236 9.149,15.308"
           id="path1048" />
        <text
           style="font-size:18px;font-family:American Typewriter"
           font-size="18"
           transform="translate(265.59,624.943)"
           xml:space="preserve"
           id="text1050"><tspan
             id="tspan1052">domain wall</tspan></text>
      </g>
    </g>
  </g>
</svg>
