<?xml version="1.0" encoding="UTF-8" standalone="no"?>
<!-- Created with Inkscape (http://www.inkscape.org/) -->

<svg
   xmlns:dc="http://purl.org/dc/elements/1.1/"
   xmlns:cc="http://creativecommons.org/ns#"
   xmlns:rdf="http://www.w3.org/1999/02/22-rdf-syntax-ns#"
   xmlns:svg="http://www.w3.org/2000/svg"
   xmlns="http://www.w3.org/2000/svg"
   xmlns:sodipodi="http://sodipodi.sourceforge.net/DTD/sodipodi-0.dtd"
   xmlns:inkscape="http://www.inkscape.org/namespaces/inkscape"
   width="328.21182"
   height="265.17264"
   id="svg5866"
   version="1.1"
   inkscape:version="0.48.4 r9939"
   sodipodi:docname="New document 13">
  <sodipodi:namedview
     id="base"
     pagecolor="#ffffff"
     bordercolor="#666666"
     borderopacity="1.0"
     inkscape:pageopacity="0.0"
     inkscape:pageshadow="2"
     inkscape:zoom="2.4431135"
     inkscape:cx="172.49322"
     inkscape:cy="149.68734"
     inkscape:document-units="px"
     inkscape:current-layer="layer1"
     showgrid="false"
     inkscape:window-width="1855"
     inkscape:window-height="1056"
     inkscape:window-x="65"
     inkscape:window-y="24"
     inkscape:window-maximized="1"
     fit-margin-top="0"
     fit-margin-left="0"
     fit-margin-right="0"
     fit-margin-bottom="0" />
  <defs
     id="defs5868">
    <clipPath
       id="7fc87445d720">
      <path
         style="fill:#000000;fill-opacity:0.35"
         inkscape:connector-curvature="0"
         d="m 837.205,150.753 15.757,0 0,-16.496 -15.757,0 z"
         id="path221" />
    </clipPath>
    <clipPath
       id="7fc87445da00">
      <path
         style="fill:#000000;fill-opacity:0.35"
         inkscape:connector-curvature="0"
         d="m 837.205,150.753 15.75,0 0,-16.5 -15.75,0 z"
         id="path226" />
    </clipPath>
    <clipPath
       id="7fc87445d030">
      <path
         style="fill:#000000;fill-opacity:0.35"
         inkscape:connector-curvature="0"
         d="m 993.884,150.084 15.756,0 0,-15.158 -15.756,0 z"
         id="path233" />
    </clipPath>
    <clipPath
       id="7fc87445d310">
      <path
         style="fill:#000000;fill-opacity:0.35"
         inkscape:connector-curvature="0"
         d="m 994.634,150.683 15.746,0 0,-16.5 -15.746,0 z"
         id="path238" />
    </clipPath>
    <clipPath
       id="7fc87445c940">
      <path
         style="fill:#000000;fill-opacity:0.35"
         inkscape:connector-curvature="0"
         d="m 888.933,267.261 15.757,0 0,-15.158 -15.757,0 z"
         id="path245" />
    </clipPath>
    <clipPath
       id="7fc87445cc20">
      <path
         style="fill:#000000;fill-opacity:0.35"
         inkscape:connector-curvature="0"
         d="m 889.683,267.86 15.75,0 0,-16.5 -15.75,0 z"
         id="path250" />
    </clipPath>
  </defs>
  <metadata
     id="metadata5871">
    <rdf:RDF>
      <cc:Work
         rdf:about="">
        <dc:format>image/svg+xml</dc:format>
        <dc:type
           rdf:resource="http://purl.org/dc/dcmitype/StillImage" />
        <dc:title></dc:title>
      </cc:Work>
    </rdf:RDF>
  </metadata>
  <g
     inkscape:label="Layer 1"
     inkscape:groupmode="layer"
     id="layer1"
     transform="translate(-61.44951,-326.57667)">
    <text
       id="text178"
       xml:space="preserve"
       font-size="18"
       style="font-size:18px;font-family:American Typewriter"
       x="286.12234"
       y="357.03131"><tspan
         id="tspan180">PHS</tspan></text>
    <path
       id="path182"
       d="m 86.88134,478.16331 302.28,0.627"
       inkscape:connector-curvature="0"
       style="fill:none;stroke:#000000;stroke-dasharray:5" />
    <path
       id="path184"
       d="m 114.63134,396.99931 81,0"
       inkscape:connector-curvature="0"
       style="fill:none;stroke:#000000;stroke-width:3" />
    <path
       id="path186"
       d="m 114.63134,477.99931 81,0"
       inkscape:connector-curvature="0"
       style="fill:none;stroke:#007efd;stroke-width:4" />
    <path
       id="path188"
       d="m 114.63134,558.99931 81,0"
       inkscape:connector-curvature="0"
       style="fill:none;stroke:#000000;stroke-width:3" />
    <path
       id="path190"
       d="m 114.63134,570.99931 81,0"
       inkscape:connector-curvature="0"
       style="fill:none;stroke:#000000;stroke-width:3" />
    <path
       id="path192"
       d="m 114.63134,582.99931 81,0"
       inkscape:connector-curvature="0"
       style="fill:none;stroke:#000000;stroke-width:3" />
    <path
       id="path194"
       d="m 114.63134,374.49931 81,0"
       inkscape:connector-curvature="0"
       style="fill:none;stroke:#000000;stroke-width:3" />
    <path
       id="path196"
       d="m 114.63134,386.49931 81,0"
       inkscape:connector-curvature="0"
       style="fill:none;stroke:#000000;stroke-width:3" />
    <path
       id="path198"
       d="m 276.63134,396.99931 81,0"
       inkscape:connector-curvature="0"
       style="fill:none;stroke:#000000;stroke-width:3" />
    <path
       id="path200"
       d="m 276.63134,458.49931 81,0"
       inkscape:connector-curvature="0"
       style="fill:none;stroke:#007efd;stroke-width:4" />
    <path
       id="path202"
       d="m 276.63134,558.99931 81,0"
       inkscape:connector-curvature="0"
       style="fill:none;stroke:#000000;stroke-width:3" />
    <path
       id="path204"
       d="m 276.63134,570.99931 81,0"
       inkscape:connector-curvature="0"
       style="fill:none;stroke:#000000;stroke-width:3" />
    <path
       id="path206"
       d="m 276.63134,582.99931 81,0"
       inkscape:connector-curvature="0"
       style="fill:none;stroke:#000000;stroke-width:3" />
    <path
       id="path208"
       d="m 276.63134,374.49931 81,0"
       inkscape:connector-curvature="0"
       style="fill:none;stroke:#000000;stroke-width:3" />
    <path
       id="path210"
       d="m 276.63134,386.49931 81,0"
       inkscape:connector-curvature="0"
       style="fill:none;stroke:#000000;stroke-width:3" />
    <g
       id="g212"
       transform="translate(-662.16866,208.57131)">
      <path
         id="path214"
         d="m 857.8,269.428 81,-19.5"
         inkscape:connector-curvature="0"
         style="fill:none;stroke:#000000;stroke-width:2" />
      <path
         id="path216"
         d="m 927.908,247.408 10.892,2.52 -8.552,7.202"
         inkscape:connector-curvature="0"
         style="fill:none;stroke:#000000;stroke-width:2" />
    </g>
    <g
       id="g218"
       clip-path="url(#7fc87445d720)"
       transform="translate(-662.16866,208.57131)">
      <clipPath
         id="clipPath5822">
        <path
           id="path5824"
           d="m 837.205,150.753 15.757,0 0,-16.496 -15.757,0 z"
           inkscape:connector-curvature="0"
           style="fill:#000000;fill-opacity:0.35" />
      </clipPath>
      <g
         id="g223"
         clip-path="url(#7fc87445da00)">
        <clipPath
           id="clipPath5827">
          <path
             id="path5829"
             d="m 837.205,150.753 15.75,0 0,-16.5 -15.75,0 z"
             inkscape:connector-curvature="0"
             style="fill:#000000;fill-opacity:0.35" />
        </clipPath>
        <path
           id="path228"
           d="m 839.921,144.103 c -0.2,-0.32 -0.24,-0.34 -0.359,-0.34 -0.52,0 -1.678,0.719 -1.678,1.099 0,0.039 0,0.079 0.18,0.379 l 2.856,4.693 c 0.119,0.2 0.339,0.559 0.359,0.579 0.06,0.1 0.16,0.1 0.28,0.1 0.459,0 1.517,-0.619 1.637,-1.078 0.719,-3.375 2.037,-6.591 4.074,-9.367 1.139,-1.577 2.656,-3.355 4.893,-5.012 0.38,-0.3 0.639,-0.499 0.639,-0.699 0,-0.16 -0.1,-0.16 -0.239,-0.16 -1.059,0 -4.274,3.036 -5.552,4.533 -2.297,2.696 -3.795,5.273 -4.993,8.728 l -2.097,-3.455"
           inkscape:connector-curvature="0"
           style="fill:#00ff00" />
      </g>
    </g>
    <g
       id="g230"
       clip-path="url(#7fc87445d030)"
       transform="translate(-662.16866,208.57131)">
      <clipPath
         id="clipPath5833">
        <path
           id="path5835"
           d="m 993.884,150.084 15.756,0 0,-15.158 -15.756,0 z"
           inkscape:connector-curvature="0"
           style="fill:#000000;fill-opacity:0.35" />
      </clipPath>
      <g
         id="g235"
         clip-path="url(#7fc87445d310)">
        <clipPath
           id="clipPath5838">
          <path
             id="path5840"
             d="m 994.634,150.683 15.746,0 0,-16.5 -15.746,0 z"
             inkscape:connector-curvature="0"
             style="fill:#000000;fill-opacity:0.35" />
        </clipPath>
        <path
           id="path240"
           d="m 1001.01,142.415 0,0.04 c -0.24,0.18 -0.48,0.459 -0.7,0.659 l -4.808,4.833 c -0.34,0.319 -0.859,0.759 -0.859,1.238 0,0.1 0.02,0.22 0.06,0.32 l 0.18,0.239 c 0.159,0.16 0.399,0.24 0.619,0.24 0.339,0 0.559,-0.26 0.798,-0.499 l 5.17,-5.173 c 0.22,-0.219 0.48,-0.459 0.68,-0.699 l 0.02,0 c 0.2,0.24 0.46,0.48 0.68,0.699 l 4.81,4.813 c 0.32,0.32 0.74,0.859 1.22,0.859 0.18,0 0.4,-0.1 0.56,-0.2 l 0.16,-0.259 c 0.06,-0.1 0.08,-0.24 0.08,-0.34 0,-0.519 -0.54,-0.919 -0.86,-1.238 l -4.81,-4.833 c -0.22,-0.2 -0.46,-0.479 -0.7,-0.659 l 0,-0.04 c 0.24,-0.18 0.48,-0.459 0.7,-0.659 l 4.81,-4.833 c 0.32,-0.319 0.86,-0.719 0.86,-1.238 0,-0.1 -0.02,-0.24 -0.08,-0.339 l -0.16,-0.26 c -0.16,-0.1 -0.38,-0.2 -0.56,-0.2 -0.48,0 -0.9,0.539 -1.22,0.859 l -4.81,4.813 c -0.22,0.22 -0.48,0.459 -0.68,0.699 l -5.87,-5.872 c -0.259,-0.259 -0.419,-0.499 -0.838,-0.499 -0.42,0 -0.819,0.34 -0.819,0.799 0,0.439 0.399,0.779 0.699,1.078 l 4.968,4.993 c 0.22,0.2 0.46,0.479 0.7,0.659"
           inkscape:connector-curvature="0"
           style="fill:#ff0000" />
      </g>
    </g>
    <g
       id="g242"
       clip-path="url(#7fc87445c940)"
       transform="translate(-662.16866,208.57131)">
      <clipPath
         id="clipPath5844">
        <path
           id="path5846"
           d="m 888.933,267.261 15.757,0 0,-15.158 -15.757,0 z"
           inkscape:connector-curvature="0"
           style="fill:#000000;fill-opacity:0.35" />
      </clipPath>
      <g
         id="g247"
         clip-path="url(#7fc87445cc20)">
        <clipPath
           id="clipPath5849">
          <path
             id="path5851"
             d="m 889.683,267.86 15.75,0 0,-16.5 -15.75,0 z"
             inkscape:connector-curvature="0"
             style="fill:#000000;fill-opacity:0.35" />
        </clipPath>
        <path
           id="path252"
           d="m 896.062,259.592 0,0.04 c -0.239,0.18 -0.479,0.46 -0.699,0.659 l -4.813,4.833 c -0.339,0.32 -0.858,0.759 -0.858,1.238 0,0.1 0.02,0.22 0.06,0.32 l 0.179,0.24 c 0.16,0.159 0.4,0.239 0.619,0.239 0.34,0 0.56,-0.259 0.799,-0.499 l 5.173,-5.172 c 0.219,-0.22 0.479,-0.46 0.679,-0.699 l 0.02,0 c 0.199,0.239 0.459,0.479 0.679,0.699 l 4.812,4.812 c 0.32,0.32 0.739,0.859 1.219,0.859 0.179,0 0.399,-0.1 0.559,-0.2 l 0.16,-0.259 c 0.06,-0.1 0.08,-0.24 0.08,-0.34 0,-0.519 -0.54,-0.918 -0.859,-1.238 l -4.813,-4.833 c -0.22,-0.199 -0.459,-0.479 -0.699,-0.659 l 0,-0.04 c 0.24,-0.179 0.479,-0.459 0.699,-0.659 l 4.813,-4.833 c 0.319,-0.319 0.859,-0.719 0.859,-1.238 0,-0.1 -0.02,-0.239 -0.08,-0.339 l -0.16,-0.26 c -0.16,-0.1 -0.38,-0.2 -0.559,-0.2 -0.48,0 -0.899,0.54 -1.219,0.859 l -4.812,4.813 c -0.22,0.22 -0.48,0.459 -0.679,0.699 l -5.872,-5.871 c -0.259,-0.26 -0.419,-0.5 -0.839,-0.5 -0.419,0 -0.818,0.34 -0.818,0.799 0,0.44 0.399,0.779 0.699,1.079 l 4.972,4.992 c 0.22,0.2 0.46,0.48 0.699,0.659"
           inkscape:connector-curvature="0"
           style="fill:#ff0000" />
      </g>
    </g>
    <path
       id="path254"
       d="m 235.02234,486.90631 7.499,18.093"
       inkscape:connector-curvature="0"
       style="fill:none;stroke:#000000" />
    <g
       id="g256"
       transform="translate(-662.16866,208.57131)">
      <path
         id="path258"
         d="m 749.05,382.678 0,-252.25"
         inkscape:connector-curvature="0"
         style="fill:none;stroke:#000000" />
      <path
         id="path260"
         d="m 745.05,130.928 4,-10 4,10"
         inkscape:connector-curvature="0" />
    </g>
    <text
       id="text262"
       xml:space="preserve"
       font-size="18"
       style="font-size:18px;font-family:American Typewriter"
       x="129.12234"
       y="356.6683"><tspan
         id="tspan264">PHS</tspan></text>
    <text
       id="text266"
       xml:space="preserve"
       font-size="18"
       style="font-size:18px;font-family:American Typewriter"
       x="249.35634"
       y="513.98529"><tspan
         id="tspan268">forbidden!</tspan></text>
    <g
       transform="matrix(0.35230849,0,0,0.35230849,-44.313357,213.31628)"
       id="g6134">
      <g
         style="font-style:normal;font-variant:normal;font-weight:normal;font-stretch:normal;letter-spacing:normal;word-spacing:normal;text-anchor:start;fill:none;stroke:#000000;stroke-linecap:butt;stroke-linejoin:miter;stroke-miterlimit:10.43299961;stroke-opacity:1;stroke-dasharray:none;stroke-dashoffset:0"
         id="content"
         transform="matrix(1.0629921,0,0,-1.0629921,-186.02362,789.27165)"
         xml:space="preserve"
         stroke-miterlimit="10.433"
         font-style="normal"
         font-variant="normal"
         font-weight="normal"
         font-stretch="normal"
         font-size-adjust="none"
         letter-spacing="normal"
         word-spacing="normal"><path
           style="fill:#000000;stroke-width:0"
           inkscape:connector-curvature="0"
           d="m 490.8,417.81 0.01,0.02 0.01,0.03 0.02,0.05 0.02,0.05 0.02,0.05 0.02,0.05 0.02,0.05 0.02,0.05 0.01,0.05 0.01,0.03 0.01,0.02 0.01,0.02 0.01,0.03 0,0.02 0.01,0.02 0.01,0.02 0,0.02 0.01,0.02 0,0.02 0.01,0.01 0,0.02 0,0.02 0,0.01 0,0.01 0.01,0.01 c 0,0.05 0,0.55 -0.6,0.55 -0.45,0 -0.55,-0.3 -0.64,-0.61 -3.25,-7.38 -5.08,-10.7 -13.61,-10.7 h -7.26 c -0.71,0 -0.8,0 -1.1,0.04 -0.5,0.05 -0.65,0.1 -0.65,0.5 0,0.14 0,0.25 0.25,1.14 l 3.39,13.61 h 4.93 c 4.24,0 4.24,-1.04 4.24,-2.29 0,-0.35 0,-0.96 -0.36,-2.44 -0.09,-0.25 -0.14,-0.41 -0.14,-0.55 0,-0.25 0.19,-0.55 0.64,-0.55 0.41,0 0.55,0.25 0.75,0.99 l 2.84,11.67 c 0,0.3 -0.25,0.55 -0.61,0.55 -0.43,0 -0.54,-0.3 -0.68,-0.91 -1.05,-3.78 -1.96,-4.92 -6.54,-4.92 h -4.68 l 3,12 c 0.43,1.75 0.5,1.94 2.68,1.94 h 7.02 c 6.08,0 7.58,-1.44 7.58,-5.53 0,-1.19 0,-1.29 -0.2,-2.64 0,-0.3 -0.05,-0.65 -0.05,-0.9 0,-0.25 0.15,-0.59 0.59,-0.59 0.56,0 0.61,0.3 0.71,1.25 l 1,8.61 c 0.14,1.34 -0.1,1.34 -1.35,1.34 h -25.15 c -1,0 -1.5,0 -1.5,-1 0,-0.54 0.45,-0.54 1.39,-0.54 1.84,0 3.23,0 3.23,-0.89 0,-0.21 0,-0.3 -0.25,-1.21 l -6.56,-26.34 c -0.5,-1.95 -0.61,-2.34 -4.55,-2.34 -0.84,0 -1.39,0 -1.39,-0.96 0,-0.59 0.45,-0.59 1.39,-0.59 h 25.86 c 1.16,0 1.2,0.05 1.55,0.84 z"
           id="path6137" /></g>    </g>
    <g
       id="g6281"
       transform="matrix(0.3408728,0,0,0.3408728,-39.065855,360.23194)">
      <g
         word-spacing="normal"
         letter-spacing="normal"
         font-size-adjust="none"
         font-stretch="normal"
         font-weight="normal"
         font-variant="normal"
         font-style="normal"
         stroke-miterlimit="10.433"
         xml:space="preserve"
         transform="matrix(1.0629921,0,0,-1.0629921,-186.02362,789.27165)"
         id="g6283"
         style="font-style:normal;font-variant:normal;font-weight:normal;font-stretch:normal;letter-spacing:normal;word-spacing:normal;text-anchor:start;fill:none;stroke:#000000;stroke-linecap:butt;stroke-linejoin:miter;stroke-miterlimit:10.43299961;stroke-opacity:1;stroke-dasharray:none;stroke-dashoffset:0"><path
           id="path6285"
           d="m 478.44,422.14 0,0.74 -0.01,0.75 -0.02,0.75 -0.04,0.74 -0.04,0.75 -0.06,0.74 -0.08,0.74 -0.09,0.73 -0.12,0.73 -0.14,0.73 -0.16,0.72 -0.19,0.72 -0.21,0.72 -0.25,0.7 -0.28,0.7 -0.15,0.35 -0.16,0.34 c -2.28,4.8 -6.37,5.6 -8.47,5.6 -2.98,0 -6.62,-1.3 -8.67,-5.94 -1.59,-3.44 -1.84,-7.33 -1.84,-11.31 0,-3.74 0.2,-8.22 2.25,-12 2.14,-4.03 5.78,-5.03 8.22,-5.03 v 1.09 c -1.94,0 -4.89,1.25 -5.79,6.03 -0.54,2.98 -0.54,7.56 -0.54,10.52 0,3.18 0,6.46 0.4,9.15 0.94,5.94 4.68,6.38 5.93,6.38 1.64,0 4.93,-0.89 5.87,-5.83 0.5,-2.78 0.5,-6.58 0.5,-9.7 0,-3.75 0,-7.13 -0.55,-10.32 -0.75,-4.73 -3.59,-6.23 -5.82,-6.23 h 0 v -1.09 c 2.68,0 6.46,1.04 8.67,5.78 1.59,3.43 1.84,7.31 1.84,11.25 z"
           inkscape:connector-curvature="0"
           style="fill:#000000;stroke-width:0" /></g>    </g>
  </g>
</svg>
