<?xml version="1.0" encoding="UTF-8" standalone="no"?>
<!-- Created with Inkscape (http://www.inkscape.org/) -->

<svg
   xmlns:dc="http://purl.org/dc/elements/1.1/"
   xmlns:cc="http://creativecommons.org/ns#"
   xmlns:rdf="http://www.w3.org/1999/02/22-rdf-syntax-ns#"
   xmlns:svg="http://www.w3.org/2000/svg"
   xmlns="http://www.w3.org/2000/svg"
   xmlns:xlink="http://www.w3.org/1999/xlink"
   xmlns:sodipodi="http://sodipodi.sourceforge.net/DTD/sodipodi-0.dtd"
   xmlns:inkscape="http://www.inkscape.org/namespaces/inkscape"
   width="485.03317"
   height="411.87994"
   id="svg7229"
   version="1.1"
   inkscape:version="0.48.4 r9939"
   sodipodi:docname="New document 22">
  <sodipodi:namedview
     id="base"
     pagecolor="#ffffff"
     bordercolor="#666666"
     borderopacity="1.0"
     inkscape:pageopacity="0.0"
     inkscape:pageshadow="2"
     inkscape:zoom="1.7275421"
     inkscape:cx="388.09878"
     inkscape:cy="183.23369"
     inkscape:document-units="px"
     inkscape:current-layer="layer1"
     showgrid="false"
     inkscape:window-width="1855"
     inkscape:window-height="1056"
     inkscape:window-x="65"
     inkscape:window-y="24"
     inkscape:window-maximized="1"
     fit-margin-top="0"
     fit-margin-left="0"
     fit-margin-right="0"
     fit-margin-bottom="0" />
  <defs
     id="defs7231" />
  <metadata
     id="metadata7234">
    <rdf:RDF>
      <cc:Work
         rdf:about="">
        <dc:format>image/svg+xml</dc:format>
        <dc:type
           rdf:resource="http://purl.org/dc/dcmitype/StillImage" />
        <dc:title></dc:title>
      </cc:Work>
    </rdf:RDF>
  </metadata>
  <g
     inkscape:label="Layer 1"
     inkscape:groupmode="layer"
     id="layer1"
     transform="translate(159.15625,-146.13286)">
    <g
       id="g9351">
      <path
         style="fill:none;stroke:#000000"
         inkscape:connector-curvature="0"
         d="m 174.87842,240.13954 16.043,-41.94"
         id="path695" />
      <g
         transform="translate(-784.43558,-322.51846)"
         id="g697">
        <g
           id="g699">
          <path
             style="fill:#ffffff;fill-rule:evenodd;stroke:#000000;stroke-width:2;stroke-linejoin:round"
             inkscape:connector-curvature="0"
             d="m 896.313,530.632 c -2.071,0 -3.75,-1.679 -3.75,-3.75 l 0,-27.936 c 0,-2.071 1.679,-3.75 3.75,-3.75 l 65.436,0 c 2.071,0 3.75,1.679 3.75,3.75 l 0,27.936 c 0,2.071 -1.679,3.75 -3.75,3.75 z"
             id="path701" />
          <path
             style="fill:none;stroke:#000000;stroke-width:2"
             inkscape:connector-curvature="0"
             d="m 929.031,528.289 0,-30.75 z"
             id="path703" />
        </g>
        <g
           id="g705">
          <path
             style="stroke:#000000;stroke-width:2"
             inkscape:connector-curvature="0"
             d="m 911.004,509.164 c 2.071,0 3.75,1.679 3.75,3.75 0,2.071 -1.679,3.75 -3.75,3.75 -2.071,0 -3.75,-1.679 -3.75,-3.75 0,-2.071 1.679,-3.75 3.75,-3.75 z"
             id="path707" />
          <path
             style="stroke:#000000;stroke-width:2"
             inkscape:connector-curvature="0"
             d="m 947.004,509.164 c 2.071,0 3.75,1.679 3.75,3.75 0,2.071 -1.679,3.75 -3.75,3.75 -2.071,0 -3.75,-1.679 -3.75,-3.75 0,-2.071 1.679,-3.75 3.75,-3.75 z"
             id="path709" />
        </g>
      </g>
      <g
         transform="translate(-784.43558,-322.51846)"
         id="g711">
        <g
           id="g713">
          <path
             style="fill:#ffffff;fill-rule:evenodd;stroke:#000000;stroke-width:2;stroke-linejoin:round"
             inkscape:connector-curvature="0"
             d="m 896.313,879.531 c -2.071,0 -3.75,-1.678 -3.75,-3.75 l 0,-27.936 c 0,-2.071 1.679,-3.75 3.75,-3.75 l 65.436,0 c 2.071,0 3.75,1.679 3.75,3.75 l 0,27.936 c 0,2.072 -1.679,3.75 -3.75,3.75 z"
             id="path715" />
          <path
             style="fill:none;stroke:#000000;stroke-width:2"
             inkscape:connector-curvature="0"
             d="m 929.031,877.188 0,-30.75 z"
             id="path717" />
        </g>
        <g
           id="g719">
          <path
             style="stroke:#000000;stroke-width:2"
             inkscape:connector-curvature="0"
             d="m 911.004,858.063 c 2.071,0 3.75,1.679 3.75,3.75 0,2.071 -1.679,3.75 -3.75,3.75 -2.071,0 -3.75,-1.679 -3.75,-3.75 0,-2.071 1.679,-3.75 3.75,-3.75 z"
             id="path721" />
          <path
             style="stroke:#000000;stroke-width:2"
             inkscape:connector-curvature="0"
             d="m 947.004,858.063 c 2.071,0 3.75,1.679 3.75,3.75 0,2.071 -1.679,3.75 -3.75,3.75 -2.071,0 -3.75,-1.679 -3.75,-3.75 0,-2.071 1.679,-3.75 3.75,-3.75 z"
             id="path723" />
        </g>
      </g>
      <path
         style="fill:#0049fd;fill-opacity:0.23999999;stroke:#000000;stroke-dasharray:2"
         inkscape:connector-curvature="0"
         d="m 115.33542,186.04754 c 0,-1.533 1.363,-2.775 3.043,-2.775 l 53.539,0 c 1.681,0 3.043,1.242 3.043,2.775 l 0,8.325 c 0,1.532 -1.362,2.775 -3.043,2.775 l -53.539,0 c -1.68,0 -3.043,-1.243 -3.043,-2.775 z"
         id="path725" />
      <g
         transform="translate(-784.43558,-322.51846)"
         id="g727">
        <g
           id="g729">
          <path
             style="fill:#ffffff;fill-rule:evenodd;stroke:#000000;stroke-width:2;stroke-linejoin:round"
             inkscape:connector-curvature="0"
             d="m 782.875,718.648 c 0,2.071 -1.679,3.75 -3.75,3.75 l -27.936,0 c -2.071,0 -3.75,-1.679 -3.75,-3.75 l 0,-65.436 c 0,-2.071 1.679,-3.75 3.75,-3.75 l 27.936,0 c 2.071,0 3.75,1.679 3.75,3.75 z"
             id="path731" />
          <path
             style="fill:none;stroke:#000000;stroke-width:2"
             inkscape:connector-curvature="0"
             d="m 780.532,685.93 -30.75,0 z"
             id="path733" />
        </g>
        <g
           id="g735">
          <path
             style="stroke:#000000;stroke-width:2"
             inkscape:connector-curvature="0"
             d="m 761.407,703.957 c 0,-2.071 1.679,-3.75 3.75,-3.75 2.071,0 3.75,1.679 3.75,3.75 0,2.071 -1.679,3.75 -3.75,3.75 -2.071,0 -3.75,-1.679 -3.75,-3.75 z"
             id="path737" />
          <path
             style="stroke:#000000;stroke-width:2"
             inkscape:connector-curvature="0"
             d="m 761.407,667.957 c 0,-2.071 1.679,-3.75 3.75,-3.75 2.071,0 3.75,1.679 3.75,3.75 0,2.071 -1.679,3.75 -3.75,3.75 -2.071,0 -3.75,-1.679 -3.75,-3.75 z"
             id="path739" />
        </g>
      </g>
      <g
         transform="translate(-784.43558,-322.51846)"
         id="g741">
        <g
           id="g743">
          <path
             style="fill:#ffffff;fill-rule:evenodd;stroke:#000000;stroke-width:2;stroke-linejoin:round"
             inkscape:connector-curvature="0"
             d="m 823.749,568.132 c -1.731,1.137 -4.056,0.656 -5.193,-1.075 l -15.337,-23.349 c -1.137,-1.731 -0.656,-4.056 1.075,-5.194 l 54.692,-35.925 c 1.731,-1.137 4.056,-0.656 5.193,1.075 l 15.338,23.349 c 1.137,1.731 0.655,4.056 -1.076,5.193 z"
             id="path745" />
          <path
             style="fill:none;stroke:#000000;stroke-width:2"
             inkscape:connector-curvature="0"
             d="M 849.809,548.211 832.926,522.51 z"
             id="path747" />
        </g>
        <g
           id="g749">
          <path
             style="stroke:#000000;stroke-width:2"
             inkscape:connector-curvature="0"
             d="m 824.242,542.123 c 1.731,-1.137 4.056,-0.655 5.193,1.076 1.137,1.731 0.655,4.056 -1.076,5.193 -1.731,1.137 -4.056,0.655 -5.193,-1.076 -1.137,-1.731 -0.655,-4.056 1.076,-5.193 z"
             id="path751" />
          <path
             style="stroke:#000000;stroke-width:2"
             inkscape:connector-curvature="0"
             d="m 854.331,522.358 c 1.731,-1.137 4.056,-0.655 5.193,1.076 1.137,1.731 0.655,4.056 -1.076,5.193 -1.731,1.137 -4.056,0.656 -5.193,-1.075 -1.137,-1.731 -0.655,-4.056 1.076,-5.194 z"
             id="path753" />
        </g>
      </g>
      <g
         transform="translate(-784.43558,-322.51846)"
         id="g755">
        <g
           id="g757">
          <path
             style="fill:#ffffff;fill-rule:evenodd;stroke:#000000;stroke-width:2;stroke-linejoin:round"
             inkscape:connector-curvature="0"
             d="m 784.814,638.669 c -0.822,1.9 -3.03,2.774 -4.93,1.952 l -25.639,-11.095 c -1.901,-0.822 -2.775,-3.03 -1.952,-4.931 l 25.988,-60.054 c 0.822,-1.901 3.03,-2.775 4.931,-1.952 l 25.638,11.094 c 1.901,0.823 2.775,3.031 1.952,4.931 z"
             id="path759" />
          <path
             style="fill:none;stroke:#000000;stroke-width:2"
             inkscape:connector-curvature="0"
             d="M 795.658,607.711 767.437,595.499 z"
             id="path761" />
        </g>
        <g
           id="g763">
          <path
             style="stroke:#000000;stroke-width:2"
             inkscape:connector-curvature="0"
             d="m 770.946,616.66 c 0.823,-1.901 3.031,-2.775 4.931,-1.952 1.901,0.822 2.775,3.03 1.953,4.93 -0.823,1.901 -3.031,2.775 -4.931,1.953 -1.901,-0.823 -2.775,-3.03 -1.953,-4.931 z"
             id="path765" />
          <path
             style="stroke:#000000;stroke-width:2"
             inkscape:connector-curvature="0"
             d="m 785.244,583.621 c 0.822,-1.901 3.03,-2.775 4.931,-1.953 1.9,0.823 2.774,3.031 1.952,4.931 -0.823,1.901 -3.03,2.775 -4.931,1.953 -1.901,-0.823 -2.775,-3.031 -1.952,-4.931 z"
             id="path767" />
        </g>
      </g>
      <path
         style="fill:#0049fd;fill-opacity:0.23999999;stroke:#000000;stroke-dasharray:2"
         inkscape:connector-curvature="0"
         d="m 29.93842,225.58254 c -0.842,-1.281 -0.385,-3.067 1.02,-3.99 l 44.748,-29.394 c 1.405,-0.923 3.226,-0.632 4.067,0.649 l 4.571,6.958 c 0.841,1.281 0.384,3.067 -1.02,3.99 l -44.749,29.394 c -1.404,0.923 -3.225,0.632 -4.066,-0.649 z"
         id="path769" />
      <path
         style="fill:#ff464c;fill-opacity:0.45;stroke:#000000;stroke-dasharray:2"
         inkscape:connector-curvature="0"
         d="m 60.16742,201.47954 c -0.561,-1.469 0.651,-3.05 2.709,-3.532 l 65.55,-15.358 c 2.058,-0.482 4.181,0.317 4.743,1.786 l 3.052,7.975 c 0.562,1.468 -0.65,3.049 -2.708,3.531 l -65.55,15.358 c -2.058,0.482 -4.182,-0.317 -4.743,-1.785 z"
         id="path771" />
      <path
         style="fill:#0049fd;fill-opacity:0.23999999;stroke:#000000;stroke-dasharray:2"
         inkscape:connector-curvature="0"
         d="m -18.97058,302.89354 c -1.38,-0.666 -1.907,-2.432 -1.178,-3.946 l 23.254,-48.226 c 0.73,-1.513 2.441,-2.201 3.822,-1.535 l 7.498,3.616 c 1.381,0.665 1.908,2.432 1.178,3.946 l -23.254,48.225 c -0.73,1.514 -2.44,2.202 -3.821,1.536 z"
         id="path773" />
      <path
         style="fill:#ff464c;fill-opacity:0.45;stroke:#000000;stroke-dasharray:2"
         inkscape:connector-curvature="0"
         d="m -4.08358,267.58154 c -1.289,-0.899 -1.174,-2.888 0.258,-4.443 l 45.611,-49.521 c 1.432,-1.554 3.638,-2.086 4.927,-1.186 l 7.004,4.884 c 1.29,0.899 1.174,2.888 -0.257,4.443 l -45.611,49.521 c -1.432,1.555 -3.638,2.086 -4.927,1.187 z"
         id="path775" />
      <path
         style="fill:#0049fd;fill-opacity:0.23999999;stroke:#000000;stroke-dasharray:2"
         inkscape:connector-curvature="0"
         d="m -23.24958,392.87754 c -1.532,0 -2.775,-1.362 -2.775,-3.043 l 0,-53.539 c 0,-1.681 1.243,-3.043 2.775,-3.043 l 8.325,0 c 1.533,0 2.775,1.362 2.775,3.043 l 0,53.539 c 0,1.681 -1.242,3.043 -2.775,3.043 z"
         id="path777" />
      <path
         style="fill:#ff464c;fill-opacity:0.45;stroke:#000000;stroke-dasharray:2"
         inkscape:connector-curvature="0"
         d="m -25.04158,355.24554 c -1.571,-0.051 -2.555,-1.704 -2.199,-3.693 l 11.357,-63.345 c 0.356,-1.988 1.919,-3.559 3.49,-3.508 l 8.534,0.278 c 1.572,0.052 2.556,1.705 2.2,3.694 l -11.357,63.345 c -0.357,1.988 -1.919,3.559 -3.49,3.508 z"
         id="path779" />
      <g
         transform="translate(-784.43558,-322.51846)"
         id="g781">
        <g
           id="g783">
          <path
             style="fill:#ffffff;fill-rule:evenodd;stroke:#000000;stroke-width:2;stroke-linejoin:round"
             inkscape:connector-curvature="0"
             d="m 1073.88,718.941 c 0,2.071 1.68,3.75 3.75,3.75 l 27.93,0 c 2.07,0 3.75,-1.679 3.75,-3.75 l 0,-65.436 c 0,-2.071 -1.68,-3.75 -3.75,-3.75 l -27.93,0 c -2.07,0 -3.75,1.679 -3.75,3.75 z"
             id="path785" />
          <path
             style="fill:none;stroke:#000000;stroke-width:2"
             inkscape:connector-curvature="0"
             d="m 1076.22,686.223 30.75,0 z"
             id="path787" />
        </g>
        <g
           id="g789">
          <path
             style="stroke:#000000;stroke-width:2"
             inkscape:connector-curvature="0"
             d="m 1095.35,704.25 c 0,-2.071 -1.68,-3.75 -3.75,-3.75 -2.08,0 -3.75,1.679 -3.75,3.75 0,2.071 1.67,3.75 3.75,3.75 2.07,0 3.75,-1.679 3.75,-3.75 z"
             id="path791" />
          <path
             style="stroke:#000000;stroke-width:2"
             inkscape:connector-curvature="0"
             d="m 1095.35,668.25 c 0,-2.071 -1.68,-3.75 -3.75,-3.75 -2.08,0 -3.75,1.679 -3.75,3.75 0,2.071 1.67,3.75 3.75,3.75 2.07,0 3.75,-1.679 3.75,-3.75 z"
             id="path793" />
        </g>
      </g>
      <g
         transform="translate(-784.43558,-322.51846)"
         id="g795">
        <g
           id="g797">
          <path
             style="fill:#ffffff;fill-rule:evenodd;stroke:#000000;stroke-width:2;stroke-linejoin:round"
             inkscape:connector-curvature="0"
             d="m 1033,568.425 c 1.73,1.138 4.06,0.656 5.2,-1.075 l 15.33,-23.349 c 1.14,-1.731 0.66,-4.056 -1.07,-5.193 l -54.694,-35.926 c -1.731,-1.137 -4.056,-0.656 -5.193,1.075 l -15.337,23.35 c -1.137,1.731 -0.656,4.056 1.075,5.193 z"
             id="path799" />
          <path
             style="fill:none;stroke:#000000;stroke-width:2"
             inkscape:connector-curvature="0"
             d="m 1006.94,548.504 16.89,-25.701 z"
             id="path801" />
        </g>
        <g
           id="g803">
          <path
             style="stroke:#000000;stroke-width:2"
             inkscape:connector-curvature="0"
             d="m 1032.51,542.417 c -1.73,-1.137 -4.06,-0.656 -5.19,1.075 -1.14,1.731 -0.66,4.056 1.07,5.193 1.73,1.137 4.06,0.656 5.2,-1.075 1.13,-1.731 0.65,-4.056 -1.08,-5.193 z"
             id="path805" />
          <path
             style="stroke:#000000;stroke-width:2"
             inkscape:connector-curvature="0"
             d="m 1002.42,522.652 c -1.73,-1.137 -4.054,-0.656 -5.191,1.075 -1.137,1.731 -0.656,4.056 1.075,5.193 1.736,1.137 4.056,0.656 5.196,-1.075 1.13,-1.731 0.65,-4.056 -1.08,-5.193 z"
             id="path807" />
        </g>
      </g>
      <g
         transform="translate(-784.43558,-322.51846)"
         id="g809">
        <g
           id="g811">
          <path
             style="fill:#ffffff;fill-rule:evenodd;stroke:#000000;stroke-width:2;stroke-linejoin:round"
             inkscape:connector-curvature="0"
             d="m 1071.94,638.962 c 0.82,1.901 3.03,2.775 4.93,1.952 l 25.64,-11.095 c 1.9,-0.822 2.77,-3.03 1.95,-4.93 l -25.99,-60.055 c -0.82,-1.9 -3.03,-2.774 -4.93,-1.952 l -25.64,11.095 c -1.9,0.822 -2.77,3.03 -1.95,4.931 z"
             id="path813" />
          <path
             style="fill:none;stroke:#000000;stroke-width:2"
             inkscape:connector-curvature="0"
             d="m 1061.09,608.004 28.23,-12.212 z"
             id="path815" />
        </g>
        <g
           id="g817">
          <path
             style="stroke:#000000;stroke-width:2"
             inkscape:connector-curvature="0"
             d="m 1085.81,616.953 c -0.83,-1.901 -3.03,-2.775 -4.93,-1.952 -1.91,0.822 -2.78,3.03 -1.96,4.931 0.83,1.901 3.03,2.775 4.93,1.952 1.9,-0.822 2.78,-3.03 1.96,-4.931 z"
             id="path819" />
          <path
             style="stroke:#000000;stroke-width:2"
             inkscape:connector-curvature="0"
             d="m 1071.51,583.914 c -0.82,-1.901 -3.03,-2.775 -4.93,-1.952 -1.9,0.822 -2.78,3.03 -1.95,4.931 0.82,1.9 3.03,2.774 4.93,1.952 1.9,-0.823 2.77,-3.03 1.95,-4.931 z"
             id="path821" />
        </g>
      </g>
      <path
         style="fill:#0049fd;fill-opacity:0.23999999;stroke:#000000;stroke-dasharray:2"
         inkscape:connector-curvature="0"
         d="m 257.94442,225.87554 c 0.84,-1.281 0.38,-3.067 -1.02,-3.99 l -44.75,-29.394 c -1.404,-0.922 -3.225,-0.632 -4.067,0.649 l -4.57,6.958 c -0.842,1.281 -0.385,3.067 1.02,3.99 l 44.747,29.394 c 1.41,0.923 3.23,0.632 4.07,-0.649 z"
         id="path823" />
      <path
         style="fill:#00cf68;fill-opacity:0.33000004;stroke:#000000;stroke-dasharray:2"
         inkscape:connector-curvature="0"
         d="m 227.71442,201.77254 c 0.56,-1.468 -0.65,-3.049 -2.71,-3.531 l -65.55,-15.358 c -2.057,-0.483 -4.181,0.317 -4.743,1.785 l -3.052,7.975 c -0.562,1.468 0.651,3.049 2.708,3.531 l 65.547,15.359 c 2.06,0.482 4.18,-0.318 4.75,-1.786 z"
         id="path825" />
      <path
         style="fill:#0049fd;fill-opacity:0.23999999;stroke:#000000;stroke-dasharray:2"
         inkscape:connector-curvature="0"
         d="m 306.85442,303.18654 c 1.38,-0.665 1.9,-2.432 1.17,-3.946 l -23.25,-48.225 c -0.73,-1.514 -2.44,-2.202 -3.82,-1.536 l -7.5,3.616 c -1.38,0.666 -1.91,2.432 -1.18,3.946 l 23.26,48.226 c 0.73,1.513 2.44,2.201 3.82,1.535 z"
         id="path827" />
      <path
         style="fill:#ff464c;fill-opacity:0.45;stroke:#000000;stroke-dasharray:2"
         inkscape:connector-curvature="0"
         d="m 291.96442,267.87454 c 1.29,-0.899 1.17,-2.888 -0.26,-4.442 l -45.61,-49.522 c -1.43,-1.554 -3.64,-2.085 -4.93,-1.186 l -7,4.884 c -1.29,0.9 -1.17,2.889 0.26,4.443 l 45.61,49.521 c 1.43,1.555 3.64,2.086 4.93,1.187 z"
         id="path829" />
      <path
         style="fill:#0049fd;fill-opacity:0.23999999;stroke:#000000;stroke-dasharray:2"
         inkscape:connector-curvature="0"
         d="m 311.13442,393.17054 c 1.53,0 2.77,-1.362 2.77,-3.043 l 0,-53.539 c 0,-1.68 -1.24,-3.043 -2.77,-3.043 l -8.33,0 c -1.53,0 -2.77,1.363 -2.77,3.043 l 0,53.539 c 0,1.681 1.24,3.043 2.77,3.043 z"
         id="path831" />
      <path
         style="fill:#ff464c;fill-opacity:0.45;stroke:#000000;stroke-dasharray:2"
         inkscape:connector-curvature="0"
         d="m 312.92442,355.53954 c 1.57,-0.051 2.55,-1.705 2.2,-3.693 l -11.36,-63.346 c -0.36,-1.988 -1.92,-3.559 -3.49,-3.507 l -8.53,0.278 c -1.58,0.051 -2.56,1.704 -2.2,3.693 l 11.35,63.345 c 0.36,1.989 1.92,3.559 3.49,3.508 z"
         id="path833" />
      <path
         style="fill:#0049fd;fill-opacity:0.23999999;stroke:#000000;stroke-dasharray:2"
         inkscape:connector-curvature="0"
         d="m 114.71542,535.41554 c 0,-1.532 1.362,-2.775 3.042,-2.775 l 53.54,0 c 1.68,0 3.043,1.243 3.043,2.775 l 0,8.325 c 0,1.533 -1.363,2.775 -3.043,2.775 l -53.54,0 c -1.68,0 -3.042,-1.242 -3.042,-2.775 z"
         id="path835" />
      <path
         style="fill:#0049fd;fill-opacity:0.23999999;stroke:#000000;stroke-dasharray:2"
         inkscape:connector-curvature="0"
         d="m 12.50642,472.24954 c 1.406,-0.608 2.006,-2.352 1.34,-3.894 l -21.24,-49.146 c -0.667,-1.543 -2.348,-2.3 -3.755,-1.692 l -7.642,3.302 c -1.407,0.608 -2.007,2.352 -1.34,3.894 l 21.24,49.146 c 0.667,1.543 2.348,2.3 3.755,1.692 z"
         id="path837" />
      <g
         transform="translate(-784.43558,-322.51846)"
         id="g839">
        <g
           id="g841">
          <path
             style="fill:#ffffff;fill-rule:evenodd;stroke:#000000;stroke-width:2;stroke-linejoin:round"
             inkscape:connector-curvature="0"
             d="m 823.749,803.934 c -1.731,-1.137 -4.056,-0.656 -5.193,1.075 l -15.337,23.349 c -1.137,1.731 -0.656,4.056 1.075,5.194 l 54.692,35.925 c 1.731,1.137 4.056,0.656 5.193,-1.075 l 15.338,-23.349 c 1.137,-1.731 0.655,-4.056 -1.076,-5.193 z"
             id="path843" />
          <path
             style="fill:none;stroke:#000000;stroke-width:2"
             inkscape:connector-curvature="0"
             d="m 849.809,823.855 -16.883,25.701 z"
             id="path845" />
        </g>
        <g
           id="g847">
          <path
             style="stroke:#000000;stroke-width:2"
             inkscape:connector-curvature="0"
             d="m 824.242,829.943 c 1.731,1.137 4.056,0.655 5.193,-1.076 1.137,-1.731 0.655,-4.056 -1.076,-5.193 -1.731,-1.137 -4.056,-0.655 -5.193,1.076 -1.137,1.731 -0.655,4.056 1.076,5.193 z"
             id="path849" />
          <path
             style="stroke:#000000;stroke-width:2"
             inkscape:connector-curvature="0"
             d="m 854.331,849.708 c 1.731,1.137 4.056,0.655 5.193,-1.076 1.137,-1.731 0.655,-4.056 -1.076,-5.193 -1.731,-1.137 -4.056,-0.656 -5.193,1.075 -1.137,1.731 -0.655,4.056 1.076,5.194 z"
             id="path851" />
        </g>
      </g>
      <g
         transform="translate(-784.43558,-322.51846)"
         id="g853">
        <g
           id="g855">
          <path
             style="fill:#ffffff;fill-rule:evenodd;stroke:#000000;stroke-width:2;stroke-linejoin:round"
             inkscape:connector-curvature="0"
             d="m 784.814,733.397 c -0.822,-1.9 -3.03,-2.774 -4.93,-1.952 l -25.639,11.095 c -1.901,0.822 -2.775,3.03 -1.952,4.931 l 25.988,60.054 c 0.822,1.901 3.03,2.775 4.931,1.952 l 25.638,-11.094 c 1.901,-0.823 2.775,-3.031 1.952,-4.931 z"
             id="path857" />
          <path
             style="fill:none;stroke:#000000;stroke-width:2"
             inkscape:connector-curvature="0"
             d="m 795.658,764.355 -28.221,12.212 z"
             id="path859" />
        </g>
        <g
           id="g861">
          <path
             style="stroke:#000000;stroke-width:2"
             inkscape:connector-curvature="0"
             d="m 770.946,755.406 c 0.823,1.901 3.031,2.775 4.931,1.952 1.901,-0.822 2.775,-3.03 1.953,-4.93 -0.823,-1.901 -3.031,-2.775 -4.931,-1.953 -1.901,0.823 -2.775,3.03 -1.953,4.931 z"
             id="path863" />
          <path
             style="stroke:#000000;stroke-width:2"
             inkscape:connector-curvature="0"
             d="m 785.244,788.445 c 0.822,1.901 3.03,2.775 4.931,1.953 1.9,-0.823 2.774,-3.031 1.952,-4.931 -0.823,-1.901 -3.03,-2.775 -4.931,-1.953 -1.901,0.823 -2.775,3.031 -1.952,4.931 z"
             id="path865" />
        </g>
      </g>
      <path
         style="fill:#ff464c;fill-opacity:0.45;stroke:#000000;stroke-dasharray:2"
         inkscape:connector-curvature="0"
         d="m -13.00658,441.45454 c -1.504,0.394 -2.994,-0.818 -3.329,-2.708 l -10.664,-60.196 c -0.335,-1.89 0.612,-3.741 2.116,-4.135 l 8.168,-2.139 c 1.504,-0.394 2.994,0.819 3.329,2.708 l 10.665,60.196 c 0.334,1.89 -0.613,3.741 -2.117,4.135 z"
         id="path867" />
      <path
         style="fill:#ff464c;fill-opacity:0.45;stroke:#000000;stroke-dasharray:2"
         inkscape:connector-curvature="0"
         d="m 51.61642,508.47354 c 1.31,-0.807 1.242,-2.661 -0.153,-4.14 l -44.431,-47.14 c -1.395,-1.48 -3.588,-2.026 -4.898,-1.219 l -7.117,4.383 c -1.311,0.807 -1.242,2.661 0.153,4.14 l 44.431,47.14 c 1.394,1.48 3.587,2.025 4.898,1.219 z"
         id="path869" />
      <path
         style="fill:#0049fd;fill-opacity:0.23999999;stroke:#000000;stroke-dasharray:2"
         inkscape:connector-curvature="0"
         d="m 83.46142,526.68754 c 0.855,-1.272 0.419,-3.063 -0.975,-4.001 l -44.415,-29.896 c -1.395,-0.938 -3.218,-0.668 -4.074,0.603 l -4.649,6.906 c -0.856,1.272 -0.419,3.063 0.975,4.002 l 44.415,29.895 c 1.394,0.939 3.218,0.669 4.074,-0.603 z"
         id="path871" />
      <path
         style="fill:#ff464c;fill-opacity:0.45;stroke:#000000;stroke-dasharray:2"
         inkscape:connector-curvature="0"
         d="m 137.06542,538.14354 c 0.636,-1.437 -0.495,-3.078 -2.525,-3.664 l -64.685,-18.672 c -2.03,-0.586 -4.192,0.104 -4.827,1.542 l -3.454,7.81 c -0.636,1.438 0.495,3.078 2.525,3.664 l 64.684,18.672 c 2.031,0.586 4.192,-0.104 4.828,-1.542 z"
         id="path873" />
      <path
         style="fill:#0049fd;fill-opacity:0.23999999;stroke:#000000;stroke-dasharray:2"
         inkscape:connector-curvature="0"
         d="m 14.80142,473.04654 c 1.381,-0.665 1.908,-2.432 1.178,-3.946 l -23.254,-48.225 c -0.73,-1.514 -2.441,-2.202 -3.821,-1.536 l -7.499,3.616 c -1.38,0.665 -1.908,2.432 -1.178,3.946 l 23.254,48.225 c 0.73,1.514 2.441,2.202 3.821,1.536 z"
         id="path875" />
      <g
         transform="translate(-784.43558,-322.51846)"
         id="g877">
        <g
           id="g879">
          <g
             id="g881">
            <path
               style="fill:#ffffff;fill-rule:evenodd;stroke:#000000;stroke-width:2;stroke-linejoin:round"
               inkscape:connector-curvature="0"
               d="m 1032.97,803.934 c 1.73,-1.137 4.06,-0.656 5.19,1.075 l 15.34,23.349 c 1.14,1.731 0.66,4.056 -1.07,5.194 l -54.695,35.925 c -1.731,1.137 -4.056,0.656 -5.193,-1.075 l -15.338,-23.349 c -1.137,-1.731 -0.655,-4.056 1.076,-5.193 z"
               id="path883" />
            <path
               style="fill:none;stroke:#000000;stroke-width:2"
               inkscape:connector-curvature="0"
               d="m 1006.91,823.855 16.88,25.701 z"
               id="path885" />
          </g>
          <g
             id="g887">
            <path
               style="stroke:#000000;stroke-width:2"
               inkscape:connector-curvature="0"
               d="m 1032.48,829.943 c -1.73,1.137 -4.06,0.655 -5.19,-1.076 -1.14,-1.731 -0.66,-4.056 1.07,-5.193 1.73,-1.137 4.06,-0.655 5.19,1.076 1.14,1.731 0.66,4.056 -1.07,5.193 z"
               id="path889" />
            <path
               style="stroke:#000000;stroke-width:2"
               inkscape:connector-curvature="0"
               d="m 1002.39,849.708 c -1.73,1.137 -4.056,0.655 -5.193,-1.076 -1.137,-1.731 -0.656,-4.056 1.075,-5.193 1.728,-1.137 4.058,-0.656 5.198,1.075 1.13,1.731 0.65,4.056 -1.08,5.194 z"
               id="path891" />
          </g>
        </g>
        <g
           id="g893">
          <g
             id="g895">
            <path
               style="fill:#ffffff;fill-rule:evenodd;stroke:#000000;stroke-width:2;stroke-linejoin:round"
               inkscape:connector-curvature="0"
               d="m 1071.91,733.397 c 0.82,-1.9 3.03,-2.774 4.93,-1.952 l 25.64,11.095 c 1.9,0.822 2.77,3.03 1.95,4.931 l -25.99,60.054 c -0.82,1.901 -3.03,2.775 -4.93,1.952 l -25.64,-11.094 c -1.9,-0.823 -2.77,-3.031 -1.95,-4.931 z"
               id="path897" />
            <path
               style="fill:none;stroke:#000000;stroke-width:2"
               inkscape:connector-curvature="0"
               d="m 1061.06,764.355 28.22,12.212 z"
               id="path899" />
          </g>
          <g
             id="g901">
            <path
               style="stroke:#000000;stroke-width:2"
               inkscape:connector-curvature="0"
               d="m 1085.77,755.406 c -0.82,1.901 -3.03,2.775 -4.93,1.952 -1.9,-0.822 -2.77,-3.03 -1.95,-4.93 0.82,-1.901 3.03,-2.775 4.93,-1.953 1.9,0.823 2.78,3.03 1.95,4.931 z"
               id="path903" />
            <path
               style="stroke:#000000;stroke-width:2"
               inkscape:connector-curvature="0"
               d="m 1071.48,788.445 c -0.83,1.901 -3.03,2.775 -4.93,1.953 -1.9,-0.823 -2.78,-3.031 -1.96,-4.931 0.83,-1.901 3.03,-2.775 4.93,-1.953 1.91,0.823 2.78,3.031 1.96,4.931 z"
               id="path905" />
          </g>
        </g>
        <path
           style="fill:#ff464c;fill-opacity:0.45;stroke:#000000;stroke-dasharray:2"
           inkscape:connector-curvature="0"
           d="m 1085.29,763.973 c 1.51,0.394 3,-0.818 3.33,-2.708 l 10.67,-60.196 c 0.33,-1.89 -0.62,-3.741 -2.12,-4.135 l -8.17,-2.139 c -1.5,-0.394 -2.99,0.819 -3.33,2.708 l -10.66,60.196 c -0.34,1.89 0.61,3.741 2.11,4.135 z"
           id="path907" />
        <path
           style="fill:#ff464c;fill-opacity:0.45;stroke:#000000;stroke-dasharray:2"
           inkscape:connector-curvature="0"
           d="m 1020.67,830.992 c -1.31,-0.807 -1.24,-2.661 0.15,-4.14 l 44.43,-47.14 c 1.4,-1.48 3.59,-2.026 4.9,-1.219 l 7.12,4.383 c 1.31,0.807 1.24,2.661 -0.15,4.14 l -44.44,47.14 c -1.39,1.48 -3.58,2.025 -4.89,1.219 z"
           id="path909" />
        <path
           style="fill:#0049fd;fill-opacity:0.23999999;stroke:#000000;stroke-dasharray:2"
           inkscape:connector-curvature="0"
           d="m 988.824,849.206 c -0.856,-1.272 -0.419,-3.063 0.975,-4.001 l 44.411,-29.896 c 1.4,-0.938 3.22,-0.668 4.08,0.603 l 4.65,6.906 c 0.85,1.272 0.42,3.063 -0.98,4.002 l -44.413,29.895 c -1.395,0.939 -3.219,0.669 -4.074,-0.603 z"
           id="path911" />
        <path
           style="fill:#ff464c;fill-opacity:0.45;stroke:#000000;stroke-dasharray:2"
           inkscape:connector-curvature="0"
           d="m 935.22,860.662 c -0.636,-1.437 0.495,-3.078 2.525,-3.664 l 64.685,-18.672 c 2.03,-0.586 4.19,0.104 4.83,1.542 l 3.45,7.81 c 0.64,1.438 -0.49,3.078 -2.52,3.664 l -64.689,18.672 c -2.03,0.586 -4.192,-0.104 -4.827,-1.542 z"
           id="path913" />
        <path
           style="fill:#0049fd;fill-opacity:0.23999999;stroke:#000000;stroke-dasharray:2"
           inkscape:connector-curvature="0"
           d="m 1057.48,795.565 c -1.38,-0.665 -1.9,-2.432 -1.17,-3.946 l 23.25,-48.225 c 0.73,-1.514 2.44,-2.202 3.82,-1.536 l 7.5,3.616 c 1.38,0.665 1.91,2.432 1.18,3.946 l -23.26,48.225 c -0.73,1.514 -2.44,2.202 -3.82,1.536 z"
           id="path915" />
      </g>
      <use
         height="1052.3622"
         width="744.09448"
         y="0"
         x="0"
         xlink:href="#7fc874448580"
         transform="translate(149.05842,151.72554)"
         id="use917" />
      <text
         y="262.33353"
         x="122.40742"
         style="font-size:18px;font-family:American Typewriter"
         font-size="18"
         xml:space="preserve"
         id="text922"><tspan
           id="tspan924">last bond</tspan></text>
      <path
         style="fill:#0049fd;fill-opacity:0.23999999;stroke:#000000;stroke-dasharray:2"
         inkscape:connector-curvature="0"
         d="m -158.66358,482.46554 c 0,-1.533 1.362,-2.775 3.043,-2.775 l 53.539,0 c 1.68,0 3.043,1.242 3.043,2.775 l 0,8.325 c 0,1.532 -1.363,2.775 -3.043,2.775 l -53.539,0 c -1.681,0 -3.043,-1.243 -3.043,-2.775 z"
         id="path926" />
      <path
         style="fill:#ff464c;fill-opacity:0.47000002;stroke:#000000;stroke-dasharray:2"
         inkscape:connector-curvature="0"
         d="m -158.12058,510.76754 c 0,-1.532 1.362,-2.775 3.042,-2.775 l 53.54,0 c 1.68,0 3.043,1.243 3.043,2.775 l 0,8.325 c 0,1.533 -1.363,2.775 -3.043,2.775 l -53.54,0 c -1.68,0 -3.042,-1.242 -3.042,-2.775 z"
         id="path928" />
      <path
         style="fill:#00cf68;fill-opacity:0.47999998;stroke:#000000;stroke-dasharray:2"
         inkscape:connector-curvature="0"
         d="m -158.66358,539.28754 c 0,-1.533 1.362,-2.775 3.043,-2.775 l 53.539,0 c 1.68,0 3.043,1.242 3.043,2.775 l 0,8.325 c 0,1.532 -1.363,2.775 -3.043,2.775 l -53.539,0 c -1.681,0 -3.043,-1.243 -3.043,-2.775 z"
         id="path930" />
      <g
         transform="matrix(0.59558182,0,0,0.59558182,-25.023819,-52.818437)"
         id="g7741">
        <g
           style="font-style:normal;font-variant:normal;font-weight:normal;font-stretch:normal;letter-spacing:normal;word-spacing:normal;text-anchor:start;fill:none;stroke:#000000;stroke-linecap:butt;stroke-linejoin:miter;stroke-miterlimit:10.43299961;stroke-opacity:1;stroke-dasharray:none;stroke-dashoffset:0"
           word-spacing="normal"
           letter-spacing="normal"
           font-size-adjust="none"
           font-stretch="normal"
           font-weight="normal"
           font-variant="normal"
           font-style="normal"
           stroke-miterlimit="10.433"
           xml:space="preserve"
           transform="matrix(1.0629921,0,0,-1.0629921,-186.02362,789.27165)"
           id="content"><path
             style="fill:#000000;stroke-width:0"
             inkscape:connector-curvature="0"
             id="path7744"
             d="m 457.57,418.86 0.09,0.26 0.1,0.26 0.1,0.24 0.11,0.25 0.11,0.23 0.12,0.22 0.12,0.22 0.12,0.21 0.13,0.2 0.13,0.2 0.13,0.19 0.14,0.18 0.28,0.34 0.29,0.32 0.3,0.29 0.31,0.27 0.31,0.24 0.32,0.22 0.32,0.21 0.32,0.18 0.31,0.16 0.32,0.15 0.31,0.13 0.3,0.11 0.3,0.1 0.29,0.08 0.28,0.07 0.27,0.06 0.25,0.05 0.24,0.04 0.22,0.03 0.21,0.02 0.19,0.02 0.16,0.01 0.14,0.01 0.12,0.01 0.09,0 0.07,0 c 7.51,0 8.06,-8.72 8.06,-12.66 0,-3.05 -0.25,-3.89 -0.59,-4.89 -1.1,-3.63 -2.6,-9.41 -2.6,-10.7 0,-0.55 0.25,-0.91 0.66,-0.91 0.64,0 1.05,1.11 1.59,3 1.14,4.19 1.64,7.02 1.85,8.56 0.09,0.66 0.18,1.3 0.39,1.96 1.59,4.92 4.78,12.34 6.78,16.28 0.34,0.59 0.94,1.7 0.94,1.89 0,0.5 -0.49,0.5 -0.6,0.5 -0.14,0 -0.45,0 -0.59,-0.35 -2.59,-4.73 -4.58,-9.71 -6.58,-14.75 -0.05,1.55 -0.09,5.33 -2.05,10.18 -1.18,3.03 -3.18,5.46 -6.62,5.46 -6.22,0 -9.72,-7.56 -9.72,-9.1 0,-0.5 0.45,-0.5 0.95,-0.5 z" /><path
             style="fill:#000000;stroke-width:0"
             inkscape:connector-curvature="0"
             id="path7746"
             d="m 492.99,420.92 0,0.04 0,0.04 0,0.05 0,0.04 0,0.03 0,0.04 0,0.04 0,0.03 0,0.04 -0.01,0.03 0,0.03 0,0.03 0,0.03 -0.01,0.03 0,0.03 0,0.02 -0.01,0.03 0,0.02 -0.01,0.03 0,0.02 -0.01,0.04 -0.02,0.04 -0.02,0.03 -0.02,0.03 -0.02,0.03 -0.02,0.03 -0.03,0.02 -0.03,0.02 -0.03,0.02 -0.04,0.01 -0.04,0.01 -0.05,0.02 -0.02,0 -0.02,0 -0.03,0.01 -0.03,0 -0.02,0.01 -0.03,0 -0.03,0 -0.03,0 -0.03,0 -0.04,0.01 -0.03,0 -0.04,0 -0.03,0 -0.04,0 -0.04,0 -0.04,0 -0.04,0 -0.05,0 -0.04,0 -0.04,0 c -2.24,-2.2 -5.4,-2.23 -6.83,-2.23 v -1.25 c 0.84,0 3.14,0 5.04,0.97 v -17.77 c 0,-1.16 0,-1.61 -3.48,-1.61 h -1.31 v -1.25 c 0.62,0.03 4.9,0.14 6.2,0.14 1.08,0 5.47,-0.11 6.23,-0.14 v 1.25 h -1.32 c -3.49,0 -3.49,0.45 -3.49,1.61 z" /></g>      </g>
      <g
         transform="matrix(0.59558182,0,0,0.59558182,46.97618,-40.818437)"
         id="g8292">
        <g
           style="font-style:normal;font-variant:normal;font-weight:normal;font-stretch:normal;letter-spacing:normal;word-spacing:normal;text-anchor:start;fill:none;stroke:#000000;stroke-linecap:butt;stroke-linejoin:miter;stroke-miterlimit:10.43299961;stroke-opacity:1;stroke-dasharray:none;stroke-dashoffset:0"
           word-spacing="normal"
           letter-spacing="normal"
           font-size-adjust="none"
           font-stretch="normal"
           font-weight="normal"
           font-variant="normal"
           font-style="normal"
           stroke-miterlimit="10.433"
           xml:space="preserve"
           transform="matrix(1.0629921,0,0,-1.0629921,-186.02362,789.27165)"
           id="g8294"><path
             style="fill:#000000;stroke-width:0"
             inkscape:connector-curvature="0"
             id="path8296"
             d="m 457.57,418.86 0.09,0.26 0.1,0.26 0.1,0.24 0.11,0.25 0.11,0.23 0.12,0.22 0.12,0.22 0.12,0.21 0.13,0.2 0.13,0.2 0.13,0.19 0.14,0.18 0.28,0.34 0.29,0.32 0.3,0.29 0.31,0.27 0.31,0.24 0.32,0.22 0.32,0.21 0.32,0.18 0.31,0.16 0.32,0.15 0.31,0.13 0.3,0.11 0.3,0.1 0.29,0.08 0.28,0.07 0.27,0.06 0.25,0.05 0.24,0.04 0.22,0.03 0.21,0.02 0.19,0.02 0.16,0.01 0.14,0.01 0.12,0.01 0.09,0 0.07,0 c 7.51,0 8.06,-8.72 8.06,-12.66 0,-3.05 -0.25,-3.89 -0.59,-4.89 -1.1,-3.63 -2.6,-9.41 -2.6,-10.7 0,-0.55 0.25,-0.91 0.66,-0.91 0.64,0 1.05,1.11 1.59,3 1.14,4.19 1.64,7.02 1.85,8.56 0.09,0.66 0.18,1.3 0.39,1.96 1.59,4.92 4.78,12.34 6.78,16.28 0.34,0.59 0.94,1.7 0.94,1.89 0,0.5 -0.49,0.5 -0.6,0.5 -0.14,0 -0.45,0 -0.59,-0.35 -2.59,-4.73 -4.58,-9.71 -6.58,-14.75 -0.05,1.55 -0.09,5.33 -2.05,10.18 -1.18,3.03 -3.18,5.46 -6.62,5.46 -6.22,0 -9.72,-7.56 -9.72,-9.1 0,-0.5 0.45,-0.5 0.95,-0.5 z" /><path
             style="fill:#000000;stroke-width:0"
             inkscape:connector-curvature="0"
             id="path8298"
             d="m 498.91,405.11 h -1.18 c -0.1,-0.77 -0.46,-2.83 -0.91,-3.18 -0.27,-0.2 -2.95,-0.2 -3.44,-0.2 h -6.42 c 3.66,3.23 4.88,4.2 6.97,5.84 2.58,2.07 4.98,4.22 4.98,7.54 0,4.21 -3.68,6.79 -8.15,6.79 -4.31,0 -7.25,-3.03 -7.25,-6.23 0,-1.78 1.5,-1.96 1.86,-1.96 0.83,0 1.84,0.6 1.84,1.85 0,0.62 -0.25,1.84 -2.06,1.84 1.08,2.47 3.45,3.24 5.09,3.24 3.49,0 5.3,-2.71 5.3,-5.53 0,-3.04 -2.16,-5.44 -3.28,-6.69 l -8.39,-8.3 c -0.36,-0.31 -0.36,-0.39 -0.36,-1.36 h 14.36 z" /><path
             style="fill:#000000;stroke-width:0"
             inkscape:connector-curvature="0"
             id="path8300"
             d="m 530.18,418.76 0.07,0.25 0.07,0.24 0.04,0.12 0.05,0.11 0.05,0.12 0.05,0.11 0.06,0.11 0.06,0.11 0.06,0.1 0.07,0.1 0.08,0.1 0.08,0.09 0.09,0.1 0.1,0.08 0.1,0.09 0.11,0.08 0.12,0.08 0.13,0.07 0.13,0.07 0.15,0.06 0.15,0.06 0.17,0.05 0.17,0.05 0.18,0.05 0.2,0.04 0.2,0.03 0.22,0.03 0.11,0.01 0.12,0.01 0.12,0.01 0.12,0.01 0.13,0 0.13,0.01 c 0.17,0 0.7,0.03 0.7,0.76 0,0.21 -0.17,0.49 -0.53,0.49 -1.14,0 -2.44,-0.14 -3.63,-0.14 -0.82,0 -2.84,0.14 -3.68,0.14 -0.18,0 -0.71,0 -0.71,-0.77 0,-0.45 0.46,-0.48 0.78,-0.48 1.63,-0.03 2.22,-0.56 2.22,-1.44 0,-0.26 -0.03,-0.45 -0.14,-0.83 l -3.79,-15.18 -8.85,18.1 c -0.28,0.6 -0.34,0.6 -1.19,0.6 h -4.76 c -0.67,0 -1.13,0 -1.13,-0.77 0,-0.48 0.43,-0.48 1.16,-0.48 0.73,0 1.5,-0.03 2.22,-0.17 l -4.66,-18.64 c -0.31,-1.33 -0.9,-2.38 -3.62,-2.49 -0.25,0 -0.74,-0.03 -0.74,-0.73 0,-0.38 0.28,-0.52 0.52,-0.52 1.16,0 2.44,0.14 3.62,0.14 0.85,0 2.86,-0.14 3.71,-0.14 0.34,0 0.68,0.17 0.68,0.74 0,0.48 -0.42,0.51 -0.79,0.51 -2.21,0.08 -2.21,0.99 -2.21,1.47 0,0.14 0,0.31 0.15,0.88 l 4.46,17.82 10.18,-20.82 c 0.28,-0.57 0.42,-0.6 0.76,-0.6 0.56,0 0.56,0.11 0.74,0.74 z" /></g>      </g>
      <g
         transform="matrix(0.44395996,0,0,0.44395996,-221.16213,333.14103)"
         id="g8584">
        <g
           style="font-style:normal;font-variant:normal;font-weight:normal;font-stretch:normal;letter-spacing:normal;word-spacing:normal;text-anchor:start;fill:none;stroke:#000000;stroke-linecap:butt;stroke-linejoin:miter;stroke-miterlimit:10.43299961;stroke-opacity:1;stroke-dasharray:none;stroke-dashoffset:0"
           id="g8586"
           transform="matrix(1.0629921,0,0,-1.0629921,-186.02362,789.27165)"
           xml:space="preserve"
           stroke-miterlimit="10.433"
           font-style="normal"
           font-variant="normal"
           font-weight="normal"
           font-stretch="normal"
           font-size-adjust="none"
           letter-spacing="normal"
           word-spacing="normal"><path
             style="fill:#000000;stroke-width:0"
             inkscape:connector-curvature="0"
             d="m 467.04,423.68 0.02,0.1 0.02,0.11 0.03,0.11 0.03,0.11 0.03,0.12 0.03,0.12 0.06,0.24 0.06,0.25 0.06,0.25 0.06,0.24 0.06,0.25 0.02,0.11 0.03,0.12 0.03,0.11 0.02,0.11 0.03,0.1 0.02,0.1 0.02,0.1 0.02,0.08 0.02,0.09 0.01,0.07 0.02,0.07 0.01,0.07 0.01,0.05 0,0.05 0.01,0.03 0,0.02 0,0.01 c 0,0.84 -0.59,1.34 -1.44,1.34 -0.15,0 -1.54,-0.04 -2,-1.78 l -7.17,-28.86 c -0.14,-0.59 -0.14,-0.68 -0.14,-0.79 0,-0.74 0.55,-1.35 1.39,-1.35 1.05,0 1.64,0.91 1.75,1.05 0.19,0.45 0.84,3.05 2.73,10.72 1.6,-1.34 3.83,-1.55 4.83,-1.55 3.49,0 5.44,2.24 6.63,3.64 0.45,-2.25 2.29,-3.64 4.48,-3.64 1.75,0 2.89,1.14 3.69,2.74 0.84,1.79 1.5,4.84 1.5,4.93 0,0.5 -0.45,0.5 -0.59,0.5 -0.5,0 -0.55,-0.2 -0.71,-0.9 -0.84,-3.24 -1.75,-6.17 -3.78,-6.17 -1.34,0 -1.5,1.29 -1.5,2.29 0,1.1 0.6,3.44 1,5.17 l 1.39,5.4 c 0.16,0.75 0.64,2.64 0.85,3.39 0.25,1.14 0.75,3.03 0.75,3.32 0,0.91 -0.71,1.35 -1.44,1.35 -0.25,0 -1.55,-0.05 -1.95,-1.74 l -2.35,-9.32 c -0.59,-2.49 -1.14,-4.58 -1.3,-5.08 -0.04,-0.25 -2.43,-4.78 -6.46,-4.78 -2.49,0 -3.69,1.64 -3.69,4.32 0,1.46 0.34,2.85 0.7,4.25 z"
             id="path8588" /></g>      </g>
      <g
         transform="matrix(0.44233262,0,0,0.44233262,-222.33021,363.24253)"
         id="g8878">
        <g
           style="font-style:normal;font-variant:normal;font-weight:normal;font-stretch:normal;letter-spacing:normal;word-spacing:normal;text-anchor:start;fill:none;stroke:#000000;stroke-linecap:butt;stroke-linejoin:miter;stroke-miterlimit:10.43299961;stroke-opacity:1;stroke-dasharray:none;stroke-dashoffset:0"
           word-spacing="normal"
           letter-spacing="normal"
           font-size-adjust="none"
           font-stretch="normal"
           font-weight="normal"
           font-variant="normal"
           font-style="normal"
           stroke-miterlimit="10.433"
           xml:space="preserve"
           transform="matrix(1.0629921,0,0,-1.0629921,-186.02362,789.27165)"
           id="g8880"><path
             style="fill:#000000;stroke-width:0"
             inkscape:connector-curvature="0"
             id="path8882"
             d="m 465.79,426.12 h 4.68 c 0.99,0 1.49,0 1.49,1 0,0.55 -0.5,0.55 -1.39,0.55 h -4.39 c 1.79,7.08 2.04,8.08 2.04,8.37 0,0.85 -0.59,1.35 -1.43,1.35 -0.16,0 -1.55,-0.05 -2,-1.8 l -1.94,-7.92 h -4.69 c -1,0 -1.5,0 -1.5,-0.94 0,-0.61 0.41,-0.61 1.41,-0.61 h 4.37 c -3.58,-14.14 -3.78,-14.98 -3.78,-15.89 0,-2.69 1.89,-4.58 4.58,-4.58 5.08,0 7.92,7.27 7.92,7.67 0,0.5 -0.39,0.5 -0.59,0.5 -0.46,0 -0.5,-0.15 -0.75,-0.7 -2.14,-5.17 -4.78,-6.37 -6.47,-6.37 -1.05,0 -1.55,0.65 -1.55,2.29 0,1.19 0.09,1.55 0.3,2.39 z" /></g>      </g>
      <g
         transform="matrix(0.41585108,0,0,0.41585108,-215.96232,400.80457)"
         id="g9178">
        <g
           style="font-style:normal;font-variant:normal;font-weight:normal;font-stretch:normal;letter-spacing:normal;word-spacing:normal;text-anchor:start;fill:none;stroke:#000000;stroke-linecap:butt;stroke-linejoin:miter;stroke-miterlimit:10.43299961;stroke-opacity:1;stroke-dasharray:none;stroke-dashoffset:0"
           id="g9180"
           transform="matrix(1.0629921,0,0,-1.0629921,-186.02362,789.27165)"
           xml:space="preserve"
           stroke-miterlimit="10.433"
           font-style="normal"
           font-variant="normal"
           font-weight="normal"
           font-stretch="normal"
           font-size-adjust="none"
           letter-spacing="normal"
           word-spacing="normal"><path
             style="fill:#000000;stroke-width:0"
             inkscape:connector-curvature="0"
             d="m 465.79,426.12 h 4.68 c 0.99,0 1.49,0 1.49,1 0,0.55 -0.5,0.55 -1.39,0.55 h -4.39 c 1.79,7.08 2.04,8.08 2.04,8.37 0,0.85 -0.59,1.35 -1.43,1.35 -0.16,0 -1.55,-0.05 -2,-1.8 l -1.94,-7.92 h -4.69 c -1,0 -1.5,0 -1.5,-0.94 0,-0.61 0.41,-0.61 1.41,-0.61 h 4.37 c -3.58,-14.14 -3.78,-14.98 -3.78,-15.89 0,-2.69 1.89,-4.58 4.58,-4.58 5.08,0 7.92,7.27 7.92,7.67 0,0.5 -0.39,0.5 -0.59,0.5 -0.46,0 -0.5,-0.15 -0.75,-0.7 -2.14,-5.17 -4.78,-6.37 -6.47,-6.37 -1.05,0 -1.55,0.65 -1.55,2.29 0,1.19 0.09,1.55 0.3,2.39 z"
             id="path9182" /><path
             style="fill:#000000;stroke-width:0"
             inkscape:connector-curvature="0"
             d="m 490,394.25 0,0.02 0,0.03 0,0.01 0,0.02 0,0.01 -0.01,0.02 0,0.01 -0.01,0.02 -0.01,0.02 -0.01,0.02 -0.01,0.02 -0.02,0.03 -0.01,0.02 -0.02,0.03 -0.02,0.03 -0.03,0.03 -0.02,0.03 -0.03,0.04 -0.02,0.02 -0.01,0.02 -0.02,0.02 -0.02,0.02 -0.02,0.02 -0.02,0.03 -0.02,0.02 -0.02,0.02 -0.02,0.03 -0.03,0.02 -0.02,0.03 -0.03,0.03 -0.03,0.03 -0.02,0.03 -0.03,0.03 -0.03,0.03 -0.03,0.03 -0.03,0.03 -0.04,0.04 -0.03,0.03 -0.04,0.04 -0.03,0.03 -0.04,0.04 -0.04,0.04 c -6.22,6.28 -7.81,15.69 -7.81,23.31 0,8.67 1.89,17.35 8.01,23.56 0.64,0.61 0.64,0.71 0.64,0.86 0,0.35 -0.18,0.49 -0.48,0.49 -0.5,0 -4.98,-3.38 -7.92,-9.7 -2.55,-5.49 -3.14,-11.02 -3.14,-15.21 0,-3.89 0.54,-9.9 3.28,-15.54 2.98,-6.13 7.28,-9.36 7.78,-9.36 0.3,0 0.48,0.14 0.48,0.5 z"
             id="path9184" /><path
             style="fill:#000000;stroke-width:0"
             inkscape:connector-curvature="0"
             d="m 507.48,438.09 0,0.05 0,0.06 0,0.05 0,0.05 0,0.05 0,0.05 0,0.04 -0.01,0.05 0,0.04 0,0.04 0,0.04 0,0.04 0,0.04 0,0.03 -0.01,0.04 0,0.03 -0.01,0.07 -0.01,0.06 -0.01,0.05 -0.01,0.05 -0.02,0.05 -0.02,0.04 -0.02,0.04 -0.03,0.03 -0.02,0.03 -0.04,0.03 -0.03,0.03 -0.04,0.02 -0.05,0.02 -0.02,0.01 -0.02,0.01 -0.03,0 -0.03,0.01 -0.02,0.01 -0.03,0 -0.04,0.01 -0.03,0 -0.03,0.01 -0.04,0 -0.03,0 -0.04,0.01 -0.04,0 -0.04,0 -0.04,0 -0.04,0 -0.05,0 -0.04,0.01 -0.05,0 -0.05,0 -0.05,0 -0.05,0 c -3.1,-3.19 -7.47,-3.19 -9.07,-3.19 v -1.55 c 1,0 3.94,0 6.52,1.3 v -25.81 c 0,-1.8 -0.14,-2.39 -4.63,-2.39 h -1.59 v -1.55 c 1.75,0.16 6.08,0.16 8.06,0.16 2,0 6.33,0 8.08,-0.16 v 1.55 h -1.59 c -4.49,0 -4.64,0.54 -4.64,2.39 z"
             id="path9186" /><path
             style="fill:#000000;stroke-width:0"
             inkscape:connector-curvature="0"
             d="m 561.66,417.65 0.16,0 0.16,0 0.15,0.01 0.08,0 0.08,0.01 0.08,0 0.07,0.01 0.07,0.01 0.07,0.01 0.07,0.02 0.07,0.02 0.07,0.02 0.06,0.02 0.06,0.02 0.06,0.03 0.06,0.03 0.05,0.04 0.05,0.03 0.04,0.05 0.05,0.04 0.04,0.05 0.01,0.03 0.02,0.03 0.02,0.03 0.01,0.03 0.01,0.03 0.02,0.03 0.01,0.04 0.01,0.03 0.01,0.04 0.01,0.04 0,0.04 0.01,0.04 0,0.04 0.01,0.04 0,0.05 0,0.04 c 0,1 -0.91,1 -1.75,1 h -26.95 c -0.85,0 -1.74,0 -1.74,-1 0,-1 0.89,-1 1.74,-1 z"
             id="path9188" /><path
             style="fill:#000000;stroke-width:0"
             inkscape:connector-curvature="0"
             d="m 585.08,410.04 5.28,5.13 c 7.76,6.87 10.76,9.56 10.76,14.54 0,5.69 -4.48,9.68 -10.56,9.68 -5.64,0 -9.33,-4.6 -9.33,-9.03 0,-2.79 2.5,-2.79 2.65,-2.79 0.85,0 2.59,0.6 2.59,2.64 0,1.3 -0.89,2.6 -2.64,2.6 -0.39,0 -0.5,0 -0.64,-0.05 1.14,3.24 3.83,5.08 6.72,5.08 4.53,0 6.68,-4.05 6.68,-8.13 0,-3.98 -2.5,-7.92 -5.23,-11.01 l -9.56,-10.66 c -0.57,-0.54 -0.57,-0.64 -0.57,-1.84 h 18.49 l 1.4,8.67 h -1.24 c -0.26,-1.5 -0.6,-3.69 -1.1,-4.44 -0.36,-0.39 -3.64,-0.39 -4.73,-0.39 z"
             id="path9190" /><path
             style="fill:#000000;stroke-width:0"
             inkscape:connector-curvature="0"
             d="m 621.49,420.75 0.19,-0.5 0.2,-0.51 0.39,-1.05 0.39,-1.08 0.4,-1.1 0.39,-1.1 0.38,-1.09 0.38,-1.07 0.18,-0.53 0.18,-0.51 0.18,-0.5 0.17,-0.49 0.17,-0.47 0.17,-0.45 0.15,-0.44 0.16,-0.42 0.15,-0.39 0.14,-0.37 0.13,-0.35 0.13,-0.32 0.12,-0.29 0.11,-0.26 0.11,-0.23 0.1,-0.2 0.08,-0.16 0.08,-0.12 c 0.8,-1.1 1.3,-1.1 2.64,-1.1 h 1.1 c 0.5,0.05 0.54,0.35 0.54,0.5 0,0.14 -0.09,0.25 -0.25,0.46 -0.48,0.54 -0.79,1.28 -1.14,2.28 l -10.15,28.34 c -1.05,2.89 -3.75,3.55 -6.08,3.55 -0.25,0 -0.91,0 -0.91,-0.55 0,-0.41 0.41,-0.5 0.46,-0.5 1.64,-0.3 1.98,-0.59 3.23,-3.98 l 4.83,-13.55 -13.75,-13.66 c -0.59,-0.59 -0.89,-0.9 -0.89,-1.54 0,-0.85 0.7,-1.44 1.5,-1.44 0.8,0 1.23,0.55 1.64,1.05 z"
             id="path9192" /><path
             style="fill:#000000;stroke-width:0"
             inkscape:connector-curvature="0"
             d="m 647.14,418.65 0,0.37 -0.01,0.39 -0.01,0.39 -0.01,0.41 -0.04,0.84 -0.06,0.88 -0.08,0.92 -0.11,0.95 -0.13,0.97 -0.17,1.01 -0.19,1.02 -0.23,1.03 -0.27,1.05 -0.31,1.06 -0.35,1.07 -0.39,1.07 -0.21,0.53 -0.23,0.53 -0.23,0.53 -0.26,0.53 c -2.98,6.12 -7.26,9.36 -7.76,9.36 -0.3,0 -0.5,-0.19 -0.5,-0.49 0,-0.15 0,-0.25 0.94,-1.15 4.89,-4.92 7.73,-12.85 7.73,-23.27 0,-8.51 -1.84,-17.28 -8.03,-23.56 -0.64,-0.59 -0.64,-0.7 -0.64,-0.84 0,-0.3 0.2,-0.5 0.5,-0.5 0.5,0 4.97,3.39 7.92,9.71 2.53,5.47 3.13,11 3.13,15.19 z"
             id="path9194" /></g>      </g>
    </g>
  </g>
</svg>
