<?xml version="1.0" encoding="UTF-8" standalone="no"?>
<!-- Created with Inkscape (http://www.inkscape.org/) -->

<svg
   xmlns:dc="http://purl.org/dc/elements/1.1/"
   xmlns:cc="http://creativecommons.org/ns#"
   xmlns:rdf="http://www.w3.org/1999/02/22-rdf-syntax-ns#"
   xmlns:svg="http://www.w3.org/2000/svg"
   xmlns="http://www.w3.org/2000/svg"
   xmlns:xlink="http://www.w3.org/1999/xlink"
   xmlns:sodipodi="http://sodipodi.sourceforge.net/DTD/sodipodi-0.dtd"
   xmlns:inkscape="http://www.inkscape.org/namespaces/inkscape"
   width="426.992"
   height="119.92657"
   id="svg5372"
   version="1.1"
   inkscape:version="0.48.4 r9939"
   sodipodi:docname="New document 6">
  <defs
     id="defs5374" />
  <sodipodi:namedview
     id="base"
     pagecolor="#ffffff"
     bordercolor="#666666"
     borderopacity="1.0"
     inkscape:pageopacity="0.0"
     inkscape:pageshadow="2"
     inkscape:zoom="2.27"
     inkscape:cx="164.11686"
     inkscape:cy="84.448744"
     inkscape:document-units="px"
     inkscape:current-layer="layer1"
     showgrid="false"
     fit-margin-top="0"
     fit-margin-left="0"
     fit-margin-right="0"
     fit-margin-bottom="0"
     inkscape:window-width="1855"
     inkscape:window-height="1056"
     inkscape:window-x="65"
     inkscape:window-y="24"
     inkscape:window-maximized="1" />
  <metadata
     id="metadata5377">
    <rdf:RDF>
      <cc:Work
         rdf:about="">
        <dc:format>image/svg+xml</dc:format>
        <dc:type
           rdf:resource="http://purl.org/dc/dcmitype/StillImage" />
        <dc:title></dc:title>
      </cc:Work>
    </rdf:RDF>
  </metadata>
  <g
     inkscape:label="Layer 1"
     inkscape:groupmode="layer"
     id="layer1"
     transform="translate(-84.48685,-557.90928)">
    <g
       transform="translate(11.91685,346.59171)"
       id="g615">
      <use
         height="1052.3622"
         width="744.09448"
         y="0"
         x="0"
         xlink:href="#7fc874448580"
         transform="translate(87.674,221.01)"
         id="use617" />
      <use
         height="1052.3622"
         width="744.09448"
         y="0"
         x="0"
         xlink:href="#7fc8745bb9e0"
         transform="translate(460.674,221.01)"
         id="use619" />
      <g
         id="g621">
        <g
           id="g623">
          <g
             id="g625">
            <path
               style="fill:#ffffff;fill-rule:evenodd;stroke:#000000;stroke-width:2;stroke-linejoin:round"
               inkscape:connector-curvature="0"
               d="m 78.57,289.258 c -2.7614,0 -5,-2.239 -5,-5 l 0,-37.248 c 0,-2.761 2.2386,-5 5,-5 l 87.248,0 c 2.761,0 5,2.239 5,5 l 0,37.248 c 0,2.761 -2.239,5 -5,5 z"
               id="path627" />
            <path
               style="fill:none;stroke:#000000;stroke-width:2"
               inkscape:connector-curvature="0"
               d="m 122.194,286.134 0,-41 z"
               id="path629" />
          </g>
          <g
             id="g631">
            <path
               style="stroke:#000000;stroke-width:2"
               inkscape:connector-curvature="0"
               d="m 98.1579,260.634 c 2.7611,0 5.0001,2.238 5.0001,5 0,2.761 -2.239,5 -5.0001,5 -2.7614,0 -5,-2.239 -5,-5 0,-2.762 2.2386,-5 5,-5 z"
               id="path633" />
            <path
               style="stroke:#000000;stroke-width:2"
               inkscape:connector-curvature="0"
               d="m 146.158,260.634 c 2.761,0 5,2.238 5,5 0,2.761 -2.239,5 -5,5 -2.762,0 -5,-2.239 -5,-5 0,-2.762 2.238,-5 5,-5 z"
               id="path635" />
          </g>
        </g>
        <g
           id="g637">
          <g
             id="g639">
            <path
               style="fill:#ffffff;fill-rule:evenodd;stroke:#000000;stroke-width:2;stroke-linejoin:round"
               inkscape:connector-curvature="0"
               d="m 187.818,289.506 c -2.761,0 -5,-2.239 -5,-5 l 0,-37.248 c 0,-2.761 2.239,-5 5,-5 l 87.248,0 c 2.761,0 5,2.239 5,5 l 0,37.248 c 0,2.761 -2.239,5 -5,5 z"
               id="path641" />
            <path
               style="fill:none;stroke:#000000;stroke-width:2"
               inkscape:connector-curvature="0"
               d="m 231.442,286.382 0,-41 z"
               id="path643" />
          </g>
          <g
             id="g645">
            <path
               style="stroke:#000000;stroke-width:2"
               inkscape:connector-curvature="0"
               d="m 207.406,260.882 c 2.761,0 5,2.238 5,5 0,2.761 -2.239,5 -5,5 -2.762,0 -5,-2.239 -5,-5 0,-2.762 2.238,-5 5,-5 z"
               id="path647" />
            <path
               style="stroke:#000000;stroke-width:2"
               inkscape:connector-curvature="0"
               d="m 255.406,260.882 c 2.761,0 5,2.238 5,5 0,2.761 -2.239,5 -5,5 -2.762,0 -5,-2.239 -5,-5 0,-2.762 2.238,-5 5,-5 z"
               id="path649" />
          </g>
        </g>
        <g
           id="g651">
          <g
             id="g653">
            <path
               style="fill:#ffffff;fill-rule:evenodd;stroke:#000000;stroke-width:2;stroke-linejoin:round"
               inkscape:connector-curvature="0"
               d="m 297.066,289.754 c -2.761,0 -5,-2.239 -5,-5 l 0,-37.248 c 0,-2.761 2.239,-5 5,-5 l 87.248,0 c 2.761,0 5,2.239 5,5 l 0,37.248 c 0,2.761 -2.239,5 -5,5 z"
               id="path655" />
            <path
               style="fill:none;stroke:#000000;stroke-width:2"
               inkscape:connector-curvature="0"
               d="m 340.69,286.63 0,-41 z"
               id="path657" />
          </g>
          <g
             id="g659">
            <path
               style="stroke:#000000;stroke-width:2"
               inkscape:connector-curvature="0"
               d="m 316.654,261.13 c 2.761,0 5,2.238 5,5 0,2.761 -2.239,5 -5,5 -2.762,0 -5,-2.239 -5,-5 0,-2.762 2.238,-5 5,-5 z"
               id="path661" />
            <path
               style="stroke:#000000;stroke-width:2"
               inkscape:connector-curvature="0"
               d="m 364.654,261.13 c 2.761,0 5,2.238 5,5 0,2.761 -2.239,5 -5,5 -2.762,0 -5,-2.239 -5,-5 0,-2.762 2.238,-5 5,-5 z"
               id="path663" />
          </g>
        </g>
        <g
           id="g665">
          <g
             id="g667">
            <path
               style="fill:#ffffff;fill-rule:evenodd;stroke:#000000;stroke-width:2;stroke-linejoin:round"
               inkscape:connector-curvature="0"
               d="m 406.314,290.002 c -2.761,0 -5,-2.239 -5,-5 l 0,-37.248 c 0,-2.761 2.239,-5 5,-5 l 87.248,0 c 2.761,0 5,2.239 5,5 l 0,37.248 c 0,2.761 -2.239,5 -5,5 z"
               id="path669" />
            <path
               style="fill:none;stroke:#000000;stroke-width:2"
               inkscape:connector-curvature="0"
               d="m 449.938,286.878 0,-41 z"
               id="path671" />
          </g>
          <g
             id="g673">
            <path
               style="stroke:#000000;stroke-width:2"
               inkscape:connector-curvature="0"
               d="m 425.902,261.378 c 2.761,0 5,2.238 5,5 0,2.761 -2.239,5 -5,5 -2.762,0 -5,-2.239 -5,-5 0,-2.762 2.238,-5 5,-5 z"
               id="path675" />
            <path
               style="stroke:#000000;stroke-width:2"
               inkscape:connector-curvature="0"
               d="m 473.902,261.378 c 2.761,0 5,2.238 5,5 0,2.761 -2.239,5 -5,5 -2.762,0 -5,-2.239 -5,-5 0,-2.762 2.238,-5 5,-5 z"
               id="path677" />
          </g>
        </g>
      </g>
      <path
         style="fill:#ff464c;fill-opacity:0.47000002;stroke:#000000;stroke-dasharray:2"
         inkscape:connector-curvature="0"
         d="m 137.674,259.689 c 0,-2.044 1.816,-3.7 4.057,-3.7 l 71.386,0 c 2.241,0 4.057,1.656 4.057,3.7 l 0,11.1 c 0,2.043 -1.816,3.7 -4.057,3.7 l -71.386,0 c -2.241,0 -4.057,-1.657 -4.057,-3.7 z"
         id="path679" />
      <path
         style="fill:#ff464c;fill-opacity:0.47000002;stroke:#000000;stroke-dasharray:2"
         inkscape:connector-curvature="0"
         d="m 245.599,259.689 c 0,-2.044 1.816,-3.7 4.057,-3.7 l 71.386,0 c 2.241,0 4.057,1.656 4.057,3.7 l 0,11.1 c 0,2.043 -1.816,3.7 -4.057,3.7 l -71.386,0 c -2.241,0 -4.057,-1.657 -4.057,-3.7 z"
         id="path681" />
      <path
         style="fill:#ff464c;fill-opacity:0.47000002;stroke:#000000;stroke-dasharray:2"
         inkscape:connector-curvature="0"
         d="m 354.674,259.689 c 0,-2.044 1.816,-3.7 4.057,-3.7 l 71.386,0 c 2.241,0 4.057,1.656 4.057,3.7 l 0,11.1 c 0,2.043 -1.816,3.7 -4.057,3.7 l -71.386,0 c -2.241,0 -4.057,-1.657 -4.057,-3.7 z"
         id="path683" />
      <text
         style="font-size:18px;font-family:American Typewriter"
         font-size="18"
         transform="translate(172.984,327.5)"
         xml:space="preserve"
         id="text685"><tspan
           id="tspan687">unpaired Majorana modes</tspan></text>
      <path
         style="fill:none;stroke:#000000"
         inkscape:connector-curvature="0"
         d="m 101.174,300.5 57.5,14.76"
         id="path689" />
      <path
         style="fill:none;stroke:#000000"
         inkscape:connector-curvature="0"
         d="m 467.364,301.173 -57.5,14.76"
         id="path691" />
    </g>
    <g
       transform="matrix(0.71099238,0,0,0.69558711,-118.65688,325.5224)"
       id="g3032">
      <g
         style="font-style:normal;font-variant:normal;font-weight:normal;font-stretch:normal;letter-spacing:normal;word-spacing:normal;text-anchor:start;fill:none;stroke:#000000;stroke-linecap:butt;stroke-linejoin:miter;stroke-miterlimit:10.43299961;stroke-opacity:1;stroke-dasharray:none;stroke-dashoffset:0"
         word-spacing="normal"
         letter-spacing="normal"
         font-size-adjust="none"
         font-stretch="normal"
         font-weight="normal"
         font-variant="normal"
         font-style="normal"
         stroke-miterlimit="10.433"
         xml:space="preserve"
         transform="matrix(1.0629921,0,0,-1.0629921,-186.02362,789.27165)"
         id="g3034"><path
           style="fill:#000000;stroke-width:0"
           inkscape:connector-curvature="0"
           id="path3036"
           d="m 457.57,418.86 0.09,0.26 0.1,0.26 0.1,0.24 0.11,0.25 0.11,0.23 0.12,0.22 0.12,0.22 0.12,0.21 0.13,0.2 0.13,0.2 0.13,0.19 0.14,0.18 0.28,0.34 0.29,0.32 0.3,0.29 0.31,0.27 0.31,0.24 0.32,0.22 0.32,0.21 0.32,0.18 0.31,0.16 0.32,0.15 0.31,0.13 0.3,0.11 0.3,0.1 0.29,0.08 0.28,0.07 0.27,0.06 0.25,0.05 0.24,0.04 0.22,0.03 0.21,0.02 0.19,0.02 0.16,0.01 0.14,0.01 0.12,0.01 0.09,0 0.07,0 c 7.51,0 8.06,-8.72 8.06,-12.66 0,-3.05 -0.25,-3.89 -0.59,-4.89 -1.1,-3.63 -2.6,-9.41 -2.6,-10.7 0,-0.55 0.25,-0.91 0.66,-0.91 0.64,0 1.05,1.11 1.59,3 1.14,4.19 1.64,7.02 1.85,8.56 0.09,0.66 0.18,1.3 0.39,1.96 1.59,4.92 4.78,12.34 6.78,16.28 0.34,0.59 0.94,1.7 0.94,1.89 0,0.5 -0.49,0.5 -0.6,0.5 -0.14,0 -0.45,0 -0.59,-0.35 -2.59,-4.73 -4.58,-9.71 -6.58,-14.75 -0.05,1.55 -0.09,5.33 -2.05,10.18 -1.18,3.03 -3.18,5.46 -6.62,5.46 -6.22,0 -9.72,-7.56 -9.72,-9.1 0,-0.5 0.45,-0.5 0.95,-0.5 z" /><path
           style="fill:#000000;stroke-width:0"
           inkscape:connector-curvature="0"
           id="path3038"
           d="m 492.99,420.92 0,0.04 0,0.04 0,0.05 0,0.04 0,0.03 0,0.04 0,0.04 0,0.03 0,0.04 -0.01,0.03 0,0.03 0,0.03 0,0.03 -0.01,0.03 0,0.03 0,0.02 -0.01,0.03 0,0.02 -0.01,0.03 0,0.02 -0.01,0.04 -0.02,0.04 -0.02,0.03 -0.02,0.03 -0.02,0.03 -0.02,0.03 -0.03,0.02 -0.03,0.02 -0.03,0.02 -0.04,0.01 -0.04,0.01 -0.05,0.02 -0.02,0 -0.02,0 -0.03,0.01 -0.03,0 -0.02,0.01 -0.03,0 -0.03,0 -0.03,0 -0.03,0 -0.04,0.01 -0.03,0 -0.04,0 -0.03,0 -0.04,0 -0.04,0 -0.04,0 -0.04,0 -0.05,0 -0.04,0 -0.04,0 c -2.24,-2.2 -5.4,-2.23 -6.83,-2.23 v -1.25 c 0.84,0 3.14,0 5.04,0.97 v -17.77 c 0,-1.16 0,-1.61 -3.48,-1.61 h -1.31 v -1.25 c 0.62,0.03 4.9,0.14 6.2,0.14 1.08,0 5.47,-0.11 6.23,-0.14 v 1.25 h -1.32 c -3.49,0 -3.49,0.45 -3.49,1.61 z" /></g>    </g>
    <g
       transform="matrix(0.71099238,0,0,0.69558711,256.69765,325.52211)"
       id="g3424">
      <g
         style="font-style:normal;font-variant:normal;font-weight:normal;font-stretch:normal;letter-spacing:normal;word-spacing:normal;text-anchor:start;fill:none;stroke:#000000;stroke-linecap:butt;stroke-linejoin:miter;stroke-miterlimit:10.43299961;stroke-opacity:1;stroke-dasharray:none;stroke-dashoffset:0"
         id="g3426"
         transform="matrix(1.0629921,0,0,-1.0629921,-186.02362,789.27165)"
         xml:space="preserve"
         stroke-miterlimit="10.433"
         font-style="normal"
         font-variant="normal"
         font-weight="normal"
         font-stretch="normal"
         font-size-adjust="none"
         letter-spacing="normal"
         word-spacing="normal"><path
           style="fill:#000000;stroke-width:0"
           inkscape:connector-curvature="0"
           d="m 457.57,418.86 0.09,0.26 0.1,0.26 0.1,0.24 0.11,0.25 0.11,0.23 0.12,0.22 0.12,0.22 0.12,0.21 0.13,0.2 0.13,0.2 0.13,0.19 0.14,0.18 0.28,0.34 0.29,0.32 0.3,0.29 0.31,0.27 0.31,0.24 0.32,0.22 0.32,0.21 0.32,0.18 0.31,0.16 0.32,0.15 0.31,0.13 0.3,0.11 0.3,0.1 0.29,0.08 0.28,0.07 0.27,0.06 0.25,0.05 0.24,0.04 0.22,0.03 0.21,0.02 0.19,0.02 0.16,0.01 0.14,0.01 0.12,0.01 0.09,0 0.07,0 c 7.51,0 8.06,-8.72 8.06,-12.66 0,-3.05 -0.25,-3.89 -0.59,-4.89 -1.1,-3.63 -2.6,-9.41 -2.6,-10.7 0,-0.55 0.25,-0.91 0.66,-0.91 0.64,0 1.05,1.11 1.59,3 1.14,4.19 1.64,7.02 1.85,8.56 0.09,0.66 0.18,1.3 0.39,1.96 1.59,4.92 4.78,12.34 6.78,16.28 0.34,0.59 0.94,1.7 0.94,1.89 0,0.5 -0.49,0.5 -0.6,0.5 -0.14,0 -0.45,0 -0.59,-0.35 -2.59,-4.73 -4.58,-9.71 -6.58,-14.75 -0.05,1.55 -0.09,5.33 -2.05,10.18 -1.18,3.03 -3.18,5.46 -6.62,5.46 -6.22,0 -9.72,-7.56 -9.72,-9.1 0,-0.5 0.45,-0.5 0.95,-0.5 z"
           id="path3428" /><path
           style="fill:#000000;stroke-width:0"
           inkscape:connector-curvature="0"
           d="m 493.7,411.34 0.25,0.13 0.24,0.12 0.24,0.13 0.24,0.13 0.22,0.14 0.23,0.13 0.21,0.14 0.21,0.14 0.2,0.14 0.19,0.15 0.19,0.15 0.18,0.15 0.17,0.15 0.17,0.16 0.15,0.16 0.15,0.16 0.14,0.17 0.14,0.17 0.12,0.17 0.12,0.17 0.1,0.18 0.1,0.18 0.09,0.19 0.08,0.19 0.08,0.19 0.06,0.2 0.05,0.2 0.05,0.21 0.03,0.21 0.03,0.21 0.01,0.22 0.01,0.22 c 0,3.39 -3.52,5.2 -6.89,5.2 l -0.08,-1.01 c 2.72,0 5.12,-1.71 5.12,-4.19 0,-3.09 -3.62,-4.66 -3.68,-4.66 -0.08,0 -0.14,0.03 -0.39,0.17 l -4.22,2.44 c -0.91,0.52 -1.88,1.47 -1.88,2.75 0,2.21 2.55,3.49 5.05,3.49 l 0.08,1.01 c -3.85,0 -6.97,-2.51 -6.97,-5.83 0,-1.62 0.76,-2.81 1.39,-3.51 0.62,-0.74 0.87,-0.88 2.92,-2.1 -1.95,-0.82 -5.4,-2.71 -5.4,-6.37 0,-3.86 4.01,-6.03 7.98,-6.03 l 0.08,1.12 c -3.22,0 -5.97,2.05 -5.97,4.91 0,2.58 1.92,4.56 4.42,5.72 h 0 l 4.78,-2.75 c 0.91,-0.53 2.64,-1.58 2.64,-3.63 0,-2.61 -2.89,-4.25 -5.87,-4.25 l -0.08,-1.12 c 4.42,0 8.05,2.83 8.05,6.59 0,2.3 -1.36,4.25 -3.38,5.44 -0.45,0.28 -1.67,0.97 -2.15,1.25 z"
           id="path3430" /></g>    </g>
  </g>
</svg>
