<?xml version="1.0" encoding="UTF-8" standalone="no"?>
<!-- Created with Inkscape (http://www.inkscape.org/) -->

<svg
   xmlns:dc="http://purl.org/dc/elements/1.1/"
   xmlns:cc="http://creativecommons.org/ns#"
   xmlns:rdf="http://www.w3.org/1999/02/22-rdf-syntax-ns#"
   xmlns:svg="http://www.w3.org/2000/svg"
   xmlns="http://www.w3.org/2000/svg"
   xmlns:sodipodi="http://sodipodi.sourceforge.net/DTD/sodipodi-0.dtd"
   xmlns:inkscape="http://www.inkscape.org/namespaces/inkscape"
   width="427"
   height="82.525139"
   id="svg5674"
   version="1.1"
   inkscape:version="0.48.4 r9939"
   sodipodi:docname="New document 10">
  <defs
     id="defs5676" />
  <sodipodi:namedview
     id="base"
     pagecolor="#ffffff"
     bordercolor="#666666"
     borderopacity="1.0"
     inkscape:pageopacity="0.0"
     inkscape:pageshadow="2"
     inkscape:zoom="0.86377106"
     inkscape:cx="366.74276"
     inkscape:cy="69.619069"
     inkscape:document-units="px"
     inkscape:current-layer="layer1"
     showgrid="false"
     fit-margin-top="0"
     fit-margin-left="0"
     fit-margin-right="0"
     fit-margin-bottom="0"
     inkscape:window-width="1855"
     inkscape:window-height="1056"
     inkscape:window-x="65"
     inkscape:window-y="24"
     inkscape:window-maximized="1" />
  <metadata
     id="metadata5679">
    <rdf:RDF>
      <cc:Work
         rdf:about="">
        <dc:format>image/svg+xml</dc:format>
        <dc:type
           rdf:resource="http://purl.org/dc/dcmitype/StillImage" />
        <dc:title></dc:title>
      </cc:Work>
    </rdf:RDF>
  </metadata>
  <g
     inkscape:label="Layer 1"
     inkscape:groupmode="layer"
     id="layer1"
     transform="translate(-5.304479,-513.27502)">
    <g
       transform="translate(-67.258021,424.65002)"
       id="g543">
      <g
         id="g545">
        <g
           id="g547">
          <g
             id="g549">
            <path
               style="fill:#ffffff;fill-rule:evenodd;stroke:#000000;stroke-width:2;stroke-linejoin:round"
               inkscape:connector-curvature="0"
               d="m 78.57,136.888 c -2.7614,0 -5,-2.239 -5,-5 l 0,-37.248 c 0,-2.7615 2.2386,-5 5,-5 l 87.248,0 c 2.761,0 5,2.2385 5,5 l 0,37.248 c 0,2.761 -2.239,5 -5,5 z"
               id="path551" />
            <path
               style="fill:none;stroke:#000000;stroke-width:2"
               inkscape:connector-curvature="0"
               d="m 122.194,133.764 0,-41.0001 z"
               id="path553" />
          </g>
          <g
             id="g555">
            <path
               style="stroke:#000000;stroke-width:2"
               inkscape:connector-curvature="0"
               d="m 98.1579,108.264 c 2.7611,0 5.0001,2.238 5.0001,5 0,2.761 -2.239,5 -5.0001,5 -2.7614,0 -5,-2.239 -5,-5 0,-2.762 2.2386,-5 5,-5 z"
               id="path557" />
            <path
               style="stroke:#000000;stroke-width:2"
               inkscape:connector-curvature="0"
               d="m 146.158,108.264 c 2.761,0 5,2.238 5,5 0,2.761 -2.239,5 -5,5 -2.762,0 -5,-2.239 -5,-5 0,-2.762 2.238,-5 5,-5 z"
               id="path559" />
          </g>
        </g>
        <g
           id="g561">
          <g
             id="g563">
            <path
               style="fill:#ffffff;fill-rule:evenodd;stroke:#000000;stroke-width:2;stroke-linejoin:round"
               inkscape:connector-curvature="0"
               d="m 187.818,137.136 c -2.761,0 -5,-2.239 -5,-5 l 0,-37.248 c 0,-2.7615 2.239,-5 5,-5 l 87.248,0 c 2.761,0 5,2.2385 5,5 l 0,37.248 c 0,2.761 -2.239,5 -5,5 z"
               id="path565" />
            <path
               style="fill:none;stroke:#000000;stroke-width:2"
               inkscape:connector-curvature="0"
               d="m 231.442,134.012 0,-41.0001 z"
               id="path567" />
          </g>
          <g
             id="g569">
            <path
               style="stroke:#000000;stroke-width:2"
               inkscape:connector-curvature="0"
               d="m 207.406,108.512 c 2.761,0 5,2.238 5,5 0,2.761 -2.239,5 -5,5 -2.762,0 -5,-2.239 -5,-5 0,-2.762 2.238,-5 5,-5 z"
               id="path571" />
            <path
               style="stroke:#000000;stroke-width:2"
               inkscape:connector-curvature="0"
               d="m 255.406,108.512 c 2.761,0 5,2.238 5,5 0,2.761 -2.239,5 -5,5 -2.762,0 -5,-2.239 -5,-5 0,-2.762 2.238,-5 5,-5 z"
               id="path573" />
          </g>
        </g>
        <g
           id="g575">
          <g
             id="g577">
            <path
               style="fill:#ffffff;fill-rule:evenodd;stroke:#000000;stroke-width:2;stroke-linejoin:round"
               inkscape:connector-curvature="0"
               d="m 297.066,137.384 c -2.761,0 -5,-2.239 -5,-5 l 0,-37.248 c 0,-2.7615 2.239,-5 5,-5 l 87.248,0 c 2.761,0 5,2.2385 5,5 l 0,37.248 c 0,2.761 -2.239,5 -5,5 z"
               id="path579" />
            <path
               style="fill:none;stroke:#000000;stroke-width:2"
               inkscape:connector-curvature="0"
               d="m 340.69,134.26 0,-41.0001 z"
               id="path581" />
          </g>
          <g
             id="g583">
            <path
               style="stroke:#000000;stroke-width:2"
               inkscape:connector-curvature="0"
               d="m 316.654,108.76 c 2.761,0 5,2.238 5,5 0,2.761 -2.239,5 -5,5 -2.762,0 -5,-2.239 -5,-5 0,-2.762 2.238,-5 5,-5 z"
               id="path585" />
            <path
               style="stroke:#000000;stroke-width:2"
               inkscape:connector-curvature="0"
               d="m 364.654,108.76 c 2.761,0 5,2.238 5,5 0,2.761 -2.239,5 -5,5 -2.762,0 -5,-2.239 -5,-5 0,-2.762 2.238,-5 5,-5 z"
               id="path587" />
          </g>
        </g>
        <g
           id="g589">
          <g
             id="g591">
            <path
               style="fill:#ffffff;fill-rule:evenodd;stroke:#000000;stroke-width:2;stroke-linejoin:round"
               inkscape:connector-curvature="0"
               d="m 406.314,137.632 c -2.761,0 -5,-2.239 -5,-5 l 0,-37.248 c 0,-2.7615 2.239,-5 5,-5 l 87.248,0 c 2.761,0 5,2.2385 5,5 l 0,37.248 c 0,2.761 -2.239,5 -5,5 z"
               id="path593" />
            <path
               style="fill:none;stroke:#000000;stroke-width:2"
               inkscape:connector-curvature="0"
               d="m 449.938,134.508 0,-41.0001 z"
               id="path595" />
          </g>
          <g
             id="g597">
            <path
               style="stroke:#000000;stroke-width:2"
               inkscape:connector-curvature="0"
               d="m 425.902,109.008 c 2.761,0 5,2.238 5,5 0,2.761 -2.239,5 -5,5 -2.762,0 -5,-2.239 -5,-5 0,-2.762 2.238,-5 5,-5 z"
               id="path599" />
            <path
               style="stroke:#000000;stroke-width:2"
               inkscape:connector-curvature="0"
               d="m 473.902,109.008 c 2.761,0 5,2.238 5,5 0,2.761 -2.239,5 -5,5 -2.762,0 -5,-2.239 -5,-5 0,-2.762 2.238,-5 5,-5 z"
               id="path601" />
          </g>
        </g>
      </g>
      <path
         style="fill:#0049fd;fill-opacity:0.49000005;stroke:#000000;stroke-dasharray:2"
         inkscape:connector-curvature="0"
         d="m 83.174,108.319 c 0,-2.044 1.8165,-3.7 4.0572,-3.7 l 71.3858,0 c 2.241,0 4.057,1.656 4.057,3.7 l 0,11.1 c 0,2.043 -1.816,3.7 -4.057,3.7 l -71.3858,0 c -2.2407,0 -4.0572,-1.657 -4.0572,-3.7 z"
         id="path603" />
      <path
         style="fill:#0049fd;fill-opacity:0.49000005;stroke:#000000;stroke-dasharray:2"
         inkscape:connector-curvature="0"
         d="m 191.174,108.319 c 0,-2.044 1.816,-3.7 4.057,-3.7 l 71.386,0 c 2.241,0 4.057,1.656 4.057,3.7 l 0,11.1 c 0,2.043 -1.816,3.7 -4.057,3.7 l -71.386,0 c -2.241,0 -4.057,-1.657 -4.057,-3.7 z"
         id="path605" />
      <path
         style="fill:#0049fd;fill-opacity:0.49000005;stroke:#000000;stroke-dasharray:2"
         inkscape:connector-curvature="0"
         d="m 299.174,108.319 c 0,-2.044 1.816,-3.7 4.057,-3.7 l 71.386,0 c 2.241,0 4.057,1.656 4.057,3.7 l 0,11.1 c 0,2.043 -1.816,3.7 -4.057,3.7 l -71.386,0 c -2.241,0 -4.057,-1.657 -4.057,-3.7 z"
         id="path607" />
      <path
         style="fill:#0049fd;fill-opacity:0.49000005;stroke:#000000;stroke-dasharray:2"
         inkscape:connector-curvature="0"
         d="m 407.174,108.319 c 0,-2.044 1.816,-3.7 4.057,-3.7 l 71.386,0 c 2.241,0 4.057,1.656 4.057,3.7 l 0,11.1 c 0,2.043 -1.816,3.7 -4.057,3.7 l -71.386,0 c -2.241,0 -4.057,-1.657 -4.057,-3.7 z"
         id="path609" />
      <text
         style="font-size:18px;font-family:American Typewriter"
         font-size="18"
         transform="translate(180.799,167.406)"
         xml:space="preserve"
         id="text611"><tspan
           id="tspan613">no unpaired Majoranas</tspan></text>
    </g>
  </g>
</svg>
