<?xml version="1.0" encoding="UTF-8" standalone="no"?>
<!-- Created with Inkscape (http://www.inkscape.org/) -->

<svg
   xmlns:dc="http://purl.org/dc/elements/1.1/"
   xmlns:cc="http://creativecommons.org/ns#"
   xmlns:rdf="http://www.w3.org/1999/02/22-rdf-syntax-ns#"
   xmlns:svg="http://www.w3.org/2000/svg"
   xmlns="http://www.w3.org/2000/svg"
   xmlns:sodipodi="http://sodipodi.sourceforge.net/DTD/sodipodi-0.dtd"
   xmlns:inkscape="http://www.inkscape.org/namespaces/inkscape"
   width="360"
   height="288"
   id="svg4297"
   version="1.1"
   inkscape:version="0.48.4 r9939"
   sodipodi:docname="New document 5">
  <defs
     id="defs4299" />
  <sodipodi:namedview
     id="base"
     pagecolor="#ffffff"
     bordercolor="#666666"
     borderopacity="1.0"
     inkscape:pageopacity="0.0"
     inkscape:pageshadow="2"
     inkscape:zoom="0.86377106"
     inkscape:cx="344.8164"
     inkscape:cy="85.535439"
     inkscape:document-units="px"
     inkscape:current-layer="layer1"
     showgrid="false"
     fit-margin-top="0"
     fit-margin-left="0"
     fit-margin-right="0"
     fit-margin-bottom="0"
     inkscape:window-width="1855"
     inkscape:window-height="1056"
     inkscape:window-x="65"
     inkscape:window-y="24"
     inkscape:window-maximized="1" />
  <metadata
     id="metadata4302">
    <rdf:RDF>
      <cc:Work
         rdf:about="">
        <dc:format>image/svg+xml</dc:format>
        <dc:type
           rdf:resource="http://purl.org/dc/dcmitype/StillImage" />
        <dc:title></dc:title>
      </cc:Work>
    </rdf:RDF>
  </metadata>
  <g
     inkscape:label="Layer 1"
     inkscape:groupmode="layer"
     id="layer1"
     transform="translate(-27.23084,-323.71653)">
    <g
       transform="translate(-296.76916,251.71653)"
       id="g4">
      <path
         style="fill:#ffffff;stroke:#000100"
         inkscape:connector-curvature="0"
         d="m 648.338,221.869 0,138.131"
         id="path6" />
      <path
         style="fill:#ffffff;stroke:#000100"
         inkscape:connector-curvature="0"
         d="m 324,181.369 360,0"
         id="path8" />
      <path
         style="fill:#ffffff;stroke:#000100"
         inkscape:connector-curvature="0"
         d="m 324,253.369 360,0"
         id="path10" />
      <path
         style="fill:#ffffff;stroke:#000100"
         inkscape:connector-curvature="0"
         d="m 432.338,72 0,185.869"
         id="path12" />
      <path
         style="fill:#ffffff;stroke:#000100"
         inkscape:connector-curvature="0"
         d="m 360.338,72 0,185.869"
         id="path14" />
      <path
         style="fill:#ffffff;stroke:#000100"
         inkscape:connector-curvature="0"
         d="m 324,109.369 360,0"
         id="path16" />
      <path
         style="fill:#ffffff;stroke:#000100"
         inkscape:connector-curvature="0"
         d="m 504.338,72 0,185.869"
         id="path18" />
      <path
         style="fill:#ffffff;stroke:#000100"
         inkscape:connector-curvature="0"
         d="m 648.338,72 0,185.869"
         id="path20" />
      <path
         style="fill:#ffffff;stroke:#000100"
         inkscape:connector-curvature="0"
         d="m 576.338,72 0,185.869"
         id="path22" />
      <path
         style="fill:#ffffff;stroke:#000100;stroke-width:2"
         inkscape:connector-curvature="0"
         d="m 576.337,176.605 c 2.552,0 4.621,2.015 4.621,4.5 0,2.486 -2.069,4.5 -4.621,4.5 -2.551,0 -4.62,-2.014 -4.62,-4.5 0,-2.485 2.069,-4.5 4.62,-4.5 z"
         id="path24" />
      <path
         style="stroke:#000100;stroke-width:2"
         inkscape:connector-curvature="0"
         d="m 576.337,104.605 c 2.552,0 4.621,2.015 4.621,4.5 0,2.486 -2.069,4.5 -4.621,4.5 -2.551,0 -4.62,-2.014 -4.62,-4.5 0,-2.485 2.069,-4.5 4.62,-4.5 z"
         id="path26" />
      <path
         style="fill:#ffffff;stroke:#000100;stroke-width:2"
         inkscape:connector-curvature="0"
         d="m 648.338,104.869 c 2.552,0 4.62,2.015 4.62,4.5 0,2.485 -2.068,4.5 -4.62,4.5 -2.552,0 -4.621,-2.015 -4.621,-4.5 0,-2.485 2.069,-4.5 4.621,-4.5 z"
         id="path28" />
      <path
         style="fill:#ffffff;stroke:#000100;stroke-width:2"
         inkscape:connector-curvature="0"
         d="m 504.338,104.869 c 2.552,0 4.62,2.015 4.62,4.5 0,2.485 -2.068,4.5 -4.62,4.5 -2.552,0 -4.621,-2.015 -4.621,-4.5 0,-2.485 2.069,-4.5 4.621,-4.5 z"
         id="path30" />
      <path
         style="fill:#ffffff;stroke:#000100;stroke-width:2"
         inkscape:connector-curvature="0"
         d="m 432.338,176.869 c 2.552,0 4.62,2.015 4.62,4.5 0,2.485 -2.068,4.5 -4.62,4.5 -2.552,0 -4.621,-2.015 -4.621,-4.5 0,-2.485 2.069,-4.5 4.621,-4.5 z"
         id="path32" />
      <path
         style="stroke:#000100;stroke-width:2"
         inkscape:connector-curvature="0"
         d="m 432.338,104.869 c 2.552,0 4.62,2.015 4.62,4.5 0,2.485 -2.068,4.5 -4.62,4.5 -2.552,0 -4.621,-2.015 -4.621,-4.5 0,-2.485 2.069,-4.5 4.621,-4.5 z"
         id="path34" />
      <path
         style="stroke:#000100;stroke-width:2"
         inkscape:connector-curvature="0"
         d="m 360.338,176.869 c 2.552,0 4.62,2.015 4.62,4.5 0,2.485 -2.068,4.5 -4.62,4.5 -2.552,0 -4.621,-2.015 -4.621,-4.5 0,-2.485 2.069,-4.5 4.621,-4.5 z"
         id="path36" />
      <path
         style="fill:#ffffff;stroke:#000100;stroke-width:2"
         inkscape:connector-curvature="0"
         d="m 360.338,104.869 c 2.552,0 4.62,2.015 4.62,4.5 0,2.485 -2.068,4.5 -4.62,4.5 -2.552,0 -4.621,-2.015 -4.621,-4.5 0,-2.485 2.069,-4.5 4.621,-4.5 z"
         id="path38" />
      <path
         style="fill:#ffffff;stroke:#000100"
         inkscape:connector-curvature="0"
         d="m 432.338,253.105 0,106.895"
         id="path40" />
      <path
         style="fill:#ffffff;stroke:#000100"
         inkscape:connector-curvature="0"
         d="m 360.338,253.105 0,106.895"
         id="path42" />
      <path
         style="fill:#ffffff;stroke:#000100"
         inkscape:connector-curvature="0"
         d="m 324,325.369 360,0"
         id="path44" />
      <path
         style="fill:#ffffff;stroke:#000100"
         inkscape:connector-curvature="0"
         d="m 504.338,257.869 0,102.131"
         id="path46" />
      <path
         style="fill:#ffffff;stroke:#000100"
         inkscape:connector-curvature="0"
         d="m 576.338,237.869 0,122.131"
         id="path48" />
      <path
         style="stroke:#000100;stroke-width:2"
         inkscape:connector-curvature="0"
         d="m 432.338,248.869 c 2.552,0 4.62,2.015 4.62,4.5 0,2.485 -2.068,4.5 -4.62,4.5 -2.552,0 -4.621,-2.015 -4.621,-4.5 0,-2.485 2.069,-4.5 4.621,-4.5 z"
         id="path50" />
      <path
         style="fill:#ffffff;stroke:#000100;stroke-width:2"
         inkscape:connector-curvature="0"
         d="m 504.338,248.869 c 2.552,0 4.62,2.015 4.62,4.5 0,2.485 -2.068,4.5 -4.62,4.5 -2.552,0 -4.621,-2.015 -4.621,-4.5 0,-2.485 2.069,-4.5 4.621,-4.5 z"
         id="path52" />
      <path
         style="stroke:#000100;stroke-width:2"
         inkscape:connector-curvature="0"
         d="m 576.338,248.869 c 2.552,0 4.62,2.015 4.62,4.5 0,2.485 -2.068,4.5 -4.62,4.5 -2.552,0 -4.621,-2.015 -4.621,-4.5 0,-2.485 2.069,-4.5 4.621,-4.5 z"
         id="path54" />
      <path
         style="fill:#ffffff;stroke:#000100;stroke-width:2"
         inkscape:connector-curvature="0"
         d="m 648.338,248.869 c 2.552,0 4.62,2.015 4.62,4.5 0,2.485 -2.068,4.5 -4.62,4.5 -2.552,0 -4.621,-2.015 -4.621,-4.5 0,-2.485 2.069,-4.5 4.621,-4.5 z"
         id="path56" />
      <path
         style="fill:#ffffff;stroke:#000100;stroke-width:2"
         inkscape:connector-curvature="0"
         d="m 360.338,248.869 c 2.552,0 4.62,2.015 4.62,4.5 0,2.485 -2.068,4.5 -4.62,4.5 -2.552,0 -4.621,-2.015 -4.621,-4.5 0,-2.485 2.069,-4.5 4.621,-4.5 z"
         id="path58" />
      <path
         style="stroke:#000100;stroke-width:2"
         inkscape:connector-curvature="0"
         d="m 648.338,177.445 c 2.552,0 4.62,2.015 4.62,4.5 0,2.486 -2.068,4.5 -4.62,4.5 -2.552,0 -4.621,-2.014 -4.621,-4.5 0,-2.485 2.069,-4.5 4.621,-4.5 z"
         id="path60" />
      <path
         style="stroke:#000100;stroke-width:2"
         inkscape:connector-curvature="0"
         d="m 504.338,177.445 c 2.552,0 4.62,2.015 4.62,4.5 0,2.486 -2.068,4.5 -4.62,4.5 -2.552,0 -4.621,-2.014 -4.621,-4.5 0,-2.485 2.069,-4.5 4.621,-4.5 z"
         id="path62" />
      <path
         style="fill:#ffffff;stroke:#000100;stroke-width:2"
         inkscape:connector-curvature="0"
         d="m 432.338,320.869 c 2.552,0 4.62,2.015 4.62,4.5 0,2.485 -2.068,4.5 -4.62,4.5 -2.552,0 -4.621,-2.015 -4.621,-4.5 0,-2.485 2.069,-4.5 4.621,-4.5 z"
         id="path64" />
      <path
         style="stroke:#000100;stroke-width:2"
         inkscape:connector-curvature="0"
         d="m 504.338,320.869 c 2.552,0 4.62,2.015 4.62,4.5 0,2.485 -2.068,4.5 -4.62,4.5 -2.552,0 -4.621,-2.015 -4.621,-4.5 0,-2.485 2.069,-4.5 4.621,-4.5 z"
         id="path66" />
      <path
         style="fill:#ffffff;stroke:#000100;stroke-width:2"
         inkscape:connector-curvature="0"
         d="m 576.338,320.869 c 2.552,0 4.62,2.015 4.62,4.5 0,2.485 -2.068,4.5 -4.62,4.5 -2.552,0 -4.621,-2.015 -4.621,-4.5 0,-2.485 2.069,-4.5 4.621,-4.5 z"
         id="path68" />
      <path
         style="stroke:#000100;stroke-width:2"
         inkscape:connector-curvature="0"
         d="m 648.338,320.869 c 2.552,0 4.62,2.015 4.62,4.5 0,2.485 -2.068,4.5 -4.62,4.5 -2.552,0 -4.621,-2.015 -4.621,-4.5 0,-2.485 2.069,-4.5 4.621,-4.5 z"
         id="path70" />
      <path
         style="stroke:#000100;stroke-width:2"
         inkscape:connector-curvature="0"
         d="m 360.338,320.869 c 2.552,0 4.62,2.015 4.62,4.5 0,2.485 -2.068,4.5 -4.62,4.5 -2.552,0 -4.621,-2.015 -4.621,-4.5 0,-2.485 2.069,-4.5 4.621,-4.5 z"
         id="path72" />
      <g
         id="g74">
        <g
           id="g76">
          <path
             style="fill:#ffffff;stroke:#00a0fe;stroke-width:6"
             inkscape:connector-curvature="0"
             d="m 430.027,250.915 0,-67.379"
             id="path78" />
          <path
             style="fill:none;stroke:#00a0fe;stroke-width:6"
             inkscape:connector-curvature="0"
             d="m 421.027,201.536 9,-18 9,18"
             id="path80" />
        </g>
        <path
           style="fill:#ffffff;stroke:#00a0fe;stroke-width:6"
           inkscape:connector-curvature="0"
           d="m 502.027,250.915 0,-67.379"
           id="path82" />
        <path
           style="fill:#ffffff;stroke:#00a0fe;stroke-width:6"
           inkscape:connector-curvature="0"
           d="m 432.338,253.225 67.379,0"
           id="path84" />
        <path
           style="fill:#ffffff;stroke:#00a0fe;stroke-width:6"
           inkscape:connector-curvature="0"
           d="m 432.338,181.225 67.379,0"
           id="path86" />
      </g>
    </g>
  </g>
</svg>
