<?xml version="1.0" encoding="UTF-8" standalone="no"?>
<!-- Created with Inkscape (http://www.inkscape.org/) -->

<svg
   xmlns:dc="http://purl.org/dc/elements/1.1/"
   xmlns:cc="http://creativecommons.org/ns#"
   xmlns:rdf="http://www.w3.org/1999/02/22-rdf-syntax-ns#"
   xmlns:svg="http://www.w3.org/2000/svg"
   xmlns="http://www.w3.org/2000/svg"
   xmlns:sodipodi="http://sodipodi.sourceforge.net/DTD/sodipodi-0.dtd"
   xmlns:inkscape="http://www.inkscape.org/namespaces/inkscape"
   width="405"
   height="291.125"
   id="svg4654"
   version="1.1"
   inkscape:version="0.48.4 r9939"
   sodipodi:docname="New document 11">
  <defs
     id="defs4656" />
  <sodipodi:namedview
     id="base"
     pagecolor="#ffffff"
     bordercolor="#666666"
     borderopacity="1.0"
     inkscape:pageopacity="0.0"
     inkscape:pageshadow="2"
     inkscape:zoom="0.86377106"
     inkscape:cx="191.27842"
     inkscape:cy="114.08504"
     inkscape:document-units="px"
     inkscape:current-layer="layer1"
     showgrid="false"
     fit-margin-top="0"
     fit-margin-left="0"
     fit-margin-right="0"
     fit-margin-bottom="0"
     inkscape:window-width="1855"
     inkscape:window-height="1056"
     inkscape:window-x="65"
     inkscape:window-y="24"
     inkscape:window-maximized="1" />
  <metadata
     id="metadata4659">
    <rdf:RDF>
      <cc:Work
         rdf:about="">
        <dc:format>image/svg+xml</dc:format>
        <dc:type
           rdf:resource="http://purl.org/dc/dcmitype/StillImage" />
        <dc:title></dc:title>
      </cc:Work>
    </rdf:RDF>
  </metadata>
  <g
     inkscape:label="Layer 1"
     inkscape:groupmode="layer"
     id="layer1"
     transform="translate(-180.76882,-349.14113)">
    <g
       transform="translate(-730.73118,889.17238)"
       id="g88">
      <path
         style="fill:#d20000;stroke:#000100;stroke-dasharray:5"
         inkscape:connector-curvature="0"
         d="m 911.5,-286.631 409.5,0"
         id="path90" />
      <path
         style="fill:#ffffff;stroke:#000100;stroke-dasharray:5"
         inkscape:connector-curvature="0"
         d="m 911.5,-502.631 409.5,0"
         id="path92" />
      <path
         style="fill:#ffffff;stroke:#000000;stroke-width:4"
         inkscape:connector-curvature="0"
         d="m 936.338,-507.131 0,220.5"
         id="path94" />
      <path
         style="fill:#d20000;stroke:#000100;stroke-width:2"
         inkscape:connector-curvature="0"
         d="m 936.338,-506.555 c 2.552,0 4.62,2.015 4.62,4.5 0,2.486 -2.068,4.5 -4.62,4.5 -2.552,0 -4.621,-2.014 -4.621,-4.5 0,-2.485 2.069,-4.5 4.621,-4.5 z"
         id="path96" />
      <path
         style="fill:#d20000;stroke:#000100;stroke-width:2"
         inkscape:connector-curvature="0"
         d="m 936.338,-291.131 c 2.552,0 4.62,2.015 4.62,4.5 0,2.485 -2.068,4.5 -4.62,4.5 -2.552,0 -4.621,-2.015 -4.621,-4.5 0,-2.485 2.069,-4.5 4.621,-4.5 z"
         id="path98" />
      <path
         style="fill:none;stroke:#d0990f;stroke-width:4"
         inkscape:connector-curvature="0"
         d="m 972.338,-507.131 0,220.5"
         id="path100" />
      <path
         style="fill:#d20000;stroke:#000100;stroke-width:2"
         inkscape:connector-curvature="0"
         d="m 972.338,-506.555 c 2.552,0 4.62,2.015 4.62,4.5 0,2.486 -2.068,4.5 -4.62,4.5 -2.552,0 -4.621,-2.014 -4.621,-4.5 0,-2.485 2.069,-4.5 4.621,-4.5 z"
         id="path102" />
      <path
         style="fill:#d20000;stroke:#000100;stroke-width:2"
         inkscape:connector-curvature="0"
         d="m 972.338,-291.131 c 2.552,0 4.62,2.015 4.62,4.5 0,2.485 -2.068,4.5 -4.62,4.5 -2.552,0 -4.621,-2.015 -4.621,-4.5 0,-2.485 2.069,-4.5 4.621,-4.5 z"
         id="path104" />
      <path
         style="fill:#ffffff;stroke:#000000;stroke-width:4"
         inkscape:connector-curvature="0"
         d="m 1008.34,-507.131 0,220.5"
         id="path106" />
      <path
         style="fill:#d20000;stroke:#000100;stroke-width:2"
         inkscape:connector-curvature="0"
         d="m 1008.34,-506.555 c 2.55,0 4.62,2.015 4.62,4.5 0,2.486 -2.07,4.5 -4.62,4.5 -2.55,0 -4.62,-2.014 -4.62,-4.5 0,-2.485 2.07,-4.5 4.62,-4.5 z"
         id="path108" />
      <path
         style="fill:#d20000;stroke:#000100;stroke-width:2"
         inkscape:connector-curvature="0"
         d="m 1008.34,-291.131 c 2.55,0 4.62,2.015 4.62,4.5 0,2.485 -2.07,4.5 -4.62,4.5 -2.55,0 -4.62,-2.015 -4.62,-4.5 0,-2.485 2.07,-4.5 4.62,-4.5 z"
         id="path110" />
      <path
         style="fill:none;stroke:#d0990f;stroke-width:4"
         inkscape:connector-curvature="0"
         d="m 1044.34,-507.131 0,220.5"
         id="path112" />
      <path
         style="fill:#d20000;stroke:#000100;stroke-width:2"
         inkscape:connector-curvature="0"
         d="m 1044.34,-506.555 c 2.55,0 4.62,2.015 4.62,4.5 0,2.486 -2.07,4.5 -4.62,4.5 -2.55,0 -4.62,-2.014 -4.62,-4.5 0,-2.485 2.07,-4.5 4.62,-4.5 z"
         id="path114" />
      <path
         style="fill:#d20000;stroke:#000100;stroke-width:2"
         inkscape:connector-curvature="0"
         d="m 1044.34,-291.131 c 2.55,0 4.62,2.015 4.62,4.5 0,2.485 -2.07,4.5 -4.62,4.5 -2.55,0 -4.62,-2.015 -4.62,-4.5 0,-2.485 2.07,-4.5 4.62,-4.5 z"
         id="path116" />
      <path
         style="fill:#ffffff;stroke:#000000;stroke-width:4"
         inkscape:connector-curvature="0"
         d="m 1080.34,-507.131 0,220.5"
         id="path118" />
      <path
         style="fill:#d20000;stroke:#000100;stroke-width:2"
         inkscape:connector-curvature="0"
         d="m 1080.34,-506.555 c 2.55,0 4.62,2.015 4.62,4.5 0,2.486 -2.07,4.5 -4.62,4.5 -2.55,0 -4.62,-2.014 -4.62,-4.5 0,-2.485 2.07,-4.5 4.62,-4.5 z"
         id="path120" />
      <path
         style="fill:#d20000;stroke:#000100;stroke-width:2"
         inkscape:connector-curvature="0"
         d="m 1080.34,-291.131 c 2.55,0 4.62,2.015 4.62,4.5 0,2.485 -2.07,4.5 -4.62,4.5 -2.55,0 -4.62,-2.015 -4.62,-4.5 0,-2.485 2.07,-4.5 4.62,-4.5 z"
         id="path122" />
      <path
         style="fill:#ffffff;stroke:#d0990f;stroke-width:4"
         inkscape:connector-curvature="0"
         d="m 1116.34,-507.131 0,220.5"
         id="path124" />
      <path
         style="fill:#d20000;stroke:#000100;stroke-width:2"
         inkscape:connector-curvature="0"
         d="m 1116.34,-506.555 c 2.55,0 4.62,2.015 4.62,4.5 0,2.486 -2.07,4.5 -4.62,4.5 -2.55,0 -4.62,-2.014 -4.62,-4.5 0,-2.485 2.07,-4.5 4.62,-4.5 z"
         id="path126" />
      <path
         style="fill:#d20000;stroke:#000100;stroke-width:2"
         inkscape:connector-curvature="0"
         d="m 1116.34,-291.131 c 2.55,0 4.62,2.015 4.62,4.5 0,2.485 -2.07,4.5 -4.62,4.5 -2.55,0 -4.62,-2.015 -4.62,-4.5 0,-2.485 2.07,-4.5 4.62,-4.5 z"
         id="path128" />
      <path
         style="fill:#ffffff;stroke:#000000;stroke-width:4"
         inkscape:connector-curvature="0"
         d="m 1152.34,-507.131 0,220.5"
         id="path130" />
      <path
         style="fill:#d20000;stroke:#000100;stroke-width:2"
         inkscape:connector-curvature="0"
         d="m 1152.34,-506.555 c 2.55,0 4.62,2.015 4.62,4.5 0,2.486 -2.07,4.5 -4.62,4.5 -2.55,0 -4.62,-2.014 -4.62,-4.5 0,-2.485 2.07,-4.5 4.62,-4.5 z"
         id="path132" />
      <path
         style="fill:#d20000;stroke:#000100;stroke-width:2"
         inkscape:connector-curvature="0"
         d="m 1152.34,-291.131 c 2.55,0 4.62,2.015 4.62,4.5 0,2.485 -2.07,4.5 -4.62,4.5 -2.55,0 -4.62,-2.015 -4.62,-4.5 0,-2.485 2.07,-4.5 4.62,-4.5 z"
         id="path134" />
      <path
         style="fill:none;stroke:#d0990f;stroke-width:4"
         inkscape:connector-curvature="0"
         d="m 1188.34,-507.131 0,220.5"
         id="path136" />
      <path
         style="fill:#d20000;stroke:#000100;stroke-width:2"
         inkscape:connector-curvature="0"
         d="m 1188.34,-506.555 c 2.55,0 4.62,2.015 4.62,4.5 0,2.486 -2.07,4.5 -4.62,4.5 -2.55,0 -4.62,-2.014 -4.62,-4.5 0,-2.485 2.07,-4.5 4.62,-4.5 z"
         id="path138" />
      <path
         style="fill:#d20000;stroke:#000100;stroke-width:2"
         inkscape:connector-curvature="0"
         d="m 1188.34,-291.131 c 2.55,0 4.62,2.015 4.62,4.5 0,2.485 -2.07,4.5 -4.62,4.5 -2.55,0 -4.62,-2.015 -4.62,-4.5 0,-2.485 2.07,-4.5 4.62,-4.5 z"
         id="path140" />
      <path
         style="fill:#ffffff;stroke:#000000;stroke-width:4"
         inkscape:connector-curvature="0"
         d="m 1224.34,-507.131 0,220.5"
         id="path142" />
      <path
         style="fill:#d20000;stroke:#000100;stroke-width:2"
         inkscape:connector-curvature="0"
         d="m 1224.34,-506.555 c 2.55,0 4.62,2.015 4.62,4.5 0,2.486 -2.07,4.5 -4.62,4.5 -2.55,0 -4.62,-2.014 -4.62,-4.5 0,-2.485 2.07,-4.5 4.62,-4.5 z"
         id="path144" />
      <path
         style="fill:#d20000;stroke:#000100;stroke-width:2"
         inkscape:connector-curvature="0"
         d="m 1224.34,-291.131 c 2.55,0 4.62,2.015 4.62,4.5 0,2.485 -2.07,4.5 -4.62,4.5 -2.55,0 -4.62,-2.015 -4.62,-4.5 0,-2.485 2.07,-4.5 4.62,-4.5 z"
         id="path146" />
      <path
         style="fill:none;stroke:#d0990f;stroke-width:4"
         inkscape:connector-curvature="0"
         d="m 1260.34,-507.131 0,220.5"
         id="path148" />
      <path
         style="fill:#d20000;stroke:#000100;stroke-width:2"
         inkscape:connector-curvature="0"
         d="m 1260.34,-506.555 c 2.55,0 4.62,2.015 4.62,4.5 0,2.486 -2.07,4.5 -4.62,4.5 -2.55,0 -4.62,-2.014 -4.62,-4.5 0,-2.485 2.07,-4.5 4.62,-4.5 z"
         id="path150" />
      <path
         style="fill:#d20000;stroke:#000100;stroke-width:2"
         inkscape:connector-curvature="0"
         d="m 1260.34,-291.131 c 2.55,0 4.62,2.015 4.62,4.5 0,2.485 -2.07,4.5 -4.62,4.5 -2.55,0 -4.62,-2.015 -4.62,-4.5 0,-2.485 2.07,-4.5 4.62,-4.5 z"
         id="path152" />
      <path
         style="fill:#ffffff;stroke:#000000;stroke-width:4"
         inkscape:connector-curvature="0"
         d="m 1296.34,-507.131 0,220.5"
         id="path154" />
      <path
         style="fill:#d20000;stroke:#000100;stroke-width:2"
         inkscape:connector-curvature="0"
         d="m 1296.34,-506.555 c 2.55,0 4.62,2.015 4.62,4.5 0,2.486 -2.07,4.5 -4.62,4.5 -2.55,0 -4.62,-2.014 -4.62,-4.5 0,-2.485 2.07,-4.5 4.62,-4.5 z"
         id="path156" />
      <path
         style="fill:#d20000;stroke:#000100;stroke-width:2"
         inkscape:connector-curvature="0"
         d="m 1296.34,-291.131 c 2.55,0 4.62,2.015 4.62,4.5 0,2.485 -2.07,4.5 -4.62,4.5 -2.55,0 -4.62,-2.015 -4.62,-4.5 0,-2.485 2.07,-4.5 4.62,-4.5 z"
         id="path158" />
      <path
         style="fill:#ffffff;stroke:#000100;stroke-dasharray:5"
         inkscape:connector-curvature="0"
         d="m 911.5,-322.631 409.5,0"
         id="path160" />
      <path
         style="fill:#ffffff;stroke:#000100;stroke-dasharray:5"
         inkscape:connector-curvature="0"
         d="m 911.5,-358.631 409.5,0"
         id="path162" />
      <path
         style="fill:#ffffff;stroke:#000100;stroke-dasharray:5"
         inkscape:connector-curvature="0"
         d="m 911.5,-394.631 409.5,0"
         id="path164" />
      <path
         style="fill:#ffffff;stroke:#000100;stroke-dasharray:5"
         inkscape:connector-curvature="0"
         d="m 911.5,-430.631 409.5,0"
         id="path166" />
      <path
         style="fill:#ffffff;stroke:#000100;stroke-dasharray:5"
         inkscape:connector-curvature="0"
         d="m 911.5,-466.631 409.5,0"
         id="path168" />
      <path
         style="fill:none;stroke:#0d0d0d;stroke-width:2;stroke-dasharray:10"
         inkscape:connector-curvature="0"
         d="m 1116,-538.895 0,292.764"
         id="path170" />
      <g
         id="g172">
        <path
           style="fill:none;stroke:#000100"
           inkscape:connector-curvature="0"
           d="m 1084.84,-538.895 c 0,10.08 14.1,18.25 31.5,18.25 17.39,0 31.5,-8.17 31.5,-18.25"
           id="path174" />
        <path
           style="fill:none;stroke:#000100"
           inkscape:connector-curvature="0"
           d="m 1084.33,-529.102 c -0.85,-3.184 -1.03,-6.766 0.51,-9.793 1.13,2.425 3.41,4.103 5.88,4.972"
           id="path176" />
      </g>
    </g>
  </g>
</svg>
