<?xml version="1.0" encoding="UTF-8" standalone="no"?>
<!-- Created with Inkscape (http://www.inkscape.org/) -->

<svg
   xmlns:dc="http://purl.org/dc/elements/1.1/"
   xmlns:cc="http://creativecommons.org/ns#"
   xmlns:rdf="http://www.w3.org/1999/02/22-rdf-syntax-ns#"
   xmlns:svg="http://www.w3.org/2000/svg"
   xmlns="http://www.w3.org/2000/svg"
   xmlns:sodipodi="http://sodipodi.sourceforge.net/DTD/sodipodi-0.dtd"
   xmlns:inkscape="http://www.inkscape.org/namespaces/inkscape"
   width="659.25"
   height="515.28125"
   id="svg3829"
   version="1.1"
   inkscape:version="0.48.4 r9939"
   sodipodi:docname="New document 2">
  <defs
     id="defs3831">
    <clipPath
       id="7fc8750c98b0">
      <path
         style="fill:#000000;fill-opacity:0.35"
         inkscape:connector-curvature="0"
         d="m 338.01,518.913 44,0 0,-28 -44,0 z"
         id="path517" />
    </clipPath>
    <clipPath
       id="7fc87423a790">
      <path
         style="fill:#000000;fill-opacity:0.35"
         inkscape:connector-curvature="0"
         d="m 381.998,806.913 -44,0 0,-28 44,0 z"
         id="path524" />
    </clipPath>
    <clipPath
       id="7fc87507bca0">
      <path
         style="fill:#000000;fill-opacity:0.35"
         inkscape:connector-curvature="0"
         d="m 193.93,670.981 0,-44 -28,0 0,44 z"
         id="path531" />
    </clipPath>
    <clipPath
       id="7fc8750c4050">
      <path
         style="fill:#000000;fill-opacity:0.35"
         inkscape:connector-curvature="0"
         d="m 553.93,626.993 0,44 -28,0 0,-44 z"
         id="path538" />
    </clipPath>
  </defs>
  <sodipodi:namedview
     id="base"
     pagecolor="#ffffff"
     bordercolor="#666666"
     borderopacity="1.0"
     inkscape:pageopacity="0.0"
     inkscape:pageshadow="2"
     inkscape:zoom="0.86377106"
     inkscape:cx="528.00881"
     inkscape:cy="281.37114"
     inkscape:document-units="px"
     inkscape:current-layer="layer1"
     showgrid="false"
     fit-margin-top="0"
     fit-margin-left="0"
     fit-margin-right="0"
     fit-margin-bottom="0"
     inkscape:window-width="1855"
     inkscape:window-height="1056"
     inkscape:window-x="65"
     inkscape:window-y="24"
     inkscape:window-maximized="1" />
  <metadata
     id="metadata3834">
    <rdf:RDF>
      <cc:Work
         rdf:about="">
        <dc:format>image/svg+xml</dc:format>
        <dc:type
           rdf:resource="http://purl.org/dc/dcmitype/StillImage" />
        <dc:title></dc:title>
      </cc:Work>
    </rdf:RDF>
  </metadata>
  <g
     inkscape:label="Layer 1"
     inkscape:groupmode="layer"
     id="layer1"
     transform="translate(155.96157,-292.27098)">
    <g
       transform="translate(-186.68032,-99.322768)"
       id="g178">
      <path
         style="fill:#ffffff;stroke:#000100"
         inkscape:connector-curvature="0"
         d="m 324.338,509.869 0,103.5"
         id="path180" />
      <path
         style="fill:#ffffff;stroke:#000100"
         inkscape:connector-curvature="0"
         d="m 31.7169,469.369 292.6211,0"
         id="path182" />
      <path
         style="fill:#ffffff;stroke:#000100"
         inkscape:connector-curvature="0"
         d="m 31.7169,541.369 292.6211,0"
         id="path184" />
      <path
         style="fill:#ffffff;stroke:#000100"
         inkscape:connector-curvature="0"
         d="m 108.338,392.869 0,153"
         id="path186" />
      <path
         style="fill:#ffffff;stroke:#000100"
         inkscape:connector-curvature="0"
         d="m 36.338,392.869 0,153"
         id="path188" />
      <path
         style="fill:#ffffff;stroke:#000100"
         inkscape:connector-curvature="0"
         d="m 31.7169,397.369 297.2411,0"
         id="path190" />
      <path
         style="fill:#ffffff;stroke:#000100"
         inkscape:connector-curvature="0"
         d="m 180.338,392.869 0,153"
         id="path192" />
      <path
         style="fill:#ffffff;stroke:#000100"
         inkscape:connector-curvature="0"
         d="m 324.338,392.869 0,153"
         id="path194" />
      <path
         style="fill:#ffffff;stroke:#000100"
         inkscape:connector-curvature="0"
         d="m 252.338,392.869 0,153"
         id="path196" />
      <path
         style="fill:#ffffff;stroke:#000100;stroke-width:2"
         inkscape:connector-curvature="0"
         d="m 252.337,464.605 c 2.552,0 4.621,2.015 4.621,4.5 0,2.486 -2.069,4.5 -4.621,4.5 -2.551,0 -4.62,-2.014 -4.62,-4.5 0,-2.485 2.069,-4.5 4.62,-4.5 z"
         id="path198" />
      <path
         style="stroke:#000100;stroke-width:2"
         inkscape:connector-curvature="0"
         d="m 252.337,392.605 c 2.552,0 4.621,2.015 4.621,4.5 0,2.486 -2.069,4.5 -4.621,4.5 -2.551,0 -4.62,-2.014 -4.62,-4.5 0,-2.485 2.069,-4.5 4.62,-4.5 z"
         id="path200" />
      <path
         style="fill:#ffffff;stroke:#000100;stroke-width:2"
         inkscape:connector-curvature="0"
         d="m 324.338,392.869 c 2.552,0 4.62,2.015 4.62,4.5 0,2.485 -2.068,4.5 -4.62,4.5 -2.552,0 -4.621,-2.015 -4.621,-4.5 0,-2.485 2.069,-4.5 4.621,-4.5 z"
         id="path202" />
      <path
         style="fill:#ffffff;stroke:#000100;stroke-width:2"
         inkscape:connector-curvature="0"
         d="m 180.338,392.869 c 2.552,0 4.62,2.015 4.62,4.5 0,2.485 -2.068,4.5 -4.62,4.5 -2.552,0 -4.621,-2.015 -4.621,-4.5 0,-2.485 2.069,-4.5 4.621,-4.5 z"
         id="path204" />
      <path
         style="fill:#ffffff;stroke:#000100;stroke-width:2"
         inkscape:connector-curvature="0"
         d="m 108.338,464.869 c 2.552,0 4.62,2.015 4.62,4.5 0,2.485 -2.068,4.5 -4.62,4.5 -2.552,0 -4.621,-2.015 -4.621,-4.5 0,-2.485 2.069,-4.5 4.621,-4.5 z"
         id="path206" />
      <path
         style="stroke:#000100;stroke-width:2"
         inkscape:connector-curvature="0"
         d="m 108.338,392.869 c 2.552,0 4.62,2.015 4.62,4.5 0,2.485 -2.068,4.5 -4.62,4.5 -2.552,0 -4.621,-2.015 -4.621,-4.5 0,-2.485 2.069,-4.5 4.621,-4.5 z"
         id="path208" />
      <path
         style="stroke:#000100;stroke-width:2"
         inkscape:connector-curvature="0"
         d="m 36.338,464.869 c 2.552,0 4.6203,2.015 4.6203,4.5 0,2.485 -2.0683,4.5 -4.6203,4.5 -2.552,0 -4.6211,-2.015 -4.6211,-4.5 0,-2.485 2.0691,-4.5 4.6211,-4.5 z"
         id="path210" />
      <path
         style="fill:#ffffff;stroke:#000100;stroke-width:2"
         inkscape:connector-curvature="0"
         d="m 36.338,392.869 c 2.552,0 4.6203,2.015 4.6203,4.5 0,2.485 -2.0683,4.5 -4.6203,4.5 -2.552,0 -4.6211,-2.015 -4.6211,-4.5 0,-2.485 2.0691,-4.5 4.6211,-4.5 z"
         id="path212" />
      <path
         style="fill:#ffffff;stroke:#000100"
         inkscape:connector-curvature="0"
         d="m 108.338,541.105 0,72.264"
         id="path214" />
      <path
         style="fill:#ffffff;stroke:#000100"
         inkscape:connector-curvature="0"
         d="m 36.338,541.105 0,72.264"
         id="path216" />
      <path
         style="fill:#ffffff;stroke:#000100"
         inkscape:connector-curvature="0"
         d="m 31.7169,613.369 292.6211,0"
         id="path218" />
      <path
         style="fill:#ffffff;stroke:#000100"
         inkscape:connector-curvature="0"
         d="m 180.338,545.869 0,67.5"
         id="path220" />
      <path
         style="fill:#ffffff;stroke:#000100"
         inkscape:connector-curvature="0"
         d="m 252.338,525.869 0,87.5"
         id="path222" />
      <path
         style="stroke:#000100;stroke-width:2"
         inkscape:connector-curvature="0"
         d="m 108.338,536.869 c 2.552,0 4.62,2.015 4.62,4.5 0,2.485 -2.068,4.5 -4.62,4.5 -2.552,0 -4.621,-2.015 -4.621,-4.5 0,-2.485 2.069,-4.5 4.621,-4.5 z"
         id="path224" />
      <path
         style="fill:#ffffff;stroke:#000100;stroke-width:2"
         inkscape:connector-curvature="0"
         d="m 180.338,536.869 c 2.552,0 4.62,2.015 4.62,4.5 0,2.485 -2.068,4.5 -4.62,4.5 -2.552,0 -4.621,-2.015 -4.621,-4.5 0,-2.485 2.069,-4.5 4.621,-4.5 z"
         id="path226" />
      <path
         style="stroke:#000100;stroke-width:2"
         inkscape:connector-curvature="0"
         d="m 252.338,536.869 c 2.552,0 4.62,2.015 4.62,4.5 0,2.485 -2.068,4.5 -4.62,4.5 -2.552,0 -4.621,-2.015 -4.621,-4.5 0,-2.485 2.069,-4.5 4.621,-4.5 z"
         id="path228" />
      <path
         style="fill:#ffffff;stroke:#000100;stroke-width:2"
         inkscape:connector-curvature="0"
         d="m 324.338,536.869 c 2.552,0 4.62,2.015 4.62,4.5 0,2.485 -2.068,4.5 -4.62,4.5 -2.552,0 -4.621,-2.015 -4.621,-4.5 0,-2.485 2.069,-4.5 4.621,-4.5 z"
         id="path230" />
      <path
         style="fill:#ffffff;stroke:#000100;stroke-width:2"
         inkscape:connector-curvature="0"
         d="m 36.338,536.869 c 2.552,0 4.6203,2.015 4.6203,4.5 0,2.485 -2.0683,4.5 -4.6203,4.5 -2.552,0 -4.6211,-2.015 -4.6211,-4.5 0,-2.485 2.0691,-4.5 4.6211,-4.5 z"
         id="path232" />
      <path
         style="stroke:#000100;stroke-width:2"
         inkscape:connector-curvature="0"
         d="m 324.338,465.445 c 2.552,0 4.62,2.015 4.62,4.5 0,2.486 -2.068,4.5 -4.62,4.5 -2.552,0 -4.621,-2.014 -4.621,-4.5 0,-2.485 2.069,-4.5 4.621,-4.5 z"
         id="path234" />
      <path
         style="stroke:#000100;stroke-width:2"
         inkscape:connector-curvature="0"
         d="m 180.338,465.445 c 2.552,0 4.62,2.015 4.62,4.5 0,2.486 -2.068,4.5 -4.62,4.5 -2.552,0 -4.621,-2.014 -4.621,-4.5 0,-2.485 2.069,-4.5 4.621,-4.5 z"
         id="path236" />
      <path
         style="fill:#ffffff;stroke:#000100;stroke-width:2"
         inkscape:connector-curvature="0"
         d="m 108.338,608.869 c 2.552,0 4.62,2.015 4.62,4.5 0,2.485 -2.068,4.5 -4.62,4.5 -2.552,0 -4.621,-2.015 -4.621,-4.5 0,-2.485 2.069,-4.5 4.621,-4.5 z"
         id="path238" />
      <path
         style="stroke:#000100;stroke-width:2"
         inkscape:connector-curvature="0"
         d="m 180.338,608.869 c 2.552,0 4.62,2.015 4.62,4.5 0,2.485 -2.068,4.5 -4.62,4.5 -2.552,0 -4.621,-2.015 -4.621,-4.5 0,-2.485 2.069,-4.5 4.621,-4.5 z"
         id="path240" />
      <path
         style="fill:#ffffff;stroke:#000100;stroke-width:2"
         inkscape:connector-curvature="0"
         d="m 252.338,608.869 c 2.552,0 4.62,2.015 4.62,4.5 0,2.485 -2.068,4.5 -4.62,4.5 -2.552,0 -4.621,-2.015 -4.621,-4.5 0,-2.485 2.069,-4.5 4.621,-4.5 z"
         id="path242" />
      <path
         style="stroke:#000100;stroke-width:2"
         inkscape:connector-curvature="0"
         d="m 324.338,608.869 c 2.552,0 4.62,2.015 4.62,4.5 0,2.485 -2.068,4.5 -4.62,4.5 -2.552,0 -4.621,-2.015 -4.621,-4.5 0,-2.485 2.069,-4.5 4.621,-4.5 z"
         id="path244" />
      <path
         style="stroke:#000100;stroke-width:2"
         inkscape:connector-curvature="0"
         d="m 36.338,608.869 c 2.552,0 4.6203,2.015 4.6203,4.5 0,2.485 -2.0683,4.5 -4.6203,4.5 -2.552,0 -4.6211,-2.015 -4.6211,-4.5 0,-2.485 2.0691,-4.5 4.6211,-4.5 z"
         id="path246" />
      <path
         style="fill:#ffffff;stroke:#000100"
         inkscape:connector-curvature="0"
         d="m 684.338,509.869 0,103.5"
         id="path248" />
      <path
         style="fill:#ffffff;stroke:#000100"
         inkscape:connector-curvature="0"
         d="m 391.717,469.369 292.621,0"
         id="path250" />
      <path
         style="fill:#ffffff;stroke:#000100"
         inkscape:connector-curvature="0"
         d="m 391.717,541.369 292.621,0"
         id="path252" />
      <path
         style="fill:#ffffff;stroke:#000100"
         inkscape:connector-curvature="0"
         d="m 468.338,392.869 0,153"
         id="path254" />
      <path
         style="fill:#ffffff;stroke:#000100"
         inkscape:connector-curvature="0"
         d="m 396.338,392.869 0,153"
         id="path256" />
      <path
         style="fill:#ffffff;stroke:#000100"
         inkscape:connector-curvature="0"
         d="m 391.717,397.369 297.241,0"
         id="path258" />
      <path
         style="fill:#ffffff;stroke:#000100"
         inkscape:connector-curvature="0"
         d="m 540.338,392.869 0,153"
         id="path260" />
      <path
         style="fill:#ffffff;stroke:#000100"
         inkscape:connector-curvature="0"
         d="m 684.338,392.869 0,153"
         id="path262" />
      <path
         style="fill:#ffffff;stroke:#000100"
         inkscape:connector-curvature="0"
         d="m 612.338,392.869 0,153"
         id="path264" />
      <path
         style="fill:#ffffff;stroke:#000100;stroke-width:2"
         inkscape:connector-curvature="0"
         d="m 612.337,464.605 c 2.552,0 4.621,2.015 4.621,4.5 0,2.486 -2.069,4.5 -4.621,4.5 -2.551,0 -4.62,-2.014 -4.62,-4.5 0,-2.485 2.069,-4.5 4.62,-4.5 z"
         id="path266" />
      <path
         style="stroke:#000100;stroke-width:2"
         inkscape:connector-curvature="0"
         d="m 612.337,392.605 c 2.552,0 4.621,2.015 4.621,4.5 0,2.486 -2.069,4.5 -4.621,4.5 -2.551,0 -4.62,-2.014 -4.62,-4.5 0,-2.485 2.069,-4.5 4.62,-4.5 z"
         id="path268" />
      <path
         style="fill:#ffffff;stroke:#000100;stroke-width:2"
         inkscape:connector-curvature="0"
         d="m 684.338,392.869 c 2.552,0 4.62,2.015 4.62,4.5 0,2.485 -2.068,4.5 -4.62,4.5 -2.552,0 -4.621,-2.015 -4.621,-4.5 0,-2.485 2.069,-4.5 4.621,-4.5 z"
         id="path270" />
      <path
         style="fill:#ffffff;stroke:#000100;stroke-width:2"
         inkscape:connector-curvature="0"
         d="m 540.338,392.869 c 2.552,0 4.62,2.015 4.62,4.5 0,2.485 -2.068,4.5 -4.62,4.5 -2.552,0 -4.621,-2.015 -4.621,-4.5 0,-2.485 2.069,-4.5 4.621,-4.5 z"
         id="path272" />
      <path
         style="fill:#ffffff;stroke:#000100;stroke-width:2"
         inkscape:connector-curvature="0"
         d="m 468.338,464.869 c 2.552,0 4.62,2.015 4.62,4.5 0,2.485 -2.068,4.5 -4.62,4.5 -2.552,0 -4.621,-2.015 -4.621,-4.5 0,-2.485 2.069,-4.5 4.621,-4.5 z"
         id="path274" />
      <path
         style="stroke:#000100;stroke-width:2"
         inkscape:connector-curvature="0"
         d="m 468.338,392.869 c 2.552,0 4.62,2.015 4.62,4.5 0,2.485 -2.068,4.5 -4.62,4.5 -2.552,0 -4.621,-2.015 -4.621,-4.5 0,-2.485 2.069,-4.5 4.621,-4.5 z"
         id="path276" />
      <path
         style="stroke:#000100;stroke-width:2"
         inkscape:connector-curvature="0"
         d="m 396.338,464.869 c 2.552,0 4.62,2.015 4.62,4.5 0,2.485 -2.068,4.5 -4.62,4.5 -2.552,0 -4.621,-2.015 -4.621,-4.5 0,-2.485 2.069,-4.5 4.621,-4.5 z"
         id="path278" />
      <path
         style="fill:#ffffff;stroke:#000100;stroke-width:2"
         inkscape:connector-curvature="0"
         d="m 396.338,392.869 c 2.552,0 4.62,2.015 4.62,4.5 0,2.485 -2.068,4.5 -4.62,4.5 -2.552,0 -4.621,-2.015 -4.621,-4.5 0,-2.485 2.069,-4.5 4.621,-4.5 z"
         id="path280" />
      <path
         style="fill:#ffffff;stroke:#000100"
         inkscape:connector-curvature="0"
         d="m 468.338,541.105 0,72.264"
         id="path282" />
      <path
         style="fill:#ffffff;stroke:#000100"
         inkscape:connector-curvature="0"
         d="m 396.338,541.105 0,72.264"
         id="path284" />
      <path
         style="fill:#ffffff;stroke:#000100"
         inkscape:connector-curvature="0"
         d="m 391.717,613.369 292.621,0"
         id="path286" />
      <path
         style="fill:#ffffff;stroke:#000100"
         inkscape:connector-curvature="0"
         d="m 540.338,545.869 0,67.5"
         id="path288" />
      <path
         style="fill:#ffffff;stroke:#000100"
         inkscape:connector-curvature="0"
         d="m 612.338,525.869 0,87.5"
         id="path290" />
      <path
         style="stroke:#000100;stroke-width:2"
         inkscape:connector-curvature="0"
         d="m 468.338,536.869 c 2.552,0 4.62,2.015 4.62,4.5 0,2.485 -2.068,4.5 -4.62,4.5 -2.552,0 -4.621,-2.015 -4.621,-4.5 0,-2.485 2.069,-4.5 4.621,-4.5 z"
         id="path292" />
      <path
         style="fill:#ffffff;stroke:#000100;stroke-width:2"
         inkscape:connector-curvature="0"
         d="m 540.338,536.869 c 2.552,0 4.62,2.015 4.62,4.5 0,2.485 -2.068,4.5 -4.62,4.5 -2.552,0 -4.621,-2.015 -4.621,-4.5 0,-2.485 2.069,-4.5 4.621,-4.5 z"
         id="path294" />
      <path
         style="stroke:#000100;stroke-width:2"
         inkscape:connector-curvature="0"
         d="m 612.338,536.869 c 2.552,0 4.62,2.015 4.62,4.5 0,2.485 -2.068,4.5 -4.62,4.5 -2.552,0 -4.621,-2.015 -4.621,-4.5 0,-2.485 2.069,-4.5 4.621,-4.5 z"
         id="path296" />
      <path
         style="fill:#ffffff;stroke:#000100;stroke-width:2"
         inkscape:connector-curvature="0"
         d="m 684.338,536.869 c 2.552,0 4.62,2.015 4.62,4.5 0,2.485 -2.068,4.5 -4.62,4.5 -2.552,0 -4.621,-2.015 -4.621,-4.5 0,-2.485 2.069,-4.5 4.621,-4.5 z"
         id="path298" />
      <path
         style="fill:#ffffff;stroke:#000100;stroke-width:2"
         inkscape:connector-curvature="0"
         d="m 396.338,536.869 c 2.552,0 4.62,2.015 4.62,4.5 0,2.485 -2.068,4.5 -4.62,4.5 -2.552,0 -4.621,-2.015 -4.621,-4.5 0,-2.485 2.069,-4.5 4.621,-4.5 z"
         id="path300" />
      <path
         style="stroke:#000100;stroke-width:2"
         inkscape:connector-curvature="0"
         d="m 684.338,465.445 c 2.552,0 4.62,2.015 4.62,4.5 0,2.486 -2.068,4.5 -4.62,4.5 -2.552,0 -4.621,-2.014 -4.621,-4.5 0,-2.485 2.069,-4.5 4.621,-4.5 z"
         id="path302" />
      <path
         style="stroke:#000100;stroke-width:2"
         inkscape:connector-curvature="0"
         d="m 540.338,465.445 c 2.552,0 4.62,2.015 4.62,4.5 0,2.486 -2.068,4.5 -4.62,4.5 -2.552,0 -4.621,-2.014 -4.621,-4.5 0,-2.485 2.069,-4.5 4.621,-4.5 z"
         id="path304" />
      <path
         style="fill:#ffffff;stroke:#000100;stroke-width:2"
         inkscape:connector-curvature="0"
         d="m 468.338,608.869 c 2.552,0 4.62,2.015 4.62,4.5 0,2.485 -2.068,4.5 -4.62,4.5 -2.552,0 -4.621,-2.015 -4.621,-4.5 0,-2.485 2.069,-4.5 4.621,-4.5 z"
         id="path306" />
      <path
         style="stroke:#000100;stroke-width:2"
         inkscape:connector-curvature="0"
         d="m 540.338,608.869 c 2.552,0 4.62,2.015 4.62,4.5 0,2.485 -2.068,4.5 -4.62,4.5 -2.552,0 -4.621,-2.015 -4.621,-4.5 0,-2.485 2.069,-4.5 4.621,-4.5 z"
         id="path308" />
      <path
         style="fill:#ffffff;stroke:#000100;stroke-width:2"
         inkscape:connector-curvature="0"
         d="m 612.338,608.869 c 2.552,0 4.62,2.015 4.62,4.5 0,2.485 -2.068,4.5 -4.62,4.5 -2.552,0 -4.621,-2.015 -4.621,-4.5 0,-2.485 2.069,-4.5 4.621,-4.5 z"
         id="path310" />
      <path
         style="stroke:#000100;stroke-width:2"
         inkscape:connector-curvature="0"
         d="m 684.338,608.869 c 2.552,0 4.62,2.015 4.62,4.5 0,2.485 -2.068,4.5 -4.62,4.5 -2.552,0 -4.621,-2.015 -4.621,-4.5 0,-2.485 2.069,-4.5 4.621,-4.5 z"
         id="path312" />
      <path
         style="stroke:#000100;stroke-width:2"
         inkscape:connector-curvature="0"
         d="m 396.338,608.869 c 2.552,0 4.62,2.015 4.62,4.5 0,2.485 -2.068,4.5 -4.62,4.5 -2.552,0 -4.621,-2.015 -4.621,-4.5 0,-2.485 2.069,-4.5 4.621,-4.5 z"
         id="path314" />
      <path
         style="fill:#ffffff;stroke:#000100"
         inkscape:connector-curvature="0"
         d="m 324.338,797.869 0,103.5"
         id="path316" />
      <path
         style="fill:#ffffff;stroke:#000100"
         inkscape:connector-curvature="0"
         d="m 31.7169,757.369 292.6211,0"
         id="path318" />
      <path
         style="fill:#ffffff;stroke:#000100"
         inkscape:connector-curvature="0"
         d="m 31.7169,829.369 292.6211,0"
         id="path320" />
      <path
         style="fill:#ffffff;stroke:#000100"
         inkscape:connector-curvature="0"
         d="m 108.338,680.869 0,153"
         id="path322" />
      <path
         style="fill:#ffffff;stroke:#000100"
         inkscape:connector-curvature="0"
         d="m 36.338,680.869 0,153"
         id="path324" />
      <path
         style="fill:#ffffff;stroke:#000100"
         inkscape:connector-curvature="0"
         d="m 31.7169,685.369 297.2411,0"
         id="path326" />
      <path
         style="fill:#ffffff;stroke:#000100"
         inkscape:connector-curvature="0"
         d="m 180.338,680.869 0,153"
         id="path328" />
      <path
         style="fill:#ffffff;stroke:#000100"
         inkscape:connector-curvature="0"
         d="m 324.338,680.869 0,153"
         id="path330" />
      <path
         style="fill:#ffffff;stroke:#000100"
         inkscape:connector-curvature="0"
         d="m 252.338,680.869 0,153"
         id="path332" />
      <path
         style="fill:#ffffff;stroke:#000100;stroke-width:2"
         inkscape:connector-curvature="0"
         d="m 252.337,752.605 c 2.552,0 4.621,2.015 4.621,4.5 0,2.486 -2.069,4.5 -4.621,4.5 -2.551,0 -4.62,-2.014 -4.62,-4.5 0,-2.485 2.069,-4.5 4.62,-4.5 z"
         id="path334" />
      <path
         style="stroke:#000100;stroke-width:2"
         inkscape:connector-curvature="0"
         d="m 252.337,680.605 c 2.552,0 4.621,2.015 4.621,4.5 0,2.486 -2.069,4.5 -4.621,4.5 -2.551,0 -4.62,-2.014 -4.62,-4.5 0,-2.485 2.069,-4.5 4.62,-4.5 z"
         id="path336" />
      <path
         style="fill:#ffffff;stroke:#000100;stroke-width:2"
         inkscape:connector-curvature="0"
         d="m 324.338,680.869 c 2.552,0 4.62,2.015 4.62,4.5 0,2.485 -2.068,4.5 -4.62,4.5 -2.552,0 -4.621,-2.015 -4.621,-4.5 0,-2.485 2.069,-4.5 4.621,-4.5 z"
         id="path338" />
      <path
         style="fill:#ffffff;stroke:#000100;stroke-width:2"
         inkscape:connector-curvature="0"
         d="m 180.338,680.869 c 2.552,0 4.62,2.015 4.62,4.5 0,2.485 -2.068,4.5 -4.62,4.5 -2.552,0 -4.621,-2.015 -4.621,-4.5 0,-2.485 2.069,-4.5 4.621,-4.5 z"
         id="path340" />
      <path
         style="fill:#ffffff;stroke:#000100;stroke-width:2"
         inkscape:connector-curvature="0"
         d="m 108.338,752.869 c 2.552,0 4.62,2.015 4.62,4.5 0,2.485 -2.068,4.5 -4.62,4.5 -2.552,0 -4.621,-2.015 -4.621,-4.5 0,-2.485 2.069,-4.5 4.621,-4.5 z"
         id="path342" />
      <path
         style="stroke:#000100;stroke-width:2"
         inkscape:connector-curvature="0"
         d="m 108.338,680.869 c 2.552,0 4.62,2.015 4.62,4.5 0,2.485 -2.068,4.5 -4.62,4.5 -2.552,0 -4.621,-2.015 -4.621,-4.5 0,-2.485 2.069,-4.5 4.621,-4.5 z"
         id="path344" />
      <path
         style="stroke:#000100;stroke-width:2"
         inkscape:connector-curvature="0"
         d="m 36.338,752.869 c 2.552,0 4.6203,2.015 4.6203,4.5 0,2.485 -2.0683,4.5 -4.6203,4.5 -2.552,0 -4.6211,-2.015 -4.6211,-4.5 0,-2.485 2.0691,-4.5 4.6211,-4.5 z"
         id="path346" />
      <path
         style="fill:#ffffff;stroke:#000100;stroke-width:2"
         inkscape:connector-curvature="0"
         d="m 36.338,680.869 c 2.552,0 4.6203,2.015 4.6203,4.5 0,2.485 -2.0683,4.5 -4.6203,4.5 -2.552,0 -4.6211,-2.015 -4.6211,-4.5 0,-2.485 2.0691,-4.5 4.6211,-4.5 z"
         id="path348" />
      <path
         style="fill:#ffffff;stroke:#000100"
         inkscape:connector-curvature="0"
         d="m 108.338,829.105 0,72.264"
         id="path350" />
      <path
         style="fill:#ffffff;stroke:#000100"
         inkscape:connector-curvature="0"
         d="m 36.338,829.105 0,72.264"
         id="path352" />
      <path
         style="fill:#ffffff;stroke:#000100"
         inkscape:connector-curvature="0"
         d="m 31.7169,901.369 292.6211,0"
         id="path354" />
      <path
         style="fill:#ffffff;stroke:#000100"
         inkscape:connector-curvature="0"
         d="m 180.338,833.869 0,67.5"
         id="path356" />
      <path
         style="fill:#ffffff;stroke:#000100"
         inkscape:connector-curvature="0"
         d="m 252.338,813.869 0,87.5"
         id="path358" />
      <path
         style="stroke:#000100;stroke-width:2"
         inkscape:connector-curvature="0"
         d="m 108.338,824.869 c 2.552,0 4.62,2.015 4.62,4.5 0,2.485 -2.068,4.5 -4.62,4.5 -2.552,0 -4.621,-2.015 -4.621,-4.5 0,-2.485 2.069,-4.5 4.621,-4.5 z"
         id="path360" />
      <path
         style="fill:#ffffff;stroke:#000100;stroke-width:2"
         inkscape:connector-curvature="0"
         d="m 180.338,824.869 c 2.552,0 4.62,2.015 4.62,4.5 0,2.485 -2.068,4.5 -4.62,4.5 -2.552,0 -4.621,-2.015 -4.621,-4.5 0,-2.485 2.069,-4.5 4.621,-4.5 z"
         id="path362" />
      <path
         style="stroke:#000100;stroke-width:2"
         inkscape:connector-curvature="0"
         d="m 252.338,824.869 c 2.552,0 4.62,2.015 4.62,4.5 0,2.485 -2.068,4.5 -4.62,4.5 -2.552,0 -4.621,-2.015 -4.621,-4.5 0,-2.485 2.069,-4.5 4.621,-4.5 z"
         id="path364" />
      <path
         style="fill:#ffffff;stroke:#000100;stroke-width:2"
         inkscape:connector-curvature="0"
         d="m 324.338,824.869 c 2.552,0 4.62,2.015 4.62,4.5 0,2.485 -2.068,4.5 -4.62,4.5 -2.552,0 -4.621,-2.015 -4.621,-4.5 0,-2.485 2.069,-4.5 4.621,-4.5 z"
         id="path366" />
      <path
         style="fill:#ffffff;stroke:#000100;stroke-width:2"
         inkscape:connector-curvature="0"
         d="m 36.338,824.869 c 2.552,0 4.6203,2.015 4.6203,4.5 0,2.485 -2.0683,4.5 -4.6203,4.5 -2.552,0 -4.6211,-2.015 -4.6211,-4.5 0,-2.485 2.0691,-4.5 4.6211,-4.5 z"
         id="path368" />
      <path
         style="stroke:#000100;stroke-width:2"
         inkscape:connector-curvature="0"
         d="m 324.338,753.445 c 2.552,0 4.62,2.015 4.62,4.5 0,2.486 -2.068,4.5 -4.62,4.5 -2.552,0 -4.621,-2.014 -4.621,-4.5 0,-2.485 2.069,-4.5 4.621,-4.5 z"
         id="path370" />
      <path
         style="stroke:#000100;stroke-width:2"
         inkscape:connector-curvature="0"
         d="m 180.338,753.445 c 2.552,0 4.62,2.015 4.62,4.5 0,2.486 -2.068,4.5 -4.62,4.5 -2.552,0 -4.621,-2.014 -4.621,-4.5 0,-2.485 2.069,-4.5 4.621,-4.5 z"
         id="path372" />
      <path
         style="fill:#ffffff;stroke:#000100;stroke-width:2"
         inkscape:connector-curvature="0"
         d="m 108.338,896.869 c 2.552,0 4.62,2.015 4.62,4.5 0,2.485 -2.068,4.5 -4.62,4.5 -2.552,0 -4.621,-2.015 -4.621,-4.5 0,-2.485 2.069,-4.5 4.621,-4.5 z"
         id="path374" />
      <path
         style="stroke:#000100;stroke-width:2"
         inkscape:connector-curvature="0"
         d="m 180.338,896.869 c 2.552,0 4.62,2.015 4.62,4.5 0,2.485 -2.068,4.5 -4.62,4.5 -2.552,0 -4.621,-2.015 -4.621,-4.5 0,-2.485 2.069,-4.5 4.621,-4.5 z"
         id="path376" />
      <path
         style="fill:#ffffff;stroke:#000100;stroke-width:2"
         inkscape:connector-curvature="0"
         d="m 252.338,896.869 c 2.552,0 4.62,2.015 4.62,4.5 0,2.485 -2.068,4.5 -4.62,4.5 -2.552,0 -4.621,-2.015 -4.621,-4.5 0,-2.485 2.069,-4.5 4.621,-4.5 z"
         id="path378" />
      <path
         style="stroke:#000100;stroke-width:2"
         inkscape:connector-curvature="0"
         d="m 324.338,896.869 c 2.552,0 4.62,2.015 4.62,4.5 0,2.485 -2.068,4.5 -4.62,4.5 -2.552,0 -4.621,-2.015 -4.621,-4.5 0,-2.485 2.069,-4.5 4.621,-4.5 z"
         id="path380" />
      <path
         style="stroke:#000100;stroke-width:2"
         inkscape:connector-curvature="0"
         d="m 36.338,896.869 c 2.552,0 4.6203,2.015 4.6203,4.5 0,2.485 -2.0683,4.5 -4.6203,4.5 -2.552,0 -4.6211,-2.015 -4.6211,-4.5 0,-2.485 2.0691,-4.5 4.6211,-4.5 z"
         id="path382" />
      <path
         style="fill:#ffffff;stroke:#000100"
         inkscape:connector-curvature="0"
         d="m 684.338,797.869 0,103.5"
         id="path384" />
      <path
         style="fill:#ffffff;stroke:#000100"
         inkscape:connector-curvature="0"
         d="m 391.717,757.369 292.621,0"
         id="path386" />
      <path
         style="fill:#ffffff;stroke:#000100"
         inkscape:connector-curvature="0"
         d="m 391.717,829.369 292.621,0"
         id="path388" />
      <path
         style="fill:#ffffff;stroke:#000100"
         inkscape:connector-curvature="0"
         d="m 468.338,680.869 0,153"
         id="path390" />
      <path
         style="fill:#ffffff;stroke:#000100"
         inkscape:connector-curvature="0"
         d="m 396.338,680.869 0,153"
         id="path392" />
      <path
         style="fill:#ffffff;stroke:#000100"
         inkscape:connector-curvature="0"
         d="m 391.717,685.369 297.241,0"
         id="path394" />
      <path
         style="fill:#ffffff;stroke:#000100"
         inkscape:connector-curvature="0"
         d="m 540.338,680.869 0,153"
         id="path396" />
      <path
         style="fill:#ffffff;stroke:#000100"
         inkscape:connector-curvature="0"
         d="m 684.338,680.869 0,153"
         id="path398" />
      <path
         style="fill:#ffffff;stroke:#000100"
         inkscape:connector-curvature="0"
         d="m 612.338,680.869 0,153"
         id="path400" />
      <path
         style="fill:#ffffff;stroke:#000100;stroke-width:2"
         inkscape:connector-curvature="0"
         d="m 612.337,752.605 c 2.552,0 4.621,2.015 4.621,4.5 0,2.486 -2.069,4.5 -4.621,4.5 -2.551,0 -4.62,-2.014 -4.62,-4.5 0,-2.485 2.069,-4.5 4.62,-4.5 z"
         id="path402" />
      <path
         style="stroke:#000100;stroke-width:2"
         inkscape:connector-curvature="0"
         d="m 612.337,680.605 c 2.552,0 4.621,2.015 4.621,4.5 0,2.486 -2.069,4.5 -4.621,4.5 -2.551,0 -4.62,-2.014 -4.62,-4.5 0,-2.485 2.069,-4.5 4.62,-4.5 z"
         id="path404" />
      <path
         style="fill:#ffffff;stroke:#000100;stroke-width:2"
         inkscape:connector-curvature="0"
         d="m 684.338,680.869 c 2.552,0 4.62,2.015 4.62,4.5 0,2.485 -2.068,4.5 -4.62,4.5 -2.552,0 -4.621,-2.015 -4.621,-4.5 0,-2.485 2.069,-4.5 4.621,-4.5 z"
         id="path406" />
      <path
         style="fill:#ffffff;stroke:#000100;stroke-width:2"
         inkscape:connector-curvature="0"
         d="m 540.338,680.869 c 2.552,0 4.62,2.015 4.62,4.5 0,2.485 -2.068,4.5 -4.62,4.5 -2.552,0 -4.621,-2.015 -4.621,-4.5 0,-2.485 2.069,-4.5 4.621,-4.5 z"
         id="path408" />
      <path
         style="fill:#ffffff;stroke:#000100;stroke-width:2"
         inkscape:connector-curvature="0"
         d="m 468.338,752.869 c 2.552,0 4.62,2.015 4.62,4.5 0,2.485 -2.068,4.5 -4.62,4.5 -2.552,0 -4.621,-2.015 -4.621,-4.5 0,-2.485 2.069,-4.5 4.621,-4.5 z"
         id="path410" />
      <path
         style="stroke:#000100;stroke-width:2"
         inkscape:connector-curvature="0"
         d="m 468.338,680.869 c 2.552,0 4.62,2.015 4.62,4.5 0,2.485 -2.068,4.5 -4.62,4.5 -2.552,0 -4.621,-2.015 -4.621,-4.5 0,-2.485 2.069,-4.5 4.621,-4.5 z"
         id="path412" />
      <path
         style="stroke:#000100;stroke-width:2"
         inkscape:connector-curvature="0"
         d="m 396.338,752.869 c 2.552,0 4.62,2.015 4.62,4.5 0,2.485 -2.068,4.5 -4.62,4.5 -2.552,0 -4.621,-2.015 -4.621,-4.5 0,-2.485 2.069,-4.5 4.621,-4.5 z"
         id="path414" />
      <path
         style="fill:#ffffff;stroke:#000100;stroke-width:2"
         inkscape:connector-curvature="0"
         d="m 396.338,680.869 c 2.552,0 4.62,2.015 4.62,4.5 0,2.485 -2.068,4.5 -4.62,4.5 -2.552,0 -4.621,-2.015 -4.621,-4.5 0,-2.485 2.069,-4.5 4.621,-4.5 z"
         id="path416" />
      <path
         style="fill:#ffffff;stroke:#000100"
         inkscape:connector-curvature="0"
         d="m 468.338,829.105 0,72.264"
         id="path418" />
      <path
         style="fill:#ffffff;stroke:#000100"
         inkscape:connector-curvature="0"
         d="m 396.338,829.105 0,72.264"
         id="path420" />
      <path
         style="fill:#ffffff;stroke:#000100"
         inkscape:connector-curvature="0"
         d="m 391.717,901.369 292.621,0"
         id="path422" />
      <path
         style="fill:#ffffff;stroke:#000100"
         inkscape:connector-curvature="0"
         d="m 540.338,833.869 0,67.5"
         id="path424" />
      <path
         style="fill:#ffffff;stroke:#000100"
         inkscape:connector-curvature="0"
         d="m 612.338,813.869 0,87.5"
         id="path426" />
      <path
         style="stroke:#000100;stroke-width:2"
         inkscape:connector-curvature="0"
         d="m 468.338,824.869 c 2.552,0 4.62,2.015 4.62,4.5 0,2.485 -2.068,4.5 -4.62,4.5 -2.552,0 -4.621,-2.015 -4.621,-4.5 0,-2.485 2.069,-4.5 4.621,-4.5 z"
         id="path428" />
      <path
         style="fill:#ffffff;stroke:#000100;stroke-width:2"
         inkscape:connector-curvature="0"
         d="m 540.338,824.869 c 2.552,0 4.62,2.015 4.62,4.5 0,2.485 -2.068,4.5 -4.62,4.5 -2.552,0 -4.621,-2.015 -4.621,-4.5 0,-2.485 2.069,-4.5 4.621,-4.5 z"
         id="path430" />
      <path
         style="stroke:#000100;stroke-width:2"
         inkscape:connector-curvature="0"
         d="m 612.338,824.869 c 2.552,0 4.62,2.015 4.62,4.5 0,2.485 -2.068,4.5 -4.62,4.5 -2.552,0 -4.621,-2.015 -4.621,-4.5 0,-2.485 2.069,-4.5 4.621,-4.5 z"
         id="path432" />
      <path
         style="fill:#ffffff;stroke:#000100;stroke-width:2"
         inkscape:connector-curvature="0"
         d="m 684.338,824.869 c 2.552,0 4.62,2.015 4.62,4.5 0,2.485 -2.068,4.5 -4.62,4.5 -2.552,0 -4.621,-2.015 -4.621,-4.5 0,-2.485 2.069,-4.5 4.621,-4.5 z"
         id="path434" />
      <path
         style="fill:#ffffff;stroke:#000100;stroke-width:2"
         inkscape:connector-curvature="0"
         d="m 396.338,824.869 c 2.552,0 4.62,2.015 4.62,4.5 0,2.485 -2.068,4.5 -4.62,4.5 -2.552,0 -4.621,-2.015 -4.621,-4.5 0,-2.485 2.069,-4.5 4.621,-4.5 z"
         id="path436" />
      <path
         style="stroke:#000100;stroke-width:2"
         inkscape:connector-curvature="0"
         d="m 684.338,753.445 c 2.552,0 4.62,2.015 4.62,4.5 0,2.486 -2.068,4.5 -4.62,4.5 -2.552,0 -4.621,-2.014 -4.621,-4.5 0,-2.485 2.069,-4.5 4.621,-4.5 z"
         id="path438" />
      <path
         style="stroke:#000100;stroke-width:2"
         inkscape:connector-curvature="0"
         d="m 540.338,753.445 c 2.552,0 4.62,2.015 4.62,4.5 0,2.486 -2.068,4.5 -4.62,4.5 -2.552,0 -4.621,-2.014 -4.621,-4.5 0,-2.485 2.069,-4.5 4.621,-4.5 z"
         id="path440" />
      <path
         style="fill:#ffffff;stroke:#000100;stroke-width:2"
         inkscape:connector-curvature="0"
         d="m 468.338,896.869 c 2.552,0 4.62,2.015 4.62,4.5 0,2.485 -2.068,4.5 -4.62,4.5 -2.552,0 -4.621,-2.015 -4.621,-4.5 0,-2.485 2.069,-4.5 4.621,-4.5 z"
         id="path442" />
      <path
         style="stroke:#000100;stroke-width:2"
         inkscape:connector-curvature="0"
         d="m 540.338,896.869 c 2.552,0 4.62,2.015 4.62,4.5 0,2.485 -2.068,4.5 -4.62,4.5 -2.552,0 -4.621,-2.015 -4.621,-4.5 0,-2.485 2.069,-4.5 4.621,-4.5 z"
         id="path444" />
      <path
         style="fill:#ffffff;stroke:#000100;stroke-width:2"
         inkscape:connector-curvature="0"
         d="m 612.338,896.869 c 2.552,0 4.62,2.015 4.62,4.5 0,2.485 -2.068,4.5 -4.62,4.5 -2.552,0 -4.621,-2.015 -4.621,-4.5 0,-2.485 2.069,-4.5 4.621,-4.5 z"
         id="path446" />
      <path
         style="stroke:#000100;stroke-width:2"
         inkscape:connector-curvature="0"
         d="m 684.338,896.869 c 2.552,0 4.62,2.015 4.62,4.5 0,2.485 -2.068,4.5 -4.62,4.5 -2.552,0 -4.621,-2.015 -4.621,-4.5 0,-2.485 2.069,-4.5 4.621,-4.5 z"
         id="path448" />
      <path
         style="stroke:#000100;stroke-width:2"
         inkscape:connector-curvature="0"
         d="m 396.338,896.869 c 2.552,0 4.62,2.015 4.62,4.5 0,2.485 -2.068,4.5 -4.62,4.5 -2.552,0 -4.621,-2.015 -4.621,-4.5 0,-2.485 2.069,-4.5 4.621,-4.5 z"
         id="path450" />
      <path
         style="fill:#ffffff;stroke:#d20000;stroke-width:6"
         inkscape:connector-curvature="0"
         d="m 103.717,397.225 -62.7587,0"
         id="path452" />
      <path
         style="fill:#ffffff;stroke:#d20000;stroke-width:6"
         inkscape:connector-curvature="0"
         d="m 175.717,469.225 -62.759,0"
         id="path454" />
      <path
         style="fill:#ffffff;stroke:#d20000;stroke-width:6"
         inkscape:connector-curvature="0"
         d="m 103.717,541.225 -62.7587,0"
         id="path456" />
      <path
         style="fill:#ffffff;stroke:#d20000;stroke-width:6"
         inkscape:connector-curvature="0"
         d="m 175.717,613.225 -62.759,0"
         id="path458" />
      <path
         style="fill:#ffffff;stroke:#d20000;stroke-width:6"
         inkscape:connector-curvature="0"
         d="m 247.717,541.225 -62.759,0"
         id="path460" />
      <path
         style="fill:#ffffff;stroke:#d20000;stroke-width:6"
         inkscape:connector-curvature="0"
         d="m 319.717,469.225 -62.759,0"
         id="path462" />
      <path
         style="fill:#ffffff;stroke:#d20000;stroke-width:6"
         inkscape:connector-curvature="0"
         d="m 247.717,397.225 -62.759,0"
         id="path464" />
      <path
         style="fill:#ffffff;stroke:#d20000;stroke-width:6"
         inkscape:connector-curvature="0"
         d="m 319.717,613.225 -62.759,0"
         id="path466" />
      <path
         style="fill:#ffffff;stroke:#ffc013;stroke-width:6"
         inkscape:connector-curvature="0"
         d="m 468.338,401.846 0,62.758"
         id="path468" />
      <path
         style="fill:#ffffff;stroke:#ffc013;stroke-width:6"
         inkscape:connector-curvature="0"
         d="m 612.338,401.846 0,62.758"
         id="path470" />
      <path
         style="fill:#ffffff;stroke:#ffc013;stroke-width:6"
         inkscape:connector-curvature="0"
         d="m 540.338,473.846 0,62.758"
         id="path472" />
      <path
         style="fill:#ffffff;stroke:#ffc013;stroke-width:6"
         inkscape:connector-curvature="0"
         d="m 468.338,545.846 0,62.758"
         id="path474" />
      <path
         style="fill:#ffffff;stroke:#ffc013;stroke-width:6"
         inkscape:connector-curvature="0"
         d="m 396.338,473.846 0,62.758"
         id="path476" />
      <path
         style="fill:#ffffff;stroke:#ffc013;stroke-width:6"
         inkscape:connector-curvature="0"
         d="m 612.338,545.846 0,62.758"
         id="path478" />
      <path
         style="fill:#ffffff;stroke:#ffc013;stroke-width:6"
         inkscape:connector-curvature="0"
         d="m 684.338,473.846 0,62.758"
         id="path480" />
      <path
         style="fill:#ffffff;stroke:#009c0f;stroke-width:6"
         inkscape:connector-curvature="0"
         d="m 535.717,685.225 -62.759,0"
         id="path482" />
      <path
         style="fill:#ffffff;stroke:#009c0f;stroke-width:6"
         inkscape:connector-curvature="0"
         d="m 679.717,685.225 -62.759,0"
         id="path484" />
      <path
         style="fill:#ffffff;stroke:#009c0f;stroke-width:6"
         inkscape:connector-curvature="0"
         d="m 463.717,757.225 -62.759,0"
         id="path486" />
      <path
         style="fill:#ffffff;stroke:#009c0f;stroke-width:6"
         inkscape:connector-curvature="0"
         d="m 607.717,757.225 -62.759,0"
         id="path488" />
      <path
         style="fill:#ffffff;stroke:#009c0f;stroke-width:6"
         inkscape:connector-curvature="0"
         d="m 535.717,829.225 -62.759,0"
         id="path490" />
      <path
         style="fill:#ffffff;stroke:#009c0f;stroke-width:6"
         inkscape:connector-curvature="0"
         d="m 679.717,829.225 -62.759,0"
         id="path492" />
      <path
         style="fill:#ffffff;stroke:#009c0f;stroke-width:6"
         inkscape:connector-curvature="0"
         d="m 463.717,901.225 -62.759,0"
         id="path494" />
      <path
         style="fill:#ffffff;stroke:#009c0f;stroke-width:6"
         inkscape:connector-curvature="0"
         d="m 607.717,901.225 -62.759,0"
         id="path496" />
      <path
         style="fill:#ffffff;stroke:#9c870d;stroke-width:6"
         inkscape:connector-curvature="0"
         d="m 36.3376,689.846 0,62.758"
         id="path498" />
      <path
         style="fill:#ffffff;stroke:#9c870d;stroke-width:6"
         inkscape:connector-curvature="0"
         d="m 36.3376,833.846 0,62.758"
         id="path500" />
      <path
         style="fill:#ffffff;stroke:#9c870d;stroke-width:6"
         inkscape:connector-curvature="0"
         d="m 108.338,761.846 0,62.758"
         id="path502" />
      <path
         style="fill:#ffffff;stroke:#9c870d;stroke-width:6"
         inkscape:connector-curvature="0"
         d="m 180.338,689.846 0,62.758"
         id="path504" />
      <path
         style="fill:#ffffff;stroke:#9c870d;stroke-width:6"
         inkscape:connector-curvature="0"
         d="m 180.338,833.846 0,62.758"
         id="path506" />
      <path
         style="fill:#ffffff;stroke:#9c870d;stroke-width:6"
         inkscape:connector-curvature="0"
         d="m 252.338,761.846 0,62.758"
         id="path508" />
      <path
         style="fill:#ffffff;stroke:#9c870d;stroke-width:6"
         inkscape:connector-curvature="0"
         d="m 324.338,689.846 0,62.758"
         id="path510" />
      <path
         style="fill:#ffffff;stroke:#9c870d;stroke-width:6"
         inkscape:connector-curvature="0"
         d="m 324.338,833.846 0,62.758"
         id="path512" />
      <g
         clip-path="url(#7fc8750c98b0)"
         id="g514">
        <clipPath
           id="clipPath3806">
          <path
             style="fill:#000000;fill-opacity:0.35"
             inkscape:connector-curvature="0"
             d="m 338.01,518.913 44,0 0,-28 -44,0 z"
             id="path3808" />
        </clipPath>
        <path
           style="fill:#000000"
           inkscape:connector-curvature="0"
           d="m 370.815,501.339 c 2.023,1.704 4.42,2.929 6.018,3.675 -1.705,0.745 -4.048,1.97 -6.018,3.674 l -30.249,0 c -0.852,0 -1.758,0 -1.758,0.905 0,0.959 0.906,0.959 1.705,0.959 l 28.171,0 c -2.289,2.237 -4.792,6.391 -4.792,7.03 0,0.532 0.639,0.532 0.905,0.532 0.426,0 0.745,0 0.905,-0.372 1.012,-1.811 2.343,-4.367 5.432,-7.137 3.302,-2.875 6.497,-4.207 9,-4.899 0.799,-0.266 0.852,-0.32 0.959,-0.426 0.106,-0.053 0.106,-0.213 0.106,-0.266 0,-0.107 0,-0.213 -0.053,-0.32 l -0.16,-0.106 c -0.106,0 -0.159,-0.054 -1.065,-0.373 -6.444,-1.917 -11.183,-6.231 -13.846,-11.344 -0.533,-0.958 -0.586,-1.011 -1.225,-1.011 -0.319,0 -0.958,0 -0.958,0.532 0,0.639 2.449,4.793 4.792,7.03 l -28.171,0 c -0.799,0 -1.651,0 -1.651,0.958 0,0.959 0.905,0.959 1.704,0.959 l 30.249,0"
           id="path519" />
      </g>
      <g
         clip-path="url(#7fc87423a790)"
         id="g521">
        <clipPath
           id="clipPath3812">
          <path
             style="fill:#000000;fill-opacity:0.35"
             inkscape:connector-curvature="0"
             d="m 381.998,806.913 -44,0 0,-28 44,0 z"
             id="path3814" />
        </clipPath>
        <path
           style="fill:#000000"
           inkscape:connector-curvature="0"
           d="m 349.193,789.339 c -2.023,1.704 -4.42,2.929 -6.018,3.675 1.705,0.745 4.048,1.97 6.018,3.674 l 30.249,0 c 0.852,0 1.757,0 1.757,0.905 0,0.959 -0.905,0.959 -1.704,0.959 l -28.172,0 c 2.29,2.237 4.793,6.391 4.793,7.03 0,0.532 -0.639,0.532 -0.905,0.532 -0.426,0 -0.746,0 -0.905,-0.372 -1.012,-1.811 -2.343,-4.367 -5.432,-7.137 -3.302,-2.875 -6.497,-4.207 -9,-4.899 -0.799,-0.266 -0.852,-0.32 -0.959,-0.426 -0.107,-0.053 -0.107,-0.213 -0.107,-0.266 0,-0.107 0,-0.213 0.054,-0.32 l 0.16,-0.106 c 0.106,0 0.159,-0.054 1.065,-0.373 6.444,-1.917 11.183,-6.231 13.846,-11.344 0.532,-0.958 0.586,-1.011 1.225,-1.011 0.319,0 0.958,0 0.958,0.532 0,0.639 -2.449,4.793 -4.793,7.03 l 28.172,0 c 0.799,0 1.651,0 1.651,0.958 0,0.959 -0.905,0.959 -1.704,0.959 l -30.249,0"
           id="path526" />
      </g>
      <g
         clip-path="url(#7fc87507bca0)"
         id="g528">
        <clipPath
           id="clipPath3818">
          <path
             style="fill:#000000;fill-opacity:0.35"
             inkscape:connector-curvature="0"
             d="m 193.93,670.981 0,-44 -28,0 0,44 z"
             id="path3820" />
        </clipPath>
        <path
           style="fill:#000000"
           inkscape:connector-curvature="0"
           d="m 176.356,638.176 c 1.704,-2.024 2.929,-4.42 3.675,-6.018 0.745,1.704 1.97,4.048 3.674,6.018 l 0,30.249 c 0,0.852 0,1.757 0.906,1.757 0.958,0 0.958,-0.905 0.958,-1.704 l 0,-28.172 c 2.237,2.29 6.391,4.793 7.03,4.793 0.532,0 0.532,-0.639 0.532,-0.905 0,-0.426 0,-0.746 -0.372,-0.905 -1.811,-1.012 -4.367,-2.343 -7.137,-5.432 -2.875,-3.302 -4.207,-6.497 -4.899,-9 -0.266,-0.799 -0.32,-0.852 -0.426,-0.959 -0.053,-0.107 -0.213,-0.107 -0.266,-0.107 -0.107,0 -0.213,0 -0.32,0.054 l -0.106,0.16 c 0,0.106 -0.054,0.159 -0.373,1.065 -1.917,6.443 -6.231,11.183 -11.344,13.846 -0.958,0.532 -1.011,0.586 -1.011,1.225 0,0.319 0,0.958 0.532,0.958 0.639,0 4.793,-2.449 7.03,-4.793 l 0,28.172 c 0,0.799 0,1.651 0.958,1.651 0.959,0 0.959,-0.905 0.959,-1.704 l 0,-30.249"
           id="path533" />
      </g>
      <g
         clip-path="url(#7fc8750c4050)"
         id="g535">
        <clipPath
           id="clipPath3824">
          <path
             style="fill:#000000;fill-opacity:0.35"
             inkscape:connector-curvature="0"
             d="m 553.93,626.993 0,44 -28,0 0,-44 z"
             id="path3826" />
        </clipPath>
        <path
           style="fill:#000000"
           inkscape:connector-curvature="0"
           d="m 536.356,659.798 c 1.704,2.023 2.929,4.42 3.675,6.018 0.745,-1.705 1.97,-4.048 3.674,-6.018 l 0,-30.249 c 0,-0.852 0,-1.758 0.906,-1.758 0.958,0 0.958,0.906 0.958,1.705 l 0,28.171 c 2.237,-2.29 6.391,-4.792 7.03,-4.792 0.532,0 0.532,0.639 0.532,0.905 0,0.426 0,0.745 -0.372,0.905 -1.811,1.012 -4.367,2.343 -7.137,5.432 -2.875,3.302 -4.207,6.497 -4.899,9 -0.266,0.799 -0.32,0.852 -0.426,0.959 -0.053,0.106 -0.213,0.106 -0.266,0.106 -0.107,0 -0.213,0 -0.32,-0.053 l -0.106,-0.16 c 0,-0.106 -0.054,-0.159 -0.373,-1.065 -1.917,-6.444 -6.231,-11.183 -11.344,-13.846 -0.958,-0.533 -1.011,-0.586 -1.011,-1.225 0,-0.319 0,-0.958 0.532,-0.958 0.639,0 4.793,2.449 7.03,4.792 l 0,-28.171 c 0,-0.799 0,-1.651 0.958,-1.651 0.959,0 0.959,0.905 0.959,1.704 l 0,30.249"
           id="path540" />
      </g>
    </g>
  </g>
</svg>
