<?xml version="1.0" encoding="UTF-8" standalone="no"?>
<!-- Created with Inkscape (http://www.inkscape.org/) -->

<svg
   xmlns:dc="http://purl.org/dc/elements/1.1/"
   xmlns:cc="http://creativecommons.org/ns#"
   xmlns:rdf="http://www.w3.org/1999/02/22-rdf-syntax-ns#"
   xmlns:svg="http://www.w3.org/2000/svg"
   xmlns="http://www.w3.org/2000/svg"
   xmlns:sodipodi="http://sodipodi.sourceforge.net/DTD/sodipodi-0.dtd"
   xmlns:inkscape="http://www.inkscape.org/namespaces/inkscape"
   width="779.09625"
   height="55.21875"
   id="svg4176"
   version="1.1"
   inkscape:version="0.48.4 r9939"
   sodipodi:docname="New document 5">
  <defs
     id="defs4178">
    <clipPath
       id="7fc8747f3f30">
      <path
         style="fill:#000000;fill-opacity:0.35"
         inkscape:connector-curvature="0"
         d="m 307.543,1022.12 19.193,0 0,-20 -19.193,0 z"
         id="path482" />
    </clipPath>
    <clipPath
       id="7fc8750c5c50">
      <path
         style="fill:#000000;fill-opacity:0.35"
         inkscape:connector-curvature="0"
         d="m 307.543,1021.32 19.2,0 0,-19.2 -19.2,0 z"
         id="path487" />
    </clipPath>
    <clipPath
       id="7fc874799830">
      <path
         style="fill:#000000;fill-opacity:0.35"
         inkscape:connector-curvature="0"
         d="m 590.809,1016.91 19.193,0 0,-8.01 -19.193,0 z"
         id="path494" />
    </clipPath>
    <clipPath
       id="7fc8750bc5f0">
      <path
         style="fill:#000000;fill-opacity:0.35"
         inkscape:connector-curvature="0"
         d="m 590.809,1016.91 19.2,0 0,-8 -19.2,0 z"
         id="path499" />
    </clipPath>
  </defs>
  <sodipodi:namedview
     id="base"
     pagecolor="#ffffff"
     bordercolor="#666666"
     borderopacity="1.0"
     inkscape:pageopacity="0.0"
     inkscape:pageshadow="2"
     inkscape:zoom="0.86377106"
     inkscape:cx="802.74691"
     inkscape:cy="127.83154"
     inkscape:document-units="px"
     inkscape:current-layer="layer1"
     showgrid="false"
     fit-margin-top="0"
     fit-margin-left="0"
     fit-margin-right="0"
     fit-margin-bottom="0"
     inkscape:window-width="1855"
     inkscape:window-height="1056"
     inkscape:window-x="65"
     inkscape:window-y="24"
     inkscape:window-maximized="1" />
  <metadata
     id="metadata4181">
    <rdf:RDF>
      <cc:Work
         rdf:about="">
        <dc:format>image/svg+xml</dc:format>
        <dc:type
           rdf:resource="http://purl.org/dc/dcmitype/StillImage" />
        <dc:title></dc:title>
      </cc:Work>
    </rdf:RDF>
  </metadata>
  <g
     inkscape:label="Layer 1"
     inkscape:groupmode="layer"
     id="layer1"
     transform="translate(430.69967,-598.79387)">
    <g
       transform="translate(-516.32217,-388.14363)"
       id="g439">
      <path
         style="fill:#c9c9c9;fill-opacity:0.42000002"
         inkscape:connector-curvature="0"
         d="m 157.507,988.533 155.52,0 -71.884,51.837 -155.5205,0"
         id="path441" />
      <g
         id="g443">
        <path
           style="fill:none;stroke:#ff0004;stroke-width:3"
           inkscape:connector-curvature="0"
           d="m 144.361,994.427 168.666,0"
           id="path445" />
        <path
           style="fill:none;stroke:#ff0004;stroke-width:3"
           inkscape:connector-curvature="0"
           d="m 156.361,1000.43 -12,-6.003 12,-6"
           id="path447" />
      </g>
      <g
         id="g449">
        <path
           style="fill:none;stroke:#ff0004;stroke-width:3"
           inkscape:connector-curvature="0"
           d="m 254.289,1032.92 -168.6665,0"
           id="path451" />
        <path
           style="fill:none;stroke:#ff0004;stroke-width:3"
           inkscape:connector-curvature="0"
           d="m 242.289,1026.92 12,6 -12,6"
           id="path453" />
      </g>
      <path
         style="fill:none;stroke:#000000;stroke-width:2"
         inkscape:connector-curvature="0"
         d="m 85.6225,1040.37 155.5205,0"
         id="path455" />
      <path
         style="fill:none;stroke:#000000;stroke-width:2"
         inkscape:connector-curvature="0"
         d="m 153.961,988.856 155.52,0"
         id="path457" />
      <g
         id="g459">
        <path
           style="fill:#c9c9c9;fill-opacity:0.42000002"
           inkscape:connector-curvature="0"
           d="m 404.263,988.39 155.52,0 -71.884,51.84 -155.52,0"
           id="path461" />
        <g
           id="g463">
          <path
             style="fill:none;stroke:#007efd;stroke-width:3"
             inkscape:connector-curvature="0"
             d="m 559.783,994.284 -168.666,0"
             id="path465" />
          <path
             style="fill:none;stroke:#007efd;stroke-width:3"
             inkscape:connector-curvature="0"
             d="m 547.783,988.284 12,6 -12,5.996"
             id="path467" />
        </g>
        <g
           id="g469">
          <path
             style="fill:none;stroke:#007efd;stroke-width:3"
             inkscape:connector-curvature="0"
             d="m 332.379,1032.78 168.666,0"
             id="path471" />
          <path
             style="fill:none;stroke:#007efd;stroke-width:3"
             inkscape:connector-curvature="0"
             d="m 344.379,1038.78 -12,-6 12,-6"
             id="path473" />
        </g>
        <path
           style="fill:none;stroke:#000000;stroke-width:2"
           inkscape:connector-curvature="0"
           d="m 332.379,1040.23 155.52,0"
           id="path475" />
        <path
           style="fill:none;stroke:#000000;stroke-width:2"
           inkscape:connector-curvature="0"
           d="m 400.717,988.713 155.52,0"
           id="path477" />
      </g>
      <g
         clip-path="url(#7fc8747f3f30)"
         id="g479">
        <clipPath
           id="clipPath4139">
          <path
             style="fill:#000000;fill-opacity:0.35"
             inkscape:connector-curvature="0"
             d="m 307.543,1022.12 19.193,0 0,-20 -19.193,0 z"
             id="path4141" />
        </clipPath>
        <g
           clip-path="url(#7fc8750c5c50)"
           id="g484">
          <clipPath
             id="clipPath4144">
            <path
               style="fill:#000000;fill-opacity:0.35"
               inkscape:connector-curvature="0"
               d="m 307.543,1021.32 19.2,0 0,-19.2 -19.2,0 z"
               id="path4146" />
          </clipPath>
          <path
             style="fill:#000000"
             inkscape:connector-curvature="0"
             d="m 317.704,1012.32 8.01,0 c 0.405,0 0.937,0 0.937,-0.57 0,-0.58 -0.532,-0.58 -0.937,-0.58 l -8.01,0 0,-8.05 c 0,-0.41 0,-0.96 -0.575,-0.96 -0.575,0 -0.575,0.55 -0.575,0.96 l 0,8.05 -8.052,0 c -0.405,0 -0.959,0 -0.959,0.58 0,0.57 0.554,0.57 0.959,0.57 l 8.052,0 0,8.03 c 0,0.41 0,0.96 0.575,0.96 0.575,0 0.575,-0.55 0.575,-0.96 l 0,-8.03"
             id="path489" />
        </g>
      </g>
      <g
         clip-path="url(#7fc874799830)"
         id="g491">
        <clipPath
           id="clipPath4150">
          <path
             style="fill:#000000;fill-opacity:0.35"
             inkscape:connector-curvature="0"
             d="m 590.809,1016.91 19.193,0 0,-8.01 -19.193,0 z"
             id="path4152" />
        </clipPath>
        <g
           clip-path="url(#7fc8750bc5f0)"
           id="g496">
          <clipPath
             id="clipPath4155">
            <path
               style="fill:#000000;fill-opacity:0.35"
               inkscape:connector-curvature="0"
               d="m 590.809,1016.91 19.2,0 0,-8 -19.2,0 z"
               id="path4157" />
          </clipPath>
          <path
             style="fill:#000000"
             inkscape:connector-curvature="0"
             d="m 608.937,1010.56 c 0.447,0 0.98,0 0.98,-0.58 0,-0.57 -0.533,-0.57 -0.937,-0.57 l -17.212,0 c -0.405,0 -0.959,0 -0.959,0.57 0,0.58 0.554,0.58 0.98,0.58 l 17.169,0 z m 0.043,5.56 c 0.404,0 0.937,0 0.937,-0.58 0,-0.57 -0.533,-0.57 -0.98,-0.57 l -17.148,0 c -0.426,0 -0.98,0 -0.98,0.57 0,0.58 0.554,0.58 0.959,0.58 l 17.212,0"
             id="path501" />
        </g>
      </g>
      <g
         id="g503">
        <path
           style="fill:#c9c9c9;fill-opacity:0.42000002"
           inkscape:connector-curvature="0"
           d="m 705.831,989.31 155.52,0 -71.885,51.84 -155.52,0"
           id="path505" />
        <g
           id="g507">
          <path
             style="fill:none;stroke:#007efd;stroke-width:3"
             inkscape:connector-curvature="0"
             d="m 861.351,995.205 -168.667,0"
             id="path509" />
          <path
             style="fill:none;stroke:#007efd;stroke-width:3"
             inkscape:connector-curvature="0"
             d="m 849.351,989.205 12,6 -12,5.995"
             id="path511" />
        </g>
        <g
           id="g513">
          <path
             style="fill:none;stroke:#007efd;stroke-width:3"
             inkscape:connector-curvature="0"
             d="m 633.946,1033.7 168.666,0"
             id="path515" />
          <path
             style="fill:none;stroke:#007efd;stroke-width:3"
             inkscape:connector-curvature="0"
             d="m 645.946,1039.7 -12,-6 12,-6"
             id="path517" />
        </g>
        <path
           style="fill:none;stroke:#000000;stroke-width:2"
           inkscape:connector-curvature="0"
           d="m 633.946,1041.15 155.52,0"
           id="path519" />
        <path
           style="fill:none;stroke:#000000;stroke-width:2"
           inkscape:connector-curvature="0"
           d="m 702.284,989.634 155.52,0"
           id="path521" />
        <g
           id="g523">
          <path
             style="fill:none;stroke:#ff0004;stroke-width:3"
             inkscape:connector-curvature="0"
             d="m 681.161,1000.02 168.666,0"
             id="path525" />
          <path
             style="fill:none;stroke:#ff0004;stroke-width:3"
             inkscape:connector-curvature="0"
             d="m 693.161,1006.02 -12,-6 12,-6.004"
             id="path527" />
        </g>
        <g
           id="g529">
          <path
             style="fill:none;stroke:#ff0004;stroke-width:3"
             inkscape:connector-curvature="0"
             d="m 818.089,1028.01 -168.666,0"
             id="path531" />
          <path
             style="fill:none;stroke:#ff0004;stroke-width:3"
             inkscape:connector-curvature="0"
             d="m 806.089,1022.01 12,6 -12,6"
             id="path533" />
        </g>
      </g>
    </g>
  </g>
</svg>
