<?xml version="1.0" encoding="UTF-8" standalone="no"?>
<!-- Created with Inkscape (http://www.inkscape.org/) -->

<svg
   xmlns:dc="http://purl.org/dc/elements/1.1/"
   xmlns:cc="http://creativecommons.org/ns#"
   xmlns:rdf="http://www.w3.org/1999/02/22-rdf-syntax-ns#"
   xmlns:svg="http://www.w3.org/2000/svg"
   xmlns="http://www.w3.org/2000/svg"
   xmlns:sodipodi="http://sodipodi.sourceforge.net/DTD/sodipodi-0.dtd"
   xmlns:inkscape="http://www.inkscape.org/namespaces/inkscape"
   width="776.68634"
   height="423.86511"
   id="svg4172"
   version="1.1"
   inkscape:version="0.48.4 r9939"
   sodipodi:docname="New document 5">
  <defs
     id="defs4174" />
  <sodipodi:namedview
     id="base"
     pagecolor="#ffffff"
     bordercolor="#666666"
     borderopacity="1.0"
     inkscape:pageopacity="0.0"
     inkscape:pageshadow="2"
     inkscape:zoom="0.86377106"
     inkscape:cx="388.34316"
     inkscape:cy="211.18544"
     inkscape:document-units="px"
     inkscape:current-layer="layer1"
     showgrid="false"
     fit-margin-top="0"
     fit-margin-left="0"
     fit-margin-right="0"
     fit-margin-bottom="0"
     inkscape:window-width="1855"
     inkscape:window-height="1056"
     inkscape:window-x="65"
     inkscape:window-y="24"
     inkscape:window-maximized="1" />
  <metadata
     id="metadata4177">
    <rdf:RDF>
      <cc:Work
         rdf:about="">
        <dc:format>image/svg+xml</dc:format>
        <dc:type
           rdf:resource="http://purl.org/dc/dcmitype/StillImage" />
        <dc:title></dc:title>
      </cc:Work>
    </rdf:RDF>
  </metadata>
  <g
     inkscape:label="Layer 1"
     inkscape:groupmode="layer"
     id="layer1"
     transform="translate(16.295915,-313.5014)">
    <g
       transform="translate(-176.74304,-141.97722)"
       id="g378">
      <path
         style="fill:none;stroke:#ff0004;stroke-width:3"
         inkscape:connector-curvature="0"
         d="m 689.619,879.338 0,-108"
         id="path380" />
      <g
         id="g382">
        <path
           style="fill:none;stroke:#ff0004;stroke-width:3"
           inkscape:connector-curvature="0"
           d="m 689.619,591.338 0,-108"
           id="path384" />
        <path
           style="fill:none;stroke:#ff0004;stroke-width:3"
           inkscape:connector-curvature="0"
           d="m 683.619,495.338 6,-12 6,12"
           id="path386" />
      </g>
      <g
         id="g388">
        <text
           style="font-size:24px;font-family:American Typewriter"
           font-size="24"
           transform="translate(767.235,473.713)"
           xml:space="preserve"
           id="text390"><tspan
             id="tspan392">uniform</tspan><tspan
             x="0"
             y="28"
             id="tspan394">magnetic field</tspan></text>
        <path
           style="fill:none;stroke:#000000"
           inkscape:connector-curvature="0"
           d="m 813.434,514.637 -59.431,24.072"
           id="path396" />
      </g>
      <path
         style="fill:none;stroke:#000000;stroke-width:1.5"
         inkscape:connector-curvature="0"
         d="m 833.619,555.417 0,178.566"
         id="path398" />
      <path
         style="fill:#c9c9c9;fill-opacity:0.43999999;stroke:#000000;stroke-width:2;stroke-dasharray:2"
         inkscape:connector-curvature="0"
         d="m 295.786,843.263 428.856,0 109.977,-106.175 -428.855,0 z"
         id="path400" />
      <path
         style="fill:none;stroke:#000000;stroke-width:2"
         inkscape:connector-curvature="0"
         d="m 293.786,664.269 432.833,0 0,178.994 -432.833,0 z"
         id="path402" />
      <path
         style="fill:none;stroke:#000000;stroke-width:2"
         inkscape:connector-curvature="0"
         d="m 727.619,842.263 106,-106.175"
         id="path404" />
      <g
         id="g406">
        <g
           id="g408">
          <path
             style="fill:#ffffff;fill-opacity:0.01000001;stroke:#000000;stroke-width:2;stroke-dasharray:2"
             inkscape:connector-curvature="0"
             d="m 588.358,632.662 c 0,2.43 -10.375,4.4 -23.174,4.4 -12.798,0 -23.173,-1.97 -23.173,-4.4 0,-2.43 10.375,-4.4 23.173,-4.4 12.799,0 23.174,1.97 23.174,4.4 z"
             id="path410" />
          <path
             style="fill:none;stroke:#000000;stroke-width:2;stroke-dasharray:2"
             inkscape:connector-curvature="0"
             d="m 542.011,633.018 23.173,-28.445"
             id="path412" />
          <path
             style="fill:none;stroke:#000000;stroke-width:2;stroke-dasharray:2"
             inkscape:connector-curvature="0"
             d="m 565.184,604.573 23.174,28.445"
             id="path414" />
        </g>
        <path
           style="fill:none;stroke:#000000;stroke-width:2"
           inkscape:connector-curvature="0"
           d="m 542.048,574.151 23.173,28.444 23.174,-28.444"
           id="path416" />
        <path
           style="fill:none;stroke:#000000;stroke-width:2"
           inkscape:connector-curvature="0"
           d="m 588.395,574.151 c 0,2.43 -10.376,4.4 -23.174,4.4 -12.798,0 -23.173,-1.97 -23.173,-4.4 0,-2.43 10.375,-4.4 23.173,-4.4 12.798,0 23.174,1.97 23.174,4.4 z"
           id="path418" />
      </g>
      <g
         id="g420">
        <g
           id="g422">
          <path
             style="fill:#ffffff;fill-opacity:0.01000001;stroke:#000000;stroke-width:2;stroke-dasharray:2"
             inkscape:connector-curvature="0"
             d="m 588.358,822.662 c 0,2.43 -10.375,4.4 -23.174,4.4 -12.798,0 -23.173,-1.97 -23.173,-4.4 0,-2.43 10.375,-4.4 23.173,-4.4 12.799,0 23.174,1.97 23.174,4.4 z"
             id="path424" />
          <path
             style="fill:none;stroke:#000000;stroke-width:2;stroke-dasharray:2"
             inkscape:connector-curvature="0"
             d="m 542.011,823.018 23.173,-28.445"
             id="path426" />
          <path
             style="fill:none;stroke:#000000;stroke-width:2;stroke-dasharray:2"
             inkscape:connector-curvature="0"
             d="m 565.184,794.573 23.174,28.445"
             id="path428" />
        </g>
        <path
           style="fill:none;stroke:#000000;stroke-width:2"
           inkscape:connector-curvature="0"
           d="m 542.048,764.151 23.173,28.444 23.174,-28.444"
           id="path430" />
        <path
           style="fill:none;stroke:#000000;stroke-width:2"
           inkscape:connector-curvature="0"
           d="m 588.395,764.151 c 0,2.43 -10.376,4.4 -23.174,4.4 -12.798,0 -23.173,-1.97 -23.173,-4.4 0,-2.43 10.375,-4.4 23.173,-4.4 12.798,0 23.174,1.97 23.174,4.4 z"
           id="path432" />
      </g>
      <path
         style="fill:none;stroke:#ff0004;stroke-dasharray:2"
         inkscape:connector-curvature="0"
         d="m 689.619,771.338 0,-180"
         id="path434" />
      <text
         style="font-size:24px;font-family:American Typewriter"
         font-size="24"
         transform="translate(158.619,624.426)"
         xml:space="preserve"
         id="text436"><tspan
           id="tspan438">3D TI slab</tspan></text>
      <path
         style="fill:none;stroke:#000000"
         inkscape:connector-curvature="0"
         d="m 240.619,637.062 42,44.276"
         id="path440" />
      <g
         id="g442">
        <path
           style="fill:#c9c9c9;fill-opacity:0.43999999;stroke:#000000;stroke-width:2"
           inkscape:connector-curvature="0"
           d="m 295.804,663.8 428.856,0 109.978,-108.804 -428.856,0 z"
           id="path444" />
        <path
           style="fill:none;stroke:#000000;stroke-width:2;stroke-dasharray:2"
           inkscape:connector-curvature="0"
           d="m 402.536,555.417 0,181.671"
           id="path446" />
      </g>
      <g
         id="g448">
        <path
           style="fill:none;stroke:#ff0004;stroke-width:3"
           inkscape:connector-curvature="0"
           d="m 437.619,879.338 0,-72"
           id="path450" />
        <g
           id="g452">
          <path
             style="fill:none;stroke:#ff0004;stroke-width:3"
             inkscape:connector-curvature="0"
             d="m 437.619,627.338 0,-108"
             id="path454" />
          <path
             style="fill:none;stroke:#ff0004;stroke-width:3"
             inkscape:connector-curvature="0"
             d="m 431.619,531.338 6,-12 6,12"
             id="path456" />
        </g>
        <path
           style="fill:none;stroke:#ff0004;stroke-dasharray:2"
           inkscape:connector-curvature="0"
           d="m 437.619,807.338 0,-180"
           id="path458" />
      </g>
    </g>
  </g>
</svg>
