<?xml version="1.0" encoding="UTF-8" standalone="no"?>
<!-- Created with Inkscape (http://www.inkscape.org/) -->

<svg
   xmlns:dc="http://purl.org/dc/elements/1.1/"
   xmlns:cc="http://creativecommons.org/ns#"
   xmlns:rdf="http://www.w3.org/1999/02/22-rdf-syntax-ns#"
   xmlns:svg="http://www.w3.org/2000/svg"
   xmlns="http://www.w3.org/2000/svg"
   xmlns:sodipodi="http://sodipodi.sourceforge.net/DTD/sodipodi-0.dtd"
   xmlns:inkscape="http://www.inkscape.org/namespaces/inkscape"
   width="426.992"
   height="113.41434"
   id="svg4096"
   version="1.1"
   inkscape:version="0.48.4 r9939"
   sodipodi:docname="New document 2">
  <sodipodi:namedview
     id="base"
     pagecolor="#ffffff"
     bordercolor="#666666"
     borderopacity="1.0"
     inkscape:pageopacity="0.0"
     inkscape:pageshadow="2"
     inkscape:zoom="2.2712169"
     inkscape:cx="219.90083"
     inkscape:cy="-19.309503"
     inkscape:document-units="px"
     inkscape:current-layer="layer1"
     showgrid="false"
     inkscape:window-width="1855"
     inkscape:window-height="1056"
     inkscape:window-x="65"
     inkscape:window-y="24"
     inkscape:window-maximized="1"
     fit-margin-top="0"
     fit-margin-left="0"
     fit-margin-right="0"
     fit-margin-bottom="0" />
  <defs
     id="defs4098" />
  <metadata
     id="metadata4101">
    <rdf:RDF>
      <cc:Work
         rdf:about="">
        <dc:format>image/svg+xml</dc:format>
        <dc:type
           rdf:resource="http://purl.org/dc/dcmitype/StillImage" />
        <dc:title></dc:title>
      </cc:Work>
    </rdf:RDF>
  </metadata>
  <g
     inkscape:label="Layer 1"
     inkscape:groupmode="layer"
     id="layer1"
     transform="translate(-69.361143,-565.2285)">
    <g
       id="g6"
       transform="translate(132.64414,578.66575)" />
    <g
       id="g9"
       transform="translate(196.64414,578.66575)" />
    <g
       id="g12"
       transform="translate(241.14414,578.66575)" />
    <g
       id="g15"
       transform="translate(297.64414,578.66575)" />
    <g
       id="g18"
       transform="translate(349.64414,578.66575)" />
    <g
       id="g21"
       transform="translate(411.14414,578.66575)" />
    <g
       id="g5109">
      <g
         transform="translate(-2.3188571,188.18475)"
         id="g38">
        <g
           id="g40">
          <g
             id="g42">
            <path
               style="fill:#ffffff;fill-rule:evenodd;stroke:#000000;stroke-width:2;stroke-linejoin:round"
               inkscape:connector-curvature="0"
               d="m 77.68,458.738 c -2.7614,0 -5,-2.239 -5,-5 l 0,-37.248 c 0,-2.762 2.2386,-5 5,-5 l 87.248,0 c 2.761,0 5,2.238 5,5 l 0,37.248 c 0,2.761 -2.239,5 -5,5 z"
               id="path44" />
            <path
               style="fill:none;stroke:#000000;stroke-width:2"
               inkscape:connector-curvature="0"
               d="m 121.304,455.613 0,-41 z"
               id="path46" />
          </g>
          <g
             id="g48">
            <path
               style="stroke:#000000;stroke-width:2"
               inkscape:connector-curvature="0"
               d="m 97.2679,430.113 c 2.7611,0 5.0001,2.239 5.0001,5 0,2.762 -2.239,5 -5.0001,5 -2.7614,0 -5,-2.238 -5,-5 0,-2.761 2.2386,-5 5,-5 z"
               id="path50" />
            <path
               style="stroke:#000000;stroke-width:2"
               inkscape:connector-curvature="0"
               d="m 145.268,430.113 c 2.761,0 5,2.239 5,5 0,2.762 -2.239,5 -5,5 -2.762,0 -5,-2.238 -5,-5 0,-2.761 2.238,-5 5,-5 z"
               id="path52" />
          </g>
        </g>
        <g
           id="g54">
          <g
             id="g56">
            <path
               style="fill:#ffffff;fill-rule:evenodd;stroke:#000000;stroke-width:2;stroke-linejoin:round"
               inkscape:connector-curvature="0"
               d="m 186.928,458.986 c -2.761,0 -5,-2.239 -5,-5 l 0,-37.248 c 0,-2.762 2.239,-5 5,-5 l 87.248,0 c 2.761,0 5,2.238 5,5 l 0,37.248 c 0,2.761 -2.239,5 -5,5 z"
               id="path58" />
            <path
               style="fill:none;stroke:#000000;stroke-width:2"
               inkscape:connector-curvature="0"
               d="m 230.552,455.861 0,-41 z"
               id="path60" />
          </g>
          <g
             id="g62">
            <path
               style="stroke:#000000;stroke-width:2"
               inkscape:connector-curvature="0"
               d="m 206.516,430.361 c 2.761,0 5,2.239 5,5 0,2.762 -2.239,5 -5,5 -2.762,0 -5,-2.238 -5,-5 0,-2.761 2.238,-5 5,-5 z"
               id="path64" />
            <path
               style="stroke:#000000;stroke-width:2"
               inkscape:connector-curvature="0"
               d="m 254.516,430.361 c 2.761,0 5,2.239 5,5 0,2.762 -2.239,5 -5,5 -2.762,0 -5,-2.238 -5,-5 0,-2.761 2.238,-5 5,-5 z"
               id="path66" />
          </g>
        </g>
        <g
           id="g68">
          <g
             id="g70">
            <path
               style="fill:#ffffff;fill-rule:evenodd;stroke:#000000;stroke-width:2;stroke-linejoin:round"
               inkscape:connector-curvature="0"
               d="m 296.176,459.234 c -2.761,0 -5,-2.239 -5,-5 l 0,-37.248 c 0,-2.762 2.239,-5 5,-5 l 87.248,0 c 2.761,0 5,2.238 5,5 l 0,37.248 c 0,2.761 -2.239,5 -5,5 z"
               id="path72" />
            <path
               style="fill:none;stroke:#000000;stroke-width:2"
               inkscape:connector-curvature="0"
               d="m 339.8,456.109 0,-41 z"
               id="path74" />
          </g>
          <g
             id="g76">
            <path
               style="stroke:#000000;stroke-width:2"
               inkscape:connector-curvature="0"
               d="m 315.764,430.609 c 2.761,0 5,2.239 5,5 0,2.762 -2.239,5 -5,5 -2.762,0 -5,-2.238 -5,-5 0,-2.761 2.238,-5 5,-5 z"
               id="path78" />
            <path
               style="stroke:#000000;stroke-width:2"
               inkscape:connector-curvature="0"
               d="m 363.764,430.609 c 2.761,0 5,2.239 5,5 0,2.762 -2.239,5 -5,5 -2.762,0 -5,-2.238 -5,-5 0,-2.761 2.238,-5 5,-5 z"
               id="path80" />
          </g>
        </g>
        <g
           id="g82">
          <g
             id="g84">
            <path
               style="fill:#ffffff;fill-rule:evenodd;stroke:#000000;stroke-width:2;stroke-linejoin:round"
               inkscape:connector-curvature="0"
               d="m 405.424,459.482 c -2.761,0 -5,-2.239 -5,-5 l 0,-37.248 c 0,-2.762 2.239,-5 5,-5 l 87.248,0 c 2.761,0 5,2.238 5,5 l 0,37.248 c 0,2.761 -2.239,5 -5,5 z"
               id="path86" />
            <path
               style="fill:none;stroke:#000000;stroke-width:2"
               inkscape:connector-curvature="0"
               d="m 449.048,456.357 0,-41 z"
               id="path88" />
          </g>
          <g
             id="g90">
            <path
               style="stroke:#000000;stroke-width:2"
               inkscape:connector-curvature="0"
               d="m 425.012,430.857 c 2.761,0 5,2.239 5,5 0,2.762 -2.239,5 -5,5 -2.762,0 -5,-2.238 -5,-5 0,-2.761 2.238,-5 5,-5 z"
               id="path92" />
            <path
               style="stroke:#000000;stroke-width:2"
               inkscape:connector-curvature="0"
               d="m 473.012,430.857 c 2.761,0 5,2.239 5,5 0,2.762 -2.239,5 -5,5 -2.762,0 -5,-2.238 -5,-5 0,-2.761 2.238,-5 5,-5 z"
               id="path94" />
          </g>
        </g>
      </g>
      <g
         id="g4330">
        <g
           transform="matrix(0.71099238,0,0,0.69558711,-135.78074,332.84162)"
           id="g3032">
          <g
             style="font-style:normal;font-variant:normal;font-weight:normal;font-stretch:normal;letter-spacing:normal;word-spacing:normal;text-anchor:start;fill:none;stroke:#000000;stroke-linecap:butt;stroke-linejoin:miter;stroke-miterlimit:10.43299961;stroke-opacity:1;stroke-dasharray:none;stroke-dashoffset:0"
             word-spacing="normal"
             letter-spacing="normal"
             font-size-adjust="none"
             font-stretch="normal"
             font-weight="normal"
             font-variant="normal"
             font-style="normal"
             stroke-miterlimit="10.433"
             xml:space="preserve"
             transform="matrix(1.0629921,0,0,-1.0629921,-186.02362,789.27165)"
             id="g3034"><path
               style="fill:#000000;stroke-width:0"
               inkscape:connector-curvature="0"
               id="path3036"
               d="m 457.57,418.86 0.09,0.26 0.1,0.26 0.1,0.24 0.11,0.25 0.11,0.23 0.12,0.22 0.12,0.22 0.12,0.21 0.13,0.2 0.13,0.2 0.13,0.19 0.14,0.18 0.28,0.34 0.29,0.32 0.3,0.29 0.31,0.27 0.31,0.24 0.32,0.22 0.32,0.21 0.32,0.18 0.31,0.16 0.32,0.15 0.31,0.13 0.3,0.11 0.3,0.1 0.29,0.08 0.28,0.07 0.27,0.06 0.25,0.05 0.24,0.04 0.22,0.03 0.21,0.02 0.19,0.02 0.16,0.01 0.14,0.01 0.12,0.01 0.09,0 0.07,0 c 7.51,0 8.06,-8.72 8.06,-12.66 0,-3.05 -0.25,-3.89 -0.59,-4.89 -1.1,-3.63 -2.6,-9.41 -2.6,-10.7 0,-0.55 0.25,-0.91 0.66,-0.91 0.64,0 1.05,1.11 1.59,3 1.14,4.19 1.64,7.02 1.85,8.56 0.09,0.66 0.18,1.3 0.39,1.96 1.59,4.92 4.78,12.34 6.78,16.28 0.34,0.59 0.94,1.7 0.94,1.89 0,0.5 -0.49,0.5 -0.6,0.5 -0.14,0 -0.45,0 -0.59,-0.35 -2.59,-4.73 -4.58,-9.71 -6.58,-14.75 -0.05,1.55 -0.09,5.33 -2.05,10.18 -1.18,3.03 -3.18,5.46 -6.62,5.46 -6.22,0 -9.72,-7.56 -9.72,-9.1 0,-0.5 0.45,-0.5 0.95,-0.5 z" /><path
               style="fill:#000000;stroke-width:0"
               inkscape:connector-curvature="0"
               id="path3038"
               d="m 492.99,420.92 0,0.04 0,0.04 0,0.05 0,0.04 0,0.03 0,0.04 0,0.04 0,0.03 0,0.04 -0.01,0.03 0,0.03 0,0.03 0,0.03 -0.01,0.03 0,0.03 0,0.02 -0.01,0.03 0,0.02 -0.01,0.03 0,0.02 -0.01,0.04 -0.02,0.04 -0.02,0.03 -0.02,0.03 -0.02,0.03 -0.02,0.03 -0.03,0.02 -0.03,0.02 -0.03,0.02 -0.04,0.01 -0.04,0.01 -0.05,0.02 -0.02,0 -0.02,0 -0.03,0.01 -0.03,0 -0.02,0.01 -0.03,0 -0.03,0 -0.03,0 -0.03,0 -0.04,0.01 -0.03,0 -0.04,0 -0.03,0 -0.04,0 -0.04,0 -0.04,0 -0.04,0 -0.05,0 -0.04,0 -0.04,0 c -2.24,-2.2 -5.4,-2.23 -6.83,-2.23 v -1.25 c 0.84,0 3.14,0 5.04,0.97 v -17.77 c 0,-1.16 0,-1.61 -3.48,-1.61 h -1.31 v -1.25 c 0.62,0.03 4.9,0.14 6.2,0.14 1.08,0 5.47,-0.11 6.23,-0.14 v 1.25 h -1.32 c -3.49,0 -3.49,0.45 -3.49,1.61 z" /></g>        </g>
        <g
           transform="matrix(0.71099238,0,0,0.69558711,-84.011257,332.84162)"
           id="g3064">
          <g
             style="font-style:normal;font-variant:normal;font-weight:normal;font-stretch:normal;letter-spacing:normal;word-spacing:normal;text-anchor:start;fill:none;stroke:#000000;stroke-linecap:butt;stroke-linejoin:miter;stroke-miterlimit:10.43299961;stroke-opacity:1;stroke-dasharray:none;stroke-dashoffset:0"
             id="g3066"
             transform="matrix(1.0629921,0,0,-1.0629921,-186.02362,789.27165)"
             xml:space="preserve"
             stroke-miterlimit="10.433"
             font-style="normal"
             font-variant="normal"
             font-weight="normal"
             font-stretch="normal"
             font-size-adjust="none"
             letter-spacing="normal"
             word-spacing="normal"><path
               style="fill:#000000;stroke-width:0"
               inkscape:connector-curvature="0"
               d="m 457.57,418.86 0.09,0.26 0.1,0.26 0.1,0.24 0.11,0.25 0.11,0.23 0.12,0.22 0.12,0.22 0.12,0.21 0.13,0.2 0.13,0.2 0.13,0.19 0.14,0.18 0.28,0.34 0.29,0.32 0.3,0.29 0.31,0.27 0.31,0.24 0.32,0.22 0.32,0.21 0.32,0.18 0.31,0.16 0.32,0.15 0.31,0.13 0.3,0.11 0.3,0.1 0.29,0.08 0.28,0.07 0.27,0.06 0.25,0.05 0.24,0.04 0.22,0.03 0.21,0.02 0.19,0.02 0.16,0.01 0.14,0.01 0.12,0.01 0.09,0 0.07,0 c 7.51,0 8.06,-8.72 8.06,-12.66 0,-3.05 -0.25,-3.89 -0.59,-4.89 -1.1,-3.63 -2.6,-9.41 -2.6,-10.7 0,-0.55 0.25,-0.91 0.66,-0.91 0.64,0 1.05,1.11 1.59,3 1.14,4.19 1.64,7.02 1.85,8.56 0.09,0.66 0.18,1.3 0.39,1.96 1.59,4.92 4.78,12.34 6.78,16.28 0.34,0.59 0.94,1.7 0.94,1.89 0,0.5 -0.49,0.5 -0.6,0.5 -0.14,0 -0.45,0 -0.59,-0.35 -2.59,-4.73 -4.58,-9.71 -6.58,-14.75 -0.05,1.55 -0.09,5.33 -2.05,10.18 -1.18,3.03 -3.18,5.46 -6.62,5.46 -6.22,0 -9.72,-7.56 -9.72,-9.1 0,-0.5 0.45,-0.5 0.95,-0.5 z"
               id="path3068" /><path
               style="fill:#000000;stroke-width:0"
               inkscape:connector-curvature="0"
               d="m 498.91,405.11 h -1.18 c -0.1,-0.77 -0.46,-2.83 -0.91,-3.18 -0.27,-0.2 -2.95,-0.2 -3.44,-0.2 h -6.42 c 3.66,3.23 4.88,4.2 6.97,5.84 2.58,2.07 4.98,4.22 4.98,7.54 0,4.21 -3.68,6.79 -8.15,6.79 -4.31,0 -7.25,-3.03 -7.25,-6.23 0,-1.78 1.5,-1.96 1.86,-1.96 0.83,0 1.84,0.6 1.84,1.85 0,0.62 -0.25,1.84 -2.06,1.84 1.08,2.47 3.45,3.24 5.09,3.24 3.49,0 5.3,-2.71 5.3,-5.53 0,-3.04 -2.16,-5.44 -3.28,-6.69 l -8.39,-8.3 c -0.36,-0.31 -0.36,-0.39 -0.36,-1.36 h 14.36 z"
               id="path3070" /></g>        </g>
        <g
           transform="matrix(0.71099238,0,0,0.69558711,-27.085735,332.84133)"
           id="g3104">
          <g
             style="font-style:normal;font-variant:normal;font-weight:normal;font-stretch:normal;letter-spacing:normal;word-spacing:normal;text-anchor:start;fill:none;stroke:#000000;stroke-linecap:butt;stroke-linejoin:miter;stroke-miterlimit:10.43299961;stroke-opacity:1;stroke-dasharray:none;stroke-dashoffset:0"
             word-spacing="normal"
             letter-spacing="normal"
             font-size-adjust="none"
             font-stretch="normal"
             font-weight="normal"
             font-variant="normal"
             font-style="normal"
             stroke-miterlimit="10.433"
             xml:space="preserve"
             transform="matrix(1.0629921,0,0,-1.0629921,-186.02362,789.27165)"
             id="g3106"><path
               style="fill:#000000;stroke-width:0"
               inkscape:connector-curvature="0"
               id="path3108"
               d="m 457.57,418.86 0.09,0.26 0.1,0.26 0.1,0.24 0.11,0.25 0.11,0.23 0.12,0.22 0.12,0.22 0.12,0.21 0.13,0.2 0.13,0.2 0.13,0.19 0.14,0.18 0.28,0.34 0.29,0.32 0.3,0.29 0.31,0.27 0.31,0.24 0.32,0.22 0.32,0.21 0.32,0.18 0.31,0.16 0.32,0.15 0.31,0.13 0.3,0.11 0.3,0.1 0.29,0.08 0.28,0.07 0.27,0.06 0.25,0.05 0.24,0.04 0.22,0.03 0.21,0.02 0.19,0.02 0.16,0.01 0.14,0.01 0.12,0.01 0.09,0 0.07,0 c 7.51,0 8.06,-8.72 8.06,-12.66 0,-3.05 -0.25,-3.89 -0.59,-4.89 -1.1,-3.63 -2.6,-9.41 -2.6,-10.7 0,-0.55 0.25,-0.91 0.66,-0.91 0.64,0 1.05,1.11 1.59,3 1.14,4.19 1.64,7.02 1.85,8.56 0.09,0.66 0.18,1.3 0.39,1.96 1.59,4.92 4.78,12.34 6.78,16.28 0.34,0.59 0.94,1.7 0.94,1.89 0,0.5 -0.49,0.5 -0.6,0.5 -0.14,0 -0.45,0 -0.59,-0.35 -2.59,-4.73 -4.58,-9.71 -6.58,-14.75 -0.05,1.55 -0.09,5.33 -2.05,10.18 -1.18,3.03 -3.18,5.46 -6.62,5.46 -6.22,0 -9.72,-7.56 -9.72,-9.1 0,-0.5 0.45,-0.5 0.95,-0.5 z" /><path
               style="fill:#000000;stroke-width:0"
               inkscape:connector-curvature="0"
               id="path3110"
               d="m 490.84,410.4 0.25,0 0.25,-0.02 0.24,-0.03 0.24,-0.04 0.23,-0.05 0.23,-0.06 0.22,-0.07 0.21,-0.08 0.21,-0.1 0.2,-0.1 0.2,-0.12 0.19,-0.12 0.18,-0.14 0.18,-0.15 0.16,-0.16 0.16,-0.17 0.15,-0.18 0.15,-0.19 0.13,-0.2 0.13,-0.22 0.11,-0.22 0.11,-0.24 0.1,-0.24 0.09,-0.26 0.08,-0.27 0.07,-0.28 0.06,-0.29 0.05,-0.3 0.04,-0.31 0.03,-0.32 0.01,-0.33 0.01,-0.35 c 0,-4.33 -2.52,-5.61 -4.53,-5.61 -1.39,0 -4.47,0.38 -5.93,2.44 1.63,0.06 2.02,1.22 2.02,1.95 0,1.11 -0.84,1.91 -1.92,1.91 -0.97,0 -1.95,-0.59 -1.95,-2.02 0,-3.28 3.62,-5.4 7.84,-5.4 4.84,0 8.19,3.25 8.19,6.73 0,2.72 -2.22,5.44 -6.07,6.24 3.66,1.33 4.99,3.93 4.99,6.06 0,2.75 -3.17,4.81 -7.03,4.81 -3.88,0 -6.83,-1.89 -6.83,-4.67 0,-1.19 0.76,-1.84 1.81,-1.84 1.08,0 1.77,0.79 1.77,1.76 0,1.02 -0.69,1.75 -1.77,1.81 1.22,1.55 3.61,1.93 4.91,1.93 1.56,0 3.76,-0.77 3.76,-3.8 0,-1.47 -0.48,-3.06 -1.39,-4.14 -1.15,-1.33 -2.12,-1.41 -3.87,-1.5 -0.88,-0.08 -0.94,-0.08 -1.11,-0.11 -0.08,0 -0.36,-0.06 -0.36,-0.45 0,-0.49 0.31,-0.49 0.91,-0.49 z" /></g>        </g>
        <g
           transform="matrix(0.71099238,0,0,0.69558711,24.151801,332.84133)"
           id="g3152">
          <g
             style="font-style:normal;font-variant:normal;font-weight:normal;font-stretch:normal;letter-spacing:normal;word-spacing:normal;text-anchor:start;fill:none;stroke:#000000;stroke-linecap:butt;stroke-linejoin:miter;stroke-miterlimit:10.43299961;stroke-opacity:1;stroke-dasharray:none;stroke-dashoffset:0"
             id="g3154"
             transform="matrix(1.0629921,0,0,-1.0629921,-186.02362,789.27165)"
             xml:space="preserve"
             stroke-miterlimit="10.433"
             font-style="normal"
             font-variant="normal"
             font-weight="normal"
             font-stretch="normal"
             font-size-adjust="none"
             letter-spacing="normal"
             word-spacing="normal"><path
               style="fill:#000000;stroke-width:0"
               inkscape:connector-curvature="0"
               d="m 457.57,418.86 0.09,0.26 0.1,0.26 0.1,0.24 0.11,0.25 0.11,0.23 0.12,0.22 0.12,0.22 0.12,0.21 0.13,0.2 0.13,0.2 0.13,0.19 0.14,0.18 0.28,0.34 0.29,0.32 0.3,0.29 0.31,0.27 0.31,0.24 0.32,0.22 0.32,0.21 0.32,0.18 0.31,0.16 0.32,0.15 0.31,0.13 0.3,0.11 0.3,0.1 0.29,0.08 0.28,0.07 0.27,0.06 0.25,0.05 0.24,0.04 0.22,0.03 0.21,0.02 0.19,0.02 0.16,0.01 0.14,0.01 0.12,0.01 0.09,0 0.07,0 c 7.51,0 8.06,-8.72 8.06,-12.66 0,-3.05 -0.25,-3.89 -0.59,-4.89 -1.1,-3.63 -2.6,-9.41 -2.6,-10.7 0,-0.55 0.25,-0.91 0.66,-0.91 0.64,0 1.05,1.11 1.59,3 1.14,4.19 1.64,7.02 1.85,8.56 0.09,0.66 0.18,1.3 0.39,1.96 1.59,4.92 4.78,12.34 6.78,16.28 0.34,0.59 0.94,1.7 0.94,1.89 0,0.5 -0.49,0.5 -0.6,0.5 -0.14,0 -0.45,0 -0.59,-0.35 -2.59,-4.73 -4.58,-9.71 -6.58,-14.75 -0.05,1.55 -0.09,5.33 -2.05,10.18 -1.18,3.03 -3.18,5.46 -6.62,5.46 -6.22,0 -9.72,-7.56 -9.72,-9.1 0,-0.5 0.45,-0.5 0.95,-0.5 z"
               id="path3156" /><path
               style="fill:#000000;stroke-width:0"
               inkscape:connector-curvature="0"
               d="m 499.76,404.48 v 1.25 h -3.88 v 15.55 c 0,0.72 0,0.97 -0.76,0.97 -0.42,0 -0.57,0 -0.91,-0.49 l -11.53,-16.03 v -1.25 h 10.25 l 0.23,1.25 h -9.2 l 9.2,12.75 v -12.75 l -0.23,-1.25 v -2.86 c 0,-1.19 0,-1.61 -2.83,-1.61 h -0.94 v -1.25 c 1.74,0.06 3.97,0.14 5.22,0.14 1.3,0 3.52,-0.08 5.27,-0.14 v 1.25 h -0.94 c -2.83,0 -2.83,0.42 -2.83,1.61 v 2.86 z"
               id="path3158" /></g>        </g>
        <g
           transform="matrix(0.71099238,0,0,0.69558711,82.48521,332.84133)"
           id="g3208">
          <g
             style="font-style:normal;font-variant:normal;font-weight:normal;font-stretch:normal;letter-spacing:normal;word-spacing:normal;text-anchor:start;fill:none;stroke:#000000;stroke-linecap:butt;stroke-linejoin:miter;stroke-miterlimit:10.43299961;stroke-opacity:1;stroke-dasharray:none;stroke-dashoffset:0"
             word-spacing="normal"
             letter-spacing="normal"
             font-size-adjust="none"
             font-stretch="normal"
             font-weight="normal"
             font-variant="normal"
             font-style="normal"
             stroke-miterlimit="10.433"
             xml:space="preserve"
             transform="matrix(1.0629921,0,0,-1.0629921,-186.02362,789.27165)"
             id="g3210"><path
               style="fill:#000000;stroke-width:0"
               inkscape:connector-curvature="0"
               id="path3212"
               d="m 457.57,418.86 0.09,0.26 0.1,0.26 0.1,0.24 0.11,0.25 0.11,0.23 0.12,0.22 0.12,0.22 0.12,0.21 0.13,0.2 0.13,0.2 0.13,0.19 0.14,0.18 0.28,0.34 0.29,0.32 0.3,0.29 0.31,0.27 0.31,0.24 0.32,0.22 0.32,0.21 0.32,0.18 0.31,0.16 0.32,0.15 0.31,0.13 0.3,0.11 0.3,0.1 0.29,0.08 0.28,0.07 0.27,0.06 0.25,0.05 0.24,0.04 0.22,0.03 0.21,0.02 0.19,0.02 0.16,0.01 0.14,0.01 0.12,0.01 0.09,0 0.07,0 c 7.51,0 8.06,-8.72 8.06,-12.66 0,-3.05 -0.25,-3.89 -0.59,-4.89 -1.1,-3.63 -2.6,-9.41 -2.6,-10.7 0,-0.55 0.25,-0.91 0.66,-0.91 0.64,0 1.05,1.11 1.59,3 1.14,4.19 1.64,7.02 1.85,8.56 0.09,0.66 0.18,1.3 0.39,1.96 1.59,4.92 4.78,12.34 6.78,16.28 0.34,0.59 0.94,1.7 0.94,1.89 0,0.5 -0.49,0.5 -0.6,0.5 -0.14,0 -0.45,0 -0.59,-0.35 -2.59,-4.73 -4.58,-9.71 -6.58,-14.75 -0.05,1.55 -0.09,5.33 -2.05,10.18 -1.18,3.03 -3.18,5.46 -6.62,5.46 -6.22,0 -9.72,-7.56 -9.72,-9.1 0,-0.5 0.45,-0.5 0.95,-0.5 z" /><path
               style="fill:#000000;stroke-width:0"
               inkscape:connector-curvature="0"
               id="path3214"
               d="m 486.73,418.2 0.16,-0.04 0.16,-0.04 0.15,-0.04 0.16,-0.03 0.14,-0.03 0.15,-0.03 0.13,-0.03 0.14,-0.02 0.13,-0.03 0.13,-0.02 0.12,-0.02 0.12,-0.01 0.12,-0.02 0.11,-0.01 0.11,-0.02 0.11,-0.01 0.1,-0.01 0.1,-0.01 0.09,0 0.09,-0.01 0.09,-0.01 0.09,0 0.08,0 0.08,-0.01 0.07,0 0.07,0 0.07,0 0.07,0 0.06,0 0.06,0 0.06,0 0.05,0 c 4.6,0 7.31,3.14 7.31,3.67 0,0.37 -0.23,0.48 -0.4,0.48 -0.08,0 -0.14,0 -0.28,-0.11 -0.85,-0.31 -2.69,-1.01 -5.27,-1.01 -0.97,0 -2.83,0.08 -5.09,0.95 -0.35,0.17 -0.41,0.17 -0.46,0.17 -0.45,0 -0.45,-0.39 -0.45,-0.94 v -10.28 c 0,-0.59 0,-1.01 0.56,-1.01 0.32,0 0.35,0.06 0.71,0.48 1.5,1.92 3.62,2.21 4.84,2.21 2.08,0 3.03,-1.68 3.2,-1.96 0.63,-1.15 0.83,-2.47 0.83,-4.5 0,-1.04 0,-3.09 -1.05,-4.62 -0.85,-1.27 -2.35,-2.1 -4.06,-2.1 -2.26,0 -4.61,1.25 -5.48,3.55 1.33,-0.09 1.98,0.77 1.98,1.7 0,1.5 -1.28,1.78 -1.73,1.78 -0.06,0 -1.75,0 -1.75,-1.87 0,-3.14 2.86,-6.28 7.04,-6.28 4.46,0 8.36,3.31 8.36,7.7 0,3.94 -3,7.56 -7.31,7.56 -1.53,0 -3.34,-0.37 -4.87,-1.7 z" /></g>        </g>
        <g
           transform="matrix(0.71099238,0,0,0.69558711,130.30081,332.84133)"
           id="g3272">
          <g
             style="font-style:normal;font-variant:normal;font-weight:normal;font-stretch:normal;letter-spacing:normal;word-spacing:normal;text-anchor:start;fill:none;stroke:#000000;stroke-linecap:butt;stroke-linejoin:miter;stroke-miterlimit:10.43299961;stroke-opacity:1;stroke-dasharray:none;stroke-dashoffset:0"
             id="g3274"
             transform="matrix(1.0629921,0,0,-1.0629921,-186.02362,789.27165)"
             xml:space="preserve"
             stroke-miterlimit="10.433"
             font-style="normal"
             font-variant="normal"
             font-weight="normal"
             font-stretch="normal"
             font-size-adjust="none"
             letter-spacing="normal"
             word-spacing="normal"><path
               style="fill:#000000;stroke-width:0"
               inkscape:connector-curvature="0"
               d="m 457.57,418.86 0.09,0.26 0.1,0.26 0.1,0.24 0.11,0.25 0.11,0.23 0.12,0.22 0.12,0.22 0.12,0.21 0.13,0.2 0.13,0.2 0.13,0.19 0.14,0.18 0.28,0.34 0.29,0.32 0.3,0.29 0.31,0.27 0.31,0.24 0.32,0.22 0.32,0.21 0.32,0.18 0.31,0.16 0.32,0.15 0.31,0.13 0.3,0.11 0.3,0.1 0.29,0.08 0.28,0.07 0.27,0.06 0.25,0.05 0.24,0.04 0.22,0.03 0.21,0.02 0.19,0.02 0.16,0.01 0.14,0.01 0.12,0.01 0.09,0 0.07,0 c 7.51,0 8.06,-8.72 8.06,-12.66 0,-3.05 -0.25,-3.89 -0.59,-4.89 -1.1,-3.63 -2.6,-9.41 -2.6,-10.7 0,-0.55 0.25,-0.91 0.66,-0.91 0.64,0 1.05,1.11 1.59,3 1.14,4.19 1.64,7.02 1.85,8.56 0.09,0.66 0.18,1.3 0.39,1.96 1.59,4.92 4.78,12.34 6.78,16.28 0.34,0.59 0.94,1.7 0.94,1.89 0,0.5 -0.49,0.5 -0.6,0.5 -0.14,0 -0.45,0 -0.59,-0.35 -2.59,-4.73 -4.58,-9.71 -6.58,-14.75 -0.05,1.55 -0.09,5.33 -2.05,10.18 -1.18,3.03 -3.18,5.46 -6.62,5.46 -6.22,0 -9.72,-7.56 -9.72,-9.1 0,-0.5 0.45,-0.5 0.95,-0.5 z"
               id="path3276" /><path
               style="fill:#000000;stroke-width:0"
               inkscape:connector-curvature="0"
               d="m 486.55,410.15 0.01,0.53 0.01,0.53 0.02,0.52 0.02,0.51 0.04,0.51 0.05,0.49 0.06,0.49 0.08,0.48 0.09,0.47 0.11,0.46 0.13,0.46 0.14,0.44 0.08,0.22 0.09,0.21 0.09,0.22 0.1,0.21 0.1,0.21 0.11,0.2 0.12,0.2 0.12,0.2 c 1.18,1.9 3.06,3.18 5.29,3.18 1.05,0 2.44,-0.28 3.14,-1.22 -0.87,-0.06 -1.6,-0.66 -1.6,-1.67 0,-0.88 0.59,-1.64 1.64,-1.64 1.04,0 1.67,0.7 1.67,1.7 0,2.03 -1.47,3.84 -4.92,3.84 -5.02,0 -10.14,-4.61 -10.14,-12.09 0,-9.03 4.25,-11.75 8.09,-11.75 4.25,0 7.94,3.25 7.94,7.81 0,4.42 -3.52,7.7 -7.6,7.7 l -0.17,-0.98 c 1.61,0 2.69,-0.63 3.55,-1.91 0.84,-1.32 0.87,-2.79 0.87,-4.81 0,-1.98 0,-3.45 -0.93,-4.81 -0.85,-1.22 -1.96,-1.88 -3.66,-1.88 h 0 c -1.75,0 -3.11,1 -3.84,2.55 -0.52,1.03 -0.8,2.78 -0.8,4.88 0,3.37 2.03,5.98 4.81,5.98 l 0.17,0.98 c -2.78,0 -4.31,-1.84 -5.08,-3.42 z"
               id="path3278" /></g>        </g>
        <g
           transform="matrix(0.71099238,0,0,0.69558711,188.91427,332.84133)"
           id="g3344">
          <g
             style="font-style:normal;font-variant:normal;font-weight:normal;font-stretch:normal;letter-spacing:normal;word-spacing:normal;text-anchor:start;fill:none;stroke:#000000;stroke-linecap:butt;stroke-linejoin:miter;stroke-miterlimit:10.43299961;stroke-opacity:1;stroke-dasharray:none;stroke-dashoffset:0"
             word-spacing="normal"
             letter-spacing="normal"
             font-size-adjust="none"
             font-stretch="normal"
             font-weight="normal"
             font-variant="normal"
             font-style="normal"
             stroke-miterlimit="10.433"
             xml:space="preserve"
             transform="matrix(1.0629921,0,0,-1.0629921,-186.02362,789.27165)"
             id="g3346"><path
               style="fill:#000000;stroke-width:0"
               inkscape:connector-curvature="0"
               id="path3348"
               d="m 457.57,418.86 0.09,0.26 0.1,0.26 0.1,0.24 0.11,0.25 0.11,0.23 0.12,0.22 0.12,0.22 0.12,0.21 0.13,0.2 0.13,0.2 0.13,0.19 0.14,0.18 0.28,0.34 0.29,0.32 0.3,0.29 0.31,0.27 0.31,0.24 0.32,0.22 0.32,0.21 0.32,0.18 0.31,0.16 0.32,0.15 0.31,0.13 0.3,0.11 0.3,0.1 0.29,0.08 0.28,0.07 0.27,0.06 0.25,0.05 0.24,0.04 0.22,0.03 0.21,0.02 0.19,0.02 0.16,0.01 0.14,0.01 0.12,0.01 0.09,0 0.07,0 c 7.51,0 8.06,-8.72 8.06,-12.66 0,-3.05 -0.25,-3.89 -0.59,-4.89 -1.1,-3.63 -2.6,-9.41 -2.6,-10.7 0,-0.55 0.25,-0.91 0.66,-0.91 0.64,0 1.05,1.11 1.59,3 1.14,4.19 1.64,7.02 1.85,8.56 0.09,0.66 0.18,1.3 0.39,1.96 1.59,4.92 4.78,12.34 6.78,16.28 0.34,0.59 0.94,1.7 0.94,1.89 0,0.5 -0.49,0.5 -0.6,0.5 -0.14,0 -0.45,0 -0.59,-0.35 -2.59,-4.73 -4.58,-9.71 -6.58,-14.75 -0.05,1.55 -0.09,5.33 -2.05,10.18 -1.18,3.03 -3.18,5.46 -6.62,5.46 -6.22,0 -9.72,-7.56 -9.72,-9.1 0,-0.5 0.45,-0.5 0.95,-0.5 z" /><path
               style="fill:#000000;stroke-width:0"
               inkscape:connector-curvature="0"
               id="path3350"
               d="m 499.96,419.81 0.03,0.04 0.03,0.03 0.03,0.04 0.02,0.03 0.03,0.03 0.02,0.04 0.02,0.03 0.02,0.03 0.02,0.03 0.01,0.03 0.02,0.03 0.01,0.02 0.01,0.04 0.01,0.03 0.01,0.03 0.01,0.03 0.01,0.04 0.01,0.03 0,0.04 0.01,0.04 0,0.04 0,0.05 0.01,0.05 0,0.05 0,0.05 0,0.06 0,0.06 0,0.07 0,0.07 0,0.03 0,0.04 0,0.04 0,0.04 0,0.04 0,0.04 h -9.12 c -1.39,0 -1.78,0.03 -3.03,0.14 -1.81,0.14 -1.88,0.39 -1.99,0.98 h -1.18 l -1.22,-7.46 h 1.19 c 0.06,0.53 0.42,2.82 0.96,3.17 0.29,0.22 3.11,0.22 3.63,0.22 h 7.59 c -1.11,-1.47 -2.89,-3.63 -3.61,-4.61 -4.57,-5.99 -4.98,-11.53 -4.98,-13.58 0,-0.39 0,-2 1.62,-2 1.68,0 1.68,1.58 1.68,2.03 v 1.39 c 0,6.77 1.4,9.86 2.9,11.73 z" /></g>        </g>
        <g
           transform="matrix(0.71099238,0,0,0.69558711,239.57379,332.84133)"
           id="g3424">
          <g
             style="font-style:normal;font-variant:normal;font-weight:normal;font-stretch:normal;letter-spacing:normal;word-spacing:normal;text-anchor:start;fill:none;stroke:#000000;stroke-linecap:butt;stroke-linejoin:miter;stroke-miterlimit:10.43299961;stroke-opacity:1;stroke-dasharray:none;stroke-dashoffset:0"
             id="g3426"
             transform="matrix(1.0629921,0,0,-1.0629921,-186.02362,789.27165)"
             xml:space="preserve"
             stroke-miterlimit="10.433"
             font-style="normal"
             font-variant="normal"
             font-weight="normal"
             font-stretch="normal"
             font-size-adjust="none"
             letter-spacing="normal"
             word-spacing="normal"><path
               style="fill:#000000;stroke-width:0"
               inkscape:connector-curvature="0"
               d="m 457.57,418.86 0.09,0.26 0.1,0.26 0.1,0.24 0.11,0.25 0.11,0.23 0.12,0.22 0.12,0.22 0.12,0.21 0.13,0.2 0.13,0.2 0.13,0.19 0.14,0.18 0.28,0.34 0.29,0.32 0.3,0.29 0.31,0.27 0.31,0.24 0.32,0.22 0.32,0.21 0.32,0.18 0.31,0.16 0.32,0.15 0.31,0.13 0.3,0.11 0.3,0.1 0.29,0.08 0.28,0.07 0.27,0.06 0.25,0.05 0.24,0.04 0.22,0.03 0.21,0.02 0.19,0.02 0.16,0.01 0.14,0.01 0.12,0.01 0.09,0 0.07,0 c 7.51,0 8.06,-8.72 8.06,-12.66 0,-3.05 -0.25,-3.89 -0.59,-4.89 -1.1,-3.63 -2.6,-9.41 -2.6,-10.7 0,-0.55 0.25,-0.91 0.66,-0.91 0.64,0 1.05,1.11 1.59,3 1.14,4.19 1.64,7.02 1.85,8.56 0.09,0.66 0.18,1.3 0.39,1.96 1.59,4.92 4.78,12.34 6.78,16.28 0.34,0.59 0.94,1.7 0.94,1.89 0,0.5 -0.49,0.5 -0.6,0.5 -0.14,0 -0.45,0 -0.59,-0.35 -2.59,-4.73 -4.58,-9.71 -6.58,-14.75 -0.05,1.55 -0.09,5.33 -2.05,10.18 -1.18,3.03 -3.18,5.46 -6.62,5.46 -6.22,0 -9.72,-7.56 -9.72,-9.1 0,-0.5 0.45,-0.5 0.95,-0.5 z"
               id="path3428" /><path
               style="fill:#000000;stroke-width:0"
               inkscape:connector-curvature="0"
               d="m 493.7,411.34 0.25,0.13 0.24,0.12 0.24,0.13 0.24,0.13 0.22,0.14 0.23,0.13 0.21,0.14 0.21,0.14 0.2,0.14 0.19,0.15 0.19,0.15 0.18,0.15 0.17,0.15 0.17,0.16 0.15,0.16 0.15,0.16 0.14,0.17 0.14,0.17 0.12,0.17 0.12,0.17 0.1,0.18 0.1,0.18 0.09,0.19 0.08,0.19 0.08,0.19 0.06,0.2 0.05,0.2 0.05,0.21 0.03,0.21 0.03,0.21 0.01,0.22 0.01,0.22 c 0,3.39 -3.52,5.2 -6.89,5.2 l -0.08,-1.01 c 2.72,0 5.12,-1.71 5.12,-4.19 0,-3.09 -3.62,-4.66 -3.68,-4.66 -0.08,0 -0.14,0.03 -0.39,0.17 l -4.22,2.44 c -0.91,0.52 -1.88,1.47 -1.88,2.75 0,2.21 2.55,3.49 5.05,3.49 l 0.08,1.01 c -3.85,0 -6.97,-2.51 -6.97,-5.83 0,-1.62 0.76,-2.81 1.39,-3.51 0.62,-0.74 0.87,-0.88 2.92,-2.1 -1.95,-0.82 -5.4,-2.71 -5.4,-6.37 0,-3.86 4.01,-6.03 7.98,-6.03 l 0.08,1.12 c -3.22,0 -5.97,2.05 -5.97,4.91 0,2.58 1.92,4.56 4.42,5.72 h 0 l 4.78,-2.75 c 0.91,-0.53 2.64,-1.58 2.64,-3.63 0,-2.61 -2.89,-4.25 -5.87,-4.25 l -0.08,-1.12 c 4.42,0 8.05,2.83 8.05,6.59 0,2.3 -1.36,4.25 -3.38,5.44 -0.45,0.28 -1.67,0.97 -2.15,1.25 z"
               id="path3430" /></g>        </g>
      </g>
      <g
         id="g5083">
        <g
           transform="matrix(0.55573725,0,0,0.58662557,-83.28532,468.51205)"
           id="g4437">
          <g
             style="font-style:normal;font-variant:normal;font-weight:normal;font-stretch:normal;letter-spacing:normal;word-spacing:normal;text-anchor:start;fill:none;stroke:#000000;stroke-linecap:butt;stroke-linejoin:miter;stroke-miterlimit:10.43299961;stroke-opacity:1;stroke-dasharray:none;stroke-dashoffset:0"
             id="content"
             transform="matrix(1.0629921,0,0,-1.0629921,-186.02362,789.27165)"
             xml:space="preserve"
             stroke-miterlimit="10.433"
             font-style="normal"
             font-variant="normal"
             font-weight="normal"
             font-stretch="normal"
             font-size-adjust="none"
             letter-spacing="normal"
             word-spacing="normal"><path
               style="fill:#000000;stroke-width:0"
               inkscape:connector-curvature="0"
               d="m 459.91,409.14 -0.02,-0.07 -0.01,-0.08 -0.02,-0.07 -0.01,-0.08 -0.04,-0.16 -0.04,-0.16 -0.03,-0.16 -0.04,-0.16 -0.04,-0.16 -0.04,-0.16 -0.01,-0.08 -0.02,-0.07 -0.02,-0.07 -0.01,-0.07 -0.02,-0.07 -0.01,-0.07 -0.01,-0.06 -0.01,-0.06 -0.01,-0.06 -0.01,-0.05 -0.01,-0.05 -0.01,-0.04 -0.01,-0.04 0,-0.04 0,-0.03 0,-0.02 c 0,-0.89 0.7,-1.35 1.43,-1.35 0.61,0 1.5,0.39 1.85,1.39 0.06,0.11 0.65,2.44 0.95,3.69 l 1.1,4.48 c 0.29,1.1 0.59,2.19 0.84,3.35 0.2,0.84 0.61,2.28 0.66,2.48 0.75,1.55 3.39,6.08 8.1,6.08 2.25,0 2.71,-1.84 2.71,-3.48 0,-3.1 -2.46,-9.47 -3.25,-11.61 -0.44,-1.14 -0.49,-1.75 -0.49,-2.3 0,-2.33 1.74,-4.08 4.08,-4.08 4.69,0 6.53,7.27 6.53,7.67 0,0.5 -0.45,0.5 -0.61,0.5 -0.48,0 -0.48,-0.15 -0.73,-0.9 -1,-3.38 -2.64,-6.17 -5.09,-6.17 -0.85,0 -1.19,0.5 -1.19,1.64 0,1.25 0.45,2.45 0.89,3.54 0.95,2.64 3.05,8.11 3.05,10.96 0,3.34 -2.15,5.32 -5.74,5.32 -4.48,0 -6.92,-3.18 -7.76,-4.32 -0.25,2.79 -2.3,4.32 -4.6,4.32 -2.28,0 -3.23,-1.93 -3.73,-2.82 -0.8,-1.71 -1.5,-4.64 -1.5,-4.85 0,-0.5 0.5,-0.5 0.61,-0.5 0.5,0 0.54,0.07 0.84,1.16 0.84,3.53 1.84,5.92 3.64,5.92 0.99,0 1.55,-0.64 1.55,-2.28 0,-1.05 -0.16,-1.61 -0.8,-4.19 z"
               id="path4440" /><path
               style="fill:#000000;stroke-width:0"
               inkscape:connector-curvature="0"
               d="m 533.55,422.5 0.14,0 0.15,0 0.14,0 0.08,0.01 0.07,0 0.07,0.01 0.07,0.01 0.07,0.01 0.07,0.01 0.07,0.01 0.07,0.02 0.06,0.02 0.06,0.02 0.06,0.02 0.06,0.03 0.06,0.03 0.05,0.04 0.05,0.03 0.05,0.05 0.04,0.04 0.04,0.05 0.02,0.03 0.02,0.03 0.01,0.02 0.02,0.03 0.01,0.03 0.02,0.04 0.01,0.03 0.01,0.04 0.01,0.03 0.01,0.04 0.01,0.04 0,0.04 0.01,0.04 0,0.04 0,0.04 0,0.05 c 0,1 -0.95,1 -1.64,1 h -29.84 c -0.71,0 -1.64,0 -1.64,-1 0,-0.98 0.93,-0.98 1.68,-0.98 z"
               id="path4442" /><path
               style="fill:#000000;stroke-width:0"
               inkscape:connector-curvature="0"
               d="m 533.6,412.82 0.07,0 0.06,0 0.14,0.01 0.14,0 0.07,0 0.07,0.01 0.07,0.01 0.07,0 0.07,0.01 0.06,0.02 0.07,0.01 0.06,0.02 0.07,0.02 0.06,0.02 0.06,0.02 0.06,0.03 0.05,0.03 0.05,0.04 0.05,0.04 0.05,0.04 0.04,0.05 0.02,0.02 0.02,0.03 0.02,0.02 0.02,0.03 0.01,0.03 0.02,0.03 0.01,0.03 0.02,0.03 0.01,0.04 0.01,0.03 0.01,0.04 0.01,0.04 0.01,0.04 0,0.04 0.01,0.04 0,0.04 0,0.05 0,0.04 c 0,1 -0.95,1 -1.69,1 H 503.8 c -0.75,0 -1.68,0 -1.68,-1 0,-1 0.93,-1 1.64,-1 z"
               id="path4444" /><path
               style="fill:#000000;stroke-width:0"
               inkscape:connector-curvature="0"
               d="m 566.52,438.09 0,0.05 0,0.06 0,0.05 0,0.05 0,0.05 0,0.05 -0.01,0.04 0,0.05 0,0.04 0,0.04 0,0.04 0,0.04 0,0.04 -0.01,0.03 0,0.04 0,0.03 -0.01,0.07 -0.01,0.06 -0.01,0.05 -0.01,0.05 -0.02,0.05 -0.02,0.04 -0.02,0.04 -0.03,0.03 -0.03,0.03 -0.03,0.03 -0.03,0.03 -0.04,0.02 -0.05,0.02 -0.02,0.01 -0.02,0.01 -0.03,0 -0.03,0.01 -0.03,0.01 -0.03,0 -0.03,0.01 -0.03,0 -0.03,0.01 -0.04,0 -0.03,0 -0.04,0.01 -0.04,0 -0.04,0 -0.04,0 -0.04,0 -0.05,0 -0.04,0.01 -0.05,0 -0.05,0 -0.05,0 -0.05,0 c -3.1,-3.19 -7.47,-3.19 -9.07,-3.19 v -1.55 c 1,0 3.94,0 6.52,1.3 v -25.81 c 0,-1.8 -0.14,-2.39 -4.63,-2.39 h -1.59 v -1.55 c 1.75,0.16 6.08,0.16 8.06,0.16 2,0 6.33,0 8.08,-0.16 v 1.55 h -1.59 c -4.49,0 -4.64,0.54 -4.64,2.39 z"
               id="path4446" /></g>        </g>
        <g
           id="g4604"
           transform="matrix(0.55573725,0,0,0.58662557,26.95937,468.25373)">
          <g
             word-spacing="normal"
             letter-spacing="normal"
             font-size-adjust="none"
             font-stretch="normal"
             font-weight="normal"
             font-variant="normal"
             font-style="normal"
             stroke-miterlimit="10.433"
             xml:space="preserve"
             transform="matrix(1.0629921,0,0,-1.0629921,-186.02362,789.27165)"
             id="g4606"
             style="font-style:normal;font-variant:normal;font-weight:normal;font-stretch:normal;letter-spacing:normal;word-spacing:normal;text-anchor:start;fill:none;stroke:#000000;stroke-linecap:butt;stroke-linejoin:miter;stroke-miterlimit:10.43299961;stroke-opacity:1;stroke-dasharray:none;stroke-dashoffset:0"><path
               id="path4608"
               d="m 459.91,409.14 -0.02,-0.07 -0.01,-0.08 -0.02,-0.07 -0.01,-0.08 -0.04,-0.16 -0.04,-0.16 -0.03,-0.16 -0.04,-0.16 -0.04,-0.16 -0.04,-0.16 -0.01,-0.08 -0.02,-0.07 -0.02,-0.07 -0.01,-0.07 -0.02,-0.07 -0.01,-0.07 -0.01,-0.06 -0.01,-0.06 -0.01,-0.06 -0.01,-0.05 -0.01,-0.05 -0.01,-0.04 -0.01,-0.04 0,-0.04 0,-0.03 0,-0.02 c 0,-0.89 0.7,-1.35 1.43,-1.35 0.61,0 1.5,0.39 1.85,1.39 0.06,0.11 0.65,2.44 0.95,3.69 l 1.1,4.48 c 0.29,1.1 0.59,2.19 0.84,3.35 0.2,0.84 0.61,2.28 0.66,2.48 0.75,1.55 3.39,6.08 8.1,6.08 2.25,0 2.71,-1.84 2.71,-3.48 0,-3.1 -2.46,-9.47 -3.25,-11.61 -0.44,-1.14 -0.49,-1.75 -0.49,-2.3 0,-2.33 1.74,-4.08 4.08,-4.08 4.69,0 6.53,7.27 6.53,7.67 0,0.5 -0.45,0.5 -0.61,0.5 -0.48,0 -0.48,-0.15 -0.73,-0.9 -1,-3.38 -2.64,-6.17 -5.09,-6.17 -0.85,0 -1.19,0.5 -1.19,1.64 0,1.25 0.45,2.45 0.89,3.54 0.95,2.64 3.05,8.11 3.05,10.96 0,3.34 -2.15,5.32 -5.74,5.32 -4.48,0 -6.92,-3.18 -7.76,-4.32 -0.25,2.79 -2.3,4.32 -4.6,4.32 -2.28,0 -3.23,-1.93 -3.73,-2.82 -0.8,-1.71 -1.5,-4.64 -1.5,-4.85 0,-0.5 0.5,-0.5 0.61,-0.5 0.5,0 0.54,0.07 0.84,1.16 0.84,3.53 1.84,5.92 3.64,5.92 0.99,0 1.55,-0.64 1.55,-2.28 0,-1.05 -0.16,-1.61 -0.8,-4.19 z"
               inkscape:connector-curvature="0"
               style="fill:#000000;stroke-width:0" /><path
               id="path4610"
               d="m 533.55,422.5 0.14,0 0.15,0 0.14,0 0.08,0.01 0.07,0 0.07,0.01 0.07,0.01 0.07,0.01 0.07,0.01 0.07,0.01 0.07,0.02 0.06,0.02 0.06,0.02 0.06,0.02 0.06,0.03 0.06,0.03 0.05,0.04 0.05,0.03 0.05,0.05 0.04,0.04 0.04,0.05 0.02,0.03 0.02,0.03 0.01,0.02 0.02,0.03 0.01,0.03 0.02,0.04 0.01,0.03 0.01,0.04 0.01,0.03 0.01,0.04 0.01,0.04 0,0.04 0.01,0.04 0,0.04 0,0.04 0,0.05 c 0,1 -0.95,1 -1.64,1 h -29.84 c -0.71,0 -1.64,0 -1.64,-1 0,-0.98 0.93,-0.98 1.68,-0.98 z"
               inkscape:connector-curvature="0"
               style="fill:#000000;stroke-width:0" /><path
               id="path4612"
               d="m 533.6,412.82 0.07,0 0.06,0 0.14,0.01 0.14,0 0.07,0 0.07,0.01 0.07,0.01 0.07,0 0.07,0.01 0.06,0.02 0.07,0.01 0.06,0.02 0.07,0.02 0.06,0.02 0.06,0.02 0.06,0.03 0.05,0.03 0.05,0.04 0.05,0.04 0.05,0.04 0.04,0.05 0.02,0.02 0.02,0.03 0.02,0.02 0.02,0.03 0.01,0.03 0.02,0.03 0.01,0.03 0.02,0.03 0.01,0.04 0.01,0.03 0.01,0.04 0.01,0.04 0.01,0.04 0,0.04 0.01,0.04 0,0.04 0,0.05 0,0.04 c 0,1 -0.95,1 -1.69,1 H 503.8 c -0.75,0 -1.68,0 -1.68,-1 0,-1 0.93,-1 1.64,-1 z"
               inkscape:connector-curvature="0"
               style="fill:#000000;stroke-width:0" /><path
               id="path4614"
               d="m 558.2,410.04 5.28,5.13 c 7.77,6.87 10.77,9.56 10.77,14.54 0,5.69 -4.48,9.68 -10.56,9.68 -5.64,0 -9.33,-4.6 -9.33,-9.03 0,-2.79 2.5,-2.79 2.64,-2.79 0.86,0 2.59,0.6 2.59,2.64 0,1.3 -0.89,2.6 -2.64,2.6 -0.39,0 -0.5,0 -0.64,-0.05 1.14,3.24 3.83,5.08 6.72,5.08 4.53,0 6.69,-4.05 6.69,-8.13 0,-3.98 -2.5,-7.92 -5.24,-11.01 l -9.56,-10.66 c -0.56,-0.54 -0.56,-0.64 -0.56,-1.84 h 18.48 l 1.41,8.67 H 573 c -0.25,-1.5 -0.59,-3.69 -1.09,-4.44 -0.36,-0.39 -3.64,-0.39 -4.74,-0.39 z"
               inkscape:connector-curvature="0"
               style="fill:#000000;stroke-width:0" /></g>        </g>
        <g
           id="g4784"
           transform="matrix(0.55573725,0,0,0.58662557,136.95937,468.25373)">
          <g
             id="g4786"
             transform="matrix(1.0629921,0,0,-1.0629921,-186.02362,789.27165)"
             xml:space="preserve"
             stroke-miterlimit="10.433"
             font-style="normal"
             font-variant="normal"
             font-weight="normal"
             font-stretch="normal"
             font-size-adjust="none"
             letter-spacing="normal"
             word-spacing="normal"
             style="font-style:normal;font-variant:normal;font-weight:normal;font-stretch:normal;letter-spacing:normal;word-spacing:normal;text-anchor:start;fill:none;stroke:#000000;stroke-linecap:butt;stroke-linejoin:miter;stroke-miterlimit:10.43299961;stroke-opacity:1;stroke-dasharray:none;stroke-dashoffset:0"><path
               d="m 459.91,409.14 -0.02,-0.07 -0.01,-0.08 -0.02,-0.07 -0.01,-0.08 -0.04,-0.16 -0.04,-0.16 -0.03,-0.16 -0.04,-0.16 -0.04,-0.16 -0.04,-0.16 -0.01,-0.08 -0.02,-0.07 -0.02,-0.07 -0.01,-0.07 -0.02,-0.07 -0.01,-0.07 -0.01,-0.06 -0.01,-0.06 -0.01,-0.06 -0.01,-0.05 -0.01,-0.05 -0.01,-0.04 -0.01,-0.04 0,-0.04 0,-0.03 0,-0.02 c 0,-0.89 0.7,-1.35 1.43,-1.35 0.61,0 1.5,0.39 1.85,1.39 0.06,0.11 0.65,2.44 0.95,3.69 l 1.1,4.48 c 0.29,1.1 0.59,2.19 0.84,3.35 0.2,0.84 0.61,2.28 0.66,2.48 0.75,1.55 3.39,6.08 8.1,6.08 2.25,0 2.71,-1.84 2.71,-3.48 0,-3.1 -2.46,-9.47 -3.25,-11.61 -0.44,-1.14 -0.49,-1.75 -0.49,-2.3 0,-2.33 1.74,-4.08 4.08,-4.08 4.69,0 6.53,7.27 6.53,7.67 0,0.5 -0.45,0.5 -0.61,0.5 -0.48,0 -0.48,-0.15 -0.73,-0.9 -1,-3.38 -2.64,-6.17 -5.09,-6.17 -0.85,0 -1.19,0.5 -1.19,1.64 0,1.25 0.45,2.45 0.89,3.54 0.95,2.64 3.05,8.11 3.05,10.96 0,3.34 -2.15,5.32 -5.74,5.32 -4.48,0 -6.92,-3.18 -7.76,-4.32 -0.25,2.79 -2.3,4.32 -4.6,4.32 -2.28,0 -3.23,-1.93 -3.73,-2.82 -0.8,-1.71 -1.5,-4.64 -1.5,-4.85 0,-0.5 0.5,-0.5 0.61,-0.5 0.5,0 0.54,0.07 0.84,1.16 0.84,3.53 1.84,5.92 3.64,5.92 0.99,0 1.55,-0.64 1.55,-2.28 0,-1.05 -0.16,-1.61 -0.8,-4.19 z"
               id="path4788"
               inkscape:connector-curvature="0"
               style="fill:#000000;stroke-width:0" /><path
               d="m 533.55,422.5 0.14,0 0.15,0 0.14,0 0.08,0.01 0.07,0 0.07,0.01 0.07,0.01 0.07,0.01 0.07,0.01 0.07,0.01 0.07,0.02 0.06,0.02 0.06,0.02 0.06,0.02 0.06,0.03 0.06,0.03 0.05,0.04 0.05,0.03 0.05,0.05 0.04,0.04 0.04,0.05 0.02,0.03 0.02,0.03 0.01,0.02 0.02,0.03 0.01,0.03 0.02,0.04 0.01,0.03 0.01,0.04 0.01,0.03 0.01,0.04 0.01,0.04 0,0.04 0.01,0.04 0,0.04 0,0.04 0,0.05 c 0,1 -0.95,1 -1.64,1 h -29.84 c -0.71,0 -1.64,0 -1.64,-1 0,-0.98 0.93,-0.98 1.68,-0.98 z"
               id="path4790"
               inkscape:connector-curvature="0"
               style="fill:#000000;stroke-width:0" /><path
               d="m 533.6,412.82 0.07,0 0.06,0 0.14,0.01 0.14,0 0.07,0 0.07,0.01 0.07,0.01 0.07,0 0.07,0.01 0.06,0.02 0.07,0.01 0.06,0.02 0.07,0.02 0.06,0.02 0.06,0.02 0.06,0.03 0.05,0.03 0.05,0.04 0.05,0.04 0.05,0.04 0.04,0.05 0.02,0.02 0.02,0.03 0.02,0.02 0.02,0.03 0.01,0.03 0.02,0.03 0.01,0.03 0.02,0.03 0.01,0.04 0.01,0.03 0.01,0.04 0.01,0.04 0.01,0.04 0,0.04 0.01,0.04 0,0.04 0,0.05 0,0.04 c 0,1 -0.95,1 -1.69,1 H 503.8 c -0.75,0 -1.68,0 -1.68,-1 0,-1 0.93,-1 1.64,-1 z"
               id="path4792"
               inkscape:connector-curvature="0"
               style="fill:#000000;stroke-width:0" /><path
               d="m 566.33,423.73 0.38,0.13 0.37,0.15 0.36,0.15 0.36,0.17 0.35,0.18 0.34,0.19 0.33,0.2 0.32,0.22 0.31,0.22 0.3,0.23 0.29,0.24 0.29,0.25 0.27,0.26 0.26,0.27 0.24,0.27 0.24,0.29 0.23,0.29 0.21,0.3 0.2,0.3 0.19,0.32 0.17,0.32 0.16,0.32 0.15,0.33 0.13,0.34 0.12,0.34 0.1,0.34 0.09,0.35 0.07,0.36 0.06,0.36 0.04,0.36 0.03,0.36 0.01,0.37 c 0,4.08 -4.39,6.88 -9.18,6.88 -5.03,0 -8.81,-3 -8.81,-6.78 0,-1.65 1.1,-2.6 2.55,-2.6 1.53,0 2.53,1.1 2.53,2.55 0,2.48 -2.34,2.48 -3.08,2.48 1.53,2.44 4.83,3.1 6.63,3.1 2.03,0 4.78,-1.1 4.78,-5.58 0,-0.61 -0.11,-3.49 -1.41,-5.69 -1.48,-2.39 -3.19,-2.53 -4.42,-2.59 -0.41,-0.05 -1.59,-0.14 -1.95,-0.14 -0.39,-0.05 -0.75,-0.1 -0.75,-0.6 0,-0.54 0.36,-0.54 1.2,-0.54 h 2.19 c 4.09,0 5.94,-3.39 5.94,-8.29 0,-6.76 -3.44,-8.21 -5.64,-8.21 -2.15,0 -5.88,0.84 -7.61,3.78 1.73,-0.24 3.28,0.86 3.28,2.75 0,1.79 -1.35,2.78 -2.8,2.78 -1.19,0 -2.78,-0.69 -2.78,-2.89 0,-4.53 4.62,-7.81 10.06,-7.81 6.08,0 10.61,4.53 10.61,9.6 0,4.1 -3.14,7.97 -8.31,9.02 z"
               id="path4794"
               inkscape:connector-curvature="0"
               style="fill:#000000;stroke-width:0" /></g>        </g>
        <g
           id="g4976"
           transform="matrix(0.55573725,0,0,0.58662557,248.95937,468.25373)">
          <g
             word-spacing="normal"
             letter-spacing="normal"
             font-size-adjust="none"
             font-stretch="normal"
             font-weight="normal"
             font-variant="normal"
             font-style="normal"
             stroke-miterlimit="10.433"
             xml:space="preserve"
             transform="matrix(1.0629921,0,0,-1.0629921,-186.02362,789.27165)"
             id="g4978"
             style="font-style:normal;font-variant:normal;font-weight:normal;font-stretch:normal;letter-spacing:normal;word-spacing:normal;text-anchor:start;fill:none;stroke:#000000;stroke-linecap:butt;stroke-linejoin:miter;stroke-miterlimit:10.43299961;stroke-opacity:1;stroke-dasharray:none;stroke-dashoffset:0"><path
               id="path4980"
               d="m 459.91,409.14 -0.02,-0.07 -0.01,-0.08 -0.02,-0.07 -0.01,-0.08 -0.04,-0.16 -0.04,-0.16 -0.03,-0.16 -0.04,-0.16 -0.04,-0.16 -0.04,-0.16 -0.01,-0.08 -0.02,-0.07 -0.02,-0.07 -0.01,-0.07 -0.02,-0.07 -0.01,-0.07 -0.01,-0.06 -0.01,-0.06 -0.01,-0.06 -0.01,-0.05 -0.01,-0.05 -0.01,-0.04 -0.01,-0.04 0,-0.04 0,-0.03 0,-0.02 c 0,-0.89 0.7,-1.35 1.43,-1.35 0.61,0 1.5,0.39 1.85,1.39 0.06,0.11 0.65,2.44 0.95,3.69 l 1.1,4.48 c 0.29,1.1 0.59,2.19 0.84,3.35 0.2,0.84 0.61,2.28 0.66,2.48 0.75,1.55 3.39,6.08 8.1,6.08 2.25,0 2.71,-1.84 2.71,-3.48 0,-3.1 -2.46,-9.47 -3.25,-11.61 -0.44,-1.14 -0.49,-1.75 -0.49,-2.3 0,-2.33 1.74,-4.08 4.08,-4.08 4.69,0 6.53,7.27 6.53,7.67 0,0.5 -0.45,0.5 -0.61,0.5 -0.48,0 -0.48,-0.15 -0.73,-0.9 -1,-3.38 -2.64,-6.17 -5.09,-6.17 -0.85,0 -1.19,0.5 -1.19,1.64 0,1.25 0.45,2.45 0.89,3.54 0.95,2.64 3.05,8.11 3.05,10.96 0,3.34 -2.15,5.32 -5.74,5.32 -4.48,0 -6.92,-3.18 -7.76,-4.32 -0.25,2.79 -2.3,4.32 -4.6,4.32 -2.28,0 -3.23,-1.93 -3.73,-2.82 -0.8,-1.71 -1.5,-4.64 -1.5,-4.85 0,-0.5 0.5,-0.5 0.61,-0.5 0.5,0 0.54,0.07 0.84,1.16 0.84,3.53 1.84,5.92 3.64,5.92 0.99,0 1.55,-0.64 1.55,-2.28 0,-1.05 -0.16,-1.61 -0.8,-4.19 z"
               inkscape:connector-curvature="0"
               style="fill:#000000;stroke-width:0" /><path
               id="path4982"
               d="m 533.55,422.5 0.14,0 0.15,0 0.14,0 0.08,0.01 0.07,0 0.07,0.01 0.07,0.01 0.07,0.01 0.07,0.01 0.07,0.01 0.07,0.02 0.06,0.02 0.06,0.02 0.06,0.02 0.06,0.03 0.06,0.03 0.05,0.04 0.05,0.03 0.05,0.05 0.04,0.04 0.04,0.05 0.02,0.03 0.02,0.03 0.01,0.02 0.02,0.03 0.01,0.03 0.02,0.04 0.01,0.03 0.01,0.04 0.01,0.03 0.01,0.04 0.01,0.04 0,0.04 0.01,0.04 0,0.04 0,0.04 0,0.05 c 0,1 -0.95,1 -1.64,1 h -29.84 c -0.71,0 -1.64,0 -1.64,-1 0,-0.98 0.93,-0.98 1.68,-0.98 z"
               inkscape:connector-curvature="0"
               style="fill:#000000;stroke-width:0" /><path
               id="path4984"
               d="m 533.6,412.82 0.07,0 0.06,0 0.14,0.01 0.14,0 0.07,0 0.07,0.01 0.07,0.01 0.07,0 0.07,0.01 0.06,0.02 0.07,0.01 0.06,0.02 0.07,0.02 0.06,0.02 0.06,0.02 0.06,0.03 0.05,0.03 0.05,0.04 0.05,0.04 0.05,0.04 0.04,0.05 0.02,0.02 0.02,0.03 0.02,0.02 0.02,0.03 0.01,0.03 0.02,0.03 0.01,0.03 0.02,0.03 0.01,0.04 0.01,0.03 0.01,0.04 0.01,0.04 0.01,0.04 0,0.04 0.01,0.04 0,0.04 0,0.05 0,0.04 c 0,1 -0.95,1 -1.69,1 H 503.8 c -0.75,0 -1.68,0 -1.68,-1 0,-1 0.93,-1 1.64,-1 z"
               inkscape:connector-curvature="0"
               style="fill:#000000;stroke-width:0" /><path
               id="path4986"
               d="m 566.52,414.42 v -4.33 c 0,-1.8 -0.1,-2.34 -3.79,-2.34 h -1.04 v -1.55 c 2.04,0.16 4.64,0.16 6.73,0.16 2.1,0 4.74,0 6.77,-0.16 v 1.55 h -1.05 c -3.69,0 -3.78,0.54 -3.78,2.34 v 4.33 h 4.98 v 1.54 h -4.98 v 22.68 c 0,1 0,1.29 -0.8,1.29 -0.45,0 -0.59,0 -1,-0.61 l -15.29,-23.36 h 1.4 l 12.16,18.58 v -18.58 h -12.16 -1.4 v -1.54 z"
               inkscape:connector-curvature="0"
               style="fill:#000000;stroke-width:0" /></g>        </g>
      </g>
    </g>
  </g>
</svg>
