<?xml version="1.0" encoding="UTF-8" standalone="no"?>
<svg color-interpolation="auto" height="213.73" stroke="#000" stroke-linecap="square" stroke-miterlimit="10" width="790.01" xmlns="http://www.w3.org/2000/svg">
    <g color-interpolation="linearRGB" color-rendering="optimizeQuality" image-rendering="optimizeQuality" stroke-linecap="butt" text-rendering="geometricPrecision" transform="matrix(2.6332 0 0 2.6332 -451.491 -509.7906)">
        <path d="m190.46 196h-4.4v73.33h4.4" fill="none"/>
        <path d="m452.33 196h4.4v73.33h-4.4" fill="none"/>
        <path d="m173.66 222.54l22.82 13.18" fill="none" stroke-width="1.2"/>
        <path d="m209.3 237.94l10.19-5.88" fill="none" stroke-width="1.2"/>
        <path d="m206.8 233.61l10.19-5.88" fill="none" stroke-width="1.2"/>
        <path d="m229.95 230.04l9.83 5.68" fill="none" stroke-width="1.2"/>
        <path d="m252.6 237.94l10.19-5.88" fill="none" stroke-width="1.2"/>
        <path d="m250.1 233.61l10.19-5.88" fill="none" stroke-width="1.2"/>
        <path d="m273.25 230.04l9.83 5.68" fill="none" stroke-width="1.2"/>
        <path d="m295.9 237.94l10.19-5.88" fill="none" stroke-width="1.2"/>
        <path d="m293.4 233.61l10.19-5.88" fill="none" stroke-width="1.2"/>
        <path d="m316.55 230.04l9.83 5.68" fill="none" stroke-width="1.2"/>
        <path d="m339.2 237.94l10.2-5.88" fill="none" stroke-width="1.2"/>
        <path d="m336.7 233.61l10.2-5.88" fill="none" stroke-width="1.2"/>
        <path d="m359.85 230.04l9.83 5.68" fill="none" stroke-width="1.2"/>
        <path d="m382.51 237.94l10.19-5.88" fill="none" stroke-width="1.2"/>
        <path d="m380.01 233.61l10.19-5.88" fill="none" stroke-width="1.2"/>
        <path d="m403.15 230.04l9.84 5.68" fill="none" stroke-width="1.2"/>
        <path d="m425.81 237.94l10.19-5.88" fill="none" stroke-width="1.2"/>
        <path d="m423.31 233.61l10.19-5.88" fill="none" stroke-width="1.2"/>
        <path d="m446.45 230.04l22.83 13.18" fill="none" stroke-width="1.2"/>
        <path d="m223.97 219.32v-10.9" fill="none" stroke-width="1.2"/>
        <path d="m202.32 246.18v10.73" fill="none" stroke-width="1.2"/>
        <path d="m245.62 246.18v10.73" fill="none" stroke-width="1.2"/>
        <path d="m288.92 246.18v10.73" fill="none" stroke-width="1.2"/>
        <path d="m332.22 246.18v10.73" fill="none" stroke-width="1.2"/>
        <path d="m375.52 246.18v10.73" fill="none" stroke-width="1.2"/>
        <path d="m418.82 246.18v10.73" fill="none" stroke-width="1.2"/>
        <path d="m267.27 219.32v-10.9" fill="none" stroke-width="1.2"/>
        <path d="m310.57 219.32v-10.9" fill="none" stroke-width="1.2"/>
        <path d="m353.87 219.32v-10.9" fill="none" stroke-width="1.2"/>
        <path d="m397.17 219.32v-10.9" fill="none" stroke-width="1.2"/>
        <path d="m440.47 219.32v-10.9" fill="none" stroke-width="1.2"/>
        <path d="m205.41 240.5l1.33.33q-.42 1.64-1.51 2.5-1.08.85-2.64.85-1.62 0-2.64-.66-1.01-.66-1.55-1.91-.52-1.25-.52-2.69 0-1.56.59-2.72.6-1.17 1.7-1.77 1.11-.61 2.44-.61 1.5 0 2.53.76 1.02.77 1.43 2.16l-1.31.3q-.35-1.09-1.01-1.59-.66-.5-1.67-.5-1.15 0-1.93.56-.78.55-1.09 1.49-.32.93-.32 1.92 0 1.28.37 2.23.38.95 1.17 1.42.78.48 1.7.48 1.11 0 1.88-.65.78-.64 1.05-1.9z" stroke="none"/>
        <path d="m227.07 228l1.33.33q-.42 1.64-1.51 2.5-1.08.85-2.64.85-1.62 0-2.64-.66-1.01-.66-1.55-1.91-.52-1.25-.52-2.69 0-1.56.59-2.72.6-1.17 1.7-1.77 1.11-.61 2.44-.61 1.5 0 2.53.76 1.02.77 1.43 2.16l-1.31.3q-.35-1.09-1.01-1.59-.66-.5-1.67-.5-1.15 0-1.93.56-.78.55-1.09 1.49-.32.93-.32 1.92 0 1.28.37 2.23.38.95 1.17 1.42.78.48 1.7.48 1.11 0 1.88-.65.78-.64 1.05-1.9z" stroke="none"/>
        <path d="m248.72 240.5l1.33.33q-.42 1.64-1.51 2.5-1.08.85-2.64.85-1.62 0-2.64-.66-1.01-.66-1.55-1.91-.52-1.25-.52-2.69 0-1.56.59-2.72.6-1.17 1.7-1.77 1.11-.61 2.44-.61 1.5 0 2.53.76 1.02.77 1.43 2.16l-1.31.3q-.35-1.09-1.01-1.59-.66-.5-1.67-.5-1.15 0-1.93.56-.78.55-1.09 1.49-.32.93-.32 1.92 0 1.28.37 2.23.38.95 1.17 1.42.78.48 1.7.48 1.11 0 1.88-.65.78-.64 1.05-1.9z" stroke="none"/>
        <path d="m270.37 228l1.33.33q-.42 1.64-1.51 2.5-1.08.85-2.64.85-1.62 0-2.64-.66-1.01-.66-1.55-1.91-.52-1.25-.52-2.69 0-1.56.59-2.72.6-1.17 1.7-1.77 1.11-.61 2.44-.61 1.5 0 2.53.76 1.02.77 1.43 2.16l-1.31.3q-.35-1.09-1.01-1.59-.66-.5-1.67-.5-1.15 0-1.93.56-.78.55-1.09 1.49-.32.93-.32 1.92 0 1.28.37 2.23.38.95 1.17 1.42.78.48 1.7.48 1.11 0 1.88-.65.78-.64 1.05-1.9z" stroke="none"/>
        <path d="m292.02 240.5l1.33.33q-.42 1.64-1.51 2.5-1.08.85-2.64.85-1.62 0-2.64-.66-1.01-.66-1.55-1.91-.52-1.25-.52-2.69 0-1.56.59-2.72.6-1.17 1.7-1.77 1.11-.61 2.44-.61 1.5 0 2.53.76 1.02.77 1.43 2.16l-1.31.3q-.35-1.09-1.01-1.59-.66-.5-1.67-.5-1.15 0-1.93.56-.78.55-1.09 1.49-.32.93-.32 1.92 0 1.28.37 2.23.38.95 1.17 1.42.78.48 1.7.48 1.11 0 1.88-.65.78-.64 1.05-1.9z" stroke="none"/>
        <path d="m313.67 228l1.33.33q-.42 1.64-1.51 2.5-1.08.85-2.64.85-1.62 0-2.64-.66-1.01-.66-1.55-1.91-.52-1.25-.52-2.69 0-1.56.59-2.72.6-1.17 1.7-1.77 1.11-.61 2.44-.61 1.5 0 2.53.76 1.02.77 1.43 2.16l-1.31.3q-.35-1.09-1.01-1.59-.66-.5-1.67-.5-1.15 0-1.93.56-.78.55-1.09 1.49-.32.93-.32 1.92 0 1.28.37 2.23.38.95 1.17 1.42.78.48 1.7.48 1.11 0 1.88-.65.78-.64 1.05-1.9z" stroke="none"/>
        <path d="m335.32 240.5l1.33.33q-.42 1.64-1.51 2.5-1.08.85-2.64.85-1.62 0-2.64-.66-1.01-.66-1.55-1.91-.52-1.25-.52-2.69 0-1.56.59-2.72.6-1.17 1.7-1.77 1.11-.61 2.44-.61 1.5 0 2.53.76 1.02.77 1.43 2.16l-1.31.3q-.35-1.09-1.01-1.59-.66-.5-1.67-.5-1.15 0-1.93.56-.78.55-1.09 1.49-.32.93-.32 1.92 0 1.28.37 2.23.38.95 1.17 1.42.78.48 1.7.48 1.11 0 1.88-.65.78-.64 1.05-1.9z" stroke="none"/>
        <path d="m356.97 228l1.33.33q-.42 1.64-1.51 2.5-1.08.85-2.64.85-1.62 0-2.64-.66-1.01-.66-1.55-1.91-.52-1.25-.52-2.69 0-1.56.59-2.72.6-1.17 1.7-1.77 1.11-.61 2.44-.61 1.5 0 2.53.76 1.02.77 1.43 2.16l-1.31.3q-.35-1.09-1.01-1.59-.66-.5-1.67-.5-1.15 0-1.93.56-.78.55-1.09 1.49-.32.93-.32 1.92 0 1.28.37 2.23.38.95 1.17 1.42.78.48 1.7.48 1.11 0 1.88-.65.78-.64 1.05-1.9z" stroke="none"/>
        <path d="m378.62 240.5l1.33.33q-.42 1.64-1.51 2.5-1.08.85-2.64.85-1.62 0-2.64-.66-1.01-.66-1.55-1.91-.52-1.25-.52-2.69 0-1.56.59-2.72.6-1.17 1.7-1.77 1.11-.61 2.44-.61 1.5 0 2.53.76 1.02.77 1.43 2.16l-1.31.3q-.35-1.09-1.01-1.59-.66-.5-1.67-.5-1.15 0-1.93.56-.78.55-1.09 1.49-.32.93-.32 1.92 0 1.28.37 2.23.38.95 1.17 1.42.78.48 1.7.48 1.11 0 1.88-.65.78-.64 1.05-1.9z" stroke="none"/>
        <path d="m400.27 228l1.33.33q-.42 1.64-1.51 2.5-1.08.85-2.64.85-1.62 0-2.64-.66-1.01-.66-1.55-1.91-.52-1.25-.52-2.69 0-1.56.59-2.72.6-1.17 1.7-1.77 1.11-.61 2.44-.61 1.5 0 2.53.76 1.02.77 1.43 2.16l-1.31.3q-.35-1.09-1.01-1.59-.66-.5-1.67-.5-1.15 0-1.93.56-.78.55-1.09 1.49-.32.93-.32 1.92 0 1.28.37 2.23.38.95 1.17 1.42.78.48 1.7.48 1.11 0 1.88-.65.78-.64 1.05-1.9z" stroke="none"/>
        <path d="m421.92 240.5l1.33.33q-.42 1.64-1.51 2.5-1.08.85-2.64.85-1.62 0-2.64-.66-1.01-.66-1.55-1.91-.52-1.25-.52-2.69 0-1.56.59-2.72.6-1.17 1.7-1.77 1.11-.61 2.44-.61 1.5 0 2.53.76 1.02.77 1.43 2.16l-1.31.3q-.35-1.09-1.01-1.59-.66-.5-1.67-.5-1.15 0-1.93.56-.78.55-1.09 1.49-.32.93-.32 1.92 0 1.28.37 2.23.38.95 1.17 1.42.78.48 1.7.48 1.11 0 1.88-.65.78-.64 1.05-1.9z" stroke="none"/>
        <path d="m443.57 228l1.33.33q-.42 1.64-1.51 2.5-1.08.85-2.64.85-1.62 0-2.64-.66-1.01-.66-1.55-1.91-.52-1.25-.52-2.69 0-1.56.59-2.72.6-1.17 1.7-1.77 1.11-.61 2.44-.61 1.5 0 2.53.76 1.02.77 1.43 2.16l-1.31.3q-.35-1.09-1.01-1.59-.66-.5-1.67-.5-1.15 0-1.93.56-.78.55-1.09 1.49-.32.93-.32 1.92 0 1.28.37 2.23.38.95 1.17 1.42.78.48 1.7.48 1.11 0 1.88-.65.78-.64 1.05-1.9z" stroke="none"/>
        <path d="m220.03 206.42v-10.02h1.33v4.11h5.21v-4.11h1.32v10.02h-1.32v-4.72h-5.21v4.72z" stroke="none"/>
        <path d="m198.38 268.92v-10.02h1.33v4.11h5.21v-4.11h1.32v10.02h-1.32v-4.72h-5.21v4.72z" stroke="none"/>
        <path d="m241.68 268.92v-10.02h1.33v4.11h5.21v-4.11h1.32v10.02h-1.32v-4.72h-5.21v4.72z" stroke="none"/>
        <path d="m284.99 268.92v-10.02h1.33v4.11h5.21v-4.11h1.32v10.02h-1.32v-4.72h-5.21v4.72z" stroke="none"/>
        <path d="m328.29 268.92v-10.02h1.33v4.11h5.21v-4.11h1.32v10.02h-1.32v-4.72h-5.21v4.72z" stroke="none"/>
        <path d="m371.59 268.92v-10.02h1.33v4.11h5.21v-4.11h1.32v10.02h-1.32v-4.72h-5.21v4.72z" stroke="none"/>
        <path d="m414.89 268.92v-10.02h1.33v4.11h5.21v-4.11h1.32v10.02h-1.32v-4.72h-5.21v4.72z" stroke="none"/>
        <path d="m263.33 206.42v-10.02h1.33v4.11h5.21v-4.11h1.32v10.02h-1.32v-4.72h-5.21v4.72z" stroke="none"/>
        <path d="m306.64 206.42v-10.02h1.33v4.11h5.21v-4.11h1.32v10.02h-1.32v-4.72h-5.21v4.72z" stroke="none"/>
        <path d="m349.94 206.42v-10.02h1.33v4.11h5.21v-4.11h1.32v10.02h-1.32v-4.72h-5.21v4.72z" stroke="none"/>
        <path d="m393.24 206.42v-10.02h1.33v4.11h5.21v-4.11h1.32v10.02h-1.32v-4.72h-5.21v4.72z" stroke="none"/>
        <path d="m436.54 206.42v-10.02h1.33v4.11h5.21v-4.11h1.32v10.02h-1.32v-4.72h-5.21v4.72z" stroke="none"/>
        <path d="m462.38 272.87v-7.26h1.11v1.03q.8-1.19 2.31-1.19.66 0 1.2.24.56.23.83.61.27.38.38.91.1.34.1 1.2v4.46h-1.23v-4.42q0-.75-.14-1.12-.15-.37-.51-.59-.37-.23-.86-.23-.79 0-1.36.5-.57.5-.57 1.9v3.96z" stroke="none"/>
    </g>
</svg>
