<?xml version="1.0" encoding="UTF-8" standalone="no"?>
<!DOCTYPE svg PUBLIC "-//W3C//DTD SVG 1.1//EN" "http://www.w3.org/Graphics/SVG/1.1/DTD/svg11.dtd">
<!--Generated by Intaglio, www.PurgatoryDesign.com-->
<svg version="1.1" viewBox="22,25,668,882" width="668" height="882" xmlns="http://www.w3.org/2000/svg" xmlns:xlink="http://www.w3.org/1999/xlink"><g><path fill="#fff" stroke="#000100" d="M648.338,221.869 L648.338,360"/><path fill="#fff" stroke="#000100" d="M324,181.369 L684,181.369"/><path fill="#fff" stroke="#000100" d="M324,253.369 L684,253.369"/><path fill="#fff" stroke="#000100" d="M432.338,72 L432.338,257.869"/><path fill="#fff" stroke="#000100" d="M360.338,72 L360.338,257.869"/><path fill="#fff" stroke="#000100" d="M324,109.369 L684,109.369"/><path fill="#fff" stroke="#000100" d="M504.338,72 L504.338,257.869"/><path fill="#fff" stroke="#000100" d="M648.338,72 L648.338,257.869"/><path fill="#fff" stroke="#000100" d="M576.338,72 L576.338,257.869"/><path fill="#fff" stroke="#000100" stroke-width="2" d="M576.337,176.605 C578.889,176.605,580.958,178.62,580.958,181.105 C580.958,183.591,578.889,185.605,576.337,185.605 C573.786,185.605,571.717,183.591,571.717,181.105 C571.717,178.62,573.786,176.605,576.337,176.605 Z"/><path stroke="#000100" stroke-width="2" d="M576.337,104.605 C578.889,104.605,580.958,106.62,580.958,109.105 C580.958,111.591,578.889,113.605,576.337,113.605 C573.786,113.605,571.717,111.591,571.717,109.105 C571.717,106.62,573.786,104.605,576.337,104.605 Z"/><path fill="#fff" stroke="#000100" stroke-width="2" d="M648.338,104.869 C650.89,104.869,652.958,106.884,652.958,109.369 C652.958,111.854,650.89,113.869,648.338,113.869 C645.786,113.869,643.717,111.854,643.717,109.369 C643.717,106.884,645.786,104.869,648.338,104.869 Z"/><path fill="#fff" stroke="#000100" stroke-width="2" d="M504.338,104.869 C506.89,104.869,508.958,106.884,508.958,109.369 C508.958,111.854,506.89,113.869,504.338,113.869 C501.786,113.869,499.717,111.854,499.717,109.369 C499.717,106.884,501.786,104.869,504.338,104.869 Z"/><path fill="#fff" stroke="#000100" stroke-width="2" d="M432.338,176.869 C434.89,176.869,436.958,178.884,436.958,181.369 C436.958,183.854,434.89,185.869,432.338,185.869 C429.786,185.869,427.717,183.854,427.717,181.369 C427.717,178.884,429.786,176.869,432.338,176.869 Z"/><path stroke="#000100" stroke-width="2" d="M432.338,104.869 C434.89,104.869,436.958,106.884,436.958,109.369 C436.958,111.854,434.89,113.869,432.338,113.869 C429.786,113.869,427.717,111.854,427.717,109.369 C427.717,106.884,429.786,104.869,432.338,104.869 Z"/><path stroke="#000100" stroke-width="2" d="M360.338,176.869 C362.89,176.869,364.958,178.884,364.958,181.369 C364.958,183.854,362.89,185.869,360.338,185.869 C357.786,185.869,355.717,183.854,355.717,181.369 C355.717,178.884,357.786,176.869,360.338,176.869 Z"/><path fill="#fff" stroke="#000100" stroke-width="2" d="M360.338,104.869 C362.89,104.869,364.958,106.884,364.958,109.369 C364.958,111.854,362.89,113.869,360.338,113.869 C357.786,113.869,355.717,111.854,355.717,109.369 C355.717,106.884,357.786,104.869,360.338,104.869 Z"/><path fill="#fff" stroke="#000100" d="M432.338,253.105 L432.338,360"/><path fill="#fff" stroke="#000100" d="M360.338,253.105 L360.338,360"/><path fill="#fff" stroke="#000100" d="M324,325.369 L684,325.369"/><path fill="#fff" stroke="#000100" d="M504.338,257.869 L504.338,360"/><path fill="#fff" stroke="#000100" d="M576.338,237.869 L576.338,360"/><path stroke="#000100" stroke-width="2" d="M432.338,248.869 C434.89,248.869,436.958,250.884,436.958,253.369 C436.958,255.854,434.89,257.869,432.338,257.869 C429.786,257.869,427.717,255.854,427.717,253.369 C427.717,250.884,429.786,248.869,432.338,248.869 Z"/><path fill="#fff" stroke="#000100" stroke-width="2" d="M504.338,248.869 C506.89,248.869,508.958,250.884,508.958,253.369 C508.958,255.854,506.89,257.869,504.338,257.869 C501.786,257.869,499.717,255.854,499.717,253.369 C499.717,250.884,501.786,248.869,504.338,248.869 Z"/><path stroke="#000100" stroke-width="2" d="M576.338,248.869 C578.89,248.869,580.958,250.884,580.958,253.369 C580.958,255.854,578.89,257.869,576.338,257.869 C573.786,257.869,571.717,255.854,571.717,253.369 C571.717,250.884,573.786,248.869,576.338,248.869 Z"/><path fill="#fff" stroke="#000100" stroke-width="2" d="M648.338,248.869 C650.89,248.869,652.958,250.884,652.958,253.369 C652.958,255.854,650.89,257.869,648.338,257.869 C645.786,257.869,643.717,255.854,643.717,253.369 C643.717,250.884,645.786,248.869,648.338,248.869 Z"/><path fill="#fff" stroke="#000100" stroke-width="2" d="M360.338,248.869 C362.89,248.869,364.958,250.884,364.958,253.369 C364.958,255.854,362.89,257.869,360.338,257.869 C357.786,257.869,355.717,255.854,355.717,253.369 C355.717,250.884,357.786,248.869,360.338,248.869 Z"/><path stroke="#000100" stroke-width="2" d="M648.338,177.445 C650.89,177.445,652.958,179.46,652.958,181.945 C652.958,184.431,650.89,186.445,648.338,186.445 C645.786,186.445,643.717,184.431,643.717,181.945 C643.717,179.46,645.786,177.445,648.338,177.445 Z"/><path stroke="#000100" stroke-width="2" d="M504.338,177.445 C506.89,177.445,508.958,179.46,508.958,181.945 C508.958,184.431,506.89,186.445,504.338,186.445 C501.786,186.445,499.717,184.431,499.717,181.945 C499.717,179.46,501.786,177.445,504.338,177.445 Z"/><path fill="#fff" stroke="#000100" stroke-width="2" d="M432.338,320.869 C434.89,320.869,436.958,322.884,436.958,325.369 C436.958,327.854,434.89,329.869,432.338,329.869 C429.786,329.869,427.717,327.854,427.717,325.369 C427.717,322.884,429.786,320.869,432.338,320.869 Z"/><path stroke="#000100" stroke-width="2" d="M504.338,320.869 C506.89,320.869,508.958,322.884,508.958,325.369 C508.958,327.854,506.89,329.869,504.338,329.869 C501.786,329.869,499.717,327.854,499.717,325.369 C499.717,322.884,501.786,320.869,504.338,320.869 Z"/><path fill="#fff" stroke="#000100" stroke-width="2" d="M576.338,320.869 C578.89,320.869,580.958,322.884,580.958,325.369 C580.958,327.854,578.89,329.869,576.338,329.869 C573.786,329.869,571.717,327.854,571.717,325.369 C571.717,322.884,573.786,320.869,576.338,320.869 Z"/><path stroke="#000100" stroke-width="2" d="M648.338,320.869 C650.89,320.869,652.958,322.884,652.958,325.369 C652.958,327.854,650.89,329.869,648.338,329.869 C645.786,329.869,643.717,327.854,643.717,325.369 C643.717,322.884,645.786,320.869,648.338,320.869 Z"/><path stroke="#000100" stroke-width="2" d="M360.338,320.869 C362.89,320.869,364.958,322.884,364.958,325.369 C364.958,327.854,362.89,329.869,360.338,329.869 C357.786,329.869,355.717,327.854,355.717,325.369 C355.717,322.884,357.786,320.869,360.338,320.869 Z"/><g><g><path fill="#fff" stroke="#00a0fe" stroke-width="6" d="M430.027,250.915 L430.027,183.536"/><path fill="none" stroke="#00a0fe" stroke-width="6" d="M421.027,201.536 L430.027,183.536 L439.027,201.536"/></g><path fill="#fff" stroke="#00a0fe" stroke-width="6" d="M502.027,250.915 L502.027,183.536"/><path fill="#fff" stroke="#00a0fe" stroke-width="6" d="M432.338,253.225 L499.717,253.225"/><path fill="#fff" stroke="#00a0fe" stroke-width="6" d="M432.338,181.225 L499.717,181.225"/></g></g><g><path fill="#d20000" stroke="#000100" stroke-dasharray="5" d="M911.5,-286.631 L1321,-286.631"/><path fill="#fff" stroke="#000100" stroke-dasharray="5" d="M911.5,-502.631 L1321,-502.631"/><path fill="#fff" stroke="#000" stroke-width="4" d="M936.338,-507.131 L936.338,-286.631"/><path fill="#d20000" stroke="#000100" stroke-width="2" d="M936.338,-506.555 C938.89,-506.555,940.958,-504.54,940.958,-502.055 C940.958,-499.569,938.89,-497.555,936.338,-497.555 C933.786,-497.555,931.717,-499.569,931.717,-502.055 C931.717,-504.54,933.786,-506.555,936.338,-506.555 Z"/><path fill="#d20000" stroke="#000100" stroke-width="2" d="M936.338,-291.131 C938.89,-291.131,940.958,-289.116,940.958,-286.631 C940.958,-284.146,938.89,-282.131,936.338,-282.131 C933.786,-282.131,931.717,-284.146,931.717,-286.631 C931.717,-289.116,933.786,-291.131,936.338,-291.131 Z"/><path fill="none" stroke="#d0990f" stroke-width="4" d="M972.338,-507.131 L972.338,-286.631"/><path fill="#d20000" stroke="#000100" stroke-width="2" d="M972.338,-506.555 C974.89,-506.555,976.958,-504.54,976.958,-502.055 C976.958,-499.569,974.89,-497.555,972.338,-497.555 C969.786,-497.555,967.717,-499.569,967.717,-502.055 C967.717,-504.54,969.786,-506.555,972.338,-506.555 Z"/><path fill="#d20000" stroke="#000100" stroke-width="2" d="M972.338,-291.131 C974.89,-291.131,976.958,-289.116,976.958,-286.631 C976.958,-284.146,974.89,-282.131,972.338,-282.131 C969.786,-282.131,967.717,-284.146,967.717,-286.631 C967.717,-289.116,969.786,-291.131,972.338,-291.131 Z"/><path fill="#fff" stroke="#000" stroke-width="4" d="M1008.34,-507.131 L1008.34,-286.631"/><path fill="#d20000" stroke="#000100" stroke-width="2" d="M1008.34,-506.555 C1010.89,-506.555,1012.96,-504.54,1012.96,-502.055 C1012.96,-499.569,1010.89,-497.555,1008.34,-497.555 C1005.79,-497.555,1003.72,-499.569,1003.72,-502.055 C1003.72,-504.54,1005.79,-506.555,1008.34,-506.555 Z"/><path fill="#d20000" stroke="#000100" stroke-width="2" d="M1008.34,-291.131 C1010.89,-291.131,1012.96,-289.116,1012.96,-286.631 C1012.96,-284.146,1010.89,-282.131,1008.34,-282.131 C1005.79,-282.131,1003.72,-284.146,1003.72,-286.631 C1003.72,-289.116,1005.79,-291.131,1008.34,-291.131 Z"/><path fill="none" stroke="#d0990f" stroke-width="4" d="M1044.34,-507.131 L1044.34,-286.631"/><path fill="#d20000" stroke="#000100" stroke-width="2" d="M1044.34,-506.555 C1046.89,-506.555,1048.96,-504.54,1048.96,-502.055 C1048.96,-499.569,1046.89,-497.555,1044.34,-497.555 C1041.79,-497.555,1039.72,-499.569,1039.72,-502.055 C1039.72,-504.54,1041.79,-506.555,1044.34,-506.555 Z"/><path fill="#d20000" stroke="#000100" stroke-width="2" d="M1044.34,-291.131 C1046.89,-291.131,1048.96,-289.116,1048.96,-286.631 C1048.96,-284.146,1046.89,-282.131,1044.34,-282.131 C1041.79,-282.131,1039.72,-284.146,1039.72,-286.631 C1039.72,-289.116,1041.79,-291.131,1044.34,-291.131 Z"/><path fill="#fff" stroke="#000" stroke-width="4" d="M1080.34,-507.131 L1080.34,-286.631"/><path fill="#d20000" stroke="#000100" stroke-width="2" d="M1080.34,-506.555 C1082.89,-506.555,1084.96,-504.54,1084.96,-502.055 C1084.96,-499.569,1082.89,-497.555,1080.34,-497.555 C1077.79,-497.555,1075.72,-499.569,1075.72,-502.055 C1075.72,-504.54,1077.79,-506.555,1080.34,-506.555 Z"/><path fill="#d20000" stroke="#000100" stroke-width="2" d="M1080.34,-291.131 C1082.89,-291.131,1084.96,-289.116,1084.96,-286.631 C1084.96,-284.146,1082.89,-282.131,1080.34,-282.131 C1077.79,-282.131,1075.72,-284.146,1075.72,-286.631 C1075.72,-289.116,1077.79,-291.131,1080.34,-291.131 Z"/><path fill="#fff" stroke="#d0990f" stroke-width="4" d="M1116.34,-507.131 L1116.34,-286.631"/><path fill="#d20000" stroke="#000100" stroke-width="2" d="M1116.34,-506.555 C1118.89,-506.555,1120.96,-504.54,1120.96,-502.055 C1120.96,-499.569,1118.89,-497.555,1116.34,-497.555 C1113.79,-497.555,1111.72,-499.569,1111.72,-502.055 C1111.72,-504.54,1113.79,-506.555,1116.34,-506.555 Z"/><path fill="#d20000" stroke="#000100" stroke-width="2" d="M1116.34,-291.131 C1118.89,-291.131,1120.96,-289.116,1120.96,-286.631 C1120.96,-284.146,1118.89,-282.131,1116.34,-282.131 C1113.79,-282.131,1111.72,-284.146,1111.72,-286.631 C1111.72,-289.116,1113.79,-291.131,1116.34,-291.131 Z"/><path fill="#fff" stroke="#000" stroke-width="4" d="M1152.34,-507.131 L1152.34,-286.631"/><path fill="#d20000" stroke="#000100" stroke-width="2" d="M1152.34,-506.555 C1154.89,-506.555,1156.96,-504.54,1156.96,-502.055 C1156.96,-499.569,1154.89,-497.555,1152.34,-497.555 C1149.79,-497.555,1147.72,-499.569,1147.72,-502.055 C1147.72,-504.54,1149.79,-506.555,1152.34,-506.555 Z"/><path fill="#d20000" stroke="#000100" stroke-width="2" d="M1152.34,-291.131 C1154.89,-291.131,1156.96,-289.116,1156.96,-286.631 C1156.96,-284.146,1154.89,-282.131,1152.34,-282.131 C1149.79,-282.131,1147.72,-284.146,1147.72,-286.631 C1147.72,-289.116,1149.79,-291.131,1152.34,-291.131 Z"/><path fill="none" stroke="#d0990f" stroke-width="4" d="M1188.34,-507.131 L1188.34,-286.631"/><path fill="#d20000" stroke="#000100" stroke-width="2" d="M1188.34,-506.555 C1190.89,-506.555,1192.96,-504.54,1192.96,-502.055 C1192.96,-499.569,1190.89,-497.555,1188.34,-497.555 C1185.79,-497.555,1183.72,-499.569,1183.72,-502.055 C1183.72,-504.54,1185.79,-506.555,1188.34,-506.555 Z"/><path fill="#d20000" stroke="#000100" stroke-width="2" d="M1188.34,-291.131 C1190.89,-291.131,1192.96,-289.116,1192.96,-286.631 C1192.96,-284.146,1190.89,-282.131,1188.34,-282.131 C1185.79,-282.131,1183.72,-284.146,1183.72,-286.631 C1183.72,-289.116,1185.79,-291.131,1188.34,-291.131 Z"/><path fill="#fff" stroke="#000" stroke-width="4" d="M1224.34,-507.131 L1224.34,-286.631"/><path fill="#d20000" stroke="#000100" stroke-width="2" d="M1224.34,-506.555 C1226.89,-506.555,1228.96,-504.54,1228.96,-502.055 C1228.96,-499.569,1226.89,-497.555,1224.34,-497.555 C1221.79,-497.555,1219.72,-499.569,1219.72,-502.055 C1219.72,-504.54,1221.79,-506.555,1224.34,-506.555 Z"/><path fill="#d20000" stroke="#000100" stroke-width="2" d="M1224.34,-291.131 C1226.89,-291.131,1228.96,-289.116,1228.96,-286.631 C1228.96,-284.146,1226.89,-282.131,1224.34,-282.131 C1221.79,-282.131,1219.72,-284.146,1219.72,-286.631 C1219.72,-289.116,1221.79,-291.131,1224.34,-291.131 Z"/><path fill="none" stroke="#d0990f" stroke-width="4" d="M1260.34,-507.131 L1260.34,-286.631"/><path fill="#d20000" stroke="#000100" stroke-width="2" d="M1260.34,-506.555 C1262.89,-506.555,1264.96,-504.54,1264.96,-502.055 C1264.96,-499.569,1262.89,-497.555,1260.34,-497.555 C1257.79,-497.555,1255.72,-499.569,1255.72,-502.055 C1255.72,-504.54,1257.79,-506.555,1260.34,-506.555 Z"/><path fill="#d20000" stroke="#000100" stroke-width="2" d="M1260.34,-291.131 C1262.89,-291.131,1264.96,-289.116,1264.96,-286.631 C1264.96,-284.146,1262.89,-282.131,1260.34,-282.131 C1257.79,-282.131,1255.72,-284.146,1255.72,-286.631 C1255.72,-289.116,1257.79,-291.131,1260.34,-291.131 Z"/><path fill="#fff" stroke="#000" stroke-width="4" d="M1296.34,-507.131 L1296.34,-286.631"/><path fill="#d20000" stroke="#000100" stroke-width="2" d="M1296.34,-506.555 C1298.89,-506.555,1300.96,-504.54,1300.96,-502.055 C1300.96,-499.569,1298.89,-497.555,1296.34,-497.555 C1293.79,-497.555,1291.72,-499.569,1291.72,-502.055 C1291.72,-504.54,1293.79,-506.555,1296.34,-506.555 Z"/><path fill="#d20000" stroke="#000100" stroke-width="2" d="M1296.34,-291.131 C1298.89,-291.131,1300.96,-289.116,1300.96,-286.631 C1300.96,-284.146,1298.89,-282.131,1296.34,-282.131 C1293.79,-282.131,1291.72,-284.146,1291.72,-286.631 C1291.72,-289.116,1293.79,-291.131,1296.34,-291.131 Z"/><path fill="#fff" stroke="#000100" stroke-dasharray="5" d="M911.5,-322.631 L1321,-322.631"/><path fill="#fff" stroke="#000100" stroke-dasharray="5" d="M911.5,-358.631 L1321,-358.631"/><path fill="#fff" stroke="#000100" stroke-dasharray="5" d="M911.5,-394.631 L1321,-394.631"/><path fill="#fff" stroke="#000100" stroke-dasharray="5" d="M911.5,-430.631 L1321,-430.631"/><path fill="#fff" stroke="#000100" stroke-dasharray="5" d="M911.5,-466.631 L1321,-466.631"/><path fill="none" stroke="#0d0d0d" stroke-width="2" stroke-dasharray="10" d="M1116,-538.895 L1116,-246.131"/><g><path fill="none" stroke="#000100" d="M1084.84,-538.895 C1084.84,-528.815,1098.94,-520.645,1116.34,-520.645 C1133.73,-520.645,1147.84,-528.815,1147.84,-538.895"/><path fill="none" stroke="#000100" d="M1084.33,-529.102 C1083.48,-532.286,1083.3,-535.868,1084.84,-538.895 C1085.97,-536.47,1088.25,-534.792,1090.72,-533.923"/></g></g><g><path fill="#fff" stroke="#000100" d="M324.338,509.869 L324.338,613.369"/><path fill="#fff" stroke="#000100" d="M31.7169,469.369 L324.338,469.369"/><path fill="#fff" stroke="#000100" d="M31.7169,541.369 L324.338,541.369"/><path fill="#fff" stroke="#000100" d="M108.338,392.869 L108.338,545.869"/><path fill="#fff" stroke="#000100" d="M36.338,392.869 L36.338,545.869"/><path fill="#fff" stroke="#000100" d="M31.7169,397.369 L328.958,397.369"/><path fill="#fff" stroke="#000100" d="M180.338,392.869 L180.338,545.869"/><path fill="#fff" stroke="#000100" d="M324.338,392.869 L324.338,545.869"/><path fill="#fff" stroke="#000100" d="M252.338,392.869 L252.338,545.869"/><path fill="#fff" stroke="#000100" stroke-width="2" d="M252.337,464.605 C254.889,464.605,256.958,466.62,256.958,469.105 C256.958,471.591,254.889,473.605,252.337,473.605 C249.786,473.605,247.717,471.591,247.717,469.105 C247.717,466.62,249.786,464.605,252.337,464.605 Z"/><path stroke="#000100" stroke-width="2" d="M252.337,392.605 C254.889,392.605,256.958,394.62,256.958,397.105 C256.958,399.591,254.889,401.605,252.337,401.605 C249.786,401.605,247.717,399.591,247.717,397.105 C247.717,394.62,249.786,392.605,252.337,392.605 Z"/><path fill="#fff" stroke="#000100" stroke-width="2" d="M324.338,392.869 C326.89,392.869,328.958,394.884,328.958,397.369 C328.958,399.854,326.89,401.869,324.338,401.869 C321.786,401.869,319.717,399.854,319.717,397.369 C319.717,394.884,321.786,392.869,324.338,392.869 Z"/><path fill="#fff" stroke="#000100" stroke-width="2" d="M180.338,392.869 C182.89,392.869,184.958,394.884,184.958,397.369 C184.958,399.854,182.89,401.869,180.338,401.869 C177.786,401.869,175.717,399.854,175.717,397.369 C175.717,394.884,177.786,392.869,180.338,392.869 Z"/><path fill="#fff" stroke="#000100" stroke-width="2" d="M108.338,464.869 C110.89,464.869,112.958,466.884,112.958,469.369 C112.958,471.854,110.89,473.869,108.338,473.869 C105.786,473.869,103.717,471.854,103.717,469.369 C103.717,466.884,105.786,464.869,108.338,464.869 Z"/><path stroke="#000100" stroke-width="2" d="M108.338,392.869 C110.89,392.869,112.958,394.884,112.958,397.369 C112.958,399.854,110.89,401.869,108.338,401.869 C105.786,401.869,103.717,399.854,103.717,397.369 C103.717,394.884,105.786,392.869,108.338,392.869 Z"/><path stroke="#000100" stroke-width="2" d="M36.338,464.869 C38.89,464.869,40.9583,466.884,40.9583,469.369 C40.9583,471.854,38.89,473.869,36.338,473.869 C33.786,473.869,31.7169,471.854,31.7169,469.369 C31.7169,466.884,33.786,464.869,36.338,464.869 Z"/><path fill="#fff" stroke="#000100" stroke-width="2" d="M36.338,392.869 C38.89,392.869,40.9583,394.884,40.9583,397.369 C40.9583,399.854,38.89,401.869,36.338,401.869 C33.786,401.869,31.7169,399.854,31.7169,397.369 C31.7169,394.884,33.786,392.869,36.338,392.869 Z"/><path fill="#fff" stroke="#000100" d="M108.338,541.105 L108.338,613.369"/><path fill="#fff" stroke="#000100" d="M36.338,541.105 L36.338,613.369"/><path fill="#fff" stroke="#000100" d="M31.7169,613.369 L324.338,613.369"/><path fill="#fff" stroke="#000100" d="M180.338,545.869 L180.338,613.369"/><path fill="#fff" stroke="#000100" d="M252.338,525.869 L252.338,613.369"/><path stroke="#000100" stroke-width="2" d="M108.338,536.869 C110.89,536.869,112.958,538.884,112.958,541.369 C112.958,543.854,110.89,545.869,108.338,545.869 C105.786,545.869,103.717,543.854,103.717,541.369 C103.717,538.884,105.786,536.869,108.338,536.869 Z"/><path fill="#fff" stroke="#000100" stroke-width="2" d="M180.338,536.869 C182.89,536.869,184.958,538.884,184.958,541.369 C184.958,543.854,182.89,545.869,180.338,545.869 C177.786,545.869,175.717,543.854,175.717,541.369 C175.717,538.884,177.786,536.869,180.338,536.869 Z"/><path stroke="#000100" stroke-width="2" d="M252.338,536.869 C254.89,536.869,256.958,538.884,256.958,541.369 C256.958,543.854,254.89,545.869,252.338,545.869 C249.786,545.869,247.717,543.854,247.717,541.369 C247.717,538.884,249.786,536.869,252.338,536.869 Z"/><path fill="#fff" stroke="#000100" stroke-width="2" d="M324.338,536.869 C326.89,536.869,328.958,538.884,328.958,541.369 C328.958,543.854,326.89,545.869,324.338,545.869 C321.786,545.869,319.717,543.854,319.717,541.369 C319.717,538.884,321.786,536.869,324.338,536.869 Z"/><path fill="#fff" stroke="#000100" stroke-width="2" d="M36.338,536.869 C38.89,536.869,40.9583,538.884,40.9583,541.369 C40.9583,543.854,38.89,545.869,36.338,545.869 C33.786,545.869,31.7169,543.854,31.7169,541.369 C31.7169,538.884,33.786,536.869,36.338,536.869 Z"/><path stroke="#000100" stroke-width="2" d="M324.338,465.445 C326.89,465.445,328.958,467.46,328.958,469.945 C328.958,472.431,326.89,474.445,324.338,474.445 C321.786,474.445,319.717,472.431,319.717,469.945 C319.717,467.46,321.786,465.445,324.338,465.445 Z"/><path stroke="#000100" stroke-width="2" d="M180.338,465.445 C182.89,465.445,184.958,467.46,184.958,469.945 C184.958,472.431,182.89,474.445,180.338,474.445 C177.786,474.445,175.717,472.431,175.717,469.945 C175.717,467.46,177.786,465.445,180.338,465.445 Z"/><path fill="#fff" stroke="#000100" stroke-width="2" d="M108.338,608.869 C110.89,608.869,112.958,610.884,112.958,613.369 C112.958,615.854,110.89,617.869,108.338,617.869 C105.786,617.869,103.717,615.854,103.717,613.369 C103.717,610.884,105.786,608.869,108.338,608.869 Z"/><path stroke="#000100" stroke-width="2" d="M180.338,608.869 C182.89,608.869,184.958,610.884,184.958,613.369 C184.958,615.854,182.89,617.869,180.338,617.869 C177.786,617.869,175.717,615.854,175.717,613.369 C175.717,610.884,177.786,608.869,180.338,608.869 Z"/><path fill="#fff" stroke="#000100" stroke-width="2" d="M252.338,608.869 C254.89,608.869,256.958,610.884,256.958,613.369 C256.958,615.854,254.89,617.869,252.338,617.869 C249.786,617.869,247.717,615.854,247.717,613.369 C247.717,610.884,249.786,608.869,252.338,608.869 Z"/><path stroke="#000100" stroke-width="2" d="M324.338,608.869 C326.89,608.869,328.958,610.884,328.958,613.369 C328.958,615.854,326.89,617.869,324.338,617.869 C321.786,617.869,319.717,615.854,319.717,613.369 C319.717,610.884,321.786,608.869,324.338,608.869 Z"/><path stroke="#000100" stroke-width="2" d="M36.338,608.869 C38.89,608.869,40.9583,610.884,40.9583,613.369 C40.9583,615.854,38.89,617.869,36.338,617.869 C33.786,617.869,31.7169,615.854,31.7169,613.369 C31.7169,610.884,33.786,608.869,36.338,608.869 Z"/><path fill="#fff" stroke="#000100" d="M684.338,509.869 L684.338,613.369"/><path fill="#fff" stroke="#000100" d="M391.717,469.369 L684.338,469.369"/><path fill="#fff" stroke="#000100" d="M391.717,541.369 L684.338,541.369"/><path fill="#fff" stroke="#000100" d="M468.338,392.869 L468.338,545.869"/><path fill="#fff" stroke="#000100" d="M396.338,392.869 L396.338,545.869"/><path fill="#fff" stroke="#000100" d="M391.717,397.369 L688.958,397.369"/><path fill="#fff" stroke="#000100" d="M540.338,392.869 L540.338,545.869"/><path fill="#fff" stroke="#000100" d="M684.338,392.869 L684.338,545.869"/><path fill="#fff" stroke="#000100" d="M612.338,392.869 L612.338,545.869"/><path fill="#fff" stroke="#000100" stroke-width="2" d="M612.337,464.605 C614.889,464.605,616.958,466.62,616.958,469.105 C616.958,471.591,614.889,473.605,612.337,473.605 C609.786,473.605,607.717,471.591,607.717,469.105 C607.717,466.62,609.786,464.605,612.337,464.605 Z"/><path stroke="#000100" stroke-width="2" d="M612.337,392.605 C614.889,392.605,616.958,394.62,616.958,397.105 C616.958,399.591,614.889,401.605,612.337,401.605 C609.786,401.605,607.717,399.591,607.717,397.105 C607.717,394.62,609.786,392.605,612.337,392.605 Z"/><path fill="#fff" stroke="#000100" stroke-width="2" d="M684.338,392.869 C686.89,392.869,688.958,394.884,688.958,397.369 C688.958,399.854,686.89,401.869,684.338,401.869 C681.786,401.869,679.717,399.854,679.717,397.369 C679.717,394.884,681.786,392.869,684.338,392.869 Z"/><path fill="#fff" stroke="#000100" stroke-width="2" d="M540.338,392.869 C542.89,392.869,544.958,394.884,544.958,397.369 C544.958,399.854,542.89,401.869,540.338,401.869 C537.786,401.869,535.717,399.854,535.717,397.369 C535.717,394.884,537.786,392.869,540.338,392.869 Z"/><path fill="#fff" stroke="#000100" stroke-width="2" d="M468.338,464.869 C470.89,464.869,472.958,466.884,472.958,469.369 C472.958,471.854,470.89,473.869,468.338,473.869 C465.786,473.869,463.717,471.854,463.717,469.369 C463.717,466.884,465.786,464.869,468.338,464.869 Z"/><path stroke="#000100" stroke-width="2" d="M468.338,392.869 C470.89,392.869,472.958,394.884,472.958,397.369 C472.958,399.854,470.89,401.869,468.338,401.869 C465.786,401.869,463.717,399.854,463.717,397.369 C463.717,394.884,465.786,392.869,468.338,392.869 Z"/><path stroke="#000100" stroke-width="2" d="M396.338,464.869 C398.89,464.869,400.958,466.884,400.958,469.369 C400.958,471.854,398.89,473.869,396.338,473.869 C393.786,473.869,391.717,471.854,391.717,469.369 C391.717,466.884,393.786,464.869,396.338,464.869 Z"/><path fill="#fff" stroke="#000100" stroke-width="2" d="M396.338,392.869 C398.89,392.869,400.958,394.884,400.958,397.369 C400.958,399.854,398.89,401.869,396.338,401.869 C393.786,401.869,391.717,399.854,391.717,397.369 C391.717,394.884,393.786,392.869,396.338,392.869 Z"/><path fill="#fff" stroke="#000100" d="M468.338,541.105 L468.338,613.369"/><path fill="#fff" stroke="#000100" d="M396.338,541.105 L396.338,613.369"/><path fill="#fff" stroke="#000100" d="M391.717,613.369 L684.338,613.369"/><path fill="#fff" stroke="#000100" d="M540.338,545.869 L540.338,613.369"/><path fill="#fff" stroke="#000100" d="M612.338,525.869 L612.338,613.369"/><path stroke="#000100" stroke-width="2" d="M468.338,536.869 C470.89,536.869,472.958,538.884,472.958,541.369 C472.958,543.854,470.89,545.869,468.338,545.869 C465.786,545.869,463.717,543.854,463.717,541.369 C463.717,538.884,465.786,536.869,468.338,536.869 Z"/><path fill="#fff" stroke="#000100" stroke-width="2" d="M540.338,536.869 C542.89,536.869,544.958,538.884,544.958,541.369 C544.958,543.854,542.89,545.869,540.338,545.869 C537.786,545.869,535.717,543.854,535.717,541.369 C535.717,538.884,537.786,536.869,540.338,536.869 Z"/><path stroke="#000100" stroke-width="2" d="M612.338,536.869 C614.89,536.869,616.958,538.884,616.958,541.369 C616.958,543.854,614.89,545.869,612.338,545.869 C609.786,545.869,607.717,543.854,607.717,541.369 C607.717,538.884,609.786,536.869,612.338,536.869 Z"/><path fill="#fff" stroke="#000100" stroke-width="2" d="M684.338,536.869 C686.89,536.869,688.958,538.884,688.958,541.369 C688.958,543.854,686.89,545.869,684.338,545.869 C681.786,545.869,679.717,543.854,679.717,541.369 C679.717,538.884,681.786,536.869,684.338,536.869 Z"/><path fill="#fff" stroke="#000100" stroke-width="2" d="M396.338,536.869 C398.89,536.869,400.958,538.884,400.958,541.369 C400.958,543.854,398.89,545.869,396.338,545.869 C393.786,545.869,391.717,543.854,391.717,541.369 C391.717,538.884,393.786,536.869,396.338,536.869 Z"/><path stroke="#000100" stroke-width="2" d="M684.338,465.445 C686.89,465.445,688.958,467.46,688.958,469.945 C688.958,472.431,686.89,474.445,684.338,474.445 C681.786,474.445,679.717,472.431,679.717,469.945 C679.717,467.46,681.786,465.445,684.338,465.445 Z"/><path stroke="#000100" stroke-width="2" d="M540.338,465.445 C542.89,465.445,544.958,467.46,544.958,469.945 C544.958,472.431,542.89,474.445,540.338,474.445 C537.786,474.445,535.717,472.431,535.717,469.945 C535.717,467.46,537.786,465.445,540.338,465.445 Z"/><path fill="#fff" stroke="#000100" stroke-width="2" d="M468.338,608.869 C470.89,608.869,472.958,610.884,472.958,613.369 C472.958,615.854,470.89,617.869,468.338,617.869 C465.786,617.869,463.717,615.854,463.717,613.369 C463.717,610.884,465.786,608.869,468.338,608.869 Z"/><path stroke="#000100" stroke-width="2" d="M540.338,608.869 C542.89,608.869,544.958,610.884,544.958,613.369 C544.958,615.854,542.89,617.869,540.338,617.869 C537.786,617.869,535.717,615.854,535.717,613.369 C535.717,610.884,537.786,608.869,540.338,608.869 Z"/><path fill="#fff" stroke="#000100" stroke-width="2" d="M612.338,608.869 C614.89,608.869,616.958,610.884,616.958,613.369 C616.958,615.854,614.89,617.869,612.338,617.869 C609.786,617.869,607.717,615.854,607.717,613.369 C607.717,610.884,609.786,608.869,612.338,608.869 Z"/><path stroke="#000100" stroke-width="2" d="M684.338,608.869 C686.89,608.869,688.958,610.884,688.958,613.369 C688.958,615.854,686.89,617.869,684.338,617.869 C681.786,617.869,679.717,615.854,679.717,613.369 C679.717,610.884,681.786,608.869,684.338,608.869 Z"/><path stroke="#000100" stroke-width="2" d="M396.338,608.869 C398.89,608.869,400.958,610.884,400.958,613.369 C400.958,615.854,398.89,617.869,396.338,617.869 C393.786,617.869,391.717,615.854,391.717,613.369 C391.717,610.884,393.786,608.869,396.338,608.869 Z"/><path fill="#fff" stroke="#000100" d="M324.338,797.869 L324.338,901.369"/><path fill="#fff" stroke="#000100" d="M31.7169,757.369 L324.338,757.369"/><path fill="#fff" stroke="#000100" d="M31.7169,829.369 L324.338,829.369"/><path fill="#fff" stroke="#000100" d="M108.338,680.869 L108.338,833.869"/><path fill="#fff" stroke="#000100" d="M36.338,680.869 L36.338,833.869"/><path fill="#fff" stroke="#000100" d="M31.7169,685.369 L328.958,685.369"/><path fill="#fff" stroke="#000100" d="M180.338,680.869 L180.338,833.869"/><path fill="#fff" stroke="#000100" d="M324.338,680.869 L324.338,833.869"/><path fill="#fff" stroke="#000100" d="M252.338,680.869 L252.338,833.869"/><path fill="#fff" stroke="#000100" stroke-width="2" d="M252.337,752.605 C254.889,752.605,256.958,754.62,256.958,757.105 C256.958,759.591,254.889,761.605,252.337,761.605 C249.786,761.605,247.717,759.591,247.717,757.105 C247.717,754.62,249.786,752.605,252.337,752.605 Z"/><path stroke="#000100" stroke-width="2" d="M252.337,680.605 C254.889,680.605,256.958,682.62,256.958,685.105 C256.958,687.591,254.889,689.605,252.337,689.605 C249.786,689.605,247.717,687.591,247.717,685.105 C247.717,682.62,249.786,680.605,252.337,680.605 Z"/><path fill="#fff" stroke="#000100" stroke-width="2" d="M324.338,680.869 C326.89,680.869,328.958,682.884,328.958,685.369 C328.958,687.854,326.89,689.869,324.338,689.869 C321.786,689.869,319.717,687.854,319.717,685.369 C319.717,682.884,321.786,680.869,324.338,680.869 Z"/><path fill="#fff" stroke="#000100" stroke-width="2" d="M180.338,680.869 C182.89,680.869,184.958,682.884,184.958,685.369 C184.958,687.854,182.89,689.869,180.338,689.869 C177.786,689.869,175.717,687.854,175.717,685.369 C175.717,682.884,177.786,680.869,180.338,680.869 Z"/><path fill="#fff" stroke="#000100" stroke-width="2" d="M108.338,752.869 C110.89,752.869,112.958,754.884,112.958,757.369 C112.958,759.854,110.89,761.869,108.338,761.869 C105.786,761.869,103.717,759.854,103.717,757.369 C103.717,754.884,105.786,752.869,108.338,752.869 Z"/><path stroke="#000100" stroke-width="2" d="M108.338,680.869 C110.89,680.869,112.958,682.884,112.958,685.369 C112.958,687.854,110.89,689.869,108.338,689.869 C105.786,689.869,103.717,687.854,103.717,685.369 C103.717,682.884,105.786,680.869,108.338,680.869 Z"/><path stroke="#000100" stroke-width="2" d="M36.338,752.869 C38.89,752.869,40.9583,754.884,40.9583,757.369 C40.9583,759.854,38.89,761.869,36.338,761.869 C33.786,761.869,31.7169,759.854,31.7169,757.369 C31.7169,754.884,33.786,752.869,36.338,752.869 Z"/><path fill="#fff" stroke="#000100" stroke-width="2" d="M36.338,680.869 C38.89,680.869,40.9583,682.884,40.9583,685.369 C40.9583,687.854,38.89,689.869,36.338,689.869 C33.786,689.869,31.7169,687.854,31.7169,685.369 C31.7169,682.884,33.786,680.869,36.338,680.869 Z"/><path fill="#fff" stroke="#000100" d="M108.338,829.105 L108.338,901.369"/><path fill="#fff" stroke="#000100" d="M36.338,829.105 L36.338,901.369"/><path fill="#fff" stroke="#000100" d="M31.7169,901.369 L324.338,901.369"/><path fill="#fff" stroke="#000100" d="M180.338,833.869 L180.338,901.369"/><path fill="#fff" stroke="#000100" d="M252.338,813.869 L252.338,901.369"/><path stroke="#000100" stroke-width="2" d="M108.338,824.869 C110.89,824.869,112.958,826.884,112.958,829.369 C112.958,831.854,110.89,833.869,108.338,833.869 C105.786,833.869,103.717,831.854,103.717,829.369 C103.717,826.884,105.786,824.869,108.338,824.869 Z"/><path fill="#fff" stroke="#000100" stroke-width="2" d="M180.338,824.869 C182.89,824.869,184.958,826.884,184.958,829.369 C184.958,831.854,182.89,833.869,180.338,833.869 C177.786,833.869,175.717,831.854,175.717,829.369 C175.717,826.884,177.786,824.869,180.338,824.869 Z"/><path stroke="#000100" stroke-width="2" d="M252.338,824.869 C254.89,824.869,256.958,826.884,256.958,829.369 C256.958,831.854,254.89,833.869,252.338,833.869 C249.786,833.869,247.717,831.854,247.717,829.369 C247.717,826.884,249.786,824.869,252.338,824.869 Z"/><path fill="#fff" stroke="#000100" stroke-width="2" d="M324.338,824.869 C326.89,824.869,328.958,826.884,328.958,829.369 C328.958,831.854,326.89,833.869,324.338,833.869 C321.786,833.869,319.717,831.854,319.717,829.369 C319.717,826.884,321.786,824.869,324.338,824.869 Z"/><path fill="#fff" stroke="#000100" stroke-width="2" d="M36.338,824.869 C38.89,824.869,40.9583,826.884,40.9583,829.369 C40.9583,831.854,38.89,833.869,36.338,833.869 C33.786,833.869,31.7169,831.854,31.7169,829.369 C31.7169,826.884,33.786,824.869,36.338,824.869 Z"/><path stroke="#000100" stroke-width="2" d="M324.338,753.445 C326.89,753.445,328.958,755.46,328.958,757.945 C328.958,760.431,326.89,762.445,324.338,762.445 C321.786,762.445,319.717,760.431,319.717,757.945 C319.717,755.46,321.786,753.445,324.338,753.445 Z"/><path stroke="#000100" stroke-width="2" d="M180.338,753.445 C182.89,753.445,184.958,755.46,184.958,757.945 C184.958,760.431,182.89,762.445,180.338,762.445 C177.786,762.445,175.717,760.431,175.717,757.945 C175.717,755.46,177.786,753.445,180.338,753.445 Z"/><path fill="#fff" stroke="#000100" stroke-width="2" d="M108.338,896.869 C110.89,896.869,112.958,898.884,112.958,901.369 C112.958,903.854,110.89,905.869,108.338,905.869 C105.786,905.869,103.717,903.854,103.717,901.369 C103.717,898.884,105.786,896.869,108.338,896.869 Z"/><path stroke="#000100" stroke-width="2" d="M180.338,896.869 C182.89,896.869,184.958,898.884,184.958,901.369 C184.958,903.854,182.89,905.869,180.338,905.869 C177.786,905.869,175.717,903.854,175.717,901.369 C175.717,898.884,177.786,896.869,180.338,896.869 Z"/><path fill="#fff" stroke="#000100" stroke-width="2" d="M252.338,896.869 C254.89,896.869,256.958,898.884,256.958,901.369 C256.958,903.854,254.89,905.869,252.338,905.869 C249.786,905.869,247.717,903.854,247.717,901.369 C247.717,898.884,249.786,896.869,252.338,896.869 Z"/><path stroke="#000100" stroke-width="2" d="M324.338,896.869 C326.89,896.869,328.958,898.884,328.958,901.369 C328.958,903.854,326.89,905.869,324.338,905.869 C321.786,905.869,319.717,903.854,319.717,901.369 C319.717,898.884,321.786,896.869,324.338,896.869 Z"/><path stroke="#000100" stroke-width="2" d="M36.338,896.869 C38.89,896.869,40.9583,898.884,40.9583,901.369 C40.9583,903.854,38.89,905.869,36.338,905.869 C33.786,905.869,31.7169,903.854,31.7169,901.369 C31.7169,898.884,33.786,896.869,36.338,896.869 Z"/><path fill="#fff" stroke="#000100" d="M684.338,797.869 L684.338,901.369"/><path fill="#fff" stroke="#000100" d="M391.717,757.369 L684.338,757.369"/><path fill="#fff" stroke="#000100" d="M391.717,829.369 L684.338,829.369"/><path fill="#fff" stroke="#000100" d="M468.338,680.869 L468.338,833.869"/><path fill="#fff" stroke="#000100" d="M396.338,680.869 L396.338,833.869"/><path fill="#fff" stroke="#000100" d="M391.717,685.369 L688.958,685.369"/><path fill="#fff" stroke="#000100" d="M540.338,680.869 L540.338,833.869"/><path fill="#fff" stroke="#000100" d="M684.338,680.869 L684.338,833.869"/><path fill="#fff" stroke="#000100" d="M612.338,680.869 L612.338,833.869"/><path fill="#fff" stroke="#000100" stroke-width="2" d="M612.337,752.605 C614.889,752.605,616.958,754.62,616.958,757.105 C616.958,759.591,614.889,761.605,612.337,761.605 C609.786,761.605,607.717,759.591,607.717,757.105 C607.717,754.62,609.786,752.605,612.337,752.605 Z"/><path stroke="#000100" stroke-width="2" d="M612.337,680.605 C614.889,680.605,616.958,682.62,616.958,685.105 C616.958,687.591,614.889,689.605,612.337,689.605 C609.786,689.605,607.717,687.591,607.717,685.105 C607.717,682.62,609.786,680.605,612.337,680.605 Z"/><path fill="#fff" stroke="#000100" stroke-width="2" d="M684.338,680.869 C686.89,680.869,688.958,682.884,688.958,685.369 C688.958,687.854,686.89,689.869,684.338,689.869 C681.786,689.869,679.717,687.854,679.717,685.369 C679.717,682.884,681.786,680.869,684.338,680.869 Z"/><path fill="#fff" stroke="#000100" stroke-width="2" d="M540.338,680.869 C542.89,680.869,544.958,682.884,544.958,685.369 C544.958,687.854,542.89,689.869,540.338,689.869 C537.786,689.869,535.717,687.854,535.717,685.369 C535.717,682.884,537.786,680.869,540.338,680.869 Z"/><path fill="#fff" stroke="#000100" stroke-width="2" d="M468.338,752.869 C470.89,752.869,472.958,754.884,472.958,757.369 C472.958,759.854,470.89,761.869,468.338,761.869 C465.786,761.869,463.717,759.854,463.717,757.369 C463.717,754.884,465.786,752.869,468.338,752.869 Z"/><path stroke="#000100" stroke-width="2" d="M468.338,680.869 C470.89,680.869,472.958,682.884,472.958,685.369 C472.958,687.854,470.89,689.869,468.338,689.869 C465.786,689.869,463.717,687.854,463.717,685.369 C463.717,682.884,465.786,680.869,468.338,680.869 Z"/><path stroke="#000100" stroke-width="2" d="M396.338,752.869 C398.89,752.869,400.958,754.884,400.958,757.369 C400.958,759.854,398.89,761.869,396.338,761.869 C393.786,761.869,391.717,759.854,391.717,757.369 C391.717,754.884,393.786,752.869,396.338,752.869 Z"/><path fill="#fff" stroke="#000100" stroke-width="2" d="M396.338,680.869 C398.89,680.869,400.958,682.884,400.958,685.369 C400.958,687.854,398.89,689.869,396.338,689.869 C393.786,689.869,391.717,687.854,391.717,685.369 C391.717,682.884,393.786,680.869,396.338,680.869 Z"/><path fill="#fff" stroke="#000100" d="M468.338,829.105 L468.338,901.369"/><path fill="#fff" stroke="#000100" d="M396.338,829.105 L396.338,901.369"/><path fill="#fff" stroke="#000100" d="M391.717,901.369 L684.338,901.369"/><path fill="#fff" stroke="#000100" d="M540.338,833.869 L540.338,901.369"/><path fill="#fff" stroke="#000100" d="M612.338,813.869 L612.338,901.369"/><path stroke="#000100" stroke-width="2" d="M468.338,824.869 C470.89,824.869,472.958,826.884,472.958,829.369 C472.958,831.854,470.89,833.869,468.338,833.869 C465.786,833.869,463.717,831.854,463.717,829.369 C463.717,826.884,465.786,824.869,468.338,824.869 Z"/><path fill="#fff" stroke="#000100" stroke-width="2" d="M540.338,824.869 C542.89,824.869,544.958,826.884,544.958,829.369 C544.958,831.854,542.89,833.869,540.338,833.869 C537.786,833.869,535.717,831.854,535.717,829.369 C535.717,826.884,537.786,824.869,540.338,824.869 Z"/><path stroke="#000100" stroke-width="2" d="M612.338,824.869 C614.89,824.869,616.958,826.884,616.958,829.369 C616.958,831.854,614.89,833.869,612.338,833.869 C609.786,833.869,607.717,831.854,607.717,829.369 C607.717,826.884,609.786,824.869,612.338,824.869 Z"/><path fill="#fff" stroke="#000100" stroke-width="2" d="M684.338,824.869 C686.89,824.869,688.958,826.884,688.958,829.369 C688.958,831.854,686.89,833.869,684.338,833.869 C681.786,833.869,679.717,831.854,679.717,829.369 C679.717,826.884,681.786,824.869,684.338,824.869 Z"/><path fill="#fff" stroke="#000100" stroke-width="2" d="M396.338,824.869 C398.89,824.869,400.958,826.884,400.958,829.369 C400.958,831.854,398.89,833.869,396.338,833.869 C393.786,833.869,391.717,831.854,391.717,829.369 C391.717,826.884,393.786,824.869,396.338,824.869 Z"/><path stroke="#000100" stroke-width="2" d="M684.338,753.445 C686.89,753.445,688.958,755.46,688.958,757.945 C688.958,760.431,686.89,762.445,684.338,762.445 C681.786,762.445,679.717,760.431,679.717,757.945 C679.717,755.46,681.786,753.445,684.338,753.445 Z"/><path stroke="#000100" stroke-width="2" d="M540.338,753.445 C542.89,753.445,544.958,755.46,544.958,757.945 C544.958,760.431,542.89,762.445,540.338,762.445 C537.786,762.445,535.717,760.431,535.717,757.945 C535.717,755.46,537.786,753.445,540.338,753.445 Z"/><path fill="#fff" stroke="#000100" stroke-width="2" d="M468.338,896.869 C470.89,896.869,472.958,898.884,472.958,901.369 C472.958,903.854,470.89,905.869,468.338,905.869 C465.786,905.869,463.717,903.854,463.717,901.369 C463.717,898.884,465.786,896.869,468.338,896.869 Z"/><path stroke="#000100" stroke-width="2" d="M540.338,896.869 C542.89,896.869,544.958,898.884,544.958,901.369 C544.958,903.854,542.89,905.869,540.338,905.869 C537.786,905.869,535.717,903.854,535.717,901.369 C535.717,898.884,537.786,896.869,540.338,896.869 Z"/><path fill="#fff" stroke="#000100" stroke-width="2" d="M612.338,896.869 C614.89,896.869,616.958,898.884,616.958,901.369 C616.958,903.854,614.89,905.869,612.338,905.869 C609.786,905.869,607.717,903.854,607.717,901.369 C607.717,898.884,609.786,896.869,612.338,896.869 Z"/><path stroke="#000100" stroke-width="2" d="M684.338,896.869 C686.89,896.869,688.958,898.884,688.958,901.369 C688.958,903.854,686.89,905.869,684.338,905.869 C681.786,905.869,679.717,903.854,679.717,901.369 C679.717,898.884,681.786,896.869,684.338,896.869 Z"/><path stroke="#000100" stroke-width="2" d="M396.338,896.869 C398.89,896.869,400.958,898.884,400.958,901.369 C400.958,903.854,398.89,905.869,396.338,905.869 C393.786,905.869,391.717,903.854,391.717,901.369 C391.717,898.884,393.786,896.869,396.338,896.869 Z"/><path fill="#fff" stroke="#d20000" stroke-width="6" d="M103.717,397.225 L40.9583,397.225"/><path fill="#fff" stroke="#d20000" stroke-width="6" d="M175.717,469.225 L112.958,469.225"/><path fill="#fff" stroke="#d20000" stroke-width="6" d="M103.717,541.225 L40.9583,541.225"/><path fill="#fff" stroke="#d20000" stroke-width="6" d="M175.717,613.225 L112.958,613.225"/><path fill="#fff" stroke="#d20000" stroke-width="6" d="M247.717,541.225 L184.958,541.225"/><path fill="#fff" stroke="#d20000" stroke-width="6" d="M319.717,469.225 L256.958,469.225"/><path fill="#fff" stroke="#d20000" stroke-width="6" d="M247.717,397.225 L184.958,397.225"/><path fill="#fff" stroke="#d20000" stroke-width="6" d="M319.717,613.225 L256.958,613.225"/><path fill="#fff" stroke="#ffc013" stroke-width="6" d="M468.338,401.846 L468.338,464.604"/><path fill="#fff" stroke="#ffc013" stroke-width="6" d="M612.338,401.846 L612.338,464.604"/><path fill="#fff" stroke="#ffc013" stroke-width="6" d="M540.338,473.846 L540.338,536.604"/><path fill="#fff" stroke="#ffc013" stroke-width="6" d="M468.338,545.846 L468.338,608.604"/><path fill="#fff" stroke="#ffc013" stroke-width="6" d="M396.338,473.846 L396.338,536.604"/><path fill="#fff" stroke="#ffc013" stroke-width="6" d="M612.338,545.846 L612.338,608.604"/><path fill="#fff" stroke="#ffc013" stroke-width="6" d="M684.338,473.846 L684.338,536.604"/><path fill="#fff" stroke="#009c0f" stroke-width="6" d="M535.717,685.225 L472.958,685.225"/><path fill="#fff" stroke="#009c0f" stroke-width="6" d="M679.717,685.225 L616.958,685.225"/><path fill="#fff" stroke="#009c0f" stroke-width="6" d="M463.717,757.225 L400.958,757.225"/><path fill="#fff" stroke="#009c0f" stroke-width="6" d="M607.717,757.225 L544.958,757.225"/><path fill="#fff" stroke="#009c0f" stroke-width="6" d="M535.717,829.225 L472.958,829.225"/><path fill="#fff" stroke="#009c0f" stroke-width="6" d="M679.717,829.225 L616.958,829.225"/><path fill="#fff" stroke="#009c0f" stroke-width="6" d="M463.717,901.225 L400.958,901.225"/><path fill="#fff" stroke="#009c0f" stroke-width="6" d="M607.717,901.225 L544.958,901.225"/><path fill="#fff" stroke="#9c870d" stroke-width="6" d="M36.3376,689.846 L36.3376,752.604"/><path fill="#fff" stroke="#9c870d" stroke-width="6" d="M36.3376,833.846 L36.3376,896.604"/><path fill="#fff" stroke="#9c870d" stroke-width="6" d="M108.338,761.846 L108.338,824.604"/><path fill="#fff" stroke="#9c870d" stroke-width="6" d="M180.338,689.846 L180.338,752.604"/><path fill="#fff" stroke="#9c870d" stroke-width="6" d="M180.338,833.846 L180.338,896.604"/><path fill="#fff" stroke="#9c870d" stroke-width="6" d="M252.338,761.846 L252.338,824.604"/><path fill="#fff" stroke="#9c870d" stroke-width="6" d="M324.338,689.846 L324.338,752.604"/><path fill="#fff" stroke="#9c870d" stroke-width="6" d="M324.338,833.846 L324.338,896.604"/><g clip-path="url(#7fc8750c98b0)"><clipPath id="7fc8750c98b0"><path fill="#000" fill-opacity="0.35" d="M338.01,518.913 L382.01,518.913 L382.01,490.913 L338.01,490.913 Z"/></clipPath><path fill="#000" d="M370.815,501.339 C372.838,503.043,375.235,504.268,376.833,505.014 C375.128,505.759,372.785,506.984,370.815,508.688 L340.566,508.688 C339.714,508.688,338.808,508.688,338.808,509.593 C338.808,510.552,339.714,510.552,340.513,510.552 L368.684,510.552 C366.395,512.789,363.892,516.943,363.892,517.582 C363.892,518.114,364.531,518.114,364.797,518.114 C365.223,518.114,365.542,518.114,365.702,517.742 C366.714,515.931,368.045,513.375,371.134,510.605 C374.436,507.73,377.631,506.398,380.134,505.706 C380.933,505.44,380.986,505.386,381.093,505.28 C381.199,505.227,381.199,505.067,381.199,505.014 C381.199,504.907,381.199,504.801,381.146,504.694 L380.986,504.588 C380.88,504.588,380.827,504.534,379.921,504.215 C373.477,502.298,368.738,497.984,366.075,492.871 C365.542,491.913,365.489,491.86,364.85,491.86 C364.531,491.86,363.892,491.86,363.892,492.392 C363.892,493.031,366.341,497.185,368.684,499.422 L340.513,499.422 C339.714,499.422,338.862,499.422,338.862,500.38 C338.862,501.339,339.767,501.339,340.566,501.339 L370.815,501.339"/></g><g clip-path="url(#7fc87423a790)"><clipPath id="7fc87423a790"><path fill="#000" fill-opacity="0.35" d="M381.998,806.913 L337.998,806.913 L337.998,778.913 L381.998,778.913 Z"/></clipPath><path fill="#000" d="M349.193,789.339 C347.17,791.043,344.773,792.268,343.175,793.014 C344.88,793.759,347.223,794.984,349.193,796.688 L379.442,796.688 C380.294,796.688,381.199,796.688,381.199,797.593 C381.199,798.552,380.294,798.552,379.495,798.552 L351.323,798.552 C353.613,800.789,356.116,804.943,356.116,805.582 C356.116,806.114,355.477,806.114,355.211,806.114 C354.785,806.114,354.465,806.114,354.306,805.742 C353.294,803.931,351.963,801.375,348.874,798.605 C345.572,795.73,342.377,794.398,339.874,793.706 C339.075,793.44,339.022,793.386,338.915,793.28 C338.808,793.227,338.808,793.067,338.808,793.014 C338.808,792.907,338.808,792.801,338.862,792.694 L339.022,792.588 C339.128,792.588,339.181,792.534,340.087,792.215 C346.531,790.298,351.27,785.984,353.933,780.871 C354.465,779.913,354.519,779.86,355.158,779.86 C355.477,779.86,356.116,779.86,356.116,780.392 C356.116,781.031,353.667,785.185,351.323,787.422 L379.495,787.422 C380.294,787.422,381.146,787.422,381.146,788.38 C381.146,789.339,380.241,789.339,379.442,789.339 L349.193,789.339"/></g><g clip-path="url(#7fc87507bca0)"><clipPath id="7fc87507bca0"><path fill="#000" fill-opacity="0.35" d="M193.93,670.981 L193.93,626.981 L165.93,626.981 L165.93,670.981 Z"/></clipPath><path fill="#000" d="M176.356,638.176 C178.06,636.152,179.285,633.756,180.031,632.158 C180.776,633.862,182.001,636.206,183.705,638.176 L183.705,668.425 C183.705,669.277,183.705,670.182,184.611,670.182 C185.569,670.182,185.569,669.277,185.569,668.478 L185.569,640.306 C187.806,642.596,191.96,645.099,192.599,645.099 C193.131,645.099,193.131,644.46,193.131,644.194 C193.131,643.768,193.131,643.448,192.759,643.289 C190.948,642.277,188.392,640.946,185.622,637.857 C182.747,634.555,181.415,631.36,180.723,628.857 C180.457,628.058,180.403,628.005,180.297,627.898 C180.244,627.791,180.084,627.791,180.031,627.791 C179.924,627.791,179.818,627.791,179.711,627.845 L179.605,628.005 C179.605,628.111,179.551,628.164,179.232,629.07 C177.315,635.513,173.001,640.253,167.888,642.916 C166.93,643.448,166.877,643.502,166.877,644.141 C166.877,644.46,166.877,645.099,167.409,645.099 C168.048,645.099,172.202,642.65,174.439,640.306 L174.439,668.478 C174.439,669.277,174.439,670.129,175.397,670.129 C176.356,670.129,176.356,669.224,176.356,668.425 L176.356,638.176"/></g><g clip-path="url(#7fc8750c4050)"><clipPath id="7fc8750c4050"><path fill="#000" fill-opacity="0.35" d="M553.93,626.993 L553.93,670.993 L525.93,670.993 L525.93,626.993 Z"/></clipPath><path fill="#000" d="M536.356,659.798 C538.06,661.821,539.285,664.218,540.031,665.816 C540.776,664.111,542.001,661.768,543.705,659.798 L543.705,629.549 C543.705,628.697,543.705,627.791,544.611,627.791 C545.569,627.791,545.569,628.697,545.569,629.496 L545.569,657.667 C547.806,655.377,551.96,652.875,552.599,652.875 C553.131,652.875,553.131,653.514,553.131,653.78 C553.131,654.206,553.131,654.525,552.759,654.685 C550.948,655.697,548.392,657.028,545.622,660.117 C542.747,663.419,541.415,666.614,540.723,669.117 C540.457,669.916,540.403,669.969,540.297,670.076 C540.244,670.182,540.084,670.182,540.031,670.182 C539.924,670.182,539.818,670.182,539.711,670.129 L539.605,669.969 C539.605,669.863,539.551,669.81,539.232,668.904 C537.315,662.46,533.001,657.721,527.888,655.058 C526.93,654.525,526.877,654.472,526.877,653.833 C526.877,653.514,526.877,652.875,527.409,652.875 C528.048,652.875,532.202,655.324,534.439,657.667 L534.439,629.496 C534.439,628.697,534.439,627.845,535.397,627.845 C536.356,627.845,536.356,628.75,536.356,629.549 L536.356,659.798"/></g></g><g><path fill="#fff" stroke="#000100" d="M23.7169,109.369 L316.338,109.369"/><path fill="#fff" stroke="#000100" d="M23.7169,181.369 L316.338,181.369"/><path fill="#fff" stroke="#000100" d="M100.338,32.8694 L100.338,185.869"/><path fill="#fff" stroke="#000100" d="M28.338,32.8694 L28.338,185.869"/><path fill="#fff" stroke="#000100" d="M23.7169,37.3694 L320.958,37.3694"/><path fill="#fff" stroke="#000100" d="M172.338,32.8694 L172.338,185.869"/><path fill="#fff" stroke="#000100" d="M244.338,32.8694 L244.338,185.869"/><path fill="#fff" stroke="#000100" stroke-width="2" d="M244.337,104.605 C246.889,104.605,248.958,106.62,248.958,109.105 C248.958,111.591,246.889,113.605,244.337,113.605 C241.786,113.605,239.717,111.591,239.717,109.105 C239.717,106.62,241.786,104.605,244.337,104.605 Z"/><path stroke="#000100" stroke-width="2" d="M244.337,32.6055 C246.889,32.6055,248.958,34.62,248.958,37.1055 C248.958,39.5909,246.889,41.6055,244.337,41.6055 C241.786,41.6055,239.717,39.5909,239.717,37.1055 C239.717,34.62,241.786,32.6055,244.337,32.6055 Z"/><path fill="#fff" stroke="#000100" stroke-width="2" d="M172.338,32.8694 C174.89,32.8694,176.958,34.884,176.958,37.3694 C176.958,39.8545,174.89,41.8694,172.338,41.8694 C169.786,41.8694,167.717,39.8545,167.717,37.3694 C167.717,34.884,169.786,32.8694,172.338,32.8694 Z"/><path fill="#fff" stroke="#000100" stroke-width="2" d="M100.338,104.869 C102.89,104.869,104.958,106.884,104.958,109.369 C104.958,111.854,102.89,113.869,100.338,113.869 C97.786,113.869,95.7169,111.854,95.7169,109.369 C95.7169,106.884,97.786,104.869,100.338,104.869 Z"/><path stroke="#000100" stroke-width="2" d="M100.338,32.8694 C102.89,32.8694,104.958,34.884,104.958,37.3694 C104.958,39.8545,102.89,41.8694,100.338,41.8694 C97.786,41.8694,95.7169,39.8545,95.7169,37.3694 C95.7169,34.884,97.786,32.8694,100.338,32.8694 Z"/><path stroke="#000100" stroke-width="2" d="M28.338,104.869 C30.89,104.869,32.9583,106.884,32.9583,109.369 C32.9583,111.854,30.89,113.869,28.338,113.869 C25.786,113.869,23.7169,111.854,23.7169,109.369 C23.7169,106.884,25.786,104.869,28.338,104.869 Z"/><path fill="#fff" stroke="#000100" stroke-width="2" d="M28.338,32.8694 C30.89,32.8694,32.9583,34.884,32.9583,37.3694 C32.9583,39.8545,30.89,41.8694,28.338,41.8694 C25.786,41.8694,23.7169,39.8545,23.7169,37.3694 C23.7169,34.884,25.786,32.8694,28.338,32.8694 Z"/><path fill="#fff" stroke="#000100" d="M100.338,181.105 L100.338,253.369"/><path fill="#fff" stroke="#000100" d="M28.338,181.105 L28.338,253.369"/><path fill="#fff" stroke="#000100" d="M23.7169,253.369 L316.338,253.369"/><path fill="#fff" stroke="#000100" d="M172.338,185.869 L172.338,253.369"/><path fill="#fff" stroke="#000100" d="M244.338,165.869 L244.338,253.369"/><path stroke="#000100" stroke-width="2" d="M100.338,176.869 C102.89,176.869,104.958,178.884,104.958,181.369 C104.958,183.854,102.89,185.869,100.338,185.869 C97.786,185.869,95.7169,183.854,95.7169,181.369 C95.7169,178.884,97.786,176.869,100.338,176.869 Z"/><path fill="#fff" stroke="#000100" stroke-width="2" d="M172.338,176.869 C174.89,176.869,176.958,178.884,176.958,181.369 C176.958,183.854,174.89,185.869,172.338,185.869 C169.786,185.869,167.717,183.854,167.717,181.369 C167.717,178.884,169.786,176.869,172.338,176.869 Z"/><path stroke="#000100" stroke-width="2" d="M244.338,176.869 C246.89,176.869,248.958,178.884,248.958,181.369 C248.958,183.854,246.89,185.869,244.338,185.869 C241.786,185.869,239.717,183.854,239.717,181.369 C239.717,178.884,241.786,176.869,244.338,176.869 Z"/><path fill="#fff" stroke="#000100" stroke-width="2" d="M28.338,176.869 C30.89,176.869,32.9583,178.884,32.9583,181.369 C32.9583,183.854,30.89,185.869,28.338,185.869 C25.786,185.869,23.7169,183.854,23.7169,181.369 C23.7169,178.884,25.786,176.869,28.338,176.869 Z"/><path stroke="#000100" stroke-width="2" d="M172.338,105.445 C174.89,105.445,176.958,107.46,176.958,109.945 C176.958,112.431,174.89,114.445,172.338,114.445 C169.786,114.445,167.717,112.431,167.717,109.945 C167.717,107.46,169.786,105.445,172.338,105.445 Z"/><path fill="#fff" stroke="#000100" stroke-width="2" d="M100.338,248.869 C102.89,248.869,104.958,250.884,104.958,253.369 C104.958,255.854,102.89,257.869,100.338,257.869 C97.786,257.869,95.7169,255.854,95.7169,253.369 C95.7169,250.884,97.786,248.869,100.338,248.869 Z"/><path stroke="#000100" stroke-width="2" d="M172.338,248.869 C174.89,248.869,176.958,250.884,176.958,253.369 C176.958,255.854,174.89,257.869,172.338,257.869 C169.786,257.869,167.717,255.854,167.717,253.369 C167.717,250.884,169.786,248.869,172.338,248.869 Z"/><path fill="#fff" stroke="#000100" stroke-width="2" d="M244.338,248.869 C246.89,248.869,248.958,250.884,248.958,253.369 C248.958,255.854,246.89,257.869,244.338,257.869 C241.786,257.869,239.717,255.854,239.717,253.369 C239.717,250.884,241.786,248.869,244.338,248.869 Z"/><path stroke="#000100" stroke-width="2" d="M28.338,248.869 C30.89,248.869,32.9583,250.884,32.9583,253.369 C32.9583,255.854,30.89,257.869,28.338,257.869 C25.786,257.869,23.7169,255.854,23.7169,253.369 C23.7169,250.884,25.786,248.869,28.338,248.869 Z"/><g><path fill="#fff" stroke="#d20000" stroke-width="6" d="M311.717,37.2251 L176.958,37.2251"/><path fill="none" stroke="#d20000" stroke-width="6" d="M194.958,46.2251 L176.958,37.2251 L194.958,28.2251"/></g><g><path fill="#fff" stroke="#63cf13" stroke-width="6" d="M104.958,253.225 L239.717,253.225"/><path fill="none" stroke="#63cf13" stroke-width="6" d="M221.717,244.225 L239.717,253.225 L221.717,262.225"/></g><g><path fill="#fff" stroke="#00a0fe" stroke-width="6" d="M98.0274,178.915 L98.0274,111.536"/><path fill="none" stroke="#00a0fe" stroke-width="6" d="M89.0274,129.536 L98.0274,111.536 L107.027,129.536"/></g><path fill="#fff" stroke="#00a0fe" stroke-width="6" d="M170.027,178.915 L170.027,111.536"/><path fill="#fff" stroke="#00a0fe" stroke-width="6" d="M100.338,181.225 L167.717,181.225"/><path fill="#fff" stroke="#00a0fe" stroke-width="6" d="M100.338,109.225 L167.717,109.225"/><g><path fill="#fff" stroke="#000100" d="M316.338,149.869 L316.338,253.369"/><path fill="#fff" stroke="#000100" d="M316.338,32.8694 L316.338,185.869"/><path fill="#fff" stroke="#000100" stroke-width="2" d="M316.338,32.8694 C318.89,32.8694,320.958,34.884,320.958,37.3694 C320.958,39.8545,318.89,41.8694,316.338,41.8694 C313.786,41.8694,311.717,39.8545,311.717,37.3694 C311.717,34.884,313.786,32.8694,316.338,32.8694 Z"/><path fill="#fff" stroke="#000100" stroke-width="2" d="M316.338,176.869 C318.89,176.869,320.958,178.884,320.958,181.369 C320.958,183.854,318.89,185.869,316.338,185.869 C313.786,185.869,311.717,183.854,311.717,181.369 C311.717,178.884,313.786,176.869,316.338,176.869 Z"/><path stroke="#000100" stroke-width="2" d="M316.338,105.445 C318.89,105.445,320.958,107.46,320.958,109.945 C320.958,112.431,318.89,114.445,316.338,114.445 C313.786,114.445,311.717,112.431,311.717,109.945 C311.717,107.46,313.786,105.445,316.338,105.445 Z"/><path stroke="#000100" stroke-width="2" d="M316.338,248.869 C318.89,248.869,320.958,250.884,320.958,253.369 C320.958,255.854,318.89,257.869,316.338,257.869 C313.786,257.869,311.717,255.854,311.717,253.369 C311.717,250.884,313.786,248.869,316.338,248.869 Z"/></g></g></svg>
