<?xml version="1.0" encoding="UTF-8" standalone="no"?>
<!DOCTYPE svg PUBLIC "-//W3C//DTD SVG 1.1//EN" "http://www.w3.org/Graphics/SVG/1.1/DTD/svg11.dtd">
<!--Generated by Intaglio, www.PurgatoryDesign.com-->
<svg version="1.1" viewBox="267,35,526,353" width="526" height="353" xmlns="http://www.w3.org/2000/svg" xmlns:xlink="http://www.w3.org/1999/xlink"><g><path fill="none" stroke="#000" d="M268.154,216.733 L438.254,216.733 L438.254,386.833 L268.154,386.833 Z"/><path fill="none" stroke="#007efd" stroke-width="2" d="M341.054,386.833 L341.054,216.733"/><path fill="none" stroke="#ff0004" stroke-width="2" d="M437.804,316.183 L267.704,316.183"/><g clip-path="url(#7fc874572b90)"><clipPath id="7fc874572b90"><path fill="#000" fill-opacity="0.35" d="M348.668,254.348 L368.463,254.348 L368.463,235.44 L348.668,235.44 Z"/></clipPath><g clip-path="url(#7fc874363d10)"><clipPath id="7fc874363d10"><path fill="#000" fill-opacity="0.35" d="M348.668,253.448 L368.468,253.448 L368.468,235.448 L348.668,235.448 Z"/></clipPath><path fill="#000" d="M357.918,237.19 C358.062,236.591,358.158,236.447,358.422,236.399 C358.613,236.351,359.308,236.351,359.764,236.351 C361.944,236.351,362.903,236.423,362.903,238.1 C362.903,238.436,362.807,239.275,362.735,239.826 C362.711,239.922,362.663,240.161,362.663,240.233 C362.663,240.353,362.735,240.521,362.927,240.521 C363.167,240.521,363.191,240.329,363.239,240.018 L363.814,236.279 C363.838,236.207,363.862,235.992,363.862,235.92 C363.862,235.68,363.646,235.68,363.287,235.68 L351.376,235.68 C350.849,235.68,350.849,235.704,350.681,236.111 L349.411,239.898 C349.387,239.922,349.267,240.233,349.267,240.281 C349.267,240.401,349.387,240.521,349.531,240.521 C349.746,240.521,349.77,240.401,349.89,240.066 C351.065,236.734,351.616,236.351,354.779,236.351 L355.618,236.351 C356.217,236.351,356.217,236.423,356.217,236.615 C356.217,236.734,356.169,236.998,356.145,237.046 L353.269,248.525 C353.078,249.316,353.006,249.556,350.705,249.556 C349.938,249.556,349.818,249.556,349.818,249.963 C349.818,250.203,350.034,250.203,350.178,250.203 C350.753,250.203,351.352,250.155,351.927,250.155 C352.526,250.155,353.149,250.155,353.749,250.155 C354.348,250.155,354.971,250.155,355.546,250.155 C356.169,250.155,356.816,250.203,357.415,250.203 C357.631,250.203,357.87,250.203,357.87,249.771 C357.87,249.532,357.703,249.532,357.152,249.532 C356.6,249.532,356.337,249.532,355.786,249.508 C355.162,249.436,354.971,249.364,354.971,249.028 C354.971,249.004,354.971,248.908,355.067,248.573 L357.918,237.19 Z"/><path fill="#000" d="M366.426,243.828 C366.426,243.421,366.402,243.397,365.971,243.397 C365.012,244.355,363.622,244.379,362.999,244.379 L362.999,244.906 C363.358,244.906,364.365,244.906,365.204,244.499 L365.204,252.216 C365.204,252.719,365.204,252.911,363.694,252.911 L363.119,252.911 L363.119,253.438 C363.382,253.438,365.252,253.39,365.803,253.39 C366.282,253.39,368.175,253.438,368.511,253.438 L368.511,252.911 L367.936,252.911 C366.426,252.911,366.426,252.719,366.426,252.216 L366.426,243.828 Z"/></g></g><g clip-path="url(#7fc8751eb790)"><clipPath id="7fc8751eb790"><path fill="#000" fill-opacity="0.35" d="M294.218,311.948 L314.924,311.948 L314.924,293.04 L294.218,293.04 Z"/></clipPath><g clip-path="url(#7fc87434a610)"><clipPath id="7fc87434a610"><path fill="#000" fill-opacity="0.35" d="M294.218,311.048 L314.918,311.048 L314.918,293.048 L294.218,293.048 Z"/></clipPath><path fill="#000" d="M303.468,294.79 C303.612,294.191,303.708,294.047,303.972,293.999 C304.163,293.951,304.858,293.951,305.314,293.951 C307.494,293.951,308.453,294.023,308.453,295.7 C308.453,296.036,308.357,296.875,308.285,297.426 C308.261,297.522,308.213,297.761,308.213,297.833 C308.213,297.953,308.285,298.121,308.477,298.121 C308.717,298.121,308.741,297.929,308.789,297.618 L309.364,293.879 C309.388,293.807,309.412,293.592,309.412,293.52 C309.412,293.28,309.196,293.28,308.837,293.28 L296.926,293.28 C296.399,293.28,296.399,293.304,296.231,293.711 L294.961,297.498 C294.937,297.522,294.817,297.833,294.817,297.881 C294.817,298.001,294.937,298.121,295.081,298.121 C295.296,298.121,295.32,298.001,295.44,297.666 C296.615,294.334,297.166,293.951,300.329,293.951 L301.168,293.951 C301.767,293.951,301.767,294.023,301.767,294.215 C301.767,294.334,301.719,294.598,301.695,294.646 L298.819,306.125 C298.628,306.916,298.556,307.156,296.255,307.156 C295.488,307.156,295.368,307.156,295.368,307.563 C295.368,307.803,295.584,307.803,295.728,307.803 C296.303,307.803,296.902,307.755,297.477,307.755 C298.076,307.755,298.699,307.755,299.299,307.755 C299.898,307.755,300.521,307.755,301.096,307.755 C301.719,307.755,302.366,307.803,302.965,307.803 C303.181,307.803,303.42,307.803,303.42,307.371 C303.42,307.132,303.253,307.132,302.702,307.132 C302.15,307.132,301.887,307.132,301.336,307.108 C300.712,307.036,300.521,306.964,300.521,306.628 C300.521,306.604,300.521,306.508,300.617,306.173 L303.468,294.79 Z"/><path fill="#000" d="M314.54,308.306 L314.037,308.306 C313.989,308.617,313.845,309.528,313.629,309.672 C313.51,309.768,312.359,309.768,312.144,309.768 L309.364,309.768 C310.945,308.354,311.473,307.922,312.383,307.227 C313.51,306.341,314.54,305.382,314.54,303.944 C314.54,302.123,312.934,300.997,311.017,300.997 C309.124,300.997,307.854,302.315,307.854,303.705 C307.854,304.495,308.501,304.567,308.669,304.567 C309.028,304.567,309.46,304.304,309.46,303.753 C309.46,303.489,309.364,302.962,308.573,302.962 C309.052,301.883,310.083,301.548,310.778,301.548 C312.287,301.548,313.078,302.722,313.078,303.944 C313.078,305.262,312.144,306.317,311.664,306.868 L308.022,310.463 C307.854,310.606,307.854,310.63,307.854,311.038 L314.085,311.038 L314.54,308.306 Z"/></g></g><g><g><path fill="none" stroke="#007efd" stroke-linecap="round" stroke-dasharray="2" d="M613.059,315.603 C619.059,315.603,623.289,319.672,625.059,324.003 C628.224,331.747,628.229,341.244,627.159,350.103 C626.339,356.889,624.056,363.964,619.659,368.703 C615.971,372.679,613.059,374.103,604.059,375.003"/><path fill="none" stroke="#000100" stroke-width="1.5" d="M791.859,299.703 C791.859,342.782,726.582,377.703,646.059,377.703 C565.536,377.703,500.259,342.782,500.259,299.703 C500.259,256.625,565.536,221.703,646.059,221.703 C726.582,221.703,791.859,256.625,791.859,299.703 Z"/><g><path fill="none" stroke="#000100" stroke-width="1.5" stroke-linecap="round" d="M562.659,285.373 C584.859,307.503,610.395,318.244,643.059,318.903 C667.935,319.406,691.659,314.703,705.459,292.503"/><path fill="none" stroke="#000100" stroke-width="1.5" stroke-linecap="round" d="M595.059,308.424 C597.459,295.364,621.276,277.847,637.059,277.824 C654.036,277.799,680.259,287.703,686.259,306.624"/></g><path fill="none" stroke="#007efd" stroke-linecap="round" d="M603.759,374.103 C589.959,363.303,591.226,353.703,591.459,341.703 C591.646,332.073,599.559,318.603,612.159,315.603"/><path fill="none" stroke="#ff0004" d="M764.859,297.078 C764.859,323.464,712.074,344.853,646.959,344.853 C581.845,344.853,529.059,323.464,529.059,297.078 C529.059,270.693,581.845,249.303,646.959,249.303 C712.074,249.303,764.859,270.693,764.859,297.078 Z"/></g><g clip-path="url(#7fc8745edfa0)"><clipPath id="7fc8745edfa0"><path fill="#000" fill-opacity="0.35" d="M572.674,366.203 L592.469,366.203 L592.469,347.295 L572.674,347.295 Z"/></clipPath><g clip-path="url(#7fc8745bd8f0)"><clipPath id="7fc8745bd8f0"><path fill="#000" fill-opacity="0.35" d="M572.674,365.303 L592.474,365.303 L592.474,347.303 L572.674,347.303 Z"/></clipPath><path fill="#000" d="M581.924,349.045 C582.068,348.446,582.164,348.302,582.428,348.254 C582.619,348.206,583.314,348.206,583.77,348.206 C585.95,348.206,586.909,348.278,586.909,349.955 C586.909,350.291,586.813,351.13,586.741,351.681 C586.717,351.777,586.669,352.016,586.669,352.088 C586.669,352.208,586.741,352.376,586.933,352.376 C587.173,352.376,587.197,352.184,587.244,351.872 L587.82,348.134 C587.844,348.062,587.868,347.846,587.868,347.775 C587.868,347.535,587.652,347.535,587.292,347.535 L575.382,347.535 C574.855,347.535,574.855,347.559,574.687,347.966 L573.417,351.753 C573.393,351.777,573.273,352.088,573.273,352.136 C573.273,352.256,573.393,352.376,573.537,352.376 C573.752,352.376,573.776,352.256,573.896,351.92 C575.07,348.589,575.622,348.206,578.785,348.206 L579.624,348.206 C580.223,348.206,580.223,348.278,580.223,348.47 C580.223,348.589,580.175,348.853,580.151,348.901 L577.275,360.38 C577.083,361.171,577.012,361.41,574.711,361.41 C573.944,361.41,573.824,361.41,573.824,361.818 C573.824,362.058,574.04,362.058,574.184,362.058 C574.759,362.058,575.358,362.01,575.933,362.01 C576.532,362.01,577.155,362.01,577.754,362.01 C578.354,362.01,578.977,362.01,579.552,362.01 C580.175,362.01,580.822,362.058,581.421,362.058 C581.637,362.058,581.876,362.058,581.876,361.626 C581.876,361.387,581.709,361.387,581.157,361.387 C580.606,361.387,580.343,361.387,579.791,361.363 C579.168,361.291,578.977,361.219,578.977,360.883 C578.977,360.859,578.977,360.763,579.072,360.428 L581.924,349.045 Z"/><path fill="#000" d="M590.432,355.683 C590.432,355.276,590.408,355.252,589.976,355.252 C589.018,356.21,587.628,356.234,587.005,356.234 L587.005,356.761 C587.364,356.761,588.371,356.761,589.21,356.354 L589.21,364.071 C589.21,364.574,589.21,364.766,587.7,364.766 L587.125,364.766 L587.125,365.293 C587.388,365.293,589.257,365.245,589.809,365.245 C590.288,365.245,592.181,365.293,592.517,365.293 L592.517,364.766 L591.942,364.766 C590.432,364.766,590.432,364.574,590.432,364.071 L590.432,355.683 Z"/></g></g><g clip-path="url(#7fc8745f78f0)"><clipPath id="7fc8745f78f0"><path fill="#000" fill-opacity="0.35" d="M571.887,253.841 L592.593,253.841 L592.593,234.932 L571.887,234.932 Z"/></clipPath><g clip-path="url(#7fc87431a8d0)"><clipPath id="7fc87431a8d0"><path fill="#000" fill-opacity="0.35" d="M571.887,252.941 L592.587,252.941 L592.587,234.941 L571.887,234.941 Z"/></clipPath><path fill="#000" d="M581.138,236.682 C581.281,236.083,581.377,235.939,581.641,235.891 C581.833,235.843,582.528,235.843,582.983,235.843 C585.164,235.843,586.122,235.915,586.122,237.593 C586.122,237.928,586.027,238.767,585.955,239.318 C585.931,239.414,585.883,239.654,585.883,239.725 C585.883,239.845,585.955,240.013,586.146,240.013 C586.386,240.013,586.41,239.821,586.458,239.51 L587.033,235.771 C587.057,235.699,587.081,235.484,587.081,235.412 C587.081,235.172,586.865,235.172,586.506,235.172 L574.595,235.172 C574.068,235.172,574.068,235.196,573.9,235.603 L572.63,239.39 C572.606,239.414,572.486,239.725,572.486,239.773 C572.486,239.893,572.606,240.013,572.75,240.013 C572.966,240.013,572.99,239.893,573.11,239.558 C574.284,236.227,574.835,235.843,577.998,235.843 L578.837,235.843 C579.436,235.843,579.436,235.915,579.436,236.107 C579.436,236.227,579.388,236.49,579.364,236.538 L576.489,248.017 C576.297,248.808,576.225,249.048,573.924,249.048 C573.157,249.048,573.038,249.048,573.038,249.455 C573.038,249.695,573.253,249.695,573.397,249.695 C573.972,249.695,574.571,249.647,575.147,249.647 C575.746,249.647,576.369,249.647,576.968,249.647 C577.567,249.647,578.19,249.647,578.765,249.647 C579.388,249.647,580.035,249.695,580.634,249.695 C580.85,249.695,581.09,249.695,581.09,249.263 C581.09,249.024,580.922,249.024,580.371,249.024 C579.82,249.024,579.556,249.024,579.005,249 C578.382,248.928,578.19,248.856,578.19,248.52 C578.19,248.497,578.19,248.401,578.286,248.065 L581.138,236.682 Z"/><path fill="#000" d="M592.209,250.198 L591.706,250.198 C591.658,250.51,591.514,251.42,591.299,251.564 C591.179,251.66,590.029,251.66,589.813,251.66 L587.033,251.66 C588.615,250.246,589.142,249.815,590.053,249.12 C591.179,248.233,592.209,247.274,592.209,245.836 C592.209,244.015,590.604,242.889,588.687,242.889 C586.793,242.889,585.523,244.207,585.523,245.597 C585.523,246.388,586.17,246.46,586.338,246.46 C586.697,246.46,587.129,246.196,587.129,245.645 C587.129,245.381,587.033,244.854,586.242,244.854 C586.721,243.775,587.752,243.44,588.447,243.44 C589.957,243.44,590.748,244.614,590.748,245.836 C590.748,247.155,589.813,248.209,589.334,248.76 L585.691,252.355 C585.523,252.499,585.523,252.523,585.523,252.93 L591.754,252.93 L592.209,250.198 Z"/></g></g></g></g><g><g><path fill="none" stroke="#000" stroke-width="2" d="M324,144 L576.004,144"/><path fill="none" stroke="#000" stroke-width="2" d="M432,36 L684.004,36"/><path fill="none" stroke="#000" stroke-width="2" d="M324,144 L432,36"/><path fill="none" stroke="#000" stroke-width="2" d="M576,144 L684,36"/></g><g><g><path fill="#fff" fill-opacity="0.01" d="M576.004,90 C576.004,99.9411,543.768,108,504.002,108 C464.236,108,432,99.9411,432,90 C432,80.0589,464.236,72,504.002,72 C543.768,72,576.004,80.0589,576.004,90 Z"/><path fill="none" stroke="#000" stroke-width="2" d="M568.155,98.1724 L568.155,98.1724 C550.101,107.03,506.742,110.551,471.312,106.038 C435.881,101.524,421.794,90.685,439.849,81.8276 C457.904,72.9701,501.262,69.4487,536.693,73.9622 C560.816,77.0352,576.004,83.2315,576.004,90 Z"/><path d="M565.463,93.9242 C569.149,93.7031,573.892,93.8394,576.004,90 C577.232,95.3548,572.96,99.4825,569.745,102.961"/></g><path fill="#0065cb" stroke="#000" stroke-width="2" d="M512.009,90 C512.009,94.9706,507.979,99,503.009,99 C498.038,99,494.009,94.9706,494.009,90 C494.009,85.0294,498.038,81,503.009,81 C507.979,81,512.009,85.0294,512.009,90 Z"/><path fill="#0065cb" stroke="#000" stroke-width="2" d="M443,90 C443,94.9706,438.971,99,434,99 C429.029,99,425,94.9706,425,90 C425,85.0294,429.029,81,434,81 C438.971,81,443,85.0294,443,90 Z"/></g></g></svg>
