<?xml version="1.0" encoding="UTF-8" standalone="no"?>
<!DOCTYPE svg PUBLIC "-//W3C//DTD SVG 1.1//EN" "http://www.w3.org/Graphics/SVG/1.1/DTD/svg11.dtd">
<!--Generated by Intaglio, www.PurgatoryDesign.com-->
<svg version="1.1" viewBox="76,22,412,713" width="412" height="713" xmlns="http://www.w3.org/2000/svg" xmlns:xlink="http://www.w3.org/1999/xlink"><defs><pattern id="7fc8742c5960" width="24" height="21" patternUnits="userSpaceOnUse"><rect fill="#fffffe" width="24" height="24"/><path fill="none" stroke="#000" d="M12,6.5 C12,9.81371,9.31371,12.5,6,12.5 C2.68629,12.5,-2.98023e-07,9.81371,-2.98023e-07,6.5 C-2.98023e-07,3.18629,2.68629,0.5,6,0.5 C9.31371,0.5,12,3.18629,12,6.5 Z"/><path fill="none" stroke="#000" d="M18,17 C18,20.3137,15.3137,23,12,23 C8.68629,23,6,20.3137,6,17 C6,13.6863,8.68629,11,12,11 C15.3137,11,18,13.6863,18,17 Z"/><path fill="none" stroke="#000" d="M24,6.5 C24,9.81371,21.3137,12.5,18,12.5 C14.6863,12.5,12,9.81371,12,6.5 C12,3.18629,14.6863,0.5,18,0.5 C21.3137,0.5,24,3.18629,24,6.5 Z"/><path fill="none" stroke="#000" d="M-1.77141e-07,11 C3.31371,11,6,13.6863,6,17 C6,20.3137,3.31371,23,3.47395e-07,23 C1.64523e-07,23,5.73097e-09,23,-1.77141e-07,23"/><path fill="none" stroke="#000" d="M24,11 C20.6863,11,18,13.6863,18,17 C18,20.3137,20.6863,23,24,23 C24,23,24,23,24,23"/></pattern></defs><path fill="#9c9c9c" fill-opacity="0.65" stroke="#000" stroke-width="2" d="M437,292 L294.002,292 L294.002,473 L437,473"/><text font-family="American Typewriter" font-size="30" transform="matrix(1,0,0,1,292.577,275.974)" xml:space="preserve"><tspan>supercond.</tspan></text><path fill="#fff" stroke="#000" stroke-width="2" d="M76,97 L187,97 L187,133 L76,133"/><text font-family="American Typewriter" font-size="30" text-anchor="middle" transform="matrix(1,0,0,1,416.09,50.545)" xml:space="preserve"><tspan>graphene</tspan><tspan x="0" y="36">dot</tspan></text><path fill="none" stroke="#000" stroke-width="2" d="M187,166 L200.75,135.75"/><text font-family="American Typewriter" font-size="30" transform="matrix(1,0,0,1,137.75,193.295)" xml:space="preserve"><tspan>barrier</tspan></text><text font-family="American Typewriter" font-size="30" transform="matrix(1,0,0,1,124.75,122.545)" xml:space="preserve"><tspan>lead</tspan></text><path fill="none" stroke="#000" stroke-width="2" d="M376,82.53 L387.75,56.68"/><path fill="#3c3c3c" stroke="#000" stroke-width="2" d="M187,97 L227.5,97 L227.5,133 L187,133 Z"/><pattern id="7fc8742f3b80" xlink:href="#7fc8742c5960" patternTransform="matrix(1,0,0,1,-32,-371)"/><path fill="url(#7fc8742f3b80)" stroke="#000" stroke-width="2" stroke-linecap="round" d="M267.832,69.8236 C252.432,78.2236,233.322,81.1112,223.832,93.8236 C214.772,105.961,207.858,128.764,214.832,140.824 C224.658,157.814,250.083,173.331,271.832,176.824 C298.033,181.031,329.323,175.377,351.832,162.824 C365.723,155.077,374.426,134.824,375.832,118.824 C377.226,102.974,370.551,83.5966,359.832,71.8236 C349.201,60.1466,330.761,51.8236,314.832,51.8236 C296.811,51.8236,281.032,64.8236,262.832,71.8236"/><path fill="#3c3c3c" stroke="#000" stroke-width="2" d="M187,365 L227.5,365 L227.5,401 L187,401 Z"/><path fill="#fff" stroke="#000" stroke-width="2" d="M76,365 L187,365 L187,401 L76,401"/><path fill="#fff" stroke="#000" stroke-width="2" stroke-linecap="round" d="M267.832,337.824 C252.432,346.224,233.322,349.111,223.832,361.824 C214.772,373.961,207.858,396.764,214.832,408.824 C224.658,425.814,250.083,441.331,271.832,444.824 C298.033,449.031,329.323,443.377,351.832,430.824 C365.723,423.077,374.426,402.824,375.832,386.824 C377.226,370.974,370.551,351.597,359.832,339.824 C349.201,328.147,330.761,319.824,314.832,319.824 C296.811,319.824,281.032,332.824,262.832,339.824"/><text font-family="American Typewriter" font-size="30" transform="matrix(1,0,0,1,236,390.545)" xml:space="preserve"><tspan>dot</tspan></text><path fill="none" stroke="#000" stroke-width="2" d="M187,434 L200.75,403.75"/><text font-family="American Typewriter" font-size="30" transform="matrix(1,0,0,1,137.75,461.295)" xml:space="preserve"><tspan>barrier</tspan></text><text font-family="American Typewriter" font-size="30" transform="matrix(1,0,0,1,124.75,390.545)" xml:space="preserve"><tspan>lead</tspan></text><path fill="#3c3c3c" stroke="#000" stroke-width="2" d="M203,629.805 L243.5,629.805 L243.5,665.805 L203,665.805 Z"/><path fill="#fff" stroke="#000" stroke-width="2" d="M92,629.805 L203,629.805 L203,665.805 L92,665.805"/><path fill="#fff" stroke="#000" stroke-width="2" stroke-linecap="round" d="M283.832,602.629 C268.432,611.029,249.322,613.916,239.832,626.629 C230.772,638.766,223.858,661.569,230.832,673.629 C240.658,690.619,266.083,706.136,287.832,709.629 C314.033,713.836,345.323,708.182,367.832,695.629 C381.723,687.882,390.426,667.629,391.832,651.629 C393.226,635.779,386.551,616.402,375.832,604.629 C365.201,592.952,346.761,584.629,330.832,584.629 C312.811,584.629,297.032,597.629,278.832,604.629"/><text font-family="American Typewriter" font-size="30" transform="matrix(1,0,0,1,292.697,655.35)" xml:space="preserve"><tspan>dot</tspan></text><path fill="none" stroke="#000" stroke-width="2" d="M203,698.805 L216.75,668.555"/><text font-family="American Typewriter" font-size="30" transform="matrix(1,0,0,1,153.75,726.1)" xml:space="preserve"><tspan>barrier</tspan></text><text font-family="American Typewriter" font-size="30" transform="matrix(1,0,0,1,140.75,655.35)" xml:space="preserve"><tspan>lead</tspan></text></svg>
