<?xml version="1.0" encoding="UTF-8" standalone="no"?>
<!DOCTYPE svg PUBLIC "-//W3C//DTD SVG 1.1//EN" "http://www.w3.org/Graphics/SVG/1.1/DTD/svg11.dtd">
<!--Generated by Intaglio, www.PurgatoryDesign.com-->
<svg version="1.1" viewBox="34,19,1041,1510" width="1041" height="1510" xmlns="http://www.w3.org/2000/svg" xmlns:xlink="http://www.w3.org/1999/xlink"><g><text font-family="American Typewriter" font-size="24" transform="matrix(1,0,0,1,183.071,382.381)" xml:space="preserve"><tspan>A</tspan></text><text font-family="American Typewriter" font-size="24" transform="matrix(1,0,0,1,249.345,382.333)" xml:space="preserve"><tspan>B</tspan></text><g clip-path="url(#7fc872618f30)"><clipPath id="7fc872618f30"><path fill="#000" fill-opacity="0.35" d="M138.221,654.767 L153.43,654.767 L153.43,641.176 L138.221,641.176 Z"/></clipPath><g clip-path="url(#7fc87263a9a0)"><clipPath id="7fc87263a9a0"><path fill="#000" fill-opacity="0.35" d="M138.221,654.767 L153.421,654.767 L153.421,641.167 L138.221,641.167 Z"/></clipPath><path fill="#000" d="M147.104,645.607 C147.274,644.862,147.934,642.22,149.937,642.22 C150.086,642.22,150.767,642.22,151.385,642.604 C150.576,642.731,150.001,643.456,150.001,644.137 C150.001,644.606,150.32,645.16,151.087,645.16 C151.726,645.16,152.642,644.627,152.642,643.477 C152.642,641.986,150.938,641.581,149.979,641.581 C148.296,641.581,147.295,643.115,146.954,643.775 C146.23,641.879,144.675,641.581,143.844,641.581 C140.862,641.581,139.222,645.288,139.222,646.012 C139.222,646.31,139.52,646.31,139.563,646.31 C139.797,646.31,139.882,646.246,139.946,645.991 C140.926,642.944,142.822,642.22,143.802,642.22 C144.334,642.22,145.335,642.476,145.335,644.137 C145.335,645.032,144.845,646.97,143.802,650.975 C143.333,652.765,142.332,653.979,141.054,653.979 C140.883,653.979,140.223,653.979,139.627,653.595 C140.351,653.446,140.969,652.85,140.969,652.04 C140.969,651.273,140.351,651.039,139.925,651.039 C139.051,651.039,138.327,651.785,138.327,652.701 C138.327,654.021,139.776,654.597,141.032,654.597 C142.928,654.597,143.972,652.594,144.057,652.424 C144.398,653.489,145.421,654.597,147.146,654.597 C150.107,654.597,151.747,650.89,151.747,650.187 C151.747,649.889,151.492,649.889,151.407,649.889 C151.151,649.889,151.087,650.017,151.044,650.208 C150.086,653.276,148.126,653.979,147.21,653.979 C146.102,653.979,145.634,653.063,145.634,652.083 C145.634,651.444,145.804,650.805,146.124,649.548 L147.104,645.607"/></g></g><g clip-path="url(#7fc8726250c0)"><clipPath id="7fc8726250c0"><path fill="#000" fill-opacity="0.35" d="M34.4258,554.293 L48.8259,554.293 L48.8259,535.1 L34.4258,535.1 Z"/></clipPath><g clip-path="url(#7fc872646c70)"><clipPath id="7fc872646c70"><path fill="#000" fill-opacity="0.35" d="M35.2258,554.293 L48.8258,554.293 L48.8258,535.093 L35.2258,535.093 Z"/></clipPath><path fill="#000" d="M48.3998,537.272 C48.5064,536.868,48.5064,536.804,48.5064,536.612 C48.5064,536.08,48.1016,535.824,47.6756,535.824 C47.3774,535.824,46.93,535.994,46.6744,536.442 C46.6105,536.569,46.3762,537.464,46.2697,537.975 C46.0566,538.721,45.8649,539.509,45.6945,540.276 L44.3951,545.452 C44.2886,545.878,43.053,547.902,41.1572,547.902 C39.6873,547.902,39.3678,546.624,39.3678,545.559 C39.3678,544.238,39.8578,542.47,40.8376,539.935 C41.285,538.764,41.4128,538.444,41.4128,537.869 C41.4128,536.569,40.4968,535.504,39.0483,535.504 C36.3216,535.504,35.2565,539.68,35.2565,539.935 C35.2565,540.233,35.5548,540.233,35.5974,540.233 C35.8956,540.233,35.9169,540.169,36.066,539.701 C36.8329,537.017,37.9832,536.143,38.9631,536.143 C39.1974,536.143,39.6873,536.143,39.6873,537.059 C39.6873,537.784,39.3891,538.529,39.1974,539.083 C38.0471,542.129,37.5358,543.748,37.5358,545.112 C37.5358,547.668,39.3465,548.52,41.0294,548.52 C42.1584,548.52,43.1383,548.03,43.9264,547.242 C43.5643,548.733,43.2235,550.139,42.0731,551.651 C41.3276,552.631,40.2412,553.462,38.8992,553.462 C38.5157,553.462,37.2163,553.377,36.7264,552.269 C37.195,552.269,37.5571,552.269,37.9619,551.907 C38.2388,551.651,38.537,551.289,38.537,550.735 C38.537,549.841,37.7702,549.734,37.4719,549.734 C36.8116,549.734,35.853,550.203,35.853,551.609 C35.853,553.036,37.1311,554.101,38.8992,554.101 C41.8601,554.101,44.8211,551.481,45.6306,548.243 L48.3998,537.272"/></g></g><path fill="#bcbcbc" d="M173.009,392.18 L280.731,392.18 L280.731,418.292 L173.009,418.292 Z"/><g><path fill="none" stroke="#000" stroke-width="3" d="M191.17,522.196 L158.928,577.953"/><path fill="none" stroke="#000" stroke-width="3" d="M170.13,570.568 L158.928,577.953 L159.741,564.561"/></g><path fill="none" stroke="#000" d="M259.497,522.554 C259.497,522.554,191.564,522.252,191.564,522.252 C191.564,522.252,157.859,463.27,157.859,463.27 C157.859,463.27,192.087,404.59,192.087,404.59 C192.087,404.59,260.02,404.892,260.02,404.892 C260.02,404.892,293.724,463.874,293.724,463.874 C293.724,463.874,259.497,522.554,259.497,522.554 Z"/><path fill="none" stroke="#000" d="M157.324,581.178 C157.324,581.178,89.3912,580.876,89.3912,580.876 C89.3912,580.876,55.6865,521.894,55.6865,521.894 C55.6865,521.894,89.9143,463.214,89.9143,463.214 C89.9143,463.214,157.847,463.516,157.847,463.516 C157.847,463.516,191.552,522.498,191.552,522.498 C191.552,522.498,157.324,581.178,157.324,581.178 Z"/><path fill="none" stroke="#000" d="M259.241,640.263 C259.241,640.263,191.308,639.961,191.308,639.961 C191.308,639.961,157.603,580.979,157.603,580.979 C157.603,580.979,191.831,522.298,191.831,522.298 C191.831,522.298,259.764,522.6,259.764,522.6 C259.764,522.6,293.468,581.583,293.468,581.583 C293.468,581.583,259.241,640.263,259.241,640.263 Z"/><path fill="#ff0004" stroke="#000" stroke-width="2" d="M191.97,400.596 C194.091,400.596,195.81,402.315,195.81,404.436 C195.81,406.557,194.091,408.276,191.97,408.276 C189.85,408.276,188.13,406.557,188.13,404.436 C188.13,402.315,189.85,400.596,191.97,400.596 Z"/><path fill="#ff0004" stroke="#000" stroke-width="2" d="M89.7944,460.244 C91.9152,460.244,93.6344,461.963,93.6344,464.084 C93.6344,466.205,91.9152,467.924,89.7944,467.924 C87.6737,467.924,85.9544,466.205,85.9544,464.084 C85.9544,461.963,87.6737,460.244,89.7944,460.244 Z"/><path fill="#ff0004" stroke="#000" stroke-width="2" d="M90.3064,577.953 C92.4272,577.953,94.1464,579.672,94.1464,581.793 C94.1464,583.914,92.4272,585.633,90.3064,585.633 C88.1857,585.633,86.4664,583.914,86.4664,581.793 C86.4664,579.672,88.1857,577.953,90.3064,577.953 Z"/><path fill="#ff0004" stroke="#000" stroke-width="2" d="M191.682,635.297 C193.803,635.297,195.522,637.016,195.522,639.137 C195.522,641.258,193.803,642.977,191.682,642.977 C189.562,642.977,187.842,641.258,187.842,639.137 C187.842,637.016,189.562,635.297,191.682,635.297 Z"/><path fill="#00a0fe" stroke="#000" stroke-width="2" d="M55.4917,518.202 C57.6125,518.202,59.3317,519.922,59.3317,522.042 C59.3317,524.163,57.6125,525.882,55.4917,525.882 C53.371,525.882,51.6517,524.163,51.6517,522.042 C51.6517,519.922,53.371,518.202,55.4917,518.202 Z"/><path fill="#00a0fe" stroke="#000" stroke-width="2" d="M157.648,459.732 C159.769,459.732,161.488,461.451,161.488,463.572 C161.488,465.693,159.769,467.412,157.648,467.412 C155.528,467.412,153.808,465.693,153.808,463.572 C153.808,461.451,155.528,459.732,157.648,459.732 Z"/><path fill="#00a0fe" stroke="#000" stroke-width="2" d="M157.136,577.953 C159.257,577.953,160.976,579.672,160.976,581.793 C160.976,583.914,159.257,585.633,157.136,585.633 C155.016,585.633,153.296,583.914,153.296,581.793 C153.296,579.672,155.016,577.953,157.136,577.953 Z"/><path fill="#00a0fe" stroke="#000" stroke-width="2" d="M259.739,401.108 C261.86,401.108,263.579,402.827,263.579,404.948 C263.579,407.069,261.86,408.788,259.739,408.788 C257.618,408.788,255.899,407.069,255.899,404.948 C255.899,402.827,257.618,401.108,259.739,401.108 Z"/><path fill="#00a0fe" stroke="#000" stroke-width="2" d="M259.545,635.809 C261.666,635.809,263.385,637.528,263.385,639.649 C263.385,641.77,261.666,643.489,259.545,643.489 C257.424,643.489,255.705,641.77,255.705,639.649 C255.705,637.528,257.424,635.809,259.545,635.809 Z"/><g><path fill="none" stroke="#000" stroke-width="3" d="M192.382,523.22 L160.14,467.463"/><path fill="none" stroke="#000" stroke-width="3" d="M160.953,480.855 L160.14,467.463 L171.341,474.848"/></g><g><path fill="none" stroke="#000" stroke-width="3" d="M191.358,522.452 L254.681,522.606"/><path fill="none" stroke="#000" stroke-width="3" d="M242.696,516.577 L254.681,522.606 L242.667,528.576"/></g><path fill="#ff0004" stroke="#000" stroke-width="2" d="M191.17,518.356 C193.291,518.356,195.01,520.075,195.01,522.196 C195.01,524.317,193.291,526.036,191.17,526.036 C189.05,526.036,187.33,524.317,187.33,522.196 C187.33,520.075,189.05,518.356,191.17,518.356 Z"/><g><path fill="none" stroke="#000" stroke-width="2" d="M41.5966,647.489 L131.197,647.489"/><path fill="none" stroke="#000" stroke-width="2" d="M121.197,642.489 L131.197,647.489 L121.197,652.489"/></g><g><path fill="none" stroke="#000" stroke-width="2" d="M41.5966,647.489 L41.5966,560.036"/><path fill="none" stroke="#000" stroke-width="2" d="M36.5966,570.036 L41.5966,560.036 L46.5966,570.036"/></g><g><path fill="none" stroke="#000" d="M361.264,581.556 C361.264,581.556,293.331,581.254,293.331,581.254 C293.331,581.254,259.626,522.272,259.626,522.272 C259.626,522.272,293.854,463.591,293.854,463.591 C293.854,463.591,361.787,463.893,361.787,463.893 C361.787,463.893,395.492,522.876,395.492,522.876 C395.492,522.876,361.264,581.556,361.264,581.556 Z"/><path fill="#00a0fe" stroke="#000" stroke-width="2" d="M259.643,518.356 C261.764,518.356,263.483,520.075,263.483,522.196 C263.483,524.317,261.764,526.036,259.643,526.036 C257.522,526.036,255.803,524.317,255.803,522.196 C255.803,520.075,257.522,518.356,259.643,518.356 Z"/><path fill="#ff0004" stroke="#000" stroke-width="2" d="M292.956,577.953 C295.077,577.953,296.796,579.672,296.796,581.793 C296.796,583.914,295.077,585.633,292.956,585.633 C290.836,585.633,289.116,583.914,289.116,581.793 C289.116,579.672,290.836,577.953,292.956,577.953 Z"/><path fill="#ff0004" stroke="#000" stroke-width="2" d="M293.468,460.244 C295.589,460.244,297.308,461.963,297.308,464.084 C297.308,466.205,295.589,467.924,293.468,467.924 C291.348,467.924,289.628,466.205,289.628,464.084 C289.628,461.963,291.348,460.244,293.468,460.244 Z"/><path fill="#00a0fe" stroke="#000" stroke-width="2" d="M361.648,459.732 C363.769,459.732,365.488,461.451,365.488,463.572 C365.488,465.693,363.769,467.412,361.648,467.412 C359.528,467.412,357.808,465.693,357.808,463.572 C357.808,461.451,359.528,459.732,361.648,459.732 Z"/><path fill="#00a0fe" stroke="#000" stroke-width="2" d="M361.136,577.953 C363.257,577.953,364.976,579.672,364.976,581.793 C364.976,583.914,363.257,585.633,361.136,585.633 C359.016,585.633,357.296,583.914,357.296,581.793 C357.296,579.672,359.016,577.953,361.136,577.953 Z"/><path fill="#ff0004" stroke="#000" stroke-width="2" d="M394.77,518.356 C396.891,518.356,398.61,520.075,398.61,522.196 C398.61,524.317,396.891,526.036,394.77,526.036 C392.65,526.036,390.93,524.317,390.93,522.196 C390.93,520.075,392.65,518.356,394.77,518.356 Z"/></g><g clip-path="url(#7fc87264ce90)"><clipPath id="7fc87264ce90"><path fill="#000" fill-opacity="0.35" d="M244.153,553.82 L271.153,553.82 L271.153,534.808 L244.153,534.808 Z"/></clipPath><g clip-path="url(#7fc872606680)"><clipPath id="7fc872606680"><path fill="#000" fill-opacity="0.35" d="M244.153,553.82 L271.153,553.82 L271.153,534.82 L244.153,534.82 Z"/></clipPath><path fill="#000" d="M255.15,546.524 C255.15,547.429,255.15,548.814,258.265,548.814 L259.703,548.814 C260.315,548.814,260.662,548.814,260.662,548.095 C260.662,547.402,260.289,547.402,259.889,547.402 C258.052,547.376,258.052,547.003,258.052,546.311 L258.052,539.867 C258.052,537.204,255.922,535.26,251.475,535.26 C249.771,535.26,246.123,535.367,246.123,538.003 C246.123,539.334,247.162,539.893,247.96,539.893 C248.892,539.893,249.851,539.254,249.851,538.003 C249.851,537.098,249.292,536.592,249.185,536.538 C250.037,536.352,250.996,536.325,251.342,536.325 C253.605,536.325,254.644,537.577,254.644,539.867 L254.644,540.879 C252.514,540.959,244.925,541.251,244.925,545.592 C244.925,548.467,248.626,549,250.703,549 C253.099,549,254.511,547.775,255.15,546.524 Z M254.644,541.811 L254.644,544.66 C254.644,547.536,251.901,547.908,251.129,547.908 C249.611,547.908,248.413,546.87,248.413,545.565 C248.413,542.317,253.153,541.891,254.644,541.811"/><path fill="#000" d="M267.665,540 C267.665,539.441,267.611,539.414,267.026,539.414 C265.694,540.746,263.804,540.746,262.925,540.746 L262.925,541.518 C263.431,541.518,264.816,541.518,265.961,540.932 L265.961,551.61 C265.961,552.302,265.961,552.568,263.884,552.568 L263.085,552.568 L263.085,553.314 C263.458,553.287,266.04,553.234,266.813,553.234 C267.452,553.234,270.088,553.287,270.567,553.314 L270.567,552.568 L269.768,552.568 C267.665,552.568,267.665,552.302,267.665,551.61 L267.665,540"/></g></g><g clip-path="url(#7fc8726477f0)"><clipPath id="7fc8726477f0"><path fill="#000" fill-opacity="0.35" d="M169.637,475.354 L197.569,475.354 L197.569,456.342 L169.637,456.342 Z"/></clipPath><g clip-path="url(#7fc87262e510)"><clipPath id="7fc87262e510"><path fill="#000" fill-opacity="0.35" d="M169.637,475.354 L197.637,475.354 L197.637,456.354 L169.637,456.354 Z"/></clipPath><path fill="#000" d="M180.634,468.058 C180.634,468.963,180.634,470.348,183.75,470.348 L185.188,470.348 C185.8,470.348,186.146,470.348,186.146,469.629 C186.146,468.936,185.773,468.936,185.374,468.936 C183.537,468.91,183.537,468.537,183.537,467.845 L183.537,461.401 C183.537,458.738,181.406,456.794,176.96,456.794 C175.256,456.794,171.608,456.901,171.608,459.537 C171.608,460.868,172.646,461.427,173.445,461.427 C174.377,461.427,175.335,460.788,175.335,459.537 C175.335,458.632,174.776,458.126,174.67,458.072 C175.522,457.886,176.48,457.859,176.827,457.859 C179.09,457.859,180.128,459.111,180.128,461.401 L180.128,462.413 C177.998,462.493,170.409,462.785,170.409,467.126 C170.409,470.001,174.111,470.534,176.187,470.534 C178.584,470.534,179.995,469.309,180.634,468.058 Z M180.128,463.345 L180.128,466.194 C180.128,469.07,177.386,469.442,176.614,469.442 C175.096,469.442,173.898,468.404,173.898,467.099 C173.898,463.851,178.637,463.424,180.128,463.345"/><path fill="#000" d="M196.717,471.04 L195.998,471.04 C195.945,471.493,195.732,472.744,195.466,472.957 C195.279,473.064,193.682,473.064,193.389,473.064 L189.528,473.064 C191.738,471.12,192.457,470.534,193.708,469.549 C195.253,468.324,196.717,467.019,196.717,465.022 C196.717,462.493,194.481,460.948,191.818,460.948 C189.208,460.948,187.451,462.785,187.451,464.703 C187.451,465.768,188.356,465.874,188.569,465.874 C189.075,465.874,189.688,465.528,189.688,464.756 C189.688,464.383,189.528,463.664,188.436,463.664 C189.075,462.173,190.513,461.694,191.498,461.694 C193.602,461.694,194.667,463.345,194.667,465.022 C194.667,466.859,193.389,468.297,192.723,469.043 L187.664,474.049 C187.451,474.235,187.451,474.262,187.451,474.848 L196.078,474.848 L196.717,471.04"/></g></g><g clip-path="url(#7fc8726348b0)"><clipPath id="7fc8726348b0"><path fill="#000" fill-opacity="0.35" d="M169.212,591.112 L197.144,591.112 L197.144,572.1 L169.212,572.1 Z"/></clipPath><g clip-path="url(#7fc872637920)"><clipPath id="7fc872637920"><path fill="#000" fill-opacity="0.35" d="M169.212,591.112 L197.212,591.112 L197.212,572.112 L169.212,572.112 Z"/></clipPath><path fill="#000" d="M180.209,583.817 C180.209,584.722,180.209,586.106,183.325,586.106 L184.763,586.106 C185.375,586.106,185.721,586.106,185.721,585.388 C185.721,584.695,185.348,584.695,184.949,584.695 C183.112,584.669,183.112,584.296,183.112,583.604 L183.112,577.16 C183.112,574.497,180.981,572.553,176.535,572.553 C174.831,572.553,171.183,572.66,171.183,575.296 C171.183,576.627,172.221,577.186,173.02,577.186 C173.952,577.186,174.91,576.547,174.91,575.296 C174.91,574.39,174.351,573.884,174.245,573.831 C175.097,573.645,176.055,573.618,176.402,573.618 C178.665,573.618,179.703,574.87,179.703,577.16 L179.703,578.171 C177.573,578.251,169.984,578.544,169.984,582.885 C169.984,585.76,173.686,586.293,175.763,586.293 C178.159,586.293,179.57,585.068,180.209,583.817 Z M179.703,579.103 L179.703,581.953 C179.703,584.828,176.961,585.201,176.189,585.201 C174.671,585.201,173.473,584.163,173.473,582.858 C173.473,579.609,178.212,579.183,179.703,579.103"/><path fill="#000" d="M191.419,583.63 C193.07,583.63,194.242,584.748,194.242,586.985 C194.242,589.595,192.724,590.367,191.499,590.367 C190.674,590.367,188.837,590.127,187.958,588.902 C188.943,588.849,189.156,588.157,189.156,587.731 C189.156,587.065,188.677,586.559,188.011,586.559 C187.425,586.559,186.84,586.932,186.84,587.784 C186.84,589.754,189.023,591.033,191.553,591.033 C194.455,591.033,196.479,589.089,196.479,586.985 C196.479,585.361,195.121,583.71,192.831,583.231 C195.041,582.459,195.813,580.887,195.813,579.609 C195.813,577.932,193.922,576.707,191.606,576.707 C189.263,576.707,187.479,577.852,187.479,579.503 C187.479,580.222,187.958,580.621,188.57,580.621 C189.236,580.621,189.635,580.142,189.635,579.556 C189.635,578.944,189.236,578.518,188.57,578.464 C189.316,577.559,190.754,577.319,191.526,577.319 C192.485,577.319,193.789,577.772,193.789,579.609 C193.789,580.488,193.496,581.447,192.964,582.086 C192.272,582.885,191.686,582.938,190.621,582.991 C190.115,583.044,190.061,583.044,189.955,583.044 C189.928,583.044,189.742,583.098,189.742,583.337 C189.742,583.63,189.955,583.63,190.301,583.63 L191.419,583.63"/></g></g></g><g><path fill="none" stroke="#000" stroke-width="2.523" stroke-dasharray="12.615" d="M774.783,82.6718 L774.783,244.672"/><path fill="none" stroke="#000" stroke-width="2.523" stroke-dasharray="12.615" d="M828.783,82.6718 L828.783,244.672"/><path fill="none" stroke="#000" stroke-width="2.523" stroke-dasharray="12.615" d="M882.783,82.6718 L882.783,244.672"/><path fill="none" stroke="#000" stroke-width="2.523" stroke-dasharray="12.615" d="M936.783,82.6718 L936.783,244.672"/><path fill="none" stroke="#000" stroke-width="2.523" stroke-dasharray="12.615" d="M990.783,82.6718 L990.783,244.672"/><path fill="none" stroke="#000" stroke-width="2.523" stroke-dasharray="12.615" d="M1044.78,82.6718 L1044.78,244.672"/><g><g><path fill="none" stroke="#000" stroke-width="2" d="M288.076,299.075 L417.676,299.927"/><path fill="none" stroke="#000" stroke-width="2" d="M407.709,294.862 L417.676,299.927 L407.643,304.861"/></g><g><path fill="none" stroke="#000" stroke-width="2" d="M288.076,298.933 L288.076,167.743"/><path fill="none" stroke="#000" stroke-width="2" d="M283.076,177.743 L288.076,167.743 L293.076,177.743"/></g><g clip-path="url(#7fc8747fbcc0)"><clipPath id="7fc8747fbcc0"><path fill="#000" fill-opacity="0.35" d="M423.792,305.229 L435.199,305.229 L435.199,295.036 L423.792,295.036 Z"/></clipPath><g clip-path="url(#7fc87479ed80)"><clipPath id="7fc87479ed80"><path fill="#000" fill-opacity="0.35" d="M423.792,305.229 L435.192,305.229 L435.192,295.029 L423.792,295.029 Z"/></clipPath><path fill="#000" d="M430.454,298.359 C430.582,297.8,431.077,295.819,432.579,295.819 C432.691,295.819,433.202,295.819,433.666,296.107 C433.058,296.202,432.627,296.746,432.627,297.257 C432.627,297.608,432.867,298.024,433.442,298.024 C433.921,298.024,434.608,297.624,434.608,296.762 C434.608,295.643,433.33,295.34,432.611,295.34 C431.349,295.34,430.598,296.49,430.342,296.985 C429.799,295.563,428.633,295.34,428.01,295.34 C425.773,295.34,424.543,298.12,424.543,298.663 C424.543,298.886,424.767,298.886,424.799,298.886 C424.974,298.886,425.038,298.839,425.086,298.647 C425.821,296.362,427.243,295.819,427.978,295.819 C428.377,295.819,429.128,296.011,429.128,297.257 C429.128,297.928,428.761,299.382,427.978,302.385 C427.626,303.727,426.876,304.638,425.917,304.638 C425.789,304.638,425.294,304.638,424.847,304.35 C425.39,304.239,425.853,303.791,425.853,303.184 C425.853,302.609,425.39,302.433,425.07,302.433 C424.415,302.433,423.872,302.992,423.872,303.679 C423.872,304.67,424.958,305.101,425.901,305.101 C427.323,305.101,428.106,303.599,428.17,303.472 C428.425,304.271,429.192,305.101,430.486,305.101 C432.707,305.101,433.937,302.321,433.937,301.794 C433.937,301.57,433.745,301.57,433.682,301.57 C433.49,301.57,433.442,301.666,433.41,301.81 C432.691,304.111,431.221,304.638,430.534,304.638 C429.703,304.638,429.352,303.951,429.352,303.216 C429.352,302.737,429.48,302.257,429.719,301.315 L430.454,298.359"/></g></g><g clip-path="url(#7fc8750c22b0)"><clipPath id="7fc8750c22b0"><path fill="#000" fill-opacity="0.35" d="M282.678,160.599 L293.478,160.599 L293.478,146.205 L282.678,146.205 Z"/></clipPath><g clip-path="url(#7fc8750c80f0)"><clipPath id="7fc8750c80f0"><path fill="#000" fill-opacity="0.35" d="M283.278,160.599 L293.478,160.599 L293.478,146.199 L283.278,146.199 Z"/></clipPath><path fill="#000" d="M293.159,147.834 C293.239,147.531,293.239,147.483,293.239,147.339 C293.239,146.94,292.935,146.748,292.615,146.748 C292.392,146.748,292.056,146.876,291.865,147.211 C291.817,147.307,291.641,147.978,291.561,148.361 C291.401,148.921,291.257,149.512,291.13,150.087 L290.155,153.969 C290.075,154.289,289.149,155.806,287.727,155.806 C286.624,155.806,286.385,154.848,286.385,154.049 C286.385,153.058,286.752,151.732,287.487,149.831 C287.822,148.953,287.918,148.713,287.918,148.282 C287.918,147.307,287.231,146.508,286.145,146.508 C284.1,146.508,283.301,149.64,283.301,149.831 C283.301,150.055,283.525,150.055,283.557,150.055 C283.78,150.055,283.796,150.007,283.908,149.656 C284.483,147.642,285.346,146.987,286.081,146.987 C286.257,146.987,286.624,146.987,286.624,147.674 C286.624,148.218,286.401,148.777,286.257,149.192 C285.394,151.477,285.011,152.691,285.011,153.714 C285.011,155.631,286.369,156.27,287.631,156.27 C288.478,156.27,289.212,155.902,289.804,155.311 C289.532,156.43,289.276,157.484,288.414,158.618 C287.854,159.353,287.04,159.976,286.033,159.976 C285.746,159.976,284.771,159.912,284.404,159.082 C284.755,159.082,285.027,159.082,285.33,158.81 C285.538,158.618,285.762,158.347,285.762,157.931 C285.762,157.26,285.186,157.18,284.963,157.18 C284.467,157.18,283.748,157.532,283.748,158.586 C283.748,159.657,284.707,160.456,286.033,160.456 C288.254,160.456,290.475,158.49,291.082,156.062 L293.159,147.834"/></g></g></g><path fill="none" stroke="#000" d="M862.083,274.147 L835.683,222.667"/><text font-family="American Typewriter" font-size="30" text-anchor="middle" transform="matrix(0.6,0,0,0.6,958.423,284.679)" xml:space="preserve"><tspan>inter-chain couplings</tspan></text><g><text fill="#ff0004" font-family="American Typewriter" font-size="30" text-anchor="middle" transform="matrix(0.6,0,0,0.6,490.821,67.8365)" xml:space="preserve"><tspan>left movers</tspan></text><text fill="#007efd" font-family="American Typewriter" font-size="30" text-anchor="middle" transform="matrix(0.6,0,0,0.6,500.472,107.231)" xml:space="preserve"><tspan>right movers</tspan></text><path fill="none" stroke="#000" stroke-width="2" d="M313.301,82.6718 L639.325,82.6718"/><path fill="#a1a1a1" stroke="#000" stroke-width="2" d="M349.858,82.6718 C349.858,86.6068,346.5,89.7968,342.358,89.7968 C338.216,89.7968,334.858,86.6068,334.858,82.6718 C334.858,78.7368,338.216,75.5468,342.358,75.5468 C346.5,75.5468,349.858,78.7368,349.858,82.6718 Z"/><path fill="#a1a1a1" stroke="#000" stroke-width="2" d="M403.858,82.6718 C403.858,86.6068,400.5,89.7968,396.358,89.7968 C392.216,89.7968,388.858,86.6068,388.858,82.6718 C388.858,78.7368,392.216,75.5468,396.358,75.5468 C400.5,75.5468,403.858,78.7368,403.858,82.6718 Z"/><path fill="#a1a1a1" stroke="#000" stroke-width="2" d="M457.858,82.6718 C457.858,86.6068,454.5,89.7968,450.358,89.7968 C446.216,89.7968,442.858,86.6068,442.858,82.6718 C442.858,78.7368,446.216,75.5468,450.358,75.5468 C454.5,75.5468,457.858,78.7368,457.858,82.6718 Z"/><path fill="#a1a1a1" stroke="#000" stroke-width="2" d="M511.858,82.6718 C511.858,86.6068,508.5,89.7968,504.358,89.7968 C500.216,89.7968,496.858,86.6068,496.858,82.6718 C496.858,78.7368,500.216,75.5468,504.358,75.5468 C508.5,75.5468,511.858,78.7368,511.858,82.6718 Z"/><path fill="#a1a1a1" stroke="#000" stroke-width="2" d="M565.858,82.6718 C565.858,86.6068,562.5,89.7968,558.358,89.7968 C554.216,89.7968,550.858,86.6068,550.858,82.6718 C550.858,78.7368,554.216,75.5468,558.358,75.5468 C562.5,75.5468,565.858,78.7368,565.858,82.6718 Z"/><path fill="#a1a1a1" stroke="#000" stroke-width="2" d="M619.858,82.6718 C619.858,86.6068,616.5,89.7968,612.358,89.7968 C608.216,89.7968,604.858,86.6068,604.858,82.6718 C604.858,78.7368,608.216,75.5468,612.358,75.5468 C616.5,75.5468,619.858,78.7368,619.858,82.6718 Z"/><path fill="none" stroke="#000" stroke-width="2" d="M313.301,136.672 L639.325,136.672"/><path fill="#a1a1a1" stroke="#000" stroke-width="2" d="M349.858,136.672 C349.858,140.607,346.5,143.797,342.358,143.797 C338.216,143.797,334.858,140.607,334.858,136.672 C334.858,132.737,338.216,129.547,342.358,129.547 C346.5,129.547,349.858,132.737,349.858,136.672 Z"/><path fill="#a1a1a1" stroke="#000" stroke-width="2" d="M403.858,136.672 C403.858,140.607,400.5,143.797,396.358,143.797 C392.216,143.797,388.858,140.607,388.858,136.672 C388.858,132.737,392.216,129.547,396.358,129.547 C400.5,129.547,403.858,132.737,403.858,136.672 Z"/><path fill="#a1a1a1" stroke="#000" stroke-width="2" d="M457.858,136.672 C457.858,140.607,454.5,143.797,450.358,143.797 C446.216,143.797,442.858,140.607,442.858,136.672 C442.858,132.737,446.216,129.547,450.358,129.547 C454.5,129.547,457.858,132.737,457.858,136.672 Z"/><path fill="#a1a1a1" stroke="#000" stroke-width="2" d="M511.858,136.672 C511.858,140.607,508.5,143.797,504.358,143.797 C500.216,143.797,496.858,140.607,496.858,136.672 C496.858,132.737,500.216,129.547,504.358,129.547 C508.5,129.547,511.858,132.737,511.858,136.672 Z"/><path fill="#a1a1a1" stroke="#000" stroke-width="2" d="M565.858,136.672 C565.858,140.607,562.5,143.797,558.358,143.797 C554.216,143.797,550.858,140.607,550.858,136.672 C550.858,132.737,554.216,129.547,558.358,129.547 C562.5,129.547,565.858,132.737,565.858,136.672 Z"/><path fill="#a1a1a1" stroke="#000" stroke-width="2" d="M619.858,136.672 C619.858,140.607,616.5,143.797,612.358,143.797 C608.216,143.797,604.858,140.607,604.858,136.672 C604.858,132.737,608.216,129.547,612.358,129.547 C616.5,129.547,619.858,132.737,619.858,136.672 Z"/><g><g><path fill="none" stroke="#ff0004" stroke-width="3" d="M316.683,73.0383 L639.325,73.0383"/><path fill="none" stroke="#ff0004" stroke-width="3" d="M328.683,79.0383 L316.683,73.0383 L328.683,67.0383"/></g><g><path fill="none" stroke="#007efd" stroke-width="3" d="M639.325,92.0675 L315.483,92.0675"/><path fill="none" stroke="#007efd" stroke-width="3" d="M627.325,86.0675 L639.325,92.0675 L627.325,98.0675"/></g></g><g><g><path fill="none" stroke="#ff0004" stroke-width="3" d="M316.683,127.038 L639.325,127.038"/><path fill="none" stroke="#ff0004" stroke-width="3" d="M328.683,133.038 L316.683,127.038 L328.683,121.038"/></g><g><path fill="none" stroke="#007efd" stroke-width="3" d="M639.325,146.068 L315.483,146.068"/><path fill="none" stroke="#007efd" stroke-width="3" d="M627.325,140.068 L639.325,146.068 L627.325,152.068"/></g></g><g><path fill="none" stroke="#000" stroke-width="2" d="M313.301,190.672 L639.325,190.672"/><path fill="#a1a1a1" stroke="#000" stroke-width="2" d="M349.858,190.672 C349.858,194.607,346.5,197.797,342.358,197.797 C338.216,197.797,334.858,194.607,334.858,190.672 C334.858,186.737,338.216,183.547,342.358,183.547 C346.5,183.547,349.858,186.737,349.858,190.672 Z"/><path fill="#a1a1a1" stroke="#000" stroke-width="2" d="M403.858,190.672 C403.858,194.607,400.5,197.797,396.358,197.797 C392.216,197.797,388.858,194.607,388.858,190.672 C388.858,186.737,392.216,183.547,396.358,183.547 C400.5,183.547,403.858,186.737,403.858,190.672 Z"/><path fill="#a1a1a1" stroke="#000" stroke-width="2" d="M457.858,190.672 C457.858,194.607,454.5,197.797,450.358,197.797 C446.216,197.797,442.858,194.607,442.858,190.672 C442.858,186.737,446.216,183.547,450.358,183.547 C454.5,183.547,457.858,186.737,457.858,190.672 Z"/><path fill="#a1a1a1" stroke="#000" stroke-width="2" d="M511.858,190.672 C511.858,194.607,508.5,197.797,504.358,197.797 C500.216,197.797,496.858,194.607,496.858,190.672 C496.858,186.737,500.216,183.547,504.358,183.547 C508.5,183.547,511.858,186.737,511.858,190.672 Z"/><path fill="#a1a1a1" stroke="#000" stroke-width="2" d="M565.858,190.672 C565.858,194.607,562.5,197.797,558.358,197.797 C554.216,197.797,550.858,194.607,550.858,190.672 C550.858,186.737,554.216,183.547,558.358,183.547 C562.5,183.547,565.858,186.737,565.858,190.672 Z"/><path fill="#a1a1a1" stroke="#000" stroke-width="2" d="M619.858,190.672 C619.858,194.607,616.5,197.797,612.358,197.797 C608.216,197.797,604.858,194.607,604.858,190.672 C604.858,186.737,608.216,183.547,612.358,183.547 C616.5,183.547,619.858,186.737,619.858,190.672 Z"/><g><g><path fill="none" stroke="#ff0004" stroke-width="3" d="M316.683,181.038 L639.325,181.038"/><path fill="none" stroke="#ff0004" stroke-width="3" d="M328.683,187.038 L316.683,181.038 L328.683,175.038"/></g><g><path fill="none" stroke="#007efd" stroke-width="3" d="M639.325,200.068 L315.483,200.068"/><path fill="none" stroke="#007efd" stroke-width="3" d="M627.325,194.068 L639.325,200.068 L627.325,206.068"/></g></g></g><g><path fill="none" stroke="#000" stroke-width="2" d="M313.301,244.672 L639.325,244.672"/><path fill="#a1a1a1" stroke="#000" stroke-width="2" d="M349.858,244.672 C349.858,248.607,346.5,251.797,342.358,251.797 C338.216,251.797,334.858,248.607,334.858,244.672 C334.858,240.737,338.216,237.547,342.358,237.547 C346.5,237.547,349.858,240.737,349.858,244.672 Z"/><path fill="#a1a1a1" stroke="#000" stroke-width="2" d="M403.858,244.672 C403.858,248.607,400.5,251.797,396.358,251.797 C392.216,251.797,388.858,248.607,388.858,244.672 C388.858,240.737,392.216,237.547,396.358,237.547 C400.5,237.547,403.858,240.737,403.858,244.672 Z"/><path fill="#a1a1a1" stroke="#000" stroke-width="2" d="M457.858,244.672 C457.858,248.607,454.5,251.797,450.358,251.797 C446.216,251.797,442.858,248.607,442.858,244.672 C442.858,240.737,446.216,237.547,450.358,237.547 C454.5,237.547,457.858,240.737,457.858,244.672 Z"/><path fill="#a1a1a1" stroke="#000" stroke-width="2" d="M511.858,244.672 C511.858,248.607,508.5,251.797,504.358,251.797 C500.216,251.797,496.858,248.607,496.858,244.672 C496.858,240.737,500.216,237.547,504.358,237.547 C508.5,237.547,511.858,240.737,511.858,244.672 Z"/><path fill="#a1a1a1" stroke="#000" stroke-width="2" d="M565.858,244.672 C565.858,248.607,562.5,251.797,558.358,251.797 C554.216,251.797,550.858,248.607,550.858,244.672 C550.858,240.737,554.216,237.547,558.358,237.547 C562.5,237.547,565.858,240.737,565.858,244.672 Z"/><path fill="#a1a1a1" stroke="#000" stroke-width="2" d="M619.858,244.672 C619.858,248.607,616.5,251.797,612.358,251.797 C608.216,251.797,604.858,248.607,604.858,244.672 C604.858,240.737,608.216,237.547,612.358,237.547 C616.5,237.547,619.858,240.737,619.858,244.672 Z"/><g><g><path fill="none" stroke="#ff0004" stroke-width="3" d="M316.683,235.038 L639.325,235.038"/><path fill="none" stroke="#ff0004" stroke-width="3" d="M328.683,241.038 L316.683,235.038 L328.683,229.038"/></g><g><path fill="none" stroke="#007efd" stroke-width="3" d="M639.325,254.068 L315.483,254.068"/><path fill="none" stroke="#007efd" stroke-width="3" d="M627.325,248.068 L639.325,254.068 L627.325,260.068"/></g></g></g></g><g><path fill="none" stroke="#000" stroke-width="2" d="M745.301,82.6718 L1071.33,82.6718"/><path fill="#a1a1a1" stroke="#000" stroke-width="2" d="M781.858,82.6718 C781.858,86.6068,778.5,89.7968,774.358,89.7968 C770.216,89.7968,766.858,86.6068,766.858,82.6718 C766.858,78.7368,770.216,75.5468,774.358,75.5468 C778.5,75.5468,781.858,78.7368,781.858,82.6718 Z"/><path fill="#a1a1a1" stroke="#000" stroke-width="2" d="M835.858,82.6718 C835.858,86.6068,832.5,89.7968,828.358,89.7968 C824.216,89.7968,820.858,86.6068,820.858,82.6718 C820.858,78.7368,824.216,75.5468,828.358,75.5468 C832.5,75.5468,835.858,78.7368,835.858,82.6718 Z"/><path fill="#a1a1a1" stroke="#000" stroke-width="2" d="M889.858,82.6718 C889.858,86.6068,886.5,89.7968,882.358,89.7968 C878.216,89.7968,874.858,86.6068,874.858,82.6718 C874.858,78.7368,878.216,75.5468,882.358,75.5468 C886.5,75.5468,889.858,78.7368,889.858,82.6718 Z"/><path fill="#a1a1a1" stroke="#000" stroke-width="2" d="M943.858,82.6718 C943.858,86.6068,940.5,89.7968,936.358,89.7968 C932.216,89.7968,928.858,86.6068,928.858,82.6718 C928.858,78.7368,932.216,75.5468,936.358,75.5468 C940.5,75.5468,943.858,78.7368,943.858,82.6718 Z"/><path fill="#a1a1a1" stroke="#000" stroke-width="2" d="M997.858,82.6718 C997.858,86.6068,994.5,89.7968,990.358,89.7968 C986.216,89.7968,982.858,86.6068,982.858,82.6718 C982.858,78.7368,986.216,75.5468,990.358,75.5468 C994.5,75.5468,997.858,78.7368,997.858,82.6718 Z"/><path fill="#a1a1a1" stroke="#000" stroke-width="2" d="M1051.86,82.6718 C1051.86,86.6068,1048.5,89.7968,1044.36,89.7968 C1040.22,89.7968,1036.86,86.6068,1036.86,82.6718 C1036.86,78.7368,1040.22,75.5468,1044.36,75.5468 C1048.5,75.5468,1051.86,78.7368,1051.86,82.6718 Z"/><path fill="none" stroke="#000" stroke-width="2" d="M745.301,136.672 L1071.33,136.672"/><path fill="#a1a1a1" stroke="#000" stroke-width="2" d="M781.858,136.672 C781.858,140.607,778.5,143.797,774.358,143.797 C770.216,143.797,766.858,140.607,766.858,136.672 C766.858,132.737,770.216,129.547,774.358,129.547 C778.5,129.547,781.858,132.737,781.858,136.672 Z"/><path fill="#a1a1a1" stroke="#000" stroke-width="2" d="M835.858,136.672 C835.858,140.607,832.5,143.797,828.358,143.797 C824.216,143.797,820.858,140.607,820.858,136.672 C820.858,132.737,824.216,129.547,828.358,129.547 C832.5,129.547,835.858,132.737,835.858,136.672 Z"/><path fill="#a1a1a1" stroke="#000" stroke-width="2" d="M889.858,136.672 C889.858,140.607,886.5,143.797,882.358,143.797 C878.216,143.797,874.858,140.607,874.858,136.672 C874.858,132.737,878.216,129.547,882.358,129.547 C886.5,129.547,889.858,132.737,889.858,136.672 Z"/><path fill="#a1a1a1" stroke="#000" stroke-width="2" d="M943.858,136.672 C943.858,140.607,940.5,143.797,936.358,143.797 C932.216,143.797,928.858,140.607,928.858,136.672 C928.858,132.737,932.216,129.547,936.358,129.547 C940.5,129.547,943.858,132.737,943.858,136.672 Z"/><path fill="#a1a1a1" stroke="#000" stroke-width="2" d="M997.858,136.672 C997.858,140.607,994.5,143.797,990.358,143.797 C986.216,143.797,982.858,140.607,982.858,136.672 C982.858,132.737,986.216,129.547,990.358,129.547 C994.5,129.547,997.858,132.737,997.858,136.672 Z"/><path fill="#a1a1a1" stroke="#000" stroke-width="2" d="M1051.86,136.672 C1051.86,140.607,1048.5,143.797,1044.36,143.797 C1040.22,143.797,1036.86,140.607,1036.86,136.672 C1036.86,132.737,1040.22,129.547,1044.36,129.547 C1048.5,129.547,1051.86,132.737,1051.86,136.672 Z"/><path fill="none" stroke="#000" stroke-width="2" d="M745.301,190.672 L1071.33,190.672"/><path fill="#a1a1a1" stroke="#000" stroke-width="2" d="M781.858,190.672 C781.858,194.607,778.5,197.797,774.358,197.797 C770.216,197.797,766.858,194.607,766.858,190.672 C766.858,186.737,770.216,183.547,774.358,183.547 C778.5,183.547,781.858,186.737,781.858,190.672 Z"/><path fill="#a1a1a1" stroke="#000" stroke-width="2" d="M835.858,190.672 C835.858,194.607,832.5,197.797,828.358,197.797 C824.216,197.797,820.858,194.607,820.858,190.672 C820.858,186.737,824.216,183.547,828.358,183.547 C832.5,183.547,835.858,186.737,835.858,190.672 Z"/><path fill="#a1a1a1" stroke="#000" stroke-width="2" d="M889.858,190.672 C889.858,194.607,886.5,197.797,882.358,197.797 C878.216,197.797,874.858,194.607,874.858,190.672 C874.858,186.737,878.216,183.547,882.358,183.547 C886.5,183.547,889.858,186.737,889.858,190.672 Z"/><path fill="#a1a1a1" stroke="#000" stroke-width="2" d="M943.858,190.672 C943.858,194.607,940.5,197.797,936.358,197.797 C932.216,197.797,928.858,194.607,928.858,190.672 C928.858,186.737,932.216,183.547,936.358,183.547 C940.5,183.547,943.858,186.737,943.858,190.672 Z"/><path fill="#a1a1a1" stroke="#000" stroke-width="2" d="M997.858,190.672 C997.858,194.607,994.5,197.797,990.358,197.797 C986.216,197.797,982.858,194.607,982.858,190.672 C982.858,186.737,986.216,183.547,990.358,183.547 C994.5,183.547,997.858,186.737,997.858,190.672 Z"/><path fill="#a1a1a1" stroke="#000" stroke-width="2" d="M1051.86,190.672 C1051.86,194.607,1048.5,197.797,1044.36,197.797 C1040.22,197.797,1036.86,194.607,1036.86,190.672 C1036.86,186.737,1040.22,183.547,1044.36,183.547 C1048.5,183.547,1051.86,186.737,1051.86,190.672 Z"/></g><g><path fill="none" stroke="#ff0004" stroke-width="3" d="M748.683,73.0383 L1071.33,73.0383"/><path fill="none" stroke="#ff0004" stroke-width="3" d="M760.683,79.0383 L748.683,73.0383 L760.683,67.0383"/></g><path fill="none" stroke="#000" stroke-width="2" d="M745.301,244.672 L1071.33,244.672"/><path fill="#a1a1a1" stroke="#000" stroke-width="2" d="M781.858,244.672 C781.858,248.607,778.5,251.797,774.358,251.797 C770.216,251.797,766.858,248.607,766.858,244.672 C766.858,240.737,770.216,237.547,774.358,237.547 C778.5,237.547,781.858,240.737,781.858,244.672 Z"/><path fill="#a1a1a1" stroke="#000" stroke-width="2" d="M835.858,244.672 C835.858,248.607,832.5,251.797,828.358,251.797 C824.216,251.797,820.858,248.607,820.858,244.672 C820.858,240.737,824.216,237.547,828.358,237.547 C832.5,237.547,835.858,240.737,835.858,244.672 Z"/><path fill="#a1a1a1" stroke="#000" stroke-width="2" d="M889.858,244.672 C889.858,248.607,886.5,251.797,882.358,251.797 C878.216,251.797,874.858,248.607,874.858,244.672 C874.858,240.737,878.216,237.547,882.358,237.547 C886.5,237.547,889.858,240.737,889.858,244.672 Z"/><path fill="#a1a1a1" stroke="#000" stroke-width="2" d="M943.858,244.672 C943.858,248.607,940.5,251.797,936.358,251.797 C932.216,251.797,928.858,248.607,928.858,244.672 C928.858,240.737,932.216,237.547,936.358,237.547 C940.5,237.547,943.858,240.737,943.858,244.672 Z"/><path fill="#a1a1a1" stroke="#000" stroke-width="2" d="M997.858,244.672 C997.858,248.607,994.5,251.797,990.358,251.797 C986.216,251.797,982.858,248.607,982.858,244.672 C982.858,240.737,986.216,237.547,990.358,237.547 C994.5,237.547,997.858,240.737,997.858,244.672 Z"/><path fill="#a1a1a1" stroke="#000" stroke-width="2" d="M1051.86,244.672 C1051.86,248.607,1048.5,251.797,1044.36,251.797 C1040.22,251.797,1036.86,248.607,1036.86,244.672 C1036.86,240.737,1040.22,237.547,1044.36,237.547 C1048.5,237.547,1051.86,240.737,1051.86,244.672 Z"/><g><path fill="none" stroke="#007efd" stroke-width="3" d="M1071.33,254.068 L747.483,254.068"/><path fill="none" stroke="#007efd" stroke-width="3" d="M1059.33,248.068 L1071.33,254.068 L1059.33,260.068"/></g><text font-family="American Typewriter" font-size="30" text-anchor="middle" transform="matrix(0.6,0,0,0.6,477.049,281.199)" xml:space="preserve"><tspan>stack of uncoupled chains</tspan></text><g><g><path fill="none" stroke="#000" stroke-width="2" d="M720.826,299.607 L850.426,300.46"/><path fill="none" stroke="#000" stroke-width="2" d="M840.459,295.394 L850.426,300.46 L840.393,305.394"/></g><g><path fill="none" stroke="#000" stroke-width="2" d="M720.826,299.465 L720.826,168.275"/><path fill="none" stroke="#000" stroke-width="2" d="M715.826,178.275 L720.826,168.275 L725.826,178.275"/></g><g clip-path="url(#7fc872512890)"><clipPath id="7fc872512890"><path fill="#000" fill-opacity="0.35" d="M856.542,305.761 L867.949,305.761 L867.949,295.568 L856.542,295.568 Z"/></clipPath><g clip-path="url(#7fc87500d450)"><clipPath id="7fc87500d450"><path fill="#000" fill-opacity="0.35" d="M856.542,305.761 L867.942,305.761 L867.942,295.561 L856.542,295.561 Z"/></clipPath><path fill="#000" d="M863.204,298.891 C863.332,298.332,863.827,296.351,865.329,296.351 C865.441,296.351,865.952,296.351,866.416,296.639 C865.808,296.735,865.377,297.278,865.377,297.789 C865.377,298.141,865.617,298.556,866.192,298.556 C866.671,298.556,867.358,298.157,867.358,297.294 C867.358,296.175,866.08,295.872,865.361,295.872 C864.099,295.872,863.348,297.022,863.092,297.518 C862.549,296.096,861.383,295.872,860.76,295.872 C858.523,295.872,857.293,298.652,857.293,299.195 C857.293,299.419,857.517,299.419,857.549,299.419 C857.724,299.419,857.788,299.371,857.836,299.179 C858.571,296.894,859.993,296.351,860.728,296.351 C861.127,296.351,861.878,296.543,861.878,297.789 C861.878,298.46,861.511,299.914,860.728,302.918 C860.376,304.26,859.626,305.17,858.667,305.17 C858.539,305.17,858.044,305.17,857.597,304.883 C858.14,304.771,858.603,304.323,858.603,303.716 C858.603,303.141,858.14,302.965,857.82,302.965 C857.165,302.965,856.622,303.525,856.622,304.212 C856.622,305.202,857.708,305.634,858.651,305.634 C860.073,305.634,860.856,304.132,860.92,304.004 C861.175,304.803,861.942,305.634,863.236,305.634 C865.457,305.634,866.687,302.854,866.687,302.326 C866.687,302.103,866.495,302.103,866.432,302.103 C866.24,302.103,866.192,302.199,866.16,302.342 C865.441,304.643,863.971,305.17,863.284,305.17 C862.453,305.17,862.102,304.483,862.102,303.748 C862.102,303.269,862.23,302.79,862.469,301.847 L863.204,298.891"/></g></g><g clip-path="url(#7fc8750e1d50)"><clipPath id="7fc8750e1d50"><path fill="#000" fill-opacity="0.35" d="M715.428,161.132 L726.228,161.132 L726.228,146.737 L715.428,146.737 Z"/></clipPath><g clip-path="url(#7fc8747bb3f0)"><clipPath id="7fc8747bb3f0"><path fill="#000" fill-opacity="0.35" d="M716.028,161.132 L726.228,161.132 L726.228,146.732 L716.028,146.732 Z"/></clipPath><path fill="#000" d="M725.909,148.366 C725.989,148.063,725.989,148.015,725.989,147.871 C725.989,147.472,725.685,147.28,725.365,147.28 C725.142,147.28,724.806,147.408,724.615,147.743 C724.567,147.839,724.391,148.51,724.311,148.894 C724.151,149.453,724.007,150.044,723.88,150.619 L722.905,154.501 C722.825,154.821,721.899,156.339,720.477,156.339 C719.374,156.339,719.135,155.38,719.135,154.581 C719.135,153.591,719.502,152.265,720.237,150.364 C720.572,149.485,720.668,149.245,720.668,148.814 C720.668,147.839,719.981,147.04,718.895,147.04 C716.85,147.04,716.051,150.172,716.051,150.364 C716.051,150.587,716.275,150.587,716.307,150.587 C716.53,150.587,716.546,150.539,716.658,150.188 C717.233,148.175,718.096,147.52,718.831,147.52 C719.007,147.52,719.374,147.52,719.374,148.207 C719.374,148.75,719.151,149.309,719.007,149.724 C718.144,152.009,717.761,153.223,717.761,154.246 C717.761,156.163,719.119,156.802,720.381,156.802 C721.228,156.802,721.962,156.435,722.554,155.843 C722.282,156.962,722.026,158.016,721.164,159.151 C720.604,159.885,719.79,160.509,718.783,160.509 C718.496,160.509,717.521,160.445,717.154,159.614 C717.505,159.614,717.777,159.614,718.08,159.342 C718.288,159.151,718.512,158.879,718.512,158.464 C718.512,157.793,717.936,157.713,717.713,157.713 C717.217,157.713,716.498,158.064,716.498,159.119 C716.498,160.189,717.457,160.988,718.783,160.988 C721.004,160.988,723.225,159.023,723.832,156.594 L725.909,148.366"/></g></g></g><g><path fill="none" stroke="#ff0004" stroke-width="3" d="M836.673,160.874 C836.673,150.27,845.269,141.674,855.873,141.674 C866.477,141.674,875.073,150.27,875.073,160.874 C875.073,161.3,875.059,161.726,875.031,162.151"/><path fill="none" stroke="#ff0004" stroke-width="3" d="M845.195,153.12 C841.452,154.412,838.425,157.367,836.673,160.874 C834.433,156.349,834.149,151.01,835.415,146.166"/></g><g><path fill="none" stroke="#007efd" stroke-width="3" d="M875.288,163.669 C875.288,174.273,866.692,182.869,856.088,182.869 C845.484,182.869,836.888,174.273,836.888,163.669 C836.888,163.243,836.902,162.817,836.931,162.392"/><path fill="none" stroke="#007efd" stroke-width="3" d="M866.766,171.423 C870.509,170.131,873.536,167.176,875.288,163.669 C877.528,168.195,877.812,173.533,876.546,178.377"/></g></g><g><path fill="none" stroke="#000" stroke-width="2" d="M666.547,484.411 L855.547,484.411 L855.547,673.411 L666.547,673.411 Z"/><g clip-path="url(#7fc8743c5b60)"><clipPath id="7fc8743c5b60"><path fill="#000" fill-opacity="0.35" d="M736.71,708.871 L760.714,708.871 L760.714,684.866 L736.71,684.866 Z"/></clipPath><g clip-path="url(#7fc875143d60)"><clipPath id="7fc875143d60"><path fill="#000" fill-opacity="0.35" d="M736.71,708.871 L760.71,708.871 L760.71,684.871 L736.71,684.871 Z"/></clipPath><path fill="#000" d="M743.1,685.665 C743.1,685.645,743.1,685.385,742.741,685.385 C742.122,685.385,740.145,685.585,739.446,685.645 C739.246,685.665,738.946,685.705,738.946,686.184 C738.946,686.504,739.186,686.504,739.586,686.504 C740.884,686.504,740.944,686.703,740.944,686.963 L740.864,687.502 L736.949,703.019 C736.85,703.399,736.85,703.459,736.85,703.618 C736.85,704.238,737.389,704.357,737.628,704.357 C737.968,704.357,738.367,704.118,738.547,703.798 C738.667,703.559,739.885,698.566,740.045,697.907 C740.963,697.987,743.18,698.406,743.18,700.183 C743.18,700.383,743.18,700.483,743.08,700.763 C743.04,701.082,742.981,701.402,742.981,701.701 C742.981,703.279,744.059,704.357,745.457,704.357 C746.276,704.357,746.995,703.938,747.594,702.939 C748.253,701.761,748.552,700.263,748.552,700.223 C748.552,699.944,748.313,699.944,748.233,699.944 C747.973,699.944,747.933,700.064,747.853,700.443 C747.314,702.4,746.695,703.778,745.517,703.778 C744.998,703.778,744.658,703.479,744.658,702.5 C744.658,702.041,744.758,701.422,744.878,701.002 C744.978,700.543,744.978,700.423,744.978,700.164 C744.978,698.406,743.28,697.627,740.983,697.328 C741.822,696.848,742.681,695.99,743.3,695.351 C744.598,693.913,745.836,692.754,747.154,692.754 C747.314,692.754,747.354,692.754,747.394,692.774 C747.714,692.834,747.754,692.834,747.973,692.994 C748.013,693.034,748.013,693.054,748.073,693.114 C746.775,693.194,746.535,694.232,746.535,694.552 C746.535,694.991,746.835,695.51,747.554,695.51 C748.253,695.51,749.052,694.911,749.052,693.853 C749.052,693.054,748.432,692.155,747.214,692.155 C746.455,692.155,745.217,692.375,743.28,694.532 C742.361,695.55,741.323,696.629,740.284,697.048 L743.1,685.665"/><path fill="#000" d="M754.064,706.135 C753.884,706.774,753.265,707.792,752.307,707.792 C752.247,707.792,751.688,707.792,751.288,707.513 C752.047,707.273,752.107,706.594,752.107,706.494 C752.107,706.075,751.788,705.795,751.368,705.795 C750.829,705.795,750.29,706.235,750.29,706.934 C750.29,707.872,751.348,708.312,752.267,708.312 C753.126,708.312,753.904,707.772,754.364,706.973 C754.823,707.972,755.862,708.312,756.6,708.312 C758.757,708.312,759.916,705.955,759.916,705.436 C759.916,705.196,759.676,705.196,759.616,705.196 C759.356,705.196,759.336,705.276,759.257,705.516 C758.857,706.814,757.739,707.792,756.68,707.792 C755.921,707.792,755.522,707.273,755.522,706.554 C755.522,706.075,755.981,704.357,756.501,702.28 C756.88,700.823,757.739,700.363,758.358,700.363 C758.378,700.363,758.977,700.363,759.376,700.623 C758.757,700.783,758.538,701.322,758.538,701.661 C758.538,702.061,758.857,702.36,759.297,702.36 C759.716,702.36,760.335,702.001,760.335,701.202 C760.335,700.144,759.137,699.824,758.398,699.824 C757.439,699.824,756.7,700.443,756.281,701.162 C755.941,700.403,755.083,699.824,754.024,699.824 C751.927,699.824,750.729,702.141,750.729,702.7 C750.729,702.959,750.989,702.959,751.049,702.959 C751.288,702.959,751.308,702.879,751.388,702.64 C751.867,701.162,753.046,700.363,753.964,700.363 C754.583,700.363,755.103,700.703,755.103,701.601 C755.103,701.981,754.883,702.919,754.703,703.559 L754.064,706.135"/></g></g><g clip-path="url(#7fc8743b3ec0)"><clipPath id="7fc8743b3ec0"><path fill="#000" fill-opacity="0.35" d="M631.749,592.514 L655.754,592.514 L655.754,564.754 L631.749,564.754 Z"/></clipPath><g clip-path="url(#7fc8751e5ce0)"><clipPath id="7fc8751e5ce0"><path fill="#000" fill-opacity="0.35" d="M631.749,592.514 L655.749,592.514 L655.749,564.764 L631.749,564.764 Z"/></clipPath><path fill="#000" d="M638.44,565.573 C638.44,565.533,638.44,565.274,638.08,565.274 C637.461,565.274,635.504,565.493,634.785,565.533 C634.585,565.573,634.286,565.593,634.286,566.072 C634.286,566.392,634.525,566.392,634.925,566.392 C636.223,566.392,636.283,566.592,636.283,566.851 L636.203,567.391 L632.289,582.908 C632.189,583.287,632.189,583.347,632.189,583.507 C632.189,584.126,632.728,584.266,632.968,584.266 C633.307,584.266,633.707,584.026,633.886,583.687 C634.006,583.447,635.224,578.474,635.384,577.795 C636.303,577.875,638.519,578.314,638.519,580.092 C638.519,580.272,638.519,580.371,638.44,580.651 C638.38,580.971,638.32,581.29,638.32,581.59 C638.32,583.187,639.398,584.266,640.796,584.266 C641.615,584.266,642.334,583.826,642.933,582.828 C643.592,581.65,643.892,580.172,643.892,580.112 C643.892,579.832,643.652,579.832,643.572,579.832 C643.312,579.832,643.273,579.952,643.193,580.331 C642.653,582.289,642.034,583.667,640.856,583.667 C640.337,583.667,639.997,583.367,639.997,582.408 C639.997,581.949,640.097,581.33,640.217,580.891 C640.317,580.431,640.317,580.331,640.317,580.052 C640.317,578.314,638.619,577.516,636.323,577.236 C637.161,576.737,638.02,575.878,638.639,575.239 C639.937,573.801,641.176,572.643,642.494,572.643 C642.653,572.643,642.693,572.643,642.733,572.683 C643.053,572.723,643.093,572.723,643.312,572.882 C643.352,572.922,643.352,572.942,643.412,573.002 C642.114,573.082,641.875,574.121,641.875,574.46 C641.875,574.879,642.174,575.399,642.893,575.399 C643.592,575.399,644.391,574.8,644.391,573.761 C644.391,572.942,643.772,572.064,642.554,572.064 C641.795,572.064,640.557,572.263,638.619,574.42 C637.701,575.459,636.662,576.537,635.624,576.936 L638.44,565.573"/><path fill="#000" d="M655.175,580.931 C655.255,580.671,655.255,580.631,655.255,580.511 C655.255,580.132,654.955,579.912,654.636,579.912 C654.416,579.912,654.057,580.012,653.857,580.371 C653.797,580.471,653.657,581.07,653.557,581.45 L653.158,583.007 C653.058,583.467,652.459,585.823,652.419,586.043 C652.399,586.043,651.56,587.681,650.102,587.681 C648.824,587.681,648.824,586.462,648.824,586.123 C648.824,585.104,649.264,583.926,649.823,582.468 C650.042,581.869,650.142,581.65,650.142,581.33 C650.142,580.411,649.364,579.732,648.345,579.732 C646.448,579.732,645.609,582.289,645.609,582.608 C645.609,582.848,645.869,582.848,645.929,582.848 C646.188,582.848,646.208,582.748,646.268,582.548 C646.727,580.99,647.546,580.252,648.305,580.252 C648.625,580.252,648.764,580.451,648.764,580.911 C648.764,581.35,648.605,581.749,648.505,581.989 C647.606,584.286,647.406,584.985,647.406,585.823 C647.406,586.143,647.406,587.022,648.145,587.621 C648.724,588.1,649.523,588.2,650.023,588.2 C650.781,588.2,651.46,587.92,652.08,587.361 C651.82,588.38,651.62,589.178,650.841,590.117 C650.322,590.696,649.563,591.315,648.585,591.315 C648.445,591.315,647.566,591.315,647.167,590.696 C648.185,590.596,648.185,589.678,648.185,589.658 C648.185,589.059,647.646,588.959,647.446,588.959 C646.987,588.959,646.368,589.338,646.368,590.197 C646.368,591.156,647.267,591.854,648.605,591.854 C650.502,591.854,652.798,590.377,653.398,588.04 L655.175,580.931"/></g></g><g><path fill="none" stroke="#007efd" stroke-width="3" d="M747.547,673.411 L747.547,484.411"/><path fill="#007efd" d="M747.547,678.661 C744.648,678.661,742.297,676.31,742.297,673.411 C742.297,670.511,744.648,668.161,747.547,668.161 C750.447,668.161,752.797,670.511,752.797,673.411 C752.797,676.31,750.447,678.661,747.547,678.661"/><path fill="#007efd" d="M747.547,479.161 C750.447,479.161,752.797,481.511,752.797,484.411 C752.797,487.31,750.447,489.661,747.547,489.661 C744.648,489.661,742.297,487.31,742.297,484.411 C742.297,481.511,744.648,479.161,747.547,479.161"/></g><g clip-path="url(#7fc8743c0380)"><clipPath id="7fc8743c0380"><path fill="#000" fill-opacity="0.35" d="M750.962,568.02 L771.212,568.02 L771.212,547.47 L750.962,547.47 Z"/></clipPath><g clip-path="url(#7fc875104630)"><clipPath id="7fc875104630"><path fill="#000" fill-opacity="0.35" d="M750.962,567.729 L771.212,567.729 L771.212,547.479 L750.962,547.479 Z"/></clipPath><path fill="#000" d="M770.613,548.409 C770.613,548.329,770.553,548.149,770.314,548.149 C770.234,548.149,770.214,548.169,769.914,548.469 L768.017,550.546 C767.777,550.166,766.539,548.149,763.544,548.149 C757.552,548.149,751.481,554.101,751.481,560.351 C751.481,564.785,754.657,567.721,758.791,567.721 C761.127,567.721,763.184,566.642,764.602,565.404 C767.098,563.207,767.558,560.751,767.558,560.671 C767.558,560.391,767.298,560.391,767.238,560.391 C767.078,560.391,766.939,560.451,766.899,560.671 C766.659,561.45,766.02,563.367,764.163,564.925 C762.305,566.422,760.608,566.882,759.21,566.882 C756.793,566.882,753.938,565.484,753.938,561.29 C753.938,559.752,754.497,555.379,757.193,552.243 C758.83,550.326,761.367,548.968,763.763,548.968 C766.519,548.968,768.097,551.045,768.097,554.18 C768.097,555.259,768.017,555.279,768.017,555.538 C768.017,555.818,768.316,555.818,768.436,555.818 C768.776,555.818,768.776,555.758,768.916,555.279 L770.613,548.409"/></g></g><path fill="#000" d="M659.305,685.321 C659.305,683.718,659.215,682.101,658.496,680.603 C657.567,678.656,655.92,678.341,655.066,678.341 C653.853,678.341,652.385,678.865,651.546,680.737 C650.902,682.131,650.797,683.703,650.797,685.321 C650.797,686.849,650.887,688.661,651.711,690.189 C652.58,691.836,654.062,692.241,655.051,692.241 C656.129,692.241,657.672,691.806,658.556,689.889 C659.215,688.496,659.305,686.923,659.305,685.321 Z M655.051,691.791 C654.257,691.791,653.074,691.282,652.699,689.35 C652.475,688.137,652.475,686.279,652.475,685.081 C652.475,683.793,652.475,682.46,652.639,681.367 C653.029,678.97,654.542,678.775,655.051,678.775 C655.71,678.775,657.043,679.15,657.432,681.142 C657.627,682.28,657.627,683.808,657.627,685.081 C657.627,686.594,657.627,687.972,657.417,689.26 C657.103,691.192,655.95,691.791,655.051,691.791"/><g><path fill="#000" d="M845.535,689.677 L847.677,687.596 C850.837,684.81,852.036,683.716,852.036,681.694 C852.036,679.388,850.223,677.77,847.767,677.77 C845.475,677.77,843.977,679.627,843.977,681.425 C843.977,682.563,844.996,682.563,845.056,682.563 C845.4,682.563,846.104,682.323,846.104,681.485 C846.104,680.96,845.745,680.436,845.026,680.436 C844.876,680.436,844.831,680.436,844.771,680.466 C845.236,679.148,846.329,678.399,847.497,678.399 C849.34,678.399,850.208,680.032,850.208,681.694 C850.208,683.312,849.19,684.899,848.081,686.158 L844.202,690.486 C843.977,690.696,843.977,690.741,843.977,691.22 L851.481,691.22 L852.036,687.715 L851.541,687.715 C851.436,688.314,851.302,689.213,851.092,689.513 C850.957,689.677,849.624,689.677,849.175,689.677 L845.535,689.677"/><path fill="#000" d="M858.401,683.686 L860.678,683.686 C860.004,686.682,859.824,687.551,859.824,688.899 C859.824,689.213,859.824,689.752,859.989,690.441 C860.199,691.325,860.408,691.445,860.723,691.445 C861.127,691.445,861.547,691.085,861.547,690.681 C861.547,690.561,861.547,690.516,861.427,690.232 C860.843,688.779,860.843,687.476,860.843,686.907 C860.843,685.828,860.977,684.75,861.202,683.686 L863.509,683.686 C863.763,683.686,864.497,683.686,864.497,683.012 C864.497,682.518,864.078,682.518,863.688,682.518 L856.918,682.518 C856.469,682.518,855.705,682.518,854.821,683.477 C854.118,684.255,853.593,685.184,853.593,685.289 C853.593,685.304,853.593,685.484,853.833,685.484 C853.998,685.484,854.028,685.409,854.147,685.244 C855.136,683.686,856.319,683.686,856.724,683.686 L857.877,683.686 C857.218,686.143,856.14,688.584,855.286,690.426 C855.121,690.726,855.121,690.756,855.121,690.906 C855.121,691.28,855.451,691.445,855.705,691.445 C856.319,691.445,856.469,690.876,856.724,690.142 C857.008,689.213,857.008,689.168,857.263,688.15 L858.401,683.686"/></g><g><path fill="#000" d="M643.27,486.952 L645.411,484.87 C648.572,482.084,649.77,480.99,649.77,478.968 C649.77,476.662,647.958,475.044,645.501,475.044 C643.21,475.044,641.712,476.901,641.712,478.699 C641.712,479.837,642.73,479.837,642.79,479.837 C643.135,479.837,643.839,479.597,643.839,478.759 C643.839,478.234,643.479,477.71,642.76,477.71 C642.611,477.71,642.566,477.71,642.506,477.74 C642.97,476.422,644.063,475.673,645.232,475.673 C647.074,475.673,647.943,477.306,647.943,478.968 C647.943,480.586,646.924,482.174,645.816,483.432 L641.937,487.76 C641.712,487.97,641.712,488.015,641.712,488.494 L649.216,488.494 L649.77,484.989 L649.276,484.989 C649.171,485.589,649.036,486.487,648.826,486.787 C648.692,486.952,647.359,486.952,646.909,486.952 L643.27,486.952"/><path fill="#000" d="M656.136,480.96 L658.412,480.96 C657.738,483.956,657.559,484.825,657.559,486.173 C657.559,486.487,657.559,487.026,657.723,487.715 C657.933,488.599,658.143,488.719,658.457,488.719 C658.862,488.719,659.281,488.359,659.281,487.955 C659.281,487.835,659.281,487.79,659.161,487.506 C658.577,486.053,658.577,484.75,658.577,484.181 C658.577,483.102,658.712,482.024,658.937,480.96 L661.243,480.96 C661.498,480.96,662.232,480.96,662.232,480.286 C662.232,479.792,661.812,479.792,661.423,479.792 L654.653,479.792 C654.204,479.792,653.44,479.792,652.556,480.751 C651.852,481.529,651.328,482.458,651.328,482.563 C651.328,482.578,651.328,482.758,651.567,482.758 C651.732,482.758,651.762,482.683,651.882,482.518 C652.871,480.96,654.054,480.96,654.458,480.96 L655.611,480.96 C654.952,483.417,653.874,485.858,653.02,487.7 C652.856,488,652.856,488.03,652.856,488.18 C652.856,488.554,653.185,488.719,653.44,488.719 C654.054,488.719,654.204,488.15,654.458,487.416 C654.743,486.487,654.743,486.442,654.997,485.424 L656.136,480.96"/></g></g><g><path fill="#fff" fill-opacity="0.01" stroke="#000" stroke-width="2" stroke-dasharray="2" d="M628.387,1460.12 C628.387,1457.69,618.012,1455.72,605.213,1455.72 C592.415,1455.72,582.04,1457.69,582.04,1460.12 C582.04,1462.55,592.415,1464.52,605.213,1464.52 C618.012,1464.52,628.387,1462.55,628.387,1460.12 Z"/><path fill="#fff" fill-opacity="0.01" stroke="#000" stroke-width="2" stroke-dasharray="2" d="M582.04,1459.27 C582.04,1447.3,592.311,1437.59,604.981,1437.59 C617.651,1437.59,627.923,1447.3,627.923,1459.27"/><g><path fill="#fff" fill-opacity="0.01" stroke="#000" stroke-width="2" stroke-dasharray="2" d="M399.277,1162.69 C399.277,1150.72,409.548,1141.01,422.218,1141.01 C434.888,1141.01,445.16,1150.72,445.16,1162.69"/><path fill="#fff" fill-opacity="0.01" stroke="#000" stroke-width="2" stroke-dasharray="2" d="M445.624,1163.54 C445.624,1161.1,435.249,1159.14,422.45,1159.14 C409.652,1159.14,399.277,1161.1,399.277,1163.54 C399.277,1165.97,409.652,1167.94,422.45,1167.94 C435.249,1167.94,445.624,1165.97,445.624,1163.54 Z"/></g><g><path fill="#fff" fill-opacity="0.01" stroke="#000" stroke-width="2" stroke-dasharray="2" d="M399.277,1277.89 C399.277,1265.92,409.548,1256.21,422.218,1256.21 C434.888,1256.21,445.16,1265.92,445.16,1277.89"/><path fill="#fff" fill-opacity="0.01" stroke="#000" stroke-width="2" stroke-dasharray="2" d="M445.624,1278.74 C445.624,1276.3,435.249,1274.34,422.45,1274.34 C409.652,1274.34,399.277,1276.3,399.277,1278.74 C399.277,1281.17,409.652,1283.14,422.45,1283.14 C435.249,1283.14,445.624,1281.17,445.624,1278.74 Z"/></g><g><path fill="#fff" fill-opacity="0.01" stroke="#000" stroke-width="2" stroke-dasharray="2" d="M399.277,1508.29 C399.277,1496.32,409.548,1486.61,422.218,1486.61 C434.888,1486.61,445.16,1496.32,445.16,1508.29"/><path fill="#fff" fill-opacity="0.01" stroke="#000" stroke-width="2" stroke-dasharray="2" d="M445.624,1509.14 C445.624,1506.7,435.249,1504.74,422.45,1504.74 C409.652,1504.74,399.277,1506.7,399.277,1509.14 C399.277,1511.57,409.652,1513.54,422.45,1513.54 C435.249,1513.54,445.624,1511.57,445.624,1509.14 Z"/></g><path fill="#c9c9c9" fill-opacity="0.42" stroke="#000" stroke-width="2" stroke-dasharray="5" d="M441.458,1415 L700.658,1415 L580.85,1501.4 L321.65,1501.4 Z"/><g><path fill="#007efd" stroke="#000" stroke-width="2" d="M398.914,1452.69 C398.914,1464.67,409.185,1474.37,421.855,1474.37 C434.525,1474.37,444.796,1464.67,444.796,1452.69"/><path fill="#0049fd" stroke="#000" stroke-width="2" d="M445.261,1451.85 C445.261,1454.28,434.885,1456.25,422.087,1456.25 C409.289,1456.25,398.914,1454.28,398.914,1451.85 C398.914,1449.42,409.289,1447.45,422.087,1447.45 C434.885,1447.45,445.261,1449.42,445.261,1451.85 Z"/></g><path fill="#c9c9c9" fill-opacity="0.42" stroke="#000" stroke-width="2" stroke-dasharray="5" d="M441.458,1069.4 L700.658,1069.4 L580.85,1155.8 L321.65,1155.8 Z"/><g><path fill="none" stroke="#000" stroke-width="2" d="M321.65,1528.6 L321.65,865.397"/><path fill="none" stroke="#000" stroke-width="2" d="M316.65,875.397 L321.65,865.397 L326.65,875.397"/></g><g><path fill="#fff" fill-opacity="0.01" stroke="#000" stroke-width="2" stroke-dasharray="2" d="M582.04,1228.87 C582.04,1216.9,592.311,1207.19,604.981,1207.19 C617.651,1207.19,627.923,1216.9,627.923,1228.87"/><path fill="#fff" fill-opacity="0.01" stroke="#000" stroke-width="2" stroke-dasharray="2" d="M628.387,1229.72 C628.387,1227.29,618.012,1225.32,605.213,1225.32 C592.415,1225.32,582.04,1227.29,582.04,1229.72 C582.04,1232.15,592.415,1234.12,605.213,1234.12 C618.012,1234.12,628.387,1232.15,628.387,1229.72 Z"/></g><path fill="#c9c9c9" fill-opacity="0.42" stroke="#000" stroke-width="2" stroke-dasharray="5" d="M441.458,1184.6 L700.658,1184.6 L580.85,1271 L321.65,1271 Z"/><g><path fill="#ff0004" stroke="#000" stroke-width="2" d="M398.914,1222.29 C398.914,1234.27,409.185,1243.97,421.855,1243.97 C434.525,1243.97,444.796,1234.27,444.796,1222.29"/><path fill="#d20000" stroke="#000" stroke-width="2" d="M445.261,1221.45 C445.261,1223.88,434.885,1225.85,422.087,1225.85 C409.289,1225.85,398.914,1223.88,398.914,1221.45 C398.914,1219.02,409.289,1217.05,422.087,1217.05 C434.885,1217.05,445.261,1219.02,445.261,1221.45 Z"/></g><g><path fill="#ff0004" stroke="#000" stroke-width="2" d="M398.914,1107.09 C398.914,1119.07,409.185,1128.77,421.855,1128.77 C434.525,1128.77,444.796,1119.07,444.796,1107.09"/><path fill="#d20000" stroke="#000" stroke-width="2" d="M445.261,1106.25 C445.261,1108.68,434.885,1110.65,422.087,1110.65 C409.289,1110.65,398.914,1108.68,398.914,1106.25 C398.914,1103.82,409.289,1101.85,422.087,1101.85 C434.885,1101.85,445.261,1103.82,445.261,1106.25 Z"/></g><g clip-path="url(#7fc874753fe0)"><clipPath id="7fc874753fe0"><path fill="#000" fill-opacity="0.35" d="M281.066,848.676 L347.465,848.676 L347.465,819.067 L281.066,819.067 Z"/></clipPath><g clip-path="url(#7fc8742e8220)"><clipPath id="7fc8742e8220"><path fill="#000" fill-opacity="0.35" d="M281.066,848.676 L347.466,848.676 L347.466,819.076 L281.066,819.076 Z"/></clipPath><path fill="#000" d="M286.988,829.654 L289.694,829.654 C290.269,829.654,290.546,829.654,290.546,829.079 C290.546,828.78,290.269,828.78,289.736,828.78 L287.223,828.78 C288.245,824.69,288.394,824.115,288.394,823.945 C288.394,823.455,288.053,823.178,287.564,823.178 C287.478,823.178,286.669,823.199,286.413,824.2 L285.284,828.78 L282.6,828.78 C282.025,828.78,281.727,828.78,281.727,829.313 C281.727,829.654,281.961,829.654,282.536,829.654 L285.071,829.654 C282.984,837.834,282.877,838.302,282.877,838.835 C282.877,840.39,283.963,841.476,285.519,841.476 C288.458,841.476,290.098,837.28,290.098,837.046 C290.098,836.769,289.864,836.769,289.736,836.769 C289.481,836.769,289.459,836.854,289.31,837.173 C288.075,840.156,286.562,840.837,285.582,840.837 C284.965,840.837,284.688,840.475,284.688,839.517 C284.688,838.835,284.752,838.622,284.858,838.132 L286.988,829.675"/><path fill="#000" d="M301.516,841.817 L300.835,841.817 C300.771,842.265,300.579,843.457,300.302,843.649 C300.153,843.777,298.598,843.777,298.321,843.777 L294.636,843.777 C296.745,841.902,297.448,841.349,298.641,840.411 C300.132,839.218,301.516,837.983,301.516,836.066 C301.516,833.637,299.386,832.167,296.83,832.167 C294.338,832.167,292.655,833.914,292.655,835.746 C292.655,836.769,293.507,836.875,293.72,836.875 C294.188,836.875,294.785,836.534,294.785,835.81 C294.785,835.448,294.636,834.745,293.592,834.745 C294.21,833.318,295.573,832.892,296.51,832.892 C298.513,832.892,299.578,834.447,299.578,836.066 C299.578,837.812,298.321,839.197,297.682,839.921 L292.846,844.693 C292.655,844.885,292.655,844.906,292.655,845.481 L300.92,845.481 L301.516,841.817"/><path fill="#000" d="M316.875,820.707 C317.024,820.323,317.024,820.217,317.024,820.174 C317.024,819.876,316.769,819.599,316.449,819.599 C316.257,819.599,316.044,819.684,315.959,819.876 L305.99,847.249 C305.841,847.611,305.841,847.739,305.841,847.76 C305.841,848.08,306.096,848.336,306.416,848.336 C306.799,848.336,306.884,848.144,307.055,847.654 L316.875,820.707"/><path fill="#000" d="M343.587,823.753 C343.843,822.709,343.907,822.432,346.059,822.432 C346.719,822.432,346.975,822.432,346.975,821.857 C346.975,821.538,346.698,821.538,346.208,821.538 L342.416,821.538 C341.671,821.538,341.628,821.538,341.287,822.07 L330.807,838.451 L328.57,822.198 C328.485,821.538,328.421,821.538,327.675,821.538 L323.734,821.538 C323.202,821.538,322.882,821.538,322.882,822.07 C322.882,822.432,323.138,822.432,323.713,822.432 C324.075,822.432,324.608,822.454,324.949,822.475 C325.396,822.539,325.566,822.624,325.566,822.944 C325.566,823.05,325.545,823.135,325.46,823.476 L321.817,838.111 C321.519,839.261,321.029,840.177,318.707,840.262 C318.558,840.262,318.196,840.283,318.196,840.816 C318.196,841.072,318.366,841.157,318.6,841.157 C319.516,841.157,320.518,841.072,321.476,841.072 C322.435,841.072,323.479,841.157,324.416,841.157 C324.565,841.157,324.949,841.157,324.949,840.582 C324.949,840.262,324.629,840.262,324.416,840.262 C322.797,840.241,322.477,839.666,322.477,839.005 C322.477,838.792,322.499,838.664,322.584,838.345 L326.504,822.688 L326.525,822.688 L328.996,840.496 C329.06,840.837,329.081,841.157,329.422,841.157 C329.741,841.157,329.912,840.837,330.061,840.646 L341.671,822.454 L341.692,822.454 L337.581,838.92 C337.304,840.028,337.24,840.262,334.96,840.262 C334.492,840.262,334.172,840.262,334.172,840.816 C334.172,841.157,334.513,841.157,334.598,841.157 C335.408,841.157,337.346,841.072,338.156,841.072 C339.327,841.072,340.563,841.157,341.756,841.157 C341.926,841.157,342.288,841.157,342.288,840.582 C342.288,840.262,342.033,840.262,341.5,840.262 C340.435,840.262,339.626,840.262,339.626,839.751 C339.626,839.623,339.626,839.58,339.775,839.048 L343.587,823.753"/></g></g><g clip-path="url(#7fc874796bb0)"><clipPath id="7fc874796bb0"><path fill="#000" fill-opacity="0.35" d="M277.223,1279.18 L290.025,1279.18 L290.025,1258.56 L277.223,1258.56 Z"/></clipPath><g clip-path="url(#7fc87421f540)"><clipPath id="7fc87421f540"><path fill="#000" fill-opacity="0.35" d="M277.223,1279.35 L290.023,1279.35 L290.023,1258.55 L277.223,1258.55 Z"/></clipPath><path fill="#000" d="M289.961,1269.04 C289.961,1266.74,289.812,1264.44,288.811,1262.31 C287.49,1259.56,285.126,1259.09,283.933,1259.09 C282.208,1259.09,280.099,1259.83,278.927,1262.52 C278.011,1264.5,277.862,1266.74,277.862,1269.04 C277.862,1271.19,277.968,1273.77,279.161,1275.96 C280.397,1278.28,282.484,1278.86,283.89,1278.86 C285.445,1278.86,287.64,1278.26,288.896,1275.53 C289.812,1273.55,289.961,1271.3,289.961,1269.04 Z M283.89,1278.22 C282.783,1278.22,281.079,1277.52,280.567,1274.75 C280.248,1273.02,280.248,1270.38,280.248,1268.7 C280.248,1266.84,280.248,1264.95,280.482,1263.39 C281.015,1259.98,283.187,1259.73,283.89,1259.73 C284.849,1259.73,286.745,1260.24,287.277,1263.09 C287.576,1264.69,287.576,1266.89,287.576,1268.7 C287.576,1270.85,287.576,1272.81,287.256,1274.64 C286.83,1277.37,285.19,1278.22,283.89,1278.22"/></g></g><text font-family="American Typewriter" font-size="30" text-anchor="middle" transform="matrix(0.8,0,0,0.8,821.115,1001.18)" xml:space="preserve"><tspan>topological phase,</tspan></text><text font-family="American Typewriter" font-size="30" text-anchor="middle" transform="matrix(0.8,0,0,0.8,821.115,1451.73)" xml:space="preserve"><tspan>topological phase,</tspan></text><text font-family="American Typewriter" font-size="30" text-anchor="middle" transform="matrix(0.8,0,0,0.8,828.684,1236.21)" xml:space="preserve"><tspan>trivial phase, W=0</tspan></text><text font-family="American Typewriter" font-size="30" text-anchor="middle" transform="matrix(0.8,0,0,0.8,817.26,1098.71)" xml:space="preserve"><tspan>gap closing at K'</tspan></text><text font-family="American Typewriter" font-size="30" text-anchor="middle" transform="matrix(0.8,0,0,0.8,812.237,1341.66)" xml:space="preserve"><tspan>gap closing at K</tspan></text><g><path fill="#fff" fill-opacity="0.01" stroke="#000" stroke-width="2" stroke-dasharray="2" d="M399.277,1047.49 C399.277,1035.52,409.548,1025.81,422.218,1025.81 C434.888,1025.81,445.16,1035.52,445.16,1047.49"/><path fill="#fff" fill-opacity="0.01" stroke="#000" stroke-width="2" stroke-dasharray="2" d="M445.624,1048.34 C445.624,1045.9,435.249,1043.94,422.45,1043.94 C409.652,1043.94,399.277,1045.9,399.277,1048.34 C399.277,1050.77,409.652,1052.74,422.45,1052.74 C435.249,1052.74,445.624,1050.77,445.624,1048.34 Z"/></g><g><path fill="#fff" fill-opacity="0.01" stroke="#000" stroke-width="2" stroke-dasharray="2" d="M582.04,998.474 C582.04,986.497,592.311,976.789,604.981,976.789 C617.651,976.789,627.923,986.497,627.923,998.474"/><path fill="#fff" fill-opacity="0.01" stroke="#000" stroke-width="2" stroke-dasharray="2" d="M628.387,999.316 C628.387,996.886,618.012,994.916,605.213,994.916 C592.415,994.916,582.04,996.886,582.04,999.316 C582.04,1001.75,592.415,1003.72,605.213,1003.72 C618.012,1003.72,628.387,1001.75,628.387,999.316 Z"/></g><path fill="#c9c9c9" fill-opacity="0.42" stroke="#000" stroke-width="2" stroke-dasharray="5" d="M441.458,954.197 L700.658,954.197 L580.85,1040.6 L321.65,1040.6 Z"/><g><path fill="#ff0004" stroke="#000" stroke-width="2" d="M398.914,991.889 C398.914,1003.87,409.185,1013.57,421.855,1013.57 C434.525,1013.57,444.796,1003.87,444.796,991.889"/><path fill="#d20000" stroke="#000" stroke-width="2" d="M445.261,991.046 C445.261,993.476,434.885,995.446,422.087,995.446 C409.289,995.446,398.914,993.476,398.914,991.046 C398.914,988.616,409.289,986.646,422.087,986.646 C434.885,986.646,445.261,988.616,445.261,991.046 Z"/></g><path fill="#fff" fill-opacity="0.01" stroke="#000" stroke-width="2" stroke-dasharray="2" d="M582.04,1344.07 C582.04,1332.1,592.311,1322.39,604.981,1322.39 C617.651,1322.39,627.923,1332.1,627.923,1344.07"/><path fill="#fff" fill-opacity="0.01" stroke="#000" stroke-width="2" stroke-dasharray="2" d="M628.387,1344.92 C628.387,1342.49,618.012,1340.52,605.213,1340.52 C592.415,1340.52,582.04,1342.49,582.04,1344.92 C582.04,1347.35,592.415,1349.32,605.213,1349.32 C618.012,1349.32,628.387,1347.35,628.387,1344.92 Z"/><path fill="#c9c9c9" fill-opacity="0.42" stroke="#000" stroke-width="2" stroke-dasharray="5" d="M441.458,1299.8 L700.658,1299.8 L580.85,1386.2 L321.65,1386.2 Z"/><path fill="none" stroke="#000" d="M281.727,1220.65 L381,1234.12"/><text fill="#ff0004" font-family="American Typewriter" font-size="30" text-anchor="middle" transform="matrix(0.8,0,0,0.8,196.318,1200.08)" xml:space="preserve"><tspan>positive Berry</tspan><tspan x="0" y="36">curvature</tspan></text><g><g><path fill="#fff" fill-opacity="0.01" stroke="#000" stroke-width="2" stroke-dasharray="2" d="M627.987,1114.31 C627.987,1116.74,617.612,1118.71,604.813,1118.71 C592.015,1118.71,581.64,1116.74,581.64,1114.31 C581.64,1111.88,592.015,1109.91,604.813,1109.91 C617.612,1109.91,627.987,1111.88,627.987,1114.31 Z"/><path fill="none" stroke="#000" stroke-width="2" stroke-dasharray="2" d="M581.64,1114.66 L604.813,1086.22"/><path fill="none" stroke="#000" stroke-width="2" stroke-dasharray="2" d="M604.813,1086.22 L627.987,1114.66"/></g><g><path fill="#a544fd" stroke="#000" stroke-width="2" d="M581.64,1057.42 L604.813,1085.86 L627.987,1057.42"/><path fill="#7d00fd" stroke="#000" stroke-width="2" d="M627.987,1057.42 C627.987,1059.85,617.612,1061.82,604.813,1061.82 C592.015,1061.82,581.64,1059.85,581.64,1057.42 C581.64,1054.99,592.015,1053.02,604.813,1053.02 C617.612,1053.02,627.987,1054.99,627.987,1057.42 Z"/></g></g><path fill="none" stroke="#000" d="M711.807,868.32 L652,966.601"/><text font-family="American Typewriter" font-size="30" text-anchor="middle" transform="matrix(0.8,0,0,0.8,731.213,859.238)" xml:space="preserve"><tspan>Brillouin zone</tspan></text><g clip-path="url(#7fc87434a610)"><clipPath id="7fc87434a610"><path fill="#000" fill-opacity="0.35" d="M228.196,1170.48 L307.397,1170.48 L307.397,1136.07 L228.196,1136.07 Z"/></clipPath><g clip-path="url(#7fc8743e4560)"><clipPath id="7fc8743e4560"><path fill="#000" fill-opacity="0.35" d="M228.196,1170.48 L307.396,1170.48 L307.396,1136.08 L228.196,1136.08 Z"/></clipPath><path fill="#000" d="M234.395,1144.72 C234.395,1144.04,234.395,1143.98,233.735,1143.98 C231.967,1145.83,229.432,1145.83,228.516,1145.83 L228.516,1146.7 C229.091,1146.7,230.774,1146.7,232.286,1145.96 L232.286,1160.85 C232.286,1161.89,232.201,1162.23,229.602,1162.23 L228.686,1162.23 L228.686,1163.11 C229.687,1163.02,232.201,1163.02,233.33,1163.02 C234.48,1163.02,236.994,1163.02,237.995,1163.11 L237.995,1162.23 L237.079,1162.23 C234.48,1162.23,234.395,1161.91,234.395,1160.85 L234.395,1144.72"/><path fill="#000" d="M252.885,1142.66 C253.034,1142.29,253.034,1142.17,253.034,1142.14 C253.034,1141.82,252.779,1141.57,252.459,1141.57 C252.268,1141.57,252.054,1141.65,251.969,1141.82 L242,1169.2 C241.851,1169.58,241.851,1169.69,241.851,1169.73 C241.851,1170.05,242.106,1170.31,242.426,1170.31 C242.809,1170.31,242.895,1170.09,243.065,1169.6 L252.885,1142.66"/><path fill="#000" d="M263.004,1153.01 C265.368,1152.22,267.03,1150.22,267.03,1147.94 C267.03,1145.6,264.495,1143.98,261.747,1143.98 C258.85,1143.98,256.656,1145.7,256.656,1147.9 C256.656,1148.83,257.295,1149.39,258.126,1149.39 C259.02,1149.39,259.595,1148.75,259.595,1147.92 C259.595,1146.49,258.232,1146.49,257.806,1146.49 C258.701,1145.06,260.597,1144.7,261.619,1144.7 C262.812,1144.7,264.388,1145.34,264.388,1147.92 C264.388,1148.26,264.324,1149.92,263.579,1151.2 C262.727,1152.56,261.747,1152.67,261.023,1152.69 C260.788,1152.71,260.107,1152.77,259.915,1152.77 C259.681,1152.8,259.468,1152.84,259.468,1153.11 C259.468,1153.43,259.681,1153.43,260.171,1153.43 L261.427,1153.43 C263.792,1153.43,264.857,1155.39,264.857,1158.21 C264.857,1162.1,262.876,1162.93,261.598,1162.93 C260.362,1162.93,258.211,1162.44,257.21,1160.76 C258.211,1160.91,259.105,1160.27,259.105,1159.19 C259.105,1158.14,258.317,1157.57,257.486,1157.57 C256.805,1157.57,255.889,1157.97,255.889,1159.23 C255.889,1161.85,258.552,1163.74,261.683,1163.74 C265.198,1163.74,267.818,1161.12,267.818,1158.21 C267.818,1155.84,266.007,1153.6,263.004,1153.01"/><path fill="#000" d="M280.173,1162.55 L275.125,1151.39 C274.912,1150.92,274.762,1150.92,274.677,1150.92 C274.656,1150.92,274.507,1150.92,274.187,1151.15 L271.461,1153.22 C271.098,1153.52,271.098,1153.6,271.098,1153.69 C271.098,1153.82,271.184,1154.01,271.375,1154.01 C271.546,1154.01,272.036,1153.6,272.355,1153.37 C272.526,1153.22,272.952,1152.9,273.271,1152.67 L278.938,1165.11 C279.129,1165.58,279.278,1165.58,279.534,1165.58 C279.981,1165.58,280.067,1165.41,280.258,1165 L293.295,1137.99 C293.508,1137.59,293.508,1137.48,293.508,1137.42 C293.508,1137.14,293.274,1136.84,292.933,1136.84 C292.699,1136.84,292.507,1136.99,292.273,1137.46 L280.173,1162.55"/><path fill="none" stroke="#000" stroke-width="1.4328" stroke-dasharray="2" d="M292.89,1137.44 L307.227,1137.44"/><path fill="#000" d="M301.241,1153.01 C303.605,1152.22,305.267,1150.22,305.267,1147.94 C305.267,1145.6,302.753,1143.98,299.984,1143.98 C297.087,1143.98,294.893,1145.7,294.893,1147.9 C294.893,1148.83,295.532,1149.39,296.363,1149.39 C297.257,1149.39,297.832,1148.75,297.832,1147.92 C297.832,1146.49,296.469,1146.49,296.043,1146.49 C296.938,1145.06,298.833,1144.7,299.877,1144.7 C301.049,1144.7,302.625,1145.34,302.625,1147.92 C302.625,1148.26,302.561,1149.92,301.816,1151.2 C300.964,1152.56,299.984,1152.67,299.259,1152.69 C299.047,1152.71,298.344,1152.77,298.152,1152.77 C297.918,1152.8,297.726,1152.84,297.726,1153.11 C297.726,1153.43,297.918,1153.43,298.408,1153.43 L299.665,1153.43 C302.029,1153.43,303.094,1155.39,303.094,1158.21 C303.094,1162.1,301.113,1162.93,299.835,1162.93 C298.6,1162.93,296.448,1162.44,295.446,1160.76 C296.448,1160.91,297.343,1160.27,297.343,1159.19 C297.343,1158.14,296.576,1157.57,295.723,1157.57 C295.042,1157.57,294.126,1157.97,294.126,1159.23 C294.126,1161.85,296.788,1163.74,299.92,1163.74 C303.435,1163.74,306.055,1161.12,306.055,1158.21 C306.055,1155.84,304.244,1153.6,301.241,1153.01"/></g></g><g clip-path="url(#7fc8751eb790)"><clipPath id="7fc8751eb790"><path fill="#000" fill-opacity="0.35" d="M205.51,1395.41 L307.908,1395.41 L307.908,1361.01 L205.51,1361.01 Z"/></clipPath><g clip-path="url(#7fc87511af60)"><clipPath id="7fc87511af60"><path fill="#000" fill-opacity="0.35" d="M205.51,1395.41 L307.91,1395.41 L307.91,1361.01 L205.51,1361.01 Z"/></clipPath><path fill="#000" d="M222.53,1381.43 C223.02,1381.43,223.531,1381.43,223.531,1380.86 C223.531,1380.28,223.02,1380.28,222.53,1380.28 L206.98,1380.28 C206.49,1380.28,205.979,1380.28,205.979,1380.86 C205.979,1381.43,206.49,1381.43,206.98,1381.43 L222.53,1381.43"/><path fill="#000" d="M234.353,1369.65 C234.353,1368.97,234.353,1368.91,233.693,1368.91 C231.924,1370.76,229.39,1370.76,228.474,1370.76 L228.474,1371.64 C229.049,1371.64,230.732,1371.64,232.223,1370.89 L232.223,1385.78 C232.223,1386.82,232.137,1387.16,229.56,1387.16 L228.644,1387.16 L228.644,1388.04 C229.645,1387.95,232.137,1387.95,233.288,1387.95 C234.438,1387.95,236.952,1387.95,237.953,1388.04 L237.953,1387.16 L237.037,1387.16 C234.438,1387.16,234.353,1386.84,234.353,1385.78 L234.353,1369.65"/><path fill="#000" d="M252.928,1367.59 C253.077,1367.23,253.077,1367.1,253.077,1367.08 C253.077,1366.76,252.8,1366.5,252.502,1366.5 C252.289,1366.5,252.097,1366.59,252.012,1366.76 L242.043,1394.13 C241.894,1394.51,241.894,1394.62,241.894,1394.66 C241.894,1394.98,242.149,1395.24,242.469,1395.24 C242.831,1395.24,242.916,1395.02,243.108,1394.53 L252.928,1367.59"/><path fill="#000" d="M262.962,1377.94 C265.326,1377.15,266.987,1375.15,266.987,1372.87 C266.987,1370.53,264.453,1368.91,261.705,1368.91 C258.786,1368.91,256.613,1370.63,256.613,1372.83 C256.613,1373.77,257.252,1374.32,258.083,1374.32 C258.978,1374.32,259.553,1373.68,259.553,1372.85 C259.553,1371.42,258.19,1371.42,257.764,1371.42 C258.658,1369.99,260.555,1369.63,261.577,1369.63 C262.77,1369.63,264.346,1370.27,264.346,1372.85 C264.346,1373.19,264.282,1374.85,263.536,1376.13 C262.685,1377.49,261.705,1377.6,260.98,1377.62 C260.746,1377.64,260.064,1377.71,259.851,1377.71 C259.638,1377.73,259.425,1377.77,259.425,1378.05 C259.425,1378.37,259.638,1378.37,260.128,1378.37 L261.385,1378.37 C263.728,1378.37,264.793,1380.33,264.793,1383.14 C264.793,1387.04,262.812,1387.87,261.555,1387.87 C260.32,1387.87,258.168,1387.38,257.167,1385.69 C258.168,1385.84,259.063,1385.2,259.063,1384.12 C259.063,1383.07,258.275,1382.5,257.444,1382.5 C256.763,1382.5,255.847,1382.9,255.847,1384.16 C255.847,1386.78,258.509,1388.68,261.641,1388.68 C265.156,1388.68,267.755,1386.06,267.755,1383.14 C267.755,1380.77,265.944,1378.54,262.962,1377.94"/><path fill="#000" d="M280.131,1387.48 L275.061,1376.32 C274.869,1375.85,274.72,1375.85,274.635,1375.85 C274.614,1375.85,274.464,1375.85,274.145,1376.09 L271.418,1378.15 C271.056,1378.45,271.056,1378.54,271.056,1378.62 C271.056,1378.75,271.142,1378.94,271.333,1378.94 C271.504,1378.94,271.993,1378.54,272.313,1378.3 C272.483,1378.15,272.91,1377.83,273.229,1377.6 L278.895,1390.04 C279.087,1390.51,279.236,1390.51,279.492,1390.51 C279.918,1390.51,280.003,1390.34,280.216,1389.93 L293.253,1362.92 C293.466,1362.52,293.466,1362.41,293.466,1362.35 C293.466,1362.07,293.231,1361.77,292.89,1361.77 C292.657,1361.77,292.443,1361.92,292.23,1362.39 L280.131,1387.48"/><path fill="none" stroke="#000" stroke-width="1.4328" stroke-dasharray="2" d="M292.89,1362.37 L307.227,1362.37"/><path fill="#000" d="M301.199,1377.94 C303.563,1377.15,305.225,1375.15,305.225,1372.87 C305.225,1370.53,302.69,1368.91,299.942,1368.91 C297.045,1368.91,294.85,1370.63,294.85,1372.83 C294.85,1373.77,295.49,1374.32,296.32,1374.32 C297.215,1374.32,297.79,1373.68,297.79,1372.85 C297.79,1371.42,296.427,1371.42,296.001,1371.42 C296.895,1369.99,298.792,1369.63,299.814,1369.63 C301.007,1369.63,302.583,1370.27,302.583,1372.85 C302.583,1373.19,302.519,1374.85,301.773,1376.13 C300.922,1377.49,299.942,1377.6,299.217,1377.62 C298.983,1377.64,298.301,1377.71,298.089,1377.71 C297.875,1377.73,297.662,1377.77,297.662,1378.05 C297.662,1378.37,297.875,1378.37,298.365,1378.37 L299.622,1378.37 C301.987,1378.37,303.052,1380.33,303.052,1383.14 C303.052,1387.04,301.049,1387.87,299.793,1387.87 C298.557,1387.87,296.406,1387.38,295.404,1385.69 C296.406,1385.84,297.3,1385.2,297.3,1384.12 C297.3,1383.07,296.512,1382.5,295.681,1382.5 C295,1382.5,294.084,1382.9,294.084,1384.16 C294.084,1386.78,296.746,1388.68,299.878,1388.68 C303.392,1388.68,305.992,1386.06,305.992,1383.14 C305.992,1380.77,304.202,1378.54,301.199,1377.94"/></g></g><g><path fill="#007efd" stroke="#000" stroke-width="2" d="M581.576,1172.7 C581.576,1184.68,591.847,1194.39,604.517,1194.39 C617.187,1194.39,627.458,1184.68,627.458,1172.7"/><path fill="#0049fd" stroke="#000" stroke-width="2" d="M627.923,1171.86 C627.923,1174.29,617.547,1176.26,604.749,1176.26 C591.951,1176.26,581.576,1174.29,581.576,1171.86 C581.576,1169.43,591.951,1167.46,604.749,1167.46 C617.547,1167.46,627.923,1169.43,627.923,1171.86 Z"/></g><g><path fill="#ff0004" stroke="#000" stroke-width="2" d="M581.576,942.945 C581.576,954.922,591.847,964.63,604.517,964.63 C617.187,964.63,627.458,954.922,627.458,942.945"/><path fill="#d20000" stroke="#000" stroke-width="2" d="M627.923,942.103 C627.923,944.533,617.547,946.503,604.749,946.503 C591.951,946.503,581.576,944.533,581.576,942.103 C581.576,939.673,591.951,937.703,604.749,937.703 C617.547,937.703,627.923,939.673,627.923,942.103 Z"/></g><g><path fill="#007efd" stroke="#000" stroke-width="2" d="M581.576,1288.06 C581.576,1300.04,591.847,1309.75,604.517,1309.75 C617.187,1309.75,627.458,1300.04,627.458,1288.06"/><path fill="#0049fd" stroke="#000" stroke-width="2" d="M627.923,1287.22 C627.923,1289.65,617.547,1291.62,604.749,1291.62 C591.951,1291.62,581.576,1289.65,581.576,1287.22 C581.576,1284.79,591.951,1282.82,604.749,1282.82 C617.547,1282.82,627.923,1284.79,627.923,1287.22 Z"/></g><g><path fill="#007efd" stroke="#000" stroke-width="2" d="M581.576,1403.92 C581.576,1415.9,591.847,1425.6,604.517,1425.6 C617.187,1425.6,627.458,1415.9,627.458,1403.92"/><path fill="#0049fd" stroke="#000" stroke-width="2" d="M627.923,1403.08 C627.923,1405.51,617.547,1407.48,604.749,1407.48 C591.951,1407.48,581.576,1405.51,581.576,1403.08 C581.576,1400.65,591.951,1398.68,604.749,1398.68 C617.547,1398.68,627.923,1400.65,627.923,1403.08 Z"/></g><path fill="none" stroke="#000" d="M641.321,1170.31 L700.658,1156.58"/><text fill="#007efd" font-family="American Typewriter" font-size="30" text-anchor="middle" transform="matrix(0.8,0,0,0.8,865.575,1155.19)" xml:space="preserve"><tspan>negative Berry curvature</tspan></text><g><text font-family="American Typewriter" font-size="30" text-anchor="middle" transform="matrix(0.8,0,0,0.8,460.442,1255.32)" xml:space="preserve"><tspan>K</tspan></text><text font-family="American Typewriter" font-size="30" text-anchor="middle" transform="matrix(0.8,0,0,0.8,571.968,1214.4)" xml:space="preserve"><tspan>K'</tspan></text></g><g><text font-family="American Typewriter" font-size="30" text-anchor="middle" transform="matrix(0.8,0,0,0.8,460.442,1141.32)" xml:space="preserve"><tspan>K</tspan></text><text font-family="American Typewriter" font-size="30" text-anchor="middle" transform="matrix(0.8,0,0,0.8,571.968,1100.4)" xml:space="preserve"><tspan>K'</tspan></text></g><g><text font-family="American Typewriter" font-size="30" text-anchor="middle" transform="matrix(0.8,0,0,0.8,460.442,1023.32)" xml:space="preserve"><tspan>K</tspan></text><text font-family="American Typewriter" font-size="30" text-anchor="middle" transform="matrix(0.8,0,0,0.8,571.968,982.396)" xml:space="preserve"><tspan>K'</tspan></text></g><g><text font-family="American Typewriter" font-size="30" text-anchor="middle" transform="matrix(0.8,0,0,0.8,460.442,1369.32)" xml:space="preserve"><tspan>K</tspan></text><text font-family="American Typewriter" font-size="30" text-anchor="middle" transform="matrix(0.8,0,0,0.8,571.968,1328.4)" xml:space="preserve"><tspan>K'</tspan></text></g><g><text font-family="American Typewriter" font-size="30" text-anchor="middle" transform="matrix(0.8,0,0,0.8,460.442,1483.32)" xml:space="preserve"><tspan>K</tspan></text><text font-family="American Typewriter" font-size="30" text-anchor="middle" transform="matrix(0.8,0,0,0.8,571.968,1442.4)" xml:space="preserve"><tspan>K'</tspan></text></g><text fill="#ff0004" font-family="American Typewriter" font-size="30" text-anchor="middle" transform="matrix(0.8,0,0,0.8,959.766,1001.37)" xml:space="preserve"><tspan>W=1</tspan></text><text fill="#007efd" font-family="American Typewriter" font-size="30" text-anchor="middle" transform="matrix(0.8,0,0,0.8,967.522,1450.48)" xml:space="preserve"><tspan>W= -1</tspan></text><g><g><path fill="#fff" fill-opacity="0.01" stroke="#000" stroke-width="2" stroke-dasharray="2" d="M445.587,1393.51 C445.587,1395.94,435.212,1397.91,422.413,1397.91 C409.615,1397.91,399.24,1395.94,399.24,1393.51 C399.24,1391.08,409.615,1389.11,422.413,1389.11 C435.212,1389.11,445.587,1391.08,445.587,1393.51 Z"/><path fill="none" stroke="#000" stroke-width="2" stroke-dasharray="2" d="M399.24,1393.86 L422.413,1365.42"/><path fill="none" stroke="#000" stroke-width="2" stroke-dasharray="2" d="M422.413,1365.42 L445.587,1393.86"/></g><g><path fill="#a544fd" stroke="#000" stroke-width="2" d="M399.277,1335 L422.45,1363.44 L445.624,1335"/><path fill="#7d00fd" stroke="#000" stroke-width="2" d="M445.624,1335 C445.624,1337.43,435.249,1339.4,422.45,1339.4 C409.652,1339.4,399.277,1337.43,399.277,1335 C399.277,1332.57,409.652,1330.6,422.45,1330.6 C435.249,1330.6,445.624,1332.57,445.624,1335 Z"/></g></g></g><g><path fill="none" stroke="#000" stroke-dasharray="5" d="M193.703,234.348 C193.703,234.348,91.8039,233.895,91.8039,233.895 C91.8039,233.895,41.2467,145.421,41.2467,145.421 C41.2467,145.421,92.5885,57.4006,92.5885,57.4006 C92.5885,57.4006,194.488,57.8535,194.488,57.8535 C194.488,57.8535,245.045,146.327,245.045,146.327 C245.045,146.327,193.703,234.348,193.703,234.348 Z"/><g><path fill="none" stroke="#ff0004" stroke-width="2" d="M91.2419,234.703 L237.281,149.219"/><path fill="none" stroke="#ff0004" stroke-width="2" d="M226.125,149.956 L237.281,149.219 L231.176,158.586"/></g><g><path fill="none" stroke="#ff0004" stroke-width="2" d="M98.364,60.3721 L243.466,145.308"/><path fill="none" stroke="#ff0004" stroke-width="2" d="M104.468,69.7389 L98.364,60.3721 L109.52,61.1087"/></g><g><path fill="none" stroke="#ff0004" stroke-width="2" d="M91.1923,56.125 L91.2419,228.943"/><path fill="none" stroke="#ff0004" stroke-width="2" d="M96.239,218.942 L91.2419,228.943 L86.239,218.944"/></g><g><g><path fill="none" stroke="#00a0fe" stroke-width="2" d="M193.958,234.138 L192.946,64.9231"/><path fill="none" stroke="#00a0fe" stroke-width="2" d="M188.006,74.9528 L192.946,64.9231 L198.006,74.893"/></g><g><path fill="none" stroke="#00a0fe" stroke-width="2" d="M46.5442,140.805 L192.652,57.6102"/><path fill="none" stroke="#00a0fe" stroke-width="2" d="M57.7083,140.202 L46.5442,140.805 L52.7602,131.512"/></g><g><path fill="none" stroke="#00a0fe" stroke-width="2" d="M39.2803,144.892 L188.97,231.258"/><path fill="none" stroke="#00a0fe" stroke-width="2" d="M182.807,221.93 L188.97,231.258 L177.809,230.591"/></g></g><path fill="#00a0fe" stroke="#000" stroke-width="2" d="M41.2719,139.548 C44.453,139.548,47.0319,142.127,47.0319,145.308 C47.0319,148.489,44.453,151.068,41.2719,151.068 C38.0907,151.068,35.5119,148.489,35.5119,145.308 C35.5119,142.127,38.0907,139.548,41.2719,139.548 Z"/><path fill="#00a0fe" stroke="#000" stroke-width="2" d="M194.28,51.6118 C197.461,51.6118,200.04,54.1906,200.04,57.3718 C200.04,60.5529,197.461,63.1318,194.28,63.1318 C191.099,63.1318,188.52,60.5529,188.52,57.3718 C188.52,54.1906,191.099,51.6118,194.28,51.6118 Z"/><path fill="#00a0fe" stroke="#000" stroke-width="2" d="M193.512,228.943 C196.693,228.943,199.272,231.522,199.272,234.703 C199.272,237.884,196.693,240.463,193.512,240.463 C190.331,240.463,187.752,237.884,187.752,234.703 C187.752,231.522,190.331,228.943,193.512,228.943 Z"/><text font-family="American Typewriter" font-size="24" transform="matrix(1,0,0,1,82.2726,42.1095)" xml:space="preserve"><tspan>A</tspan></text><text font-family="American Typewriter" font-size="24" transform="matrix(1,0,0,1,185.507,42.0615)" xml:space="preserve"><tspan>B</tspan></text><path fill="#ff0004" stroke="#000" stroke-width="2" d="M243.963,139.548 C247.144,139.548,249.723,142.127,249.723,145.308 C249.723,148.489,247.144,151.068,243.963,151.068 C240.782,151.068,238.203,148.489,238.203,145.308 C238.203,142.127,240.782,139.548,243.963,139.548 Z"/><path fill="#ff0004" stroke="#000" stroke-width="2" d="M92.0099,52.3798 C95.1911,52.3798,97.7699,54.9586,97.7699,58.1398 C97.7699,61.3209,95.1911,63.8998,92.0099,63.8998 C88.8287,63.8998,86.2499,61.3209,86.2499,58.1398 C86.2499,54.9586,88.8287,52.3798,92.0099,52.3798 Z"/><path fill="#ff0004" stroke="#000" stroke-width="2" d="M91.2419,228.943 C94.4231,228.943,97.0019,231.522,97.0019,234.703 C97.0019,237.884,94.4231,240.463,91.2419,240.463 C88.0607,240.463,85.4819,237.884,85.4819,234.703 C85.4819,231.522,88.0607,228.943,91.2419,228.943 Z"/><g clip-path="url(#7fc87260fe10)"><clipPath id="7fc87260fe10"><path fill="#000" fill-opacity="0.35" d="M156.118,154.989 L188.124,154.989 L188.124,129.986 L156.118,129.986 Z"/></clipPath><g clip-path="url(#7fc872615a60)"><clipPath id="7fc872615a60"><path fill="#000" fill-opacity="0.35" d="M156.118,154.989 L188.118,154.989 L188.118,129.989 L156.118,129.989 Z"/></clipPath><path fill="#000" d="M164.213,131.264 C164.213,130.678,163.814,130.199,163.121,130.199 C162.296,130.199,161.497,130.971,161.497,131.77 C161.497,132.355,161.923,132.861,162.642,132.861 C163.334,132.861,164.213,132.169,164.213,131.264 Z M161.95,142.527 C162.322,141.675,162.322,141.595,162.615,140.796 C162.855,140.184,162.988,139.785,162.988,139.199 C162.988,137.867,162.029,136.749,160.538,136.749 C157.716,136.749,156.597,141.089,156.597,141.356 C156.597,141.648,156.89,141.648,156.944,141.648 C157.237,141.648,157.263,141.595,157.423,141.116 C158.222,138.293,159.42,137.415,160.458,137.415 C160.698,137.415,161.204,137.415,161.204,138.373 C161.204,138.986,160.991,139.625,160.858,139.918 C160.618,140.69,159.287,144.178,158.808,145.456 C158.515,146.255,158.115,147.24,158.115,147.853 C158.115,149.264,159.127,150.329,160.565,150.329 C163.387,150.329,164.506,145.962,164.506,145.696 C164.506,145.403,164.213,145.403,164.133,145.403 C163.84,145.403,163.84,145.483,163.68,145.936 C163.148,147.826,162.163,149.663,160.618,149.663 C160.112,149.663,159.899,149.344,159.899,148.678 C159.899,147.933,160.086,147.506,160.778,145.669 L161.95,142.527"/><path fill="#000" d="M172.201,138 L174.997,138 C175.61,138,175.902,138,175.902,137.415 C175.902,137.069,175.61,137.069,175.077,137.069 L172.441,137.069 C173.506,132.835,173.666,132.222,173.666,132.036 C173.666,131.53,173.293,131.237,172.787,131.237 C172.707,131.237,171.855,131.264,171.589,132.329 L170.417,137.069 L167.595,137.069 C167.009,137.069,166.716,137.069,166.716,137.654 C166.716,138,166.956,138,167.541,138 L170.177,138 C168.021,146.521,167.914,147.027,167.914,147.56 C167.914,149.184,169.032,150.329,170.657,150.329 C173.719,150.329,175.423,145.936,175.423,145.696 C175.423,145.403,175.183,145.403,175.077,145.403 C174.784,145.403,174.757,145.483,174.624,145.829 C173.32,148.944,171.748,149.663,170.71,149.663 C170.098,149.663,169.805,149.264,169.805,148.279 C169.805,147.56,169.858,147.347,169.964,146.841 L172.201,138"/><path fill="#000" d="M187.379,150.675 L186.687,150.675 C186.607,151.128,186.42,152.379,186.127,152.592 C185.968,152.699,184.343,152.699,184.05,152.699 L180.216,152.699 C182.399,150.755,183.145,150.169,184.397,149.184 C185.941,147.959,187.405,146.654,187.405,144.657 C187.405,142.128,185.169,140.583,182.479,140.583 C179.896,140.583,178.139,142.421,178.139,144.338 C178.139,145.403,179.044,145.509,179.257,145.509 C179.737,145.509,180.349,145.163,180.349,144.391 C180.349,144.018,180.216,143.299,179.124,143.299 C179.763,141.808,181.201,141.329,182.186,141.329 C184.263,141.329,185.355,142.98,185.355,144.657 C185.355,146.495,184.05,147.933,183.385,148.678 L178.352,153.684 C178.139,153.87,178.139,153.897,178.139,154.483 L186.766,154.483 L187.405,150.675"/></g></g><g clip-path="url(#7fc8726038d0)"><clipPath id="7fc8726038d0"><path fill="#000" fill-opacity="0.35" d="M155.26,255.034 L185.269,255.034 L185.269,229.045 L155.26,229.045 Z"/></clipPath><g clip-path="url(#7fc872642430)"><clipPath id="7fc872642430"><path fill="#000" fill-opacity="0.35" d="M155.26,255.034 L185.26,255.034 L185.26,229.034 L155.26,229.034 Z"/></clipPath><path fill="#000" d="M161.278,238.019 L161.278,229.258 L155.979,229.498 L155.979,230.883 C157.817,230.883,158.03,230.883,158.03,232.054 L158.03,250.028 L159.441,250.028 L160.905,248.35 C161.145,248.59,162.61,250.214,165.272,250.214 C169.746,250.214,172.834,247.525,172.834,243.344 C172.834,239.377,170.012,236.554,165.672,236.554 C163.488,236.554,161.997,237.433,161.278,238.019 Z M161.465,247.072 L161.465,239.537 C162.263,238.498,163.701,237.619,165.352,237.619 C169,237.619,169,241.267,169,243.344 C169,244.756,169,246.406,168.228,247.578 C167.349,248.803,165.965,249.122,165.006,249.122 C162.929,249.122,161.757,247.525,161.465,247.072"/><path fill="#000" d="M179.678,247.551 C181.302,247.551,182.474,248.67,182.474,250.906 C182.474,253.516,180.983,254.288,179.758,254.288 C178.932,254.288,177.068,254.049,176.19,252.824 C177.175,252.77,177.414,252.078,177.414,251.652 C177.414,250.986,176.908,250.48,176.269,250.48 C175.684,250.48,175.098,250.853,175.098,251.705 C175.098,253.676,177.281,254.954,179.811,254.954 C182.713,254.954,184.71,253.01,184.71,250.906 C184.71,249.282,183.379,247.631,181.089,247.152 C183.272,246.38,184.071,244.809,184.071,243.531 C184.071,241.853,182.154,240.628,179.838,240.628 C177.521,240.628,175.737,241.773,175.737,243.424 C175.737,244.143,176.19,244.543,176.829,244.543 C177.468,244.543,177.894,244.063,177.894,243.477 C177.894,242.865,177.468,242.439,176.829,242.386 C177.574,241.48,179.012,241.241,179.784,241.241 C180.716,241.241,182.048,241.693,182.048,243.531 C182.048,244.409,181.755,245.368,181.196,246.007 C180.503,246.806,179.917,246.859,178.879,246.912 C178.346,246.966,178.32,246.966,178.213,246.966 C178.16,246.966,178,247.019,178,247.259 C178,247.551,178.187,247.551,178.559,247.551 L179.678,247.551"/></g></g><g clip-path="url(#7fc8750506a0)"><clipPath id="7fc8750506a0"><path fill="#000" fill-opacity="0.35" d="M195.299,115.981 L224.296,115.981 L224.296,89.9922 L195.299,89.9922 Z"/></clipPath><g clip-path="url(#7fc8747f68f0)"><clipPath id="7fc8747f68f0"><path fill="#000" fill-opacity="0.35" d="M195.299,115.981 L224.299,115.981 L224.299,89.9806 L195.299,89.9806 Z"/></clipPath><path fill="#000" d="M201.317,98.9657 L201.317,90.2052 L196.018,90.4449 L196.018,91.8295 C197.855,91.8295,198.068,91.8295,198.068,93.0011 L198.068,110.975 L199.479,110.975 L200.944,109.297 C201.184,109.537,202.648,111.161,205.311,111.161 C209.784,111.161,212.873,108.472,212.873,104.291 C212.873,100.324,210.051,97.5011,205.71,97.5011 C203.527,97.5011,202.036,98.3798,201.317,98.9657 Z M201.503,108.019 L201.503,100.483 C202.302,99.4449,203.74,98.5662,205.391,98.5662 C209.039,98.5662,209.039,102.214,209.039,104.291 C209.039,105.702,209.039,107.353,208.266,108.525 C207.388,109.75,206.003,110.069,205.045,110.069 C202.968,110.069,201.796,108.472,201.503,108.019"/><path fill="#000" d="M221.021,102.161 C221.021,101.602,220.968,101.575,220.382,101.575 C219.051,102.906,217.133,102.906,216.281,102.906 L216.281,103.679 C216.787,103.679,218.172,103.679,219.317,103.093 L219.317,113.771 C219.317,114.463,219.317,114.729,217.213,114.729 L216.415,114.729 L216.415,115.475 C216.814,115.448,219.37,115.395,220.142,115.395 C220.808,115.395,223.444,115.448,223.897,115.475 L223.897,114.729 L223.098,114.729 C221.021,114.729,221.021,114.463,221.021,113.771 L221.021,102.161"/></g></g><g clip-path="url(#7fc8750c5b70)"><clipPath id="7fc8750c5b70"><path fill="#000" fill-opacity="0.35" d="M34.5376,124.01 L64.5467,124.01 L64.5467,98.0219 L34.5376,98.0219 Z"/></clipPath><g clip-path="url(#7fc8750b6240)"><clipPath id="7fc8750b6240"><path fill="#000" fill-opacity="0.35" d="M34.5376,124.01 L64.5376,124.01 L64.5376,98.0103 L34.5376,98.0103 Z"/></clipPath><path fill="#000" d="M40.5554,106.995 L40.5554,98.2349 L35.2565,98.4746 L35.2565,99.8592 C37.0938,99.8592,37.3069,99.8592,37.3069,101.031 L37.3069,119.004 L38.7181,119.004 L40.1826,117.327 C40.4223,117.566,41.8867,119.191,44.5495,119.191 C49.0229,119.191,52.1117,116.501,52.1117,112.321 C52.1117,108.353,49.2892,105.531,44.9489,105.531 C42.7655,105.531,41.2743,106.41,40.5554,106.995 Z M40.7418,116.049 L40.7418,108.513 C41.5406,107.475,42.9785,106.596,44.6294,106.596 C48.2773,106.596,48.2773,110.244,48.2773,112.321 C48.2773,113.732,48.2773,115.383,47.5051,116.555 C46.6265,117.779,45.2418,118.099,44.2833,118.099 C42.2063,118.099,41.0347,116.501,40.7418,116.049"/><path fill="#000" d="M63.8012,119.697 L63.1089,119.697 C63.029,120.149,62.816,121.401,62.5497,121.614 C62.3899,121.72,60.7657,121.72,60.4728,121.72 L56.6384,121.72 C58.8218,119.777,59.5674,119.191,60.8189,118.206 C62.3633,116.981,63.8012,115.676,63.8012,113.679 C63.8012,111.149,61.5911,109.605,58.9017,109.605 C56.3188,109.605,54.5614,111.442,54.5614,113.359 C54.5614,114.424,55.4668,114.531,55.6532,114.531 C56.1591,114.531,56.7715,114.185,56.7715,113.413 C56.7715,113.04,56.6384,112.321,55.5466,112.321 C56.1857,110.83,57.6236,110.35,58.6088,110.35 C60.6858,110.35,61.7775,112.001,61.7775,113.679 C61.7775,115.516,60.4728,116.954,59.8071,117.7 L54.7745,122.706 C54.5614,122.892,54.5614,122.919,54.5614,123.504 L63.1887,123.504 L63.8012,119.697"/></g></g></g></svg>
