<?xml version="1.0" encoding="UTF-8" standalone="no"?>
<!DOCTYPE svg PUBLIC "-//W3C//DTD SVG 1.1//EN" "http://www.w3.org/Graphics/SVG/1.1/DTD/svg11.dtd">
<!--Generated by Intaglio, www.PurgatoryDesign.com-->
<svg version="1.1" viewBox="0,43,1118,1482" width="1118" height="1482" xmlns="http://www.w3.org/2000/svg" xmlns:xlink="http://www.w3.org/1999/xlink"><defs><pattern id="7fc87505c800" width="64" height="64" patternUnits="userSpaceOnUse"><g><path fill="none" stroke="#000" stroke-linecap="square" d="M-8,72 L72,-8"/><path fill="none" stroke="#000" stroke-linecap="square" d="M-8,64 L64,-8"/><path fill="none" stroke="#000" stroke-linecap="square" d="M-8,56 L56,-8"/><path fill="none" stroke="#000" stroke-linecap="square" d="M-8,48 L48,-8"/><path fill="none" stroke="#000" stroke-linecap="square" d="M-8,40 L40,-8"/><path fill="none" stroke="#000" stroke-linecap="square" d="M-8,32 L32,-8"/><path fill="none" stroke="#000" stroke-linecap="square" d="M-8,24 L24,-8"/><path fill="none" stroke="#000" stroke-linecap="square" d="M-8,16 L16,-8"/><path fill="none" stroke="#000" stroke-linecap="square" d="M0,72 L72,0"/><path fill="none" stroke="#000" stroke-linecap="square" d="M8,72 L72,8"/><path fill="none" stroke="#000" stroke-linecap="square" d="M16,72 L72,16"/><path fill="none" stroke="#000" stroke-linecap="square" d="M24,72 L72,24"/><path fill="none" stroke="#000" stroke-linecap="square" d="M32,72 L72,32"/><path fill="none" stroke="#000" stroke-linecap="square" d="M40,72 L72,40"/><path fill="none" stroke="#000" stroke-linecap="square" d="M48,72 L72,48"/><path fill="none" stroke="#000" stroke-linecap="square" d="M-8,8 L8,-8"/><path fill="none" stroke="#000" stroke-linecap="square" d="M56,72 L72,56"/></g></pattern></defs><g><path fill="#bcbcbc" fill-opacity="0.43" d="M152.49,378.763 L438.852,378.763 L438.852,495.729 L152.49,495.729 Z"/><path fill="none" stroke="#000" stroke-width="3" d="M152.49,495.729 L438.852,495.729"/><g><path fill="none" stroke="#003acb" stroke-width="3" d="M152.49,437.246 L316.323,437.246"/><path fill="none" stroke="#003acb" stroke-width="3" d="M164.49,443.246 L152.49,437.246 L164.49,431.246"/></g><g><path fill="none" stroke="#ff0004" stroke-width="3" d="M316.323,471.834 L152.49,471.834"/><path fill="none" stroke="#ff0004" stroke-width="3" d="M304.323,465.834 L316.323,471.834 L304.323,477.834"/></g><g clip-path="url(#7fc875083260)"><clipPath id="7fc875083260"><path fill="#000" fill-opacity="0.35" d="M236.171,454.546 L252.48,454.546 L252.48,422.874 L236.171,422.874 Z"/></clipPath><g clip-path="url(#7fc8750b5d60)"><clipPath id="7fc8750b5d60"><path fill="#000" fill-opacity="0.35" d="M236.171,454.546 L252.491,454.546 L252.491,422.866 L236.171,422.866 Z"/></clipPath><path fill="#00f" d="M244.914,424.766 C244.914,424.127,244.914,423.513,244.224,423.513 C243.533,423.513,243.533,424.127,243.533,424.766 L243.533,449.331 C242.69,448.027,241.744,447.056,240.875,446.417 C238.779,444.832,236.657,444.474,236.606,444.474 C236.171,444.474,236.171,444.858,236.171,445.139 C236.171,445.676,236.222,445.727,236.964,445.957 C239.316,446.622,240.67,447.849,241.463,448.718 C243.227,450.609,243.636,452.68,243.84,453.753 C243.866,453.932,243.968,454.086,244.224,454.086 C244.53,454.086,244.556,453.856,244.632,453.549 C245.399,449.638,247.879,446.954,251.662,445.88 C252.173,445.727,252.25,445.727,252.25,445.139 C252.25,444.858,252.25,444.474,251.841,444.474 C251.739,444.474,249.694,444.858,247.726,446.264 C246.601,447.133,245.655,448.155,244.914,449.331 L244.914,424.766"/></g></g><g clip-path="url(#7fc8747ba010)"><clipPath id="7fc8747ba010"><path fill="#000" fill-opacity="0.35" d="M264.526,488.17 L280.835,488.17 L280.835,456.499 L264.526,456.499 Z"/></clipPath><g clip-path="url(#7fc8742f3df0)"><clipPath id="7fc8742f3df0"><path fill="#000" fill-opacity="0.35" d="M264.526,488.17 L280.846,488.17 L280.846,456.49 L264.526,456.49 Z"/></clipPath><path fill="#f00" d="M273.268,461.943 C274.086,463.247,275.057,464.218,275.927,464.858 C278.023,466.442,280.119,466.8,280.195,466.8 C280.604,466.8,280.604,466.417,280.604,466.136 C280.604,465.599,280.579,465.548,279.812,465.318 C277.46,464.653,276.131,463.426,275.339,462.557 C273.575,460.665,273.166,458.595,272.936,457.496 C272.91,457.317,272.782,457.163,272.578,457.163 C272.271,457.163,272.22,457.368,272.143,457.802 C271.351,461.611,268.922,464.321,265.114,465.369 C264.602,465.548,264.526,465.548,264.526,466.136 C264.526,466.417,264.526,466.8,264.96,466.8 C265.063,466.8,267.082,466.417,269.05,465.011 C270.201,464.142,271.121,463.094,271.888,461.943 L271.888,486.509 C271.888,487.122,271.888,487.761,272.578,487.761 C273.268,487.761,273.268,487.122,273.268,486.509 L273.268,461.943"/></g></g><pattern id="7fc8742e8260" xlink:href="#7fc87505c800" patternTransform="matrix(0.8,0,0,0.8,-77.948,220.516)"/><path fill="url(#7fc8742e8260)" d="M316.323,378.763 L438.852,378.763 L438.852,495.729 L316.323,495.729 Z"/><text fill="#ff0004" font-family="American Typewriter" font-size="30" text-anchor="middle" transform="matrix(0.64,0,0,0.64,92.1284,476.519)" xml:space="preserve"><tspan>in, spin up</tspan></text><text font-family="American Typewriter" font-size="36" transform="matrix(0.8,0,0,0.8,272.565,513.797)" xml:space="preserve"/><text fill="#0049fd" font-family="American Typewriter" font-size="30" text-anchor="middle" transform="matrix(0.64,0,0,0.64,73.8488,440.329)" xml:space="preserve"><tspan>out, spin down</tspan></text></g><g><path fill="#bcbcbc" fill-opacity="0.43" stroke="#000" stroke-width="2" d="M431.805,1373.17 C424.858,1462.37,346.915,1529.05,257.715,1522.11 C168.515,1515.16,101.836,1437.22,108.784,1348.02 C115.731,1258.82,193.674,1192.14,282.874,1199.08 C372.074,1206.03,438.753,1283.97,431.805,1373.17 Z"/><g><path fill="none" stroke="#ff0004" stroke-width="2" d="M425.423,1360.52 C425.423,1274.75,355.894,1205.23,270.125,1205.23 C184.357,1205.23,114.827,1274.75,114.827,1360.52 C114.827,1446.29,184.357,1515.82,270.125,1515.82 C355.894,1515.82,425.423,1446.29,425.423,1360.52 Z"/><path fill="none" stroke="#ff0004" stroke-width="2" d="M430.095,1370.86 C428.674,1367.36,427.116,1363.91,425.423,1360.52 C423.783,1363.81,422.015,1367.03,420.119,1370.17"/></g><g><path fill="#fff" stroke="#000" stroke-width="2" d="M348.383,1361.69 C348.383,1316.96,312.118,1280.69,267.383,1280.69 C222.648,1280.69,186.383,1316.96,186.383,1361.69 C186.383,1406.43,222.648,1442.69,267.383,1442.69 C312.118,1442.69,348.383,1406.43,348.383,1361.69 Z"/><g clip-path="url(#7fc874796bb0)"><clipPath id="7fc874796bb0"><path fill="#000" fill-opacity="0.35" d="M242.763,1371.6 L291.971,1371.6 L291.971,1341.59 L242.763,1341.59 Z"/></clipPath><g clip-path="url(#7fc87421f540)"><clipPath id="7fc87421f540"><path fill="#000" fill-opacity="0.35" d="M242.763,1371.6 L291.963,1371.6 L291.963,1341.6 L242.763,1341.6 Z"/></clipPath><path fill="#000" d="M252.733,1359.8 C257.174,1359.48,260.337,1356.8,260.337,1353.92 C260.337,1350.95,257.078,1348.33,252.733,1348.01 L252.733,1346.38 C252.733,1345.43,252.733,1345.01,255.449,1345.01 L256.407,1345.01 L256.407,1344.15 C255.385,1344.21,252.733,1344.21,251.55,1344.21 C250.4,1344.21,247.748,1344.21,246.693,1344.15 L246.693,1345.01 L247.652,1345.01 C250.368,1345.01,250.368,1345.39,250.368,1346.38 L250.368,1348.01 C245.99,1348.43,242.923,1351.05,242.923,1353.89 C242.923,1356.83,246.086,1359.39,250.368,1359.8 L250.368,1361.4 C250.368,1362.39,250.368,1362.78,247.652,1362.78 L246.693,1362.78 L246.693,1363.67 C247.748,1363.57,250.368,1363.57,251.55,1363.57 C252.701,1363.57,255.385,1363.57,256.407,1363.67 L256.407,1362.78 L255.449,1362.78 C252.733,1362.78,252.733,1362.42,252.733,1361.4 L252.733,1359.8 Z M250.368,1359.17 C246.31,1358.62,245.799,1355.68,245.799,1353.92 C245.799,1352.42,246.086,1349.23,250.368,1348.65 L250.368,1359.17 Z M252.733,1348.62 C256.695,1349.07,257.493,1351.72,257.493,1353.89 C257.493,1355.62,257.046,1358.65,252.733,1359.17 L252.733,1348.62"/><path fill="#000" d="M271.553,1370.54 C271.553,1370.44,271.553,1370.41,271.074,1369.9 C267.495,1366.32,266.568,1360.89,266.568,1356.51 C266.568,1351.56,267.655,1346.58,271.169,1343 C271.553,1342.65,271.553,1342.58,271.553,1342.52 C271.553,1342.29,271.425,1342.23,271.265,1342.23 C270.978,1342.23,268.421,1344.15,266.728,1347.79 C265.258,1350.95,264.907,1354.12,264.907,1356.51 C264.907,1358.75,265.226,1362.2,266.792,1365.46 C268.517,1368.97,270.978,1370.83,271.265,1370.83 C271.425,1370.83,271.553,1370.73,271.553,1370.54"/><path fill="#000" d="M279.126,1352.23 L281.81,1352.23 C282.385,1352.23,282.672,1352.23,282.672,1351.66 C282.672,1351.34,282.385,1351.34,281.874,1351.34 L279.381,1351.34 C280.404,1347.28,280.532,1346.7,280.532,1346.54 C280.532,1346.06,280.212,1345.78,279.701,1345.78 C279.637,1345.78,278.838,1345.81,278.551,1346.8 L277.464,1351.34 L274.748,1351.34 C274.173,1351.34,273.917,1351.34,273.917,1351.88 C273.917,1352.23,274.141,1352.23,274.716,1352.23 L277.208,1352.23 C275.164,1360.35,275.036,1360.83,275.036,1361.37 C275.036,1362.9,276.122,1363.99,277.688,1363.99 C280.595,1363.99,282.225,1359.8,282.225,1359.58 C282.225,1359.29,282.001,1359.29,281.874,1359.29 C281.618,1359.29,281.586,1359.39,281.458,1359.71 C280.212,1362.68,278.71,1363.35,277.752,1363.35 C277.145,1363.35,276.857,1363,276.857,1362.04 C276.857,1361.37,276.921,1361.15,277.017,1360.67 L279.126,1352.23"/><path fill="#000" d="M291.843,1356.51 C291.843,1354.28,291.523,1350.83,289.958,1347.6 C288.232,1344.08,285.772,1342.23,285.484,1342.23 C285.324,1342.23,285.197,1342.33,285.197,1342.52 C285.197,1342.58,285.197,1342.65,285.74,1343.16 C288.552,1346,290.181,1350.54,290.181,1356.51 C290.181,1361.4,289.127,1366.45,285.58,1370.06 C285.197,1370.41,285.197,1370.44,285.197,1370.54 C285.197,1370.7,285.324,1370.83,285.484,1370.83 C285.772,1370.83,288.328,1368.88,290.022,1365.24 C291.491,1362.1,291.843,1358.91,291.843,1356.51"/></g></g><g><g><path fill="none" stroke="#ff0004" stroke-width="2" d="M356.173,1360.89 C356.173,1311.57,316.191,1271.58,266.871,1271.58 C217.55,1271.58,177.568,1311.57,177.568,1360.89 C177.568,1410.21,217.55,1450.19,266.871,1450.19 C316.191,1450.19,356.173,1410.21,356.173,1360.89 Z"/><path fill="none" stroke="#ff0004" stroke-width="2" d="M360.583,1350.34 C359.41,1353.97,357.838,1357.46,356.173,1360.89 C354.504,1357.65,352.761,1354.44,350.648,1351.48"/></g><g><path fill="none" stroke="#007efd" stroke-width="2" d="M360.354,1361.1 C360.354,1309.32,318.372,1267.33,266.586,1267.33 C214.8,1267.33,172.818,1309.32,172.818,1361.1 C172.818,1412.89,214.8,1454.87,266.586,1454.87 C318.372,1454.87,360.354,1412.89,360.354,1361.1 Z"/><path fill="none" stroke="#007efd" stroke-width="2" d="M364.792,1371.65 C363.561,1368.04,362.059,1364.52,360.354,1361.1 C358.725,1364.35,356.915,1367.52,354.857,1370.52"/></g></g><g><path fill="none" stroke="#007efd" stroke-width="2" d="M418.5,1360.17 C418.5,1278.48,352.281,1212.26,270.597,1212.26 C188.913,1212.26,122.694,1278.48,122.694,1360.17 C122.694,1441.85,188.913,1508.07,270.597,1508.07 C352.281,1508.07,418.5,1441.85,418.5,1360.17 Z"/><path fill="none" stroke="#007efd" stroke-width="2" d="M423.153,1349.83 C421.744,1353.33,420.192,1356.79,418.5,1360.17 C416.859,1356.88,415.085,1353.66,413.177,1350.52"/></g><g><path fill="none" stroke="#000" d="M270.597,1484.55 C297.669,1484.44,323.963,1475.49,345.467,1459.04"/><path fill="none" stroke="#000" d="M270.528,1479.55 L270.666,1489.55"/><path fill="none" stroke="#000" d="M341.156,1467.03 C342.693,1464.42,344.132,1461.76,345.467,1459.04 C342.583,1459.58,339.679,1460.02,336.762,1460.35"/></g><g clip-path="url(#7fc874775840)"><clipPath id="7fc874775840"><path fill="#000" fill-opacity="0.35" d="M248.269,1491.32 L265.864,1491.32 L265.864,1473.73 L248.269,1473.73 Z"/></clipPath><g clip-path="url(#7fc874220000)"><clipPath id="7fc874220000"><path fill="#000" fill-opacity="0.35" d="M248.269,1490.52 L265.869,1490.52 L265.869,1473.72 L248.269,1473.72 Z"/></clipPath><path fill="#000" d="M264.352,1484.93 C264.395,1484.83,264.48,1484.66,264.48,1484.61 C264.48,1484.57,264.48,1484.34,264.182,1484.34 C263.969,1484.34,263.926,1484.49,263.883,1484.63 C262.328,1488.17,261.434,1489.79,257.344,1489.79 L253.829,1489.79 C253.509,1489.79,253.445,1489.79,253.318,1489.75 C253.062,1489.73,252.998,1489.7,252.998,1489.51 C252.998,1489.45,252.998,1489.41,253.126,1488.96 L254.745,1482.42 L257.109,1482.42 C259.154,1482.42,259.154,1482.93,259.154,1483.53 C259.154,1483.7,259.154,1483.97,258.984,1484.7 C258.941,1484.83,258.92,1484.89,258.92,1484.95 C258.92,1485.08,259.005,1485.23,259.218,1485.23 C259.41,1485.23,259.495,1485.1,259.58,1484.74 L260.944,1479.14 C260.944,1478.99,260.837,1478.88,260.667,1478.88 C260.454,1478.88,260.411,1479.01,260.326,1479.31 C259.836,1481.12,259.389,1481.67,257.195,1481.67 L254.937,1481.67 L256.385,1475.9 C256.598,1475.07,256.619,1474.96,257.663,1474.96 L261.05,1474.96 C263.969,1474.96,264.693,1475.67,264.693,1477.63 C264.693,1478.2,264.693,1478.24,264.586,1478.9 C264.586,1479.05,264.565,1479.2,264.565,1479.33 C264.565,1479.46,264.65,1479.63,264.863,1479.63 C265.119,1479.63,265.14,1479.48,265.204,1479.01 L265.673,1474.88 C265.737,1474.22,265.63,1474.22,265.034,1474.22 L252.913,1474.22 C252.444,1474.22,252.21,1474.22,252.21,1474.71 C252.21,1474.96,252.423,1474.96,252.87,1474.96 C253.765,1474.96,254.425,1474.96,254.425,1475.41 C254.425,1475.5,254.425,1475.54,254.319,1475.99 L251.145,1488.66 C250.911,1489.6,250.868,1489.79,248.972,1489.79 C248.567,1489.79,248.29,1489.79,248.29,1490.24 C248.29,1490.51,248.525,1490.51,248.972,1490.51 L261.412,1490.51 C261.966,1490.51,261.988,1490.49,262.158,1490.11 L264.352,1484.93"/></g></g></g></g><g><path fill="#fff" stroke="#000" stroke-width="2" d="M721.036,1350.74 L993.882,1350.74 L993.882,1465.94 L721.036,1465.94 Z"/><path fill="#bcbcbc" stroke="#000" stroke-width="2" d="M692.236,1465.94 L721.036,1465.94 L721.036,1350.74 L692.236,1350.74 Z"/><path fill="#aeaeae" stroke="#000" stroke-width="2" d="M994.631,1465.94 L1023.43,1465.94 L1023.43,1350.74 L994.631,1350.74 Z"/><path fill="none" stroke="#007efd" stroke-width="2" d="M884.819,1451.86 L922.459,1451.86"/><path fill="none" stroke="#ff0004" stroke-width="2" d="M883.342,1356.95 L930.882,1356.95"/><path fill="none" stroke="#007efd" stroke-width="2" d="M922.459,1361.95 L883.342,1361.95"/><g><path fill="none" stroke="#ff0004" stroke-width="2" d="M930.882,1356.95 L990.507,1356.95"/><path fill="none" stroke="#ff0004" stroke-width="2" d="M940.882,1361.95 L930.882,1356.95 L940.882,1351.95"/></g><g><path fill="none" stroke="#007efd" stroke-width="2" d="M990.507,1361.95 L922.459,1361.95"/><path fill="none" stroke="#007efd" stroke-width="2" d="M980.507,1356.95 L990.507,1361.95 L980.507,1366.95"/></g><g><path fill="none" stroke="#ff0004" stroke-width="2" d="M722.959,1356.95 L828.056,1356.95"/><path fill="none" stroke="#ff0004" stroke-width="2" d="M732.959,1361.95 L722.959,1356.95 L732.959,1351.95"/></g><g><path fill="none" stroke="#007efd" stroke-width="2" d="M780.736,1361.95 L722.959,1361.95"/><path fill="none" stroke="#007efd" stroke-width="2" d="M770.736,1356.95 L780.736,1361.95 L770.736,1366.95"/></g><g><path fill="none" stroke="#ff0004" stroke-width="2" d="M780.736,1456.86 L722.959,1456.86"/><path fill="none" stroke="#ff0004" stroke-width="2" d="M770.736,1451.86 L780.736,1456.86 L770.736,1461.86"/></g><g><path fill="none" stroke="#007efd" stroke-width="2" d="M724.399,1451.86 L827.396,1451.86"/><path fill="none" stroke="#007efd" stroke-width="2" d="M734.399,1456.86 L724.399,1451.86 L734.399,1446.86"/></g><g><path fill="none" stroke="#ff0004" stroke-width="2" d="M990.507,1456.86 L941.957,1456.86"/><path fill="none" stroke="#ff0004" stroke-width="2" d="M980.507,1451.86 L990.507,1456.86 L980.507,1461.86"/></g><g><path fill="none" stroke="#007efd" stroke-width="2" d="M910.882,1451.78 L992.382,1451.78"/><path fill="none" stroke="#007efd" stroke-width="2" d="M920.882,1456.78 L910.882,1451.78 L920.882,1446.78"/></g><text font-family="American Typewriter" font-size="24" text-anchor="middle" transform="matrix(0.8,0,0,0.8,707.618,1413.09)" xml:space="preserve"><tspan>1</tspan></text><text font-family="American Typewriter" font-size="24" text-anchor="middle" transform="matrix(0.8,0,0,0.8,1008.23,1412.92)" xml:space="preserve"><tspan>2</tspan></text><g><path fill="#fff" stroke="#000" stroke-width="2" d="M886.259,1352.11 L886.259,1321.49 L828.659,1321.49 L828.659,1352.11"/><path fill="#bcbcbc" stroke="#000" stroke-width="2" d="M828.659,1322.51 L886.259,1322.51 L886.259,1293.71 L828.659,1293.71 Z"/><text font-family="American Typewriter" font-size="24" text-anchor="middle" transform="matrix(0.8,0,0,0.8,856.149,1313.2)" xml:space="preserve"><tspan>3</tspan></text></g><g><path fill="#fff" stroke="#000" stroke-width="2" d="M886.017,1464.73 L886.017,1494.7 L828.417,1494.7 L828.417,1464.73"/><path fill="#bcbcbc" stroke="#000" stroke-width="2" d="M828.417,1523.13 L886.017,1523.13 L886.017,1494.33 L828.417,1494.33 Z"/><text font-family="American Typewriter" font-size="24" text-anchor="middle" transform="matrix(0.8,0,0,0.8,856.794,1512.14)" xml:space="preserve"><tspan>4</tspan></text></g><g><path fill="none" stroke="#ff0004" stroke-width="2" stroke-linecap="round" d="M827.396,1456.91 C831.257,1457.01,835.263,1459.93,836.001,1463.13 C837.935,1471.52,835.871,1481.17,835.801,1490.88"/><path fill="none" stroke="#ff0004" stroke-width="2" stroke-linecap="round" d="M831.355,1480.52 C832.778,1484,834.138,1487.51,835.801,1490.88 C837.471,1487.59,839.431,1484.45,841.326,1481.28"/></g><g><path fill="none" stroke="#007efd" stroke-width="2" stroke-linecap="round" d="M827.396,1451.86 C834.132,1453.13,843.632,1456.78,844.001,1462.76 C844.517,1471.12,843.611,1481.04,843.401,1490.88"/><path fill="none" stroke="#007efd" stroke-width="2" stroke-linecap="round" d="M834.643,1459.39 C832.79,1456.4,830.12,1454.03,827.396,1451.86 C831.209,1450.84,835.168,1450.17,839.132,1450.45"/></g><g><path fill="none" stroke="#007efd" stroke-width="2" stroke-linecap="round" d="M884.819,1451.85 C879.259,1451.85,868.198,1458.54,867.459,1462.92 C866.052,1471.27,867.849,1481.1,868.059,1490.88"/><path fill="none" stroke="#007efd" stroke-width="2" stroke-linecap="round" d="M862.492,1481.28 C864.39,1484.45,866.337,1487.61,868.059,1490.88 C869.669,1487.49,871.042,1484,872.464,1480.53"/></g><path fill="none" stroke="#ff0004" stroke-width="2" d="M827.396,1456.89 L780.469,1456.89"/><g><path fill="none" stroke="#ff0004" stroke-width="2" stroke-linecap="round" stroke-linejoin="bevel" d="M886.259,1456.78 C882.632,1457.45,876.197,1460.31,875.459,1463.65 C873.524,1472.41,875.589,1482.49,875.659,1492.63"/><path fill="none" stroke="#ff0004" stroke-width="2" stroke-linecap="round" stroke-linejoin="bevel" d="M874.015,1457.17 C877.928,1455.66,882.253,1455.83,886.259,1456.78 C883.805,1458.92,881.264,1461.42,880.546,1464.74"/></g><path fill="none" stroke="#ff0004" stroke-width="2" d="M941.957,1456.86 L886.259,1456.86"/><g><path fill="none" stroke="#ff0004" stroke-width="2" stroke-linecap="round" d="M828.056,1356.95 C831.007,1356.87,835.154,1355.1,835.892,1352.35 C837.827,1345.16,837.742,1333.96,837.672,1325.63"/><path fill="none" stroke="#ff0004" stroke-width="2" stroke-linecap="round" d="M840.834,1353.21 C838.525,1358.21,832.423,1358.79,828.056,1356.95 C829.234,1355.99,834.319,1352.69,831.146,1350.73"/></g><g><path fill="none" stroke="#007efd" stroke-width="2" stroke-linecap="round" d="M829.496,1361.42 C835.775,1361.42,842.179,1360.21,844.155,1355.51 C847.007,1348.73,845.717,1334.1,845.507,1325.63"/><path fill="none" stroke="#007efd" stroke-width="2" stroke-linecap="round" d="M850.879,1335.48 C849.143,1332.17,847.266,1328.93,845.507,1325.63 C843.933,1329,842.481,1332.42,840.884,1335.78"/></g><g><path fill="none" stroke="#ff0004" stroke-width="2" stroke-linecap="round" stroke-linejoin="bevel" d="M883.186,1356.87 C880.456,1357.07,876.088,1354.9,875.35,1352.15 C873.416,1344.96,874.583,1333.96,874.653,1325.63"/><path fill="none" stroke="#ff0004" stroke-width="2" stroke-linecap="round" stroke-linejoin="bevel" d="M879.336,1335.81 C877.776,1332.42,876.273,1329,874.653,1325.63 C872.939,1328.94,871.113,1332.18,869.342,1335.45"/></g><g><path fill="none" stroke="#007efd" stroke-width="2" stroke-linecap="round" d="M884.819,1361.95 C878.866,1361.95,868.09,1356.95,867.35,1353.15 C865.943,1345.93,866.719,1334.1,866.929,1325.63"/><path fill="none" stroke="#007efd" stroke-width="2" stroke-linecap="round" d="M877.239,1354.9 C879.245,1357.73,881.771,1360.25,884.819,1361.95 C881.163,1363.57,877.116,1364.06,873.153,1364.03"/></g><path fill="none" stroke="#007efd" stroke-width="2" d="M829.496,1361.42 L780.469,1361.42"/><g><g><path fill="none" stroke="#000" stroke-width="2" d="M1101.44,1411.61 L1101.44,1430.1"/><g><path fill="none" stroke="#000" stroke-width="2" d="M1126.64,1430.1 L1076.24,1430.1"/><path fill="none" stroke="#000" stroke-width="2" d="M1121.6,1434.5 L1081.28,1434.5"/><path fill="none" stroke="#000" stroke-width="2" d="M1116.56,1438.9 L1086.32,1438.9"/><path fill="none" stroke="#000" stroke-width="2" d="M1111.52,1443.3 L1091.36,1443.3"/></g></g><path fill="none" stroke="#000" stroke-width="2" d="M1023.43,1410.8 L1101.44,1410.8"/></g><g><path fill="none" stroke="#000" stroke-width="2" d="M616.26,1410.8 L692.236,1410.8"/><g><g><path fill="none" stroke="#000" stroke-width="2" d="M597.185,1433.6 L597.185,1452.09"/><g><path fill="none" stroke="#000" stroke-width="2" d="M622.385,1452.09 L571.985,1452.09"/><path fill="none" stroke="#000" stroke-width="2" d="M617.345,1456.49 L577.025,1456.49"/><path fill="none" stroke="#000" stroke-width="2" d="M612.305,1460.89 L582.065,1460.89"/><path fill="none" stroke="#000" stroke-width="2" d="M607.265,1465.29 L587.105,1465.29"/></g></g><g><path fill="#fff" stroke="#000" stroke-width="2" d="M618.785,1412.15 C618.785,1424.08,609.115,1433.75,597.185,1433.75 C585.256,1433.75,575.585,1424.08,575.585,1412.15 C575.585,1400.22,585.256,1390.55,597.185,1390.55 C609.115,1390.55,618.785,1400.22,618.785,1412.15 Z"/><g clip-path="url(#7fc8747d6570)"><clipPath id="7fc8747d6570"><path fill="#000" fill-opacity="0.35" d="M588.665,1418.89 L605.945,1418.89 L605.945,1402 L588.665,1402 Z"/></clipPath><g clip-path="url(#7fc875065e80)"><clipPath id="7fc875065e80"><path fill="#000" fill-opacity="0.35" d="M588.665,1418.64 L605.945,1418.64 L605.945,1402 L588.665,1402 Z"/></clipPath><path fill="#000" d="M602.145,1405.05 C603.269,1403.26,604.224,1403.2,605.076,1403.14 C605.365,1403.13,605.382,1402.74,605.382,1402.7 C605.382,1402.53,605.263,1402.43,605.076,1402.43 C604.479,1402.43,603.815,1402.5,603.201,1402.5 C602.434,1402.5,601.65,1402.43,600.918,1402.43 C600.781,1402.43,600.492,1402.43,600.492,1402.87 C600.492,1403.13,600.696,1403.14,600.849,1403.14 C601.48,1403.2,601.906,1403.42,601.906,1403.89 C601.906,1404.25,601.565,1404.75,601.565,1404.78 L594.51,1415.99 L592.942,1403.83 C592.942,1403.45,593.47,1403.14,594.527,1403.14 C594.851,1403.14,595.106,1403.14,595.106,1402.68 C595.106,1402.48,594.919,1402.43,594.783,1402.43 C593.862,1402.43,592.874,1402.5,591.937,1402.5 C591.528,1402.5,591.085,1402.48,590.676,1402.48 C590.25,1402.48,589.824,1402.43,589.432,1402.43 C589.261,1402.43,588.988,1402.43,588.988,1402.87 C588.988,1403.14,589.193,1403.14,589.568,1403.14 C590.846,1403.14,590.88,1403.35,590.948,1403.93 L592.755,1418.11 C592.84,1418.57,592.925,1418.64,593.215,1418.64 C593.59,1418.64,593.675,1418.52,593.862,1418.23 L602.145,1405.05"/></g></g></g></g></g></g><g><g><pattern id="7fc875111510" xlink:href="#7fc87505c800" patternTransform="matrix(1,0,0,1,334.814,-10.0458)"/><path fill="url(#7fc875111510)" d="M652.415,523.196 L933.751,523.196 L933.751,376.988 L652.415,376.988 Z"/><path fill="#bcbcbc" fill-opacity="0.43" d="M541.341,376.988 L1043.34,376.988 L1043.34,523.196 L541.341,523.196 Z"/><path fill="none" stroke="#000" stroke-width="3" d="M541.341,523.196 L1043.34,523.196"/></g><g><path fill="none" stroke="#007efd" stroke-width="3" d="M541.341,509.028 L652.415,509.028"/><path fill="none" stroke="#007efd" stroke-width="3" d="M553.341,515.028 L541.341,509.028 L553.341,503.028"/></g><g><path fill="none" stroke="#ff0004" stroke-width="3" d="M652.415,494.443 L541.341,494.443"/><path fill="none" stroke="#ff0004" stroke-width="3" d="M640.415,488.443 L652.415,494.443 L640.415,500.443"/></g><g><path fill="none" stroke="#007efd" stroke-width="3" d="M933.751,510.86 L1043.34,510.86"/><path fill="none" stroke="#007efd" stroke-width="3" d="M945.751,516.86 L933.751,510.86 L945.751,504.86"/></g><g><path fill="none" stroke="#ff0004" stroke-width="3" d="M1043.34,494.274 L933.751,494.274"/><path fill="none" stroke="#ff0004" stroke-width="3" d="M1031.34,488.274 L1043.34,494.274 L1031.34,500.274"/></g><text font-family="American Typewriter" font-size="30" text-anchor="middle" transform="matrix(0.6,0,0,0.6,792.732,369.001)" xml:space="preserve"><tspan>disordered region</tspan></text><text fill="#ff0004" font-family="American Typewriter" font-size="30" text-anchor="middle" transform="matrix(0.8,0,0,0.8,513.335,496.621)" xml:space="preserve"><tspan>in,L</tspan></text><text fill="#007efd" font-family="American Typewriter" font-size="30" text-anchor="middle" transform="matrix(0.8,0,0,0.8,505.949,519.356)" xml:space="preserve"><tspan>out,L</tspan></text><text fill="#ff0004" font-family="American Typewriter" font-size="30" text-anchor="middle" transform="matrix(0.8,0,0,0.8,1081.37,497.788)" xml:space="preserve"><tspan>out,R</tspan></text><text fill="#007efd" font-family="American Typewriter" font-size="30" text-anchor="middle" transform="matrix(0.8,0,0,0.8,1073.8,519.356)" xml:space="preserve"><tspan>in,R</tspan></text><text font-family="American Typewriter" font-size="30" text-anchor="middle" transform="matrix(0.6,0,0,0.6,589.741,376.988)" xml:space="preserve"><tspan x="0" y="36">left</tspan><tspan x="0" y="72">clean</tspan><tspan x="0" y="108">region</tspan></text><text font-family="American Typewriter" font-size="30" text-anchor="middle" transform="matrix(0.6,0,0,0.6,989.668,376.988)" xml:space="preserve"><tspan x="0" y="36">right</tspan><tspan x="0" y="72">clean</tspan><tspan x="0" y="108">region</tspan></text></g><g><path fill="#c9c9c9" fill-opacity="0.42" d="M157.507,988.533 L313.027,988.533 L241.143,1040.37 L85.6225,1040.37"/><g><path fill="none" stroke="#ff0004" stroke-width="3" d="M144.361,994.427 L313.027,994.427"/><path fill="none" stroke="#ff0004" stroke-width="3" d="M156.361,1000.43 L144.361,994.427 L156.361,988.427"/></g><g><path fill="none" stroke="#ff0004" stroke-width="3" d="M254.289,1032.92 L85.6225,1032.92"/><path fill="none" stroke="#ff0004" stroke-width="3" d="M242.289,1026.92 L254.289,1032.92 L242.289,1038.92"/></g><path fill="none" stroke="#000" stroke-width="2" d="M85.6225,1040.37 L241.143,1040.37"/><path fill="none" stroke="#000" stroke-width="2" d="M153.961,988.856 L309.481,988.856"/><g><path fill="#c9c9c9" fill-opacity="0.42" d="M404.263,988.39 L559.783,988.39 L487.899,1040.23 L332.379,1040.23"/><g><path fill="none" stroke="#007efd" stroke-width="3" d="M559.783,994.284 L391.117,994.284"/><path fill="none" stroke="#007efd" stroke-width="3" d="M547.783,988.284 L559.783,994.284 L547.783,1000.28"/></g><g><path fill="none" stroke="#007efd" stroke-width="3" d="M332.379,1032.78 L501.045,1032.78"/><path fill="none" stroke="#007efd" stroke-width="3" d="M344.379,1038.78 L332.379,1032.78 L344.379,1026.78"/></g><path fill="none" stroke="#000" stroke-width="2" d="M332.379,1040.23 L487.899,1040.23"/><path fill="none" stroke="#000" stroke-width="2" d="M400.717,988.713 L556.237,988.713"/></g><g clip-path="url(#7fc8747f3f30)"><clipPath id="7fc8747f3f30"><path fill="#000" fill-opacity="0.35" d="M307.543,1022.12 L326.736,1022.12 L326.736,1002.12 L307.543,1002.12 Z"/></clipPath><g clip-path="url(#7fc8750c5c50)"><clipPath id="7fc8750c5c50"><path fill="#000" fill-opacity="0.35" d="M307.543,1021.32 L326.743,1021.32 L326.743,1002.12 L307.543,1002.12 Z"/></clipPath><path fill="#000" d="M317.704,1012.32 L325.714,1012.32 C326.119,1012.32,326.651,1012.32,326.651,1011.75 C326.651,1011.17,326.119,1011.17,325.714,1011.17 L317.704,1011.17 L317.704,1003.12 C317.704,1002.71,317.704,1002.16,317.129,1002.16 C316.554,1002.16,316.554,1002.71,316.554,1003.12 L316.554,1011.17 L308.502,1011.17 C308.097,1011.17,307.543,1011.17,307.543,1011.75 C307.543,1012.32,308.097,1012.32,308.502,1012.32 L316.554,1012.32 L316.554,1020.35 C316.554,1020.76,316.554,1021.31,317.129,1021.31 C317.704,1021.31,317.704,1020.76,317.704,1020.35 L317.704,1012.32"/></g></g><g clip-path="url(#7fc874799830)"><clipPath id="7fc874799830"><path fill="#000" fill-opacity="0.35" d="M590.809,1016.91 L610.002,1016.91 L610.002,1008.9 L590.809,1008.9 Z"/></clipPath><g clip-path="url(#7fc8750bc5f0)"><clipPath id="7fc8750bc5f0"><path fill="#000" fill-opacity="0.35" d="M590.809,1016.91 L610.009,1016.91 L610.009,1008.91 L590.809,1008.91 Z"/></clipPath><path fill="#000" d="M608.937,1010.56 C609.384,1010.56,609.917,1010.56,609.917,1009.98 C609.917,1009.41,609.384,1009.41,608.98,1009.41 L591.768,1009.41 C591.363,1009.41,590.809,1009.41,590.809,1009.98 C590.809,1010.56,591.363,1010.56,591.789,1010.56 L608.958,1010.56 Z M608.98,1016.12 C609.384,1016.12,609.917,1016.12,609.917,1015.54 C609.917,1014.97,609.384,1014.97,608.937,1014.97 L591.789,1014.97 C591.363,1014.97,590.809,1014.97,590.809,1015.54 C590.809,1016.12,591.363,1016.12,591.768,1016.12 L608.98,1016.12"/></g></g><g><path fill="#c9c9c9" fill-opacity="0.42" d="M705.831,989.31 L861.351,989.31 L789.466,1041.15 L633.946,1041.15"/><g><path fill="none" stroke="#007efd" stroke-width="3" d="M861.351,995.205 L692.684,995.205"/><path fill="none" stroke="#007efd" stroke-width="3" d="M849.351,989.205 L861.351,995.205 L849.351,1001.2"/></g><g><path fill="none" stroke="#007efd" stroke-width="3" d="M633.946,1033.7 L802.612,1033.7"/><path fill="none" stroke="#007efd" stroke-width="3" d="M645.946,1039.7 L633.946,1033.7 L645.946,1027.7"/></g><path fill="none" stroke="#000" stroke-width="2" d="M633.946,1041.15 L789.466,1041.15"/><path fill="none" stroke="#000" stroke-width="2" d="M702.284,989.634 L857.804,989.634"/><g><path fill="none" stroke="#ff0004" stroke-width="3" d="M681.161,1000.02 L849.827,1000.02"/><path fill="none" stroke="#ff0004" stroke-width="3" d="M693.161,1006.02 L681.161,1000.02 L693.161,994.016"/></g><g><path fill="none" stroke="#ff0004" stroke-width="3" d="M818.089,1028.01 L649.423,1028.01"/><path fill="none" stroke="#ff0004" stroke-width="3" d="M806.089,1022.01 L818.089,1028.01 L806.089,1034.01"/></g></g></g><g><text font-family="American Typewriter" font-size="24" transform="matrix(1,0,0,1,806.504,139.059)" xml:space="preserve"><tspan>flux</tspan></text><g><path fill="#bcbcbc" stroke="#000" stroke-width="2" d="M406.386,78.4463 C399.045,78.4463,393.094,114.711,393.094,159.446 C393.094,204.181,399.045,240.446,406.386,240.446 C413.727,240.446,419.678,204.181,419.678,159.446 C419.678,114.711,413.727,78.4463,406.386,78.4463 Z"/><path fill="#bcbcbc" d="M778.099,240.446 L778.099,78.4463 L406.386,78.4463 L406.386,240.446 Z"/><path fill="none" stroke="#000" stroke-width="2" d="M778.099,240.446 L405.997,240.446"/><path fill="none" stroke="#000" stroke-width="2" d="M406.386,78.4463 L776.143,78.4463"/><path fill="#fff" stroke="#000" stroke-width="2" d="M776.143,78.4463 C768.802,78.4463,762.851,114.711,762.851,159.446 C762.851,204.181,768.802,240.446,776.143,240.446 C783.484,240.446,789.435,204.181,789.435,159.446 C789.435,114.711,783.484,78.4463,776.143,78.4463 Z"/><path fill="none" stroke="#000" stroke-dasharray="5" d="M406.436,78.4463 C399.095,78.4463,393.144,114.711,393.144,159.446 C393.144,204.181,399.095,240.446,406.436,240.446 C413.777,240.446,419.728,204.181,419.728,159.446 C419.728,114.711,413.777,78.4463,406.436,78.4463 Z"/></g><g><path fill="none" stroke="#000" stroke-width="3" d="M776.192,155.067 L864.708,155.067"/><path fill="none" stroke="#000" stroke-width="3" d="M852.708,149.067 L864.708,155.067 L852.708,161.067"/></g><g><g><path fill="none" stroke="#000" stroke-width="2" d="M861.226,224.476 L861.226,242.967"/><g><path fill="none" stroke="#000" stroke-width="2" d="M886.426,242.967 L836.026,242.967"/><path fill="none" stroke="#000" stroke-width="2" d="M881.386,247.367 L841.066,247.367"/><path fill="none" stroke="#000" stroke-width="2" d="M876.346,251.767 L846.106,251.767"/><path fill="none" stroke="#000" stroke-width="2" d="M871.306,256.167 L851.146,256.167"/></g></g><path fill="none" stroke="#000" stroke-width="2" d="M783.221,223.668 L861.226,223.668"/></g><path fill="none" stroke="#000" stroke-width="2" d="M252.978,109.522 L395.304,109.522"/><g><g><path fill="none" stroke="#000" stroke-width="2" d="M231.378,132.322 L231.378,150.814"/><g><path fill="none" stroke="#000" stroke-width="2" d="M256.578,150.814 L206.178,150.814"/><path fill="none" stroke="#000" stroke-width="2" d="M251.538,155.214 L211.218,155.214"/><path fill="none" stroke="#000" stroke-width="2" d="M246.498,159.614 L216.258,159.614"/><path fill="none" stroke="#000" stroke-width="2" d="M241.458,164.014 L221.298,164.014"/></g></g><g><path fill="#fff" stroke="#000" stroke-width="2" d="M252.978,110.864 C252.978,122.794,243.308,132.464,231.378,132.464 C219.449,132.464,209.778,122.794,209.778,110.864 C209.778,98.9351,219.449,89.2645,231.378,89.2645 C243.308,89.2645,252.978,98.9351,252.978,110.864 Z"/><g clip-path="url(#7fc8742b2e00)"><clipPath id="7fc8742b2e00"><path fill="#000" fill-opacity="0.35" d="M222.858,117.61 L240.138,117.61 L240.138,100.722 L222.858,100.722 Z"/></clipPath><g clip-path="url(#7fc87505d8c0)"><clipPath id="7fc87505d8c0"><path fill="#000" fill-opacity="0.35" d="M222.858,117.362 L240.138,117.362 L240.138,100.722 L222.858,100.722 Z"/></clipPath><path fill="#000" d="M236.337,103.772 C237.462,101.983,238.417,101.914,239.269,101.863 C239.558,101.846,239.575,101.454,239.575,101.42 C239.575,101.25,239.456,101.148,239.269,101.148 C238.672,101.148,238.008,101.216,237.394,101.216 C236.627,101.216,235.843,101.148,235.11,101.148 C234.974,101.148,234.684,101.148,234.684,101.591 C234.684,101.846,234.889,101.863,235.042,101.863 C235.673,101.914,236.099,102.136,236.099,102.613 C236.099,102.971,235.758,103.465,235.758,103.499 L228.703,114.713 L227.135,102.545 C227.135,102.17,227.663,101.863,228.72,101.863 C229.044,101.863,229.299,101.863,229.299,101.403 C229.299,101.199,229.112,101.148,228.975,101.148 C228.055,101.148,227.067,101.216,226.13,101.216 C225.721,101.216,225.277,101.199,224.868,101.199 C224.442,101.199,224.016,101.148,223.624,101.148 C223.454,101.148,223.181,101.148,223.181,101.591 C223.181,101.863,223.386,101.863,223.761,101.863 C225.039,101.863,225.073,102.068,225.141,102.647 L226.948,116.826 C227.033,117.286,227.118,117.354,227.408,117.354 C227.783,117.354,227.868,117.235,228.055,116.945 L236.337,103.772"/></g></g></g></g><g><path fill="#fff" stroke="#000" d="M363.094,81.7175 C375.244,81.7175,385.094,86.8128,385.094,93.0982 C385.094,99.3836,375.244,104.479,363.094,104.479"/><g><path fill="none" stroke="#000" d="M273.227,81.6619 L363.367,81.6619"/><path fill="none" stroke="#000" d="M281.227,85.6619 L273.227,81.6619 L281.227,77.6619"/></g><path fill="none" stroke="#000" d="M340.516,104.44 L363.219,104.44"/></g><text font-family="American Typewriter" font-size="24" transform="matrix(1,0,0,1,276.308,66.5596)" xml:space="preserve"><tspan>reflection</tspan></text></g><g><path fill="none" stroke="#000" stroke-width="2.523" stroke-dasharray="12.615" d="M586.783,662.672 L586.783,824.672"/><path fill="none" stroke="#000" stroke-width="2.523" stroke-dasharray="12.615" d="M640.783,662.672 L640.783,824.672"/><path fill="none" stroke="#000" stroke-width="2.523" stroke-dasharray="12.615" d="M694.783,662.672 L694.783,824.672"/><path fill="none" stroke="#000" stroke-width="2.523" stroke-dasharray="12.615" d="M748.783,662.672 L748.783,824.672"/><path fill="none" stroke="#000" stroke-width="2.523" stroke-dasharray="12.615" d="M802.783,662.672 L802.783,824.672"/><path fill="none" stroke="#000" stroke-width="2.523" stroke-dasharray="12.615" d="M856.783,662.672 L856.783,824.672"/><g><g><path fill="none" stroke="#000" stroke-width="2" d="M100.076,879.075 L229.676,879.927"/><path fill="none" stroke="#000" stroke-width="2" d="M219.709,874.862 L229.676,879.927 L219.643,884.861"/></g><g><path fill="none" stroke="#000" stroke-width="2" d="M100.076,878.933 L100.076,747.743"/><path fill="none" stroke="#000" stroke-width="2" d="M95.0761,757.743 L100.076,747.743 L105.076,757.743"/></g><g clip-path="url(#7fc8745de100)"><clipPath id="7fc8745de100"><path fill="#000" fill-opacity="0.35" d="M235.792,885.229 L247.199,885.229 L247.199,875.036 L235.792,875.036 Z"/></clipPath><g clip-path="url(#7fc874342710)"><clipPath id="7fc874342710"><path fill="#000" fill-opacity="0.35" d="M235.792,885.229 L247.192,885.229 L247.192,875.029 L235.792,875.029 Z"/></clipPath><path fill="#000" d="M242.454,878.359 C242.582,877.8,243.077,875.819,244.579,875.819 C244.691,875.819,245.202,875.819,245.666,876.107 C245.058,876.202,244.627,876.746,244.627,877.257 C244.627,877.608,244.867,878.024,245.442,878.024 C245.921,878.024,246.608,877.624,246.608,876.762 C246.608,875.643,245.33,875.34,244.611,875.34 C243.349,875.34,242.598,876.49,242.342,876.985 C241.799,875.563,240.633,875.34,240.01,875.34 C237.773,875.34,236.543,878.12,236.543,878.663 C236.543,878.886,236.767,878.886,236.799,878.886 C236.974,878.886,237.038,878.839,237.086,878.647 C237.821,876.362,239.243,875.819,239.978,875.819 C240.377,875.819,241.128,876.011,241.128,877.257 C241.128,877.928,240.761,879.382,239.978,882.385 C239.626,883.727,238.876,884.638,237.917,884.638 C237.789,884.638,237.294,884.638,236.847,884.35 C237.39,884.239,237.853,883.791,237.853,883.184 C237.853,882.609,237.39,882.433,237.07,882.433 C236.415,882.433,235.872,882.992,235.872,883.679 C235.872,884.67,236.958,885.101,237.901,885.101 C239.323,885.101,240.106,883.599,240.17,883.472 C240.425,884.271,241.192,885.101,242.486,885.101 C244.707,885.101,245.937,882.321,245.937,881.794 C245.937,881.57,245.745,881.57,245.682,881.57 C245.49,881.57,245.442,881.666,245.41,881.81 C244.691,884.111,243.221,884.638,242.534,884.638 C241.703,884.638,241.352,883.951,241.352,883.216 C241.352,882.737,241.48,882.257,241.719,881.315 L242.454,878.359"/></g></g><g clip-path="url(#7fc8743242d0)"><clipPath id="7fc8743242d0"><path fill="#000" fill-opacity="0.35" d="M94.6781,740.599 L105.478,740.599 L105.478,726.205 L94.6781,726.205 Z"/></clipPath><g clip-path="url(#7fc874350b80)"><clipPath id="7fc874350b80"><path fill="#000" fill-opacity="0.35" d="M95.2781,740.599 L105.478,740.599 L105.478,726.199 L95.2781,726.199 Z"/></clipPath><path fill="#000" d="M105.159,727.834 C105.239,727.531,105.239,727.483,105.239,727.339 C105.239,726.94,104.935,726.748,104.615,726.748 C104.392,726.748,104.056,726.876,103.865,727.211 C103.817,727.307,103.641,727.978,103.561,728.361 C103.401,728.921,103.257,729.512,103.13,730.087 L102.155,733.969 C102.075,734.289,101.149,735.806,99.7267,735.806 C98.6243,735.806,98.3846,734.848,98.3846,734.049 C98.3846,733.058,98.7521,731.732,99.487,729.831 C99.8225,728.953,99.9184,728.713,99.9184,728.282 C99.9184,727.307,99.2314,726.508,98.145,726.508 C96.1,726.508,95.3012,729.64,95.3012,729.831 C95.3012,730.055,95.5248,730.055,95.5568,730.055 C95.7804,730.055,95.7964,730.007,95.9083,729.656 C96.4834,727.642,97.3461,726.987,98.0811,726.987 C98.2568,726.987,98.6243,726.987,98.6243,727.674 C98.6243,728.218,98.4006,728.777,98.2568,729.192 C97.3941,731.477,97.0106,732.691,97.0106,733.714 C97.0106,735.631,98.3686,736.27,99.6308,736.27 C100.478,736.27,101.212,735.902,101.804,735.311 C101.532,736.43,101.276,737.484,100.414,738.618 C99.8544,739.353,99.0397,739.976,98.0331,739.976 C97.7456,739.976,96.771,739.912,96.4035,739.082 C96.755,739.082,97.0266,739.082,97.3302,738.81 C97.5379,738.618,97.7615,738.347,97.7615,737.931 C97.7615,737.26,97.1864,737.18,96.9627,737.18 C96.4674,737.18,95.7485,737.532,95.7485,738.586 C95.7485,739.657,96.7071,740.456,98.0331,740.456 C100.254,740.456,102.475,738.49,103.082,736.062 L105.159,727.834"/></g></g></g><path fill="none" stroke="#000" d="M674.083,854.147 L647.683,802.667"/><text font-family="American Typewriter" font-size="30" text-anchor="middle" transform="matrix(0.6,0,0,0.6,770.423,864.679)" xml:space="preserve"><tspan>inter-chain couplings</tspan></text><text fill="#ff0004" font-family="American Typewriter" font-size="30" text-anchor="middle" transform="matrix(0.6,0,0,0.6,302.821,647.837)" xml:space="preserve"><tspan>left movers</tspan></text><text fill="#007efd" font-family="American Typewriter" font-size="30" text-anchor="middle" transform="matrix(0.6,0,0,0.6,312.472,687.231)" xml:space="preserve"><tspan>right movers</tspan></text><path fill="none" stroke="#000" stroke-width="2" d="M125.301,662.672 L451.325,662.672"/><path fill="#a1a1a1" stroke="#000" stroke-width="2" d="M161.858,662.672 C161.858,666.607,158.5,669.797,154.358,669.797 C150.216,669.797,146.858,666.607,146.858,662.672 C146.858,658.737,150.216,655.547,154.358,655.547 C158.5,655.547,161.858,658.737,161.858,662.672 Z"/><path fill="#a1a1a1" stroke="#000" stroke-width="2" d="M215.858,662.672 C215.858,666.607,212.5,669.797,208.358,669.797 C204.216,669.797,200.858,666.607,200.858,662.672 C200.858,658.737,204.216,655.547,208.358,655.547 C212.5,655.547,215.858,658.737,215.858,662.672 Z"/><path fill="#a1a1a1" stroke="#000" stroke-width="2" d="M269.858,662.672 C269.858,666.607,266.5,669.797,262.358,669.797 C258.216,669.797,254.858,666.607,254.858,662.672 C254.858,658.737,258.216,655.547,262.358,655.547 C266.5,655.547,269.858,658.737,269.858,662.672 Z"/><path fill="#a1a1a1" stroke="#000" stroke-width="2" d="M323.858,662.672 C323.858,666.607,320.5,669.797,316.358,669.797 C312.216,669.797,308.858,666.607,308.858,662.672 C308.858,658.737,312.216,655.547,316.358,655.547 C320.5,655.547,323.858,658.737,323.858,662.672 Z"/><path fill="#a1a1a1" stroke="#000" stroke-width="2" d="M377.858,662.672 C377.858,666.607,374.5,669.797,370.358,669.797 C366.216,669.797,362.858,666.607,362.858,662.672 C362.858,658.737,366.216,655.547,370.358,655.547 C374.5,655.547,377.858,658.737,377.858,662.672 Z"/><path fill="#a1a1a1" stroke="#000" stroke-width="2" d="M431.858,662.672 C431.858,666.607,428.5,669.797,424.358,669.797 C420.216,669.797,416.858,666.607,416.858,662.672 C416.858,658.737,420.216,655.547,424.358,655.547 C428.5,655.547,431.858,658.737,431.858,662.672 Z"/><path fill="none" stroke="#000" stroke-width="2" d="M125.301,716.672 L451.325,716.672"/><path fill="#a1a1a1" stroke="#000" stroke-width="2" d="M161.858,716.672 C161.858,720.607,158.5,723.797,154.358,723.797 C150.216,723.797,146.858,720.607,146.858,716.672 C146.858,712.737,150.216,709.547,154.358,709.547 C158.5,709.547,161.858,712.737,161.858,716.672 Z"/><path fill="#a1a1a1" stroke="#000" stroke-width="2" d="M215.858,716.672 C215.858,720.607,212.5,723.797,208.358,723.797 C204.216,723.797,200.858,720.607,200.858,716.672 C200.858,712.737,204.216,709.547,208.358,709.547 C212.5,709.547,215.858,712.737,215.858,716.672 Z"/><path fill="#a1a1a1" stroke="#000" stroke-width="2" d="M269.858,716.672 C269.858,720.607,266.5,723.797,262.358,723.797 C258.216,723.797,254.858,720.607,254.858,716.672 C254.858,712.737,258.216,709.547,262.358,709.547 C266.5,709.547,269.858,712.737,269.858,716.672 Z"/><path fill="#a1a1a1" stroke="#000" stroke-width="2" d="M323.858,716.672 C323.858,720.607,320.5,723.797,316.358,723.797 C312.216,723.797,308.858,720.607,308.858,716.672 C308.858,712.737,312.216,709.547,316.358,709.547 C320.5,709.547,323.858,712.737,323.858,716.672 Z"/><path fill="#a1a1a1" stroke="#000" stroke-width="2" d="M377.858,716.672 C377.858,720.607,374.5,723.797,370.358,723.797 C366.216,723.797,362.858,720.607,362.858,716.672 C362.858,712.737,366.216,709.547,370.358,709.547 C374.5,709.547,377.858,712.737,377.858,716.672 Z"/><path fill="#a1a1a1" stroke="#000" stroke-width="2" d="M431.858,716.672 C431.858,720.607,428.5,723.797,424.358,723.797 C420.216,723.797,416.858,720.607,416.858,716.672 C416.858,712.737,420.216,709.547,424.358,709.547 C428.5,709.547,431.858,712.737,431.858,716.672 Z"/><g><g><path fill="none" stroke="#ff0004" stroke-width="3" d="M128.683,707.038 L451.325,707.038"/><path fill="none" stroke="#ff0004" stroke-width="3" d="M140.683,713.038 L128.683,707.038 L140.683,701.038"/></g><g><path fill="none" stroke="#007efd" stroke-width="3" d="M451.325,726.068 L127.483,726.068"/><path fill="none" stroke="#007efd" stroke-width="3" d="M439.325,720.068 L451.325,726.068 L439.325,732.068"/></g></g><g><path fill="none" stroke="#000" stroke-width="2" d="M125.301,770.672 L451.325,770.672"/><path fill="#a1a1a1" stroke="#000" stroke-width="2" d="M161.858,770.672 C161.858,774.607,158.5,777.797,154.358,777.797 C150.216,777.797,146.858,774.607,146.858,770.672 C146.858,766.737,150.216,763.547,154.358,763.547 C158.5,763.547,161.858,766.737,161.858,770.672 Z"/><path fill="#a1a1a1" stroke="#000" stroke-width="2" d="M215.858,770.672 C215.858,774.607,212.5,777.797,208.358,777.797 C204.216,777.797,200.858,774.607,200.858,770.672 C200.858,766.737,204.216,763.547,208.358,763.547 C212.5,763.547,215.858,766.737,215.858,770.672 Z"/><path fill="#a1a1a1" stroke="#000" stroke-width="2" d="M269.858,770.672 C269.858,774.607,266.5,777.797,262.358,777.797 C258.216,777.797,254.858,774.607,254.858,770.672 C254.858,766.737,258.216,763.547,262.358,763.547 C266.5,763.547,269.858,766.737,269.858,770.672 Z"/><path fill="#a1a1a1" stroke="#000" stroke-width="2" d="M323.858,770.672 C323.858,774.607,320.5,777.797,316.358,777.797 C312.216,777.797,308.858,774.607,308.858,770.672 C308.858,766.737,312.216,763.547,316.358,763.547 C320.5,763.547,323.858,766.737,323.858,770.672 Z"/><path fill="#a1a1a1" stroke="#000" stroke-width="2" d="M377.858,770.672 C377.858,774.607,374.5,777.797,370.358,777.797 C366.216,777.797,362.858,774.607,362.858,770.672 C362.858,766.737,366.216,763.547,370.358,763.547 C374.5,763.547,377.858,766.737,377.858,770.672 Z"/><path fill="#a1a1a1" stroke="#000" stroke-width="2" d="M431.858,770.672 C431.858,774.607,428.5,777.797,424.358,777.797 C420.216,777.797,416.858,774.607,416.858,770.672 C416.858,766.737,420.216,763.547,424.358,763.547 C428.5,763.547,431.858,766.737,431.858,770.672 Z"/><g><g><path fill="none" stroke="#ff0004" stroke-width="3" d="M128.683,761.038 L451.325,761.038"/><path fill="none" stroke="#ff0004" stroke-width="3" d="M140.683,767.038 L128.683,761.038 L140.683,755.038"/></g><g><path fill="none" stroke="#007efd" stroke-width="3" d="M451.325,780.068 L127.483,780.068"/><path fill="none" stroke="#007efd" stroke-width="3" d="M439.325,774.068 L451.325,780.068 L439.325,786.068"/></g></g></g><path fill="none" stroke="#000" stroke-width="2" d="M125.301,824.672 L451.325,824.672"/><path fill="#a1a1a1" stroke="#000" stroke-width="2" d="M161.858,824.672 C161.858,828.607,158.5,831.797,154.358,831.797 C150.216,831.797,146.858,828.607,146.858,824.672 C146.858,820.737,150.216,817.547,154.358,817.547 C158.5,817.547,161.858,820.737,161.858,824.672 Z"/><path fill="#a1a1a1" stroke="#000" stroke-width="2" d="M215.858,824.672 C215.858,828.607,212.5,831.797,208.358,831.797 C204.216,831.797,200.858,828.607,200.858,824.672 C200.858,820.737,204.216,817.547,208.358,817.547 C212.5,817.547,215.858,820.737,215.858,824.672 Z"/><path fill="#a1a1a1" stroke="#000" stroke-width="2" d="M269.858,824.672 C269.858,828.607,266.5,831.797,262.358,831.797 C258.216,831.797,254.858,828.607,254.858,824.672 C254.858,820.737,258.216,817.547,262.358,817.547 C266.5,817.547,269.858,820.737,269.858,824.672 Z"/><path fill="#a1a1a1" stroke="#000" stroke-width="2" d="M323.858,824.672 C323.858,828.607,320.5,831.797,316.358,831.797 C312.216,831.797,308.858,828.607,308.858,824.672 C308.858,820.737,312.216,817.547,316.358,817.547 C320.5,817.547,323.858,820.737,323.858,824.672 Z"/><path fill="#a1a1a1" stroke="#000" stroke-width="2" d="M377.858,824.672 C377.858,828.607,374.5,831.797,370.358,831.797 C366.216,831.797,362.858,828.607,362.858,824.672 C362.858,820.737,366.216,817.547,370.358,817.547 C374.5,817.547,377.858,820.737,377.858,824.672 Z"/><path fill="#a1a1a1" stroke="#000" stroke-width="2" d="M431.858,824.672 C431.858,828.607,428.5,831.797,424.358,831.797 C420.216,831.797,416.858,828.607,416.858,824.672 C416.858,820.737,420.216,817.547,424.358,817.547 C428.5,817.547,431.858,820.737,431.858,824.672 Z"/><g><g><path fill="none" stroke="#ff0004" stroke-width="3" d="M128.683,815.038 L451.325,815.038"/><path fill="none" stroke="#ff0004" stroke-width="3" d="M140.683,821.038 L128.683,815.038 L140.683,809.038"/></g><g><path fill="none" stroke="#007efd" stroke-width="3" d="M451.325,834.068 L127.483,834.068"/><path fill="none" stroke="#007efd" stroke-width="3" d="M439.325,828.068 L451.325,834.068 L439.325,840.068"/></g></g><g><path fill="none" stroke="#000" stroke-width="2" d="M557.301,662.672 L883.325,662.672"/><path fill="#a1a1a1" stroke="#000" stroke-width="2" d="M593.858,662.672 C593.858,666.607,590.5,669.797,586.358,669.797 C582.216,669.797,578.858,666.607,578.858,662.672 C578.858,658.737,582.216,655.547,586.358,655.547 C590.5,655.547,593.858,658.737,593.858,662.672 Z"/><path fill="#a1a1a1" stroke="#000" stroke-width="2" d="M647.858,662.672 C647.858,666.607,644.5,669.797,640.358,669.797 C636.216,669.797,632.858,666.607,632.858,662.672 C632.858,658.737,636.216,655.547,640.358,655.547 C644.5,655.547,647.858,658.737,647.858,662.672 Z"/><path fill="#a1a1a1" stroke="#000" stroke-width="2" d="M701.858,662.672 C701.858,666.607,698.5,669.797,694.358,669.797 C690.216,669.797,686.858,666.607,686.858,662.672 C686.858,658.737,690.216,655.547,694.358,655.547 C698.5,655.547,701.858,658.737,701.858,662.672 Z"/><path fill="#a1a1a1" stroke="#000" stroke-width="2" d="M755.858,662.672 C755.858,666.607,752.5,669.797,748.358,669.797 C744.216,669.797,740.858,666.607,740.858,662.672 C740.858,658.737,744.216,655.547,748.358,655.547 C752.5,655.547,755.858,658.737,755.858,662.672 Z"/><path fill="#a1a1a1" stroke="#000" stroke-width="2" d="M809.858,662.672 C809.858,666.607,806.5,669.797,802.358,669.797 C798.216,669.797,794.858,666.607,794.858,662.672 C794.858,658.737,798.216,655.547,802.358,655.547 C806.5,655.547,809.858,658.737,809.858,662.672 Z"/><path fill="#a1a1a1" stroke="#000" stroke-width="2" d="M863.858,662.672 C863.858,666.607,860.5,669.797,856.358,669.797 C852.216,669.797,848.858,666.607,848.858,662.672 C848.858,658.737,852.216,655.547,856.358,655.547 C860.5,655.547,863.858,658.737,863.858,662.672 Z"/><path fill="none" stroke="#000" stroke-width="2" d="M557.301,716.672 L883.325,716.672"/><path fill="#a1a1a1" stroke="#000" stroke-width="2" d="M593.858,716.672 C593.858,720.607,590.5,723.797,586.358,723.797 C582.216,723.797,578.858,720.607,578.858,716.672 C578.858,712.737,582.216,709.547,586.358,709.547 C590.5,709.547,593.858,712.737,593.858,716.672 Z"/><path fill="#a1a1a1" stroke="#000" stroke-width="2" d="M647.858,716.672 C647.858,720.607,644.5,723.797,640.358,723.797 C636.216,723.797,632.858,720.607,632.858,716.672 C632.858,712.737,636.216,709.547,640.358,709.547 C644.5,709.547,647.858,712.737,647.858,716.672 Z"/><path fill="#a1a1a1" stroke="#000" stroke-width="2" d="M701.858,716.672 C701.858,720.607,698.5,723.797,694.358,723.797 C690.216,723.797,686.858,720.607,686.858,716.672 C686.858,712.737,690.216,709.547,694.358,709.547 C698.5,709.547,701.858,712.737,701.858,716.672 Z"/><path fill="#a1a1a1" stroke="#000" stroke-width="2" d="M755.858,716.672 C755.858,720.607,752.5,723.797,748.358,723.797 C744.216,723.797,740.858,720.607,740.858,716.672 C740.858,712.737,744.216,709.547,748.358,709.547 C752.5,709.547,755.858,712.737,755.858,716.672 Z"/><path fill="#a1a1a1" stroke="#000" stroke-width="2" d="M809.858,716.672 C809.858,720.607,806.5,723.797,802.358,723.797 C798.216,723.797,794.858,720.607,794.858,716.672 C794.858,712.737,798.216,709.547,802.358,709.547 C806.5,709.547,809.858,712.737,809.858,716.672 Z"/><path fill="#a1a1a1" stroke="#000" stroke-width="2" d="M863.858,716.672 C863.858,720.607,860.5,723.797,856.358,723.797 C852.216,723.797,848.858,720.607,848.858,716.672 C848.858,712.737,852.216,709.547,856.358,709.547 C860.5,709.547,863.858,712.737,863.858,716.672 Z"/><path fill="none" stroke="#000" stroke-width="2" d="M557.301,770.672 L883.325,770.672"/><path fill="#a1a1a1" stroke="#000" stroke-width="2" d="M593.858,770.672 C593.858,774.607,590.5,777.797,586.358,777.797 C582.216,777.797,578.858,774.607,578.858,770.672 C578.858,766.737,582.216,763.547,586.358,763.547 C590.5,763.547,593.858,766.737,593.858,770.672 Z"/><path fill="#a1a1a1" stroke="#000" stroke-width="2" d="M647.858,770.672 C647.858,774.607,644.5,777.797,640.358,777.797 C636.216,777.797,632.858,774.607,632.858,770.672 C632.858,766.737,636.216,763.547,640.358,763.547 C644.5,763.547,647.858,766.737,647.858,770.672 Z"/><path fill="#a1a1a1" stroke="#000" stroke-width="2" d="M701.858,770.672 C701.858,774.607,698.5,777.797,694.358,777.797 C690.216,777.797,686.858,774.607,686.858,770.672 C686.858,766.737,690.216,763.547,694.358,763.547 C698.5,763.547,701.858,766.737,701.858,770.672 Z"/><path fill="#a1a1a1" stroke="#000" stroke-width="2" d="M755.858,770.672 C755.858,774.607,752.5,777.797,748.358,777.797 C744.216,777.797,740.858,774.607,740.858,770.672 C740.858,766.737,744.216,763.547,748.358,763.547 C752.5,763.547,755.858,766.737,755.858,770.672 Z"/><path fill="#a1a1a1" stroke="#000" stroke-width="2" d="M809.858,770.672 C809.858,774.607,806.5,777.797,802.358,777.797 C798.216,777.797,794.858,774.607,794.858,770.672 C794.858,766.737,798.216,763.547,802.358,763.547 C806.5,763.547,809.858,766.737,809.858,770.672 Z"/><path fill="#a1a1a1" stroke="#000" stroke-width="2" d="M863.858,770.672 C863.858,774.607,860.5,777.797,856.358,777.797 C852.216,777.797,848.858,774.607,848.858,770.672 C848.858,766.737,852.216,763.547,856.358,763.547 C860.5,763.547,863.858,766.737,863.858,770.672 Z"/></g><g><path fill="none" stroke="#ff0004" stroke-width="3" d="M560.683,653.038 L883.325,653.038"/><path fill="none" stroke="#ff0004" stroke-width="3" d="M572.683,659.038 L560.683,653.038 L572.683,647.038"/></g><path fill="none" stroke="#000" stroke-width="2" d="M557.301,824.672 L883.325,824.672"/><path fill="#a1a1a1" stroke="#000" stroke-width="2" d="M593.858,824.672 C593.858,828.607,590.5,831.797,586.358,831.797 C582.216,831.797,578.858,828.607,578.858,824.672 C578.858,820.737,582.216,817.547,586.358,817.547 C590.5,817.547,593.858,820.737,593.858,824.672 Z"/><path fill="#a1a1a1" stroke="#000" stroke-width="2" d="M647.858,824.672 C647.858,828.607,644.5,831.797,640.358,831.797 C636.216,831.797,632.858,828.607,632.858,824.672 C632.858,820.737,636.216,817.547,640.358,817.547 C644.5,817.547,647.858,820.737,647.858,824.672 Z"/><path fill="#a1a1a1" stroke="#000" stroke-width="2" d="M701.858,824.672 C701.858,828.607,698.5,831.797,694.358,831.797 C690.216,831.797,686.858,828.607,686.858,824.672 C686.858,820.737,690.216,817.547,694.358,817.547 C698.5,817.547,701.858,820.737,701.858,824.672 Z"/><path fill="#a1a1a1" stroke="#000" stroke-width="2" d="M755.858,824.672 C755.858,828.607,752.5,831.797,748.358,831.797 C744.216,831.797,740.858,828.607,740.858,824.672 C740.858,820.737,744.216,817.547,748.358,817.547 C752.5,817.547,755.858,820.737,755.858,824.672 Z"/><path fill="#a1a1a1" stroke="#000" stroke-width="2" d="M809.858,824.672 C809.858,828.607,806.5,831.797,802.358,831.797 C798.216,831.797,794.858,828.607,794.858,824.672 C794.858,820.737,798.216,817.547,802.358,817.547 C806.5,817.547,809.858,820.737,809.858,824.672 Z"/><path fill="#a1a1a1" stroke="#000" stroke-width="2" d="M863.858,824.672 C863.858,828.607,860.5,831.797,856.358,831.797 C852.216,831.797,848.858,828.607,848.858,824.672 C848.858,820.737,852.216,817.547,856.358,817.547 C860.5,817.547,863.858,820.737,863.858,824.672 Z"/><g><path fill="none" stroke="#007efd" stroke-width="3" d="M883.325,834.068 L559.483,834.068"/><path fill="none" stroke="#007efd" stroke-width="3" d="M871.325,828.068 L883.325,834.068 L871.325,840.068"/></g><text font-family="American Typewriter" font-size="30" text-anchor="middle" transform="matrix(0.6,0,0,0.6,289.049,861.199)" xml:space="preserve"><tspan>stack of uncoupled chains</tspan></text><g><g><path fill="none" stroke="#000" stroke-width="2" d="M532.826,879.607 L662.426,880.46"/><path fill="none" stroke="#000" stroke-width="2" d="M652.459,875.394 L662.426,880.46 L652.393,885.394"/></g><g><path fill="none" stroke="#000" stroke-width="2" d="M532.826,879.465 L532.826,748.275"/><path fill="none" stroke="#000" stroke-width="2" d="M527.826,758.275 L532.826,748.275 L537.826,758.275"/></g><g clip-path="url(#7fc874364c00)"><clipPath id="7fc874364c00"><path fill="#000" fill-opacity="0.35" d="M668.542,885.761 L679.949,885.761 L679.949,875.568 L668.542,875.568 Z"/></clipPath><g clip-path="url(#7fc874194570)"><clipPath id="7fc874194570"><path fill="#000" fill-opacity="0.35" d="M668.542,885.761 L679.942,885.761 L679.942,875.561 L668.542,875.561 Z"/></clipPath><path fill="#000" d="M675.204,878.891 C675.332,878.332,675.827,876.351,677.329,876.351 C677.441,876.351,677.952,876.351,678.416,876.639 C677.808,876.735,677.377,877.278,677.377,877.789 C677.377,878.141,677.617,878.556,678.192,878.556 C678.671,878.556,679.358,878.157,679.358,877.294 C679.358,876.175,678.08,875.872,677.361,875.872 C676.099,875.872,675.348,877.022,675.092,877.518 C674.549,876.096,673.383,875.872,672.76,875.872 C670.523,875.872,669.293,878.652,669.293,879.195 C669.293,879.419,669.517,879.419,669.549,879.419 C669.724,879.419,669.788,879.371,669.836,879.179 C670.571,876.894,671.993,876.351,672.728,876.351 C673.127,876.351,673.878,876.543,673.878,877.789 C673.878,878.46,673.511,879.914,672.728,882.918 C672.376,884.26,671.626,885.17,670.667,885.17 C670.539,885.17,670.044,885.17,669.597,884.883 C670.14,884.771,670.603,884.323,670.603,883.716 C670.603,883.141,670.14,882.965,669.82,882.965 C669.165,882.965,668.622,883.525,668.622,884.212 C668.622,885.202,669.708,885.634,670.651,885.634 C672.073,885.634,672.856,884.132,672.92,884.004 C673.175,884.803,673.942,885.634,675.236,885.634 C677.457,885.634,678.687,882.854,678.687,882.326 C678.687,882.103,678.495,882.103,678.432,882.103 C678.24,882.103,678.192,882.199,678.16,882.342 C677.441,884.643,675.971,885.17,675.284,885.17 C674.453,885.17,674.102,884.483,674.102,883.748 C674.102,883.269,674.23,882.79,674.469,881.847 L675.204,878.891"/></g></g><g clip-path="url(#7fc875143d60)"><clipPath id="7fc875143d60"><path fill="#000" fill-opacity="0.35" d="M527.428,741.132 L538.228,741.132 L538.228,726.737 L527.428,726.737 Z"/></clipPath><g clip-path="url(#7fc874362ce0)"><clipPath id="7fc874362ce0"><path fill="#000" fill-opacity="0.35" d="M528.028,741.132 L538.228,741.132 L538.228,726.732 L528.028,726.732 Z"/></clipPath><path fill="#000" d="M537.909,728.366 C537.989,728.063,537.989,728.015,537.989,727.871 C537.989,727.472,537.685,727.28,537.365,727.28 C537.142,727.28,536.806,727.408,536.615,727.743 C536.567,727.839,536.391,728.51,536.311,728.894 C536.151,729.453,536.007,730.044,535.88,730.619 L534.905,734.501 C534.825,734.821,533.899,736.339,532.477,736.339 C531.374,736.339,531.135,735.38,531.135,734.581 C531.135,733.591,531.502,732.265,532.237,730.364 C532.572,729.485,532.668,729.245,532.668,728.814 C532.668,727.839,531.981,727.04,530.895,727.04 C528.85,727.04,528.051,730.172,528.051,730.364 C528.051,730.587,528.275,730.587,528.307,730.587 C528.53,730.587,528.546,730.539,528.658,730.188 C529.233,728.175,530.096,727.52,530.831,727.52 C531.007,727.52,531.374,727.52,531.374,728.207 C531.374,728.75,531.151,729.309,531.007,729.724 C530.144,732.009,529.761,733.223,529.761,734.246 C529.761,736.163,531.119,736.802,532.381,736.802 C533.228,736.802,533.962,736.435,534.554,735.843 C534.282,736.962,534.026,738.016,533.164,739.151 C532.604,739.885,531.79,740.509,530.783,740.509 C530.496,740.509,529.521,740.445,529.154,739.614 C529.505,739.614,529.777,739.614,530.08,739.342 C530.288,739.151,530.512,738.879,530.512,738.464 C530.512,737.793,529.936,737.713,529.713,737.713 C529.217,737.713,528.498,738.064,528.498,739.119 C528.498,740.189,529.457,740.988,530.783,740.988 C533.004,740.988,535.225,739.023,535.832,736.594 L537.909,728.366"/></g></g></g><g><path fill="none" stroke="#ff0004" stroke-width="3" d="M648.673,740.874 C648.673,730.27,657.269,721.674,667.873,721.674 C678.477,721.674,687.073,730.27,687.073,740.874 C687.073,741.3,687.059,741.726,687.031,742.151"/><path fill="none" stroke="#ff0004" stroke-width="3" d="M657.195,733.12 C653.452,734.412,650.425,737.367,648.673,740.874 C646.433,736.349,646.149,731.01,647.415,726.166"/></g><g><path fill="none" stroke="#007efd" stroke-width="3" d="M687.288,743.669 C687.288,754.273,678.692,762.869,668.088,762.869 C657.484,762.869,648.888,754.273,648.888,743.669 C648.888,743.243,648.902,742.817,648.931,742.392"/><path fill="none" stroke="#007efd" stroke-width="3" d="M678.766,751.423 C682.509,750.131,685.536,747.176,687.288,743.669 C689.528,748.195,689.812,753.533,688.546,758.377"/></g></g></svg>
