<?xml version="1.0" encoding="UTF-8" standalone="no"?>
<!DOCTYPE svg PUBLIC "-//W3C//DTD SVG 1.1//EN" "http://www.w3.org/Graphics/SVG/1.1/DTD/svg11.dtd">
<!--Generated by Intaglio, www.PurgatoryDesign.com-->
<svg version="1.1" viewBox="37,84,1323,1826" width="1323" height="1826" xmlns="http://www.w3.org/2000/svg" xmlns:xlink="http://www.w3.org/1999/xlink"><g><g><path fill="#fff" fill-opacity="0.01" stroke="#000" stroke-width="2" stroke-dasharray="2" d="M1009.16,746.247 C1009.16,748.677,998.78,750.647,985.982,750.647 C973.183,750.647,962.808,748.677,962.808,746.247 C962.808,743.817,973.183,741.847,985.982,741.847 C998.78,741.847,1009.16,743.817,1009.16,746.247 Z"/><path fill="none" stroke="#000" stroke-width="2" stroke-dasharray="2" d="M962.808,746.602 L985.982,718.158"/><path fill="none" stroke="#000" stroke-width="2" stroke-dasharray="2" d="M985.982,718.158 L1009.16,746.602"/></g><path fill="none" stroke="#000" stroke-width="2" d="M962.845,687.736 L986.018,716.18 L1009.19,687.736"/><path fill="none" stroke="#000" stroke-width="2" d="M1009.19,687.736 C1009.19,690.166,998.817,692.136,986.018,692.136 C973.22,692.136,962.845,690.166,962.845,687.736 C962.845,685.306,973.22,683.336,986.018,683.336 C998.817,683.336,1009.19,685.306,1009.19,687.736 Z"/></g><g><g clip-path="url(#7fc8751114d0)"><clipPath id="7fc8751114d0"><path fill="#000" fill-opacity="0.35" d="M574.845,1627.18 L592.845,1627.18 L592.845,1610.19 L574.845,1610.19 Z"/></clipPath><g clip-path="url(#7fc875182f40)"><clipPath id="7fc875182f40"><path fill="#000" fill-opacity="0.35" d="M574.845,1627.18 L592.845,1627.18 L592.845,1610.18 L574.845,1610.18 Z"/></clipPath><path fill="#000" d="M590.821,1621.03 C590.875,1620.89,590.954,1620.73,590.954,1620.68 C590.954,1620.65,590.954,1620.41,590.662,1620.41 C590.449,1620.41,590.395,1620.57,590.342,1620.71 C588.798,1624.25,587.919,1625.85,583.845,1625.85 L580.357,1625.85 C580.037,1625.85,579.984,1625.85,579.824,1625.82 C579.585,1625.79,579.531,1625.77,579.531,1625.58 C579.531,1625.5,579.531,1625.45,579.638,1625.02 L581.262,1618.52 L583.632,1618.52 C585.656,1618.52,585.656,1619.03,585.656,1619.61 C585.656,1619.77,585.656,1620.07,585.496,1620.79 C585.443,1620.89,585.416,1620.97,585.416,1621.05 C585.416,1621.16,585.496,1621.32,585.736,1621.32 C585.922,1621.32,585.975,1621.19,586.082,1620.84 L587.44,1615.25 C587.44,1615.11,587.333,1614.98,587.147,1614.98 C586.934,1614.98,586.88,1615.14,586.827,1615.41 C586.321,1617.22,585.895,1617.78,583.685,1617.78 L581.448,1617.78 L582.886,1612.03 C583.099,1611.2,583.126,1611.09,584.164,1611.09 L587.546,1611.09 C590.449,1611.09,591.167,1611.79,591.167,1613.76 C591.167,1614.32,591.167,1614.37,591.061,1615.01 C591.061,1615.17,591.034,1615.33,591.034,1615.43 C591.034,1615.57,591.114,1615.73,591.327,1615.73 C591.594,1615.73,591.62,1615.59,591.673,1615.14 L592.126,1611.01 C592.206,1610.37,592.099,1610.37,591.487,1610.37 L579.451,1610.37 C578.972,1610.37,578.732,1610.37,578.732,1610.83 C578.732,1611.09,578.945,1611.09,579.398,1611.09 C580.277,1611.09,580.943,1611.09,580.943,1611.52 C580.943,1611.63,580.943,1611.68,580.836,1612.11 L577.694,1624.73 C577.454,1625.66,577.401,1625.85,575.511,1625.85 C575.111,1625.85,574.845,1625.85,574.845,1626.3 C574.845,1626.56,575.058,1626.56,575.511,1626.56 L587.892,1626.56 C588.451,1626.56,588.478,1626.56,588.638,1626.16 L590.821,1621.03"/></g></g><g><path fill="none" stroke="#007efd" stroke-width="3" d="M613.924,1903.52 L505.924,1793.32"/><path fill="none" stroke="#ff0004" stroke-width="3" d="M505.924,1903.52 L613.924,1793.32"/></g><g><path fill="none" stroke="#000" stroke-width="2" d="M462.471,1693.85 L667.471,1693.99"/><path fill="none" stroke="#000" stroke-width="2" d="M657.474,1688.98 L667.471,1693.99 L657.468,1698.98"/></g><g><path fill="none" stroke="#000" stroke-width="2" d="M560.2,1764.49 L560.2,1622.47"/><path fill="none" stroke="#000" stroke-width="2" d="M555.2,1632.47 L560.2,1622.47 L565.2,1632.47"/></g><path fill="none" stroke="#007efd" stroke-width="3" d="M471.977,1721.49 L582.535,1642.4"/><path fill="none" stroke="#ff0004" stroke-width="3" stroke-dasharray="5" d="M575.36,1744.15 L471.977,1666.39"/><path fill="none" stroke="#ff0004" stroke-width="3" d="M641.483,1722.57 L538.754,1642.4"/><path fill="none" stroke="#007efd" stroke-width="3" stroke-dasharray="5" d="M543.254,1744.15 L641.483,1667.47"/><text font-family="American Typewriter" font-size="24" transform="matrix(1,0,0,1,695.778,1825.23)" xml:space="preserve"><tspan>gap closing at</tspan><tspan x="0" y="28">time-reversal</tspan><tspan x="0" y="56">invariant momentum</tspan></text><text font-family="American Typewriter" font-size="24" transform="matrix(1,0,0,1,695.598,1682.71)" xml:space="preserve"><tspan>gap closing</tspan><tspan x="0" y="28">at finite momentum</tspan></text><g clip-path="url(#7fc87512dbd0)"><clipPath id="7fc87512dbd0"><path fill="#000" fill-opacity="0.35" d="M653.097,1882.23 L674.106,1882.23 L674.106,1857.22 L653.097,1857.22 Z"/></clipPath><g clip-path="url(#7fc87515bea0)"><clipPath id="7fc87515bea0"><path fill="#000" fill-opacity="0.35" d="M653.097,1882.23 L674.097,1882.23 L674.097,1857.23 L653.097,1857.23 Z"/></clipPath><path fill="#000" d="M659.035,1858.34 C659.035,1858.31,659.035,1858.07,658.742,1858.07 C658.183,1858.07,656.452,1858.26,655.813,1858.31 C655.627,1858.34,655.361,1858.37,655.361,1858.79 C655.361,1859.09,655.574,1859.09,655.947,1859.09 C657.092,1859.09,657.145,1859.25,657.145,1859.49 L657.065,1859.96 L653.603,1873.7 C653.497,1874.02,653.497,1874.08,653.497,1874.21 C653.497,1874.77,653.976,1874.88,654.189,1874.88 C654.509,1874.88,654.881,1874.66,655.015,1874.4 C655.121,1874.18,656.213,1869.76,656.346,1869.18 C657.145,1869.23,659.115,1869.63,659.115,1871.2 C659.115,1871.36,659.115,1871.44,659.035,1871.68 C658.982,1871.97,658.955,1872.27,658.955,1872.53 C658.955,1873.94,659.887,1874.88,661.139,1874.88 C661.858,1874.88,662.497,1874.5,663.029,1873.62 C663.615,1872.59,663.882,1871.25,663.882,1871.23 C663.882,1870.99,663.669,1870.99,663.589,1870.99 C663.349,1870.99,663.322,1871.07,663.269,1871.41 C662.79,1873.15,662.231,1874.37,661.192,1874.37 C660.739,1874.37,660.42,1874.1,660.42,1873.25 C660.42,1872.83,660.526,1872.29,660.606,1871.92 C660.713,1871.49,660.713,1871.41,660.713,1871.17 C660.713,1869.63,659.195,1868.94,657.171,1868.67 C657.917,1868.25,658.689,1867.47,659.222,1866.89 C660.367,1865.64,661.485,1864.62,662.63,1864.62 C662.79,1864.62,662.816,1864.62,662.843,1864.62 C663.136,1864.68,663.163,1864.68,663.349,1864.84 C663.402,1864.84,663.402,1864.86,663.455,1864.92 C662.311,1865,662.097,1865.93,662.097,1866.2 C662.097,1866.59,662.364,1867.05,663.003,1867.05 C663.615,1867.05,664.308,1866.51,664.308,1865.58 C664.308,1864.86,663.775,1864.09,662.683,1864.09 C662.018,1864.09,660.926,1864.28,659.222,1866.2 C658.396,1867.1,657.464,1868.03,656.559,1868.41 L659.035,1858.34"/><path fill="#000" d="M673.947,1871.89 C674,1871.65,674,1871.63,674,1871.52 C674,1871.17,673.734,1870.99,673.467,1870.99 C673.281,1870.99,672.961,1871.07,672.775,1871.39 C672.722,1871.49,672.589,1872.03,672.509,1872.35 L672.136,1873.76 C672.056,1874.16,671.524,1876.29,671.47,1876.45 C671.444,1876.45,670.725,1877.91,669.393,1877.91 C668.248,1877.91,668.248,1876.82,668.248,1876.53 C668.248,1875.62,668.648,1874.56,669.154,1873.25 C669.367,1872.72,669.447,1872.53,669.447,1872.24 C669.447,1871.44,668.754,1870.8,667.849,1870.8 C666.145,1870.8,665.399,1873.09,665.399,1873.38 C665.399,1873.6,665.612,1873.6,665.666,1873.6 C665.905,1873.6,665.932,1873.52,665.985,1873.33 C666.385,1871.95,667.13,1871.28,667.796,1871.28 C668.089,1871.28,668.222,1871.47,668.222,1871.87 C668.222,1872.27,668.062,1872.61,667.982,1872.85 C667.183,1874.9,666.997,1875.51,666.997,1876.26 C666.997,1876.55,666.997,1877.33,667.663,1877.86 C668.169,1878.31,668.888,1878.39,669.34,1878.39 C670.006,1878.39,670.618,1878.15,671.177,1877.65 C670.964,1878.55,670.778,1879.27,670.059,1880.09 C669.606,1880.63,668.941,1881.19,668.035,1881.19 C667.929,1881.19,667.13,1881.19,666.784,1880.63 C667.689,1880.52,667.689,1879.72,667.689,1879.7 C667.689,1879.16,667.21,1879.06,667.05,1879.06 C666.624,1879.06,666.065,1879.4,666.065,1880.17 C666.065,1881.03,666.864,1881.64,668.062,1881.64 C669.766,1881.64,671.816,1880.33,672.349,1878.23 L673.947,1871.89"/></g></g><g clip-path="url(#7fc8743184c0)"><clipPath id="7fc8743184c0"><path fill="#000" fill-opacity="0.35" d="M650.594,1730.66 L671.603,1730.66 L671.603,1705.66 L650.594,1705.66 Z"/></clipPath><g clip-path="url(#7fc87510e470)"><clipPath id="7fc87510e470"><path fill="#000" fill-opacity="0.35" d="M650.594,1730.66 L671.594,1730.66 L671.594,1705.66 L650.594,1705.66 Z"/></clipPath><path fill="#000" d="M656.532,1706.77 C656.532,1706.75,656.532,1706.51,656.239,1706.51 C655.68,1706.51,653.949,1706.7,653.31,1706.75 C653.124,1706.77,652.858,1706.8,652.858,1707.23 C652.858,1707.52,653.071,1707.52,653.443,1707.52 C654.588,1707.52,654.642,1707.68,654.642,1707.92 L654.562,1708.4 L651.1,1722.14 C650.994,1722.46,650.994,1722.51,650.994,1722.64 C650.994,1723.2,651.473,1723.31,651.686,1723.31 C652.006,1723.31,652.378,1723.1,652.511,1722.83 C652.618,1722.62,653.71,1718.2,653.843,1717.61 C654.642,1717.67,656.612,1718.06,656.612,1719.64 C656.612,1719.8,656.612,1719.88,656.532,1720.12 C656.479,1720.41,656.452,1720.7,656.452,1720.97 C656.452,1722.38,657.384,1723.31,658.636,1723.31 C659.355,1723.31,659.994,1722.94,660.526,1722.06 C661.112,1721.02,661.378,1719.69,661.378,1719.66 C661.378,1719.42,661.165,1719.42,661.085,1719.42 C660.846,1719.42,660.819,1719.5,660.766,1719.85 C660.287,1721.58,659.727,1722.8,658.689,1722.8 C658.236,1722.8,657.917,1722.54,657.917,1721.69 C657.917,1721.26,658.023,1720.73,658.103,1720.35 C658.21,1719.93,658.21,1719.85,658.21,1719.61 C658.21,1718.06,656.692,1717.37,654.668,1717.11 C655.414,1716.68,656.186,1715.91,656.719,1715.32 C657.864,1714.07,658.982,1713.06,660.127,1713.06 C660.287,1713.06,660.313,1713.06,660.34,1713.06 C660.633,1713.11,660.659,1713.11,660.846,1713.27 C660.899,1713.27,660.899,1713.3,660.952,1713.35 C659.807,1713.43,659.594,1714.36,659.594,1714.63 C659.594,1715.03,659.861,1715.48,660.5,1715.48 C661.112,1715.48,661.804,1714.95,661.804,1714.02 C661.804,1713.3,661.272,1712.53,660.18,1712.53 C659.514,1712.53,658.423,1712.71,656.719,1714.63 C655.893,1715.54,654.961,1716.47,654.056,1716.84 L656.532,1706.77"/><path fill="#000" d="M671.444,1720.33 C671.497,1720.09,671.497,1720.06,671.497,1719.96 C671.497,1719.61,671.231,1719.42,670.964,1719.42 C670.778,1719.42,670.458,1719.5,670.272,1719.82 C670.219,1719.93,670.086,1720.46,670.006,1720.78 L669.633,1722.19 C669.553,1722.59,669.02,1724.72,668.967,1724.88 C668.941,1724.88,668.222,1726.35,666.89,1726.35 C665.745,1726.35,665.745,1725.25,665.745,1724.96 C665.745,1724.06,666.145,1722.99,666.651,1721.69 C666.864,1721.15,666.944,1720.97,666.944,1720.67 C666.944,1719.88,666.251,1719.24,665.346,1719.24 C663.642,1719.24,662.896,1721.53,662.896,1721.82 C662.896,1722.03,663.109,1722.03,663.162,1722.03 C663.402,1722.03,663.429,1721.95,663.482,1721.77 C663.881,1720.38,664.627,1719.72,665.293,1719.72 C665.586,1719.72,665.719,1719.9,665.719,1720.3 C665.719,1720.7,665.559,1721.05,665.479,1721.29 C664.68,1723.34,664.494,1723.95,664.494,1724.7 C664.494,1724.99,664.494,1725.76,665.159,1726.29 C665.665,1726.75,666.384,1726.83,666.837,1726.83 C667.503,1726.83,668.115,1726.59,668.674,1726.08 C668.461,1726.99,668.275,1727.7,667.556,1728.53 C667.103,1729.06,666.438,1729.62,665.532,1729.62 C665.426,1729.62,664.627,1729.62,664.281,1729.06 C665.186,1728.96,665.186,1728.16,665.186,1728.13 C665.186,1727.6,664.707,1727.49,664.547,1727.49 C664.121,1727.49,663.562,1727.84,663.562,1728.61 C663.562,1729.46,664.361,1730.07,665.559,1730.07 C667.263,1730.07,669.313,1728.77,669.846,1726.67 L671.444,1720.33"/></g></g><g><g><path fill="none" stroke="#000" stroke-width="2" d="M484.971,1848.18 L665.748,1848.3"/><path fill="none" stroke="#000" stroke-width="2" d="M655.752,1843.3 L665.748,1848.3 L655.745,1853.3"/></g><g><path fill="none" stroke="#000" stroke-width="2" d="M559.7,1909.09 L559.7,1776.79"/><path fill="none" stroke="#000" stroke-width="2" d="M554.7,1786.79 L559.7,1776.79 L564.7,1786.79"/></g></g><text font-family="American Typewriter" font-size="24" transform="matrix(1,0,0,1,461.439,1588.98)" xml:space="preserve"><tspan>edge dispersion</tspan></text><g clip-path="url(#7fc8751eb790)"><clipPath id="7fc8751eb790"><path fill="#000" fill-opacity="0.35" d="M573.564,1781.47 L591.564,1781.47 L591.564,1764.48 L573.564,1764.48 Z"/></clipPath><g clip-path="url(#7fc8751b3320)"><clipPath id="7fc8751b3320"><path fill="#000" fill-opacity="0.35" d="M573.564,1781.47 L591.564,1781.47 L591.564,1764.47 L573.564,1764.47 Z"/></clipPath><path fill="#000" d="M589.54,1775.32 C589.593,1775.18,589.673,1775.02,589.673,1774.97 C589.673,1774.94,589.673,1774.7,589.38,1774.7 C589.167,1774.7,589.114,1774.86,589.061,1775 C587.516,1778.54,586.638,1780.14,582.564,1780.14 L579.075,1780.14 C578.756,1780.14,578.703,1780.14,578.543,1780.11 C578.303,1780.08,578.25,1780.06,578.25,1779.87 C578.25,1779.79,578.25,1779.74,578.357,1779.31 L579.981,1772.81 L582.351,1772.81 C584.374,1772.81,584.374,1773.32,584.374,1773.91 C584.374,1774.07,584.374,1774.36,584.215,1775.08 C584.161,1775.18,584.135,1775.26,584.135,1775.34 C584.135,1775.45,584.215,1775.61,584.454,1775.61 C584.641,1775.61,584.694,1775.48,584.8,1775.13 L586.158,1769.54 C586.158,1769.41,586.052,1769.27,585.865,1769.27 C585.652,1769.27,585.599,1769.43,585.546,1769.7 C585.04,1771.51,584.614,1772.07,582.404,1772.07 L580.167,1772.07 L581.605,1766.32 C581.818,1765.49,581.845,1765.39,582.883,1765.39 L586.265,1765.39 C589.167,1765.39,589.886,1766.08,589.886,1768.05 C589.886,1768.61,589.886,1768.66,589.78,1769.3 C589.78,1769.46,589.753,1769.62,589.753,1769.73 C589.753,1769.86,589.833,1770.02,590.046,1770.02 C590.312,1770.02,590.339,1769.89,590.392,1769.43 L590.845,1765.31 C590.925,1764.67,590.818,1764.67,590.206,1764.67 L578.17,1764.67 C577.691,1764.67,577.451,1764.67,577.451,1765.12 C577.451,1765.39,577.664,1765.39,578.117,1765.39 C578.996,1765.39,579.661,1765.39,579.661,1765.81 C579.661,1765.92,579.661,1765.97,579.555,1766.4 L576.413,1779.02 C576.173,1779.95,576.12,1780.14,574.229,1780.14 C573.83,1780.14,573.564,1780.14,573.564,1780.59 C573.564,1780.86,573.777,1780.86,574.229,1780.86 L586.611,1780.86 C587.17,1780.86,587.197,1780.86,587.357,1780.46 L589.54,1775.32"/></g></g></g><g><g><g><path fill="none" stroke="#007efd" stroke-width="3" d="M1024.36,1454.95 L916.357,1344.75"/><path fill="none" stroke="#ff0004" stroke-width="3" d="M916.357,1454.95 L1024.36,1344.75"/></g><text font-family="American Typewriter" font-size="24" transform="matrix(1,0,0,1,1106.21,1376.66)" xml:space="preserve"><tspan>gap closing at</tspan><tspan x="0" y="28">time-reversal</tspan><tspan x="0" y="56">invariant momentum</tspan></text><g clip-path="url(#7fc87519a6b0)"><clipPath id="7fc87519a6b0"><path fill="#000" fill-opacity="0.35" d="M1063.53,1433.66 L1084.54,1433.66 L1084.54,1408.65 L1063.53,1408.65 Z"/></clipPath><g clip-path="url(#7fc8751120e0)"><clipPath id="7fc8751120e0"><path fill="#000" fill-opacity="0.35" d="M1063.53,1433.66 L1084.53,1433.66 L1084.53,1408.66 L1063.53,1408.66 Z"/></clipPath><path fill="#000" d="M1069.47,1409.77 C1069.47,1409.75,1069.47,1409.51,1069.18,1409.51 C1068.62,1409.51,1066.89,1409.69,1066.25,1409.75 C1066.06,1409.77,1065.79,1409.8,1065.79,1410.23 C1065.79,1410.52,1066.01,1410.52,1066.38,1410.52 C1067.52,1410.52,1067.58,1410.68,1067.58,1410.92 L1067.5,1411.4 L1064.04,1425.14 C1063.93,1425.46,1063.93,1425.51,1063.93,1425.64 C1063.93,1426.2,1064.41,1426.31,1064.62,1426.31 C1064.94,1426.31,1065.31,1426.1,1065.45,1425.83 C1065.55,1425.62,1066.65,1421.2,1066.78,1420.61 C1067.58,1420.66,1069.55,1421.06,1069.55,1422.63 C1069.55,1422.79,1069.55,1422.87,1069.47,1423.11 C1069.42,1423.41,1069.39,1423.7,1069.39,1423.97 C1069.39,1425.38,1070.32,1426.31,1071.57,1426.31 C1072.29,1426.31,1072.93,1425.94,1073.46,1425.06 C1074.05,1424.02,1074.31,1422.69,1074.31,1422.66 C1074.31,1422.42,1074.1,1422.42,1074.02,1422.42 C1073.78,1422.42,1073.76,1422.5,1073.7,1422.85 C1073.22,1424.58,1072.66,1425.8,1071.63,1425.8 C1071.17,1425.8,1070.85,1425.54,1070.85,1424.68 C1070.85,1424.26,1070.96,1423.73,1071.04,1423.35 C1071.15,1422.93,1071.15,1422.85,1071.15,1422.61 C1071.15,1421.06,1069.63,1420.37,1067.6,1420.1 C1068.35,1419.68,1069.12,1418.91,1069.65,1418.32 C1070.8,1417.07,1071.92,1416.06,1073.06,1416.06 C1073.22,1416.06,1073.25,1416.06,1073.28,1416.06 C1073.57,1416.11,1073.6,1416.11,1073.78,1416.27 C1073.84,1416.27,1073.84,1416.3,1073.89,1416.35 C1072.74,1416.43,1072.53,1417.36,1072.53,1417.63 C1072.53,1418.03,1072.8,1418.48,1073.44,1418.48 C1074.05,1418.48,1074.74,1417.95,1074.74,1417.02 C1074.74,1416.3,1074.21,1415.52,1073.12,1415.52 C1072.45,1415.52,1071.36,1415.71,1069.65,1417.63 C1068.83,1418.53,1067.9,1419.47,1066.99,1419.84 L1069.47,1409.77"/><path fill="#000" d="M1084.38,1423.33 C1084.43,1423.09,1084.43,1423.06,1084.43,1422.95 C1084.43,1422.61,1084.17,1422.42,1083.9,1422.42 C1083.71,1422.42,1083.39,1422.5,1083.21,1422.82 C1083.15,1422.93,1083.02,1423.46,1082.94,1423.78 L1082.57,1425.19 C1082.49,1425.59,1081.96,1427.72,1081.9,1427.88 C1081.88,1427.88,1081.16,1429.34,1079.83,1429.34 C1078.68,1429.34,1078.68,1428.25,1078.68,1427.96 C1078.68,1427.05,1079.08,1425.99,1079.59,1424.68 C1079.8,1424.15,1079.88,1423.97,1079.88,1423.67 C1079.88,1422.87,1079.19,1422.23,1078.28,1422.23 C1076.58,1422.23,1075.83,1424.52,1075.83,1424.82 C1075.83,1425.03,1076.05,1425.03,1076.1,1425.03 C1076.34,1425.03,1076.36,1424.95,1076.42,1424.76 C1076.82,1423.38,1077.56,1422.71,1078.23,1422.71 C1078.52,1422.71,1078.65,1422.9,1078.65,1423.3 C1078.65,1423.7,1078.5,1424.05,1078.42,1424.28 C1077.62,1426.34,1077.43,1426.95,1077.43,1427.69 C1077.43,1427.99,1077.43,1428.76,1078.1,1429.29 C1078.6,1429.74,1079.32,1429.82,1079.77,1429.82 C1080.44,1429.82,1081.05,1429.58,1081.61,1429.08 C1081.4,1429.98,1081.21,1430.7,1080.49,1431.53 C1080.04,1432.06,1079.37,1432.62,1078.47,1432.62 C1078.36,1432.62,1077.56,1432.62,1077.22,1432.06 C1078.12,1431.95,1078.12,1431.15,1078.12,1431.13 C1078.12,1430.6,1077.64,1430.49,1077.48,1430.49 C1077.06,1430.49,1076.5,1430.84,1076.5,1431.61 C1076.5,1432.46,1077.3,1433.07,1078.5,1433.07 C1080.2,1433.07,1082.25,1431.77,1082.78,1429.66 L1084.38,1423.33"/></g></g><g><g><path fill="none" stroke="#000" stroke-width="2" d="M895.404,1399.62 L1076.18,1399.74"/><path fill="none" stroke="#000" stroke-width="2" d="M1066.18,1394.73 L1076.18,1399.74 L1066.18,1404.73"/></g><g><path fill="none" stroke="#000" stroke-width="2" d="M970.133,1460.52 L970.133,1328.22"/><path fill="none" stroke="#000" stroke-width="2" d="M965.133,1338.22 L970.133,1328.22 L975.133,1338.22"/></g></g><g clip-path="url(#7fc875065660)"><clipPath id="7fc875065660"><path fill="#000" fill-opacity="0.35" d="M983.997,1332.9 L1002,1332.9 L1002,1315.91 L983.997,1315.91 Z"/></clipPath><g clip-path="url(#7fc8742f39c0)"><clipPath id="7fc8742f39c0"><path fill="#000" fill-opacity="0.35" d="M983.997,1332.9 L1002,1332.9 L1002,1315.9 L983.997,1315.9 Z"/></clipPath><path fill="#000" d="M999.973,1326.75 C1000.03,1326.62,1000.11,1326.46,1000.11,1326.4 C1000.11,1326.38,1000.11,1326.14,999.813,1326.14 C999.6,1326.14,999.547,1326.3,999.494,1326.43 C997.949,1329.97,997.071,1331.57,992.997,1331.57 L989.508,1331.57 C989.189,1331.57,989.136,1331.57,988.976,1331.54 C988.736,1331.52,988.683,1331.49,988.683,1331.3 C988.683,1331.22,988.683,1331.17,988.79,1330.74 L990.414,1324.25 L992.784,1324.25 C994.807,1324.25,994.807,1324.75,994.807,1325.34 C994.807,1325.5,994.807,1325.79,994.648,1326.51 C994.594,1326.62,994.568,1326.7,994.568,1326.78 C994.568,1326.88,994.648,1327.04,994.887,1327.04 C995.074,1327.04,995.127,1326.91,995.233,1326.56 L996.591,1320.97 C996.591,1320.84,996.485,1320.71,996.298,1320.71 C996.085,1320.71,996.032,1320.87,995.979,1321.13 C995.473,1322.94,995.047,1323.5,992.837,1323.5 L990.6,1323.5 L992.038,1317.75 C992.251,1316.92,992.278,1316.82,993.316,1316.82 L996.698,1316.82 C999.6,1316.82,1000.32,1317.51,1000.32,1319.48 C1000.32,1320.04,1000.32,1320.09,1000.21,1320.73 C1000.21,1320.89,1000.19,1321.05,1000.19,1321.16 C1000.19,1321.29,1000.27,1321.45,1000.48,1321.45 C1000.75,1321.45,1000.77,1321.32,1000.83,1320.87 L1001.28,1316.74 C1001.36,1316.1,1001.25,1316.1,1000.64,1316.1 L988.603,1316.1 C988.124,1316.1,987.884,1316.1,987.884,1316.55 C987.884,1316.82,988.097,1316.82,988.55,1316.82 C989.429,1316.82,990.094,1316.82,990.094,1317.24 C990.094,1317.35,990.094,1317.4,989.988,1317.83 L986.846,1330.45 C986.606,1331.38,986.553,1331.57,984.662,1331.57 C984.263,1331.57,983.997,1331.57,983.997,1332.02 C983.997,1332.29,984.21,1332.29,984.662,1332.29 L997.044,1332.29 C997.603,1332.29,997.63,1332.29,997.79,1331.89 L999.973,1326.75"/></g></g></g><g><g clip-path="url(#7fc87502f470)"><clipPath id="7fc87502f470"><path fill="#000" fill-opacity="0.35" d="M489.374,1326.73 L507.374,1326.73 L507.374,1309.74 L489.374,1309.74 Z"/></clipPath><g clip-path="url(#7fc8750d78f0)"><clipPath id="7fc8750d78f0"><path fill="#000" fill-opacity="0.35" d="M489.374,1326.73 L507.374,1326.73 L507.374,1309.73 L489.374,1309.73 Z"/></clipPath><path fill="#000" d="M505.35,1320.58 C505.404,1320.45,505.483,1320.29,505.483,1320.24 C505.483,1320.21,505.483,1319.97,505.191,1319.97 C504.978,1319.97,504.924,1320.13,504.871,1320.26 C503.327,1323.8,502.448,1325.4,498.374,1325.4 L494.886,1325.4 C494.566,1325.4,494.513,1325.4,494.353,1325.37 C494.114,1325.35,494.06,1325.32,494.06,1325.14 C494.06,1325.06,494.06,1325,494.167,1324.58 L495.791,1318.08 L498.161,1318.08 C500.185,1318.08,500.185,1318.58,500.185,1319.17 C500.185,1319.33,500.185,1319.62,500.025,1320.34 C499.972,1320.45,499.945,1320.53,499.945,1320.61 C499.945,1320.71,500.025,1320.87,500.265,1320.87 C500.451,1320.87,500.504,1320.74,500.611,1320.4 L501.969,1314.8 C501.969,1314.67,501.862,1314.54,501.676,1314.54 C501.463,1314.54,501.409,1314.7,501.356,1314.96 C500.85,1316.77,500.424,1317.33,498.214,1317.33 L495.977,1317.33 L497.415,1311.58 C497.628,1310.76,497.655,1310.65,498.693,1310.65 L502.075,1310.65 C504.978,1310.65,505.696,1311.34,505.696,1313.31 C505.696,1313.87,505.696,1313.92,505.59,1314.56 C505.59,1314.72,505.563,1314.88,505.563,1314.99 C505.563,1315.12,505.643,1315.28,505.856,1315.28 C506.123,1315.28,506.149,1315.15,506.202,1314.7 L506.655,1310.57 C506.735,1309.93,506.628,1309.93,506.016,1309.93 L493.98,1309.93 C493.501,1309.93,493.261,1309.93,493.261,1310.38 C493.261,1310.65,493.474,1310.65,493.927,1310.65 C494.806,1310.65,495.472,1310.65,495.472,1311.08 C495.472,1311.18,495.472,1311.24,495.365,1311.66 L492.223,1324.28 C491.983,1325.21,491.93,1325.4,490.04,1325.4 C489.64,1325.4,489.374,1325.4,489.374,1325.85 C489.374,1326.12,489.587,1326.12,490.04,1326.12 L502.421,1326.12 C502.98,1326.12,503.007,1326.12,503.167,1325.72 L505.35,1320.58"/></g></g><g><path fill="none" stroke="#000" stroke-width="2" d="M377,1393.41 L582,1393.54"/><path fill="none" stroke="#000" stroke-width="2" d="M572.003,1388.54 L582,1393.54 L571.997,1398.54"/></g><g><path fill="none" stroke="#000" stroke-width="2" d="M474.729,1464.04 L474.729,1322.03"/><path fill="none" stroke="#000" stroke-width="2" d="M469.729,1332.03 L474.729,1322.03 L479.729,1332.03"/></g><path fill="none" stroke="#007efd" stroke-width="3" d="M386.506,1421.05 L497.064,1341.96"/><path fill="none" stroke="#ff0004" stroke-width="3" stroke-dasharray="5" d="M489.889,1443.7 L386.506,1365.95"/><path fill="none" stroke="#ff0004" stroke-width="3" d="M556.012,1422.13 L453.283,1341.96"/><path fill="none" stroke="#007efd" stroke-width="3" stroke-dasharray="5" d="M457.783,1443.7 L556.012,1367.03"/><text font-family="American Typewriter" font-size="24" transform="matrix(1,0,0,1,610.127,1382.27)" xml:space="preserve"><tspan>gap closing</tspan><tspan x="0" y="28">at finite momentum</tspan></text><g clip-path="url(#7fc8742b2e00)"><clipPath id="7fc8742b2e00"><path fill="#000" fill-opacity="0.35" d="M565.123,1430.22 L586.132,1430.22 L586.132,1405.21 L565.123,1405.21 Z"/></clipPath><g clip-path="url(#7fc87505d8c0)"><clipPath id="7fc87505d8c0"><path fill="#000" fill-opacity="0.35" d="M565.123,1430.22 L586.123,1430.22 L586.123,1405.22 L565.123,1405.22 Z"/></clipPath><path fill="#000" d="M571.061,1406.33 C571.061,1406.3,571.061,1406.06,570.768,1406.06 C570.209,1406.06,568.478,1406.25,567.839,1406.3 C567.653,1406.33,567.387,1406.36,567.387,1406.78 C567.387,1407.08,567.6,1407.08,567.972,1407.08 C569.117,1407.08,569.171,1407.24,569.171,1407.48 L569.091,1407.96 L565.629,1421.69 C565.523,1422.01,565.523,1422.07,565.523,1422.2 C565.523,1422.76,566.002,1422.87,566.215,1422.87 C566.535,1422.87,566.907,1422.65,567.04,1422.39 C567.147,1422.17,568.239,1417.75,568.372,1417.17 C569.171,1417.22,571.141,1417.62,571.141,1419.19 C571.141,1419.35,571.141,1419.43,571.061,1419.67 C571.008,1419.96,570.981,1420.26,570.981,1420.52 C570.981,1421.93,571.913,1422.87,573.165,1422.87 C573.884,1422.87,574.523,1422.49,575.055,1421.62 C575.641,1420.58,575.907,1419.25,575.907,1419.22 C575.907,1418.98,575.694,1418.98,575.614,1418.98 C575.375,1418.98,575.348,1419.06,575.295,1419.4 C574.816,1421.14,574.256,1422.36,573.218,1422.36 C572.765,1422.36,572.446,1422.09,572.446,1421.24 C572.446,1420.82,572.552,1420.28,572.632,1419.91 C572.739,1419.48,572.739,1419.4,572.739,1419.17 C572.739,1417.62,571.221,1416.93,569.197,1416.66 C569.943,1416.24,570.715,1415.46,571.248,1414.88 C572.393,1413.63,573.511,1412.62,574.656,1412.62 C574.816,1412.62,574.842,1412.62,574.869,1412.62 C575.162,1412.67,575.188,1412.67,575.375,1412.83 C575.428,1412.83,575.428,1412.85,575.481,1412.91 C574.336,1412.99,574.123,1413.92,574.123,1414.19 C574.123,1414.59,574.39,1415.04,575.029,1415.04 C575.641,1415.04,576.333,1414.51,576.333,1413.57 C576.333,1412.85,575.801,1412.08,574.709,1412.08 C574.043,1412.08,572.952,1412.27,571.248,1414.19 C570.422,1415.09,569.49,1416.02,568.585,1416.4 L571.061,1406.33"/><path fill="#000" d="M585.973,1419.88 C586.026,1419.64,586.026,1419.62,586.026,1419.51 C586.026,1419.17,585.76,1418.98,585.493,1418.98 C585.307,1418.98,584.987,1419.06,584.801,1419.38 C584.748,1419.48,584.615,1420.02,584.535,1420.34 L584.162,1421.75 C584.082,1422.15,583.549,1424.28,583.496,1424.44 C583.47,1424.44,582.751,1425.9,581.419,1425.9 C580.274,1425.9,580.274,1424.81,580.274,1424.52 C580.274,1423.61,580.674,1422.55,581.18,1421.24 C581.393,1420.71,581.473,1420.52,581.473,1420.23 C581.473,1419.43,580.78,1418.79,579.875,1418.79 C578.171,1418.79,577.425,1421.08,577.425,1421.38 C577.425,1421.59,577.638,1421.59,577.691,1421.59 C577.931,1421.59,577.958,1421.51,578.011,1421.32 C578.41,1419.94,579.156,1419.27,579.822,1419.27 C580.115,1419.27,580.248,1419.46,580.248,1419.86 C580.248,1420.26,580.088,1420.6,580.008,1420.84 C579.209,1422.89,579.023,1423.51,579.023,1424.25 C579.023,1424.54,579.023,1425.32,579.688,1425.85 C580.194,1426.3,580.913,1426.38,581.366,1426.38 C582.032,1426.38,582.644,1426.14,583.203,1425.64 C582.99,1426.54,582.804,1427.26,582.085,1428.09 C581.632,1428.62,580.967,1429.18,580.061,1429.18 C579.955,1429.18,579.156,1429.18,578.81,1428.62 C579.715,1428.51,579.715,1427.71,579.715,1427.69 C579.715,1427.15,579.236,1427.05,579.076,1427.05 C578.65,1427.05,578.091,1427.39,578.091,1428.17 C578.091,1429.02,578.89,1429.63,580.088,1429.63 C581.792,1429.63,583.842,1428.33,584.375,1426.22 L585.973,1419.88"/></g></g></g></g><g><path fill="#bcbcbc" fill-opacity="0.43" d="M295.591,122.647 L779.019,122.647 L779.019,370.647 L295.591,370.647 Z"/><g><path fill="none" stroke="#0d0d0d" stroke-width="3" d="M295.591,255.245 L779.019,255.245"/><path fill="none" stroke="#0d0d0d" stroke-width="3" d="M307.591,261.245 L295.591,255.245 L307.591,249.245"/></g><g><path fill="none" stroke="#0d0d0d" stroke-width="3" d="M779.019,244.659 L295.591,244.659"/><path fill="none" stroke="#0d0d0d" stroke-width="3" d="M767.019,238.659 L779.019,244.659 L767.019,250.659"/></g><g clip-path="url(#7fc875007820)"><clipPath id="7fc875007820"><path fill="#000" fill-opacity="0.35" d="M232.235,368.69 L245.923,368.69 L245.923,356.458 L232.235,356.458 Z"/></clipPath><g clip-path="url(#7fc874764f70)"><clipPath id="7fc874764f70"><path fill="#000" fill-opacity="0.35" d="M232.235,368.69 L245.915,368.69 L245.915,356.45 L232.235,356.45 Z"/></clipPath><path fill="#000" d="M240.229,360.446 C240.383,359.775,240.977,357.397,242.779,357.397 C242.913,357.397,243.527,357.397,244.083,357.743 C243.354,357.858,242.837,358.509,242.837,359.123 C242.837,359.545,243.124,360.043,243.815,360.043 C244.39,360.043,245.214,359.564,245.214,358.529 C245.214,357.187,243.68,356.822,242.818,356.822 C241.303,356.822,240.402,358.203,240.095,358.797 C239.443,357.091,238.044,356.822,237.296,356.822 C234.612,356.822,233.136,360.158,233.136,360.81 C233.136,361.078,233.404,361.078,233.443,361.078 C233.654,361.078,233.73,361.021,233.788,360.791 C234.67,358.049,236.376,357.397,237.258,357.397 C237.737,357.397,238.638,357.628,238.638,359.123 C238.638,359.928,238.197,361.673,237.258,365.277 C236.836,366.887,235.935,367.98,234.785,367.98 C234.631,367.98,234.037,367.98,233.5,367.635 C234.152,367.501,234.708,366.964,234.708,366.236 C234.708,365.545,234.152,365.335,233.769,365.335 C232.983,365.335,232.331,366.006,232.331,366.83 C232.331,368.019,233.634,368.536,234.765,368.536 C236.472,368.536,237.411,366.734,237.488,366.581 C237.795,367.539,238.715,368.536,240.268,368.536 C242.933,368.536,244.409,365.2,244.409,364.568 C244.409,364.299,244.179,364.299,244.102,364.299 C243.872,364.299,243.815,364.414,243.776,364.587 C242.913,367.348,241.15,367.98,240.325,367.98 C239.328,367.98,238.907,367.156,238.907,366.274 C238.907,365.699,239.06,365.124,239.348,363.993 L240.229,360.446"/></g></g><g clip-path="url(#7fc8742594f0)"><clipPath id="7fc8742594f0"><path fill="#000" fill-opacity="0.35" d="M235.905,108.936 L290.917,108.936 L290.917,83.9324 L235.905,83.9324 Z"/></clipPath><g clip-path="url(#7fc8747bc490)"><clipPath id="7fc8747bc490"><path fill="#000" fill-opacity="0.35" d="M235.905,108.936 L290.905,108.936 L290.905,83.9356 L235.905,83.9356 Z"/></clipPath><path fill="#000" d="M257.18,87.8999 C257.393,87.0212,257.446,86.7816,259.23,86.7816 C259.789,86.7816,260.002,86.7816,260.002,86.3023 C260.002,86.0626,259.763,86.0626,259.363,86.0626 L256.195,86.0626 C255.582,86.0626,255.556,86.0626,255.263,86.5153 L246.582,100.095 L244.718,86.5952 C244.638,86.0626,244.585,86.0626,243.973,86.0626 L240.698,86.0626 C240.245,86.0626,239.979,86.0626,239.979,86.5153 C239.979,86.7816,240.218,86.7816,240.671,86.7816 C240.99,86.7816,241.417,86.8082,241.709,86.8348 C242.082,86.888,242.242,86.9679,242.242,87.2076 C242.242,87.3141,242.215,87.394,242.135,87.6603 L239.1,99.8024 C238.86,100.761,238.461,101.533,236.544,101.586 C236.411,101.586,236.118,101.613,236.118,102.039 C236.118,102.252,236.251,102.332,236.437,102.332 C237.209,102.332,238.035,102.252,238.834,102.252 C239.632,102.252,240.485,102.332,241.283,102.332 C241.39,102.332,241.709,102.332,241.709,101.853 C241.709,101.586,241.443,101.586,241.283,101.586 C239.925,101.56,239.659,101.081,239.659,100.548 C239.659,100.388,239.686,100.255,239.766,99.9888 L242.988,86.9946 L243.014,86.9946 L245.064,101.773 C245.118,102.066,245.144,102.332,245.437,102.332 C245.704,102.332,245.837,102.066,245.943,101.906 L255.582,86.8082 L255.609,86.8082 L252.201,100.468 C251.961,101.4,251.908,101.586,250.017,101.586 C249.618,101.586,249.352,101.586,249.352,102.039 C249.352,102.332,249.644,102.332,249.724,102.332 C250.39,102.332,252.014,102.252,252.68,102.252 C253.639,102.252,254.677,102.332,255.662,102.332 C255.795,102.332,256.115,102.332,256.115,101.853 C256.115,101.586,255.902,101.586,255.449,101.586 C254.57,101.586,253.878,101.586,253.878,101.16 C253.878,101.054,253.878,101.027,254.011,100.601 L257.18,87.8733"/><path fill="#000" d="M268.79,108.057 C268.79,107.977,268.79,107.95,268.39,107.524 C265.408,104.542,264.636,100.015,264.636,96.3675 C264.636,92.2402,265.541,88.0863,268.497,85.1041 C268.79,84.8112,268.79,84.7578,268.79,84.7046 C268.79,84.5182,268.71,84.465,268.55,84.465 C268.31,84.465,266.18,86.0626,264.769,89.0981 C263.544,91.7343,263.278,94.3704,263.278,96.3675 C263.278,98.2314,263.517,101.107,264.849,103.823 C266.26,106.752,268.31,108.297,268.55,108.297 C268.71,108.297,268.79,108.217,268.79,108.057"/><path fill="#000" d="M278.162,95.1426 C278.322,94.5035,278.855,92.3201,280.532,92.3201 C280.639,92.3201,281.225,92.3201,281.731,92.6396 C281.065,92.7461,280.586,93.3585,280.586,93.9178 C280.586,94.2905,280.852,94.7432,281.491,94.7432 C281.997,94.7432,282.769,94.3171,282.769,93.3585 C282.769,92.1337,281.358,91.7876,280.559,91.7876 C279.174,91.7876,278.349,93.0657,278.056,93.5982 C277.443,92.0272,276.165,91.7876,275.473,91.7876 C272.997,91.7876,271.639,94.8763,271.639,95.4621 C271.639,95.7017,271.878,95.7017,271.932,95.7017 C272.118,95.7017,272.198,95.6485,272.224,95.4355 C273.05,92.9059,274.621,92.3201,275.42,92.3201 C275.872,92.3201,276.725,92.5331,276.725,93.9178 C276.725,94.6633,276.298,96.2609,275.42,99.5894 C275.047,101.081,274.222,102.066,273.156,102.066 C273.023,102.066,272.464,102.066,271.958,101.773 C272.571,101.64,273.077,101.134,273.077,100.468 C273.077,99.829,272.571,99.6426,272.198,99.6426 C271.506,99.6426,270.893,100.255,270.893,101.027 C270.893,102.119,272.091,102.598,273.13,102.598 C274.701,102.598,275.58,100.921,275.633,100.788 C275.926,101.666,276.778,102.598,278.216,102.598 C280.665,102.598,282.023,99.5095,282.023,98.9237 C282.023,98.684,281.81,98.684,281.757,98.684 C281.517,98.684,281.491,98.7906,281.438,98.9503 C280.639,101.507,279.014,102.066,278.269,102.066 C277.337,102.066,276.964,101.294,276.964,100.495 C276.964,99.9621,277.097,99.4563,277.364,98.3911 L278.162,95.1426"/><path fill="#000" d="M290.784,96.3675 C290.784,94.5035,290.544,91.6278,289.213,88.9384 C287.802,86.0094,285.751,84.465,285.512,84.465 C285.352,84.465,285.272,84.5449,285.272,84.7046 C285.272,84.7578,285.272,84.8112,285.725,85.2372 C288.068,87.607,289.426,91.3881,289.426,96.3675 C289.426,100.441,288.52,104.649,285.565,107.658 C285.272,107.95,285.272,107.977,285.272,108.057 C285.272,108.19,285.352,108.297,285.512,108.297 C285.751,108.297,287.881,106.672,289.293,103.637 C290.518,101.027,290.81,98.3645,290.81,96.3675"/></g></g><g clip-path="url(#7fc87479e960)"><clipPath id="7fc87479e960"><path fill="#000" fill-opacity="0.35" d="M659.423,161.148 L727.429,161.148 L727.429,143.148 L659.423,143.148 Z"/></clipPath><g clip-path="url(#7fc8747c64e0)"><clipPath id="7fc8747c64e0"><path fill="#000" fill-opacity="0.35" d="M659.423,161.148 L727.423,161.148 L727.423,143.148 L659.423,143.148 Z"/></clipPath><path fill="#000" d="M680.698,145.092 C680.911,144.24,680.964,144,682.748,144 C683.307,144,683.521,144,683.521,143.521 C683.521,143.255,683.281,143.255,682.881,143.255 L679.713,143.255 C679.1,143.255,679.074,143.255,678.781,143.708 L670.1,157.314 L668.236,143.814 C668.156,143.255,668.103,143.255,667.491,143.255 L664.216,143.255 C663.763,143.255,663.497,143.255,663.497,143.708 C663.497,144,663.736,144,664.189,144 C664.508,144,664.935,144.027,665.227,144.054 C665.6,144.107,665.76,144.16,665.76,144.426 C665.76,144.533,665.733,144.586,665.653,144.879 L662.618,157.021 C662.378,157.98,661.979,158.725,660.062,158.805 C659.929,158.805,659.636,158.832,659.636,159.258 C659.636,159.471,659.769,159.551,659.955,159.551 C660.727,159.551,661.553,159.471,662.352,159.471 C663.15,159.471,664.003,159.551,664.801,159.551 C664.908,159.551,665.227,159.551,665.227,159.072 C665.227,158.805,664.961,158.805,664.801,158.805 C663.443,158.779,663.177,158.299,663.177,157.767 C663.177,157.58,663.204,157.474,663.284,157.208 L666.506,144.213 L666.532,144.213 L668.582,158.992 C668.636,159.285,668.662,159.551,668.955,159.551 C669.222,159.551,669.355,159.285,669.461,159.125 L679.1,144.027 L679.127,144.027 L675.719,157.687 C675.479,158.619,675.426,158.805,673.535,158.805 C673.136,158.805,672.87,158.805,672.87,159.258 C672.87,159.551,673.162,159.551,673.242,159.551 C673.908,159.551,675.532,159.471,676.198,159.471 C677.157,159.471,678.195,159.551,679.18,159.551 C679.313,159.551,679.633,159.551,679.633,159.072 C679.633,158.805,679.42,158.805,678.967,158.805 C678.088,158.805,677.396,158.805,677.396,158.379 C677.396,158.273,677.396,158.219,677.529,157.793 L680.698,145.092"/><path fill="#000" d="M707.219,154.119 C707.485,153.986,707.672,153.879,707.672,153.586 C707.672,153.293,707.485,153.187,707.219,153.054 L694.012,146.85 C693.692,146.663,693.639,146.663,693.586,146.663 C693.319,146.663,693.106,146.903,693.106,147.142 C693.106,147.355,693.213,147.515,693.559,147.675 L706.074,153.586 L693.559,159.498 C693.213,159.657,693.106,159.817,693.106,160.03 C693.106,160.296,693.319,160.509,693.586,160.509 C693.639,160.509,693.692,160.509,694.012,160.323 L707.219,154.119"/><path fill="#000" d="M727.296,151.909 C727.296,150.018,727.163,148.101,726.337,146.344 C725.246,144.054,723.275,143.681,722.29,143.681 C720.852,143.681,719.121,144.293,718.136,146.503 C717.364,148.154,717.257,150.018,717.257,151.909 C717.257,153.719,717.337,155.85,718.323,157.66 C719.361,159.604,721.092,160.083,722.263,160.083 C723.542,160.083,725.352,159.577,726.417,157.314 C727.163,155.663,727.296,153.799,727.296,151.909 Z M722.263,159.551 C721.331,159.551,719.92,158.965,719.494,156.675 C719.228,155.237,719.228,153.054,719.228,151.642 C719.228,150.098,719.228,148.527,719.414,147.249 C719.867,144.4,721.651,144.187,722.263,144.187 C723.036,144.187,724.607,144.613,725.059,146.983 C725.299,148.314,725.299,150.125,725.299,151.642 C725.299,153.427,725.299,155.051,725.059,156.569 C724.687,158.832,723.329,159.551,722.263,159.551"/></g></g><g clip-path="url(#7fc8747a3e70)"><clipPath id="7fc8747a3e70"><path fill="#000" fill-opacity="0.35" d="M659.423,333.184 L727.429,333.184 L727.429,315.184 L659.423,315.184 Z"/></clipPath><g clip-path="url(#7fc8750c88f0)"><clipPath id="7fc8750c88f0"><path fill="#000" fill-opacity="0.35" d="M659.423,333.184 L727.423,333.184 L727.423,315.184 L659.423,315.184 Z"/></clipPath><path fill="#000" d="M680.698,317.128 C680.911,316.275,680.964,316.036,682.748,316.036 C683.307,316.036,683.521,316.036,683.521,315.556 C683.521,315.29,683.281,315.29,682.881,315.29 L679.713,315.29 C679.1,315.29,679.074,315.29,678.781,315.743 L670.1,329.35 L668.236,315.849 C668.156,315.29,668.103,315.29,667.491,315.29 L664.216,315.29 C663.763,315.29,663.497,315.29,663.497,315.743 C663.497,316.036,663.736,316.036,664.189,316.036 C664.508,316.036,664.935,316.062,665.227,316.089 C665.6,316.142,665.76,316.196,665.76,316.462 C665.76,316.568,665.733,316.622,665.653,316.914 L662.618,329.057 C662.378,330.015,661.979,330.761,660.062,330.841 C659.929,330.841,659.636,330.867,659.636,331.293 C659.636,331.506,659.769,331.586,659.955,331.586 C660.727,331.586,661.553,331.506,662.352,331.506 C663.15,331.506,664.003,331.586,664.801,331.586 C664.908,331.586,665.227,331.586,665.227,331.107 C665.227,330.841,664.961,330.841,664.801,330.841 C663.443,330.814,663.177,330.335,663.177,329.802 C663.177,329.616,663.204,329.509,663.284,329.243 L666.506,316.249 L666.532,316.249 L668.582,331.027 C668.636,331.32,668.662,331.586,668.955,331.586 C669.222,331.586,669.355,331.32,669.461,331.16 L679.1,316.062 L679.127,316.062 L675.719,329.722 C675.479,330.654,675.426,330.841,673.535,330.841 C673.136,330.841,672.87,330.841,672.87,331.293 C672.87,331.586,673.162,331.586,673.242,331.586 C673.908,331.586,675.532,331.506,676.198,331.506 C677.157,331.506,678.195,331.586,679.18,331.586 C679.313,331.586,679.633,331.586,679.633,331.107 C679.633,330.841,679.42,330.841,678.967,330.841 C678.088,330.841,677.396,330.841,677.396,330.415 C677.396,330.308,677.396,330.255,677.529,329.829 L680.698,317.128"/><path fill="#000" d="M707.219,319.71 C707.512,319.577,707.672,319.444,707.672,319.178 C707.672,318.938,707.459,318.699,707.192,318.699 C707.112,318.699,707.059,318.699,706.766,318.885 L693.559,325.089 C693.293,325.222,693.106,325.329,693.106,325.622 C693.106,325.915,693.293,326.021,693.559,326.154 L706.766,332.358 C707.059,332.545,707.112,332.545,707.192,332.545 C707.459,332.545,707.672,332.332,707.672,332.066 C707.672,331.799,707.512,331.666,707.219,331.533 L694.704,325.622 L707.219,319.71"/><path fill="#000" d="M727.296,323.944 C727.296,322.054,727.163,320.136,726.337,318.379 C725.246,316.089,723.275,315.716,722.29,315.716 C720.852,315.716,719.121,316.329,718.136,318.539 C717.364,320.19,717.257,322.054,717.257,323.944 C717.257,325.755,717.337,327.885,718.323,329.696 C719.361,331.639,721.092,332.119,722.263,332.119 C723.542,332.119,725.352,331.613,726.417,329.35 C727.163,327.699,727.296,325.835,727.296,323.944 Z M722.263,331.586 C721.331,331.586,719.92,331,719.494,328.71 C719.228,327.273,719.228,325.089,719.228,323.678 C719.228,322.133,719.228,320.562,719.414,319.284 C719.867,316.435,721.651,316.222,722.263,316.222 C723.036,316.222,724.607,316.648,725.059,319.018 C725.299,320.349,725.299,322.16,725.299,323.678 C725.299,325.462,725.299,327.086,725.059,328.604 C724.687,330.867,723.329,331.586,722.263,331.586"/></g></g><text font-family="American Typewriter" font-size="24" transform="matrix(1,0,0,1,388.152,289.95)" xml:space="preserve"><tspan>domain wall along y, with gapless modes</tspan></text><path fill="none" stroke="#000" d="M380,284.226 L339.192,263.964"/><g><g><g><path fill="none" stroke="#000" stroke-width="2" d="M309.591,144.08 L385.192,144.08"/><path fill="none" stroke="#000" stroke-width="2" d="M375.192,139.08 L385.192,144.08 L375.192,149.08"/></g><g><path fill="none" stroke="#000" stroke-width="2" d="M309.656,143.255 L309.591,219.249"/><path fill="none" stroke="#000" stroke-width="2" d="M314.6,209.253 L309.591,219.249 L304.6,209.245"/></g></g><g><g clip-path="url(#7fc8747d6570)"><clipPath id="7fc8747d6570"><path fill="#000" fill-opacity="0.35" d="M393.519,160.589 L406.48,160.589 L406.48,143.316 L393.519,143.316 Z"/></clipPath><g clip-path="url(#7fc875065e80)"><clipPath id="7fc875065e80"><path fill="#000" fill-opacity="0.35" d="M394.239,160.589 L406.479,160.589 L406.479,143.309 L394.239,143.309 Z"/></clipPath><path fill="#000" d="M406.096,145.271 C406.192,144.907,406.192,144.849,406.192,144.677 C406.192,144.198,405.828,143.968,405.444,143.968 C405.176,143.968,404.773,144.121,404.543,144.524 C404.486,144.639,404.275,145.444,404.179,145.904 C403.987,146.575,403.815,147.284,403.661,147.974 L402.492,152.633 C402.396,153.017,401.284,154.838,399.578,154.838 C398.255,154.838,397.967,153.688,397.967,152.729 C397.967,151.54,398.408,149.949,399.29,147.668 C399.693,146.613,399.808,146.326,399.808,145.808 C399.808,144.639,398.983,143.68,397.68,143.68 C395.226,143.68,394.267,147.438,394.267,147.668 C394.267,147.936,394.536,147.936,394.574,147.936 C394.842,147.936,394.861,147.879,394.996,147.457 C395.686,145.041,396.721,144.255,397.603,144.255 C397.814,144.255,398.255,144.255,398.255,145.08 C398.255,145.731,397.986,146.402,397.814,146.901 C396.779,149.642,396.319,151.099,396.319,152.326 C396.319,154.627,397.948,155.394,399.463,155.394 C400.479,155.394,401.361,154.953,402.07,154.244 C401.744,155.586,401.437,156.851,400.402,158.212 C399.731,159.094,398.753,159.842,397.546,159.842 C397.2,159.842,396.031,159.765,395.59,158.768 C396.012,158.768,396.338,158.768,396.702,158.442 C396.951,158.212,397.22,157.886,397.22,157.388 C397.22,156.583,396.529,156.487,396.261,156.487 C395.667,156.487,394.804,156.909,394.804,158.174 C394.804,159.458,395.954,160.417,397.546,160.417 C400.21,160.417,402.875,158.059,403.604,155.145 L406.096,145.271"/></g></g><g clip-path="url(#7fc872548bf0)"><clipPath id="7fc872548bf0"><path fill="#000" fill-opacity="0.35" d="M322.706,221.069 L336.395,221.069 L336.395,208.837 L322.706,208.837 Z"/></clipPath><g clip-path="url(#7fc87500d450)"><clipPath id="7fc87500d450"><path fill="#000" fill-opacity="0.35" d="M322.706,221.069 L336.386,221.069 L336.386,208.829 L322.706,208.829 Z"/></clipPath><path fill="#000" d="M330.701,212.825 C330.854,212.154,331.449,209.776,333.251,209.776 C333.385,209.776,333.999,209.776,334.555,210.121 C333.826,210.236,333.308,210.888,333.308,211.502 C333.308,211.924,333.596,212.422,334.286,212.422 C334.861,212.422,335.686,211.943,335.686,210.908 C335.686,209.565,334.152,209.201,333.289,209.201 C331.775,209.201,330.874,210.582,330.567,211.176 C329.915,209.47,328.515,209.201,327.768,209.201 C325.084,209.201,323.608,212.537,323.608,213.189 C323.608,213.457,323.876,213.457,323.914,213.457 C324.125,213.457,324.202,213.4,324.259,213.17 C325.141,210.428,326.848,209.776,327.729,209.776 C328.209,209.776,329.11,210.006,329.11,211.502 C329.11,212.307,328.669,214.052,327.729,217.656 C327.308,219.266,326.407,220.359,325.256,220.359 C325.103,220.359,324.509,220.359,323.972,220.014 C324.624,219.88,325.18,219.343,325.18,218.615 C325.18,217.924,324.624,217.713,324.24,217.713 C323.454,217.713,322.802,218.384,322.802,219.209 C322.802,220.398,324.106,220.915,325.237,220.915 C326.943,220.915,327.883,219.113,327.959,218.96 C328.266,219.918,329.186,220.915,330.739,220.915 C333.404,220.915,334.881,217.579,334.881,216.947 C334.881,216.678,334.65,216.678,334.574,216.678 C334.344,216.678,334.286,216.793,334.248,216.966 C333.385,219.727,331.621,220.359,330.797,220.359 C329.8,220.359,329.378,219.535,329.378,218.653 C329.378,218.078,329.532,217.503,329.819,216.371 L330.701,212.825"/></g></g></g></g><g><g><path fill="none" stroke="#000" stroke-width="1.83466" d="M223.192,124.323 L223.127,370.647"/><path fill="none" stroke="#000" stroke-width="1.83466" d="M227.965,360.979 L223.127,370.647 L218.295,360.976"/></g><path fill="none" stroke="#000" stroke-width="1.83466" stroke-linecap="round" d="M262.154,122.647 C262.154,148.571,260.593,200.88,252.192,223.41 C241.693,251.568,226.122,242.83,207.738,255.641 C183.738,272.364,194.404,326.613,192.154,365.858"/></g></g><g><path fill="none" stroke="#ff0004" stroke-width="3" d="M689.619,879.338 L689.619,771.338"/><g><path fill="none" stroke="#ff0004" stroke-width="3" d="M689.619,591.338 L689.619,483.338"/><path fill="none" stroke="#ff0004" stroke-width="3" d="M683.619,495.338 L689.619,483.338 L695.619,495.338"/></g><g><text font-family="American Typewriter" font-size="24" transform="matrix(1,0,0,1,767.235,473.713)" xml:space="preserve"><tspan>uniform</tspan><tspan x="0" y="28">magnetic field</tspan></text><path fill="none" stroke="#000" d="M813.434,514.637 L754.003,538.709"/></g><path fill="none" stroke="#000" stroke-width="1.5" d="M833.619,555.417 L833.619,733.983"/><path fill="#c9c9c9" fill-opacity="0.44" stroke="#000" stroke-width="2" stroke-dasharray="2" d="M295.786,843.263 L724.642,843.263 L834.619,737.088 L405.764,737.088 Z"/><path fill="none" stroke="#000" stroke-width="2" d="M293.786,664.269 L726.619,664.269 L726.619,843.263 L293.786,843.263 Z"/><path fill="none" stroke="#000" stroke-width="2" d="M727.619,842.263 L833.619,736.088"/><g><g><path fill="#fff" fill-opacity="0.01" stroke="#000" stroke-width="2" stroke-dasharray="2" d="M588.358,632.662 C588.358,635.092,577.983,637.062,565.184,637.062 C552.386,637.062,542.011,635.092,542.011,632.662 C542.011,630.232,552.386,628.262,565.184,628.262 C577.983,628.262,588.358,630.232,588.358,632.662 Z"/><path fill="none" stroke="#000" stroke-width="2" stroke-dasharray="2" d="M542.011,633.018 L565.184,604.573"/><path fill="none" stroke="#000" stroke-width="2" stroke-dasharray="2" d="M565.184,604.573 L588.358,633.018"/></g><path fill="none" stroke="#000" stroke-width="2" d="M542.048,574.151 L565.221,602.595 L588.395,574.151"/><path fill="none" stroke="#000" stroke-width="2" d="M588.395,574.151 C588.395,576.581,578.019,578.551,565.221,578.551 C552.423,578.551,542.048,576.581,542.048,574.151 C542.048,571.721,552.423,569.751,565.221,569.751 C578.019,569.751,588.395,571.721,588.395,574.151 Z"/></g><g><g><path fill="#fff" fill-opacity="0.01" stroke="#000" stroke-width="2" stroke-dasharray="2" d="M588.358,822.662 C588.358,825.092,577.983,827.062,565.184,827.062 C552.386,827.062,542.011,825.092,542.011,822.662 C542.011,820.232,552.386,818.262,565.184,818.262 C577.983,818.262,588.358,820.232,588.358,822.662 Z"/><path fill="none" stroke="#000" stroke-width="2" stroke-dasharray="2" d="M542.011,823.018 L565.184,794.573"/><path fill="none" stroke="#000" stroke-width="2" stroke-dasharray="2" d="M565.184,794.573 L588.358,823.018"/></g><path fill="none" stroke="#000" stroke-width="2" d="M542.048,764.151 L565.221,792.595 L588.395,764.151"/><path fill="none" stroke="#000" stroke-width="2" d="M588.395,764.151 C588.395,766.581,578.019,768.551,565.221,768.551 C552.423,768.551,542.048,766.581,542.048,764.151 C542.048,761.721,552.423,759.751,565.221,759.751 C578.019,759.751,588.395,761.721,588.395,764.151 Z"/></g><path fill="none" stroke="#ff0004" stroke-dasharray="2" d="M689.619,771.338 L689.619,591.338"/><text font-family="American Typewriter" font-size="24" transform="matrix(1,0,0,1,158.619,624.426)" xml:space="preserve"><tspan>3D TI slab</tspan></text><path fill="none" stroke="#000" d="M240.619,637.062 L282.619,681.338"/><g><path fill="#c9c9c9" fill-opacity="0.44" stroke="#000" stroke-width="2" d="M295.804,663.8 L724.66,663.8 L834.638,554.996 L405.782,554.996 Z"/><path fill="none" stroke="#000" stroke-width="2" stroke-dasharray="2" d="M402.536,555.417 L402.536,737.088"/></g><g><path fill="none" stroke="#ff0004" stroke-width="3" d="M437.619,879.338 L437.619,807.338"/><g><path fill="none" stroke="#ff0004" stroke-width="3" d="M437.619,627.338 L437.619,519.338"/><path fill="none" stroke="#ff0004" stroke-width="3" d="M431.619,531.338 L437.619,519.338 L443.619,531.338"/></g><path fill="none" stroke="#ff0004" stroke-dasharray="2" d="M437.619,807.338 L437.619,627.338"/></g></g><g><g><path fill="none" stroke="#000" stroke-width="2" d="M132.392,1007.79 L136.114,1276.15"/><path fill="none" stroke="#000" stroke-width="2" d="M140.975,1266.08 L136.114,1276.15 L130.976,1266.22"/></g><path fill="none" stroke="#000" stroke-width="2" stroke-linecap="round" d="M169.011,1018.86 C169.011,1043.9,172.366,1115.59,163.966,1137.35 C153.466,1164.55,128,1152.37,114.489,1163.84 C92.6379,1182.39,101.156,1232.39,98.9057,1270.3"/><path fill="#c9c9c9" fill-opacity="0.44" stroke="#000" stroke-width="2" d="M204.185,1161.78 L633.041,1161.78 L743.018,1052.97 L314.163,1052.97 Z"/><path fill="none" stroke="#000" stroke-width="2" stroke-dasharray="2" d="M310.917,972.145 L310.917,1126.97"/><path fill="none" stroke="#000" stroke-width="2" stroke-dasharray="2" d="M204.185,1082.25 L204.185,1232.07"/><path fill="none" stroke="#000" stroke-width="2" stroke-dasharray="2" d="M742.917,972.145 L742.917,1123.71"/><path fill="none" stroke="#000" stroke-width="2" stroke-dasharray="2" d="M636.185,1082.25 L636.185,1232.07"/><g clip-path="url(#7fc8750b5d60)"><clipPath id="7fc8750b5d60"><path fill="#000" fill-opacity="0.35" d="M109.555,995.977 L163.555,995.977 L163.555,970.974 L109.555,970.974 Z"/></clipPath><g clip-path="url(#7fc8747ba010)"><clipPath id="7fc8747ba010"><path fill="#000" fill-opacity="0.35" d="M109.555,995.977 L163.555,995.977 L163.555,970.977 L109.555,970.977 Z"/></clipPath><path fill="#000" d="M131.229,974.942 C131.442,974.063,131.496,973.823,133.28,973.823 C133.839,973.823,134.052,973.823,134.052,973.344 C134.052,973.104,133.812,973.104,133.413,973.104 L130.244,973.104 C129.632,973.104,129.605,973.104,129.312,973.557 L120.632,987.137 L118.768,973.637 C118.688,973.104,118.635,973.104,118.022,973.104 L114.747,973.104 C114.294,973.104,114.055,973.104,114.055,973.557 C114.055,973.823,114.268,973.823,114.72,973.823 C115.04,973.823,115.466,973.85,115.759,973.877 C116.132,973.93,116.291,974.01,116.291,974.249 C116.291,974.356,116.265,974.436,116.185,974.702 L113.149,986.844 C112.91,987.803,112.51,988.575,110.593,988.628 C110.46,988.628,110.167,988.655,110.167,989.081 C110.167,989.294,110.3,989.374,110.487,989.374 C111.259,989.374,112.084,989.294,112.883,989.294 C113.682,989.294,114.534,989.374,115.333,989.374 C115.439,989.374,115.759,989.374,115.759,988.894 C115.759,988.628,115.493,988.628,115.333,988.628 C113.975,988.602,113.709,988.122,113.709,987.59 C113.709,987.43,113.735,987.297,113.815,987.031 L117.037,974.036 L117.064,974.036 L119.114,988.815 C119.167,989.107,119.194,989.374,119.487,989.374 C119.753,989.374,119.886,989.107,119.993,988.948 L129.632,973.85 L129.658,973.85 L126.25,987.51 C126.01,988.442,125.957,988.628,124.067,988.628 C123.667,988.628,123.401,988.628,123.401,989.081 C123.401,989.374,123.694,989.374,123.774,989.374 C124.439,989.374,126.064,989.294,126.729,989.294 C127.715,989.294,128.726,989.374,129.712,989.374 C129.845,989.374,130.164,989.374,130.164,988.894 C130.164,988.628,129.951,988.628,129.499,988.628 C128.62,988.628,127.928,988.628,127.928,988.202 C127.928,988.096,127.928,988.069,128.061,987.643 L131.229,974.915"/><path fill="#000" d="M142.839,995.099 C142.839,995.019,142.839,994.992,142.44,994.566 C139.457,991.584,138.712,987.057,138.712,983.409 C138.712,979.282,139.59,975.128,142.546,972.146 C142.839,971.853,142.839,971.8,142.839,971.746 C142.839,971.56,142.759,971.507,142.599,971.507 C142.36,971.507,140.229,973.104,138.818,976.14 C137.593,978.776,137.327,981.412,137.327,983.409 C137.327,985.273,137.567,988.149,138.898,990.865 C140.309,993.794,142.36,995.338,142.599,995.338 C142.759,995.338,142.839,995.258,142.839,995.099"/><path fill="#000" d="M147.419,987.403 C148.724,986.019,149.416,985.406,150.268,984.687 C150.268,984.661,151.733,983.383,152.611,982.53 C154.875,980.32,155.381,979.175,155.381,979.069 C155.381,978.829,155.167,978.829,155.141,978.829 C154.954,978.829,154.901,978.883,154.768,979.096 C154.049,980.241,153.543,980.613,152.984,980.613 C152.398,980.613,152.132,980.267,151.759,979.868 C151.306,979.309,150.907,978.829,150.108,978.829 C148.324,978.829,147.232,981.066,147.232,981.545 C147.232,981.678,147.312,981.812,147.525,981.812 C147.738,981.812,147.792,981.705,147.845,981.545 C148.298,980.454,149.656,980.427,149.869,980.427 C150.348,980.427,150.801,980.613,151.36,980.8 C152.318,981.146,152.585,981.146,153.197,981.146 C152.345,982.184,150.348,983.888,149.895,984.261 L147.738,986.285 C146.114,987.883,145.289,989.241,145.289,989.4 C145.289,989.64,145.528,989.64,145.555,989.64 C145.768,989.64,145.795,989.587,145.954,989.32 C146.487,988.495,147.206,987.856,147.978,987.856 C148.511,987.856,148.777,988.069,149.363,988.761 C149.762,989.267,150.188,989.64,150.88,989.64 C153.25,989.64,154.635,986.604,154.635,985.965 C154.635,985.859,154.528,985.726,154.342,985.726 C154.129,985.726,154.076,985.859,153.996,986.045 C153.463,987.59,151.946,988.042,151.147,988.042 C150.667,988.042,150.241,987.909,149.735,987.723 C148.937,987.43,148.564,987.323,148.058,987.323 C148.031,987.323,147.632,987.323,147.419,987.403"/><path fill="#000" d="M163.236,983.409 C163.236,981.545,162.996,978.669,161.665,975.98 C160.253,973.051,158.203,971.507,157.963,971.507 C157.804,971.507,157.724,971.587,157.724,971.746 C157.724,971.8,157.724,971.853,158.176,972.279 C160.493,974.649,161.851,978.43,161.851,983.409 C161.851,987.483,160.972,991.69,158.017,994.699 C157.724,994.992,157.724,995.019,157.724,995.099 C157.724,995.232,157.804,995.338,157.963,995.338 C158.203,995.338,160.333,993.714,161.744,990.678 C162.969,988.069,163.236,985.406,163.236,983.409"/></g></g><g clip-path="url(#7fc8750493b0)"><clipPath id="7fc8750493b0"><path fill="#000" fill-opacity="0.35" d="M158.68,1299.48 L169.677,1299.48 L169.677,1288.48 L158.68,1288.48 Z"/></clipPath><g clip-path="url(#7fc875083260)"><clipPath id="7fc875083260"><path fill="#000" fill-opacity="0.35" d="M158.68,1299.48 L169.68,1299.48 L169.68,1288.48 L158.68,1288.48 Z"/></clipPath><path fill="#000" d="M161.05,1297.11 C162.328,1295.73,163.02,1295.11,163.899,1294.4 C163.899,1294.37,165.363,1293.09,166.216,1292.24 C168.479,1290.03,169.011,1288.88,169.011,1288.78 C169.011,1288.54,168.798,1288.54,168.745,1288.54 C168.585,1288.54,168.506,1288.59,168.399,1288.8 C167.68,1289.95,167.174,1290.32,166.615,1290.32 C166.029,1290.32,165.736,1289.98,165.39,1289.58 C164.937,1289.02,164.538,1288.54,163.739,1288.54 C161.955,1288.54,160.863,1290.75,160.863,1291.25 C160.863,1291.39,160.943,1291.52,161.156,1291.52 C161.369,1291.52,161.396,1291.41,161.449,1291.25 C161.902,1290.16,163.287,1290.14,163.473,1290.14 C163.979,1290.14,164.432,1290.29,164.991,1290.51 C165.949,1290.85,166.189,1290.85,166.828,1290.85 C165.976,1291.89,163.952,1293.6,163.5,1293.97 L161.369,1295.97 C159.745,1297.56,158.92,1298.92,158.92,1299.11 C158.92,1299.35,159.159,1299.35,159.186,1299.35 C159.372,1299.35,159.426,1299.29,159.585,1299.03 C160.118,1298.2,160.837,1297.56,161.609,1297.56 C162.142,1297.56,162.381,1297.78,162.994,1298.47 C163.393,1298.95,163.819,1299.35,164.511,1299.35 C166.881,1299.35,168.266,1296.31,168.266,1295.67 C168.266,1295.54,168.159,1295.43,167.973,1295.43 C167.76,1295.43,167.707,1295.57,167.627,1295.75 C167.094,1297.3,165.55,1297.75,164.778,1297.75 C164.298,1297.75,163.872,1297.59,163.366,1297.43 C162.568,1297.11,162.195,1297.03,161.689,1297.03 C161.662,1297.03,161.263,1297.03,161.05,1297.11"/></g></g><g><path fill="none" stroke="#000" stroke-width="2" d="M356,1138.09 L465.703,1138.16"/><path fill="none" stroke="#000" stroke-width="2" d="M455.706,1133.16 L465.703,1138.16 L455.7,1143.16"/></g><g><path fill="none" stroke="#000" stroke-width="2" d="M356,1138.16 L412.815,1083.76"/><path fill="none" stroke="#000" stroke-width="2" d="M402.134,1087.07 L412.815,1083.76 L409.05,1094.29"/></g><g clip-path="url(#7fc87505bf70)"><clipPath id="7fc87505bf70"><path fill="#000" fill-opacity="0.35" d="M423.5,1089.01 L436.46,1089.01 L436.46,1071.74 L423.5,1071.74 Z"/></clipPath><g clip-path="url(#7fc8750819f0)"><clipPath id="7fc8750819f0"><path fill="#000" fill-opacity="0.35" d="M424.22,1089.01 L436.46,1089.01 L436.46,1071.73 L424.22,1071.73 Z"/></clipPath><path fill="#000" d="M436.077,1073.7 C436.173,1073.33,436.173,1073.27,436.173,1073.1 C436.173,1072.62,435.808,1072.39,435.425,1072.39 C435.156,1072.39,434.754,1072.55,434.524,1072.95 C434.466,1073.06,434.255,1073.87,434.16,1074.33 C433.968,1075,433.795,1075.71,433.642,1076.4 L432.472,1081.06 C432.377,1081.44,431.265,1083.26,429.558,1083.26 C428.235,1083.26,427.948,1082.11,427.948,1081.15 C427.948,1079.96,428.389,1078.37,429.271,1076.09 C429.673,1075.04,429.788,1074.75,429.788,1074.23 C429.788,1073.06,428.964,1072.1,427.66,1072.1 C425.206,1072.1,424.248,1075.86,424.248,1076.09 C424.248,1076.36,424.516,1076.36,424.554,1076.36 C424.823,1076.36,424.842,1076.3,424.976,1075.88 C425.666,1073.47,426.702,1072.68,427.584,1072.68 C427.795,1072.68,428.235,1072.68,428.235,1073.5 C428.235,1074.16,427.967,1074.83,427.795,1075.33 C426.759,1078.07,426.299,1079.52,426.299,1080.75 C426.299,1083.05,427.929,1083.82,429.443,1083.82 C430.459,1083.82,431.341,1083.38,432.051,1082.67 C431.725,1084.01,431.418,1085.28,430.383,1086.64 C429.712,1087.52,428.734,1088.27,427.526,1088.27 C427.181,1088.27,426.012,1088.19,425.571,1087.19 C425.992,1087.19,426.318,1087.19,426.683,1086.87 C426.932,1086.64,427.2,1086.31,427.2,1085.81 C427.2,1085.01,426.51,1084.91,426.242,1084.91 C425.647,1084.91,424.785,1085.33,424.785,1086.6 C424.785,1087.88,425.935,1088.84,427.526,1088.84 C430.191,1088.84,432.856,1086.48,433.584,1083.57 L436.077,1073.7"/></g></g><g clip-path="url(#7fc875050f50)"><clipPath id="7fc875050f50"><path fill="#000" fill-opacity="0.35" d="M472.687,1137.49 L486.376,1137.49 L486.376,1125.26 L472.687,1125.26 Z"/></clipPath><g clip-path="url(#7fc875079580)"><clipPath id="7fc875079580"><path fill="#000" fill-opacity="0.35" d="M472.687,1137.49 L486.367,1137.49 L486.367,1125.25 L472.687,1125.25 Z"/></clipPath><path fill="#000" d="M480.682,1129.25 C480.835,1128.58,481.429,1126.2,483.232,1126.2 C483.366,1126.2,483.979,1126.2,484.535,1126.55 C483.807,1126.66,483.289,1127.31,483.289,1127.93 C483.289,1128.35,483.577,1128.85,484.267,1128.85 C484.842,1128.85,485.666,1128.37,485.666,1127.33 C485.666,1125.99,484.133,1125.63,483.27,1125.63 C481.755,1125.63,480.854,1127.01,480.547,1127.6 C479.896,1125.89,478.496,1125.63,477.748,1125.63 C475.064,1125.63,473.588,1128.96,473.588,1129.61 C473.588,1129.88,473.856,1129.88,473.895,1129.88 C474.106,1129.88,474.182,1129.82,474.24,1129.59 C475.122,1126.85,476.828,1126.2,477.71,1126.2 C478.189,1126.2,479.09,1126.43,479.09,1127.93 C479.09,1128.73,478.649,1130.48,477.71,1134.08 C477.288,1135.69,476.387,1136.78,475.237,1136.78 C475.083,1136.78,474.489,1136.78,473.952,1136.44 C474.604,1136.3,475.16,1135.77,475.16,1135.04 C475.16,1134.35,474.604,1134.14,474.221,1134.14 C473.435,1134.14,472.783,1134.81,472.783,1135.63 C472.783,1136.82,474.087,1137.34,475.218,1137.34 C476.924,1137.34,477.863,1135.54,477.94,1135.38 C478.247,1136.34,479.167,1137.34,480.72,1137.34 C483.385,1137.34,484.861,1134,484.861,1133.37 C484.861,1133.1,484.631,1133.1,484.554,1133.1 C484.324,1133.1,484.267,1133.22,484.228,1133.39 C483.366,1136.15,481.602,1136.78,480.778,1136.78 C479.781,1136.78,479.359,1135.96,479.359,1135.08 C479.359,1134.5,479.512,1133.93,479.8,1132.8 L480.682,1129.25"/></g></g><g clip-path="url(#7fc8747c94b0)"><clipPath id="7fc8747c94b0"><path fill="#000" fill-opacity="0.35" d="M538.403,1014.39 L606.41,1014.39 L606.41,996.394 L538.403,996.394 Z"/></clipPath><g clip-path="url(#7fc8750d6280)"><clipPath id="7fc8750d6280"><path fill="#000" fill-opacity="0.35" d="M538.403,1014.39 L606.403,1014.39 L606.403,996.395 L538.403,996.395 Z"/></clipPath><path fill="#000" d="M559.679,998.338 C559.892,997.486,559.945,997.247,561.729,997.247 C562.288,997.247,562.501,997.247,562.501,996.767 C562.501,996.501,562.261,996.501,561.862,996.501 L558.693,996.501 C558.081,996.501,558.054,996.501,557.761,996.954 L549.081,1010.56 L547.217,997.06 C547.137,996.501,547.084,996.501,546.471,996.501 L543.196,996.501 C542.743,996.501,542.477,996.501,542.477,996.954 C542.477,997.247,542.717,997.247,543.17,997.247 C543.489,997.247,543.915,997.273,544.208,997.3 C544.581,997.353,544.741,997.406,544.741,997.673 C544.741,997.779,544.714,997.832,544.634,998.125 L541.598,1010.27 C541.359,1011.23,540.959,1011.97,539.042,1012.05 C538.909,1012.05,538.616,1012.08,538.616,1012.5 C538.616,1012.72,538.749,1012.8,538.936,1012.8 C539.708,1012.8,540.533,1012.72,541.332,1012.72 C542.131,1012.72,542.983,1012.8,543.782,1012.8 C543.888,1012.8,544.208,1012.8,544.208,1012.32 C544.208,1012.05,543.942,1012.05,543.782,1012.05 C542.424,1012.02,542.158,1011.55,542.158,1011.01 C542.158,1010.83,542.184,1010.72,542.264,1010.45 L545.486,997.459 L545.513,997.459 L547.563,1012.24 C547.616,1012.53,547.643,1012.8,547.936,1012.8 C548.202,1012.8,548.335,1012.53,548.442,1012.37 L558.081,997.273 L558.107,997.273 L554.699,1010.93 C554.46,1011.86,554.406,1012.05,552.516,1012.05 C552.116,1012.05,551.85,1012.05,551.85,1012.5 C551.85,1012.8,552.143,1012.8,552.223,1012.8 C552.889,1012.8,554.513,1012.72,555.179,1012.72 C556.137,1012.72,557.176,1012.8,558.161,1012.8 C558.294,1012.8,558.613,1012.8,558.613,1012.32 C558.613,1012.05,558.4,1012.05,557.948,1012.05 C557.069,1012.05,556.377,1012.05,556.377,1011.63 C556.377,1011.52,556.377,1011.47,556.51,1011.04 L559.679,998.338"/><path fill="#000" d="M586.2,1007.36 C586.466,1007.23,586.652,1007.13,586.652,1006.83 C586.652,1006.54,586.466,1006.43,586.2,1006.3 L572.992,1000.1 C572.673,999.909,572.619,999.909,572.566,999.909 C572.3,999.909,572.087,1000.15,572.087,1000.39 C572.087,1000.6,572.193,1000.76,572.54,1000.92 L585.055,1006.83 L572.54,1012.74 C572.193,1012.9,572.087,1013.06,572.087,1013.28 C572.087,1013.54,572.3,1013.76,572.566,1013.76 C572.619,1013.76,572.673,1013.76,572.992,1013.57 L586.2,1007.36"/><path fill="#000" d="M606.277,1005.15 C606.277,1003.26,606.143,1001.35,605.318,999.59 C604.226,997.3,602.256,996.927,601.271,996.927 C599.833,996.927,598.102,997.539,597.117,999.749 C596.345,1001.4,596.238,1003.26,596.238,1005.15 C596.238,1006.97,596.318,1009.1,597.303,1010.91 C598.342,1012.85,600.072,1013.33,601.244,1013.33 C602.522,1013.33,604.333,1012.82,605.398,1010.56 C606.143,1008.91,606.277,1007.05,606.277,1005.15 Z M601.244,1012.8 C600.312,1012.8,598.901,1012.21,598.475,1009.92 C598.208,1008.48,598.208,1006.3,598.208,1004.89 C598.208,1003.34,598.208,1001.77,598.395,1000.5 C598.848,997.646,600.632,997.433,601.244,997.433 C602.016,997.433,603.587,997.859,604.04,1000.23 C604.28,1001.56,604.28,1003.37,604.28,1004.89 C604.28,1006.67,604.28,1008.3,604.04,1009.81 C603.667,1012.08,602.309,1012.8,601.244,1012.8"/></g></g><g clip-path="url(#7fc8751337f0)"><clipPath id="7fc8751337f0"><path fill="#000" fill-opacity="0.35" d="M538.403,1215.61 L606.41,1215.61 L606.41,1197.61 L538.403,1197.61 Z"/></clipPath><g clip-path="url(#7fc874578190)"><clipPath id="7fc874578190"><path fill="#000" fill-opacity="0.35" d="M538.403,1215.61 L606.403,1215.61 L606.403,1197.61 L538.403,1197.61 Z"/></clipPath><path fill="#000" d="M559.679,1199.55 C559.892,1198.7,559.945,1198.46,561.729,1198.46 C562.288,1198.46,562.501,1198.46,562.501,1197.98 C562.501,1197.71,562.261,1197.71,561.862,1197.71 L558.693,1197.71 C558.081,1197.71,558.054,1197.71,557.761,1198.17 L549.081,1211.77 L547.217,1198.27 C547.137,1197.71,547.084,1197.71,546.471,1197.71 L543.196,1197.71 C542.743,1197.71,542.477,1197.71,542.477,1198.17 C542.477,1198.46,542.717,1198.46,543.17,1198.46 C543.489,1198.46,543.915,1198.49,544.208,1198.51 C544.581,1198.57,544.741,1198.62,544.741,1198.89 C544.741,1198.99,544.714,1199.05,544.634,1199.34 L541.598,1211.48 C541.359,1212.44,540.959,1213.19,539.042,1213.27 C538.909,1213.27,538.616,1213.29,538.616,1213.72 C538.616,1213.93,538.749,1214.01,538.936,1214.01 C539.708,1214.01,540.533,1213.93,541.332,1213.93 C542.131,1213.93,542.983,1214.01,543.782,1214.01 C543.888,1214.01,544.208,1214.01,544.208,1213.53 C544.208,1213.27,543.942,1213.27,543.782,1213.27 C542.424,1213.24,542.158,1212.76,542.158,1212.23 C542.158,1212.04,542.184,1211.93,542.264,1211.67 L545.486,1198.67 L545.513,1198.67 L547.563,1213.45 C547.616,1213.74,547.643,1214.01,547.936,1214.01 C548.202,1214.01,548.335,1213.74,548.442,1213.58 L558.081,1198.49 L558.107,1198.49 L554.699,1212.15 C554.46,1213.08,554.406,1213.27,552.516,1213.27 C552.116,1213.27,551.85,1213.27,551.85,1213.72 C551.85,1214.01,552.143,1214.01,552.223,1214.01 C552.889,1214.01,554.513,1213.93,555.179,1213.93 C556.137,1213.93,557.176,1214.01,558.161,1214.01 C558.294,1214.01,558.613,1214.01,558.613,1213.53 C558.613,1213.27,558.4,1213.27,557.948,1213.27 C557.069,1213.27,556.377,1213.27,556.377,1212.84 C556.377,1212.73,556.377,1212.68,556.51,1212.25 L559.679,1199.55"/><path fill="#000" d="M586.2,1202.13 C586.492,1202,586.652,1201.87,586.652,1201.6 C586.652,1201.36,586.439,1201.12,586.173,1201.12 C586.093,1201.12,586.04,1201.12,585.747,1201.31 L572.54,1207.51 C572.273,1207.65,572.087,1207.75,572.087,1208.05 C572.087,1208.34,572.273,1208.45,572.54,1208.58 L585.747,1214.78 C586.04,1214.97,586.093,1214.97,586.173,1214.97 C586.439,1214.97,586.652,1214.76,586.652,1214.49 C586.652,1214.22,586.492,1214.09,586.2,1213.96 L573.685,1208.05 L586.2,1202.13"/><path fill="#000" d="M606.277,1206.37 C606.277,1204.48,606.143,1202.56,605.318,1200.8 C604.226,1198.51,602.256,1198.14,601.271,1198.14 C599.833,1198.14,598.102,1198.75,597.117,1200.96 C596.345,1202.61,596.238,1204.48,596.238,1206.37 C596.238,1208.18,596.318,1210.31,597.303,1212.12 C598.342,1214.06,600.072,1214.54,601.244,1214.54 C602.522,1214.54,604.333,1214.04,605.398,1211.77 C606.143,1210.12,606.277,1208.26,606.277,1206.37 Z M601.244,1214.01 C600.312,1214.01,598.901,1213.42,598.475,1211.13 C598.208,1209.7,598.208,1207.51,598.208,1206.1 C598.208,1204.56,598.208,1202.99,598.395,1201.71 C598.848,1198.86,600.632,1198.65,601.244,1198.65 C602.016,1198.65,603.587,1199.07,604.04,1201.44 C604.28,1202.77,604.28,1204.58,604.28,1206.1 C604.28,1207.89,604.28,1209.51,604.04,1211.03 C603.667,1213.29,602.309,1214.01,601.244,1214.01"/></g></g><text font-family="American Typewriter" font-size="24" transform="matrix(1,0,0,1,219.525,1204.72)" xml:space="preserve"><tspan>surface domain wall</tspan></text><path fill="none" stroke="#000" d="M310.917,1189.65 L273.368,1160.28"/><g><path fill="none" stroke="#000" stroke-width="2" d="M922.619,1259.44 L922.619,1042.04"/><path fill="none" stroke="#000" stroke-width="2" d="M917.619,1052.04 L922.619,1042.04 L927.619,1052.04"/></g><g><path fill="#c9c9c9" fill-opacity="0.44" stroke="#000" stroke-width="3" d="M876.885,1096.09 L923.232,1152.98 L969.579,1096.09"/><path fill="#bcbcbc" fill-opacity="0.5" stroke="#000" stroke-width="3" d="M969.579,1096.09 C969.579,1100.95,948.829,1104.89,923.232,1104.89 C897.635,1104.89,876.885,1100.95,876.885,1096.09 C876.885,1091.23,897.635,1087.29,923.232,1087.29 C948.829,1087.29,969.579,1091.23,969.579,1096.09 Z"/></g><g><path fill="#c9c9c9" fill-opacity="0.44" stroke="#000" stroke-width="3" d="M876.566,1209.88 L922.913,1153 L969.26,1209.88"/><path fill="#bcbcbc" fill-opacity="0.5" stroke="#000" stroke-width="3" d="M969.26,1209.88 C969.26,1205.02,948.51,1201.08,922.913,1201.08 C897.316,1201.08,876.566,1205.02,876.566,1209.88 C876.566,1214.74,897.316,1218.68,922.913,1218.68 C948.51,1218.68,969.26,1214.74,969.26,1209.88 Z"/></g><g clip-path="url(#7fc8751ae5e0)"><clipPath id="7fc8751ae5e0"><path fill="#000" fill-opacity="0.35" d="M1016.04,1187.13 L1037.05,1187.13 L1037.05,1165.13 L1016.04,1165.13 Z"/></clipPath><g clip-path="url(#7fc874363260)"><clipPath id="7fc874363260"><path fill="#000" fill-opacity="0.35" d="M1016.04,1187.13 L1038.04,1187.13 L1038.04,1165.13 L1016.04,1165.13 Z"/></clipPath><path fill="#000" d="M1021.69,1166.25 C1021.69,1166.23,1021.69,1165.99,1021.37,1165.99 C1020.84,1165.99,1019.08,1166.17,1018.47,1166.23 C1018.28,1166.25,1018.01,1166.28,1018.01,1166.71 C1018.01,1166.97,1018.23,1166.97,1018.6,1166.97 C1019.74,1166.97,1019.77,1167.16,1019.77,1167.4 L1019.72,1167.88 L1016.26,1181.59 C1016.15,1181.94,1016.15,1181.99,1016.15,1182.12 C1016.15,1182.68,1016.63,1182.79,1016.84,1182.79 C1017.16,1182.79,1017.51,1182.58,1017.67,1182.28 C1017.77,1182.07,1018.84,1177.68,1019,1177.06 C1019.8,1177.14,1021.77,1177.52,1021.77,1179.09 C1021.77,1179.27,1021.77,1179.35,1021.69,1179.59 C1021.63,1179.89,1021.58,1180.18,1021.58,1180.42 C1021.58,1181.83,1022.54,1182.79,1023.79,1182.79 C1024.51,1182.79,1025.15,1182.42,1025.65,1181.54 C1026.27,1180.47,1026.53,1179.17,1026.53,1179.11 C1026.53,1178.87,1026.32,1178.87,1026.24,1178.87 C1026,1178.87,1025.97,1178.98,1025.89,1179.3 C1025.44,1181.06,1024.88,1182.26,1023.84,1182.26 C1023.39,1182.26,1023.07,1181.99,1023.07,1181.14 C1023.07,1180.74,1023.15,1180.21,1023.26,1179.81 C1023.36,1179.41,1023.36,1179.3,1023.36,1179.06 C1023.36,1177.52,1021.85,1176.82,1019.82,1176.56 C1020.57,1176.13,1021.34,1175.39,1021.87,1174.8 C1023.02,1173.55,1024.11,1172.51,1025.28,1172.51 C1025.44,1172.51,1025.44,1172.51,1025.5,1172.54 C1025.79,1172.59,1025.81,1172.59,1026,1172.72 C1026.05,1172.75,1026.05,1172.78,1026.11,1172.83 C1024.96,1172.91,1024.75,1173.82,1024.75,1174.11 C1024.75,1174.48,1024.99,1174.93,1025.65,1174.93 C1026.27,1174.93,1026.96,1174.43,1026.96,1173.5 C1026.96,1172.78,1026.4,1171.98,1025.34,1171.98 C1024.67,1171.98,1023.58,1172.19,1021.85,1174.08 C1021.05,1174.99,1020.12,1175.95,1019.21,1176.29 L1021.69,1166.25"/><path fill="#000" d="M1031.43,1184.36 C1031.25,1184.92,1030.71,1185.82,1029.84,1185.82 C1029.81,1185.82,1029.3,1185.82,1028.93,1185.58 C1029.62,1185.37,1029.68,1184.76,1029.68,1184.68 C1029.68,1184.31,1029.38,1184.04,1029.01,1184.04 C1028.53,1184.04,1028.05,1184.44,1028.05,1185.08 C1028.05,1185.9,1028.98,1186.3,1029.81,1186.3 C1030.58,1186.3,1031.27,1185.8,1031.7,1185.11 C1032.1,1185.98,1033.03,1186.3,1033.7,1186.3 C1035.64,1186.3,1036.65,1184.2,1036.65,1183.72 C1036.65,1183.51,1036.44,1183.51,1036.39,1183.51 C1036.15,1183.51,1036.15,1183.59,1036.07,1183.8 C1035.72,1184.95,1034.71,1185.82,1033.78,1185.82 C1033.08,1185.82,1032.74,1185.37,1032.74,1184.73 C1032.74,1184.31,1033.14,1182.76,1033.62,1180.9 C1033.96,1179.62,1034.71,1179.19,1035.27,1179.19 C1035.29,1179.19,1035.83,1179.19,1036.17,1179.43 C1035.64,1179.57,1035.43,1180.05,1035.43,1180.34 C1035.43,1180.71,1035.72,1180.98,1036.09,1180.98 C1036.49,1180.98,1037.05,1180.66,1037.05,1179.94 C1037.05,1179.01,1035.96,1178.71,1035.29,1178.71 C1034.47,1178.71,1033.78,1179.27,1033.4,1179.91 C1033.11,1179.22,1032.34,1178.71,1031.41,1178.71 C1029.52,1178.71,1028.42,1180.79,1028.42,1181.3 C1028.42,1181.51,1028.66,1181.51,1028.72,1181.51 C1028.93,1181.51,1028.96,1181.43,1029.04,1181.22 C1029.46,1179.91,1030.53,1179.19,1031.35,1179.19 C1031.91,1179.19,1032.37,1179.49,1032.37,1180.29 C1032.37,1180.63,1032.15,1181.48,1031.99,1182.04 L1031.43,1184.36"/></g></g><g clip-path="url(#7fc87436a200)"><clipPath id="7fc87436a200"><path fill="#000" fill-opacity="0.35" d="M994.812,1102.64 L1015.82,1102.64 L1015.82,1077.63 L994.812,1077.63 Z"/></clipPath><g clip-path="url(#7fc87512acd0)"><clipPath id="7fc87512acd0"><path fill="#000" fill-opacity="0.35" d="M994.812,1102.64 L1015.81,1102.64 L1015.81,1077.64 L994.812,1077.64 Z"/></clipPath><path fill="#000" d="M1000.75,1078.75 C1000.75,1078.73,1000.75,1078.49,1000.46,1078.49 C999.898,1078.49,998.167,1078.67,997.528,1078.73 C997.342,1078.75,997.076,1078.78,997.076,1079.21 C997.076,1079.5,997.289,1079.5,997.662,1079.5 C998.807,1079.5,998.86,1079.66,998.86,1079.9 L998.78,1080.38 L995.318,1094.12 C995.212,1094.44,995.212,1094.49,995.212,1094.62 C995.212,1095.18,995.691,1095.29,995.904,1095.29 C996.224,1095.29,996.596,1095.08,996.73,1094.81 C996.836,1094.6,997.928,1090.18,998.061,1089.59 C998.86,1089.64,1000.83,1090.04,1000.83,1091.61 C1000.83,1091.77,1000.83,1091.85,1000.75,1092.09 C1000.7,1092.39,1000.67,1092.68,1000.67,1092.94 C1000.67,1094.36,1001.6,1095.29,1002.85,1095.29 C1003.57,1095.29,1004.21,1094.92,1004.74,1094.04 C1005.33,1093,1005.6,1091.67,1005.6,1091.64 C1005.6,1091.4,1005.38,1091.4,1005.3,1091.4 C1005.06,1091.4,1005.04,1091.48,1004.98,1091.83 C1004.5,1093.56,1003.95,1094.78,1002.91,1094.78 C1002.45,1094.78,1002.13,1094.52,1002.13,1093.66 C1002.13,1093.24,1002.24,1092.71,1002.32,1092.33 C1002.43,1091.91,1002.43,1091.83,1002.43,1091.59 C1002.43,1090.04,1000.91,1089.35,998.886,1089.08 C999.632,1088.66,1000.4,1087.89,1000.94,1087.3 C1002.08,1086.05,1003.2,1085.04,1004.35,1085.04 C1004.5,1085.04,1004.53,1085.04,1004.56,1085.04 C1004.85,1085.09,1004.88,1085.09,1005.06,1085.25 C1005.12,1085.25,1005.12,1085.28,1005.17,1085.33 C1004.03,1085.41,1003.81,1086.34,1003.81,1086.61 C1003.81,1087.01,1004.08,1087.46,1004.72,1087.46 C1005.33,1087.46,1006.02,1086.93,1006.02,1086 C1006.02,1085.28,1005.49,1084.5,1004.4,1084.5 C1003.73,1084.5,1002.64,1084.69,1000.94,1086.61 C1000.11,1087.51,999.179,1088.44,998.274,1088.82 L1000.75,1078.75"/><path fill="#000" d="M1015.66,1092.31 C1015.71,1092.07,1015.71,1092.04,1015.71,1091.93 C1015.71,1091.59,1015.45,1091.4,1015.18,1091.4 C1015,1091.4,1014.68,1091.48,1014.49,1091.8 C1014.44,1091.91,1014.3,1092.44,1014.22,1092.76 L1013.85,1094.17 C1013.77,1094.57,1013.24,1096.7,1013.19,1096.86 C1013.16,1096.86,1012.44,1098.32,1011.11,1098.32 C1009.96,1098.32,1009.96,1097.23,1009.96,1096.94 C1009.96,1096.03,1010.36,1094.97,1010.87,1093.66 C1011.08,1093.13,1011.16,1092.94,1011.16,1092.65 C1011.16,1091.85,1010.47,1091.21,1009.56,1091.21 C1007.86,1091.21,1007.11,1093.5,1007.11,1093.8 C1007.11,1094.01,1007.33,1094.01,1007.38,1094.01 C1007.62,1094.01,1007.65,1093.93,1007.7,1093.74 C1008.1,1092.36,1008.85,1091.69,1009.51,1091.69 C1009.8,1091.69,1009.94,1091.88,1009.94,1092.28 C1009.94,1092.68,1009.78,1093.02,1009.7,1093.26 C1008.9,1095.31,1008.71,1095.93,1008.71,1096.67 C1008.71,1096.97,1008.71,1097.74,1009.38,1098.27 C1009.88,1098.72,1010.6,1098.8,1011.06,1098.8 C1011.72,1098.8,1012.33,1098.56,1012.89,1098.06 C1012.68,1098.96,1012.49,1099.68,1011.77,1100.51 C1011.32,1101.04,1010.66,1101.6,1009.75,1101.6 C1009.64,1101.6,1008.85,1101.6,1008.5,1101.04 C1009.4,1100.93,1009.4,1100.13,1009.4,1100.11 C1009.4,1099.58,1008.92,1099.47,1008.77,1099.47 C1008.34,1099.47,1007.78,1099.81,1007.78,1100.59 C1007.78,1101.44,1008.58,1102.05,1009.78,1102.05 C1011.48,1102.05,1013.53,1100.75,1014.06,1098.64 L1015.66,1092.31"/></g></g><g clip-path="url(#7fc874395b20)"><clipPath id="7fc874395b20"><path fill="#000" fill-opacity="0.35" d="M913.045,1031.37 L931.045,1031.37 L931.045,1014.38 L913.045,1014.38 Z"/></clipPath><g clip-path="url(#7fc874367820)"><clipPath id="7fc874367820"><path fill="#000" fill-opacity="0.35" d="M913.045,1031.37 L931.045,1031.37 L931.045,1014.37 L913.045,1014.37 Z"/></clipPath><path fill="#000" d="M929.021,1025.22 C929.075,1025.08,929.155,1024.92,929.155,1024.87 C929.155,1024.84,929.155,1024.6,928.862,1024.6 C928.649,1024.6,928.595,1024.76,928.542,1024.9 C926.998,1028.44,926.119,1030.03,922.045,1030.03 L918.557,1030.03 C918.237,1030.03,918.184,1030.03,918.024,1030.01 C917.785,1029.98,917.731,1029.95,917.731,1029.77 C917.731,1029.69,917.731,1029.64,917.838,1029.21 L919.462,1022.71 L921.832,1022.71 C923.856,1022.71,923.856,1023.22,923.856,1023.8 C923.856,1023.96,923.856,1024.26,923.696,1024.98 C923.643,1025.08,923.616,1025.16,923.616,1025.24 C923.616,1025.35,923.696,1025.51,923.936,1025.51 C924.122,1025.51,924.175,1025.37,924.282,1025.03 L925.64,1019.44 C925.64,1019.3,925.533,1019.17,925.347,1019.17 C925.134,1019.17,925.081,1019.33,925.027,1019.6 C924.521,1021.41,924.095,1021.97,921.885,1021.97 L919.649,1021.97 L921.087,1016.22 C921.3,1015.39,921.326,1015.28,922.365,1015.28 L925.746,1015.28 C928.649,1015.28,929.368,1015.98,929.368,1017.95 C929.368,1018.51,929.368,1018.56,929.261,1019.2 C929.261,1019.36,929.235,1019.52,929.235,1019.62 C929.235,1019.76,929.314,1019.92,929.527,1019.92 C929.794,1019.92,929.82,1019.78,929.874,1019.33 L930.326,1015.2 C930.406,1014.56,930.3,1014.56,929.687,1014.56 L917.652,1014.56 C917.172,1014.56,916.933,1014.56,916.933,1015.02 C916.933,1015.28,917.146,1015.28,917.598,1015.28 C918.477,1015.28,919.143,1015.28,919.143,1015.71 C919.143,1015.82,919.143,1015.87,919.036,1016.29 L915.894,1028.92 C915.654,1029.85,915.601,1030.03,913.711,1030.03 C913.311,1030.03,913.045,1030.03,913.045,1030.49 C913.045,1030.75,913.258,1030.75,913.711,1030.75 L926.092,1030.75 C926.652,1030.75,926.678,1030.75,926.838,1030.35 L929.021,1025.22"/></g></g><g><g><path fill="none" stroke="#000" stroke-width="2" d="M818,1153.61 L1028.67,1153.75"/><path fill="none" stroke="#000" stroke-width="2" d="M1018.67,1148.74 L1028.67,1153.75 L1018.66,1158.74"/></g><g><path fill="none" stroke="#000" stroke-width="2" d="M854,1209.81 L988,1097.83"/><path fill="none" stroke="#000" stroke-width="2" d="M977.12,1100.41 L988,1097.83 L983.533,1108.08"/></g></g><text font-family="American Typewriter" font-size="24" transform="matrix(1,0,0,1,829.867,995.785)" xml:space="preserve"><tspan>surface dispersion</tspan></text></g><g><path fill="#000" d="M64.7532,1787.37 C64.7532,1785.76,64.6633,1784.15,63.9444,1782.65 C63.0158,1780.7,61.3682,1780.39,60.5144,1780.39 C59.3012,1780.39,57.8334,1780.91,56.9946,1782.78 C56.3506,1784.18,56.2457,1785.75,56.2457,1787.37 C56.2457,1788.89,56.3356,1790.71,57.1594,1792.23 C58.0281,1793.88,59.5109,1794.29,60.4995,1794.29 C61.5779,1794.29,63.1206,1793.85,64.0043,1791.94 C64.6633,1790.54,64.7532,1788.97,64.7532,1787.37 Z M60.4995,1793.84 C59.7056,1793.84,58.5224,1793.33,58.1479,1791.4 C57.9232,1790.18,57.9232,1788.33,57.9232,1787.13 C57.9232,1785.84,57.9232,1784.51,58.088,1783.41 C58.4775,1781.02,59.9902,1780.82,60.4995,1780.82 C61.1585,1780.82,62.4915,1781.2,62.8809,1783.19 C63.0757,1784.33,63.0757,1785.85,63.0757,1787.13 C63.0757,1788.64,63.0757,1790.02,62.866,1791.31 C62.5515,1793.24,61.3981,1793.84,60.4995,1793.84"/><path fill="none" stroke="#000" stroke-width="1.5" d="M61.1666,1589.93 L242,1589.93 L242,1768.92 L61.1666,1768.92 Z"/><path fill="none" stroke="#000" stroke-width="1.5" d="M242,1768.92 L312,1696.64"/><path fill="none" stroke="#000" stroke-width="1.5" stroke-dasharray="2" d="M61.1666,1768.92 L132.917,1696.64"/><path fill="none" stroke="#000" stroke-width="1.5" d="M61.1666,1589.93 L132.917,1518.08"/><path fill="none" stroke="#000" stroke-width="1.5" d="M242,1589.93 L312,1518.08"/><path fill="none" stroke="#000" stroke-width="1.5" stroke-dasharray="2" d="M132.917,1518.08 L132.917,1696.64"/><path fill="none" stroke="#000" stroke-width="1.5" stroke-dasharray="2" d="M132.917,1697.64 L312,1697.64"/><path fill="none" stroke="#000" stroke-width="1.5" d="M132.917,1518.08 L312,1518.08"/><path fill="none" stroke="#000" stroke-width="1.5" d="M312,1518.08 L312,1696.64"/><g clip-path="url(#7fc8750e76b0)"><clipPath id="7fc8750e76b0"><path fill="#000" fill-opacity="0.35" d="M147.108,1798.32 L168.117,1798.32 L168.117,1776.33 L147.108,1776.33 Z"/></clipPath><g clip-path="url(#7fc8750f1fe0)"><clipPath id="7fc8750f1fe0"><path fill="#000" fill-opacity="0.35" d="M147.108,1798.32 L169.108,1798.32 L169.108,1776.32 L147.108,1776.32 Z"/></clipPath><path fill="#000" d="M152.753,1777.44 C152.753,1777.42,152.753,1777.18,152.433,1777.18 C151.901,1777.18,150.144,1777.36,149.531,1777.42 C149.345,1777.44,149.078,1777.47,149.078,1777.9 C149.078,1778.16,149.291,1778.16,149.664,1778.16 C150.809,1778.16,150.836,1778.35,150.836,1778.59 L150.783,1779.07 L147.321,1792.78 C147.215,1793.13,147.215,1793.18,147.215,1793.31 C147.215,1793.87,147.694,1793.98,147.907,1793.98 C148.226,1793.98,148.573,1793.77,148.732,1793.47 C148.839,1793.26,149.904,1788.87,150.064,1788.26 C150.862,1788.34,152.833,1788.71,152.833,1790.28 C152.833,1790.47,152.833,1790.55,152.753,1790.78 C152.7,1791.08,152.647,1791.37,152.647,1791.61 C152.647,1793.02,153.605,1793.98,154.857,1793.98 C155.576,1793.98,156.215,1793.61,156.721,1792.73 C157.333,1791.66,157.599,1790.36,157.599,1790.31 C157.599,1790.07,157.386,1790.07,157.306,1790.07 C157.067,1790.07,157.04,1790.17,156.96,1790.49 C156.508,1792.25,155.948,1793.45,154.91,1793.45 C154.457,1793.45,154.138,1793.18,154.138,1792.33 C154.138,1791.93,154.218,1791.4,154.324,1791 C154.431,1790.6,154.431,1790.49,154.431,1790.25 C154.431,1788.71,152.913,1788.02,150.889,1787.75 C151.635,1787.32,152.407,1786.58,152.939,1785.99 C154.084,1784.74,155.176,1783.7,156.348,1783.7 C156.508,1783.7,156.508,1783.7,156.561,1783.73 C156.854,1783.78,156.88,1783.78,157.067,1783.92 C157.12,1783.94,157.12,1783.97,157.173,1784.02 C156.028,1784.1,155.815,1785.01,155.815,1785.3 C155.815,1785.67,156.055,1786.13,156.721,1786.13 C157.333,1786.13,158.025,1785.62,158.025,1784.69 C158.025,1783.97,157.466,1783.17,156.401,1783.17 C155.735,1783.17,154.644,1783.38,152.913,1785.27 C152.114,1786.18,151.182,1787.14,150.277,1787.48 L152.753,1777.44"/><path fill="#000" d="M162.499,1795.55 C162.312,1796.11,161.78,1797.02,160.901,1797.02 C160.874,1797.02,160.368,1797.02,159.996,1796.78 C160.688,1796.56,160.741,1795.95,160.741,1795.87 C160.741,1795.5,160.448,1795.23,160.076,1795.23 C159.596,1795.23,159.117,1795.63,159.117,1796.27 C159.117,1797.1,160.049,1797.5,160.874,1797.5 C161.647,1797.5,162.339,1796.99,162.765,1796.3 C163.164,1797.18,164.096,1797.5,164.762,1797.5 C166.706,1797.5,167.718,1795.39,167.718,1794.91 C167.718,1794.7,167.505,1794.7,167.451,1794.7 C167.212,1794.7,167.212,1794.78,167.132,1794.99 C166.786,1796.14,165.774,1797.02,164.842,1797.02 C164.15,1797.02,163.803,1796.56,163.803,1795.92 C163.803,1795.5,164.203,1793.95,164.682,1792.09 C165.028,1790.81,165.774,1790.39,166.333,1790.39 C166.36,1790.39,166.892,1790.39,167.238,1790.63 C166.706,1790.76,166.493,1791.24,166.493,1791.53 C166.493,1791.9,166.786,1792.17,167.159,1792.17 C167.558,1792.17,168.117,1791.85,168.117,1791.13 C168.117,1790.2,167.025,1789.91,166.36,1789.91 C165.534,1789.91,164.842,1790.47,164.469,1791.1 C164.176,1790.41,163.404,1789.91,162.472,1789.91 C160.581,1789.91,159.49,1791.98,159.49,1792.49 C159.49,1792.7,159.729,1792.7,159.783,1792.7 C159.996,1792.7,160.022,1792.62,160.102,1792.41 C160.528,1791.1,161.593,1790.39,162.419,1790.39 C162.978,1790.39,163.431,1790.68,163.431,1791.48 C163.431,1791.82,163.218,1792.68,163.058,1793.23 L162.499,1795.55"/></g></g><g clip-path="url(#7fc8750d5e30)"><clipPath id="7fc8750d5e30"><path fill="#000" fill-opacity="0.35" d="M36.5619,1692.27 L57.5709,1692.27 L57.5709,1670.27 L36.5619,1670.27 Z"/></clipPath><g clip-path="url(#7fc87509a7c0)"><clipPath id="7fc87509a7c0"><path fill="#000" fill-opacity="0.35" d="M36.5619,1692.27 L57.5619,1692.27 L57.5619,1670.27 L36.5619,1670.27 Z"/></clipPath><path fill="#000" d="M42.7128,1671.39 C42.7128,1671.37,42.7128,1671.13,42.3933,1671.13 C41.8341,1671.13,40.1033,1671.31,39.4909,1671.37 C39.3045,1671.39,39.0382,1671.42,39.0382,1671.85 C39.0382,1672.11,39.2512,1672.11,39.5974,1672.11 C40.7424,1672.11,40.7956,1672.3,40.7956,1672.54 L40.7157,1673.02 L37.2808,1686.73 C37.1743,1687.08,37.1743,1687.13,37.1743,1687.26 C37.1743,1687.82,37.6536,1687.93,37.8666,1687.93 C38.1861,1687.93,38.5323,1687.72,38.6654,1687.42 C38.7986,1687.21,39.8637,1682.82,40.0234,1682.2 C40.8223,1682.28,42.7661,1682.66,42.7661,1684.23 C42.7661,1684.41,42.7661,1684.49,42.7128,1684.73 C42.6595,1685.03,42.6063,1685.32,42.6063,1685.56 C42.6063,1686.97,43.5649,1687.93,44.8164,1687.93 C45.5087,1687.93,46.1744,1687.56,46.6803,1686.68 C47.2927,1685.61,47.559,1684.31,47.559,1684.25 C47.559,1684.01,47.3193,1684.01,47.2661,1684.01 C47.0265,1684.01,46.9998,1684.12,46.9199,1684.44 C46.4407,1686.2,45.9081,1687.4,44.843,1687.4 C44.3903,1687.4,44.0974,1687.13,44.0974,1686.28 C44.0974,1685.88,44.1773,1685.35,44.2838,1684.95 C44.3637,1684.55,44.3637,1684.44,44.3637,1684.2 C44.3637,1682.66,42.8726,1681.96,40.8489,1681.7 C41.5944,1681.27,42.34,1680.53,42.8992,1679.94 C44.0442,1678.69,45.1359,1677.65,46.3075,1677.65 C46.4407,1677.65,46.4672,1677.65,46.5205,1677.68 C46.8135,1677.73,46.84,1677.73,47.0265,1677.86 C47.0797,1677.89,47.0797,1677.92,47.1064,1677.97 C45.9614,1678.05,45.7484,1678.96,45.7484,1679.25 C45.7484,1679.62,46.0146,1680.07,46.6537,1680.07 C47.2927,1680.07,47.985,1679.57,47.985,1678.64 C47.985,1677.92,47.4259,1677.12,46.3608,1677.12 C45.6951,1677.12,44.5767,1677.33,42.8726,1679.22 C42.0737,1680.13,41.1418,1681.09,40.2364,1681.43 L42.7128,1671.39"/><path fill="#000" d="M51.1803,1689.79 C51.633,1689.34,51.9259,1689.02,53.3638,1687.9 C53.7099,1687.61,54.9614,1686.6,55.4674,1686.12 C56.4792,1685.11,57.1182,1684.25,57.1182,1684.07 C57.1182,1683.85,56.9053,1683.85,56.8254,1683.85 C56.6922,1683.85,56.6389,1683.88,56.5591,1684.01 C56.0265,1684.79,55.6804,1685.05,55.2809,1685.05 C55.0679,1685.05,54.8283,1685.03,54.3224,1684.55 C53.7366,1683.96,53.3638,1683.85,52.991,1683.85 C51.633,1683.85,50.7276,1685.32,50.7276,1685.83 C50.7276,1685.99,50.9141,1686.01,51.0205,1686.01 C51.2336,1686.01,51.2602,1685.99,51.3135,1685.8 C51.5797,1685.21,52.5117,1685.16,52.778,1685.16 C53.1774,1685.16,53.6034,1685.27,53.8431,1685.32 C54.7751,1685.53,54.8815,1685.53,55.3076,1685.53 C54.8815,1685.99,54.562,1686.28,52.9644,1687.56 C51.6596,1688.59,51.207,1689.02,50.8874,1689.34 C49.8756,1690.35,49.3963,1691.1,49.3963,1691.23 C49.3963,1691.44,49.6093,1691.44,49.6626,1691.44 C49.849,1691.44,49.8756,1691.42,49.9554,1691.26 C50.4081,1690.62,50.9407,1690.25,51.4999,1690.25 C51.7129,1690.25,51.9525,1690.27,52.4052,1690.67 C52.9377,1691.18,53.2839,1691.44,53.8164,1691.44 C55.6005,1691.44,56.7455,1689.39,56.7455,1688.83 C56.7455,1688.62,56.5591,1688.62,56.4526,1688.62 C56.2396,1688.62,56.2129,1688.7,56.1597,1688.89 C55.8401,1689.71,54.8283,1690.14,54.0028,1690.14 C53.6301,1690.14,53.204,1690.03,52.778,1689.95 C52.0057,1689.77,51.8726,1689.77,51.5797,1689.77 C51.5531,1689.77,51.2869,1689.77,51.1803,1689.79"/></g></g><g clip-path="url(#7fc8747f8c00)"><clipPath id="7fc8747f8c00"><path fill="#000" fill-opacity="0.35" d="M285.878,1752.02 L306.887,1752.02 L306.887,1727.02 L285.878,1727.02 Z"/></clipPath><g clip-path="url(#7fc875007160)"><clipPath id="7fc875007160"><path fill="#000" fill-opacity="0.35" d="M285.878,1752.02 L306.878,1752.02 L306.878,1727.02 L285.878,1727.02 Z"/></clipPath><path fill="#000" d="M291.816,1728.14 C291.816,1728.11,291.816,1727.87,291.523,1727.87 C290.964,1727.87,289.233,1728.06,288.594,1728.11 C288.408,1728.14,288.141,1728.16,288.141,1728.59 C288.141,1728.88,288.354,1728.88,288.727,1728.88 C289.872,1728.88,289.925,1729.04,289.925,1729.28 L289.845,1729.76 L286.384,1743.5 C286.277,1743.82,286.277,1743.87,286.277,1744.01 C286.277,1744.57,286.757,1744.67,286.97,1744.67 C287.289,1744.67,287.662,1744.46,287.795,1744.19 C287.902,1743.98,288.993,1739.56,289.127,1738.97 C289.925,1739.03,291.896,1739.43,291.896,1741 C291.896,1741.16,291.896,1741.24,291.816,1741.48 C291.763,1741.77,291.736,1742.06,291.736,1742.33 C291.736,1743.74,292.668,1744.67,293.92,1744.67 C294.638,1744.67,295.278,1744.3,295.81,1743.42 C296.396,1742.38,296.662,1741.05,296.662,1741.02 C296.662,1740.78,296.449,1740.78,296.369,1740.78 C296.13,1740.78,296.103,1740.86,296.05,1741.21 C295.57,1742.94,295.011,1744.17,293.973,1744.17 C293.52,1744.17,293.201,1743.9,293.201,1743.05 C293.201,1742.62,293.307,1742.09,293.387,1741.72 C293.493,1741.29,293.493,1741.21,293.493,1740.97 C293.493,1739.43,291.976,1738.73,289.952,1738.47 C290.698,1738.04,291.47,1737.27,292.002,1736.68 C293.147,1735.43,294.266,1734.42,295.411,1734.42 C295.57,1734.42,295.597,1734.42,295.624,1734.42 C295.917,1734.47,295.943,1734.47,296.13,1734.63 C296.183,1734.63,296.183,1734.66,296.236,1734.71 C295.091,1734.79,294.878,1735.73,294.878,1735.99 C294.878,1736.39,295.144,1736.84,295.783,1736.84 C296.396,1736.84,297.088,1736.31,297.088,1735.38 C297.088,1734.66,296.556,1733.89,295.464,1733.89 C294.798,1733.89,293.706,1734.07,292.002,1735.99 C291.177,1736.9,290.245,1737.83,289.34,1738.2 L291.816,1728.14"/><path fill="#000" d="M306.727,1741.69 C306.781,1741.45,306.781,1741.42,306.781,1741.32 C306.781,1740.97,306.514,1740.78,306.248,1740.78 C306.062,1740.78,305.742,1740.86,305.556,1741.18 C305.502,1741.29,305.369,1741.82,305.289,1742.14 L304.917,1743.55 C304.837,1743.95,304.304,1746.08,304.251,1746.24 C304.224,1746.24,303.505,1747.71,302.174,1747.71 C301.029,1747.71,301.029,1746.62,301.029,1746.32 C301.029,1745.42,301.428,1744.35,301.934,1743.05 C302.147,1742.52,302.227,1742.33,302.227,1742.04 C302.227,1741.24,301.535,1740.6,300.63,1740.6 C298.925,1740.6,298.18,1742.89,298.18,1743.18 C298.18,1743.39,298.393,1743.39,298.446,1743.39 C298.686,1743.39,298.712,1743.31,298.766,1743.13 C299.165,1741.74,299.911,1741.08,300.576,1741.08 C300.869,1741.08,301.002,1741.26,301.002,1741.66 C301.002,1742.06,300.843,1742.41,300.763,1742.65 C299.964,1744.7,299.778,1745.31,299.778,1746.06 C299.778,1746.35,299.778,1747.12,300.443,1747.65 C300.949,1748.11,301.668,1748.19,302.121,1748.19 C302.786,1748.19,303.399,1747.95,303.958,1747.44 C303.745,1748.35,303.559,1749.07,302.84,1749.89 C302.387,1750.42,301.721,1750.98,300.816,1750.98 C300.709,1750.98,299.911,1750.98,299.564,1750.42 C300.47,1750.32,300.47,1749.52,300.47,1749.49 C300.47,1748.96,299.991,1748.85,299.831,1748.85 C299.405,1748.85,298.846,1749.2,298.846,1749.97 C298.846,1750.82,299.644,1751.44,300.843,1751.44 C302.547,1751.44,304.597,1750.13,305.13,1748.03 L306.727,1741.69"/></g></g><g clip-path="url(#7fc874775840)"><clipPath id="7fc874775840"><path fill="#000" fill-opacity="0.35" d="M233.554,1792.74 L246.548,1792.74 L246.548,1781.74 L233.554,1781.74 Z"/></clipPath><g clip-path="url(#7fc874220000)"><clipPath id="7fc874220000"><path fill="#000" fill-opacity="0.35" d="M233.554,1792.74 L246.554,1792.74 L246.554,1781.74 L233.554,1781.74 Z"/></clipPath><path fill="#000" d="M239.279,1783.45 L241.968,1783.45 C241.169,1786.99,240.956,1788,240.956,1789.6 C240.956,1789.95,240.956,1790.61,241.143,1791.41 C241.382,1792.45,241.649,1792.61,242.022,1792.61 C242.501,1792.61,242.98,1792.18,242.98,1791.7 C242.98,1791.54,242.98,1791.52,242.847,1791.17 C242.155,1789.47,242.155,1787.9,242.155,1787.23 C242.155,1785.98,242.314,1784.7,242.581,1783.45 L245.297,1783.45 C245.616,1783.45,246.468,1783.45,246.468,1782.65 C246.468,1782.06,245.962,1782.06,245.51,1782.06 L237.521,1782.06 C237.016,1782.06,236.11,1782.06,235.045,1783.18 C234.22,1784.11,233.607,1785.21,233.607,1785.34 C233.607,1785.37,233.607,1785.58,233.874,1785.58 C234.06,1785.58,234.113,1785.47,234.273,1785.29 C235.445,1783.45,236.803,1783.45,237.282,1783.45 L238.64,1783.45 C237.894,1786.32,236.59,1789.23,235.604,1791.38 C235.418,1791.76,235.418,1791.78,235.418,1791.97 C235.418,1792.42,235.791,1792.61,236.11,1792.61 C236.803,1792.61,237.016,1791.94,237.282,1791.06 C237.628,1789.95,237.628,1789.92,237.921,1788.72 L239.279,1783.45"/></g></g><g clip-path="url(#7fc87421f540)"><clipPath id="7fc87421f540"><path fill="#000" fill-opacity="0.35" d="M320.086,1703.88 L333.08,1703.88 L333.08,1692.88 L320.086,1692.88 Z"/></clipPath><g clip-path="url(#7fc87505cee0)"><clipPath id="7fc87505cee0"><path fill="#000" fill-opacity="0.35" d="M320.086,1703.88 L333.086,1703.88 L333.086,1692.88 L320.086,1692.88 Z"/></clipPath><path fill="#000" d="M325.811,1694.58 L328.5,1694.58 C327.701,1698.13,327.488,1699.14,327.488,1700.74 C327.488,1701.08,327.488,1701.75,327.675,1702.55 C327.914,1703.59,328.18,1703.74,328.553,1703.74 C329.033,1703.74,329.512,1703.32,329.512,1702.84 C329.512,1702.68,329.512,1702.65,329.379,1702.31 C328.686,1700.6,328.686,1699.03,328.686,1698.37 C328.686,1697.11,328.846,1695.84,329.112,1694.58 L331.828,1694.58 C332.148,1694.58,333,1694.58,333,1693.79 C333,1693.2,332.494,1693.2,332.041,1693.2 L324.053,1693.2 C323.547,1693.2,322.642,1693.2,321.577,1694.32 C320.751,1695.25,320.139,1696.34,320.139,1696.48 C320.139,1696.5,320.139,1696.72,320.405,1696.72 C320.592,1696.72,320.645,1696.61,320.805,1696.42 C321.976,1694.58,323.334,1694.58,323.814,1694.58 L325.172,1694.58 C324.426,1697.46,323.121,1700.36,322.136,1702.52 C321.95,1702.89,321.95,1702.92,321.95,1703.11 C321.95,1703.56,322.322,1703.74,322.642,1703.74 C323.334,1703.74,323.547,1703.08,323.814,1702.2 C324.16,1701.08,324.16,1701.06,324.453,1699.86 L325.811,1694.58"/></g></g><path fill="#000" d="M264.741,1770.31 C264.741,1768.7,264.651,1767.09,263.932,1765.59 C263.003,1763.64,261.356,1763.33,260.502,1763.33 C259.289,1763.33,257.821,1763.85,256.982,1765.72 C256.338,1767.12,256.233,1768.69,256.233,1770.31 C256.233,1771.83,256.323,1773.65,257.147,1775.17 C258.016,1776.82,259.499,1777.23,260.487,1777.23 C261.566,1777.23,263.108,1776.79,263.992,1774.87 C264.651,1773.48,264.741,1771.91,264.741,1770.31 Z M260.487,1776.78 C259.693,1776.78,258.51,1776.27,258.136,1774.33 C257.911,1773.12,257.911,1771.26,257.911,1770.07 C257.911,1768.78,257.911,1767.45,258.076,1766.35 C258.465,1763.96,259.978,1763.76,260.487,1763.76 C261.146,1763.76,262.479,1764.14,262.869,1766.13 C263.063,1767.27,263.063,1768.79,263.063,1770.07 C263.063,1771.58,263.063,1772.96,262.854,1774.25 C262.539,1776.18,261.386,1776.78,260.487,1776.78"/><path fill="#000" d="M51.4,1770.1 C51.4,1768.5,51.3102,1766.88,50.5912,1765.39 C49.6626,1763.44,48.015,1763.13,47.1612,1763.13 C45.948,1763.13,44.4802,1763.65,43.6414,1765.52 C42.9974,1766.91,42.8925,1768.49,42.8925,1770.1 C42.8925,1771.63,42.9824,1773.44,43.8062,1774.97 C44.6749,1776.62,46.1577,1777.02,47.1463,1777.02 C48.2247,1777.02,49.7674,1776.59,50.6511,1774.67 C51.3102,1773.28,51.4,1771.71,51.4,1770.1 Z M47.1463,1776.58 C46.3525,1776.58,45.1692,1776.07,44.7947,1774.13 C44.5701,1772.92,44.5701,1771.06,44.5701,1769.87 C44.5701,1768.58,44.5701,1767.24,44.7348,1766.15 C45.1243,1763.75,46.637,1763.56,47.1463,1763.56 C47.8053,1763.56,49.1383,1763.93,49.5278,1765.93 C49.7225,1767.06,49.7225,1768.59,49.7225,1769.87 C49.7225,1771.38,49.7225,1772.76,49.5128,1774.04 C49.1983,1775.98,48.0449,1776.58,47.1463,1776.58"/><g clip-path="url(#7fc875032ed0)"><clipPath id="7fc875032ed0"><path fill="#000" fill-opacity="0.35" d="M40.6625,1596.33 L53.6567,1596.33 L53.6567,1585.34 L40.6625,1585.34 Z"/></clipPath><g clip-path="url(#7fc874796bb0)"><clipPath id="7fc874796bb0"><path fill="#000" fill-opacity="0.35" d="M40.6625,1596.33 L53.6625,1596.33 L53.6625,1585.33 L40.6625,1585.33 Z"/></clipPath><path fill="#000" d="M46.3874,1587.04 L49.0768,1587.04 C48.2779,1590.58,48.0649,1591.59,48.0649,1593.19 C48.0649,1593.54,48.0649,1594.2,48.2513,1595 C48.491,1596.04,48.7572,1596.2,49.13,1596.2 C49.6093,1596.2,50.0886,1595.77,50.0886,1595.29 C50.0886,1595.14,50.0886,1595.11,49.9555,1594.76 C49.2632,1593.06,49.2632,1591.49,49.2632,1590.82 C49.2632,1589.57,49.4229,1588.29,49.6892,1587.04 L52.4052,1587.04 C52.7247,1587.04,53.5768,1587.04,53.5768,1586.24 C53.5768,1585.66,53.0709,1585.66,52.6182,1585.66 L44.63,1585.66 C44.124,1585.66,43.2187,1585.66,42.1536,1586.77 C41.3282,1587.71,40.7157,1588.8,40.7157,1588.93 C40.7157,1588.96,40.7157,1589.17,40.982,1589.17 C41.1684,1589.17,41.2217,1589.06,41.3814,1588.88 C42.553,1587.04,43.911,1587.04,44.3903,1587.04 L45.7483,1587.04 C45.0028,1589.92,43.698,1592.82,42.7128,1594.98 C42.5264,1595.35,42.5264,1595.37,42.5264,1595.56 C42.5264,1596.01,42.8992,1596.2,43.2187,1596.2 C43.911,1596.2,44.124,1595.53,44.3903,1594.66 C44.7365,1593.54,44.7365,1593.51,45.0294,1592.31 L46.3874,1587.04"/></g></g><path stroke="#000" stroke-width="2" d="M61.4994,1586.09 C59.2903,1586.09,57.4994,1587.88,57.4994,1590.09 C57.4994,1592.3,59.2903,1594.09,61.4994,1594.09 C63.7086,1594.09,65.4994,1592.3,65.4994,1590.09 C65.4994,1587.88,63.7086,1586.09,61.4994,1586.09 Z"/><path stroke="#000" stroke-width="2" d="M242,1585.66 C239.791,1585.66,238,1587.45,238,1589.66 C238,1591.86,239.791,1593.66,242,1593.66 C244.209,1593.66,246,1591.86,246,1589.66 C246,1587.45,244.209,1585.66,242,1585.66 Z"/><path stroke="#000" stroke-width="2" d="M242,1765.66 C239.791,1765.66,238,1767.45,238,1769.66 C238,1771.86,239.791,1773.66,242,1773.66 C244.209,1773.66,246,1771.86,246,1769.66 C246,1767.45,244.209,1765.66,242,1765.66 Z"/><path stroke="#000" stroke-width="2" d="M62,1765.66 C59.7909,1765.66,58,1767.45,58,1769.66 C58,1771.86,59.7909,1773.66,62,1773.66 C64.2091,1773.66,66,1771.86,66,1769.66 C66,1767.45,64.2091,1765.66,62,1765.66 Z"/><path stroke="#000" stroke-width="2" d="M134,1693.66 C131.791,1693.66,130,1695.45,130,1697.66 C130,1699.86,131.791,1701.66,134,1701.66 C136.209,1701.66,138,1699.86,138,1697.66 C138,1695.45,136.209,1693.66,134,1693.66 Z"/><path stroke="#000" stroke-width="2" d="M314,1693.66 C311.791,1693.66,310,1695.45,310,1697.66 C310,1699.86,311.791,1701.66,314,1701.66 C316.209,1701.66,318,1699.86,318,1697.66 C318,1695.45,316.209,1693.66,314,1693.66 Z"/><path stroke="#000" stroke-width="2" d="M312,1513.66 C309.791,1513.66,308,1515.45,308,1517.66 C308,1519.86,309.791,1521.66,312,1521.66 C314.209,1521.66,316,1519.86,316,1517.66 C316,1515.45,314.209,1513.66,312,1513.66 Z"/><path stroke="#000" stroke-width="2" d="M134,1513.66 C131.791,1513.66,130,1515.45,130,1517.66 C130,1519.86,131.791,1521.66,134,1521.66 C136.209,1521.66,138,1519.86,138,1517.66 C138,1515.45,136.209,1513.66,134,1513.66 Z"/></g></svg>
