<?xml version="1.0" encoding="UTF-8" standalone="no"?>
<!DOCTYPE svg PUBLIC "-//W3C//DTD SVG 1.1//EN" "http://www.w3.org/Graphics/SVG/1.1/DTD/svg11.dtd">
<!--Generated by Intaglio, www.PurgatoryDesign.com-->
<svg version="1.1" viewBox="175,43,235,556" width="235" height="556" xmlns="http://www.w3.org/2000/svg" xmlns:xlink="http://www.w3.org/1999/xlink"><defs><radialGradient id="7fc8725e0c00" gradientUnits="userSpaceOnUse"><stop offset="0" stop-color="#fff"/><stop offset="1" stop-color="#808080"/></radialGradient><linearGradient id="7fc874280530" gradientUnits="userSpaceOnUse"><stop offset="0" stop-color="#606060"/><stop offset="1" stop-color="#c0c0c0"/></linearGradient><linearGradient id="7fc875059c30" gradientUnits="userSpaceOnUse"><stop offset="0" stop-color="#707070"/><stop offset="1" stop-color="#c0c0c0"/></linearGradient><linearGradient id="7fc8747bf9d0" gradientUnits="userSpaceOnUse"><stop offset="0" stop-color="#d5d5d5"/><stop offset="1" stop-color="#c0c0c0"/></linearGradient></defs><g><path fill="none" stroke="#808080" d="M186.451,578.055 L397.85,578.055"/><path fill="none" stroke="#808080" d="M186.068,536.226 L397.468,536.226"/><path fill="none" stroke="#808080" d="M186.526,492.94 L397.925,492.94"/><path fill="none" stroke="#808080" d="M186.526,450.421 L397.925,450.421"/><path fill="none" stroke="#808080" d="M186.526,407.901 L397.925,407.901"/><radialGradient id="7fc874770710" xlink:href="#7fc8725e0c00" cx="182.478" cy="575.446" r="15.062"/><path fill="url(#7fc874770710)" stroke="#000" stroke-width="1.0001" d="M195.956,578.58 L195.956,578.58 C195.956,584.119,191.465,588.61,185.926,588.61 C180.387,588.61,175.896,584.119,175.896,578.58 L175.896,578.58 C175.896,573.041,180.387,568.55,185.926,568.55 C191.465,568.55,195.956,573.041,195.956,578.58 Z"/><radialGradient id="7fc8747f3f30" xlink:href="#7fc8725e0c00" cx="217.897" cy="575.446" r="15.062"/><path fill="url(#7fc8747f3f30)" stroke="#000" stroke-width="1.0001" d="M231.375,578.58 L231.375,578.58 C231.375,584.119,226.884,588.61,221.345,588.61 C215.805,588.61,211.315,584.119,211.315,578.58 L211.315,578.58 C211.315,573.041,215.805,568.55,221.345,568.55 C226.884,568.55,231.375,573.041,231.375,578.58 Z"/><radialGradient id="7fc875033530" xlink:href="#7fc8725e0c00" cx="253.316" cy="575.446" r="15.062"/><path fill="url(#7fc875033530)" stroke="#000" stroke-width="1.0001" d="M266.794,578.58 L266.794,578.58 C266.794,584.119,262.303,588.61,256.764,588.61 C251.224,588.61,246.734,584.119,246.734,578.58 L246.734,578.58 C246.734,573.041,251.224,568.55,256.764,568.55 C262.303,568.55,266.794,573.041,266.794,578.58 Z"/><radialGradient id="7fc8742d5a20" xlink:href="#7fc8725e0c00" cx="288.735" cy="575.446" r="15.062"/><path fill="url(#7fc8742d5a20)" stroke="#000" stroke-width="1.0001" d="M302.212,578.58 L302.212,578.58 C302.212,584.119,297.722,588.61,292.183,588.61 C286.643,588.61,282.153,584.119,282.153,578.58 L282.153,578.58 C282.153,573.041,286.643,568.55,292.183,568.55 C297.722,568.55,302.212,573.041,302.212,578.58 Z"/><radialGradient id="7fc87478b010" xlink:href="#7fc8725e0c00" cx="324.154" cy="575.446" r="15.062"/><path fill="url(#7fc87478b010)" stroke="#000" stroke-width="1.0001" d="M337.631,578.58 L337.631,578.58 C337.631,584.119,333.141,588.61,327.601,588.61 C322.062,588.61,317.572,584.119,317.572,578.58 L317.572,578.58 C317.572,573.041,322.062,568.55,327.601,568.55 C333.141,568.55,337.631,573.041,337.631,578.58 Z"/><radialGradient id="7fc875010000" xlink:href="#7fc8725e0c00" cx="359.573" cy="575.446" r="15.062"/><path fill="url(#7fc875010000)" stroke="#000" stroke-width="1.0001" d="M373.05,578.58 L373.05,578.58 C373.05,584.119,368.56,588.61,363.02,588.61 C357.481,588.61,352.99,584.119,352.99,578.58 L352.99,578.58 C352.99,573.041,357.481,568.55,363.02,568.55 C368.56,568.55,373.05,573.041,373.05,578.58 Z"/><radialGradient id="7fc87506a470" xlink:href="#7fc8725e0c00" cx="394.991" cy="575.446" r="15.062"/><path fill="url(#7fc87506a470)" stroke="#000" stroke-width="1.0001" d="M408.469,578.58 L408.469,578.58 C408.469,584.119,403.979,588.61,398.439,588.61 C392.9,588.61,388.409,584.119,388.409,578.58 L388.409,578.58 C388.409,573.041,392.9,568.55,398.439,568.55 C403.979,568.55,408.469,573.041,408.469,578.58 Z"/><radialGradient id="7fc875044a10" xlink:href="#7fc8725e0c00" cx="182.478" cy="532.926" r="15.062"/><path fill="url(#7fc875044a10)" stroke="#000" stroke-width="1.0001" d="M195.956,536.06 L195.956,536.06 C195.956,541.6,191.465,546.09,185.926,546.09 C180.387,546.09,175.896,541.6,175.896,536.06 L175.896,536.06 C175.896,530.521,180.387,526.03,185.926,526.03 C191.465,526.03,195.956,530.521,195.956,536.06 Z"/><radialGradient id="7fc8725bd760" xlink:href="#7fc8725e0c00" cx="217.897" cy="532.926" r="15.062"/><path fill="url(#7fc8725bd760)" stroke="#000" stroke-width="1.0001" d="M231.375,536.06 L231.375,536.06 C231.375,541.6,226.884,546.09,221.345,546.09 C215.805,546.09,211.315,541.6,211.315,536.06 L211.315,536.06 C211.315,530.521,215.805,526.03,221.345,526.03 C226.884,526.03,231.375,530.521,231.375,536.06 Z"/><radialGradient id="7fc8747d4f60" xlink:href="#7fc8725e0c00" cx="253.316" cy="532.926" r="15.062"/><path fill="url(#7fc8747d4f60)" stroke="#000" stroke-width="1.0001" d="M266.794,536.06 L266.794,536.06 C266.794,541.6,262.303,546.09,256.764,546.09 C251.224,546.09,246.734,541.6,246.734,536.06 L246.734,536.06 C246.734,530.521,251.224,526.03,256.764,526.03 C262.303,526.03,266.794,530.521,266.794,536.06 Z"/><radialGradient id="7fc8747f2bc0" xlink:href="#7fc8725e0c00" cx="288.735" cy="532.926" r="15.062"/><path fill="url(#7fc8747f2bc0)" stroke="#000" stroke-width="1.0001" d="M302.212,536.06 L302.212,536.06 C302.212,541.6,297.722,546.09,292.183,546.09 C286.643,546.09,282.153,541.6,282.153,536.06 L282.153,536.06 C282.153,530.521,286.643,526.03,292.183,526.03 C297.722,526.03,302.212,530.521,302.212,536.06 Z"/><radialGradient id="7fc8742db5f0" xlink:href="#7fc8725e0c00" cx="324.154" cy="532.926" r="15.062"/><path fill="url(#7fc8742db5f0)" stroke="#000" stroke-width="1.0001" d="M337.631,536.06 L337.631,536.06 C337.631,541.6,333.141,546.09,327.601,546.09 C322.062,546.09,317.572,541.6,317.572,536.06 L317.572,536.06 C317.572,530.521,322.062,526.03,327.601,526.03 C333.141,526.03,337.631,530.521,337.631,536.06 Z"/><radialGradient id="7fc8747e15c0" xlink:href="#7fc8725e0c00" cx="359.573" cy="532.926" r="15.062"/><path fill="url(#7fc8747e15c0)" stroke="#000" stroke-width="1.0001" d="M373.05,536.06 L373.05,536.06 C373.05,541.6,368.56,546.09,363.02,546.09 C357.481,546.09,352.99,541.6,352.99,536.06 L352.99,536.06 C352.99,530.521,357.481,526.03,363.02,526.03 C368.56,526.03,373.05,530.521,373.05,536.06 Z"/><radialGradient id="7fc87504d6d0" xlink:href="#7fc8725e0c00" cx="394.991" cy="532.926" r="15.062"/><path fill="url(#7fc87504d6d0)" stroke="#000" stroke-width="1.0001" d="M408.469,536.06 L408.469,536.06 C408.469,541.6,403.979,546.09,398.439,546.09 C392.9,546.09,388.409,541.6,388.409,536.06 L388.409,536.06 C388.409,530.521,392.9,526.03,398.439,526.03 C403.979,526.03,408.469,530.521,408.469,536.06 Z"/><radialGradient id="7fc8747bc490" xlink:href="#7fc8725e0c00" cx="182.478" cy="405.367" r="15.062"/><path fill="url(#7fc8747bc490)" stroke="#000" stroke-width="1.0001" d="M195.956,408.501 L195.956,408.501 C195.956,414.04,191.465,418.531,185.926,418.531 C180.387,418.531,175.896,414.04,175.896,408.501 L175.896,408.501 C175.896,402.962,180.387,398.471,185.926,398.471 C191.465,398.471,195.956,402.962,195.956,408.501 Z"/><radialGradient id="7fc8750680a0" xlink:href="#7fc8725e0c00" cx="224.998" cy="405.367" r="15.062"/><path fill="url(#7fc8750680a0)" stroke="#000" stroke-width="1.0001" d="M238.475,408.501 L238.475,408.501 C238.475,414.04,233.985,418.531,228.446,418.531 C222.906,418.531,218.416,414.04,218.416,408.501 L218.416,408.501 C218.416,402.962,222.906,398.471,228.446,398.471 C233.985,398.471,238.475,402.962,238.475,408.501 Z"/><radialGradient id="7fc874297950" xlink:href="#7fc8725e0c00" cx="267.517" cy="405.367" r="15.062"/><path fill="url(#7fc874297950)" stroke="#000" stroke-width="1.0001" d="M280.995,408.501 L280.995,408.501 C280.995,414.04,276.505,418.531,270.965,418.531 C265.426,418.531,260.935,414.04,260.935,408.501 L260.935,408.501 C260.935,402.962,265.426,398.471,270.965,398.471 C276.505,398.471,280.995,402.962,280.995,408.501 Z"/><radialGradient id="7fc87503f590" xlink:href="#7fc8725e0c00" cx="310.037" cy="405.367" r="15.062"/><path fill="url(#7fc87503f590)" stroke="#000" stroke-width="1.0001" d="M323.515,408.501 L323.515,408.501 C323.515,414.04,319.024,418.531,313.485,418.531 C307.946,418.531,303.455,414.04,303.455,408.501 L303.455,408.501 C303.455,402.962,307.946,398.471,313.485,398.471 C319.024,398.471,323.515,402.962,323.515,408.501 Z"/><radialGradient id="7fc8747b8d80" xlink:href="#7fc8725e0c00" cx="352.557" cy="405.367" r="15.062"/><path fill="url(#7fc8747b8d80)" stroke="#000" stroke-width="1.0001" d="M366.034,408.501 L366.034,408.501 C366.034,414.04,361.544,418.531,356.005,418.531 C350.465,418.531,345.975,414.04,345.975,408.501 L345.975,408.501 C345.975,402.962,350.465,398.471,356.005,398.471 C361.544,398.471,366.034,402.962,366.034,408.501 Z"/><radialGradient id="7fc87421d7c0" xlink:href="#7fc8725e0c00" cx="395.077" cy="405.367" r="15.062"/><path fill="url(#7fc87421d7c0)" stroke="#000" stroke-width="1.0001" d="M408.554,408.501 L408.554,408.501 C408.554,414.04,404.064,418.531,398.524,418.531 C392.985,418.531,388.494,414.04,388.494,408.501 L388.494,408.501 C388.494,402.962,392.985,398.471,398.524,398.471 C404.064,398.471,408.554,402.962,408.554,408.501 Z"/><radialGradient id="7fc875045610" xlink:href="#7fc8725e0c00" cx="182.478" cy="447.886" r="15.062"/><path fill="url(#7fc875045610)" stroke="#000" stroke-width="1.0001" d="M195.956,451.021 L195.956,451.021 C195.956,456.56,191.465,461.051,185.926,461.051 C180.387,461.051,175.896,456.56,175.896,451.021 L175.896,451.021 C175.896,445.481,180.387,440.991,185.926,440.991 C191.465,440.991,195.956,445.481,195.956,451.021 Z"/><radialGradient id="7fc872594960" xlink:href="#7fc8725e0c00" cx="224.141" cy="447.886" r="15.062"/><path fill="url(#7fc872594960)" stroke="#000" stroke-width="1.0001" d="M237.618,451.021 L237.618,451.021 C237.618,456.56,233.128,461.051,227.588,461.051 C222.049,461.051,217.559,456.56,217.559,451.021 L217.559,451.021 C217.559,445.481,222.049,440.991,227.588,440.991 C233.128,440.991,237.618,445.481,237.618,451.021 Z"/><radialGradient id="7fc874220000" xlink:href="#7fc8725e0c00" cx="265.975" cy="447.886" r="15.062"/><path fill="url(#7fc874220000)" stroke="#000" stroke-width="1.0001" d="M279.452,451.021 L279.452,451.021 C279.452,456.56,274.962,461.051,269.422,461.051 C263.883,461.051,259.393,456.56,259.393,451.021 L259.393,451.021 C259.393,445.481,263.883,440.991,269.422,440.991 C274.962,440.991,279.452,445.481,279.452,451.021 Z"/><radialGradient id="7fc8742f90d0" xlink:href="#7fc8725e0c00" cx="312.437" cy="447.886" r="15.062"/><path fill="url(#7fc8742f90d0)" stroke="#000" stroke-width="1.0001" d="M325.915,451.021 L325.915,451.021 C325.915,456.56,321.424,461.051,315.885,461.051 C310.346,461.051,305.855,456.56,305.855,451.021 L305.855,451.021 C305.855,445.481,310.346,440.991,315.885,440.991 C321.424,440.991,325.915,445.481,325.915,451.021 Z"/><radialGradient id="7fc8742594f0" xlink:href="#7fc8725e0c00" cx="353.843" cy="447.886" r="15.062"/><path fill="url(#7fc8742594f0)" stroke="#000" stroke-width="1.0001" d="M367.32,451.021 L367.32,451.021 C367.32,456.56,362.83,461.051,357.29,461.051 C351.751,461.051,347.26,456.56,347.26,451.021 L347.26,451.021 C347.26,445.481,351.751,440.991,357.29,440.991 C362.83,440.991,367.32,445.481,367.32,451.021 Z"/><radialGradient id="7fc874764f70" xlink:href="#7fc8725e0c00" cx="395.077" cy="447.886" r="15.062"/><path fill="url(#7fc874764f70)" stroke="#000" stroke-width="1.0001" d="M408.554,451.021 L408.554,451.021 C408.554,456.56,404.064,461.051,398.524,461.051 C392.985,461.051,388.494,456.56,388.494,451.021 L388.494,451.021 C388.494,445.481,392.985,440.991,398.524,440.991 C404.064,440.991,408.554,445.481,408.554,451.021 Z"/><radialGradient id="7fc87505e840" xlink:href="#7fc8725e0c00" cx="182.478" cy="490.406" r="15.062"/><path fill="url(#7fc87505e840)" stroke="#000" stroke-width="1.0001" d="M195.956,493.54 L195.956,493.54 C195.956,499.08,191.465,503.57,185.926,503.57 C180.387,503.57,175.896,499.08,175.896,493.54 L175.896,493.54 C175.896,488.001,180.387,483.511,185.926,483.511 C191.465,483.511,195.956,488.001,195.956,493.54 Z"/><radialGradient id="7fc8747ad290" xlink:href="#7fc8725e0c00" cx="220.04" cy="490.406" r="15.062"/><path fill="url(#7fc8747ad290)" stroke="#000" stroke-width="1.0001" d="M233.517,493.54 L233.517,493.54 C233.517,499.08,229.027,503.57,223.488,503.57 C217.948,503.57,213.458,499.08,213.458,493.54 L213.458,493.54 C213.458,488.001,217.948,483.511,223.488,483.511 C229.027,483.511,233.517,488.001,233.517,493.54 Z"/><radialGradient id="7fc8747550e0" xlink:href="#7fc8725e0c00" cx="258.03" cy="490.406" r="15.062"/><path fill="url(#7fc8747550e0)" stroke="#000" stroke-width="1.0001" d="M271.508,493.54 L271.508,493.54 C271.508,499.08,267.017,503.57,261.478,503.57 C255.939,503.57,251.448,499.08,251.448,493.54 L251.448,493.54 C251.448,488.001,255.939,483.511,261.478,483.511 C267.017,483.511,271.508,488.001,271.508,493.54 Z"/><radialGradient id="7fc8747e22e0" xlink:href="#7fc8725e0c00" cx="319.868" cy="490.406" r="15.062"/><path fill="url(#7fc8747e22e0)" stroke="#000" stroke-width="1.0001" d="M333.346,493.54 L333.346,493.54 C333.346,499.08,328.855,503.57,323.316,503.57 C317.776,503.57,313.286,499.08,313.286,493.54 L313.286,493.54 C313.286,488.001,317.776,483.511,323.316,483.511 C328.855,483.511,333.346,488.001,333.346,493.54 Z"/><radialGradient id="7fc8742f9f10" xlink:href="#7fc8725e0c00" cx="357.858" cy="490.406" r="15.062"/><path fill="url(#7fc8742f9f10)" stroke="#000" stroke-width="1.0001" d="M371.336,493.54 L371.336,493.54 C371.336,499.08,366.845,503.57,361.306,503.57 C355.767,503.57,351.276,499.08,351.276,493.54 L351.276,493.54 C351.276,488.001,355.767,483.511,361.306,483.511 C366.845,483.511,371.336,488.001,371.336,493.54 Z"/><radialGradient id="7fc87474aee0" xlink:href="#7fc8725e0c00" cx="394.991" cy="490.406" r="15.062"/><path fill="url(#7fc87474aee0)" stroke="#000" stroke-width="1.0001" d="M408.469,493.54 L408.469,493.54 C408.469,499.08,403.979,503.57,398.439,503.57 C392.9,503.57,388.409,499.08,388.409,493.54 L388.409,493.54 C388.409,488.001,392.9,483.511,398.439,483.511 C403.979,483.511,408.469,488.001,408.469,493.54 Z"/><g><path fill="none" stroke="#000" stroke-width="2" d="M185.926,598.592 L185.068,383.581"/><path fill="none" stroke="#000" stroke-width="2" d="M180.108,393.601 L185.068,383.581 L190.108,393.561"/></g><g><path fill="none" stroke="#000" stroke-width="2" d="M228.446,383.581 L229.145,424.898 C229.145,455.536,221.945,496.066,221.945,526.667 L221.345,598.587"/><path fill="none" stroke="#000" stroke-width="2" d="M223.615,393.664 C225.225,390.303,226.836,386.942,228.446,383.581 C230.168,386.886,231.891,390.19,233.614,393.495"/></g><g><path fill="none" stroke="#000" stroke-width="2" d="M271.508,383.581 L271.764,424.806 C271.764,455.839,257.364,496.075,257.364,527.435 L256.764,598.587"/><path fill="none" stroke="#000" stroke-width="2" d="M266.57,393.612 C268.216,390.268,269.862,386.925,271.508,383.581 C273.195,386.904,274.882,390.227,276.57,393.55"/></g><g><path fill="none" stroke="#000" stroke-width="2" d="M398.524,383.581 L398.524,598.593"/><path fill="none" stroke="#000" stroke-width="2" d="M393.524,393.581 L398.524,383.581 L403.524,393.581"/></g><g><path fill="none" stroke="#000" stroke-width="2" d="M313.286,383.581 L313.801,431.092 C313.801,460.972,328.201,499.401,328.201,529.885 L327.601,598.587"/><path fill="none" stroke="#000" stroke-width="2" d="M308.395,393.635 C310.025,390.283,311.656,386.932,313.286,383.581 C314.989,386.896,316.691,390.211,318.394,393.526"/></g><g><path fill="none" stroke="#000" stroke-width="2" d="M356.005,383.581 L356.42,430.486 C356.42,460.367,363.62,498.491,363.62,529.885 L363.02,598.587"/><path fill="none" stroke="#000" stroke-width="2" d="M351.093,393.625 C352.73,390.277,354.368,386.929,356.005,383.581 C357.701,386.899,359.397,390.218,361.093,393.536"/></g><g><path fill="none" stroke="#000" stroke-width="2" d="M292.783,512.5 L292.783,598.593"/><path fill="none" stroke="#000" stroke-width="2" d="M287.783,522.5 L292.783,512.5 L297.783,522.5"/></g><text font-family="American Typewriter" font-size="30" text-anchor="middle" transform="matrix(0.6,0,0,0.6,292.705,507.408)" xml:space="preserve"><tspan>?</tspan></text></g><g><path fill="#c0c0c0" fill-rule="evenodd" stroke="#000" stroke-width="0.999981" d="M258.459,43.5988 L203.826,75.1408 L203.826,242.098 L260.945,209.121"/><path fill="#c0c0c0" fill-rule="evenodd" d="M284.715,51.4129 L230.084,82.9546 L230.084,160.304 C230.084,168.894,222.655,179.763,222.655,188.161 L222.655,247.767 L279.773,214.79"/><linearGradient id="7fc8750591b0" xlink:href="#7fc874280530" x1="261.786" y1="157.946" x2="255.286" y2="146.732"/><path fill="url(#7fc8750591b0)" fill-rule="evenodd" d="M282.643,130.232 L229.786,160.946 C229.786,160.946,229.786,145.661,229.786,160.661 C229.786,171.755,222.643,177.639,222.643,185.661 L222.643,195.661 L277.234,164.142"/><path fill="none" stroke="#000" stroke-width="0.999974" d="M284.715,51.4132 L230.083,82.9549 L230.083,160.305 C230.083,168.894,222.655,179.763,222.655,188.161 L222.655,247.768 L279.772,214.791"/><path fill="#c0c0c0" fill-rule="evenodd" d="M310.002,58.5534 L255.369,90.0955 L255.369,167.446 C255.369,175.725,241.941,184.696,241.941,193.161 L241.941,252.768 L299.059,219.79"/><linearGradient id="7fc875083260" xlink:href="#7fc875059c30" x1="277.809" y1="163.436" x2="273.973" y2="156.492"/><path fill="url(#7fc875083260)" fill-rule="evenodd" d="M308.58,136.595 C308.58,136.595,257.565,166.797,255.143,167.446 C255.143,176.239,241.929,183.611,241.929,192.803 L295.365,161.952"/><path fill="none" stroke="#000" stroke-width="1.00002" d="M310.004,58.5485 L255.37,90.0913 L255.37,167.444 C255.37,175.722,241.941,184.693,241.941,193.158 L241.941,252.767 L299.061,219.789"/><path fill="#c0c0c0" fill-rule="evenodd" stroke="#000" d="M321.573,168.339 L266.941,199.881 L266.941,257.053 L324.059,224.076"/><path fill="#c0c0c0" fill-rule="evenodd" d="M337.573,62.1249 L282.941,96.8813 L282.941,174.732 C282.941,184.014,288.369,195.658,288.369,205.303 L288.369,262.053 L345.488,229.076"/><linearGradient id="7fc87505bf70" xlink:href="#7fc8747bf9d0" x1="308.475" y1="175.106" x2="302.088" y2="164.247"/><path fill="url(#7fc87505bf70)" fill-rule="evenodd" d="M332.808,146.272 L282.789,175.15 C282.789,185.405,288.345,193.796,288.345,203.94 L334.16,177.489"/><path fill="none" stroke="#000" d="M338.074,61.625 L283.441,96.3814 L283.441,174.232 C283.441,183.515,288.87,195.158,288.87,204.804 L288.87,261.554 L345.988,228.576"/><path fill="#c0c0c0" fill-rule="evenodd" d="M359.788,69.2677 L305.155,102.953 L305.155,180.661 C305.155,192.52,307.655,201.649,307.655,211.018 L307.655,267.768 L364.773,234.79"/><linearGradient id="7fc8747d2c20" xlink:href="#7fc8747bf9d0" x1="327.612" y1="182.352" x2="322.077" y2="171.459"/><path fill="url(#7fc8747d2c20)" fill-rule="evenodd" d="M347.225,156.543 L305.143,180.839 C305.143,188.61,307.643,204.091,307.643,209.946 L345.526,188.075"/><path fill="none" stroke="#000" d="M360.288,68.7676 L305.655,102.453 L305.655,180.16 C305.655,192.019,308.155,201.149,308.155,210.518 L308.155,267.268 L365.273,234.29"/><path fill="#c0c0c0" fill-rule="evenodd" stroke="#000" d="M381.214,76.4463 L326.582,107.988 L326.582,274.946 L383.7,241.969"/><g><g><path fill="none" stroke="#007efd" stroke-width="1.37072" d="M206.918,75.1408 L206.25,253.176"/><path fill="none" stroke="#007efd" stroke-width="1.37072" d="M210.654,244.451 L206.25,253.176 L201.912,244.418"/></g><g><path fill="none" stroke="#ff0004" stroke-width="1.37072" d="M201.418,241.031 L200.75,62.9964"/><path fill="none" stroke="#ff0004" stroke-width="1.37072" d="M196.412,71.7542 L200.75,62.9964 L205.154,71.7214"/></g></g><g><g><path fill="none" stroke="#ff0004" stroke-width="1.371" d="M226.5,71.4256 L226.655,161.296 C226.655,169.885,219.227,180.755,219.227,189.153 L219.227,248.759"/><path fill="none" stroke="#ff0004" stroke-width="1.371" d="M222.144,80.1752 C223.596,77.2587,225.048,74.3422,226.5,71.4256 C227.962,74.3371,229.424,77.2486,230.886,80.1601"/></g><g><path fill="none" stroke="#007efd" stroke-width="1.371" d="M233.5,82.1756 L233.297,162.906 C233.297,171.495,225.869,182.364,225.869,190.762 L225.25,259.801"/><path fill="none" stroke="#007efd" stroke-width="1.371" d="M220.958,251.02 C222.388,253.947,223.819,256.874,225.25,259.801 C226.733,256.9,228.216,253.999,229.699,251.098"/></g></g><g><path fill="none" stroke="#ff0004" stroke-width="1.371" d="M252.75,76.4463 L252.357,165.944 C252.357,174.222,238.929,183.193,238.929,191.658 L238.929,251.267"/><path fill="none" stroke="#ff0004" stroke-width="1.371" d="M248.341,85.169 C249.81,82.2614,251.28,79.3539,252.75,76.4463 C254.194,79.3666,255.638,82.287,257.083,85.2074"/></g><g><path fill="none" stroke="#007efd" stroke-width="1.371" d="M258.87,90.0913 L258.917,169.854 C258.917,178.133,245.488,187.104,245.488,195.569 L245.839,265.23"/><path fill="none" stroke="#007efd" stroke-width="1.371" d="M241.424,256.511 C242.896,259.417,244.368,262.324,245.839,265.23 C247.282,262.309,248.724,259.388,250.166,256.467"/></g><g><path fill="none" stroke="#007efd" stroke-width="1.37072" d="M270.691,199.176 L270.5,271.426"/><path fill="none" stroke="#007efd" stroke-width="1.37072" d="M274.894,262.696 L270.5,271.426 L266.152,262.673"/></g><g><path fill="none" stroke="#ff0004" stroke-width="1.37072" d="M264,257.053 L263.704,199.176"/><path fill="none" stroke="#ff0004" stroke-width="1.37072" d="M259.378,207.939 L263.704,199.176 L268.119,207.895"/></g><path fill="none" stroke="#000" stroke-width="3" d="M279.75,198.196 C279.75,204.686,274.175,209.946,267.298,209.946 C260.42,209.946,254.845,204.686,254.845,198.196 C254.845,191.707,260.42,186.446,267.298,186.446 C274.175,186.446,279.75,191.707,279.75,198.196 Z"/><text font-family="American Typewriter" font-size="30" text-anchor="middle" transform="matrix(0.6,0,0,0.6,271.373,180.741)" xml:space="preserve"><tspan>?</tspan></text><g><g><path fill="none" stroke="#007efd" stroke-width="1.37072" d="M329.531,108.534 L328.863,286.569"/><path fill="none" stroke="#007efd" stroke-width="1.37072" d="M333.266,277.844 L328.863,286.569 L324.525,277.811"/></g><g><path fill="none" stroke="#ff0004" stroke-width="1.37072" d="M324.031,274.424 L323.363,96.3893"/><path fill="none" stroke="#ff0004" stroke-width="1.37072" d="M319.025,105.147 L323.363,96.3893 L327.766,105.114"/></g></g><g><path fill="none" stroke="#ff0004" stroke-width="1.371" d="M302.643,90.0913 L302.655,179.045 C302.655,190.904,305.155,200.034,305.155,209.402 L305.155,266.152"/><path fill="none" stroke="#ff0004" stroke-width="1.371" d="M298.273,98.8339 C299.73,95.9197,301.186,93.0055,302.643,90.0913 C304.1,93.0051,305.558,95.9189,307.015,98.8327"/></g><g><path fill="none" stroke="#007efd" stroke-width="1.371" d="M309.155,103.453 L309.155,182.045 C309.155,193.904,311.655,203.034,311.655,212.402 L311.004,280.426"/><path fill="none" stroke="#007efd" stroke-width="1.371" d="M306.717,271.642 C308.146,274.57,309.575,277.498,311.004,280.426 C312.489,277.526,313.974,274.626,315.458,271.726"/></g><g><path fill="none" stroke="#ff0004" stroke-width="1.371" d="M279.75,85.2077 L280.287,172.961 C280.287,182.243,285.715,193.887,285.715,203.532 L285.715,260.282"/><path fill="none" stroke="#ff0004" stroke-width="1.371" d="M275.433,93.9763 C276.872,91.0535,278.311,88.1306,279.75,85.2077 C281.225,88.1128,282.7,91.0178,284.174,93.9228"/></g><g><path fill="none" stroke="#007efd" stroke-width="1.371" d="M287.25,96.3893 L287.287,176.461 C287.287,185.743,292.715,197.387,292.715,207.032 L292.5,274.946"/><path fill="none" stroke="#007efd" stroke-width="1.371" d="M288.157,266.19 C289.604,269.109,291.052,272.028,292.5,274.946 C293.966,272.037,295.432,269.128,296.899,266.218"/></g></g></svg>
