<?xml version="1.0" encoding="UTF-8" standalone="no"?>
<!DOCTYPE svg PUBLIC "-//W3C//DTD SVG 1.1//EN" "http://www.w3.org/Graphics/SVG/1.1/DTD/svg11.dtd">
<!--Generated by Intaglio, www.PurgatoryDesign.com-->
<svg version="1.1" viewBox="56,31,967,1535" width="967" height="1535" xmlns="http://www.w3.org/2000/svg" xmlns:xlink="http://www.w3.org/1999/xlink"><g><g><text font-family="American Typewriter" font-size="30" text-anchor="middle" transform="matrix(0.6,0,0,0.6,911.134,1028.55)" xml:space="preserve"><tspan>p-wave superconductor</tspan></text><path fill="none" stroke="#000" d="M731.7,1007.6 L801.632,1022.93"/></g><path fill="none" stroke="#000" d="M644.225,991.445 L634.677,1021.31"/><g><text font-family="American Typewriter" font-size="30" text-anchor="middle" transform="matrix(0.6,0,0,0.6,944.477,924.498)" xml:space="preserve"><tspan>chiral edge state</tspan></text><path fill="none" stroke="#000" d="M795.887,937.895 L865.819,922.57"/></g><path fill="none" stroke="#000" stroke-width="2" stroke-linecap="round" d="M71.9399,894.288 C123.548,896.674,155.59,885.95,198.738,919.79 C211.371,929.698,207.873,1040.9,215.202,1042.02 C222.661,1043.16,225.825,937.886,238.471,925.381 C277.046,887.235,324.049,894.288,359.613,893.225"/><g><g><path fill="none" stroke="#000" stroke-width="1.5" d="M215.452,1042.02 L216.026,836.197"/><path fill="none" stroke="#000" stroke-width="1.5" d="M211.501,845.184 L216.026,836.197 L220.501,845.209"/></g><g><path fill="none" stroke="#000" stroke-width="1.5" d="M359.863,1042.02 L72.1899,1042.02"/><path fill="none" stroke="#000" stroke-width="1.5" d="M350.863,1037.52 L359.863,1042.02 L350.863,1046.52"/></g></g><text font-family="American Typewriter" font-size="30" text-anchor="middle" transform="matrix(0.6,0,0,0.6,287.721,1096.56)" xml:space="preserve"><tspan>vortex core</tspan></text><path fill="none" stroke="#000" d="M215.776,1060.15 L232.383,1091.15"/><g clip-path="url(#7fc8747e22e0)"><clipPath id="7fc8747e22e0"><path fill="#000" fill-opacity="0.35" d="M311.608,879.701 L384.62,879.701 L384.62,848.706 L311.608,848.706 Z"/></clipPath><g clip-path="url(#7fc8747550e0)"><clipPath id="7fc8747550e0"><path fill="#000" fill-opacity="0.35" d="M311.608,879.701 L384.608,879.701 L384.608,848.701 L311.608,848.701 Z"/></clipPath><path fill="#000" d="M313.658,850.304 C313.658,849.772,313.658,849.239,313.072,849.239 C312.46,849.239,312.46,849.772,312.46,850.304 L312.46,878.103 C312.46,878.662,312.46,879.195,313.072,879.195 C313.658,879.195,313.658,878.662,313.658,878.103 L313.658,850.304"/><path fill="#000" d="M330.46,850.783 C330.247,850.411,330.167,850.251,329.661,850.251 C329.155,850.251,329.102,850.411,328.889,850.783 L318.771,871.1 C318.611,871.366,318.611,871.42,318.611,871.473 C318.611,871.713,318.797,871.713,319.277,871.713 L340.073,871.713 C340.552,871.713,340.712,871.713,340.712,871.473 C340.712,871.42,340.712,871.366,340.578,871.1 L330.46,850.783 Z M328.703,853.26 L336.771,869.423 L320.635,869.423 L328.703,853.26"/><path fill="#000" d="M352.028,878.902 C352.028,878.795,352.028,878.742,351.522,878.236 C347.768,874.455,346.809,868.784,346.809,864.204 C346.809,859.011,347.954,853.792,351.629,850.038 C352.028,849.692,352.028,849.612,352.028,849.532 C352.028,849.319,351.895,849.239,351.735,849.239 C351.416,849.239,348.726,851.263,346.969,855.07 C345.425,858.372,345.079,861.701,345.079,864.204 C345.079,866.547,345.398,870.168,347.049,873.55 C348.86,877.251,351.416,879.195,351.735,879.195 C351.895,879.195,352.028,879.088,352.028,878.902"/><path fill="#000" d="M356.342,869.929 C356.262,870.381,356.076,871.074,356.076,871.233 C356.076,871.766,356.502,872.032,356.954,872.032 C357.3,872.032,357.833,871.792,358.046,871.18 C358.099,871.074,359.138,867,359.244,866.467 C359.484,865.482,360.017,863.378,360.203,862.553 C360.336,862.18,361.161,860.769,361.88,860.103 C362.12,859.89,362.999,859.118,364.277,859.118 C365.049,859.118,365.502,859.491,365.528,859.491 C364.65,859.624,363.984,860.343,363.984,861.115 C363.984,861.594,364.304,862.18,365.129,862.18 C365.928,862.18,366.78,861.488,366.78,860.396 C366.78,859.357,365.821,858.452,364.277,858.452 C362.333,858.452,361.028,859.917,360.443,860.769 C360.203,859.411,359.138,858.452,357.727,858.452 C356.342,858.452,355.783,859.624,355.517,860.156 C354.957,861.195,354.585,862.979,354.585,863.059 C354.585,863.378,354.877,863.378,354.931,863.378 C355.224,863.378,355.277,863.352,355.437,862.686 C355.943,860.556,356.555,859.118,357.62,859.118 C358.153,859.118,358.552,859.357,358.552,860.502 C358.552,861.115,358.472,861.461,358.073,863.005 L356.342,869.929"/><path fill="#000" d="M376.659,864.204 C376.659,861.887,376.339,858.239,374.688,854.857 C372.878,851.183,370.321,849.239,370.002,849.239 C369.842,849.239,369.709,849.346,369.709,849.532 C369.709,849.612,369.709,849.692,370.295,850.224 C373.224,853.18,374.928,857.946,374.928,864.204 C374.928,869.343,373.81,874.615,370.108,878.369 C369.709,878.742,369.709,878.795,369.709,878.902 C369.709,879.062,369.842,879.195,370.002,879.195 C370.321,879.195,373.011,877.145,374.768,873.337 C376.313,870.062,376.659,866.733,376.659,864.204"/><path fill="#000" d="M384.461,850.304 C384.461,849.772,384.461,849.239,383.875,849.239 C383.262,849.239,383.262,849.772,383.262,850.304 L383.262,878.103 C383.262,878.662,383.262,879.195,383.875,879.195 C384.461,879.195,384.461,878.662,384.461,878.103 L384.461,850.304"/></g></g><g clip-path="url(#7fc87505e840)"><clipPath id="7fc87505e840"><path fill="#000" fill-opacity="0.35" d="M336.548,1030.88 L349.542,1030.88 L349.542,1015.89 L336.548,1015.89 Z"/></clipPath><g clip-path="url(#7fc874764f70)"><clipPath id="7fc874764f70"><path fill="#000" fill-opacity="0.35" d="M336.548,1030.88 L349.548,1030.88 L349.548,1015.88 L336.548,1015.88 Z"/></clipPath><path fill="#000" d="M338.891,1028.11 C338.785,1028.56,338.625,1029.25,338.625,1029.39 C338.625,1029.94,339.024,1030.21,339.477,1030.21 C339.85,1030.21,340.382,1029.97,340.595,1029.36 C340.649,1029.25,341.661,1025.18,341.794,1024.65 C342.033,1023.63,342.566,1021.56,342.752,1020.73 C342.859,1020.36,343.711,1018.95,344.43,1018.28 C344.669,1018.07,345.522,1017.3,346.826,1017.3 C347.598,1017.3,348.051,1017.64,348.078,1017.64 C347.172,1017.8,346.533,1018.52,346.533,1019.29 C346.533,1019.77,346.853,1020.36,347.652,1020.36 C348.477,1020.36,349.303,1019.67,349.303,1018.57 C349.303,1017.54,348.344,1016.63,346.826,1016.63 C344.882,1016.63,343.551,1018.1,342.992,1018.95 C342.752,1017.59,341.661,1016.63,340.249,1016.63 C338.891,1016.63,338.305,1017.8,338.039,1018.34 C337.507,1019.37,337.107,1021.16,337.107,1021.24 C337.107,1021.56,337.427,1021.56,337.48,1021.56 C337.773,1021.56,337.8,1021.5,337.986,1020.86 C338.492,1018.73,339.104,1017.3,340.169,1017.3 C340.675,1017.3,341.101,1017.54,341.101,1018.68 C341.101,1019.29,341.021,1019.64,340.622,1021.18 L338.891,1028.11"/></g></g><g><g><path fill="#cfb412" fill-opacity="0.69" stroke="#000" stroke-width="3" d="M781.35,942.979 C781.35,1026.22,714.48,1093.7,631.992,1093.7 C549.503,1093.7,482.633,1026.22,482.633,942.979 C482.633,859.741,549.503,792.263,631.992,792.263 C714.48,792.263,781.35,859.741,781.35,942.979 Z"/><path fill="none" stroke="#000" stroke-width="3" d="M774.903,954.478 C777.23,950.749,779.379,946.908,781.35,942.979 C783.379,947.05,785.217,951.216,786.863,955.456"/></g><g><path fill="#cfb412" fill-opacity="0.96" d="M672.276,942.979 C672.276,963.027,655.439,979.278,634.669,979.278 C613.899,979.278,597.062,963.027,597.062,942.979 C597.062,922.932,613.899,906.68,634.669,906.68 C655.439,906.68,672.276,922.932,672.276,942.979 Z"/><g><path fill="#a48e0f" stroke="#000" stroke-width="2.16287" d="M659.854,942.979 C659.854,956.901,648.161,968.187,633.738,968.187 C619.314,968.187,607.622,956.901,607.622,942.979 C607.622,929.057,619.314,917.771,633.738,917.771 C648.161,917.771,659.854,929.057,659.854,942.979 Z"/><path fill="none" stroke="#000" stroke-width="2.16287" d="M653.004,950.869 C655.994,948.972,658.257,946.102,659.854,942.979 C661.702,946.731,662.596,950.95,662.409,955.132"/></g><path fill="#515151" d="M652.08,942.979 C652.08,952.26,644.285,959.784,634.669,959.784 C625.054,959.784,617.259,952.26,617.259,942.979 C617.259,933.698,625.054,926.174,634.669,926.174 C644.285,926.174,652.08,933.698,652.08,942.979 Z"/></g><text font-family="American Typewriter" font-size="30" text-anchor="middle" transform="matrix(0.6,0,0,0.6,628.998,1040.4)" xml:space="preserve"><tspan>vortex</tspan></text></g></g><g><path fill="none" stroke="#434343" stroke-width="3" d="M479.938,1568.91 L479.938,1496.91"/><path fill="none" stroke="#000" stroke-width="2" stroke-dasharray="2" d="M251.838,1376.19 L71.9399,1553.71 L710.619,1553.71 L890.516,1376.19 Z"/><path fill="#d22d05" fill-opacity="0.37" stroke="#000" stroke-width="3" d="M251.838,1227.2 L71.9399,1404.72 L710.619,1404.72 L890.516,1227.2 Z"/><g><path fill="#cfb412" fill-opacity="0.69" stroke="#000" stroke-width="3.20297" d="M560.469,1356.22 C482.862,1379.54,384.471,1379.75,340.708,1356.68 C296.944,1333.6,324.379,1295.99,401.987,1272.67 C479.594,1249.34,577.985,1249.14,621.749,1272.21 C665.512,1295.28,638.077,1332.89,560.469,1356.22 Z"/><path fill="none" stroke="#000" stroke-width="3.20297" d="M546.961,1353.58 C551.446,1354.55,555.95,1355.43,560.469,1356.22 C557.074,1359.41,553.613,1362.53,550.095,1365.58"/></g><path fill="none" stroke="#000" stroke-width="2" d="M71.9399,1404.72 L71.9399,1553.71"/><path fill="#cfb412" fill-opacity="0.96" d="M502.601,1325.71 C483.909,1331.33,459.824,1331.17,448.805,1325.36 C437.786,1319.55,444.005,1310.29,462.696,1304.67 C481.388,1299.05,505.473,1299.21,516.492,1305.02 C527.511,1310.83,521.292,1320.09,502.601,1325.71 Z"/><g><g><path fill="#a48e0f" stroke="#000" stroke-width="2.3092" d="M496.01,1322.24 C483.03,1326.14,466.304,1326.03,458.652,1321.99 C451,1317.96,455.319,1311.53,468.299,1307.63 C481.279,1303.72,498.005,1303.83,505.657,1307.87 C513.309,1311.9,508.99,1318.33,496.01,1322.24 Z"/><path fill="none" stroke="#000" stroke-width="2.3092" d="M484.966,1319.16 C488.541,1320.53,492.238,1321.58,496.01,1322.24 C493.033,1325.04,489.746,1327.5,486.297,1329.7"/></g><path fill="#515151" d="M488.402,1318.73 C481.479,1320.81,472.559,1320.76,468.478,1318.6 C464.397,1316.45,466.7,1313.02,473.623,1310.94 C480.546,1308.86,489.466,1308.92,493.547,1311.07 C497.628,1313.22,495.325,1316.65,488.402,1318.73 Z"/></g><path fill="#949494" stroke="#000" d="M495.591,1497.8 C482.611,1501.7,465.885,1501.59,458.233,1497.56 C450.58,1493.53,454.899,1487.09,467.879,1483.19 C480.86,1479.29,497.585,1479.4,505.238,1483.43 C512.89,1487.47,508.571,1493.9,495.591,1497.8 Z"/><path fill="#515151" d="M488.983,1494.3 C482.06,1496.38,473.14,1496.32,469.058,1494.17 C464.977,1492.02,467.281,1488.59,474.203,1486.51 C481.126,1484.43,490.047,1484.48,494.128,1486.63 C498.209,1488.79,495.906,1492.22,488.983,1494.3 Z"/><path fill="none" stroke="#000" stroke-width="2" d="M709.432,1405.44 L709.432,1554.43"/><path fill="none" stroke="#000" stroke-width="2" d="M890.23,1228.23 L890.23,1377.21"/><path fill="none" stroke="#000" stroke-width="2" d="M890.23,1375.84 L709.432,1555.92"/><path fill="none" stroke="#000" stroke-width="2" d="M71.9399,1552.71 L709.432,1554.92"/><path fill="none" stroke="#000" stroke-dasharray="2" d="M251.838,1376.19 L251.838,1227.2"/><g><path fill="none" stroke="#434343" stroke-width="3" d="M479.938,1316.91 L479.938,1174.74"/><path fill="none" stroke="#434343" stroke-width="3" d="M473.938,1186.74 L479.938,1174.74 L485.938,1186.74"/></g><path fill="none" stroke="#434343" stroke-dasharray="2" d="M479.938,1496.91 L479.938,1316.91"/><text font-family="American Typewriter" font-size="30" text-anchor="middle" transform="matrix(0.6,0,0,0.6,751.664,1201.4)" xml:space="preserve"><tspan>s-wave superconductor</tspan></text><path fill="none" stroke="#000" d="M565.81,1294.31 L643.134,1201.78"/><text font-family="American Typewriter" font-size="30" text-anchor="middle" transform="matrix(0.6,0,0,0.6,133.889,1192.38)" xml:space="preserve"><tspan>magnet</tspan></text><path fill="none" stroke="#000" d="M175.363,1204.63 L288.199,1278.57"/><text font-family="American Typewriter" font-size="30" text-anchor="middle" transform="matrix(0.6,0,0,0.6,635.366,1537.95)" xml:space="preserve"><tspan>3D TI slab</tspan></text><text font-family="American Typewriter" font-size="30" text-anchor="middle" transform="matrix(0.6,0,0,0.6,655.841,1140.83)" xml:space="preserve"><tspan>magnetic field line</tspan></text><path fill="none" stroke="#000" d="M496.119,1204.63 L565.81,1146.27"/></g><g><path fill="none" stroke="#000" d="M71.9399,699.741 L649.483,699.741"/><path fill="#bcbcbc" fill-opacity="0.76" d="M71.9399,516.053 L649.483,516.053 L649.483,699.741 L71.9399,699.741 Z"/><path fill="none" stroke="#007efd" stroke-width="3" stroke-dasharray="5" d="M71.9399,685.573 L649.483,685.573"/><path fill="none" stroke="#ff0004" stroke-width="3" stroke-dasharray="5" d="M649.483,670.988 L71.9399,670.988"/><path fill="#d22d05" fill-opacity="0.32" stroke="#000" stroke-width="2" d="M261.826,553.533 L261.826,731.053 L478.826,731.053 L478.826,553.533 Z"/><path fill="#cfb412" fill-opacity="0.69" stroke="#000" stroke-width="2" d="M71.9399,553.494 L216,553.494 L216,731.053 L71.9399,731.053"/><path fill="#cfb412" fill-opacity="0.69" stroke="#000" stroke-width="2" d="M649.483,553.533 L505,553.533 L505,731.053 L649.483,731.053"/><path fill="#5e5e5e" stroke="#000" stroke-width="2" stroke-linecap="round" d="M150.801,700.112 C176.733,695.387,204.579,703.087,226.152,686.167 C232.469,681.214,230.72,625.615,234.384,625.053 C238.114,624.481,239.696,677.119,246.019,683.372 C265.306,702.445,285.051,694.536,306.59,699.45"/><path fill="#5e5e5e" stroke="#000" stroke-width="2" stroke-linecap="round" d="M398.981,701.526 C424.913,696.801,452.758,704.502,474.332,687.582 C480.648,682.628,478.899,627.03,482.564,626.468 C486.293,625.896,487.875,678.534,494.198,684.787 C513.486,703.86,533.231,695.951,554.769,700.865"/><text font-family="American Typewriter" font-size="30" text-anchor="middle" transform="matrix(0.6,0,0,0.6,360.867,532.831)" xml:space="preserve"><tspan>quantum spin Hall insulator</tspan></text><text font-family="American Typewriter" font-size="30" text-anchor="middle" transform="matrix(0.6,0,0,0.6,145.467,587.38)" xml:space="preserve"><tspan>superconductor</tspan></text><text font-family="American Typewriter" font-size="30" text-anchor="middle" transform="matrix(0.6,0,0,0.6,583.224,587.38)" xml:space="preserve"><tspan>superconductor</tspan></text><text font-family="American Typewriter" font-size="30" text-anchor="middle" transform="matrix(0.6,0,0,0.6,361.146,587.38)" xml:space="preserve"><tspan>magnet</tspan></text><text font-family="American Typewriter" font-size="30" text-anchor="middle" transform="matrix(0.6,0,0,0.6,360.21,757.568)" xml:space="preserve"><tspan>Majorana bound states</tspan></text><path fill="none" stroke="#000" d="M262.038,701.526 L280,739.328"/><path fill="none" stroke="#000" d="M454,705.156 L443,740.479"/></g><g><g><path fill="#cfb412" fill-opacity="0.69" stroke="#000" stroke-width="2" d="M309.907,439.83 C421.031,414.633,490.689,304.123,465.493,192.999 C440.296,81.8753,329.786,12.2173,218.662,37.4138 C107.538,62.6103,37.8804,173.12,63.0769,284.244 C81.3318,364.754,145.821,426.631,227.017,441.543"/><path fill="#bcbcbc" fill-opacity="0.43" stroke="#000" d="M430.771,248.91 C423.824,338.11,345.881,404.789,256.681,397.841 C167.481,390.894,100.802,312.951,107.75,223.751 C114.697,134.551,192.64,67.8723,281.84,74.8196 C371.04,81.767,437.719,159.71,430.771,248.91 Z"/></g><path fill="#fff" d="M226.407,318.376 L309.907,318.376 L309.907,441.543 L226.407,441.543 Z"/><path fill="#fff" fill-opacity="0.21" stroke="#000" stroke-width="2" d="M226.907,440.262 L226.407,347.906"/><path fill="#fff" stroke="#000" stroke-width="2" d="M226.407,347.906 C165.774,324.771,135.375,256.864,158.509,196.231 C181.644,135.597,249.551,105.198,310.184,128.333 C370.818,151.467,401.217,219.374,378.082,280.008 C366.096,311.424,341.225,336.199,309.763,348.066"/><path fill="#fff" fill-opacity="0.21" stroke="#000" stroke-width="2" d="M309.763,348.066 L309.907,440.262"/><path fill="#fff" stroke="#000" d="M349.285,236.915 C349.285,192.18,313.02,155.915,268.285,155.915 C223.55,155.915,187.285,192.18,187.285,236.915 C187.285,281.65,223.55,317.915,268.285,317.915 C313.02,317.915,349.285,281.65,349.285,236.915 Z"/><path fill="#000" d="M267.207,244.705 C271.648,244.386,274.811,241.702,274.811,238.826 C274.811,235.854,271.552,233.234,267.207,232.915 L267.207,231.285 C267.207,230.327,267.207,229.911,269.923,229.911 L270.881,229.911 L270.881,229.049 C269.859,229.112,267.207,229.112,266.024,229.112 C264.874,229.112,262.222,229.112,261.168,229.049 L261.168,229.911 L262.126,229.911 C264.842,229.911,264.842,230.295,264.842,231.285 L264.842,232.915 C260.465,233.33,257.397,235.95,257.397,238.794 C257.397,241.734,260.56,244.29,264.842,244.705 L264.842,246.303 C264.842,247.294,264.842,247.677,262.126,247.677 L261.168,247.677 L261.168,248.572 C262.222,248.476,264.842,248.476,266.024,248.476 C267.175,248.476,269.859,248.476,270.881,248.572 L270.881,247.677 L269.923,247.677 C267.207,247.677,267.207,247.326,267.207,246.303 L267.207,244.705 Z M264.842,244.066 C260.784,243.523,260.273,240.584,260.273,238.826 C260.273,237.324,260.56,234.129,264.842,233.554 L264.842,244.066 Z M267.207,233.522 C271.169,233.969,271.968,236.621,271.968,238.794 C271.968,240.52,271.52,243.555,267.207,244.066 L267.207,233.522"/><g><path fill="none" stroke="#ff0004" stroke-width="2" d="M355.692,236.7 C355.692,187.38,315.71,147.397,266.389,147.397 C217.069,147.397,177.087,187.38,177.087,236.7 C177.087,286.02,217.069,326.002,266.389,326.002 C315.71,326.002,355.692,286.02,355.692,236.7 Z"/><path fill="none" stroke="#ff0004" stroke-width="2" d="M360.101,226.153 C358.928,229.785,357.356,233.271,355.692,236.7 C354.022,233.468,352.279,230.258,350.166,227.289"/></g><g><path fill="none" stroke="#007efd" stroke-width="2" d="M359.872,236.915 C359.872,185.129,317.891,143.147,266.104,143.147 C214.318,143.147,172.337,185.129,172.337,236.915 C172.337,288.702,214.318,330.683,266.104,330.683 C317.891,330.683,359.872,288.702,359.872,236.915 Z"/><path fill="none" stroke="#007efd" stroke-width="2" d="M364.31,247.464 C363.079,243.85,361.577,240.33,359.872,236.915 C358.243,240.166,356.433,243.329,354.375,246.328"/></g><g><path fill="none" stroke="#ff0004" stroke-width="2" d="M229.174,384.133 C254.517,390.49,281.072,390.198,306.268,383.284"/><path fill="none" stroke="#ff0004" stroke-width="2" d="M297.515,390.514 C300.549,388.249,303.435,385.793,306.268,383.284 C302.676,382.545,299.092,381.744,295.574,380.704"/></g><g><path fill="none" stroke="#007efd" stroke-width="2" d="M229.174,377.795 C255.189,384.519,282.545,384.013,308.293,376.331"/><path fill="none" stroke="#007efd" stroke-width="2" d="M237.973,384.874 C234.958,382.619,232.022,380.258,229.174,377.795 C232.779,377.011,236.355,376.1,239.894,375.06"/></g><g><text font-family="American Typewriter" font-size="30" text-anchor="middle" transform="matrix(0.6,0,0,0.6,565.181,361.644)" xml:space="preserve"><tspan>superconductor</tspan></text><path fill="none" stroke="#000" d="M418.174,340.694 L488.106,356.019"/></g><text font-family="American Typewriter" font-size="30" text-anchor="middle" transform="matrix(0.6,0,0,0.6,503.405,469.436)" xml:space="preserve"><tspan>Josephson junction on the helical edge</tspan></text><path fill="none" stroke="#000" d="M260.285,410.636 L324.788,465.143"/><text font-family="American Typewriter" font-size="30" text-anchor="middle" transform="matrix(0.6,0,0,0.6,266.261,216.77)" xml:space="preserve"><tspan>magnetic flux</tspan></text><text font-family="American Typewriter" font-size="30" text-anchor="middle" transform="matrix(0.6,0,0,0.6,658.867,279.381)" xml:space="preserve"><tspan>quantum spin Hall insulator</tspan></text><path fill="none" stroke="#000" d="M370.183,262.186 L525.783,277.511"/></g></svg>
