<?xml version="1.0" encoding="UTF-8" standalone="no"?>
<!DOCTYPE svg PUBLIC "-//W3C//DTD SVG 1.1//EN" "http://www.w3.org/Graphics/SVG/1.1/DTD/svg11.dtd">
<!--Generated by Intaglio, www.PurgatoryDesign.com-->
<svg version="1.1" viewBox="217,170,524,699" width="524" height="699" xmlns="http://www.w3.org/2000/svg" xmlns:xlink="http://www.w3.org/1999/xlink"><g><path fill="none" stroke="#000" stroke-width="1.5" d="M432.77,468.866 L433.057,175.116"/><path fill="none" stroke="#000" stroke-width="1.5" d="M428.549,184.112 L433.057,175.116 L437.549,184.121"/></g><g><path fill="none" stroke="#000" stroke-width="1.5" d="M651.389,324.129 L251.389,324.129"/><path fill="none" stroke="#000" stroke-width="1.5" d="M642.389,319.629 L651.389,324.129 L642.389,328.629"/></g><path fill="none" stroke="#ff0004" stroke-width="2" stroke-linecap="round" d="M264.514,468.866 C279.201,444.429,284.826,432.491,304.514,412.241 C323.493,392.72,353.602,368.194,378.889,357.775 C404.571,347.194,430.423,341.41,458.264,338.391 C513.11,332.442,556.67,330.982,612.014,328.575"/><path fill="none" stroke="#0049fd" stroke-width="2" stroke-linecap="round" d="M251.389,468.866 C282.889,417.679,307.359,371.832,339.514,321.991 C348.889,307.46,378.178,259.024,395.764,249.223 C413.383,239.404,430.764,238.506,446.643,249.223 C473.861,267.595,497.951,300.741,530.451,309.491 C552.061,315.309,588.264,318.241,610.764,318.241"/><path fill="none" stroke="#000" stroke-width="2" stroke-linecap="round" d="M278.264,468.866 C305.139,424.116,370.338,378.645,422.639,362.866 C484.07,344.333,545.764,338.391,612.226,334.641"/><g clip-path="url(#7fc8747ba010)"><clipPath id="7fc8747ba010"><path fill="#000" fill-opacity="0.35" d="M623.116,358.627 L638.107,358.627 L638.107,337.618 L623.116,337.618 Z"/></clipPath><g clip-path="url(#7fc87479e960)"><clipPath id="7fc87479e960"><path fill="#000" fill-opacity="0.35" d="M623.116,358.627 L638.116,358.627 L638.116,337.627 L623.116,337.627 Z"/></clipPath><path fill="#000" d="M637.415,340.334 C637.441,340.148,637.521,340.015,637.521,339.802 C637.521,339.296,637.149,338.976,636.643,338.976 C636.35,338.976,635.551,339.189,635.418,340.281 C634.885,339.163,633.82,338.391,632.622,338.391 C629.214,338.391,625.512,342.571,625.512,346.885 C625.512,349.867,627.323,351.624,629.48,351.624 C631.264,351.624,632.649,350.213,632.968,349.894 L632.995,349.92 C632.356,352.583,632.009,353.808,632.009,353.888 C631.876,354.154,630.865,357.11,627.696,357.11 C627.11,357.11,626.125,357.083,625.299,356.817 C626.178,356.55,626.524,355.752,626.524,355.246 C626.524,354.766,626.178,354.207,625.379,354.207 C624.714,354.207,623.755,354.74,623.755,355.938 C623.755,357.163,624.873,357.775,627.749,357.775 C631.504,357.775,633.66,355.432,634.113,353.621 L637.415,340.334 Z M633.527,347.79 C633.341,348.562,632.649,349.334,632.009,349.894 C631.37,350.426,630.438,350.959,629.586,350.959 C628.069,350.959,627.643,349.414,627.643,348.216 C627.643,346.778,628.495,343.237,629.32,341.719 C630.119,340.254,631.397,339.056,632.675,339.056 C634.646,339.056,635.072,341.479,635.072,341.612 C635.072,341.772,634.992,341.959,634.965,342.065 L633.527,347.79"/></g></g><g clip-path="url(#7fc8742e8220)"><clipPath id="7fc8742e8220"><path fill="#000" fill-opacity="0.35" d="M362.967,201.336 L416.968,201.336 L416.968,170.341 L362.967,170.341 Z"/></clipPath><g clip-path="url(#7fc8747d6570)"><clipPath id="7fc8747d6570"><path fill="#000" fill-opacity="0.35" d="M362.967,201.336 L416.967,201.336 L416.967,170.336 L362.967,170.336 Z"/></clipPath><path fill="#000" d="M379.503,176.279 C379.503,174.042,377.852,172.179,375.429,172.179 C373.671,172.179,372.846,172.658,371.781,173.457 C370.156,174.655,368.506,177.557,367.92,179.821 L363.153,198.859 C363.127,198.966,363.287,199.152,363.526,199.152 C363.766,199.152,363.846,199.099,363.872,198.992 L365.976,190.738 C366.562,192.522,367.866,193.64,370.05,193.64 C372.233,193.64,374.497,192.575,375.828,191.27 C377.266,189.886,378.225,187.969,378.225,185.758 C378.225,183.602,377.133,182.031,376.041,181.285 C377.772,180.3,379.503,178.436,379.503,176.279 Z M374.097,181.258 C373.698,181.418,373.378,181.472,372.659,181.472 C372.233,181.472,371.648,181.498,371.355,181.365 C371.408,181.045,372.473,181.125,372.819,181.125 C373.432,181.125,373.698,181.125,374.097,181.258 Z M377.825,175.613 C377.825,177.69,376.68,179.847,375.109,180.779 C374.31,180.486,373.698,180.433,372.819,180.433 C372.18,180.433,370.503,180.406,370.503,181.392 C370.476,182.217,372.02,182.137,372.58,182.137 C373.671,182.137,374.124,182.111,375.029,181.738 C376.174,182.83,376.307,183.761,376.334,185.119 C376.414,186.877,375.695,189.114,374.843,190.285 C373.671,191.909,371.674,192.975,369.97,192.975 C367.68,192.975,366.562,191.244,366.562,189.114 C366.562,188.821,366.562,188.368,366.695,187.782 L368.612,180.22 C369.278,177.637,371.435,172.871,375.029,172.871 C376.76,172.871,377.825,173.803,377.825,175.613"/><path fill="#000" d="M390.686,200.537 C390.686,200.43,390.686,200.377,390.18,199.871 C386.426,196.09,385.467,190.418,385.467,185.838 C385.467,180.646,386.612,175.427,390.287,171.673 C390.686,171.326,390.686,171.247,390.686,171.167 C390.686,170.954,390.553,170.874,390.393,170.874 C390.074,170.874,387.384,172.897,385.627,176.705 C384.083,180.007,383.736,183.335,383.736,185.838 C383.736,188.182,384.056,191.803,385.707,195.185 C387.517,198.886,390.074,200.83,390.393,200.83 C390.553,200.83,390.686,200.723,390.686,200.537"/><path fill="#000" d="M406.476,182.031 C406.503,181.871,406.556,181.711,406.556,181.498 C406.556,180.992,406.21,180.699,405.704,180.699 C405.385,180.699,404.586,180.912,404.479,181.977 C403.92,180.886,402.882,180.087,401.683,180.087 C398.275,180.087,394.547,184.294,394.547,188.608 C394.547,191.563,396.384,193.347,398.541,193.347 C400.299,193.347,401.71,191.936,402.003,191.59 L402.029,191.617 C401.417,194.306,401.044,195.531,401.044,195.584 C400.938,195.85,399.926,198.806,396.731,198.806 C396.171,198.806,395.186,198.779,394.334,198.513 C395.24,198.247,395.559,197.475,395.559,196.969 C395.559,196.489,395.24,195.904,394.441,195.904 C393.775,195.904,392.816,196.463,392.816,197.661 C392.816,198.886,393.935,199.472,396.81,199.472 C400.538,199.472,402.695,197.128,403.148,195.344 L406.476,182.057 Z M402.589,189.513 C402.402,190.285,401.71,191.031,401.044,191.59 C400.432,192.149,399.5,192.682,398.621,192.682 C397.13,192.682,396.677,191.111,396.677,189.912 C396.677,188.475,397.556,184.96,398.355,183.415 C399.154,181.951,400.458,180.753,401.71,180.753 C403.68,180.753,404.106,183.176,404.106,183.335 C404.106,183.469,404.053,183.655,404.027,183.788 L402.589,189.513"/><path fill="#000" d="M416.328,185.838 C416.328,183.522,415.982,179.874,414.358,176.492 C412.547,172.818,409.964,170.874,409.672,170.874 C409.485,170.874,409.379,170.98,409.379,171.167 C409.379,171.247,409.379,171.326,409.938,171.859 C412.867,174.815,414.598,179.581,414.598,185.838 C414.598,190.978,413.479,196.25,409.751,200.004 C409.379,200.377,409.379,200.43,409.379,200.537 C409.379,200.697,409.485,200.83,409.672,200.83 C409.964,200.83,412.68,198.779,414.438,194.972 C415.956,191.696,416.328,188.368,416.328,185.838"/></g></g><text fill="#0049fd" font-family="American Typewriter" font-size="30" text-anchor="middle" transform="matrix(0.72,0,0,0.72,539.24,252.194)" xml:space="preserve"><tspan>class AII</tspan></text><text fill="#ff0004" font-family="American Typewriter" font-size="30" text-anchor="middle" transform="matrix(0.72,0,0,0.72,505.536,402.032)" xml:space="preserve"><tspan>class A</tspan></text><path fill="none" stroke="#ff0004" d="M527.951,381.929 L573.889,332.016"/><path fill="none" stroke="#000" d="M593.264,340.248 L623.755,394.958"/><text font-family="American Typewriter" font-size="30" text-anchor="middle" transform="matrix(0.72,0,0,0.72,651.677,416.929)" xml:space="preserve"><tspan>class AI</tspan></text><path fill="#0049fd" d="M341.901,323.726 C341.901,325.778,340.29,327.441,338.301,327.441 C336.313,327.441,334.701,325.778,334.701,323.726 C334.701,321.675,336.313,320.012,338.301,320.012 C340.29,320.012,341.901,321.675,341.901,323.726 Z"/><g><path fill="none" stroke="#0049fd" stroke-width="2" stroke-dasharray="0.1" d="M295.885,393.755 L299.837,386.574"/><path fill="none" stroke="#0049fd" stroke-width="2" d="M305.086,387.405 L295.885,393.755 L296.325,382.584"/></g><g><path fill="none" stroke="#0049fd" stroke-width="2" stroke-dasharray="0.1" d="M373.911,270.617 L369.181,277.312"/><path fill="none" stroke="#0049fd" stroke-width="2" d="M364.057,275.9 L373.911,270.617 L372.225,281.67"/></g><g><path fill="none" stroke="#ff0004" stroke-width="2" stroke-dasharray="0.1" d="M315.392,401.172 L321.961,396.27"/><path fill="none" stroke="#ff0004" stroke-width="2" d="M326.396,399.199 L315.392,401.172 L320.416,391.184"/></g><g><path fill="none" stroke="#ff0004" stroke-width="2" stroke-dasharray="0.1" d="M497.524,334.643 L505.703,334.096"/><path fill="none" stroke="#ff0004" stroke-width="2" d="M507.835,338.965 L497.524,334.643 L507.169,328.987"/></g><g><path fill="none" stroke="#0049fd" stroke-width="2" stroke-dasharray="0.1" d="M504.439,297.314 L498.005,292.235"/><path fill="none" stroke="#0049fd" stroke-width="2" d="M499.687,287.193 L504.439,297.314 L493.492,295.043"/></g><g><path fill="none" stroke="#000" stroke-width="2" stroke-dasharray="0.1" d="M329.517,413.535 L336.086,408.633"/><path fill="none" stroke="#000" stroke-width="2" d="M340.521,411.562 L329.517,413.535 L334.541,403.548"/></g><g><path fill="none" stroke="#000" stroke-width="2" stroke-dasharray="0.1" d="M500.067,345.772 L508.058,343.943"/><path fill="none" stroke="#000" stroke-width="2" d="M510.931,348.415 L500.067,345.772 L508.7,338.667"/></g><g><g><path fill="none" stroke="#000" stroke-width="1.5" d="M432.77,867.5 L433.057,573.75"/><path fill="none" stroke="#000" stroke-width="1.5" d="M428.549,582.746 L433.057,573.75 L437.549,582.754"/></g><g><path fill="none" stroke="#000" stroke-width="1.5" d="M651.389,722.763 L217.639,722.763"/><path fill="none" stroke="#000" stroke-width="1.5" d="M642.389,718.263 L651.389,722.763 L642.389,727.263"/></g><path fill="none" stroke="#000" stroke-width="2" stroke-linecap="round" d="M251.389,867.5 C264.514,842.5,283.165,817.62,305.764,796.875 C325.821,778.464,347.977,766.044,373.264,755.625 C398.946,745.044,423.548,739.895,451.389,736.875 C506.235,730.926,586.553,728.365,641.896,725.959"/><path fill="none" stroke="#0049fd" stroke-width="2" d="M651.389,652.232 L573.889,652.232"/><path fill="none" stroke="#0049fd" stroke-width="2" stroke-linecap="round" d="M240.764,867.5 C251.389,821.875,267.674,780.63,293.264,741.25 C307.049,720.036,340.856,689.845,363.889,678.921 C400.356,661.626,420.139,659.062,455.764,655.312 C494.172,651.269,534.826,652.232,573.889,652.232"/><path fill="none" stroke="#ff0004" stroke-width="2" d="M651.389,796.232 L601.389,796.232"/><path fill="none" stroke="#ff0004" stroke-width="2" stroke-linecap="round" d="M264.514,867.5 C282.014,836.25,340.473,816.858,392.639,807.5 C455.451,796.232,536.701,796.73,601.389,796.232"/><g clip-path="url(#7fc87434a610)"><clipPath id="7fc87434a610"><path fill="#000" fill-opacity="0.35" d="M623.116,757.261 L638.107,757.261 L638.107,736.252 L623.116,736.252 Z"/></clipPath><g clip-path="url(#7fc874572b90)"><clipPath id="7fc874572b90"><path fill="#000" fill-opacity="0.35" d="M623.116,757.261 L638.116,757.261 L638.116,736.261 L623.116,736.261 Z"/></clipPath><path fill="#000" d="M637.415,738.968 C637.441,738.782,637.521,738.649,637.521,738.436 C637.521,737.93,637.149,737.61,636.643,737.61 C636.35,737.61,635.551,737.823,635.418,738.915 C634.885,737.796,633.82,737.024,632.622,737.024 C629.214,737.024,625.512,741.205,625.512,745.518 C625.512,748.501,627.323,750.258,629.48,750.258 C631.264,750.258,632.649,748.847,632.968,748.527 L632.995,748.554 C632.356,751.217,632.009,752.442,632.009,752.521 C631.876,752.788,630.865,755.743,627.696,755.743 C627.11,755.743,626.125,755.717,625.299,755.45 C626.178,755.184,626.524,754.385,626.524,753.879 C626.524,753.4,626.178,752.841,625.379,752.841 C624.714,752.841,623.755,753.374,623.755,754.572 C623.755,755.797,624.873,756.409,627.749,756.409 C631.504,756.409,633.66,754.066,634.113,752.255 L637.415,738.968 Z M633.527,746.424 C633.341,747.196,632.649,747.968,632.009,748.527 C631.37,749.06,630.438,749.592,629.586,749.592 C628.069,749.592,627.643,748.048,627.643,746.85 C627.643,745.412,628.495,741.87,629.32,740.353 C630.119,738.888,631.397,737.69,632.675,737.69 C634.646,737.69,635.072,740.113,635.072,740.246 C635.072,740.406,634.992,740.592,634.965,740.699 L633.527,746.424"/></g></g><g clip-path="url(#7fc874363d10)"><clipPath id="7fc874363d10"><path fill="#000" fill-opacity="0.35" d="M362.967,599.969 L416.968,599.969 L416.968,568.975 L362.967,568.975 Z"/></clipPath><g clip-path="url(#7fc8745444c0)"><clipPath id="7fc8745444c0"><path fill="#000" fill-opacity="0.35" d="M362.967,599.969 L416.967,599.969 L416.967,568.969 L362.967,568.969 Z"/></clipPath><path fill="#000" d="M379.503,574.913 C379.503,572.676,377.852,570.812,375.429,570.812 C373.671,570.812,372.846,571.292,371.781,572.09 C370.156,573.289,368.506,576.191,367.92,578.454 L363.153,597.493 C363.127,597.599,363.287,597.786,363.526,597.786 C363.766,597.786,363.846,597.733,363.872,597.626 L365.976,589.372 C366.562,591.156,367.866,592.274,370.05,592.274 C372.233,592.274,374.497,591.209,375.828,589.904 C377.266,588.52,378.225,586.602,378.225,584.392 C378.225,582.235,377.133,580.664,376.041,579.919 C377.772,578.934,379.503,577.07,379.503,574.913 Z M374.097,579.892 C373.698,580.052,373.378,580.105,372.659,580.105 C372.233,580.105,371.648,580.132,371.355,579.999 C371.408,579.679,372.473,579.759,372.819,579.759 C373.432,579.759,373.698,579.759,374.097,579.892 Z M377.825,574.247 C377.825,576.324,376.68,578.481,375.109,579.413 C374.31,579.12,373.698,579.067,372.819,579.067 C372.18,579.067,370.503,579.04,370.503,580.025 C370.476,580.851,372.02,580.771,372.58,580.771 C373.671,580.771,374.124,580.744,375.029,580.372 C376.174,581.463,376.307,582.395,376.334,583.753 C376.414,585.511,375.695,587.747,374.843,588.919 C373.671,590.543,371.674,591.608,369.97,591.608 C367.68,591.608,366.562,589.878,366.562,587.747 C366.562,587.454,366.562,587.002,366.695,586.416 L368.612,578.854 C369.278,576.271,371.435,571.505,375.029,571.505 C376.76,571.505,377.825,572.437,377.825,574.247"/><path fill="#000" d="M390.686,599.171 C390.686,599.064,390.686,599.011,390.18,598.505 C386.426,594.724,385.467,589.052,385.467,584.472 C385.467,579.28,386.612,574.061,390.287,570.306 C390.686,569.96,390.686,569.88,390.686,569.8 C390.686,569.587,390.553,569.508,390.393,569.508 C390.074,569.508,387.384,571.531,385.627,575.339 C384.083,578.641,383.736,581.969,383.736,584.472 C383.736,586.815,384.056,590.437,385.707,593.818 C387.517,597.52,390.074,599.463,390.393,599.463 C390.553,599.463,390.686,599.357,390.686,599.171"/><path fill="#000" d="M406.476,580.664 C406.503,580.505,406.556,580.345,406.556,580.132 C406.556,579.626,406.21,579.333,405.704,579.333 C405.385,579.333,404.586,579.546,404.479,580.611 C403.92,579.519,402.882,578.721,401.683,578.721 C398.275,578.721,394.547,582.928,394.547,587.241 C394.547,590.197,396.384,591.981,398.541,591.981 C400.299,591.981,401.71,590.57,402.003,590.224 L402.029,590.25 C401.417,592.94,401.044,594.165,401.044,594.218 C400.938,594.484,399.926,597.44,396.731,597.44 C396.171,597.44,395.186,597.413,394.334,597.147 C395.24,596.881,395.559,596.108,395.559,595.602 C395.559,595.123,395.24,594.537,394.441,594.537 C393.775,594.537,392.816,595.097,392.816,596.295 C392.816,597.52,393.935,598.105,396.81,598.105 C400.538,598.105,402.695,595.762,403.148,593.978 L406.476,580.691 Z M402.589,588.147 C402.402,588.919,401.71,589.664,401.044,590.224 C400.432,590.783,399.5,591.315,398.621,591.315 C397.13,591.315,396.677,589.744,396.677,588.546 C396.677,587.108,397.556,583.593,398.355,582.049 C399.154,580.585,400.458,579.386,401.71,579.386 C403.68,579.386,404.106,581.809,404.106,581.969 C404.106,582.102,404.053,582.289,404.027,582.422 L402.589,588.147"/><path fill="#000" d="M416.328,584.472 C416.328,582.156,415.982,578.508,414.358,575.126 C412.547,571.451,409.964,569.508,409.672,569.508 C409.485,569.508,409.379,569.614,409.379,569.8 C409.379,569.88,409.379,569.96,409.938,570.493 C412.867,573.448,414.598,578.215,414.598,584.472 C414.598,589.611,413.479,594.883,409.751,598.638 C409.379,599.011,409.379,599.064,409.379,599.171 C409.379,599.33,409.485,599.463,409.672,599.463 C409.964,599.463,412.68,597.413,414.438,593.605 C415.956,590.33,416.328,587.002,416.328,584.472"/></g></g><g clip-path="url(#7fc874350b80)"><clipPath id="7fc874350b80"><path fill="#000" fill-opacity="0.35" d="M671.406,658.921 L740.398,658.921 L740.398,636.927 L671.406,636.927 Z"/></clipPath><g clip-path="url(#7fc874314ae0)"><clipPath id="7fc874314ae0"><path fill="#000" fill-opacity="0.35" d="M671.406,658.921 L740.406,658.921 L740.406,636.921 L671.406,636.921 Z"/></clipPath><path fill="#00f" d="M686.451,637.459 C686.451,637.432,686.451,637.14,686.078,637.14 C685.625,637.14,682.776,637.406,682.27,637.459 C682.03,637.486,681.844,637.646,681.844,638.045 C681.844,638.391,682.11,638.391,682.563,638.391 C684.001,638.391,684.054,638.604,684.054,638.897 L683.974,639.509 L682.19,646.592 C681.631,645.501,680.779,644.675,679.421,644.675 C675.906,644.675,672.205,649.095,672.205,653.462 C672.205,656.285,673.856,658.255,676.199,658.255 C676.785,658.255,678.276,658.122,680.087,655.992 C680.326,657.27,681.365,658.255,682.803,658.255 C683.868,658.255,684.533,657.563,685.013,656.604 C685.545,655.513,685.918,653.702,685.918,653.649 C685.918,653.329,685.652,653.329,685.572,653.329 C685.252,653.329,685.226,653.462,685.146,653.888 C684.64,655.832,684.107,657.589,682.856,657.589 C682.057,657.589,681.977,656.817,681.977,656.205 C681.977,655.486,682.03,655.273,682.137,654.767 L686.451,637.459 Z M680.22,654.368 C680.087,654.9,680.087,654.953,679.634,655.459 C678.329,657.11,677.078,657.589,676.252,657.589 C674.761,657.589,674.335,655.939,674.335,654.767 C674.335,653.276,675.294,649.601,675.986,648.217 C676.918,646.459,678.249,645.341,679.448,645.341 C681.391,645.341,681.817,647.791,681.817,647.977 C681.817,648.163,681.764,648.323,681.737,648.483 L680.22,654.368"/><path fill="#00f" d="M715.474,648.137 C715.927,648.137,716.513,648.137,716.513,647.524 C716.513,646.938,715.927,646.938,715.501,646.938 L697.581,646.938 C697.155,646.938,696.596,646.938,696.596,647.524 C696.596,648.137,697.155,648.137,697.607,648.137 L715.474,648.137 Z M715.501,653.941 C715.927,653.941,716.513,653.941,716.513,653.329 C716.513,652.743,715.927,652.743,715.474,652.743 L697.607,652.743 C697.155,652.743,696.596,652.743,696.596,653.329 C696.596,653.941,697.155,653.941,697.581,653.941 L715.501,653.941"/><path fill="#00f" d="M735.179,647.365 C737.655,646.566,739.386,644.462,739.386,642.092 C739.386,639.643,736.75,637.965,733.874,637.965 C730.839,637.965,728.575,639.776,728.575,642.039 C728.575,643.024,729.241,643.61,730.093,643.61 C731.025,643.61,731.637,642.944,731.637,642.066 C731.637,640.574,730.226,640.574,729.773,640.574 C730.705,639.11,732.676,638.711,733.768,638.711 C734.992,638.711,736.643,639.376,736.643,642.066 C736.643,642.438,736.563,644.169,735.791,645.501 C734.886,646.938,733.874,647.018,733.128,647.045 C732.889,647.072,732.17,647.152,731.957,647.152 C731.717,647.178,731.504,647.205,731.504,647.498 C731.504,647.817,731.717,647.817,732.223,647.817 L733.555,647.817 C736.004,647.817,737.096,649.868,737.096,652.797 C737.096,656.871,735.046,657.749,733.714,657.749 C732.436,657.749,730.199,657.243,729.134,655.459 C730.199,655.619,731.131,654.953,731.131,653.808 C731.131,652.743,730.306,652.131,729.454,652.131 C728.735,652.131,727.776,652.557,727.776,653.888 C727.776,656.604,730.546,658.575,733.821,658.575 C737.469,658.575,740.184,655.859,740.184,652.797 C740.184,650.347,738.321,648.004,735.205,647.365"/></g></g><g clip-path="url(#7fc8751006c0)"><clipPath id="7fc8751006c0"><path fill="#000" fill-opacity="0.35" d="M670.456,802.875 L738.463,802.875 L738.463,780.881 L670.456,780.881 Z"/></clipPath><g clip-path="url(#7fc87511c1f0)"><clipPath id="7fc87511c1f0"><path fill="#000" fill-opacity="0.35" d="M670.456,802.875 L738.456,802.875 L738.456,780.875 L670.456,780.875 Z"/></clipPath><path fill="#f00" d="M685.501,781.413 C685.501,781.386,685.501,781.094,685.128,781.094 C684.675,781.094,681.826,781.36,681.32,781.413 C681.08,781.44,680.894,781.599,680.894,781.999 C680.894,782.345,681.16,782.345,681.613,782.345 C683.051,782.345,683.104,782.558,683.104,782.851 L683.024,783.463 L681.24,790.546 C680.681,789.455,679.829,788.629,678.471,788.629 C674.956,788.629,671.255,793.049,671.255,797.416 C671.255,800.239,672.906,802.209,675.249,802.209 C675.835,802.209,677.326,802.076,679.137,799.946 C679.376,801.224,680.415,802.209,681.853,802.209 C682.918,802.209,683.583,801.517,684.063,800.558 C684.595,799.466,684.968,797.656,684.968,797.603 C684.968,797.283,684.702,797.283,684.622,797.283 C684.302,797.283,684.276,797.416,684.196,797.842 C683.69,799.786,683.157,801.543,681.906,801.543 C681.107,801.543,681.027,800.771,681.027,800.159 C681.027,799.44,681.08,799.227,681.187,798.721 L685.501,781.413 Z M679.27,798.321 C679.137,798.854,679.137,798.907,678.684,799.413 C677.379,801.064,676.128,801.543,675.302,801.543 C673.811,801.543,673.385,799.893,673.385,798.721 C673.385,797.23,674.344,793.555,675.036,792.171 C675.968,790.413,677.299,789.295,678.498,789.295 C680.441,789.295,680.867,791.745,680.867,791.931 C680.867,792.117,680.814,792.277,680.788,792.437 L679.27,798.321"/><path fill="#f00" d="M714.525,792.091 C714.977,792.091,715.563,792.091,715.563,791.478 C715.563,790.892,714.977,790.892,714.551,790.892 L696.631,790.892 C696.205,790.892,695.646,790.892,695.646,791.478 C695.646,792.091,696.205,792.091,696.658,792.091 L714.525,792.091 Z M714.551,797.895 C714.977,797.895,715.563,797.895,715.563,797.283 C715.563,796.697,714.977,796.697,714.525,796.697 L696.658,796.697 C696.205,796.697,695.646,796.697,695.646,797.283 C695.646,797.895,696.205,797.895,696.631,797.895 L714.551,797.895"/><path fill="#f00" d="M734.362,782.718 C734.362,781.999,734.362,781.919,733.67,781.919 C731.806,783.836,729.17,783.836,728.211,783.836 L728.211,784.768 C728.824,784.768,730.581,784.768,732.152,783.996 L732.152,799.52 C732.152,800.585,732.045,800.958,729.356,800.958 L728.397,800.958 L728.397,801.863 C729.436,801.783,732.045,801.783,733.244,801.783 C734.442,801.783,737.051,801.783,738.117,801.863 L738.117,800.958 L737.158,800.958 C734.442,800.958,734.362,800.611,734.362,799.52 L734.362,782.691"/></g></g><g clip-path="url(#7fc8743422c0)"><clipPath id="7fc8743422c0"><path fill="#000" fill-opacity="0.35" d="M671.526,727.875 L740.517,727.875 L740.517,705.881 L671.526,705.881 Z"/></clipPath><g clip-path="url(#7fc874315af0)"><clipPath id="7fc874315af0"><path fill="#000" fill-opacity="0.35" d="M671.526,727.875 L740.526,727.875 L740.526,705.875 L671.526,705.875 Z"/></clipPath><path fill="#000" d="M686.57,706.413 C686.57,706.386,686.57,706.094,686.197,706.094 C685.745,706.094,682.896,706.36,682.39,706.413 C682.15,706.44,681.964,706.599,681.964,706.999 C681.964,707.345,682.23,707.345,682.683,707.345 C684.12,707.345,684.174,707.558,684.174,707.851 L684.094,708.463 L682.31,715.546 C681.751,714.455,680.899,713.629,679.541,713.629 C676.026,713.629,672.324,718.049,672.324,722.416 C672.324,725.239,673.975,727.209,676.319,727.209 C676.904,727.209,678.396,727.076,680.206,724.946 C680.446,726.224,681.484,727.209,682.922,727.209 C683.987,727.209,684.653,726.517,685.132,725.558 C685.665,724.466,686.038,722.656,686.038,722.603 C686.038,722.283,685.771,722.283,685.691,722.283 C685.372,722.283,685.345,722.416,685.265,722.842 C684.76,724.786,684.227,726.543,682.975,726.543 C682.177,726.543,682.097,725.771,682.097,725.159 C682.097,724.44,682.15,724.227,682.257,723.721 L686.57,706.413 Z M680.339,723.321 C680.206,723.854,680.206,723.907,679.754,724.413 C678.449,726.064,677.197,726.543,676.372,726.543 C674.881,726.543,674.455,724.893,674.455,723.721 C674.455,722.23,675.413,718.555,676.106,717.171 C677.038,715.413,678.369,714.295,679.567,714.295 C681.511,714.295,681.937,716.745,681.937,716.931 C681.937,717.117,681.884,717.277,681.857,717.437 L680.339,723.321"/><path fill="#000" d="M715.594,717.091 C716.047,717.091,716.633,717.091,716.633,716.478 C716.633,715.892,716.047,715.892,715.621,715.892 L697.7,715.892 C697.274,715.892,696.715,715.892,696.715,716.478 C696.715,717.091,697.274,717.091,697.727,717.091 L715.594,717.091 Z M715.621,722.895 C716.047,722.895,716.633,722.895,716.633,722.283 C716.633,721.697,716.047,721.697,715.594,721.697 L697.727,721.697 C697.274,721.697,696.715,721.697,696.715,722.283 C696.715,722.895,697.274,722.895,697.7,722.895 L715.621,722.895"/><path fill="#000" d="M730.426,724.573 L733.594,721.484 C738.281,717.357,740.065,715.733,740.065,712.75 C740.065,709.315,737.375,706.919,733.727,706.919 C730.346,706.919,728.136,709.688,728.136,712.351 C728.136,714.028,729.627,714.028,729.707,714.028 C730.213,714.028,731.278,713.656,731.278,712.431 C731.278,711.659,730.718,710.886,729.68,710.886 C729.44,710.886,729.387,710.886,729.281,710.913 C729.973,708.969,731.597,707.851,733.328,707.851 C736.071,707.851,737.349,710.274,737.349,712.724 C737.349,715.12,735.858,717.49,734.207,719.354 L728.455,725.771 C728.136,726.091,728.136,726.144,728.136,726.863 L739.239,726.863 L740.065,721.671 L739.319,721.671 C739.186,722.549,738.973,723.881,738.68,724.333 C738.467,724.573,736.47,724.573,735.831,724.573 L730.426,724.573"/></g></g><path fill="#0049fd" d="M312.214,722.724 C312.214,724.775,310.602,726.438,308.614,726.438 C306.626,726.438,305.014,724.775,305.014,722.724 C305.014,720.672,306.626,719.009,308.614,719.009 C310.602,719.009,312.214,720.672,312.214,722.724 Z"/><g><path fill="none" stroke="#000" stroke-width="2" stroke-dasharray="0.1" d="M305.764,796.406 L312.214,791.347"/><path fill="none" stroke="#000" stroke-width="2" d="M316.718,794.169 L305.764,796.406 L310.547,786.301"/></g><g><path fill="none" stroke="#000" stroke-width="2" stroke-dasharray="0.1" d="M479.763,734.295 L487.932,733.62"/><path fill="none" stroke="#000" stroke-width="2" d="M490.14,738.455 L479.763,734.295 L489.317,728.489"/></g><g><path fill="none" stroke="#0049fd" stroke-width="2" stroke-dasharray="0.1" d="M264.2,794.379 L268.152,787.198"/><path fill="none" stroke="#0049fd" stroke-width="2" d="M273.402,788.029 L264.2,794.379 L264.641,783.207"/></g><g><path fill="none" stroke="#0049fd" stroke-width="2" stroke-dasharray="0.1" d="M370.849,675.989 L363.283,679.144"/><path fill="none" stroke="#0049fd" stroke-width="2" d="M359.695,675.222 L370.849,675.989 L363.543,684.452"/></g><g><path fill="none" stroke="#ff0004" stroke-width="2" stroke-dasharray="0.1" d="M319.551,827.305 L327.302,824.636"/><path fill="none" stroke="#ff0004" stroke-width="2" d="M330.634,828.776 L319.551,827.305 L327.378,819.321"/></g><g><path fill="none" stroke="#ff0004" stroke-width="2" stroke-dasharray="0.1" d="M481.625,798.286 L489.82,798.099"/><path fill="none" stroke="#ff0004" stroke-width="2" d="M491.736,803.056 L481.625,798.286 L491.508,793.059"/></g></g><g clip-path="url(#7fc874576f40)"><clipPath id="7fc874576f40"><path fill="#000" fill-opacity="0.35" d="M498.356,282.353 L580.368,282.353 L580.368,257.349 L498.356,257.349 Z"/></clipPath><g clip-path="url(#7fc8745935a0)"><clipPath id="7fc8745935a0"><path fill="#000" fill-opacity="0.35" d="M498.356,282.353 L580.356,282.353 L580.356,257.353 L498.356,257.353 Z"/></clipPath><path fill="#00f" d="M511.856,262.196 C511.856,260.412,510.551,258.92,508.634,258.92 C507.25,258.92,506.584,259.293,505.732,259.932 C504.427,260.864,503.122,263.181,502.67,264.991 L498.862,280.143 C498.835,280.222,498.968,280.382,499.155,280.382 C499.341,280.382,499.421,280.329,499.448,280.249 L501.125,273.672 C501.578,275.11,502.616,275.989,504.347,275.989 C506.105,275.989,507.889,275.163,508.954,274.098 C510.099,273.006,510.871,271.489,510.871,269.731 C510.871,268,509.992,266.776,509.113,266.163 C510.498,265.391,511.856,263.9,511.856,262.196 Z M507.569,266.136 C507.276,266.27,507.01,266.323,506.424,266.323 C506.105,266.323,505.625,266.323,505.386,266.216 C505.439,265.977,506.291,266.03,506.557,266.03 C507.037,266.03,507.276,266.03,507.569,266.136 Z M510.525,261.636 C510.525,263.314,509.619,265.018,508.395,265.764 C507.729,265.524,507.276,265.471,506.557,265.471 C506.051,265.471,504.72,265.444,504.72,266.243 C504.693,266.909,505.918,266.829,506.344,266.829 C507.25,266.829,507.596,266.802,508.315,266.536 C509.22,267.388,509.327,268.134,509.353,269.225 C509.406,270.61,508.847,272.394,508.155,273.326 C507.25,274.604,505.652,275.456,504.294,275.456 C502.483,275.456,501.578,274.072,501.578,272.394 C501.578,272.154,501.578,271.782,501.684,271.329 L503.202,265.311 C503.735,263.261,505.439,259.48,508.315,259.48 C509.699,259.48,510.525,260.199,510.525,261.636"/><path fill="#00f" d="M536.859,267.787 C536.859,267.255,536.726,267.015,536.54,267.015 C536.407,267.015,536.22,267.202,536.194,267.654 C536.114,269.944,534.543,271.249,532.865,271.249 C531.374,271.249,530.229,270.21,529.057,269.199 C527.833,268.107,526.608,266.989,524.983,266.989 C522.374,266.989,520.963,269.625,520.963,271.782 C520.963,272.554,521.282,272.554,521.309,272.554 C521.575,272.554,521.628,272.074,521.628,271.995 C521.735,269.385,523.519,268.347,524.983,268.347 C526.475,268.347,527.62,269.358,528.791,270.397 C530.016,271.489,531.241,272.58,532.865,272.58 C535.475,272.58,536.859,269.971,536.859,267.787"/><path fill="#00f" d="M551.877,260.491 C551.877,259.932,551.877,259.879,551.318,259.879 C549.827,261.397,547.75,261.397,546.978,261.397 L546.978,262.142 C547.457,262.142,548.868,262.142,550.093,261.53 L550.093,273.858 C550.093,274.737,550.04,275.003,547.883,275.003 L547.111,275.003 L547.111,275.749 C547.963,275.669,550.04,275.669,550.972,275.669 C551.93,275.669,554.007,275.669,554.833,275.749 L554.833,275.003 L554.087,275.003 C551.93,275.003,551.877,274.764,551.877,273.858 L551.877,260.491"/><path fill="#00f" d="M567.215,258.787 C567.348,258.468,567.348,258.361,567.348,258.361 C567.348,258.095,567.134,257.882,566.869,257.882 C566.708,257.882,566.522,257.935,566.469,258.095 L558.188,280.808 C558.055,281.128,558.055,281.208,558.055,281.234 C558.055,281.501,558.294,281.714,558.534,281.714 C558.854,281.714,558.933,281.554,559.067,281.128 L567.215,258.787"/><path fill="#00f" d="M579.996,266.776 C579.996,266.616,580.049,266.509,580.049,266.323 C580.049,265.923,579.783,265.684,579.357,265.684 C579.117,265.684,578.478,265.87,578.398,266.722 C577.972,265.844,577.12,265.205,576.162,265.205 C573.445,265.205,570.49,268.56,570.49,271.995 C570.49,274.338,571.954,275.749,573.659,275.749 C575.07,275.749,576.188,274.631,576.428,274.364 L576.454,274.391 C575.948,276.521,575.682,277.48,575.682,277.533 C575.575,277.746,574.777,280.116,572.247,280.116 C571.794,280.116,570.995,280.089,570.33,279.876 C571.049,279.663,571.315,279.051,571.315,278.625 C571.315,278.252,571.049,277.799,570.41,277.799 C569.877,277.799,569.105,278.225,569.105,279.184 C569.105,280.169,569.984,280.648,572.274,280.648 C575.256,280.648,576.987,278.785,577.333,277.347 L579.996,266.776 Z M576.88,272.713 C576.747,273.326,576.188,273.912,575.682,274.364 C575.176,274.79,574.431,275.216,573.738,275.216 C572.54,275.216,572.194,273.992,572.194,273.033 C572.194,271.888,572.886,269.066,573.525,267.867 C574.164,266.696,575.203,265.737,576.188,265.737 C577.759,265.737,578.105,267.681,578.105,267.787 C578.105,267.921,578.052,268.054,578.025,268.16 L576.88,272.713"/></g></g><g clip-path="url(#7fc87436a200)"><clipPath id="7fc87436a200"><path fill="#000" fill-opacity="0.35" d="M447.137,432.399 L557.134,432.399 L557.134,404.386 L447.137,404.386 Z"/></clipPath><g clip-path="url(#7fc8745e20e0)"><clipPath id="7fc8745e20e0"><path fill="#000" fill-opacity="0.35" d="M447.137,432.399 L557.137,432.399 L557.137,404.399 L447.137,404.399 Z"/></clipPath><path fill="#f00" d="M460.45,412.029 C460.45,410.244,459.146,408.753,457.202,408.753 C455.817,408.753,455.151,409.153,454.326,409.765 C452.995,410.724,451.69,413.04,451.237,414.851 L447.456,429.975 C447.429,430.082,447.536,430.215,447.749,430.215 C447.935,430.215,447.989,430.188,448.015,430.109 L449.693,423.532 C450.145,424.943,451.184,425.848,452.941,425.848 C454.672,425.848,456.456,424.996,457.548,423.958 C458.693,422.866,459.438,421.321,459.438,419.564 C459.438,417.86,458.56,416.608,457.708,416.023 C459.092,415.224,460.45,413.759,460.45,412.029 Z M456.163,415.996 C455.844,416.103,455.577,416.156,455.018,416.156 C454.672,416.156,454.193,416.182,453.953,416.049 C454.006,415.836,454.859,415.863,455.125,415.863 C455.631,415.863,455.844,415.863,456.163,415.996 Z M459.119,411.496 C459.119,413.147,458.214,414.878,456.962,415.597 C456.323,415.384,455.844,415.33,455.125,415.33 C454.619,415.33,453.288,415.304,453.288,416.076 C453.261,416.742,454.512,416.688,454.938,416.688 C455.817,416.688,456.163,416.662,456.882,416.369 C457.788,417.221,457.921,417.966,457.947,419.058 C458.001,420.443,457.415,422.227,456.749,423.159 C455.817,424.464,454.219,425.316,452.861,425.316 C451.051,425.316,450.145,423.931,450.145,422.227 C450.145,421.987,450.145,421.641,450.252,421.188 L451.796,415.144 C452.302,413.094,454.033,409.312,456.882,409.312 C458.267,409.312,459.119,410.058,459.119,411.496"/><path fill="#f00" d="M485.347,417.647 C485.347,417.114,485.214,416.875,485.027,416.875 C484.894,416.875,484.708,417.034,484.681,417.487 C484.575,419.777,483.004,421.082,481.353,421.082 C479.835,421.082,478.69,420.07,477.518,419.032 C476.32,417.94,475.069,416.848,473.445,416.848 C470.862,416.848,469.45,419.458,469.45,421.641 C469.45,422.413,469.77,422.413,469.77,422.413 C470.036,422.413,470.116,421.934,470.116,421.854 C470.223,419.245,472.007,418.179,473.445,418.179 C474.962,418.179,476.107,419.218,477.279,420.23 C478.477,421.321,479.729,422.44,481.353,422.44 C483.936,422.44,485.347,419.804,485.347,417.647"/><path fill="#f00" d="M509.045,420.123 C509.445,420.123,509.871,420.123,509.871,419.644 C509.871,419.165,509.445,419.165,509.045,419.165 L496.158,419.165 C495.732,419.165,495.306,419.165,495.306,419.644 C495.306,420.123,495.758,420.123,496.158,420.123 L509.045,420.123"/><path fill="#f00" d="M518.951,410.351 C518.951,409.765,518.951,409.712,518.391,409.712 C516.927,411.256,514.824,411.256,514.051,411.256 L514.051,411.975 C514.531,411.975,515.942,411.975,517.193,411.363 L517.193,423.718 C517.193,424.57,517.113,424.863,514.957,424.863 L514.211,424.863 L514.211,425.609 C515.037,425.529,517.113,425.529,518.072,425.529 C519.031,425.529,521.081,425.529,521.933,425.609 L521.933,424.863 L521.161,424.863 C519.031,424.863,518.951,424.597,518.951,423.718 L518.951,410.351"/><path fill="#f00" d="M534.395,408.62 C534.528,408.327,534.528,408.221,534.528,408.194 C534.528,407.928,534.315,407.715,534.049,407.715 C533.889,407.715,533.702,407.795,533.649,407.928 L525.368,430.641 C525.235,430.961,525.235,431.067,525.235,431.094 C525.235,431.333,525.475,431.546,525.714,431.546 C526.034,431.546,526.113,431.387,526.247,430.987 L534.395,408.62"/><path fill="#f00" d="M547.07,416.608 C547.096,416.475,547.149,416.342,547.149,416.182 C547.149,415.783,546.856,415.543,546.457,415.543 C546.218,415.543,545.552,415.703,545.472,416.555 C545.046,415.676,544.194,415.064,543.262,415.064 C540.546,415.064,537.59,418.392,537.59,421.827 C537.59,424.197,539.028,425.609,540.759,425.609 C542.143,425.609,543.289,424.464,543.501,424.224 L543.528,424.224 C543.049,426.354,542.755,427.339,542.755,427.393 C542.649,427.606,541.85,429.949,539.321,429.949 C538.868,429.949,538.069,429.949,537.404,429.709 C538.123,429.496,538.389,428.884,538.389,428.484 C538.389,428.111,538.123,427.659,537.483,427.659 C536.951,427.659,536.205,428.085,536.205,429.017 C536.205,430.002,537.084,430.481,539.374,430.481 C542.357,430.481,544.061,428.617,544.406,427.18 L547.07,416.608 Z M543.954,422.546 C543.821,423.159,543.289,423.771,542.755,424.224 C542.25,424.65,541.505,425.076,540.812,425.076 C539.64,425.076,539.267,423.824,539.267,422.893 C539.267,421.748,539.96,418.925,540.599,417.7 C541.238,416.529,542.276,415.597,543.289,415.597 C544.859,415.597,545.179,417.514,545.179,417.647 C545.179,417.753,545.126,417.887,545.099,417.993 L543.954,422.546"/><path fill="#f00" d="M556.629,412.747 L556.043,412.747 C556.017,413.12,555.83,414.105,555.617,414.265 C555.483,414.372,554.179,414.372,553.966,414.372 L550.85,414.372 C552.635,412.801,553.22,412.348,554.232,411.549 C555.457,410.564,556.629,409.526,556.629,407.928 C556.629,405.878,554.845,404.626,552.688,404.626 C550.611,404.626,549.2,406.091,549.2,407.635 C549.2,408.514,549.918,408.594,550.079,408.594 C550.478,408.594,550.984,408.301,550.984,407.688 C550.984,407.395,550.85,406.809,549.998,406.809 C550.505,405.611,551.649,405.238,552.448,405.238 C554.126,405.238,555.004,406.543,555.004,407.901 C555.004,409.366,553.966,410.537,553.407,411.15 L549.359,415.144 C549.2,415.304,549.2,415.33,549.2,415.81 L556.123,415.81 L556.629,412.747"/></g></g><g clip-path="url(#7fc874342710)"><clipPath id="7fc874342710"><path fill="#000" fill-opacity="0.35" d="M598.445,451.284 L699.442,451.284 L699.442,426.281 L598.445,426.281 Z"/></clipPath><g clip-path="url(#7fc875127a00)"><clipPath id="7fc875127a00"><path fill="#000" fill-opacity="0.35" d="M598.445,451.284 L699.445,451.284 L699.445,426.284 L598.445,426.284 Z"/></clipPath><path fill="#000" d="M612.264,431.127 C612.264,429.343,610.933,427.852,609.016,427.852 C607.631,427.852,606.965,428.225,606.113,428.864 C604.809,429.796,603.504,432.113,603.051,433.923 L599.27,449.074 C599.243,449.154,599.35,449.314,599.536,449.314 C599.749,449.314,599.803,449.261,599.829,449.181 L601.507,442.604 C601.959,444.042,602.998,444.92,604.755,444.92 C606.486,444.92,608.27,444.095,609.335,443.03 C610.48,441.938,611.252,440.42,611.252,438.663 C611.252,436.932,610.374,435.707,609.522,435.095 C610.906,434.323,612.264,432.832,612.264,431.127 Z M607.951,435.068 C607.658,435.201,607.391,435.255,606.806,435.255 C606.486,435.255,606.007,435.255,605.767,435.148 C605.82,434.909,606.672,434.962,606.939,434.962 C607.445,434.962,607.658,434.962,607.951,435.068 Z M610.906,430.568 C610.906,432.246,610.001,433.95,608.776,434.695 C608.137,434.456,607.658,434.403,606.939,434.403 C606.433,434.403,605.101,434.376,605.101,435.175 C605.075,435.84,606.326,435.761,606.752,435.761 C607.631,435.761,607.977,435.734,608.696,435.468 C609.601,436.32,609.735,437.065,609.761,438.157 C609.788,439.542,609.229,441.326,608.563,442.258 C607.631,443.536,606.033,444.388,604.675,444.388 C602.865,444.388,601.959,443.003,601.959,441.326 C601.959,441.086,601.959,440.713,602.066,440.261 L603.61,434.243 C604.116,432.192,605.847,428.411,608.696,428.411 C610.081,428.411,610.906,429.13,610.906,430.568"/><path fill="#000" d="M637.267,436.719 C637.267,436.187,637.108,435.947,636.921,435.947 C636.815,435.947,636.602,436.133,636.602,436.586 C636.495,438.876,634.924,440.181,633.247,440.181 C631.756,440.181,630.611,439.142,629.439,438.13 C628.214,437.039,626.989,435.92,625.365,435.92 C622.755,435.92,621.344,438.556,621.344,440.713 C621.344,441.485,621.664,441.485,621.69,441.485 C621.957,441.485,622.037,441.006,622.037,440.926 C622.116,438.317,623.9,437.278,625.365,437.278 C626.856,437.278,628.001,438.29,629.173,439.329 C630.398,440.42,631.622,441.512,633.247,441.512 C635.856,441.512,637.267,438.903,637.267,436.719"/><path fill="#000" d="M660.966,439.195 C661.365,439.195,661.791,439.195,661.791,438.716 C661.791,438.237,661.365,438.237,660.966,438.237 L648.051,438.237 C647.652,438.237,647.226,438.237,647.226,438.716 C647.226,439.195,647.652,439.195,648.051,439.195 L660.966,439.195"/><path fill="#000" d="M670.845,429.423 C670.845,428.864,670.845,428.811,670.312,428.811 C668.821,430.329,666.717,430.329,665.972,430.329 L665.972,431.074 C666.451,431.074,667.862,431.074,669.087,430.462 L669.087,442.79 C669.087,443.669,669.008,443.935,666.877,443.935 L666.105,443.935 L666.105,444.681 C666.957,444.601,669.008,444.601,669.966,444.601 C670.924,444.601,673.001,444.601,673.827,444.681 L673.827,443.935 L673.081,443.935 C670.924,443.935,670.845,443.696,670.845,442.79 L670.845,429.423"/><path fill="#000" d="M686.209,427.719 C686.342,427.4,686.342,427.293,686.342,427.293 C686.342,427.027,686.102,426.814,685.862,426.814 C685.676,426.814,685.516,426.867,685.436,427.027 L677.182,449.74 C677.048,450.06,677.048,450.139,677.048,450.166 C677.048,450.432,677.262,450.645,677.528,450.645 C677.847,450.645,677.901,450.486,678.061,450.06 L686.209,427.719"/><path fill="#000" d="M698.963,435.707 C698.99,435.548,699.043,435.441,699.043,435.255 C699.043,434.855,698.75,434.616,698.351,434.616 C698.111,434.616,697.472,434.802,697.365,435.654 C696.939,434.775,696.114,434.136,695.156,434.136 C692.44,434.136,689.484,437.491,689.484,440.926 C689.484,443.27,690.948,444.681,692.652,444.681 C694.063,444.681,695.182,443.562,695.422,443.296 L695.449,443.323 C694.942,445.453,694.65,446.412,694.65,446.465 C694.57,446.678,693.744,449.048,691.215,449.048 C690.762,449.048,689.99,449.021,689.324,448.808 C690.043,448.595,690.283,447.983,690.283,447.557 C690.283,447.184,690.043,446.731,689.377,446.731 C688.871,446.731,688.099,447.157,688.099,448.116 C688.099,449.101,688.978,449.58,691.268,449.58 C694.25,449.58,695.981,447.716,696.327,446.278 L698.963,435.707 Z M695.875,441.645 C695.741,442.258,695.182,442.843,694.65,443.296 C694.144,443.722,693.425,444.148,692.732,444.148 C691.534,444.148,691.188,442.923,691.188,441.965 C691.188,440.82,691.88,437.997,692.52,436.799 C693.158,435.627,694.171,434.669,695.182,434.669 C696.753,434.669,697.1,436.613,697.1,436.719 C697.1,436.852,697.046,436.985,697.019,437.092 L695.875,441.645"/></g></g></svg>
