<?xml version="1.0" encoding="UTF-8" standalone="no"?>
<!-- Created with Inkscape (http://www.inkscape.org/) -->

<svg
   xmlns:dc="http://purl.org/dc/elements/1.1/"
   xmlns:cc="http://creativecommons.org/ns#"
   xmlns:rdf="http://www.w3.org/1999/02/22-rdf-syntax-ns#"
   xmlns:svg="http://www.w3.org/2000/svg"
   xmlns="http://www.w3.org/2000/svg"
   xmlns:sodipodi="http://sodipodi.sourceforge.net/DTD/sodipodi-0.dtd"
   xmlns:inkscape="http://www.inkscape.org/namespaces/inkscape"
   width="680.25"
   height="208.83102"
   id="svg3964"
   version="1.1"
   inkscape:version="0.48.4 r9939"
   sodipodi:docname="New document 2">
  <defs
     id="defs3966">
    <clipPath
       id="7fc8742b2e00">
      <path
         style="fill:#000000;fill-opacity:0.35"
         inkscape:connector-curvature="0"
         d="m 222.858,117.61 17.28,0 0,-16.888 -17.28,0 z"
         id="path604" />
    </clipPath>
    <clipPath
       id="7fc87505d8c0">
      <path
         style="fill:#000000;fill-opacity:0.35"
         inkscape:connector-curvature="0"
         d="m 222.858,117.362 17.28,0 0,-16.64 -17.28,0 z"
         id="path609" />
    </clipPath>
  </defs>
  <sodipodi:namedview
     id="base"
     pagecolor="#ffffff"
     bordercolor="#666666"
     borderopacity="1.0"
     inkscape:pageopacity="0.0"
     inkscape:pageshadow="2"
     inkscape:zoom="0.86377106"
     inkscape:cx="340.1145"
     inkscape:cy="104.41015"
     inkscape:document-units="px"
     inkscape:current-layer="layer1"
     showgrid="false"
     fit-margin-top="0"
     fit-margin-left="0"
     fit-margin-right="0"
     fit-margin-bottom="0"
     inkscape:window-width="1855"
     inkscape:window-height="1056"
     inkscape:window-x="65"
     inkscape:window-y="24"
     inkscape:window-maximized="1" />
  <metadata
     id="metadata3969">
    <rdf:RDF>
      <cc:Work
         rdf:about="">
        <dc:format>image/svg+xml</dc:format>
        <dc:type
           rdf:resource="http://purl.org/dc/dcmitype/StillImage" />
        <dc:title></dc:title>
      </cc:Work>
    </rdf:RDF>
  </metadata>
  <g
     inkscape:label="Layer 1"
     inkscape:groupmode="layer"
     id="layer1"
     transform="translate(-31.93274,-421.76021)">
    <g
       transform="translate(-174.25476,373.43498)"
       id="g535">
      <text
         style="font-size:24px;font-family:American Typewriter"
         font-size="24"
         transform="translate(806.504,139.059)"
         xml:space="preserve"
         id="text537"><tspan
           id="tspan539">flux</tspan></text>
      <g
         id="g541">
        <path
           style="fill:#bcbcbc;stroke:#000000;stroke-width:2"
           inkscape:connector-curvature="0"
           d="m 406.386,78.4463 c -7.341,0 -13.292,36.2647 -13.292,80.9997 0,44.735 5.951,81 13.292,81 7.341,0 13.292,-36.265 13.292,-81 0,-44.735 -5.951,-80.9997 -13.292,-80.9997 z"
           id="path543" />
        <path
           style="fill:#bcbcbc"
           inkscape:connector-curvature="0"
           d="m 778.099,240.446 0,-161.9997 -371.713,0 0,161.9997 z"
           id="path545" />
        <path
           style="fill:none;stroke:#000000;stroke-width:2"
           inkscape:connector-curvature="0"
           d="m 778.099,240.446 -372.102,0"
           id="path547" />
        <path
           style="fill:none;stroke:#000000;stroke-width:2"
           inkscape:connector-curvature="0"
           d="m 406.386,78.4463 369.757,0"
           id="path549" />
        <path
           style="fill:#ffffff;stroke:#000000;stroke-width:2"
           inkscape:connector-curvature="0"
           d="m 776.143,78.4463 c -7.341,0 -13.292,36.2647 -13.292,80.9997 0,44.735 5.951,81 13.292,81 7.341,0 13.292,-36.265 13.292,-81 0,-44.735 -5.951,-80.9997 -13.292,-80.9997 z"
           id="path551" />
        <path
           style="fill:none;stroke:#000000;stroke-dasharray:5"
           inkscape:connector-curvature="0"
           d="m 406.436,78.4463 c -7.341,0 -13.292,36.2647 -13.292,80.9997 0,44.735 5.951,81 13.292,81 7.341,0 13.292,-36.265 13.292,-81 0,-44.735 -5.951,-80.9997 -13.292,-80.9997 z"
           id="path553" />
      </g>
      <g
         id="g555">
        <path
           style="fill:none;stroke:#000000;stroke-width:3"
           inkscape:connector-curvature="0"
           d="m 776.192,155.067 88.516,0"
           id="path557" />
        <path
           style="fill:none;stroke:#000000;stroke-width:3"
           inkscape:connector-curvature="0"
           d="m 852.708,149.067 12,6 -12,6"
           id="path559" />
      </g>
      <g
         id="g561">
        <g
           id="g563">
          <path
             style="fill:none;stroke:#000000;stroke-width:2"
             inkscape:connector-curvature="0"
             d="m 861.226,224.476 0,18.491"
             id="path565" />
          <g
             id="g567">
            <path
               style="fill:none;stroke:#000000;stroke-width:2"
               inkscape:connector-curvature="0"
               d="m 886.426,242.967 -50.4,0"
               id="path569" />
            <path
               style="fill:none;stroke:#000000;stroke-width:2"
               inkscape:connector-curvature="0"
               d="m 881.386,247.367 -40.32,0"
               id="path571" />
            <path
               style="fill:none;stroke:#000000;stroke-width:2"
               inkscape:connector-curvature="0"
               d="m 876.346,251.767 -30.24,0"
               id="path573" />
            <path
               style="fill:none;stroke:#000000;stroke-width:2"
               inkscape:connector-curvature="0"
               d="m 871.306,256.167 -20.16,0"
               id="path575" />
          </g>
        </g>
        <path
           style="fill:none;stroke:#000000;stroke-width:2"
           inkscape:connector-curvature="0"
           d="m 783.221,223.668 78.005,0"
           id="path577" />
      </g>
      <path
         style="fill:none;stroke:#000000;stroke-width:2"
         inkscape:connector-curvature="0"
         d="m 252.978,109.522 142.326,0"
         id="path579" />
      <g
         id="g581">
        <g
           id="g583">
          <path
             style="fill:none;stroke:#000000;stroke-width:2"
             inkscape:connector-curvature="0"
             d="m 231.378,132.322 0,18.492"
             id="path585" />
          <g
             id="g587">
            <path
               style="fill:none;stroke:#000000;stroke-width:2"
               inkscape:connector-curvature="0"
               d="m 256.578,150.814 -50.4,0"
               id="path589" />
            <path
               style="fill:none;stroke:#000000;stroke-width:2"
               inkscape:connector-curvature="0"
               d="m 251.538,155.214 -40.32,0"
               id="path591" />
            <path
               style="fill:none;stroke:#000000;stroke-width:2"
               inkscape:connector-curvature="0"
               d="m 246.498,159.614 -30.24,0"
               id="path593" />
            <path
               style="fill:none;stroke:#000000;stroke-width:2"
               inkscape:connector-curvature="0"
               d="m 241.458,164.014 -20.16,0"
               id="path595" />
          </g>
        </g>
        <g
           id="g597">
          <path
             style="fill:#ffffff;stroke:#000000;stroke-width:2"
             inkscape:connector-curvature="0"
             d="m 252.978,110.864 c 0,11.93 -9.67,21.6 -21.6,21.6 -11.929,0 -21.6,-9.67 -21.6,-21.6 0,-11.9289 9.671,-21.5995 21.6,-21.5995 11.93,0 21.6,9.6706 21.6,21.5995 z"
             id="path599" />
          <g
             clip-path="url(#7fc8742b2e00)"
             id="g601">
            <clipPath
               id="clipPath3946">
              <path
                 style="fill:#000000;fill-opacity:0.35"
                 inkscape:connector-curvature="0"
                 d="m 222.858,117.61 17.28,0 0,-16.888 -17.28,0 z"
                 id="path3948" />
            </clipPath>
            <g
               clip-path="url(#7fc87505d8c0)"
               id="g606">
              <clipPath
                 id="clipPath3951">
                <path
                   style="fill:#000000;fill-opacity:0.35"
                   inkscape:connector-curvature="0"
                   d="m 222.858,117.362 17.28,0 0,-16.64 -17.28,0 z"
                   id="path3953" />
              </clipPath>
              <path
                 style="fill:#000000"
                 inkscape:connector-curvature="0"
                 d="m 236.337,103.772 c 1.125,-1.789 2.08,-1.858 2.932,-1.909 0.289,-0.017 0.306,-0.409 0.306,-0.443 0,-0.17 -0.119,-0.272 -0.306,-0.272 -0.597,0 -1.261,0.068 -1.875,0.068 -0.767,0 -1.551,-0.068 -2.284,-0.068 -0.136,0 -0.426,0 -0.426,0.443 0,0.255 0.205,0.272 0.358,0.272 0.631,0.051 1.057,0.273 1.057,0.75 0,0.358 -0.341,0.852 -0.341,0.886 l -7.055,11.214 -1.568,-12.168 c 0,-0.375 0.528,-0.682 1.585,-0.682 0.324,0 0.579,0 0.579,-0.46 0,-0.204 -0.187,-0.255 -0.324,-0.255 -0.92,0 -1.908,0.068 -2.845,0.068 -0.409,0 -0.853,-0.017 -1.262,-0.017 -0.426,0 -0.852,-0.051 -1.244,-0.051 -0.17,0 -0.443,0 -0.443,0.443 0,0.272 0.205,0.272 0.58,0.272 1.278,0 1.312,0.205 1.38,0.784 l 1.807,14.179 c 0.085,0.46 0.17,0.528 0.46,0.528 0.375,0 0.46,-0.119 0.647,-0.409 l 8.282,-13.173"
                 id="path611" />
            </g>
          </g>
        </g>
      </g>
      <g
         id="g613">
        <path
           style="fill:#ffffff;stroke:#000000"
           inkscape:connector-curvature="0"
           d="m 363.094,81.7175 c 12.15,0 22,5.0953 22,11.3807 0,6.2854 -9.85,11.3808 -22,11.3808"
           id="path615" />
        <g
           id="g617">
          <path
             style="fill:none;stroke:#000000"
             inkscape:connector-curvature="0"
             d="m 273.227,81.6619 90.14,0"
             id="path619" />
          <path
             style="fill:none;stroke:#000000"
             inkscape:connector-curvature="0"
             d="m 281.227,85.6619 -8,-4 8,-4"
             id="path621" />
        </g>
        <path
           style="fill:none;stroke:#000000"
           inkscape:connector-curvature="0"
           d="m 340.516,104.44 22.703,0"
           id="path623" />
      </g>
      <text
         style="font-size:24px;font-family:American Typewriter"
         font-size="24"
         transform="translate(276.308,66.5596)"
         xml:space="preserve"
         id="text625"><tspan
           id="tspan627">reflection</tspan></text>
    </g>
  </g>
</svg>
