<?xml version="1.0" encoding="UTF-8" standalone="no"?>
<!-- Created with Inkscape (http://www.inkscape.org/) -->

<svg
   xmlns:dc="http://purl.org/dc/elements/1.1/"
   xmlns:cc="http://creativecommons.org/ns#"
   xmlns:rdf="http://www.w3.org/1999/02/22-rdf-syntax-ns#"
   xmlns:svg="http://www.w3.org/2000/svg"
   xmlns="http://www.w3.org/2000/svg"
   xmlns:sodipodi="http://sodipodi.sourceforge.net/DTD/sodipodi-0.dtd"
   xmlns:inkscape="http://www.inkscape.org/namespaces/inkscape"
   width="326.03137"
   height="326.01135"
   id="svg5279"
   version="1.1"
   inkscape:version="0.48.4 r9939"
   sodipodi:docname="New document 17">
  <defs
     id="defs5281">
    <clipPath
       id="7fc874796bb0">
      <path
         style="fill:#000000;fill-opacity:0.35"
         inkscape:connector-curvature="0"
         d="m 242.763,1371.6 49.208,0 0,-30.01 -49.208,0 z"
         id="path115" />
    </clipPath>
    <clipPath
       id="7fc87421f540">
      <path
         style="fill:#000000;fill-opacity:0.35"
         inkscape:connector-curvature="0"
         d="m 242.763,1371.6 49.2,0 0,-30 -49.2,0 z"
         id="path120" />
    </clipPath>
    <clipPath
       id="7fc874775840">
      <path
         style="fill:#000000;fill-opacity:0.35"
         inkscape:connector-curvature="0"
         d="m 248.269,1491.32 17.595,0 0,-17.59 -17.595,0 z"
         id="path161" />
    </clipPath>
    <clipPath
       id="7fc874220000">
      <path
         style="fill:#000000;fill-opacity:0.35"
         inkscape:connector-curvature="0"
         d="m 248.269,1490.52 17.6,0 0,-16.8 -17.6,0 z"
         id="path166" />
    </clipPath>
  </defs>
  <sodipodi:namedview
     id="base"
     pagecolor="#ffffff"
     bordercolor="#666666"
     borderopacity="1.0"
     inkscape:pageopacity="0.0"
     inkscape:pageshadow="2"
     inkscape:zoom="0.86377106"
     inkscape:cx="467.91324"
     inkscape:cy="219.14701"
     inkscape:document-units="px"
     inkscape:current-layer="layer1"
     showgrid="false"
     fit-margin-top="0"
     fit-margin-left="0"
     fit-margin-right="0"
     fit-margin-bottom="0"
     inkscape:window-width="1855"
     inkscape:window-height="1056"
     inkscape:window-x="65"
     inkscape:window-y="24"
     inkscape:window-maximized="1" />
  <metadata
     id="metadata5284">
    <rdf:RDF>
      <cc:Work
         rdf:about="">
        <dc:format>image/svg+xml</dc:format>
        <dc:type
           rdf:resource="http://purl.org/dc/dcmitype/StillImage" />
        <dc:title></dc:title>
      </cc:Work>
    </rdf:RDF>
  </metadata>
  <g
     inkscape:label="Layer 1"
     inkscape:groupmode="layer"
     id="layer1"
     transform="translate(95.865998,-419.31673)">
    <g
       transform="translate(-203.14708,-778.26477)"
       id="g98">
      <path
         style="fill:#bcbcbc;fill-opacity:0.43000004;stroke:#000000;stroke-width:2"
         inkscape:connector-curvature="0"
         d="m 431.805,1373.17 c -6.947,89.2 -84.89,155.88 -174.09,148.94 -89.2,-6.95 -155.879,-84.89 -148.931,-174.09 6.947,-89.2 84.89,-155.88 174.09,-148.94 89.2,6.95 155.879,84.89 148.931,174.09 z"
         id="path100" />
      <g
         id="g102">
        <path
           style="fill:none;stroke:#ff0004;stroke-width:2"
           inkscape:connector-curvature="0"
           d="m 425.423,1360.52 c 0,-85.77 -69.529,-155.29 -155.298,-155.29 -85.768,0 -155.298,69.52 -155.298,155.29 0,85.77 69.53,155.3 155.298,155.3 85.769,0 155.298,-69.53 155.298,-155.3 z"
           id="path104" />
        <path
           style="fill:none;stroke:#ff0004;stroke-width:2"
           inkscape:connector-curvature="0"
           d="m 430.095,1370.86 c -1.421,-3.5 -2.979,-6.95 -4.672,-10.34 -1.64,3.29 -3.408,6.51 -5.304,9.65"
           id="path106" />
      </g>
      <g
         id="g108">
        <path
           style="fill:#ffffff;stroke:#000000;stroke-width:2"
           inkscape:connector-curvature="0"
           d="m 348.383,1361.69 c 0,-44.73 -36.265,-81 -81,-81 -44.735,0 -81,36.27 -81,81 0,44.74 36.265,81 81,81 44.735,0 81,-36.26 81,-81 z"
           id="path110" />
        <g
           clip-path="url(#7fc874796bb0)"
           id="g112">
          <clipPath
             id="clipPath5144">
            <path
               style="fill:#000000;fill-opacity:0.35"
               inkscape:connector-curvature="0"
               d="m 242.763,1371.6 49.208,0 0,-30.01 -49.208,0 z"
               id="path5146" />
          </clipPath>
          <g
             clip-path="url(#7fc87421f540)"
             id="g117">
            <clipPath
               id="clipPath5149">
              <path
                 style="fill:#000000;fill-opacity:0.35"
                 inkscape:connector-curvature="0"
                 d="m 242.763,1371.6 49.2,0 0,-30 -49.2,0 z"
                 id="path5151" />
            </clipPath>
            <path
               style="fill:#000000"
               inkscape:connector-curvature="0"
               d="m 252.733,1359.8 c 4.441,-0.32 7.604,-3 7.604,-5.88 0,-2.97 -3.259,-5.59 -7.604,-5.91 l 0,-1.63 c 0,-0.95 0,-1.37 2.716,-1.37 l 0.958,0 0,-0.86 c -1.022,0.06 -3.674,0.06 -4.857,0.06 -1.15,0 -3.802,0 -4.857,-0.06 l 0,0.86 0.959,0 c 2.716,0 2.716,0.38 2.716,1.37 l 0,1.63 c -4.378,0.42 -7.445,3.04 -7.445,5.88 0,2.94 3.163,5.5 7.445,5.91 l 0,1.6 c 0,0.99 0,1.38 -2.716,1.38 l -0.959,0 0,0.89 c 1.055,-0.1 3.675,-0.1 4.857,-0.1 1.151,0 3.835,0 4.857,0.1 l 0,-0.89 -0.958,0 c -2.716,0 -2.716,-0.36 -2.716,-1.38 l 0,-1.6 z m -2.365,-0.63 c -4.058,-0.55 -4.569,-3.49 -4.569,-5.25 0,-1.5 0.287,-4.69 4.569,-5.27 l 0,10.52 z m 2.365,-10.55 c 3.962,0.45 4.76,3.1 4.76,5.27 0,1.73 -0.447,4.76 -4.76,5.28 l 0,-10.55"
               id="path122" />
            <path
               style="fill:#000000"
               inkscape:connector-curvature="0"
               d="m 271.553,1370.54 c 0,-0.1 0,-0.13 -0.479,-0.64 -3.579,-3.58 -4.506,-9.01 -4.506,-13.39 0,-4.95 1.087,-9.93 4.601,-13.51 0.384,-0.35 0.384,-0.42 0.384,-0.48 0,-0.23 -0.128,-0.29 -0.288,-0.29 -0.287,0 -2.844,1.92 -4.537,5.56 -1.47,3.16 -1.821,6.33 -1.821,8.72 0,2.24 0.319,5.69 1.885,8.95 1.725,3.51 4.186,5.37 4.473,5.37 0.16,0 0.288,-0.1 0.288,-0.29"
               id="path124" />
            <path
               style="fill:#000000"
               inkscape:connector-curvature="0"
               d="m 279.126,1352.23 2.684,0 c 0.575,0 0.862,0 0.862,-0.57 0,-0.32 -0.287,-0.32 -0.798,-0.32 l -2.493,0 c 1.023,-4.06 1.151,-4.64 1.151,-4.8 0,-0.48 -0.32,-0.76 -0.831,-0.76 -0.064,0 -0.863,0.03 -1.15,1.02 l -1.087,4.54 -2.716,0 c -0.575,0 -0.831,0 -0.831,0.54 0,0.35 0.224,0.35 0.799,0.35 l 2.492,0 c -2.044,8.12 -2.172,8.6 -2.172,9.14 0,1.53 1.086,2.62 2.652,2.62 2.907,0 4.537,-4.19 4.537,-4.41 0,-0.29 -0.224,-0.29 -0.351,-0.29 -0.256,0 -0.288,0.1 -0.416,0.42 -1.246,2.97 -2.748,3.64 -3.706,3.64 -0.607,0 -0.895,-0.35 -0.895,-1.31 0,-0.67 0.064,-0.89 0.16,-1.37 l 2.109,-8.44"
               id="path126" />
            <path
               style="fill:#000000"
               inkscape:connector-curvature="0"
               d="m 291.843,1356.51 c 0,-2.23 -0.32,-5.68 -1.885,-8.91 -1.726,-3.52 -4.186,-5.37 -4.474,-5.37 -0.16,0 -0.287,0.1 -0.287,0.29 0,0.06 0,0.13 0.543,0.64 2.812,2.84 4.441,7.38 4.441,13.35 0,4.89 -1.054,9.94 -4.601,13.55 -0.383,0.35 -0.383,0.38 -0.383,0.48 0,0.16 0.127,0.29 0.287,0.29 0.288,0 2.844,-1.95 4.538,-5.59 1.469,-3.14 1.821,-6.33 1.821,-8.73"
               id="path128" />
          </g>
        </g>
        <g
           id="g130">
          <g
             id="g132">
            <path
               style="fill:none;stroke:#ff0004;stroke-width:2"
               inkscape:connector-curvature="0"
               d="m 356.173,1360.89 c 0,-49.32 -39.982,-89.31 -89.302,-89.31 -49.321,0 -89.303,39.99 -89.303,89.31 0,49.32 39.982,89.3 89.303,89.3 49.32,0 89.302,-39.98 89.302,-89.3 z"
               id="path134" />
            <path
               style="fill:none;stroke:#ff0004;stroke-width:2"
               inkscape:connector-curvature="0"
               d="m 360.583,1350.34 c -1.173,3.63 -2.745,7.12 -4.41,10.55 -1.669,-3.24 -3.412,-6.45 -5.525,-9.41"
               id="path136" />
          </g>
          <g
             id="g138">
            <path
               style="fill:none;stroke:#007efd;stroke-width:2"
               inkscape:connector-curvature="0"
               d="m 360.354,1361.1 c 0,-51.78 -41.982,-93.77 -93.768,-93.77 -51.786,0 -93.768,41.99 -93.768,93.77 0,51.79 41.982,93.77 93.768,93.77 51.786,0 93.768,-41.98 93.768,-93.77 z"
               id="path140" />
            <path
               style="fill:none;stroke:#007efd;stroke-width:2"
               inkscape:connector-curvature="0"
               d="m 364.792,1371.65 c -1.231,-3.61 -2.733,-7.13 -4.438,-10.55 -1.629,3.25 -3.439,6.42 -5.497,9.42"
               id="path142" />
          </g>
        </g>
        <g
           id="g144">
          <path
             style="fill:none;stroke:#007efd;stroke-width:2"
             inkscape:connector-curvature="0"
             d="m 418.5,1360.17 c 0,-81.69 -66.219,-147.91 -147.903,-147.91 -81.684,0 -147.903,66.22 -147.903,147.91 0,81.68 66.219,147.9 147.903,147.9 81.684,0 147.903,-66.22 147.903,-147.9 z"
             id="path146" />
          <path
             style="fill:none;stroke:#007efd;stroke-width:2"
             inkscape:connector-curvature="0"
             d="m 423.153,1349.83 c -1.409,3.5 -2.961,6.96 -4.653,10.34 -1.641,-3.29 -3.415,-6.51 -5.323,-9.65"
             id="path148" />
        </g>
        <g
           id="g150">
          <path
             style="fill:none;stroke:#000000"
             inkscape:connector-curvature="0"
             d="m 270.597,1484.55 c 27.072,-0.11 53.366,-9.06 74.87,-25.51"
             id="path152" />
          <path
             style="fill:none;stroke:#000000"
             inkscape:connector-curvature="0"
             d="m 270.528,1479.55 0.138,10"
             id="path154" />
          <path
             style="fill:none;stroke:#000000"
             inkscape:connector-curvature="0"
             d="m 341.156,1467.03 c 1.537,-2.61 2.976,-5.27 4.311,-7.99 -2.884,0.54 -5.788,0.98 -8.705,1.31"
             id="path156" />
        </g>
        <g
           clip-path="url(#7fc874775840)"
           id="g158">
          <clipPath
             id="clipPath5172">
            <path
               style="fill:#000000;fill-opacity:0.35"
               inkscape:connector-curvature="0"
               d="m 248.269,1491.32 17.595,0 0,-17.59 -17.595,0 z"
               id="path5174" />
          </clipPath>
          <g
             clip-path="url(#7fc874220000)"
             id="g163">
            <clipPath
               id="clipPath5177">
              <path
                 style="fill:#000000;fill-opacity:0.35"
                 inkscape:connector-curvature="0"
                 d="m 248.269,1490.52 17.6,0 0,-16.8 -17.6,0 z"
                 id="path5179" />
            </clipPath>
            <path
               style="fill:#000000"
               inkscape:connector-curvature="0"
               d="m 264.352,1484.93 c 0.043,-0.1 0.128,-0.27 0.128,-0.32 0,-0.04 0,-0.27 -0.298,-0.27 -0.213,0 -0.256,0.15 -0.299,0.29 -1.555,3.54 -2.449,5.16 -6.539,5.16 l -3.515,0 c -0.32,0 -0.384,0 -0.511,-0.04 -0.256,-0.02 -0.32,-0.05 -0.32,-0.24 0,-0.06 0,-0.1 0.128,-0.55 l 1.619,-6.54 2.364,0 c 2.045,0 2.045,0.51 2.045,1.11 0,0.17 0,0.44 -0.17,1.17 -0.043,0.13 -0.064,0.19 -0.064,0.25 0,0.13 0.085,0.28 0.298,0.28 0.192,0 0.277,-0.13 0.362,-0.49 l 1.364,-5.6 c 0,-0.15 -0.107,-0.26 -0.277,-0.26 -0.213,0 -0.256,0.13 -0.341,0.43 -0.49,1.81 -0.937,2.36 -3.131,2.36 l -2.258,0 1.448,-5.77 c 0.213,-0.83 0.234,-0.94 1.278,-0.94 l 3.387,0 c 2.919,0 3.643,0.71 3.643,2.67 0,0.57 0,0.61 -0.107,1.27 0,0.15 -0.021,0.3 -0.021,0.43 0,0.13 0.085,0.3 0.298,0.3 0.256,0 0.277,-0.15 0.341,-0.62 l 0.469,-4.13 c 0.064,-0.66 -0.043,-0.66 -0.639,-0.66 l -12.121,0 c -0.469,0 -0.703,0 -0.703,0.49 0,0.25 0.213,0.25 0.66,0.25 0.895,0 1.555,0 1.555,0.45 0,0.09 0,0.13 -0.106,0.58 l -3.174,12.67 c -0.234,0.94 -0.277,1.13 -2.173,1.13 -0.405,0 -0.682,0 -0.682,0.45 0,0.27 0.235,0.27 0.682,0.27 l 12.44,0 c 0.554,0 0.576,-0.02 0.746,-0.4 l 2.194,-5.18"
               id="path168" />
          </g>
        </g>
      </g>
    </g>
  </g>
</svg>
