<?xml version="1.0" encoding="UTF-8" standalone="no"?>
<!-- Created with Inkscape (http://www.inkscape.org/) -->

<svg
   xmlns:dc="http://purl.org/dc/elements/1.1/"
   xmlns:cc="http://creativecommons.org/ns#"
   xmlns:rdf="http://www.w3.org/1999/02/22-rdf-syntax-ns#"
   xmlns:svg="http://www.w3.org/2000/svg"
   xmlns="http://www.w3.org/2000/svg"
   xmlns:sodipodi="http://sodipodi.sourceforge.net/DTD/sodipodi-0.dtd"
   xmlns:inkscape="http://www.inkscape.org/namespaces/inkscape"
   width="691.16205"
   height="288.2225"
   id="svg3893"
   version="1.1"
   inkscape:version="0.48.4 r9939"
   sodipodi:docname="New document 2">
  <defs
     id="defs3895">
    <clipPath
       id="7fc875007820">
      <path
         style="fill:#000000;fill-opacity:0.35"
         inkscape:connector-curvature="0"
         d="m 232.235,368.69 13.688,0 0,-12.232 -13.688,0 z"
         id="path261" />
    </clipPath>
    <clipPath
       id="7fc874764f70">
      <path
         style="fill:#000000;fill-opacity:0.35"
         inkscape:connector-curvature="0"
         d="m 232.235,368.69 13.68,0 0,-12.24 -13.68,0 z"
         id="path266" />
    </clipPath>
    <clipPath
       id="7fc8742594f0">
      <path
         style="fill:#000000;fill-opacity:0.35"
         inkscape:connector-curvature="0"
         d="m 235.905,108.936 55.012,0 0,-25.0036 -55.012,0 z"
         id="path273" />
    </clipPath>
    <clipPath
       id="7fc8747bc490">
      <path
         style="fill:#000000;fill-opacity:0.35"
         inkscape:connector-curvature="0"
         d="m 235.905,108.936 55,0 0,-25.0004 -55,0 z"
         id="path278" />
    </clipPath>
    <clipPath
       id="7fc87479e960">
      <path
         style="fill:#000000;fill-opacity:0.35"
         inkscape:connector-curvature="0"
         d="m 659.423,161.148 68.006,0 0,-18 -68.006,0 z"
         id="path291" />
    </clipPath>
    <clipPath
       id="7fc8747c64e0">
      <path
         style="fill:#000000;fill-opacity:0.35"
         inkscape:connector-curvature="0"
         d="m 659.423,161.148 68,0 0,-18 -68,0 z"
         id="path296" />
    </clipPath>
    <clipPath
       id="7fc8747a3e70">
      <path
         style="fill:#000000;fill-opacity:0.35"
         inkscape:connector-curvature="0"
         d="m 659.423,333.184 68.006,0 0,-18 -68.006,0 z"
         id="path307" />
    </clipPath>
    <clipPath
       id="7fc8750c88f0">
      <path
         style="fill:#000000;fill-opacity:0.35"
         inkscape:connector-curvature="0"
         d="m 659.423,333.184 68,0 0,-18 -68,0 z"
         id="path312" />
    </clipPath>
    <clipPath
       id="7fc8747d6570">
      <path
         style="fill:#000000;fill-opacity:0.35"
         inkscape:connector-curvature="0"
         d="m 393.519,160.589 12.961,0 0,-17.273 -12.961,0 z"
         id="path347" />
    </clipPath>
    <clipPath
       id="7fc875065e80">
      <path
         style="fill:#000000;fill-opacity:0.35"
         inkscape:connector-curvature="0"
         d="m 394.239,160.589 12.24,0 0,-17.28 -12.24,0 z"
         id="path352" />
    </clipPath>
    <clipPath
       id="7fc872548bf0">
      <path
         style="fill:#000000;fill-opacity:0.35"
         inkscape:connector-curvature="0"
         d="m 322.706,221.069 13.689,0 0,-12.232 -13.689,0 z"
         id="path359" />
    </clipPath>
    <clipPath
       id="7fc87500d450">
      <path
         style="fill:#000000;fill-opacity:0.35"
         inkscape:connector-curvature="0"
         d="m 322.706,221.069 13.68,0 0,-12.24 -13.68,0 z"
         id="path364" />
    </clipPath>
  </defs>
  <sodipodi:namedview
     id="base"
     pagecolor="#ffffff"
     bordercolor="#666666"
     borderopacity="1.0"
     inkscape:pageopacity="0.0"
     inkscape:pageshadow="2"
     inkscape:zoom="0.86377106"
     inkscape:cx="842.66036"
     inkscape:cy="-34.194001"
     inkscape:document-units="px"
     inkscape:current-layer="layer1"
     showgrid="false"
     fit-margin-top="0"
     fit-margin-left="0"
     fit-margin-right="0"
     fit-margin-bottom="0"
     inkscape:window-width="1855"
     inkscape:window-height="1056"
     inkscape:window-x="65"
     inkscape:window-y="24"
     inkscape:window-maximized="1" />
  <metadata
     id="metadata3898">
    <rdf:RDF>
      <cc:Work
         rdf:about="">
        <dc:format>image/svg+xml</dc:format>
        <dc:type
           rdf:resource="http://purl.org/dc/dcmitype/StillImage" />
        <dc:title></dc:title>
      </cc:Work>
    </rdf:RDF>
  </metadata>
  <g
     inkscape:label="Layer 1"
     inkscape:groupmode="layer"
     id="layer1"
     transform="translate(470.61311,-203.76459)">
    <g
       transform="translate(-661.3726,119.29959)"
       id="g242">
      <path
         style="fill:#bcbcbc;fill-opacity:0.43000004"
         inkscape:connector-curvature="0"
         d="m 295.591,122.647 483.428,0 0,248 -483.428,0 z"
         id="path244" />
      <g
         id="g246">
        <path
           style="fill:none;stroke:#0d0d0d;stroke-width:3"
           inkscape:connector-curvature="0"
           d="m 295.591,255.245 483.428,0"
           id="path248" />
        <path
           style="fill:none;stroke:#0d0d0d;stroke-width:3"
           inkscape:connector-curvature="0"
           d="m 307.591,261.245 -12,-6 12,-6"
           id="path250" />
      </g>
      <g
         id="g252">
        <path
           style="fill:none;stroke:#0d0d0d;stroke-width:3"
           inkscape:connector-curvature="0"
           d="m 779.019,244.659 -483.428,0"
           id="path254" />
        <path
           style="fill:none;stroke:#0d0d0d;stroke-width:3"
           inkscape:connector-curvature="0"
           d="m 767.019,238.659 12,6 -12,6"
           id="path256" />
      </g>
      <g
         clip-path="url(#7fc875007820)"
         id="g258">
        <clipPath
           id="clipPath3804">
          <path
             style="fill:#000000;fill-opacity:0.35"
             inkscape:connector-curvature="0"
             d="m 232.235,368.69 13.688,0 0,-12.232 -13.688,0 z"
             id="path3806" />
        </clipPath>
        <g
           clip-path="url(#7fc874764f70)"
           id="g263">
          <clipPath
             id="clipPath3809">
            <path
               style="fill:#000000;fill-opacity:0.35"
               inkscape:connector-curvature="0"
               d="m 232.235,368.69 13.68,0 0,-12.24 -13.68,0 z"
               id="path3811" />
          </clipPath>
          <path
             style="fill:#000000"
             inkscape:connector-curvature="0"
             d="m 240.229,360.446 c 0.154,-0.671 0.748,-3.049 2.55,-3.049 0.134,0 0.748,0 1.304,0.346 -0.729,0.115 -1.246,0.766 -1.246,1.38 0,0.422 0.287,0.92 0.978,0.92 0.575,0 1.399,-0.479 1.399,-1.514 0,-1.342 -1.534,-1.707 -2.396,-1.707 -1.515,0 -2.416,1.381 -2.723,1.975 -0.652,-1.706 -2.051,-1.975 -2.799,-1.975 -2.684,0 -4.16,3.336 -4.16,3.988 0,0.268 0.268,0.268 0.307,0.268 0.211,0 0.287,-0.057 0.345,-0.287 0.882,-2.742 2.588,-3.394 3.47,-3.394 0.479,0 1.38,0.231 1.38,1.726 0,0.805 -0.441,2.55 -1.38,6.154 -0.422,1.61 -1.323,2.703 -2.473,2.703 -0.154,0 -0.748,0 -1.285,-0.345 0.652,-0.134 1.208,-0.671 1.208,-1.399 0,-0.691 -0.556,-0.901 -0.939,-0.901 -0.786,0 -1.438,0.671 -1.438,1.495 0,1.189 1.303,1.706 2.434,1.706 1.707,0 2.646,-1.802 2.723,-1.955 0.307,0.958 1.227,1.955 2.78,1.955 2.665,0 4.141,-3.336 4.141,-3.968 0,-0.269 -0.23,-0.269 -0.307,-0.269 -0.23,0 -0.287,0.115 -0.326,0.288 -0.863,2.761 -2.626,3.393 -3.451,3.393 -0.997,0 -1.418,-0.824 -1.418,-1.706 0,-0.575 0.153,-1.15 0.441,-2.281 l 0.881,-3.547"
             id="path268" />
        </g>
      </g>
      <g
         clip-path="url(#7fc8742594f0)"
         id="g270">
        <clipPath
           id="clipPath3815">
          <path
             style="fill:#000000;fill-opacity:0.35"
             inkscape:connector-curvature="0"
             d="m 235.905,108.936 55.012,0 0,-25.0036 -55.012,0 z"
             id="path3817" />
        </clipPath>
        <g
           clip-path="url(#7fc8747bc490)"
           id="g275">
          <clipPath
             id="clipPath3820">
            <path
               style="fill:#000000;fill-opacity:0.35"
               inkscape:connector-curvature="0"
               d="m 235.905,108.936 55,0 0,-25.0004 -55,0 z"
               id="path3822" />
          </clipPath>
          <path
             style="fill:#000000"
             inkscape:connector-curvature="0"
             d="m 257.18,87.8999 c 0.213,-0.8787 0.266,-1.1183 2.05,-1.1183 0.559,0 0.772,0 0.772,-0.4793 0,-0.2397 -0.239,-0.2397 -0.639,-0.2397 l -3.168,0 c -0.613,0 -0.639,0 -0.932,0.4527 l -8.681,13.5797 -1.864,-13.4998 c -0.08,-0.5326 -0.133,-0.5326 -0.745,-0.5326 l -3.275,0 c -0.453,0 -0.719,0 -0.719,0.4527 0,0.2663 0.239,0.2663 0.692,0.2663 0.319,0 0.746,0.0266 1.038,0.0532 0.373,0.0532 0.533,0.1331 0.533,0.3728 0,0.1065 -0.027,0.1864 -0.107,0.4527 L 239.1,99.8024 c -0.24,0.9586 -0.639,1.7306 -2.556,1.7836 -0.133,0 -0.426,0.027 -0.426,0.453 0,0.213 0.133,0.293 0.319,0.293 0.772,0 1.598,-0.08 2.397,-0.08 0.798,0 1.651,0.08 2.449,0.08 0.107,0 0.426,0 0.426,-0.479 0,-0.267 -0.266,-0.267 -0.426,-0.267 -1.358,-0.026 -1.624,-0.505 -1.624,-1.038 0,-0.16 0.027,-0.293 0.107,-0.5592 l 3.222,-12.9942 0.026,0 2.05,14.7784 c 0.054,0.293 0.08,0.559 0.373,0.559 0.267,0 0.4,-0.266 0.506,-0.426 l 9.639,-15.0978 0.027,0 -3.408,13.6598 c -0.24,0.932 -0.293,1.118 -2.184,1.118 -0.399,0 -0.665,0 -0.665,0.453 0,0.293 0.292,0.293 0.372,0.293 0.666,0 2.29,-0.08 2.956,-0.08 0.959,0 1.997,0.08 2.982,0.08 0.133,0 0.453,0 0.453,-0.479 0,-0.267 -0.213,-0.267 -0.666,-0.267 -0.879,0 -1.571,0 -1.571,-0.426 0,-0.106 0,-0.133 0.133,-0.559 l 3.169,-12.7277"
             id="path280" />
          <path
             style="fill:#000000"
             inkscape:connector-curvature="0"
             d="m 268.79,108.057 c 0,-0.08 0,-0.107 -0.4,-0.533 -2.982,-2.982 -3.754,-7.509 -3.754,-11.1565 0,-4.1273 0.905,-8.2812 3.861,-11.2634 0.293,-0.2929 0.293,-0.3463 0.293,-0.3995 0,-0.1864 -0.08,-0.2396 -0.24,-0.2396 -0.24,0 -2.37,1.5976 -3.781,4.6331 -1.225,2.6362 -1.491,5.2723 -1.491,7.2694 0,1.8639 0.239,4.7395 1.571,7.4555 1.411,2.929 3.461,4.474 3.701,4.474 0.16,0 0.24,-0.08 0.24,-0.24"
             id="path282" />
          <path
             style="fill:#000000"
             inkscape:connector-curvature="0"
             d="m 278.162,95.1426 c 0.16,-0.6391 0.693,-2.8225 2.37,-2.8225 0.107,0 0.693,0 1.199,0.3195 -0.666,0.1065 -1.145,0.7189 -1.145,1.2782 0,0.3727 0.266,0.8254 0.905,0.8254 0.506,0 1.278,-0.4261 1.278,-1.3847 0,-1.2248 -1.411,-1.5709 -2.21,-1.5709 -1.385,0 -2.21,1.2781 -2.503,1.8106 -0.613,-1.571 -1.891,-1.8106 -2.583,-1.8106 -2.476,0 -3.834,3.0887 -3.834,3.6745 0,0.2396 0.239,0.2396 0.293,0.2396 0.186,0 0.266,-0.0532 0.292,-0.2662 0.826,-2.5296 2.397,-3.1154 3.196,-3.1154 0.452,0 1.305,0.213 1.305,1.5977 0,0.7455 -0.427,2.3431 -1.305,5.6716 -0.373,1.4916 -1.198,2.4766 -2.264,2.4766 -0.133,0 -0.692,0 -1.198,-0.293 0.613,-0.133 1.119,-0.639 1.119,-1.305 0,-0.639 -0.506,-0.8254 -0.879,-0.8254 -0.692,0 -1.305,0.6124 -1.305,1.3844 0,1.092 1.198,1.571 2.237,1.571 1.571,0 2.45,-1.677 2.503,-1.81 0.293,0.878 1.145,1.81 2.583,1.81 2.449,0 3.807,-3.0885 3.807,-3.6743 0,-0.2397 -0.213,-0.2397 -0.266,-0.2397 -0.24,0 -0.266,0.1066 -0.319,0.2663 -0.799,2.5567 -2.424,3.1157 -3.169,3.1157 -0.932,0 -1.305,-0.772 -1.305,-1.571 0,-0.5329 0.133,-1.0387 0.4,-2.1039 l 0.798,-3.2485"
             id="path284" />
          <path
             style="fill:#000000"
             inkscape:connector-curvature="0"
             d="m 290.784,96.3675 c 0,-1.864 -0.24,-4.7397 -1.571,-7.4291 -1.411,-2.929 -3.462,-4.4734 -3.701,-4.4734 -0.16,0 -0.24,0.0799 -0.24,0.2396 0,0.0532 0,0.1066 0.453,0.5326 2.343,2.3698 3.701,6.1509 3.701,11.1303 0,4.0735 -0.906,8.2815 -3.861,11.2905 -0.293,0.292 -0.293,0.319 -0.293,0.399 0,0.133 0.08,0.24 0.24,0.24 0.239,0 2.369,-1.625 3.781,-4.66 1.225,-2.61 1.517,-5.2725 1.517,-7.2695"
             id="path286" />
        </g>
      </g>
      <g
         clip-path="url(#7fc87479e960)"
         id="g288">
        <clipPath
           id="clipPath3829">
          <path
             style="fill:#000000;fill-opacity:0.35"
             inkscape:connector-curvature="0"
             d="m 659.423,161.148 68.006,0 0,-18 -68.006,0 z"
             id="path3831" />
        </clipPath>
        <g
           clip-path="url(#7fc8747c64e0)"
           id="g293">
          <clipPath
             id="clipPath3834">
            <path
               style="fill:#000000;fill-opacity:0.35"
               inkscape:connector-curvature="0"
               d="m 659.423,161.148 68,0 0,-18 -68,0 z"
               id="path3836" />
          </clipPath>
          <path
             style="fill:#000000"
             inkscape:connector-curvature="0"
             d="m 680.698,145.092 c 0.213,-0.852 0.266,-1.092 2.05,-1.092 0.559,0 0.773,0 0.773,-0.479 0,-0.266 -0.24,-0.266 -0.64,-0.266 l -3.168,0 c -0.613,0 -0.639,0 -0.932,0.453 l -8.681,13.606 -1.864,-13.5 c -0.08,-0.559 -0.133,-0.559 -0.745,-0.559 l -3.275,0 c -0.453,0 -0.719,0 -0.719,0.453 0,0.292 0.239,0.292 0.692,0.292 0.319,0 0.746,0.027 1.038,0.054 0.373,0.053 0.533,0.106 0.533,0.372 0,0.107 -0.027,0.16 -0.107,0.453 l -3.035,12.142 c -0.24,0.959 -0.639,1.704 -2.556,1.784 -0.133,0 -0.426,0.027 -0.426,0.453 0,0.213 0.133,0.293 0.319,0.293 0.772,0 1.598,-0.08 2.397,-0.08 0.798,0 1.651,0.08 2.449,0.08 0.107,0 0.426,0 0.426,-0.479 0,-0.267 -0.266,-0.267 -0.426,-0.267 -1.358,-0.026 -1.624,-0.506 -1.624,-1.038 0,-0.187 0.027,-0.293 0.107,-0.559 l 3.222,-12.995 0.026,0 2.05,14.779 c 0.054,0.293 0.08,0.559 0.373,0.559 0.267,0 0.4,-0.266 0.506,-0.426 l 9.639,-15.098 0.027,0 -3.408,13.66 c -0.24,0.932 -0.293,1.118 -2.184,1.118 -0.399,0 -0.665,0 -0.665,0.453 0,0.293 0.292,0.293 0.372,0.293 0.666,0 2.29,-0.08 2.956,-0.08 0.959,0 1.997,0.08 2.982,0.08 0.133,0 0.453,0 0.453,-0.479 0,-0.267 -0.213,-0.267 -0.666,-0.267 -0.879,0 -1.571,0 -1.571,-0.426 0,-0.106 0,-0.16 0.133,-0.586 l 3.169,-12.701"
             id="path298" />
          <path
             style="fill:#000000"
             inkscape:connector-curvature="0"
             d="m 707.219,154.119 c 0.266,-0.133 0.453,-0.24 0.453,-0.533 0,-0.293 -0.187,-0.399 -0.453,-0.532 l -13.207,-6.204 c -0.32,-0.187 -0.373,-0.187 -0.426,-0.187 -0.267,0 -0.48,0.24 -0.48,0.479 0,0.213 0.107,0.373 0.453,0.533 l 12.515,5.911 -12.515,5.912 c -0.346,0.159 -0.453,0.319 -0.453,0.532 0,0.266 0.213,0.479 0.48,0.479 0.053,0 0.106,0 0.426,-0.186 l 13.207,-6.204"
             id="path300" />
          <path
             style="fill:#000000"
             inkscape:connector-curvature="0"
             d="m 727.296,151.909 c 0,-1.891 -0.133,-3.808 -0.959,-5.565 -1.091,-2.29 -3.062,-2.663 -4.047,-2.663 -1.438,0 -3.169,0.612 -4.154,2.822 -0.772,1.651 -0.879,3.515 -0.879,5.406 0,1.81 0.08,3.941 1.066,5.751 1.038,1.944 2.769,2.423 3.94,2.423 1.279,0 3.089,-0.506 4.154,-2.769 0.746,-1.651 0.879,-3.515 0.879,-5.405 z m -5.033,7.642 c -0.932,0 -2.343,-0.586 -2.769,-2.876 -0.266,-1.438 -0.266,-3.621 -0.266,-5.033 0,-1.544 0,-3.115 0.186,-4.393 0.453,-2.849 2.237,-3.062 2.849,-3.062 0.773,0 2.344,0.426 2.796,2.796 0.24,1.331 0.24,3.142 0.24,4.659 0,1.785 0,3.409 -0.24,4.927 -0.372,2.263 -1.73,2.982 -2.796,2.982"
             id="path302" />
        </g>
      </g>
      <g
         clip-path="url(#7fc8747a3e70)"
         id="g304">
        <clipPath
           id="clipPath3842">
          <path
             style="fill:#000000;fill-opacity:0.35"
             inkscape:connector-curvature="0"
             d="m 659.423,333.184 68.006,0 0,-18 -68.006,0 z"
             id="path3844" />
        </clipPath>
        <g
           clip-path="url(#7fc8750c88f0)"
           id="g309">
          <clipPath
             id="clipPath3847">
            <path
               style="fill:#000000;fill-opacity:0.35"
               inkscape:connector-curvature="0"
               d="m 659.423,333.184 68,0 0,-18 -68,0 z"
               id="path3849" />
          </clipPath>
          <path
             style="fill:#000000"
             inkscape:connector-curvature="0"
             d="m 680.698,317.128 c 0.213,-0.853 0.266,-1.092 2.05,-1.092 0.559,0 0.773,0 0.773,-0.48 0,-0.266 -0.24,-0.266 -0.64,-0.266 l -3.168,0 c -0.613,0 -0.639,0 -0.932,0.453 l -8.681,13.607 -1.864,-13.501 c -0.08,-0.559 -0.133,-0.559 -0.745,-0.559 l -3.275,0 c -0.453,0 -0.719,0 -0.719,0.453 0,0.293 0.239,0.293 0.692,0.293 0.319,0 0.746,0.026 1.038,0.053 0.373,0.053 0.533,0.107 0.533,0.373 0,0.106 -0.027,0.16 -0.107,0.452 l -3.035,12.143 c -0.24,0.958 -0.639,1.704 -2.556,1.784 -0.133,0 -0.426,0.026 -0.426,0.452 0,0.213 0.133,0.293 0.319,0.293 0.772,0 1.598,-0.08 2.397,-0.08 0.798,0 1.651,0.08 2.449,0.08 0.107,0 0.426,0 0.426,-0.479 0,-0.266 -0.266,-0.266 -0.426,-0.266 -1.358,-0.027 -1.624,-0.506 -1.624,-1.039 0,-0.186 0.027,-0.293 0.107,-0.559 l 3.222,-12.994 0.026,0 2.05,14.778 c 0.054,0.293 0.08,0.559 0.373,0.559 0.267,0 0.4,-0.266 0.506,-0.426 l 9.639,-15.098 0.027,0 -3.408,13.66 c -0.24,0.932 -0.293,1.119 -2.184,1.119 -0.399,0 -0.665,0 -0.665,0.452 0,0.293 0.292,0.293 0.372,0.293 0.666,0 2.29,-0.08 2.956,-0.08 0.959,0 1.997,0.08 2.982,0.08 0.133,0 0.453,0 0.453,-0.479 0,-0.266 -0.213,-0.266 -0.666,-0.266 -0.879,0 -1.571,0 -1.571,-0.426 0,-0.107 0,-0.16 0.133,-0.586 l 3.169,-12.701"
             id="path314" />
          <path
             style="fill:#000000"
             inkscape:connector-curvature="0"
             d="m 707.219,319.71 c 0.293,-0.133 0.453,-0.266 0.453,-0.532 0,-0.24 -0.213,-0.479 -0.48,-0.479 -0.08,0 -0.133,0 -0.426,0.186 l -13.207,6.204 c -0.266,0.133 -0.453,0.24 -0.453,0.533 0,0.293 0.187,0.399 0.453,0.532 l 13.207,6.204 c 0.293,0.187 0.346,0.187 0.426,0.187 0.267,0 0.48,-0.213 0.48,-0.479 0,-0.267 -0.16,-0.4 -0.453,-0.533 l -12.515,-5.911 12.515,-5.912"
             id="path316" />
          <path
             style="fill:#000000"
             inkscape:connector-curvature="0"
             d="m 727.296,323.944 c 0,-1.89 -0.133,-3.808 -0.959,-5.565 -1.091,-2.29 -3.062,-2.663 -4.047,-2.663 -1.438,0 -3.169,0.613 -4.154,2.823 -0.772,1.651 -0.879,3.515 -0.879,5.405 0,1.811 0.08,3.941 1.066,5.752 1.038,1.943 2.769,2.423 3.94,2.423 1.279,0 3.089,-0.506 4.154,-2.769 0.746,-1.651 0.879,-3.515 0.879,-5.406 z m -5.033,7.642 c -0.932,0 -2.343,-0.586 -2.769,-2.876 -0.266,-1.437 -0.266,-3.621 -0.266,-5.032 0,-1.545 0,-3.116 0.186,-4.394 0.453,-2.849 2.237,-3.062 2.849,-3.062 0.773,0 2.344,0.426 2.796,2.796 0.24,1.331 0.24,3.142 0.24,4.66 0,1.784 0,3.408 -0.24,4.926 -0.372,2.263 -1.73,2.982 -2.796,2.982"
             id="path318" />
        </g>
      </g>
      <text
         style="font-size:24px;font-family:American Typewriter"
         font-size="24"
         transform="translate(388.152,289.95)"
         xml:space="preserve"
         id="text320"><tspan
           id="tspan322">domain wall along y, with gapless modes</tspan></text>
      <path
         style="fill:none;stroke:#000000"
         inkscape:connector-curvature="0"
         d="M 380,284.226 339.192,263.964"
         id="path324" />
      <g
         id="g326">
        <g
           id="g328">
          <g
             id="g330">
            <path
               style="fill:none;stroke:#000000;stroke-width:2"
               inkscape:connector-curvature="0"
               d="m 309.591,144.08 75.601,0"
               id="path332" />
            <path
               style="fill:none;stroke:#000000;stroke-width:2"
               inkscape:connector-curvature="0"
               d="m 375.192,139.08 10,5 -10,5"
               id="path334" />
          </g>
          <g
             id="g336">
            <path
               style="fill:none;stroke:#000000;stroke-width:2"
               inkscape:connector-curvature="0"
               d="m 309.656,143.255 -0.065,75.994"
               id="path338" />
            <path
               style="fill:none;stroke:#000000;stroke-width:2"
               inkscape:connector-curvature="0"
               d="m 314.6,209.253 -5.009,9.996 -4.991,-10.004"
               id="path340" />
          </g>
        </g>
        <g
           id="g342">
          <g
             clip-path="url(#7fc8747d6570)"
             id="g344">
            <clipPath
               id="clipPath3867">
              <path
                 style="fill:#000000;fill-opacity:0.35"
                 inkscape:connector-curvature="0"
                 d="m 393.519,160.589 12.961,0 0,-17.273 -12.961,0 z"
                 id="path3869" />
            </clipPath>
            <g
               clip-path="url(#7fc875065e80)"
               id="g349">
              <clipPath
                 id="clipPath3872">
                <path
                   style="fill:#000000;fill-opacity:0.35"
                   inkscape:connector-curvature="0"
                   d="m 394.239,160.589 12.24,0 0,-17.28 -12.24,0 z"
                   id="path3874" />
              </clipPath>
              <path
                 style="fill:#000000"
                 inkscape:connector-curvature="0"
                 d="m 406.096,145.271 c 0.096,-0.364 0.096,-0.422 0.096,-0.594 0,-0.479 -0.364,-0.709 -0.748,-0.709 -0.268,0 -0.671,0.153 -0.901,0.556 -0.057,0.115 -0.268,0.92 -0.364,1.38 -0.192,0.671 -0.364,1.38 -0.518,2.07 l -1.169,4.659 c -0.096,0.384 -1.208,2.205 -2.914,2.205 -1.323,0 -1.611,-1.15 -1.611,-2.109 0,-1.189 0.441,-2.78 1.323,-5.061 0.403,-1.055 0.518,-1.342 0.518,-1.86 0,-1.169 -0.825,-2.128 -2.128,-2.128 -2.454,0 -3.413,3.758 -3.413,3.988 0,0.268 0.269,0.268 0.307,0.268 0.268,0 0.287,-0.057 0.422,-0.479 0.69,-2.416 1.725,-3.202 2.607,-3.202 0.211,0 0.652,0 0.652,0.825 0,0.651 -0.269,1.322 -0.441,1.821 -1.035,2.741 -1.495,4.198 -1.495,5.425 0,2.301 1.629,3.068 3.144,3.068 1.016,0 1.898,-0.441 2.607,-1.15 -0.326,1.342 -0.633,2.607 -1.668,3.968 -0.671,0.882 -1.649,1.63 -2.856,1.63 -0.346,0 -1.515,-0.077 -1.956,-1.074 0.422,0 0.748,0 1.112,-0.326 0.249,-0.23 0.518,-0.556 0.518,-1.054 0,-0.805 -0.691,-0.901 -0.959,-0.901 -0.594,0 -1.457,0.422 -1.457,1.687 0,1.284 1.15,2.243 2.742,2.243 2.664,0 5.329,-2.358 6.058,-5.272 l 2.492,-9.874"
                 id="path354" />
            </g>
          </g>
          <g
             clip-path="url(#7fc872548bf0)"
             id="g356">
            <clipPath
               id="clipPath3878">
              <path
                 style="fill:#000000;fill-opacity:0.35"
                 inkscape:connector-curvature="0"
                 d="m 322.706,221.069 13.689,0 0,-12.232 -13.689,0 z"
                 id="path3880" />
            </clipPath>
            <g
               clip-path="url(#7fc87500d450)"
               id="g361">
              <clipPath
                 id="clipPath3883">
                <path
                   style="fill:#000000;fill-opacity:0.35"
                   inkscape:connector-curvature="0"
                   d="m 322.706,221.069 13.68,0 0,-12.24 -13.68,0 z"
                   id="path3885" />
              </clipPath>
              <path
                 style="fill:#000000"
                 inkscape:connector-curvature="0"
                 d="m 330.701,212.825 c 0.153,-0.671 0.748,-3.049 2.55,-3.049 0.134,0 0.748,0 1.304,0.345 -0.729,0.115 -1.247,0.767 -1.247,1.381 0,0.422 0.288,0.92 0.978,0.92 0.575,0 1.4,-0.479 1.4,-1.514 0,-1.343 -1.534,-1.707 -2.397,-1.707 -1.514,0 -2.415,1.381 -2.722,1.975 -0.652,-1.706 -2.052,-1.975 -2.799,-1.975 -2.684,0 -4.16,3.336 -4.16,3.988 0,0.268 0.268,0.268 0.306,0.268 0.211,0 0.288,-0.057 0.345,-0.287 0.882,-2.742 2.589,-3.394 3.47,-3.394 0.48,0 1.381,0.23 1.381,1.726 0,0.805 -0.441,2.55 -1.381,6.154 -0.421,1.61 -1.322,2.703 -2.473,2.703 -0.153,0 -0.747,0 -1.284,-0.345 0.652,-0.134 1.208,-0.671 1.208,-1.399 0,-0.691 -0.556,-0.902 -0.94,-0.902 -0.786,0 -1.438,0.671 -1.438,1.496 0,1.189 1.304,1.706 2.435,1.706 1.706,0 2.646,-1.802 2.722,-1.955 0.307,0.958 1.227,1.955 2.78,1.955 2.665,0 4.142,-3.336 4.142,-3.968 0,-0.269 -0.231,-0.269 -0.307,-0.269 -0.23,0 -0.288,0.115 -0.326,0.288 -0.863,2.761 -2.627,3.393 -3.451,3.393 -0.997,0 -1.419,-0.824 -1.419,-1.706 0,-0.575 0.154,-1.15 0.441,-2.282 l 0.882,-3.546"
                 id="path366" />
            </g>
          </g>
        </g>
      </g>
      <g
         id="g368">
        <g
           id="g370">
          <path
             style="fill:none;stroke:#000000;stroke-width:1.83466005"
             inkscape:connector-curvature="0"
             d="m 223.192,124.323 -0.065,246.324"
             id="path372" />
          <path
             style="fill:none;stroke:#000000;stroke-width:1.83466005"
             inkscape:connector-curvature="0"
             d="m 227.965,360.979 -4.838,9.668 -4.832,-9.671"
             id="path374" />
        </g>
        <path
           style="fill:none;stroke:#000000;stroke-width:1.83466005;stroke-linecap:round"
           inkscape:connector-curvature="0"
           d="m 262.154,122.647 c 0,25.924 -1.561,78.233 -9.962,100.763 -10.499,28.158 -26.07,19.42 -44.454,32.231 -24,16.723 -13.334,70.972 -15.584,110.217"
           id="path376" />
      </g>
    </g>
  </g>
</svg>
