<?xml version="1.0" encoding="UTF-8" standalone="no"?>
<!-- Created with Inkscape (http://www.inkscape.org/) -->

<svg
   xmlns:dc="http://purl.org/dc/elements/1.1/"
   xmlns:cc="http://creativecommons.org/ns#"
   xmlns:rdf="http://www.w3.org/1999/02/22-rdf-syntax-ns#"
   xmlns:svg="http://www.w3.org/2000/svg"
   xmlns="http://www.w3.org/2000/svg"
   xmlns:sodipodi="http://sodipodi.sourceforge.net/DTD/sodipodi-0.dtd"
   xmlns:inkscape="http://www.inkscape.org/namespaces/inkscape"
   width="554.625"
   height="231.40625"
   id="svg4878"
   version="1.1"
   inkscape:version="0.48.4 r9939"
   sodipodi:docname="New document 14">
  <defs
     id="defs4880">
    <clipPath
       id="7fc8747d6570">
      <path
         style="fill:#000000;fill-opacity:0.35"
         inkscape:connector-curvature="0"
         d="m 588.665,1418.89 17.28,0 0,-16.89 -17.28,0 z"
         id="path359" />
    </clipPath>
    <clipPath
       id="7fc875065e80">
      <path
         style="fill:#000000;fill-opacity:0.35"
         inkscape:connector-curvature="0"
         d="m 588.665,1418.64 17.28,0 0,-16.64 -17.28,0 z"
         id="path364" />
    </clipPath>
  </defs>
  <sodipodi:namedview
     id="base"
     pagecolor="#ffffff"
     bordercolor="#666666"
     borderopacity="1.0"
     inkscape:pageopacity="0.0"
     inkscape:pageshadow="2"
     inkscape:zoom="0.86377106"
     inkscape:cx="655.14831"
     inkscape:cy="-27.272691"
     inkscape:document-units="px"
     inkscape:current-layer="layer1"
     showgrid="false"
     fit-margin-top="0"
     fit-margin-left="0"
     fit-margin-right="0"
     fit-margin-bottom="0"
     inkscape:window-width="1855"
     inkscape:window-height="1056"
     inkscape:window-x="65"
     inkscape:window-y="24"
     inkscape:window-maximized="1" />
  <metadata
     id="metadata4883">
    <rdf:RDF>
      <cc:Work
         rdf:about="">
        <dc:format>image/svg+xml</dc:format>
        <dc:type
           rdf:resource="http://purl.org/dc/dcmitype/StillImage" />
        <dc:title></dc:title>
      </cc:Work>
    </rdf:RDF>
  </metadata>
  <g
     inkscape:label="Layer 1"
     inkscape:groupmode="layer"
     id="layer1"
     transform="translate(283.10107,-267.50215)">
    <g
       transform="translate(-855.10107,-1025.2166)"
       id="g170">
      <path
         style="fill:#ffffff;stroke:#000000;stroke-width:2"
         inkscape:connector-curvature="0"
         d="m 721.036,1350.74 272.846,0 0,115.2 -272.846,0 z"
         id="path172" />
      <path
         style="fill:#bcbcbc;stroke:#000000;stroke-width:2"
         inkscape:connector-curvature="0"
         d="m 692.236,1465.94 28.8,0 0,-115.2 -28.8,0 z"
         id="path174" />
      <path
         style="fill:#aeaeae;stroke:#000000;stroke-width:2"
         inkscape:connector-curvature="0"
         d="m 994.631,1465.94 28.799,0 0,-115.2 -28.799,0 z"
         id="path176" />
      <path
         style="fill:none;stroke:#007efd;stroke-width:2"
         inkscape:connector-curvature="0"
         d="m 884.819,1451.86 37.64,0"
         id="path178" />
      <path
         style="fill:none;stroke:#ff0004;stroke-width:2"
         inkscape:connector-curvature="0"
         d="m 883.342,1356.95 47.54,0"
         id="path180" />
      <path
         style="fill:none;stroke:#007efd;stroke-width:2"
         inkscape:connector-curvature="0"
         d="m 922.459,1361.95 -39.117,0"
         id="path182" />
      <g
         id="g184">
        <path
           style="fill:none;stroke:#ff0004;stroke-width:2"
           inkscape:connector-curvature="0"
           d="m 930.882,1356.95 59.625,0"
           id="path186" />
        <path
           style="fill:none;stroke:#ff0004;stroke-width:2"
           inkscape:connector-curvature="0"
           d="m 940.882,1361.95 -10,-5 10,-5"
           id="path188" />
      </g>
      <g
         id="g190">
        <path
           style="fill:none;stroke:#007efd;stroke-width:2"
           inkscape:connector-curvature="0"
           d="m 990.507,1361.95 -68.048,0"
           id="path192" />
        <path
           style="fill:none;stroke:#007efd;stroke-width:2"
           inkscape:connector-curvature="0"
           d="m 980.507,1356.95 10,5 -10,5"
           id="path194" />
      </g>
      <g
         id="g196">
        <path
           style="fill:none;stroke:#ff0004;stroke-width:2"
           inkscape:connector-curvature="0"
           d="m 722.959,1356.95 105.097,0"
           id="path198" />
        <path
           style="fill:none;stroke:#ff0004;stroke-width:2"
           inkscape:connector-curvature="0"
           d="m 732.959,1361.95 -10,-5 10,-5"
           id="path200" />
      </g>
      <g
         id="g202">
        <path
           style="fill:none;stroke:#007efd;stroke-width:2"
           inkscape:connector-curvature="0"
           d="m 780.736,1361.95 -57.777,0"
           id="path204" />
        <path
           style="fill:none;stroke:#007efd;stroke-width:2"
           inkscape:connector-curvature="0"
           d="m 770.736,1356.95 10,5 -10,5"
           id="path206" />
      </g>
      <g
         id="g208">
        <path
           style="fill:none;stroke:#ff0004;stroke-width:2"
           inkscape:connector-curvature="0"
           d="m 780.736,1456.86 -57.777,0"
           id="path210" />
        <path
           style="fill:none;stroke:#ff0004;stroke-width:2"
           inkscape:connector-curvature="0"
           d="m 770.736,1451.86 10,5 -10,5"
           id="path212" />
      </g>
      <g
         id="g214">
        <path
           style="fill:none;stroke:#007efd;stroke-width:2"
           inkscape:connector-curvature="0"
           d="m 724.399,1451.86 102.997,0"
           id="path216" />
        <path
           style="fill:none;stroke:#007efd;stroke-width:2"
           inkscape:connector-curvature="0"
           d="m 734.399,1456.86 -10,-5 10,-5"
           id="path218" />
      </g>
      <g
         id="g220">
        <path
           style="fill:none;stroke:#ff0004;stroke-width:2"
           inkscape:connector-curvature="0"
           d="m 990.507,1456.86 -48.55,0"
           id="path222" />
        <path
           style="fill:none;stroke:#ff0004;stroke-width:2"
           inkscape:connector-curvature="0"
           d="m 980.507,1451.86 10,5 -10,5"
           id="path224" />
      </g>
      <g
         id="g226">
        <path
           style="fill:none;stroke:#007efd;stroke-width:2"
           inkscape:connector-curvature="0"
           d="m 910.882,1451.78 81.5,0"
           id="path228" />
        <path
           style="fill:none;stroke:#007efd;stroke-width:2"
           inkscape:connector-curvature="0"
           d="m 920.882,1456.78 -10,-5 10,-5"
           id="path230" />
      </g>
      <text
         style="font-size:24px;text-anchor:middle;font-family:American Typewriter"
         font-size="24"
         transform="matrix(0.8,0,0,0.8,707.618,1413.09)"
         xml:space="preserve"
         id="text232"><tspan
           id="tspan234">1</tspan></text>
      <text
         style="font-size:24px;text-anchor:middle;font-family:American Typewriter"
         font-size="24"
         transform="matrix(0.8,0,0,0.8,1008.23,1412.92)"
         xml:space="preserve"
         id="text236"><tspan
           id="tspan238">2</tspan></text>
      <g
         id="g240">
        <path
           style="fill:#ffffff;stroke:#000000;stroke-width:2"
           inkscape:connector-curvature="0"
           d="m 886.259,1352.11 0,-30.62 -57.6,0 0,30.62"
           id="path242" />
        <path
           style="fill:#bcbcbc;stroke:#000000;stroke-width:2"
           inkscape:connector-curvature="0"
           d="m 828.659,1322.51 57.6,0 0,-28.8 -57.6,0 z"
           id="path244" />
        <text
           style="font-size:24px;text-anchor:middle;font-family:American Typewriter"
           font-size="24"
           transform="matrix(0.8,0,0,0.8,856.149,1313.2)"
           xml:space="preserve"
           id="text246"><tspan
             id="tspan248">3</tspan></text>
      </g>
      <g
         id="g250">
        <path
           style="fill:#ffffff;stroke:#000000;stroke-width:2"
           inkscape:connector-curvature="0"
           d="m 886.017,1464.73 0,29.97 -57.6,0 0,-29.97"
           id="path252" />
        <path
           style="fill:#bcbcbc;stroke:#000000;stroke-width:2"
           inkscape:connector-curvature="0"
           d="m 828.417,1523.13 57.6,0 0,-28.8 -57.6,0 z"
           id="path254" />
        <text
           style="font-size:24px;text-anchor:middle;font-family:American Typewriter"
           font-size="24"
           transform="matrix(0.8,0,0,0.8,856.794,1512.14)"
           xml:space="preserve"
           id="text256"><tspan
             id="tspan258">4</tspan></text>
      </g>
      <g
         id="g260">
        <path
           style="fill:none;stroke:#ff0004;stroke-width:2;stroke-linecap:round"
           inkscape:connector-curvature="0"
           d="m 827.396,1456.91 c 3.861,0.1 7.867,3.02 8.605,6.22 1.934,8.39 -0.13,18.04 -0.2,27.75"
           id="path262" />
        <path
           style="fill:none;stroke:#ff0004;stroke-width:2;stroke-linecap:round"
           inkscape:connector-curvature="0"
           d="m 831.355,1480.52 c 1.423,3.48 2.783,6.99 4.446,10.36 1.67,-3.29 3.63,-6.43 5.525,-9.6"
           id="path264" />
      </g>
      <g
         id="g266">
        <path
           style="fill:none;stroke:#007efd;stroke-width:2;stroke-linecap:round"
           inkscape:connector-curvature="0"
           d="m 827.396,1451.86 c 6.736,1.27 16.236,4.92 16.605,10.9 0.516,8.36 -0.39,18.28 -0.6,28.12"
           id="path268" />
        <path
           style="fill:none;stroke:#007efd;stroke-width:2;stroke-linecap:round"
           inkscape:connector-curvature="0"
           d="m 834.643,1459.39 c -1.853,-2.99 -4.523,-5.36 -7.247,-7.53 3.813,-1.02 7.772,-1.69 11.736,-1.41"
           id="path270" />
      </g>
      <g
         id="g272">
        <path
           style="fill:none;stroke:#007efd;stroke-width:2;stroke-linecap:round"
           inkscape:connector-curvature="0"
           d="m 884.819,1451.85 c -5.56,0 -16.621,6.69 -17.36,11.07 -1.407,8.35 0.39,18.18 0.6,27.96"
           id="path274" />
        <path
           style="fill:none;stroke:#007efd;stroke-width:2;stroke-linecap:round"
           inkscape:connector-curvature="0"
           d="m 862.492,1481.28 c 1.898,3.17 3.845,6.33 5.567,9.6 1.61,-3.39 2.983,-6.88 4.405,-10.35"
           id="path276" />
      </g>
      <path
         style="fill:none;stroke:#ff0004;stroke-width:2"
         inkscape:connector-curvature="0"
         d="m 827.396,1456.89 -46.927,0"
         id="path278" />
      <g
         id="g280">
        <path
           style="fill:none;stroke:#ff0004;stroke-width:2;stroke-linecap:round;stroke-linejoin:bevel"
           inkscape:connector-curvature="0"
           d="m 886.259,1456.78 c -3.627,0.67 -10.062,3.53 -10.8,6.87 -1.935,8.76 0.13,18.84 0.2,28.98"
           id="path282" />
        <path
           style="fill:none;stroke:#ff0004;stroke-width:2;stroke-linecap:round;stroke-linejoin:bevel"
           inkscape:connector-curvature="0"
           d="m 874.015,1457.17 c 3.913,-1.51 8.238,-1.34 12.244,-0.39 -2.454,2.14 -4.995,4.64 -5.713,7.96"
           id="path284" />
      </g>
      <path
         style="fill:none;stroke:#ff0004;stroke-width:2"
         inkscape:connector-curvature="0"
         d="m 941.957,1456.86 -55.698,0"
         id="path286" />
      <g
         id="g288">
        <path
           style="fill:none;stroke:#ff0004;stroke-width:2;stroke-linecap:round"
           inkscape:connector-curvature="0"
           d="m 828.056,1356.95 c 2.951,-0.08 7.098,-1.85 7.836,-4.6 1.935,-7.19 1.85,-18.39 1.78,-26.72"
           id="path290" />
        <path
           style="fill:none;stroke:#ff0004;stroke-width:2;stroke-linecap:round"
           inkscape:connector-curvature="0"
           d="m 840.834,1353.21 c -2.309,5 -8.411,5.58 -12.778,3.74 1.178,-0.96 6.263,-4.26 3.09,-6.22"
           id="path292" />
      </g>
      <g
         id="g294">
        <path
           style="fill:none;stroke:#007efd;stroke-width:2;stroke-linecap:round"
           inkscape:connector-curvature="0"
           d="m 829.496,1361.42 c 6.279,0 12.683,-1.21 14.659,-5.91 2.852,-6.78 1.562,-21.41 1.352,-29.88"
           id="path296" />
        <path
           style="fill:none;stroke:#007efd;stroke-width:2;stroke-linecap:round"
           inkscape:connector-curvature="0"
           d="m 850.879,1335.48 c -1.736,-3.31 -3.613,-6.55 -5.372,-9.85 -1.574,3.37 -3.026,6.79 -4.623,10.15"
           id="path298" />
      </g>
      <g
         id="g300">
        <path
           style="fill:none;stroke:#ff0004;stroke-width:2;stroke-linecap:round;stroke-linejoin:bevel"
           inkscape:connector-curvature="0"
           d="m 883.186,1356.87 c -2.73,0.2 -7.098,-1.97 -7.836,-4.72 -1.934,-7.19 -0.767,-18.19 -0.697,-26.52"
           id="path302" />
        <path
           style="fill:none;stroke:#ff0004;stroke-width:2;stroke-linecap:round;stroke-linejoin:bevel"
           inkscape:connector-curvature="0"
           d="m 879.336,1335.81 c -1.56,-3.39 -3.063,-6.81 -4.683,-10.18 -1.714,3.31 -3.54,6.55 -5.311,9.82"
           id="path304" />
      </g>
      <g
         id="g306">
        <path
           style="fill:none;stroke:#007efd;stroke-width:2;stroke-linecap:round"
           inkscape:connector-curvature="0"
           d="m 884.819,1361.95 c -5.953,0 -16.729,-5 -17.469,-8.8 -1.407,-7.22 -0.631,-19.05 -0.421,-27.52"
           id="path308" />
        <path
           style="fill:none;stroke:#007efd;stroke-width:2;stroke-linecap:round"
           inkscape:connector-curvature="0"
           d="m 877.239,1354.9 c 2.006,2.83 4.532,5.35 7.58,7.05 -3.656,1.62 -7.703,2.11 -11.666,2.08"
           id="path310" />
      </g>
      <path
         style="fill:none;stroke:#007efd;stroke-width:2"
         inkscape:connector-curvature="0"
         d="m 829.496,1361.42 -49.027,0"
         id="path312" />
      <g
         id="g314">
        <g
           id="g316">
          <path
             style="fill:none;stroke:#000000;stroke-width:2"
             inkscape:connector-curvature="0"
             d="m 1101.44,1411.61 0,18.49"
             id="path318" />
          <g
             id="g320">
            <path
               style="fill:none;stroke:#000000;stroke-width:2"
               inkscape:connector-curvature="0"
               d="m 1126.64,1430.1 -50.4,0"
               id="path322" />
            <path
               style="fill:none;stroke:#000000;stroke-width:2"
               inkscape:connector-curvature="0"
               d="m 1121.6,1434.5 -40.32,0"
               id="path324" />
            <path
               style="fill:none;stroke:#000000;stroke-width:2"
               inkscape:connector-curvature="0"
               d="m 1116.56,1438.9 -30.24,0"
               id="path326" />
            <path
               style="fill:none;stroke:#000000;stroke-width:2"
               inkscape:connector-curvature="0"
               d="m 1111.52,1443.3 -20.16,0"
               id="path328" />
          </g>
        </g>
        <path
           style="fill:none;stroke:#000000;stroke-width:2"
           inkscape:connector-curvature="0"
           d="m 1023.43,1410.8 78.01,0"
           id="path330" />
      </g>
      <g
         id="g332">
        <path
           style="fill:none;stroke:#000000;stroke-width:2"
           inkscape:connector-curvature="0"
           d="m 616.26,1410.8 75.976,0"
           id="path334" />
        <g
           id="g336">
          <g
             id="g338">
            <path
               style="fill:none;stroke:#000000;stroke-width:2"
               inkscape:connector-curvature="0"
               d="m 597.185,1433.6 0,18.49"
               id="path340" />
            <g
               id="g342">
              <path
                 style="fill:none;stroke:#000000;stroke-width:2"
                 inkscape:connector-curvature="0"
                 d="m 622.385,1452.09 -50.4,0"
                 id="path344" />
              <path
                 style="fill:none;stroke:#000000;stroke-width:2"
                 inkscape:connector-curvature="0"
                 d="m 617.345,1456.49 -40.32,0"
                 id="path346" />
              <path
                 style="fill:none;stroke:#000000;stroke-width:2"
                 inkscape:connector-curvature="0"
                 d="m 612.305,1460.89 -30.24,0"
                 id="path348" />
              <path
                 style="fill:none;stroke:#000000;stroke-width:2"
                 inkscape:connector-curvature="0"
                 d="m 607.265,1465.29 -20.16,0"
                 id="path350" />
            </g>
          </g>
          <g
             id="g352">
            <path
               style="fill:#ffffff;stroke:#000000;stroke-width:2"
               inkscape:connector-curvature="0"
               d="m 618.785,1412.15 c 0,11.93 -9.67,21.6 -21.6,21.6 -11.929,0 -21.6,-9.67 -21.6,-21.6 0,-11.93 9.671,-21.6 21.6,-21.6 11.93,0 21.6,9.67 21.6,21.6 z"
               id="path354" />
            <g
               clip-path="url(#7fc8747d6570)"
               id="g356">
              <clipPath
                 id="clipPath4868">
                <path
                   style="fill:#000000;fill-opacity:0.35"
                   inkscape:connector-curvature="0"
                   d="m 588.665,1418.89 17.28,0 0,-16.89 -17.28,0 z"
                   id="path4870" />
              </clipPath>
              <g
                 clip-path="url(#7fc875065e80)"
                 id="g361">
                <clipPath
                   id="clipPath4873">
                  <path
                     style="fill:#000000;fill-opacity:0.35"
                     inkscape:connector-curvature="0"
                     d="m 588.665,1418.64 17.28,0 0,-16.64 -17.28,0 z"
                     id="path4875" />
                </clipPath>
                <path
                   style="fill:#000000"
                   inkscape:connector-curvature="0"
                   d="m 602.145,1405.05 c 1.124,-1.79 2.079,-1.85 2.931,-1.91 0.289,-0.01 0.306,-0.4 0.306,-0.44 0,-0.17 -0.119,-0.27 -0.306,-0.27 -0.597,0 -1.261,0.07 -1.875,0.07 -0.767,0 -1.551,-0.07 -2.283,-0.07 -0.137,0 -0.426,0 -0.426,0.44 0,0.26 0.204,0.27 0.357,0.27 0.631,0.06 1.057,0.28 1.057,0.75 0,0.36 -0.341,0.86 -0.341,0.89 l -7.055,11.21 -1.568,-12.16 c 0,-0.38 0.528,-0.69 1.585,-0.69 0.324,0 0.579,0 0.579,-0.46 0,-0.2 -0.187,-0.25 -0.323,-0.25 -0.921,0 -1.909,0.07 -2.846,0.07 -0.409,0 -0.852,-0.02 -1.261,-0.02 -0.426,0 -0.852,-0.05 -1.244,-0.05 -0.171,0 -0.444,0 -0.444,0.44 0,0.27 0.205,0.27 0.58,0.27 1.278,0 1.312,0.21 1.38,0.79 l 1.807,14.18 c 0.085,0.46 0.17,0.53 0.46,0.53 0.375,0 0.46,-0.12 0.647,-0.41 l 8.283,-13.18"
                   id="path366" />
              </g>
            </g>
          </g>
        </g>
      </g>
    </g>
  </g>
</svg>
