<?xml version="1.0" encoding="UTF-8" standalone="no"?>
<!-- Created with Inkscape (http://www.inkscape.org/) -->

<svg
   xmlns:dc="http://purl.org/dc/elements/1.1/"
   xmlns:cc="http://creativecommons.org/ns#"
   xmlns:rdf="http://www.w3.org/1999/02/22-rdf-syntax-ns#"
   xmlns:svg="http://www.w3.org/2000/svg"
   xmlns="http://www.w3.org/2000/svg"
   xmlns:sodipodi="http://sodipodi.sourceforge.net/DTD/sodipodi-0.dtd"
   xmlns:inkscape="http://www.inkscape.org/namespaces/inkscape"
   width="481.31342"
   height="168.49919"
   id="svg5823"
   version="1.1"
   inkscape:version="0.48.4 r9939"
   sodipodi:docname="New document 11">
  <defs
     id="defs5825">
    <clipPath
       id="7fc8747ad290">
      <path
         style="fill:#000000;fill-opacity:0.35"
         inkscape:connector-curvature="0"
         id="path515"
         d="m 924.348,717.547 61.989,0 0,-25.003 -61.989,0 z" />
    </clipPath>
    <clipPath
       id="7fc8742eed00">
      <path
         style="fill:#000000;fill-opacity:0.35"
         inkscape:connector-curvature="0"
         id="path520"
         d="m 924.348,717.547 62,0 0,-25 -62,0 z" />
    </clipPath>
    <clipPath
       id="7fc8742db5f0">
      <path
         style="fill:#000000;fill-opacity:0.35"
         inkscape:connector-curvature="0"
         id="path539"
         d="m 901.824,764.263 21.009,0 0,-16.003 -21.009,0 z" />
    </clipPath>
    <clipPath
       id="7fc874767090">
      <path
         style="fill:#000000;fill-opacity:0.35"
         inkscape:connector-curvature="0"
         id="path544"
         d="m 901.824,764.263 21,0 0,-16 -21,0 z" />
    </clipPath>
    <clipPath
       id="7fc8742b3d20">
      <path
         style="fill:#000000;fill-opacity:0.35"
         inkscape:connector-curvature="0"
         id="path553"
         d="m 977.129,764.263 21.009,0 0,-16.003 -21.009,0 z" />
    </clipPath>
    <clipPath
       id="7fc8742e3cc0">
      <path
         style="fill:#000000;fill-opacity:0.35"
         inkscape:connector-curvature="0"
         id="path558"
         d="m 977.129,764.263 21,0 0,-16 -21,0 z" />
    </clipPath>
    <clipPath
       id="7fc874768700">
      <path
         style="fill:#000000;fill-opacity:0.35"
         inkscape:connector-curvature="0"
         id="path567"
         d="m 997.853,727.165 0,10.012 -90.72,0 0,-10.012 z" />
    </clipPath>
    <clipPath
       id="7fc8742b0eb0">
      <path
         style="fill:#000000;fill-opacity:0.35"
         inkscape:connector-curvature="0"
         id="path572"
         d="m 997.853,728.165 0,9 -90.708,0 0,-9 z" />
    </clipPath>
    <clipPath
       id="7fc8747d97f0">
      <path
         style="fill:#000000;fill-opacity:0.35"
         inkscape:connector-curvature="0"
         id="path579"
         d="m 853.789,727.165 0,10.012 -92.333,0 0,-10.012 z" />
    </clipPath>
    <clipPath
       id="7fc8747d8220">
      <path
         style="fill:#000000;fill-opacity:0.35"
         inkscape:connector-curvature="0"
         id="path584"
         d="m 853.789,728.165 0,9 -92.321,0 0,-9 z" />
    </clipPath>
    <clipPath
       id="7fc87424e6b0">
      <path
         style="fill:#000000;fill-opacity:0.35"
         inkscape:connector-curvature="0"
         id="path591"
         d="m 776.288,717.547 61.989,0 0,-25.003 -61.989,0 z" />
    </clipPath>
    <clipPath
       id="7fc8747ad370">
      <path
         style="fill:#000000;fill-opacity:0.35"
         inkscape:connector-curvature="0"
         id="path596"
         d="m 776.288,717.547 62,0 0,-25 -62,0 z" />
    </clipPath>
    <clipPath
       id="7fc8747c1c90">
      <path
         style="fill:#000000;fill-opacity:0.35"
         inkscape:connector-curvature="0"
         id="path615"
         d="m 760.123,764.263 21.009,0 0,-16.003 -21.009,0 z" />
    </clipPath>
    <clipPath
       id="7fc87255dc80">
      <path
         style="fill:#000000;fill-opacity:0.35"
         inkscape:connector-curvature="0"
         id="path620"
         d="m 760.123,764.263 21,0 0,-16 -21,0 z" />
    </clipPath>
    <clipPath
       id="7fc87473a850">
      <path
         style="fill:#000000;fill-opacity:0.35"
         inkscape:connector-curvature="0"
         id="path629"
         d="m 830.386,764.263 21.941,0 0,-16.003 -21.941,0 z" />
    </clipPath>
    <clipPath
       id="7fc8747bc550">
      <path
         style="fill:#000000;fill-opacity:0.35"
         inkscape:connector-curvature="0"
         id="path634"
         d="m 830.386,764.263 22,0 0,-16 -22,0 z" />
    </clipPath>
    <clipPath
       id="7fc8741bbcb0">
      <path
         style="fill:#000000;fill-opacity:0.35"
         inkscape:connector-curvature="0"
         id="path643"
         d="m 625.288,717.139 66.009,0 0,-25.003 -66.009,0 z" />
    </clipPath>
    <clipPath
       id="7fc8745447c0">
      <path
         style="fill:#000000;fill-opacity:0.35"
         inkscape:connector-curvature="0"
         id="path648"
         d="m 625.288,717.139 66,0 0,-25 -66,0 z" />
    </clipPath>
    <clipPath
       id="7fc87450ce90">
      <path
         style="fill:#000000;fill-opacity:0.35"
         inkscape:connector-curvature="0"
         id="path667"
         d="m 701.68,726.165 0,10.012 -84.658,0 0,-10.012 z" />
    </clipPath>
    <clipPath
       id="7fc874194570">
      <path
         style="fill:#000000;fill-opacity:0.35"
         inkscape:connector-curvature="0"
         id="path672"
         d="m 701.68,727.165 0,9 -84.647,0 0,-9 z" />
    </clipPath>
  </defs>
  <sodipodi:namedview
     id="base"
     pagecolor="#ffffff"
     bordercolor="#666666"
     borderopacity="1.0"
     inkscape:pageopacity="0.0"
     inkscape:pageshadow="2"
     inkscape:zoom="0.86377106"
     inkscape:cx="539.76797"
     inkscape:cy="53.570174"
     inkscape:document-units="px"
     inkscape:current-layer="layer1"
     showgrid="false"
     fit-margin-top="0"
     fit-margin-left="0"
     fit-margin-right="0"
     fit-margin-bottom="0"
     inkscape:window-width="1855"
     inkscape:window-height="1056"
     inkscape:window-x="65"
     inkscape:window-y="24"
     inkscape:window-maximized="1" />
  <metadata
     id="metadata5828">
    <rdf:RDF>
      <cc:Work
         rdf:about="">
        <dc:format>image/svg+xml</dc:format>
        <dc:type
           rdf:resource="http://purl.org/dc/dcmitype/StillImage" />
        <dc:title></dc:title>
      </cc:Work>
    </rdf:RDF>
  </metadata>
  <g
     inkscape:label="Layer 1"
     inkscape:groupmode="layer"
     id="layer1"
     transform="translate(167.72073,-411.25207)">
    <g
       transform="translate(-736.84753,-281.41693)"
       id="g5450">
      <path
         style="fill:none;stroke:#000000;stroke-width:2"
         inkscape:connector-curvature="0"
         id="path428"
         d="m 592.534,775.11 433.996,0" />
      <path
         style="fill:none;stroke:#000000;stroke-width:2"
         inkscape:connector-curvature="0"
         id="path430"
         d="m 592.534,792.613 65,0" />
      <g
         id="g432">
        <path
           style="fill:none;stroke:#000000;stroke-width:2"
           inkscape:connector-curvature="0"
           id="path434"
           d="m 657.534,842.613 0,-50" />
        <path
           style="fill:none;stroke:#000000;stroke-width:2"
           inkscape:connector-curvature="0"
           id="path436"
           d="m 676.534,842.613 0,-50" />
      </g>
      <g
         id="g438">
        <path
           style="fill:none;stroke:#000000;stroke-width:2"
           inkscape:connector-curvature="0"
           id="path440"
           d="m 729.534,842.613 0,-50" />
        <path
           style="fill:none;stroke:#000000;stroke-width:2"
           inkscape:connector-curvature="0"
           id="path442"
           d="m 748.534,842.613 0,-50" />
      </g>
      <g
         id="g444">
        <path
           style="fill:none;stroke:#000000;stroke-width:2"
           inkscape:connector-curvature="0"
           id="path446"
           d="m 801.534,842.613 0,-50" />
        <path
           style="fill:none;stroke:#000000;stroke-width:2"
           inkscape:connector-curvature="0"
           id="path448"
           d="m 820.534,842.613 0,-50" />
      </g>
      <g
         id="g450">
        <path
           style="fill:none;stroke:#000000;stroke-width:2"
           inkscape:connector-curvature="0"
           id="path452"
           d="m 873.534,842.613 0,-50" />
        <path
           style="fill:none;stroke:#000000;stroke-width:2"
           inkscape:connector-curvature="0"
           id="path454"
           d="m 892.534,842.613 0,-50" />
      </g>
      <g
         id="g456">
        <path
           style="fill:none;stroke:#000000;stroke-width:2"
           inkscape:connector-curvature="0"
           id="path458"
           d="m 945.534,842.613 0,-50" />
        <path
           style="fill:none;stroke:#000000;stroke-width:2"
           inkscape:connector-curvature="0"
           id="path460"
           d="m 964.534,842.613 0,-50" />
      </g>
      <path
         style="fill:none;stroke:#000000;stroke-width:2"
         inkscape:connector-curvature="0"
         id="path462"
         d="m 676.534,792.613 53,0" />
      <path
         style="fill:none;stroke:#000000;stroke-width:2"
         inkscape:connector-curvature="0"
         id="path464"
         d="m 748.534,792.613 53,0" />
      <path
         style="fill:none;stroke:#000000;stroke-width:2"
         inkscape:connector-curvature="0"
         id="path466"
         d="m 820.534,792.613 53,0" />
      <path
         style="fill:none;stroke:#000000;stroke-width:2"
         inkscape:connector-curvature="0"
         id="path468"
         d="m 892.534,792.613 53,0" />
      <path
         style="fill:none;stroke:#000000;stroke-width:2"
         inkscape:connector-curvature="0"
         id="path470"
         d="m 964.534,792.613 61.996,0" />
      <path
         style="fill:#4a9b0f;stroke:#000000;stroke-width:2"
         inkscape:connector-curvature="0"
         id="path472"
         d="m 636.034,783.113 c 0,5.247 -4.253,9.5 -9.5,9.5 -5.247,0 -9.5,-4.253 -9.5,-9.5 0,-5.247 4.253,-9.5 9.5,-9.5 5.247,0 9.5,4.253 9.5,9.5 z" />
      <path
         style="fill:#4a9b0f;stroke:#000000;stroke-width:2"
         inkscape:connector-curvature="0"
         id="path474"
         d="m 708.034,783.113 c 0,5.247 -4.253,9.5 -9.5,9.5 -5.247,0 -9.5,-4.253 -9.5,-9.5 0,-5.247 4.253,-9.5 9.5,-9.5 5.247,0 9.5,4.253 9.5,9.5 z" />
      <path
         style="fill:#003acb;stroke:#000000;stroke-width:2"
         inkscape:connector-curvature="0"
         id="path476"
         d="m 780.034,783.113 c 0,5.247 -4.253,9.5 -9.5,9.5 -5.247,0 -9.5,-4.253 -9.5,-9.5 0,-5.247 4.253,-9.5 9.5,-9.5 5.247,0 9.5,4.253 9.5,9.5 z" />
      <path
         style="fill:#003acb;stroke:#000000;stroke-width:2"
         inkscape:connector-curvature="0"
         id="path478"
         d="m 852.034,783.113 c 0,5.247 -4.253,9.5 -9.5,9.5 -5.247,0 -9.5,-4.253 -9.5,-9.5 0,-5.247 4.253,-9.5 9.5,-9.5 5.247,0 9.5,4.253 9.5,9.5 z" />
      <path
         style="fill:#ff0004;stroke:#000000;stroke-width:2"
         inkscape:connector-curvature="0"
         id="path480"
         d="m 924.034,783.113 c 0,5.247 -4.253,9.5 -9.5,9.5 -5.247,0 -9.5,-4.253 -9.5,-9.5 0,-5.247 4.253,-9.5 9.5,-9.5 5.247,0 9.5,4.253 9.5,9.5 z" />
      <path
         style="fill:#ff0004;stroke:#000000;stroke-width:2"
         inkscape:connector-curvature="0"
         id="path482"
         d="m 996.034,783.113 c 0,5.247 -4.253,9.5 -9.5,9.5 -5.247,0 -9.5,-4.253 -9.5,-9.5 0,-5.247 4.253,-9.5 9.5,-9.5 5.247,0 9.5,4.253 9.5,9.5 z" />
      <text
         style="font-size:18px;font-family:American Typewriter"
         id="text484"
         xml:space="preserve"
         transform="translate(1035.2,784.559)"
         font-size="18"><tspan
           id="tspan486">...</tspan></text>
      <text
         style="font-size:18px;font-family:American Typewriter"
         id="text488"
         xml:space="preserve"
         transform="translate(567.202,784.559)"
         font-size="18"><tspan
           id="tspan490">...</tspan></text>
      <text
         style="font-size:18px;font-family:American Typewriter"
         id="text492"
         xml:space="preserve"
         transform="matrix(0,-1,1,0,667.892,863.093)"
         font-size="18"><tspan
           id="tspan494">...</tspan></text>
      <text
         style="font-size:18px;font-family:American Typewriter"
         id="text496"
         xml:space="preserve"
         transform="matrix(0,-1,1,0,739.892,863.093)"
         font-size="18"><tspan
           id="tspan498">...</tspan></text>
      <text
         style="font-size:18px;font-family:American Typewriter"
         id="text500"
         xml:space="preserve"
         transform="matrix(0,-1,1,0,811.892,863.093)"
         font-size="18"><tspan
           id="tspan502">...</tspan></text>
      <text
         style="font-size:18px;font-family:American Typewriter"
         id="text504"
         xml:space="preserve"
         transform="matrix(0,-1,1,0,883.892,863.093)"
         font-size="18"><tspan
           id="tspan506">...</tspan></text>
      <text
         style="font-size:18px;font-family:American Typewriter"
         id="text508"
         xml:space="preserve"
         transform="matrix(0,-1,1,0,955.892,863.093)"
         font-size="18"><tspan
           id="tspan510">...</tspan></text>
      <g
         id="g512"
         clip-path="url(#7fc8747ad290)">
        <clipPath
           id="clipPath5686">
          <path
             style="fill:#000000;fill-opacity:0.35"
             inkscape:connector-curvature="0"
             id="path5688"
             d="m 924.348,717.547 61.989,0 0,-25.003 -61.989,0 z" />
        </clipPath>
        <g
           id="g517"
           clip-path="url(#7fc8742eed00)">
          <clipPath
             id="clipPath5691">
            <path
               style="fill:#000000;fill-opacity:0.35"
               inkscape:connector-curvature="0"
               id="path5693"
               d="m 924.348,717.547 62,0 0,-25 -62,0 z" />
          </clipPath>
          <path
             style="fill:#ff0000"
             inkscape:connector-curvature="0"
             id="path522"
             d="m 925.546,693.928 c 0,-0.426 0,-0.852 -0.479,-0.852 -0.479,0 -0.479,0.426 -0.479,0.852 l 0,22.128 c 0,0.426 0,0.852 0.479,0.852 0.479,0 0.479,-0.426 0.479,-0.852 l 0,-22.128" />
          <path
             style="fill:#ff0000"
             inkscape:connector-curvature="0"
             id="path524"
             d="m 939.419,703.328 c 0,-1.917 -0.133,-3.835 -0.958,-5.592 -1.092,-2.29 -3.063,-2.663 -4.048,-2.663 -1.438,0 -3.168,0.613 -4.154,2.823 -0.772,1.651 -0.878,3.515 -0.878,5.432 0,1.784 0.079,3.914 1.065,5.725 1.038,1.943 2.769,2.423 3.941,2.423 1.278,0 3.088,-0.506 4.153,-2.77 0.746,-1.65 0.879,-3.514 0.879,-5.378 z m -5.032,7.615 c -0.932,0 -2.344,-0.586 -2.77,-2.876 -0.266,-1.437 -0.266,-3.621 -0.266,-5.032 0,-1.518 0,-3.089 0.186,-4.394 0.453,-2.822 2.264,-3.035 2.85,-3.035 0.772,0 2.369,0.426 2.822,2.769 0.24,1.331 0.24,3.142 0.24,4.66 0,1.784 0,3.408 -0.267,4.926 -0.372,2.263 -1.73,2.982 -2.795,2.982" />
          <path
             style="fill:#ff0000"
             inkscape:connector-curvature="0"
             id="path526"
             d="m 946.848,705.405 c 0.133,-0.293 0.133,-0.347 0.133,-0.426 0,-0.054 0,-0.107 -0.133,-0.4 l -4.154,-10.97 c -0.159,-0.4 -0.293,-0.533 -0.559,-0.533 -0.266,0 -0.479,0.213 -0.479,0.479 0,0.054 0,0.107 0.133,0.373 l 4.207,11.051 -4.207,11.023 c -0.133,0.267 -0.133,0.32 -0.133,0.426 0,0.267 0.213,0.48 0.479,0.48 0.32,0 0.4,-0.24 0.506,-0.48 l 4.207,-11.023" />
          <path
             style="fill:#ff0000"
             inkscape:connector-curvature="0"
             id="path528"
             d="m 954.49,710.917 c 0,-1.571 -0.586,-2.503 -1.517,-2.503 -0.799,0 -1.279,0.612 -1.279,1.278 0,0.639 0.48,1.251 1.279,1.251 0.266,0 0.585,-0.08 0.825,-0.293 0.08,-0.053 0.08,-0.08 0.106,-0.08 0.027,0 0.054,0.027 0.054,0.347 0,1.784 -0.826,3.195 -1.625,3.994 -0.266,0.266 -0.266,0.293 -0.266,0.372 0,0.16 0.133,0.267 0.24,0.267 0.266,0 2.183,-1.838 2.183,-4.633" />
          <path
             style="fill:#ff0000"
             inkscape:connector-curvature="0"
             id="path530"
             d="m 964.129,693.928 c 0,-0.426 0,-0.852 -0.479,-0.852 -0.453,0 -0.453,0.426 -0.453,0.852 l 0,22.128 c 0,0.426 0,0.852 0.453,0.852 0.479,0 0.479,-0.426 0.479,-0.852 l 0,-22.128" />
          <path
             style="fill:#ff0000"
             inkscape:connector-curvature="0"
             id="path532"
             d="m 973.955,695.686 c 0,-0.56 0,-0.613 -0.559,-0.613 -1.465,1.518 -3.568,1.518 -4.314,1.518 l 0,0.746 c 0.453,0 1.864,0 3.116,-0.613 l 0,12.329 c 0,0.878 -0.08,1.145 -2.211,1.145 l -0.772,0 0,0.745 c 0.826,-0.08 2.903,-0.08 3.861,-0.08 0.959,0 3.036,0 3.861,0.08 l 0,-0.745 -0.772,0 c -2.13,0 -2.21,-0.24 -2.21,-1.145 l 0,-13.367" />
          <path
             style="fill:#ff0000"
             inkscape:connector-curvature="0"
             id="path534"
             d="m 985.458,705.405 c 0.107,-0.293 0.107,-0.347 0.107,-0.426 0,-0.054 0,-0.107 -0.107,-0.4 l -4.181,-10.97 c -0.133,-0.4 -0.266,-0.533 -0.532,-0.533 -0.266,0 -0.479,0.213 -0.479,0.479 0,0.054 0,0.107 0.106,0.373 l 4.234,11.051 -4.234,11.023 c -0.106,0.267 -0.106,0.32 -0.106,0.426 0,0.267 0.213,0.48 0.479,0.48 0.293,0 0.399,-0.24 0.506,-0.48 l 4.207,-11.023" />
        </g>
      </g>
      <g
         id="g536"
         clip-path="url(#7fc8742db5f0)">
        <clipPath
           id="clipPath5703">
          <path
             style="fill:#000000;fill-opacity:0.35"
             inkscape:connector-curvature="0"
             id="path5705"
             d="m 901.824,764.263 21.009,0 0,-16.003 -21.009,0 z" />
        </clipPath>
        <g
           id="g541"
           clip-path="url(#7fc874767090)">
          <clipPath
             id="clipPath5708">
            <path
               style="fill:#000000;fill-opacity:0.35"
               inkscape:connector-curvature="0"
               id="path5710"
               d="m 901.824,764.263 21,0 0,-16 -21,0 z" />
          </clipPath>
          <path
             style="fill:#ff0000"
             inkscape:connector-curvature="0"
             id="path546"
             d="m 902.703,752.813 c 0.932,-2.742 3.515,-2.769 3.781,-2.769 3.621,0 3.861,4.181 3.861,6.044 0,1.465 -0.107,1.864 -0.266,2.344 -0.533,1.73 -1.252,4.5 -1.252,5.139 0,0.239 0.133,0.426 0.32,0.426 0.292,0 0.505,-0.533 0.745,-1.438 0.559,-1.997 0.799,-3.355 0.879,-4.101 0.053,-0.319 0.106,-0.612 0.213,-0.932 0.745,-2.37 2.29,-5.911 3.222,-7.801 0.186,-0.267 0.452,-0.799 0.452,-0.906 0,-0.239 -0.239,-0.239 -0.266,-0.239 -0.08,0 -0.213,0 -0.293,0.186 -1.251,2.263 -2.183,4.633 -3.142,7.056 -0.026,-0.745 -0.053,-2.556 -0.985,-4.873 -0.559,-1.464 -1.518,-2.636 -3.169,-2.636 -2.982,0 -4.659,3.648 -4.659,4.367 0,0.24 0.213,0.24 0.452,0.24 l 0.107,-0.107" />
          <path
             style="fill:#ff0000"
             inkscape:connector-curvature="0"
             id="path548"
             d="m 916.735,753.08 c 0.852,0.213 1.358,0.213 1.625,0.213 2.21,0 3.541,-1.518 3.541,-1.758 0,-0.186 -0.133,-0.239 -0.213,-0.239 -0.027,0 -0.053,0 -0.133,0.053 -0.399,0.16 -1.305,0.479 -2.53,0.479 -0.479,0 -1.384,-0.027 -2.476,-0.453 -0.16,-0.079 -0.186,-0.079 -0.213,-0.079 -0.213,0 -0.213,0.186 -0.213,0.452 l 0,4.953 c 0,0.293 0,0.506 0.266,0.506 0.16,0 0.16,-0.027 0.346,-0.24 0.719,-0.932 1.731,-1.065 2.344,-1.065 0.985,0 1.437,0.799 1.544,0.959 0.293,0.532 0.399,1.171 0.399,2.156 0,0.506 0,1.492 -0.506,2.237 -0.426,0.613 -1.144,1.012 -1.97,1.012 -1.092,0 -2.21,-0.612 -2.636,-1.731 0.639,0.054 0.959,-0.346 0.959,-0.825 0,-0.719 -0.64,-0.852 -0.853,-0.852 -0.026,0 -0.825,0 -0.825,0.905 0,1.518 1.358,3.036 3.382,3.036 2.157,0 4.047,-1.598 4.047,-3.702 0,-1.917 -1.464,-3.648 -3.541,-3.648 -0.746,0 -1.625,0.16 -2.344,0.799 l 0,-3.168" />
        </g>
      </g>
      <g
         id="g550"
         clip-path="url(#7fc8742b3d20)">
        <clipPath
           id="clipPath5715">
          <path
             style="fill:#000000;fill-opacity:0.35"
             inkscape:connector-curvature="0"
             id="path5717"
             d="m 977.129,764.263 21.009,0 0,-16.003 -21.009,0 z" />
        </clipPath>
        <g
           id="g555"
           clip-path="url(#7fc8742e3cc0)">
          <clipPath
             id="clipPath5720">
            <path
               style="fill:#000000;fill-opacity:0.35"
               inkscape:connector-curvature="0"
               id="path5722"
               d="m 977.129,764.263 21,0 0,-16 -21,0 z" />
          </clipPath>
          <path
             style="fill:#ff0000"
             inkscape:connector-curvature="0"
             id="path560"
             d="m 978.008,752.813 c 0.931,-2.742 3.514,-2.769 3.781,-2.769 3.621,0 3.861,4.181 3.861,6.044 0,1.465 -0.107,1.864 -0.267,2.344 -0.532,1.73 -1.251,4.5 -1.251,5.139 0,0.239 0.133,0.426 0.319,0.426 0.293,0 0.506,-0.533 0.746,-1.438 0.559,-1.997 0.799,-3.355 0.879,-4.101 0.053,-0.319 0.106,-0.612 0.213,-0.932 0.745,-2.37 2.29,-5.911 3.222,-7.801 0.186,-0.267 0.452,-0.799 0.452,-0.906 0,-0.239 -0.239,-0.239 -0.266,-0.239 -0.08,0 -0.213,0 -0.293,0.186 -1.251,2.263 -2.183,4.633 -3.142,7.056 -0.027,-0.745 -0.053,-2.556 -0.985,-4.873 -0.559,-1.464 -1.518,-2.636 -3.169,-2.636 -2.982,0 -4.66,3.648 -4.66,4.367 0,0.24 0.213,0.24 0.453,0.24 l 0.107,-0.107" />
          <path
             style="fill:#ff0000"
             inkscape:connector-curvature="0"
             id="path562"
             d="m 991.96,756.967 c 0,-1.384 0.107,-2.636 0.746,-3.648 0.586,-0.905 1.491,-1.544 2.556,-1.544 0.506,0 1.172,0.16 1.518,0.612 -0.426,0.027 -0.772,0.32 -0.772,0.799 0,0.426 0.293,0.799 0.772,0.799 0.506,0 0.825,-0.346 0.825,-0.826 0,-0.985 -0.719,-1.863 -2.37,-1.863 -2.423,0 -4.899,2.236 -4.899,5.831 0,4.367 2.05,5.672 3.914,5.672 2.051,0 3.808,-1.571 3.808,-3.755 0,-2.157 -1.678,-3.728 -3.648,-3.728 -1.358,0 -2.077,0.906 -2.45,1.651 z m 2.264,5.299 c -0.826,0 -1.491,-0.506 -1.838,-1.225 -0.239,-0.506 -0.372,-1.358 -0.372,-2.37 0,-1.624 0.958,-2.875 2.316,-2.875 0.772,0 1.278,0.292 1.704,0.905 0.4,0.639 0.426,1.358 0.426,2.343 0,0.959 0,1.651 -0.452,2.317 -0.4,0.586 -0.959,0.905 -1.784,0.905" />
        </g>
      </g>
      <g
         id="g564"
         clip-path="url(#7fc874768700)">
        <clipPath
           id="clipPath5727">
          <path
             style="fill:#000000;fill-opacity:0.35"
             inkscape:connector-curvature="0"
             id="path5729"
             d="m 997.853,727.165 0,10.012 -90.72,0 0,-10.012 z" />
        </clipPath>
        <g
           id="g569"
           clip-path="url(#7fc8742b0eb0)">
          <clipPath
             id="clipPath5732">
            <path
               style="fill:#000000;fill-opacity:0.35"
               inkscape:connector-curvature="0"
               id="path5734"
               d="m 997.853,728.165 0,9 -90.708,0 0,-9 z" />
          </clipPath>
          <path
             style="fill:#ff0000"
             inkscape:connector-curvature="0"
             id="path574"
             d="m 920.563,733.209 c -3.478,0 -8.985,0.613 -9.662,3.222 -0.096,0.107 -0.386,0.213 -0.966,0.213 -0.869,0 -0.869,-0.186 -0.869,-0.452 0,-2.37 4.347,-4.554 10.82,-4.58 l 19.709,0 c 3.382,0 6.087,0 8.985,-0.959 2.512,-0.825 2.609,-1.731 2.705,-2.263 0.097,-0.107 0.483,-0.213 0.966,-0.213 0.87,0 0.87,0.16 0.967,0.399 0.386,1.571 3.478,2.716 7.729,2.956 0.966,0.08 1.062,0.08 4.251,0.08 l 17.1,0 c 3.671,0 6.376,0 9.661,1.145 2.609,0.932 3.575,2.503 3.575,3.435 0,0.266 0,0.452 -0.966,0.452 -0.87,0 -0.87,-0.133 -0.966,-0.372 -0.29,-1.518 -3.092,-2.69 -7.536,-2.983 -0.773,-0.08 -0.966,-0.08 -4.058,-0.08 l -18.163,0 c -3.961,0 -5.41,-0.186 -8.212,-0.958 -1.836,-0.506 -2.705,-1.172 -3.382,-1.864 -1.932,1.97 -5.99,2.822 -10.917,2.822 l -20.771,0" />
        </g>
      </g>
      <g
         id="g576"
         clip-path="url(#7fc8747d97f0)">
        <clipPath
           id="clipPath5738">
          <path
             style="fill:#000000;fill-opacity:0.35"
             inkscape:connector-curvature="0"
             id="path5740"
             d="m 853.789,727.165 0,10.012 -92.333,0 0,-10.012 z" />
        </clipPath>
        <g
           id="g581"
           clip-path="url(#7fc8747d8220)">
          <clipPath
             id="clipPath5743">
            <path
               style="fill:#000000;fill-opacity:0.35"
               inkscape:connector-curvature="0"
               id="path5745"
               d="m 853.789,728.165 0,9 -92.321,0 0,-9 z" />
          </clipPath>
          <path
             style="fill:#0000ff"
             inkscape:connector-curvature="0"
             id="path586"
             d="m 775.124,733.209 c -3.54,0 -9.145,0.613 -9.833,3.222 -0.098,0.107 -0.393,0.213 -0.983,0.213 -0.885,0 -0.885,-0.186 -0.885,-0.452 0,-2.37 4.425,-4.554 11.013,-4.58 l 20.059,0 c 3.442,0 6.195,0 9.145,-0.959 2.557,-0.825 2.655,-1.731 2.753,-2.263 0.099,-0.107 0.492,-0.213 0.984,-0.213 0.885,0 0.885,0.16 0.983,0.399 0.393,1.571 3.54,2.716 7.866,2.956 0.984,0.08 1.082,0.08 4.327,0.08 l 17.405,0 c 3.736,0 6.489,0 9.833,1.145 2.655,0.932 3.638,2.503 3.638,3.435 0,0.266 0,0.452 -0.983,0.452 -0.885,0 -0.885,-0.133 -0.984,-0.372 -0.295,-1.518 -3.146,-2.69 -7.67,-2.983 -0.786,-0.08 -0.983,-0.08 -4.129,-0.08 l -18.487,0 c -4.031,0 -5.506,-0.186 -8.358,-0.958 -1.868,-0.506 -2.753,-1.172 -3.441,-1.864 -1.967,1.97 -6.097,2.822 -11.112,2.822 l -21.141,0" />
        </g>
      </g>
      <g
         id="g588"
         clip-path="url(#7fc87424e6b0)">
        <clipPath
           id="clipPath5749">
          <path
             style="fill:#000000;fill-opacity:0.35"
             inkscape:connector-curvature="0"
             id="path5751"
             d="m 776.288,717.547 61.989,0 0,-25.003 -61.989,0 z" />
        </clipPath>
        <g
           id="g593"
           clip-path="url(#7fc8747ad370)">
          <clipPath
             id="clipPath5754">
            <path
               style="fill:#000000;fill-opacity:0.35"
               inkscape:connector-curvature="0"
               id="path5756"
               d="m 776.288,717.547 62,0 0,-25 -62,0 z" />
          </clipPath>
          <path
             style="fill:#0000ff"
             inkscape:connector-curvature="0"
             id="path598"
             d="m 777.486,693.928 c 0,-0.426 0,-0.852 -0.479,-0.852 -0.479,0 -0.479,0.426 -0.479,0.852 l 0,22.128 c 0,0.426 0,0.852 0.479,0.852 0.479,0 0.479,-0.426 0.479,-0.852 l 0,-22.128" />
          <path
             style="fill:#0000ff"
             inkscape:connector-curvature="0"
             id="path600"
             d="m 791.359,703.328 c 0,-1.917 -0.133,-3.835 -0.958,-5.592 -1.092,-2.29 -3.063,-2.663 -4.048,-2.663 -1.438,0 -3.168,0.613 -4.154,2.823 -0.772,1.651 -0.878,3.515 -0.878,5.432 0,1.784 0.079,3.914 1.065,5.725 1.038,1.943 2.769,2.423 3.941,2.423 1.278,0 3.088,-0.506 4.153,-2.77 0.746,-1.65 0.879,-3.514 0.879,-5.378 z m -5.032,7.615 c -0.932,0 -2.344,-0.586 -2.77,-2.876 -0.266,-1.437 -0.266,-3.621 -0.266,-5.032 0,-1.518 0,-3.089 0.186,-4.394 0.453,-2.822 2.264,-3.035 2.85,-3.035 0.772,0 2.369,0.426 2.822,2.769 0.24,1.331 0.24,3.142 0.24,4.66 0,1.784 0,3.408 -0.267,4.926 -0.372,2.263 -1.73,2.982 -2.795,2.982" />
          <path
             style="fill:#0000ff"
             inkscape:connector-curvature="0"
             id="path602"
             d="m 798.788,705.405 c 0.133,-0.293 0.133,-0.347 0.133,-0.426 0,-0.054 0,-0.107 -0.133,-0.4 l -4.154,-10.97 c -0.159,-0.4 -0.293,-0.533 -0.559,-0.533 -0.266,0 -0.479,0.213 -0.479,0.479 0,0.054 0,0.107 0.133,0.373 l 4.207,11.051 -4.207,11.023 c -0.133,0.267 -0.133,0.32 -0.133,0.426 0,0.267 0.213,0.48 0.479,0.48 0.32,0 0.4,-0.24 0.506,-0.48 l 4.207,-11.023" />
          <path
             style="fill:#0000ff"
             inkscape:connector-curvature="0"
             id="path604"
             d="m 806.43,710.917 c 0,-1.571 -0.586,-2.503 -1.517,-2.503 -0.799,0 -1.279,0.612 -1.279,1.278 0,0.639 0.48,1.251 1.279,1.251 0.266,0 0.585,-0.08 0.825,-0.293 0.08,-0.053 0.08,-0.08 0.106,-0.08 0.027,0 0.054,0.027 0.054,0.347 0,1.784 -0.826,3.195 -1.625,3.994 -0.266,0.266 -0.266,0.293 -0.266,0.372 0,0.16 0.133,0.267 0.24,0.267 0.266,0 2.183,-1.838 2.183,-4.633" />
          <path
             style="fill:#0000ff"
             inkscape:connector-curvature="0"
             id="path606"
             d="m 816.069,693.928 c 0,-0.426 0,-0.852 -0.479,-0.852 -0.453,0 -0.453,0.426 -0.453,0.852 l 0,22.128 c 0,0.426 0,0.852 0.453,0.852 0.479,0 0.479,-0.426 0.479,-0.852 l 0,-22.128" />
          <path
             style="fill:#0000ff"
             inkscape:connector-curvature="0"
             id="path608"
             d="m 825.895,695.686 c 0,-0.56 0,-0.613 -0.559,-0.613 -1.465,1.518 -3.568,1.518 -4.314,1.518 l 0,0.746 c 0.453,0 1.864,0 3.116,-0.613 l 0,12.329 c 0,0.878 -0.08,1.145 -2.211,1.145 l -0.772,0 0,0.745 c 0.826,-0.08 2.903,-0.08 3.861,-0.08 0.959,0 3.036,0 3.861,0.08 l 0,-0.745 -0.772,0 c -2.13,0 -2.21,-0.24 -2.21,-1.145 l 0,-13.367" />
          <path
             style="fill:#0000ff"
             inkscape:connector-curvature="0"
             id="path610"
             d="m 837.398,705.405 c 0.107,-0.293 0.107,-0.347 0.107,-0.426 0,-0.054 0,-0.107 -0.107,-0.4 l -4.181,-10.97 c -0.133,-0.4 -0.266,-0.533 -0.532,-0.533 -0.266,0 -0.479,0.213 -0.479,0.479 0,0.054 0,0.107 0.106,0.373 l 4.234,11.051 -4.234,11.023 c -0.106,0.267 -0.106,0.32 -0.106,0.426 0,0.267 0.213,0.48 0.479,0.48 0.293,0 0.399,-0.24 0.506,-0.48 l 4.207,-11.023" />
        </g>
      </g>
      <g
         id="g612"
         clip-path="url(#7fc8747c1c90)">
        <clipPath
           id="clipPath5766">
          <path
             style="fill:#000000;fill-opacity:0.35"
             inkscape:connector-curvature="0"
             id="path5768"
             d="m 760.123,764.263 21.009,0 0,-16.003 -21.009,0 z" />
        </clipPath>
        <g
           id="g617"
           clip-path="url(#7fc87255dc80)">
          <clipPath
             id="clipPath5771">
            <path
               style="fill:#000000;fill-opacity:0.35"
               inkscape:connector-curvature="0"
               id="path5773"
               d="m 760.123,764.263 21,0 0,-16 -21,0 z" />
          </clipPath>
          <path
             style="fill:#0000ff"
             inkscape:connector-curvature="0"
             id="path622"
             d="m 761.002,752.813 c 0.932,-2.742 3.515,-2.769 3.781,-2.769 3.621,0 3.861,4.181 3.861,6.044 0,1.465 -0.107,1.864 -0.266,2.344 -0.533,1.73 -1.252,4.5 -1.252,5.139 0,0.239 0.133,0.426 0.32,0.426 0.293,0 0.506,-0.533 0.745,-1.438 0.559,-1.997 0.799,-3.355 0.879,-4.101 0.053,-0.319 0.106,-0.612 0.213,-0.932 0.746,-2.37 2.29,-5.911 3.222,-7.801 0.186,-0.267 0.453,-0.799 0.453,-0.906 0,-0.239 -0.24,-0.239 -0.267,-0.239 -0.08,0 -0.213,0 -0.293,0.186 -1.251,2.263 -2.183,4.633 -3.142,7.056 -0.026,-0.745 -0.053,-2.556 -0.985,-4.873 -0.559,-1.464 -1.518,-2.636 -3.168,-2.636 -2.983,0 -4.66,3.648 -4.66,4.367 0,0.24 0.213,0.24 0.452,0.24 l 0.107,-0.107" />
          <path
             style="fill:#0000ff"
             inkscape:connector-curvature="0"
             id="path624"
             d="m 777.005,756.861 c 1.331,0 2.263,0.905 2.263,2.689 0,2.077 -1.225,2.716 -2.183,2.716 -0.666,0 -2.157,-0.186 -2.876,-1.172 0.799,-0.053 0.985,-0.612 0.985,-0.958 0,-0.533 -0.399,-0.905 -0.932,-0.905 -0.452,0 -0.932,0.266 -0.932,0.958 0,1.598 1.758,2.61 3.782,2.61 2.343,0 3.94,-1.571 3.94,-3.249 0,-1.305 -1.065,-2.609 -2.902,-3.009 1.757,-0.639 2.396,-1.89 2.396,-2.929 0,-1.331 -1.544,-2.316 -3.408,-2.316 -1.864,0 -3.275,0.905 -3.275,2.263 0,0.559 0.346,0.879 0.852,0.879 0.533,0 0.879,-0.373 0.879,-0.853 0,-0.479 -0.346,-0.852 -0.879,-0.878 0.612,-0.746 1.757,-0.906 2.37,-0.906 0.772,0 1.837,0.347 1.837,1.811 0,0.719 -0.239,1.491 -0.692,1.997 -0.533,0.639 -1.012,0.692 -1.864,0.746 -0.426,0.026 -0.453,0.026 -0.533,0.053 -0.026,0 -0.159,0.027 -0.159,0.213 0,0.24 0.133,0.24 0.426,0.24 l 0.905,0" />
        </g>
      </g>
      <g
         id="g626"
         clip-path="url(#7fc87473a850)">
        <clipPath
           id="clipPath5778">
          <path
             style="fill:#000000;fill-opacity:0.35"
             inkscape:connector-curvature="0"
             id="path5780"
             d="m 830.386,764.263 21.941,0 0,-16.003 -21.941,0 z" />
        </clipPath>
        <g
           id="g631"
           clip-path="url(#7fc8747bc550)">
          <clipPath
             id="clipPath5783">
            <path
               style="fill:#000000;fill-opacity:0.35"
               inkscape:connector-curvature="0"
               id="path5785"
               d="m 830.386,764.263 22,0 0,-16 -22,0 z" />
          </clipPath>
          <path
             style="fill:#0000ff"
             inkscape:connector-curvature="0"
             id="path636"
             d="m 831.265,752.813 c 0.932,-2.742 3.515,-2.769 3.781,-2.769 3.621,0 3.861,4.181 3.861,6.044 0,1.465 -0.107,1.864 -0.266,2.344 -0.533,1.73 -1.252,4.5 -1.252,5.139 0,0.239 0.133,0.426 0.32,0.426 0.292,0 0.506,-0.533 0.745,-1.438 0.559,-1.997 0.799,-3.355 0.879,-4.101 0.053,-0.319 0.106,-0.612 0.213,-0.932 0.745,-2.37 2.29,-5.911 3.222,-7.801 0.186,-0.267 0.452,-0.799 0.452,-0.906 0,-0.239 -0.239,-0.239 -0.266,-0.239 -0.08,0 -0.213,0 -0.293,0.186 -1.251,2.263 -2.183,4.633 -3.142,7.056 -0.026,-0.745 -0.053,-2.556 -0.985,-4.873 -0.559,-1.464 -1.518,-2.636 -3.169,-2.636 -2.982,0 -4.659,3.648 -4.659,4.367 0,0.24 0.213,0.24 0.452,0.24 l 0.107,-0.107" />
          <path
             style="fill:#0000ff"
             inkscape:connector-curvature="0"
             id="path638"
             d="m 851.582,759.71 0,-0.613 -1.864,0 0,-7.482 c 0,-0.373 0,-0.479 -0.373,-0.479 -0.213,0 -0.266,0 -0.426,0.239 l -5.565,7.722 0,0.613 4.926,0 0,1.384 c 0,0.56 0,0.773 -1.358,0.773 l -0.453,0 0,0.585 c 0.852,-0.026 1.917,-0.053 2.53,-0.053 0.612,0 1.677,0.027 2.529,0.053 l 0,-0.585 -0.452,0 c -1.358,0 -1.358,-0.213 -1.358,-0.773 l 0,-1.384 1.864,0 z m -3.169,-6.764 0,6.151 -4.447,0 4.447,-6.151" />
        </g>
      </g>
      <g
         id="g640"
         clip-path="url(#7fc8741bbcb0)">
        <clipPath
           id="clipPath5790">
          <path
             style="fill:#000000;fill-opacity:0.35"
             inkscape:connector-curvature="0"
             id="path5792"
             d="m 625.288,717.139 66.009,0 0,-25.003 -66.009,0 z" />
        </clipPath>
        <g
           id="g645"
           clip-path="url(#7fc8745447c0)">
          <clipPath
             id="clipPath5795">
            <path
               style="fill:#000000;fill-opacity:0.35"
               inkscape:connector-curvature="0"
               id="path5797"
               d="m 625.288,717.139 66,0 0,-25 -66,0 z" />
          </clipPath>
          <path
             style="fill:#3c7f32"
             inkscape:connector-curvature="0"
             id="path650"
             d="m 626.486,693.521 c 0,-0.426 0,-0.852 -0.479,-0.852 -0.479,0 -0.479,0.426 -0.479,0.852 l 0,22.127 c 0,0.426 0,0.852 0.479,0.852 0.479,0 0.479,-0.426 0.479,-0.852 l 0,-22.127" />
          <path
             style="fill:#3c7f32"
             inkscape:connector-curvature="0"
             id="path652"
             d="m 640.359,702.92 c 0,-1.917 -0.133,-3.834 -0.958,-5.591 -1.092,-2.29 -3.063,-2.663 -4.048,-2.663 -1.438,0 -3.168,0.612 -4.154,2.822 -0.772,1.651 -0.878,3.515 -0.878,5.432 0,1.784 0.079,3.915 1.065,5.725 1.038,1.944 2.769,2.423 3.941,2.423 1.278,0 3.088,-0.506 4.153,-2.769 0.746,-1.651 0.879,-3.515 0.879,-5.379 z m -5.032,7.616 c -0.932,0 -2.344,-0.586 -2.77,-2.876 -0.266,-1.438 -0.266,-3.621 -0.266,-5.033 0,-1.517 0,-3.088 0.186,-4.393 0.453,-2.823 2.264,-3.036 2.85,-3.036 0.772,0 2.369,0.426 2.822,2.77 0.24,1.331 0.24,3.142 0.24,4.659 0,1.784 0,3.409 -0.267,4.927 -0.372,2.263 -1.73,2.982 -2.795,2.982" />
          <path
             style="fill:#3c7f32"
             inkscape:connector-curvature="0"
             id="path654"
             d="m 647.788,704.997 c 0.133,-0.293 0.133,-0.346 0.133,-0.426 0,-0.053 0,-0.106 -0.133,-0.399 l -4.154,-10.971 c -0.159,-0.399 -0.293,-0.532 -0.559,-0.532 -0.266,0 -0.479,0.213 -0.479,0.479 0,0.053 0,0.107 0.133,0.373 l 4.207,11.05 -4.207,11.024 c -0.133,0.266 -0.133,0.32 -0.133,0.426 0,0.266 0.213,0.479 0.479,0.479 0.32,0 0.4,-0.239 0.506,-0.479 l 4.207,-11.024" />
          <path
             style="fill:#3c7f32"
             inkscape:connector-curvature="0"
             id="path656"
             d="m 655.43,710.509 c 0,-1.571 -0.586,-2.503 -1.517,-2.503 -0.799,0 -1.279,0.613 -1.279,1.278 0,0.639 0.48,1.252 1.279,1.252 0.266,0 0.585,-0.08 0.825,-0.293 0.08,-0.053 0.08,-0.08 0.106,-0.08 0.027,0 0.054,0.027 0.054,0.346 0,1.784 -0.826,3.195 -1.625,3.994 -0.266,0.267 -0.266,0.293 -0.266,0.373 0,0.16 0.133,0.266 0.24,0.266 0.266,0 2.183,-1.837 2.183,-4.633" />
          <path
             style="fill:#3c7f32"
             inkscape:connector-curvature="0"
             id="path658"
             d="m 668.984,693.521 c 0,-0.426 0,-0.852 -0.48,-0.852 -0.479,0 -0.479,0.426 -0.479,0.852 l 0,22.127 c 0,0.426 0,0.852 0.479,0.852 0.48,0 0.48,-0.426 0.48,-0.852 l 0,-22.127" />
          <path
             style="fill:#3c7f32"
             inkscape:connector-curvature="0"
             id="path660"
             d="m 678.889,695.278 c 0,-0.559 0,-0.612 -0.532,-0.612 -1.492,1.518 -3.595,1.518 -4.341,1.518 l 0,0.745 c 0.48,0 1.864,0 3.116,-0.612 l 0,12.328 c 0,0.879 -0.08,1.145 -2.21,1.145 l -0.773,0 0,0.746 c 0.826,-0.08 2.903,-0.08 3.861,-0.08 0.959,0 3.036,0 3.861,0.08 l 0,-0.746 -0.745,0 c -2.157,0 -2.237,-0.239 -2.237,-1.145 l 0,-13.367" />
          <path
             style="fill:#3c7f32"
             inkscape:connector-curvature="0"
             id="path662"
             d="m 690.286,704.997 c 0.133,-0.293 0.133,-0.346 0.133,-0.426 0,-0.053 0,-0.106 -0.133,-0.399 l -4.154,-10.971 c -0.16,-0.399 -0.293,-0.532 -0.559,-0.532 -0.267,0 -0.48,0.213 -0.48,0.479 0,0.053 0,0.107 0.133,0.373 l 4.208,11.05 -4.208,11.024 c -0.133,0.266 -0.133,0.32 -0.133,0.426 0,0.266 0.213,0.479 0.48,0.479 0.319,0 0.399,-0.239 0.505,-0.479 l 4.208,-11.024" />
        </g>
      </g>
      <g
         id="g664"
         clip-path="url(#7fc87450ce90)">
        <clipPath
           id="clipPath5807">
          <path
             style="fill:#000000;fill-opacity:0.35"
             inkscape:connector-curvature="0"
             id="path5809"
             d="m 701.68,726.165 0,10.012 -84.658,0 0,-10.012 z" />
        </clipPath>
        <g
           id="g669"
           clip-path="url(#7fc874194570)">
          <clipPath
             id="clipPath5812">
            <path
               style="fill:#000000;fill-opacity:0.35"
               inkscape:connector-curvature="0"
               id="path5814"
               d="m 701.68,727.165 0,9 -84.647,0 0,-9 z" />
          </clipPath>
          <path
             style="fill:#3c7f32"
             inkscape:connector-curvature="0"
             id="path674"
             d="m 629.554,732.209 c -3.246,0 -8.385,0.613 -9.016,3.222 -0.09,0.107 -0.361,0.213 -0.902,0.213 -0.811,0 -0.811,-0.186 -0.811,-0.452 0,-2.37 4.057,-4.554 10.098,-4.58 l 18.392,0 c 3.155,0 5.68,0 8.385,-0.959 2.344,-0.825 2.434,-1.731 2.524,-2.263 0.09,-0.107 0.451,-0.213 0.902,-0.213 0.811,0 0.811,0.16 0.901,0.399 0.361,1.571 3.246,2.716 7.213,2.956 0.902,0.08 0.992,0.08 3.967,0.08 l 15.958,0 c 3.426,0 5.95,0 9.016,1.145 2.434,0.932 3.336,2.503 3.336,3.435 0,0.266 0,0.452 -0.902,0.452 -0.811,0 -0.811,-0.133 -0.902,-0.372 -0.27,-1.518 -2.885,-2.69 -7.032,-2.983 -0.721,-0.08 -0.902,-0.08 -3.787,-0.08 l -16.949,0 c -3.697,0 -5.049,-0.186 -7.664,-0.958 -1.713,-0.506 -2.524,-1.172 -3.155,-1.864 -1.804,1.97 -5.59,2.822 -10.188,2.822 l -19.384,0" />
        </g>
      </g>
      <g
         id="g676">
        <path
           style="fill:#3c7f32"
           inkscape:connector-curvature="0"
           id="path678"
           d="m 692.36,752.334 c 0.932,-2.742 3.542,-2.769 3.781,-2.769 3.621,0 3.861,4.18 3.861,6.044 0,1.465 -0.106,1.864 -0.266,2.344 -0.533,1.73 -1.251,4.5 -1.251,5.139 0,0.239 0.133,0.426 0.319,0.426 0.293,0 0.506,-0.533 0.746,-1.438 0.559,-1.997 0.799,-3.355 0.905,-4.101 0.027,-0.319 0.08,-0.612 0.186,-0.932 0.746,-2.37 2.29,-5.911 3.222,-7.802 0.186,-0.266 0.479,-0.798 0.479,-0.905 0,-0.24 -0.239,-0.24 -0.293,-0.24 -0.079,0 -0.212,0 -0.292,0.187 -1.252,2.263 -2.183,4.633 -3.143,7.056 -0.026,-0.746 -0.053,-2.556 -0.985,-4.873 -0.559,-1.464 -1.517,-2.636 -3.168,-2.636 -2.982,0 -4.633,3.648 -4.633,4.367 0,0.24 0.213,0.24 0.452,0.24 l 0.08,-0.107" />
        <path
           style="fill:#3c7f32"
           inkscape:connector-curvature="0"
           id="path680"
           d="m 712.278,758.938 -0.587,0 c -0.053,0.346 -0.212,1.358 -0.426,1.518 -0.132,0.106 -1.437,0.106 -1.677,0.106 l -3.089,0 c 1.784,-1.571 2.37,-2.05 3.382,-2.822 1.225,-1.012 2.397,-2.051 2.397,-3.648 0,-2.024 -1.784,-3.276 -3.942,-3.276 -2.076,0 -3.488,1.465 -3.488,3.009 0,0.852 0.719,0.959 0.879,0.959 0.399,0 0.905,-0.293 0.905,-0.905 0,-0.293 -0.133,-0.879 -1.011,-0.879 0.532,-1.198 1.677,-1.571 2.476,-1.571 1.678,0 2.556,1.305 2.556,2.663 0,1.464 -1.038,2.636 -1.598,3.248 l -4.047,3.994 c -0.16,0.133 -0.16,0.187 -0.16,0.639 l 6.924,0 0.506,-3.035" />
      </g>
      <g
         id="g682">
        <path
           style="fill:#3c7f32"
           inkscape:connector-curvature="0"
           id="path684"
           d="m 613.881,752.334 c 0.905,-2.742 3.515,-2.769 3.781,-2.769 3.595,0 3.861,4.18 3.861,6.044 0,1.465 -0.133,1.864 -0.293,2.344 -0.533,1.73 -1.225,4.5 -1.225,5.139 0,0.239 0.107,0.426 0.293,0.426 0.32,0 0.506,-0.533 0.772,-1.438 0.533,-1.997 0.772,-3.355 0.879,-4.101 0.053,-0.319 0.107,-0.612 0.186,-0.932 0.773,-2.37 2.29,-5.911 3.249,-7.802 0.16,-0.266 0.453,-0.798 0.453,-0.905 0,-0.24 -0.24,-0.24 -0.293,-0.24 -0.08,0 -0.213,0 -0.293,0.187 -1.225,2.263 -2.184,4.633 -3.142,7.056 -0.027,-0.746 -0.053,-2.556 -0.959,-4.873 -0.586,-1.464 -1.544,-2.636 -3.195,-2.636 -2.956,0 -4.633,3.648 -4.633,4.367 0,0.24 0.213,0.24 0.452,0.24 l 0.107,-0.107" />
        <path
           style="fill:#3c7f32"
           inkscape:connector-curvature="0"
           id="path686"
           d="m 630.922,751.296 c 0,-0.453 -0.026,-0.48 -0.505,-0.48 -1.066,1.066 -2.61,1.092 -3.302,1.092 l 0,0.586 c 0.399,0 1.517,0 2.449,-0.453 l 0,8.574 c 0,0.56 0,0.773 -1.677,0.773 l -0.639,0 0,0.585 c 0.293,0 2.37,-0.053 2.982,-0.053 0.533,0 2.636,0.053 3.009,0.053 l 0,-0.585 -0.639,0 c -1.678,0 -1.678,-0.24 -1.678,-0.773 l 0,-9.319" />
      </g>
    </g>
  </g>
</svg>
