<?xml version="1.0" encoding="UTF-8" standalone="no"?>
<!-- Created with Inkscape (http://www.inkscape.org/) -->

<svg
   xmlns:dc="http://purl.org/dc/elements/1.1/"
   xmlns:cc="http://creativecommons.org/ns#"
   xmlns:rdf="http://www.w3.org/1999/02/22-rdf-syntax-ns#"
   xmlns:svg="http://www.w3.org/2000/svg"
   xmlns="http://www.w3.org/2000/svg"
   xmlns:sodipodi="http://sodipodi.sourceforge.net/DTD/sodipodi-0.dtd"
   xmlns:inkscape="http://www.inkscape.org/namespaces/inkscape"
   width="481.31943"
   height="168.0912"
   id="svg5020"
   version="1.1"
   inkscape:version="0.48.4 r9939"
   sodipodi:docname="New document 8">
  <defs
     id="defs5022">
    <clipPath
       id="7fc874163570">
      <path
         style="fill:#000000;fill-opacity:0.35"
         inkscape:connector-curvature="0"
         d="m 927.322,421.134 61.989,0 0,-25.003 -61.989,0 z"
         id="path197" />
    </clipPath>
    <clipPath
       id="7fc8745733a0">
      <path
         style="fill:#000000;fill-opacity:0.35"
         inkscape:connector-curvature="0"
         d="m 927.322,421.134 62,0 0,-25 -62,0 z"
         id="path202" />
    </clipPath>
    <clipPath
       id="7fc874538f30">
      <path
         style="fill:#000000;fill-opacity:0.35"
         inkscape:connector-curvature="0"
         d="m 904.798,467.851 21.009,0 0,-16.004 -21.009,0 z"
         id="path221" />
    </clipPath>
    <clipPath
       id="7fc87413c1a0">
      <path
         style="fill:#000000;fill-opacity:0.35"
         inkscape:connector-curvature="0"
         d="m 904.798,467.851 21,0 0,-16 -21,0 z"
         id="path226" />
    </clipPath>
    <clipPath
       id="7fc874111c70">
      <path
         style="fill:#000000;fill-opacity:0.35"
         inkscape:connector-curvature="0"
         d="m 980.103,467.851 21.007,0 0,-16.004 -21.007,0 z"
         id="path235" />
    </clipPath>
    <clipPath
       id="7fc8745566f0">
      <path
         style="fill:#000000;fill-opacity:0.35"
         inkscape:connector-curvature="0"
         d="m 980.103,467.851 20.997,0 0,-16 -20.997,0 z"
         id="path240" />
    </clipPath>
    <clipPath
       id="7fc874582080">
      <path
         style="fill:#000000;fill-opacity:0.35"
         inkscape:connector-curvature="0"
         d="m 1000.83,430.752 0,10.012 -90.723,0 0,-10.012 z"
         id="path249" />
    </clipPath>
    <clipPath
       id="7fc8745832e0">
      <path
         style="fill:#000000;fill-opacity:0.35"
         inkscape:connector-curvature="0"
         d="m 1000.83,431.752 0,9 -90.711,0 0,-9 z"
         id="path254" />
    </clipPath>
    <clipPath
       id="7fc8745707d0">
      <path
         style="fill:#000000;fill-opacity:0.35"
         inkscape:connector-curvature="0"
         d="m 856.763,430.752 0,10.012 -92.333,0 0,-10.012 z"
         id="path261" />
    </clipPath>
    <clipPath
       id="7fc874569980">
      <path
         style="fill:#000000;fill-opacity:0.35"
         inkscape:connector-curvature="0"
         d="m 856.763,431.752 0,9 -92.321,0 0,-9 z"
         id="path266" />
    </clipPath>
    <clipPath
       id="7fc874539170">
      <path
         style="fill:#000000;fill-opacity:0.35"
         inkscape:connector-curvature="0"
         d="m 779.262,421.134 61.989,0 0,-25.003 -61.989,0 z"
         id="path273" />
    </clipPath>
    <clipPath
       id="7fc874567c90">
      <path
         style="fill:#000000;fill-opacity:0.35"
         inkscape:connector-curvature="0"
         d="m 779.262,421.134 62,0 0,-25 -62,0 z"
         id="path278" />
    </clipPath>
    <clipPath
       id="7fc874541480">
      <path
         style="fill:#000000;fill-opacity:0.35"
         inkscape:connector-curvature="0"
         d="m 763.097,467.851 21.009,0 0,-16.004 -21.009,0 z"
         id="path297" />
    </clipPath>
    <clipPath
       id="7fc87416c0f0">
      <path
         style="fill:#000000;fill-opacity:0.35"
         inkscape:connector-curvature="0"
         d="m 763.097,467.851 21,0 0,-16 -21,0 z"
         id="path302" />
    </clipPath>
    <clipPath
       id="7fc8745a08d0">
      <path
         style="fill:#000000;fill-opacity:0.35"
         inkscape:connector-curvature="0"
         d="m 833.36,467.851 21.941,0 0,-16.004 -21.941,0 z"
         id="path311" />
    </clipPath>
    <clipPath
       id="7fc87457d640">
      <path
         style="fill:#000000;fill-opacity:0.35"
         inkscape:connector-curvature="0"
         d="m 833.36,467.851 22,0 0,-16 -22,0 z"
         id="path316" />
    </clipPath>
    <clipPath
       id="7fc87458ae20">
      <path
         style="fill:#000000;fill-opacity:0.35"
         inkscape:connector-curvature="0"
         d="m 691.872,467.851 21.009,0 0,-16.004 -21.009,0 z"
         id="path325" />
    </clipPath>
    <clipPath
       id="7fc874576a70">
      <path
         style="fill:#000000;fill-opacity:0.35"
         inkscape:connector-curvature="0"
         d="m 691.872,467.851 21,0 0,-16 -21,0 z"
         id="path330" />
    </clipPath>
    <clipPath
       id="7fc87454cbf0">
      <path
         style="fill:#000000;fill-opacity:0.35"
         inkscape:connector-curvature="0"
         d="m 619.798,468.334 21.009,0 0,-16.004 -21.009,0 z"
         id="path339" />
    </clipPath>
    <clipPath
       id="7fc87455c0f0">
      <path
         style="fill:#000000;fill-opacity:0.35"
         inkscape:connector-curvature="0"
         d="m 619.798,468.334 21,0 0,-16 -21,0 z"
         id="path344" />
    </clipPath>
    <clipPath
       id="7fc8741df7b0">
      <path
         style="fill:#000000;fill-opacity:0.35"
         inkscape:connector-curvature="0"
         d="m 706.638,430.752 0,10.012 -88.516,0 0,-10.012 z"
         id="path353" />
    </clipPath>
    <clipPath
       id="7fc87415a040">
      <path
         style="fill:#000000;fill-opacity:0.35"
         inkscape:connector-curvature="0"
         d="m 706.638,431.752 0,9 -88.504,0 0,-9 z"
         id="path358" />
    </clipPath>
    <clipPath
       id="7fc8747bc390">
      <path
         style="fill:#000000;fill-opacity:0.35"
         inkscape:connector-curvature="0"
         d="m 640.078,422.456 61.989,0 0,-25.004 -61.989,0 z"
         id="path365" />
    </clipPath>
    <clipPath
       id="7fc87502fe10">
      <path
         style="fill:#000000;fill-opacity:0.35"
         inkscape:connector-curvature="0"
         d="m 640.078,422.456 62,0 0,-25 -62,0 z"
         id="path370" />
    </clipPath>
  </defs>
  <sodipodi:namedview
     id="base"
     pagecolor="#ffffff"
     bordercolor="#666666"
     borderopacity="1.0"
     inkscape:pageopacity="0.0"
     inkscape:pageshadow="2"
     inkscape:zoom="0.86377106"
     inkscape:cx="552.50582"
     inkscape:cy="-29.989248"
     inkscape:document-units="px"
     inkscape:current-layer="layer1"
     showgrid="false"
     fit-margin-top="0"
     fit-margin-left="0"
     fit-margin-right="0"
     fit-margin-bottom="0"
     inkscape:window-width="1855"
     inkscape:window-height="1056"
     inkscape:window-x="65"
     inkscape:window-y="24"
     inkscape:window-maximized="1" />
  <metadata
     id="metadata5025">
    <rdf:RDF>
      <cc:Work
         rdf:about="">
        <dc:format>image/svg+xml</dc:format>
        <dc:type
           rdf:resource="http://purl.org/dc/dcmitype/StillImage" />
        <dc:title></dc:title>
      </cc:Work>
    </rdf:RDF>
  </metadata>
  <g
     inkscape:label="Layer 1"
     inkscape:groupmode="layer"
     id="layer1"
     transform="translate(180.45858,-328.10065)">
    <g
       transform="translate(-752.55938,-68.563352)"
       id="g108">
      <path
         style="fill:none;stroke:#000000;stroke-width:2"
         inkscape:connector-curvature="0"
         d="m 595.508,478.698 434.002,0"
         id="path110" />
      <path
         style="fill:none;stroke:#000000;stroke-width:2"
         inkscape:connector-curvature="0"
         d="m 595.508,496.2 65,0"
         id="path112" />
      <g
         id="g114">
        <path
           style="fill:none;stroke:#000000;stroke-width:2"
           inkscape:connector-curvature="0"
           d="m 660.508,546.2 0,-50"
           id="path116" />
        <path
           style="fill:none;stroke:#000000;stroke-width:2"
           inkscape:connector-curvature="0"
           d="m 679.508,546.2 0,-50"
           id="path118" />
      </g>
      <g
         id="g120">
        <path
           style="fill:none;stroke:#000000;stroke-width:2"
           inkscape:connector-curvature="0"
           d="m 732.508,546.2 0,-50"
           id="path122" />
        <path
           style="fill:none;stroke:#000000;stroke-width:2"
           inkscape:connector-curvature="0"
           d="m 751.508,546.2 0,-50"
           id="path124" />
      </g>
      <g
         id="g126">
        <path
           style="fill:none;stroke:#000000;stroke-width:2"
           inkscape:connector-curvature="0"
           d="m 804.508,546.2 0,-50"
           id="path128" />
        <path
           style="fill:none;stroke:#000000;stroke-width:2"
           inkscape:connector-curvature="0"
           d="m 823.508,546.2 0,-50"
           id="path130" />
      </g>
      <g
         id="g132">
        <path
           style="fill:none;stroke:#000000;stroke-width:2"
           inkscape:connector-curvature="0"
           d="m 876.508,546.2 0,-50"
           id="path134" />
        <path
           style="fill:none;stroke:#000000;stroke-width:2"
           inkscape:connector-curvature="0"
           d="m 895.508,546.2 0,-50"
           id="path136" />
      </g>
      <g
         id="g138">
        <path
           style="fill:none;stroke:#000000;stroke-width:2"
           inkscape:connector-curvature="0"
           d="m 948.508,546.2 0,-50"
           id="path140" />
        <path
           style="fill:none;stroke:#000000;stroke-width:2"
           inkscape:connector-curvature="0"
           d="m 967.508,546.2 0,-50"
           id="path142" />
      </g>
      <path
         style="fill:none;stroke:#000000;stroke-width:2"
         inkscape:connector-curvature="0"
         d="m 679.508,496.2 53,0"
         id="path144" />
      <path
         style="fill:none;stroke:#000000;stroke-width:2"
         inkscape:connector-curvature="0"
         d="m 751.508,496.2 53,0"
         id="path146" />
      <path
         style="fill:none;stroke:#000000;stroke-width:2"
         inkscape:connector-curvature="0"
         d="m 823.508,496.2 53,0"
         id="path148" />
      <path
         style="fill:none;stroke:#000000;stroke-width:2"
         inkscape:connector-curvature="0"
         d="m 895.508,496.2 53,0"
         id="path150" />
      <path
         style="fill:none;stroke:#000000;stroke-width:2"
         inkscape:connector-curvature="0"
         d="m 967.508,496.2 62.002,0"
         id="path152" />
      <path
         style="fill:#ffc013;stroke:#000000;stroke-width:2"
         inkscape:connector-curvature="0"
         d="m 639.008,486.7 c 0,5.247 -4.253,9.5 -9.5,9.5 -5.247,0 -9.5,-4.253 -9.5,-9.5 0,-5.246 4.253,-9.5 9.5,-9.5 5.247,0 9.5,4.254 9.5,9.5 z"
         id="path154" />
      <path
         style="fill:#ffc013;stroke:#000000;stroke-width:2"
         inkscape:connector-curvature="0"
         d="m 711.008,486.7 c 0,5.247 -4.253,9.5 -9.5,9.5 -5.247,0 -9.5,-4.253 -9.5,-9.5 0,-5.246 4.253,-9.5 9.5,-9.5 5.247,0 9.5,4.254 9.5,9.5 z"
         id="path156" />
      <path
         style="fill:#003acb;stroke:#000000;stroke-width:2"
         inkscape:connector-curvature="0"
         d="m 783.008,486.7 c 0,5.247 -4.253,9.5 -9.5,9.5 -5.247,0 -9.5,-4.253 -9.5,-9.5 0,-5.246 4.253,-9.5 9.5,-9.5 5.247,0 9.5,4.254 9.5,9.5 z"
         id="path158" />
      <path
         style="fill:#003acb;stroke:#000000;stroke-width:2"
         inkscape:connector-curvature="0"
         d="m 855.008,486.7 c 0,5.247 -4.253,9.5 -9.5,9.5 -5.247,0 -9.5,-4.253 -9.5,-9.5 0,-5.246 4.253,-9.5 9.5,-9.5 5.247,0 9.5,4.254 9.5,9.5 z"
         id="path160" />
      <path
         style="fill:#ff0004;stroke:#000000;stroke-width:2"
         inkscape:connector-curvature="0"
         d="m 927.008,486.7 c 0,5.247 -4.253,9.5 -9.5,9.5 -5.247,0 -9.5,-4.253 -9.5,-9.5 0,-5.246 4.253,-9.5 9.5,-9.5 5.247,0 9.5,4.254 9.5,9.5 z"
         id="path162" />
      <path
         style="fill:#ff0004;stroke:#000000;stroke-width:2"
         inkscape:connector-curvature="0"
         d="m 999.008,486.7 c 0,5.247 -4.253,9.5 -9.5,9.5 -5.247,0 -9.5,-4.253 -9.5,-9.5 0,-5.246 4.253,-9.5 9.5,-9.5 5.247,0 9.5,4.254 9.5,9.5 z"
         id="path164" />
      <text
         style="font-size:18px;font-family:American Typewriter"
         font-size="18"
         transform="translate(1038.18,488.146)"
         xml:space="preserve"
         id="text166"><tspan
           id="tspan168">...</tspan></text>
      <text
         style="font-size:18px;font-family:American Typewriter"
         font-size="18"
         transform="translate(570.176,488.146)"
         xml:space="preserve"
         id="text170"><tspan
           id="tspan172">...</tspan></text>
      <text
         style="font-size:18px;font-family:American Typewriter"
         font-size="18"
         transform="matrix(0,-1,1,0,670.866,566.68)"
         xml:space="preserve"
         id="text174"><tspan
           id="tspan176">...</tspan></text>
      <text
         style="font-size:18px;font-family:American Typewriter"
         font-size="18"
         transform="matrix(0,-1,1,0,742.866,566.68)"
         xml:space="preserve"
         id="text178"><tspan
           id="tspan180">...</tspan></text>
      <text
         style="font-size:18px;font-family:American Typewriter"
         font-size="18"
         transform="matrix(0,-1,1,0,814.866,566.68)"
         xml:space="preserve"
         id="text182"><tspan
           id="tspan184">...</tspan></text>
      <text
         style="font-size:18px;font-family:American Typewriter"
         font-size="18"
         transform="matrix(0,-1,1,0,886.866,566.68)"
         xml:space="preserve"
         id="text186"><tspan
           id="tspan188">...</tspan></text>
      <text
         style="font-size:18px;font-family:American Typewriter"
         font-size="18"
         transform="matrix(0,-1,1,0,958.866,566.68)"
         xml:space="preserve"
         id="text190"><tspan
           id="tspan192">...</tspan></text>
      <g
         clip-path="url(#7fc874163570)"
         id="g194">
        <clipPath
           id="clipPath4865">
          <path
             style="fill:#000000;fill-opacity:0.35"
             inkscape:connector-curvature="0"
             d="m 927.322,421.134 61.989,0 0,-25.003 -61.989,0 z"
             id="path4867" />
        </clipPath>
        <g
           clip-path="url(#7fc8745733a0)"
           id="g199">
          <clipPath
             id="clipPath4870">
            <path
               style="fill:#000000;fill-opacity:0.35"
               inkscape:connector-curvature="0"
               d="m 927.322,421.134 62,0 0,-25 -62,0 z"
               id="path4872" />
          </clipPath>
          <path
             style="fill:#ff0000"
             inkscape:connector-curvature="0"
             d="m 928.52,397.516 c 0,-0.426 0,-0.852 -0.479,-0.852 -0.479,0 -0.479,0.426 -0.479,0.852 l 0,22.127 c 0,0.426 0,0.852 0.479,0.852 0.479,0 0.479,-0.426 0.479,-0.852 l 0,-22.127"
             id="path204" />
          <path
             style="fill:#ff0000"
             inkscape:connector-curvature="0"
             d="m 942.393,406.915 c 0,-1.917 -0.133,-3.834 -0.959,-5.592 -1.091,-2.29 -3.062,-2.662 -4.047,-2.662 -1.438,0 -3.169,0.612 -4.154,2.822 -0.772,1.651 -0.879,3.515 -0.879,5.432 0,1.784 0.08,3.914 1.066,5.725 1.038,1.944 2.769,2.423 3.94,2.423 1.279,0 3.089,-0.506 4.154,-2.769 0.746,-1.651 0.879,-3.515 0.879,-5.379 z m -5.033,7.616 c -0.932,0 -2.343,-0.586 -2.769,-2.876 -0.266,-1.438 -0.266,-3.622 -0.266,-5.033 0,-1.518 0,-3.089 0.186,-4.393 0.453,-2.823 2.264,-3.036 2.849,-3.036 0.773,0 2.37,0.426 2.823,2.769 0.24,1.332 0.24,3.142 0.24,4.66 0,1.784 0,3.409 -0.267,4.926 -0.372,2.264 -1.73,2.983 -2.796,2.983"
             id="path206" />
          <path
             style="fill:#ff0000"
             inkscape:connector-curvature="0"
             d="m 949.822,408.992 c 0.133,-0.293 0.133,-0.346 0.133,-0.426 0,-0.053 0,-0.107 -0.133,-0.399 l -4.154,-10.971 c -0.16,-0.399 -0.293,-0.532 -0.559,-0.532 -0.266,0 -0.479,0.213 -0.479,0.479 0,0.053 0,0.106 0.133,0.373 l 4.207,11.05 -4.207,11.024 c -0.133,0.266 -0.133,0.319 -0.133,0.426 0,0.266 0.213,0.479 0.479,0.479 0.32,0 0.399,-0.24 0.506,-0.479 l 4.207,-11.024"
             id="path208" />
          <path
             style="fill:#ff0000"
             inkscape:connector-curvature="0"
             d="m 957.464,414.504 c 0,-1.571 -0.586,-2.503 -1.518,-2.503 -0.798,0 -1.278,0.612 -1.278,1.278 0,0.639 0.48,1.252 1.278,1.252 0.267,0 0.586,-0.08 0.826,-0.293 0.08,-0.054 0.08,-0.08 0.106,-0.08 0.027,0 0.054,0.026 0.054,0.346 0,1.784 -0.826,3.195 -1.625,3.994 -0.266,0.266 -0.266,0.293 -0.266,0.373 0,0.16 0.133,0.266 0.24,0.266 0.266,0 2.183,-1.837 2.183,-4.633"
             id="path210" />
          <path
             style="fill:#ff0000"
             inkscape:connector-curvature="0"
             d="m 967.103,397.516 c 0,-0.426 0,-0.852 -0.479,-0.852 -0.453,0 -0.453,0.426 -0.453,0.852 l 0,22.127 c 0,0.426 0,0.852 0.453,0.852 0.479,0 0.479,-0.426 0.479,-0.852 l 0,-22.127"
             id="path212" />
          <path
             style="fill:#ff0000"
             inkscape:connector-curvature="0"
             d="m 976.929,399.273 c 0,-0.559 0,-0.612 -0.559,-0.612 -1.465,1.517 -3.568,1.517 -4.314,1.517 l 0,0.746 c 0.453,0 1.864,0 3.115,-0.613 l 0,12.329 c 0,0.879 -0.079,1.145 -2.21,1.145 l -0.772,0 0,0.746 c 0.826,-0.08 2.903,-0.08 3.861,-0.08 0.959,0 3.036,0 3.861,0.08 l 0,-0.746 -0.772,0 c -2.13,0 -2.21,-0.24 -2.21,-1.145 l 0,-13.367"
             id="path214" />
          <path
             style="fill:#ff0000"
             inkscape:connector-curvature="0"
             d="m 988.432,408.992 c 0.106,-0.293 0.106,-0.346 0.106,-0.426 0,-0.053 0,-0.107 -0.106,-0.399 l -4.181,-10.971 c -0.133,-0.399 -0.266,-0.532 -0.532,-0.532 -0.266,0 -0.479,0.213 -0.479,0.479 0,0.053 0,0.106 0.106,0.373 l 4.234,11.05 -4.234,11.024 c -0.106,0.266 -0.106,0.319 -0.106,0.426 0,0.266 0.213,0.479 0.479,0.479 0.293,0 0.399,-0.24 0.506,-0.479 l 4.207,-11.024"
             id="path216" />
        </g>
      </g>
      <g
         clip-path="url(#7fc874538f30)"
         id="g218">
        <clipPath
           id="clipPath4882">
          <path
             style="fill:#000000;fill-opacity:0.35"
             inkscape:connector-curvature="0"
             d="m 904.798,467.851 21.009,0 0,-16.004 -21.009,0 z"
             id="path4884" />
        </clipPath>
        <g
           clip-path="url(#7fc87413c1a0)"
           id="g223">
          <clipPath
             id="clipPath4887">
            <path
               style="fill:#000000;fill-opacity:0.35"
               inkscape:connector-curvature="0"
               d="m 904.798,467.851 21,0 0,-16 -21,0 z"
               id="path4889" />
          </clipPath>
          <path
             style="fill:#ff0000"
             inkscape:connector-curvature="0"
             d="m 905.677,456.401 c 0.932,-2.743 3.514,-2.77 3.781,-2.77 3.621,0 3.861,4.181 3.861,6.045 0,1.464 -0.107,1.864 -0.267,2.343 -0.532,1.731 -1.251,4.5 -1.251,5.139 0,0.24 0.133,0.426 0.319,0.426 0.293,0 0.506,-0.532 0.746,-1.438 0.559,-1.997 0.799,-3.355 0.879,-4.1 0.053,-0.32 0.106,-0.613 0.213,-0.932 0.745,-2.37 2.29,-5.912 3.222,-7.802 0.186,-0.266 0.452,-0.799 0.452,-0.905 0,-0.24 -0.239,-0.24 -0.266,-0.24 -0.08,0 -0.213,0 -0.293,0.186 -1.251,2.264 -2.183,4.634 -3.142,7.057 -0.027,-0.746 -0.053,-2.557 -0.985,-4.873 -0.559,-1.465 -1.518,-2.636 -3.169,-2.636 -2.982,0 -4.66,3.648 -4.66,4.367 0,0.239 0.213,0.239 0.453,0.239 l 0.107,-0.106"
             id="path228" />
          <path
             style="fill:#ff0000"
             inkscape:connector-curvature="0"
             d="m 919.709,456.667 c 0.852,0.213 1.358,0.213 1.625,0.213 2.21,0 3.541,-1.518 3.541,-1.757 0,-0.187 -0.133,-0.24 -0.213,-0.24 -0.027,0 -0.053,0 -0.133,0.053 -0.4,0.16 -1.305,0.479 -2.53,0.479 -0.479,0 -1.384,-0.026 -2.476,-0.452 -0.16,-0.08 -0.187,-0.08 -0.213,-0.08 -0.213,0 -0.213,0.186 -0.213,0.453 l 0,4.952 c 0,0.293 0,0.506 0.266,0.506 0.16,0 0.16,-0.026 0.346,-0.239 0.719,-0.932 1.731,-1.065 2.343,-1.065 0.986,0 1.438,0.798 1.545,0.958 0.293,0.533 0.399,1.172 0.399,2.157 0,0.506 0,1.491 -0.506,2.237 -0.426,0.612 -1.145,1.011 -1.97,1.011 -1.092,0 -2.21,-0.612 -2.636,-1.73 0.639,0.053 0.958,-0.346 0.958,-0.826 0,-0.719 -0.639,-0.852 -0.852,-0.852 -0.026,0 -0.825,0 -0.825,0.905 0,1.518 1.358,3.036 3.382,3.036 2.156,0 4.047,-1.598 4.047,-3.701 0,-1.917 -1.465,-3.648 -3.542,-3.648 -0.745,0 -1.624,0.16 -2.343,0.799 l 0,-3.169"
             id="path230" />
        </g>
      </g>
      <g
         clip-path="url(#7fc874111c70)"
         id="g232">
        <clipPath
           id="clipPath4894">
          <path
             style="fill:#000000;fill-opacity:0.35"
             inkscape:connector-curvature="0"
             d="m 980.103,467.851 21.007,0 0,-16.004 -21.007,0 z"
             id="path4896" />
        </clipPath>
        <g
           clip-path="url(#7fc8745566f0)"
           id="g237">
          <clipPath
             id="clipPath4899">
            <path
               style="fill:#000000;fill-opacity:0.35"
               inkscape:connector-curvature="0"
               d="m 980.103,467.851 20.997,0 0,-16 -20.997,0 z"
               id="path4901" />
          </clipPath>
          <path
             style="fill:#ff0000"
             inkscape:connector-curvature="0"
             d="m 980.981,456.401 c 0.932,-2.743 3.515,-2.77 3.782,-2.77 3.621,0 3.86,4.181 3.86,6.045 0,1.464 -0.106,1.864 -0.266,2.343 -0.532,1.731 -1.251,4.5 -1.251,5.139 0,0.24 0.133,0.426 0.319,0.426 0.293,0 0.506,-0.532 0.746,-1.438 0.559,-1.997 0.799,-3.355 0.879,-4.1 0.053,-0.32 0.106,-0.613 0.213,-0.932 0.745,-2.37 2.29,-5.912 3.221,-7.802 0.187,-0.266 0.453,-0.799 0.453,-0.905 0,-0.24 -0.239,-0.24 -0.266,-0.24 -0.08,0 -0.213,0 -0.293,0.186 -1.252,2.264 -2.183,4.634 -3.142,7.057 -0.027,-0.746 -0.053,-2.557 -0.985,-4.873 -0.559,-1.465 -1.518,-2.636 -3.169,-2.636 -2.982,0 -4.66,3.648 -4.66,4.367 0,0.239 0.213,0.239 0.453,0.239 l 0.106,-0.106"
             id="path242" />
          <path
             style="fill:#ff0000"
             inkscape:connector-curvature="0"
             d="m 994.934,460.555 c 0,-1.385 0.107,-2.637 0.746,-3.648 0.586,-0.906 1.491,-1.545 2.556,-1.545 0.506,0 1.172,0.16 1.518,0.613 -0.426,0.026 -0.772,0.319 -0.772,0.798 0,0.427 0.292,0.799 0.772,0.799 0.506,0 0.826,-0.346 0.826,-0.825 0,-0.985 -0.72,-1.864 -2.371,-1.864 -2.423,0 -4.899,2.237 -4.899,5.831 0,4.367 2.05,5.672 3.914,5.672 2.05,0 3.806,-1.571 3.806,-3.754 0,-2.157 -1.676,-3.728 -3.646,-3.728 -1.358,0 -2.077,0.905 -2.45,1.651 z m 2.264,5.298 c -0.826,0 -1.492,-0.505 -1.838,-1.224 -0.239,-0.506 -0.373,-1.358 -0.373,-2.37 0,-1.624 0.959,-2.876 2.317,-2.876 0.772,0 1.278,0.293 1.704,0.905 0.4,0.639 0.426,1.358 0.426,2.344 0,0.958 0,1.65 -0.452,2.316 -0.4,0.586 -0.959,0.905 -1.784,0.905"
             id="path244" />
        </g>
      </g>
      <g
         clip-path="url(#7fc874582080)"
         id="g246">
        <clipPath
           id="clipPath4906">
          <path
             style="fill:#000000;fill-opacity:0.35"
             inkscape:connector-curvature="0"
             d="m 1000.83,430.752 0,10.012 -90.723,0 0,-10.012 z"
             id="path4908" />
        </clipPath>
        <g
           clip-path="url(#7fc8745832e0)"
           id="g251">
          <clipPath
             id="clipPath4911">
            <path
               style="fill:#000000;fill-opacity:0.35"
               inkscape:connector-curvature="0"
               d="m 1000.83,431.752 0,9 -90.711,0 0,-9 z"
               id="path4913" />
          </clipPath>
          <path
             style="fill:#ff0000"
             inkscape:connector-curvature="0"
             d="m 923.536,436.797 c -3.478,0 -8.985,0.612 -9.661,3.222 -0.096,0.106 -0.386,0.213 -0.966,0.213 -0.869,0 -0.869,-0.187 -0.869,-0.453 0,-2.37 4.347,-4.553 10.82,-4.58 l 19.709,0 c 3.382,0 6.087,0 8.985,-0.958 2.512,-0.826 2.609,-1.731 2.705,-2.264 0.097,-0.106 0.483,-0.213 0.966,-0.213 0.87,0 0.87,0.16 0.966,0.4 0.387,1.571 3.479,2.716 7.729,2.955 0.967,0.08 1.063,0.08 4.251,0.08 l 17.101,0 c 3.671,0 6.376,0 9.661,1.145 2.609,0.932 3.575,2.503 3.575,3.435 0,0.266 0,0.453 -0.966,0.453 -0.87,0 -0.87,-0.133 -0.966,-0.373 -0.29,-1.518 -3.092,-2.689 -7.536,-2.982 -0.773,-0.08 -0.966,-0.08 -4.058,-0.08 l -18.163,0 c -3.961,0 -5.41,-0.187 -8.212,-0.959 -1.836,-0.506 -2.705,-1.171 -3.382,-1.864 -1.932,1.971 -5.99,2.823 -10.917,2.823 l -20.772,0"
             id="path256" />
        </g>
      </g>
      <g
         clip-path="url(#7fc8745707d0)"
         id="g258">
        <clipPath
           id="clipPath4917">
          <path
             style="fill:#000000;fill-opacity:0.35"
             inkscape:connector-curvature="0"
             d="m 856.763,430.752 0,10.012 -92.333,0 0,-10.012 z"
             id="path4919" />
        </clipPath>
        <g
           clip-path="url(#7fc874569980)"
           id="g263">
          <clipPath
             id="clipPath4922">
            <path
               style="fill:#000000;fill-opacity:0.35"
               inkscape:connector-curvature="0"
               d="m 856.763,431.752 0,9 -92.321,0 0,-9 z"
               id="path4924" />
          </clipPath>
          <path
             style="fill:#0000ff"
             inkscape:connector-curvature="0"
             d="m 778.098,436.797 c -3.54,0 -9.145,0.612 -9.833,3.222 -0.099,0.106 -0.394,0.213 -0.984,0.213 -0.884,0 -0.884,-0.187 -0.884,-0.453 0,-2.37 4.424,-4.553 11.013,-4.58 l 20.059,0 c 3.442,0 6.195,0 9.145,-0.958 2.557,-0.826 2.655,-1.731 2.753,-2.264 0.098,-0.106 0.492,-0.213 0.983,-0.213 0.886,0 0.886,0.16 0.984,0.4 0.393,1.571 3.54,2.716 7.866,2.955 0.984,0.08 1.082,0.08 4.327,0.08 l 17.404,0 c 3.737,0 6.49,0 9.834,1.145 2.655,0.932 3.638,2.503 3.638,3.435 0,0.266 0,0.453 -0.983,0.453 -0.885,0 -0.885,-0.133 -0.984,-0.373 -0.295,-1.518 -3.146,-2.689 -7.67,-2.982 -0.786,-0.08 -0.983,-0.08 -4.13,-0.08 l -18.486,0 c -4.031,0 -5.506,-0.187 -8.358,-0.959 -1.868,-0.506 -2.753,-1.171 -3.442,-1.864 -1.966,1.971 -6.096,2.823 -11.111,2.823 l -21.141,0"
             id="path268" />
        </g>
      </g>
      <g
         clip-path="url(#7fc874539170)"
         id="g270">
        <clipPath
           id="clipPath4928">
          <path
             style="fill:#000000;fill-opacity:0.35"
             inkscape:connector-curvature="0"
             d="m 779.262,421.134 61.989,0 0,-25.003 -61.989,0 z"
             id="path4930" />
        </clipPath>
        <g
           clip-path="url(#7fc874567c90)"
           id="g275">
          <clipPath
             id="clipPath4933">
            <path
               style="fill:#000000;fill-opacity:0.35"
               inkscape:connector-curvature="0"
               d="m 779.262,421.134 62,0 0,-25 -62,0 z"
               id="path4935" />
          </clipPath>
          <path
             style="fill:#0000ff"
             inkscape:connector-curvature="0"
             d="m 780.46,397.516 c 0,-0.426 0,-0.852 -0.479,-0.852 -0.479,0 -0.479,0.426 -0.479,0.852 l 0,22.127 c 0,0.426 0,0.852 0.479,0.852 0.479,0 0.479,-0.426 0.479,-0.852 l 0,-22.127"
             id="path280" />
          <path
             style="fill:#0000ff"
             inkscape:connector-curvature="0"
             d="m 794.333,406.915 c 0,-1.917 -0.133,-3.834 -0.959,-5.592 -1.091,-2.29 -3.062,-2.662 -4.047,-2.662 -1.438,0 -3.169,0.612 -4.154,2.822 -0.772,1.651 -0.879,3.515 -0.879,5.432 0,1.784 0.08,3.914 1.066,5.725 1.038,1.944 2.769,2.423 3.94,2.423 1.279,0 3.089,-0.506 4.154,-2.769 0.746,-1.651 0.879,-3.515 0.879,-5.379 z m -5.033,7.616 c -0.932,0 -2.343,-0.586 -2.769,-2.876 -0.266,-1.438 -0.266,-3.622 -0.266,-5.033 0,-1.518 0,-3.089 0.186,-4.393 0.453,-2.823 2.264,-3.036 2.849,-3.036 0.773,0 2.37,0.426 2.823,2.769 0.24,1.332 0.24,3.142 0.24,4.66 0,1.784 0,3.409 -0.267,4.926 -0.372,2.264 -1.73,2.983 -2.796,2.983"
             id="path282" />
          <path
             style="fill:#0000ff"
             inkscape:connector-curvature="0"
             d="m 801.762,408.992 c 0.133,-0.293 0.133,-0.346 0.133,-0.426 0,-0.053 0,-0.107 -0.133,-0.399 l -4.154,-10.971 c -0.16,-0.399 -0.293,-0.532 -0.559,-0.532 -0.266,0 -0.479,0.213 -0.479,0.479 0,0.053 0,0.106 0.133,0.373 l 4.207,11.05 -4.207,11.024 c -0.133,0.266 -0.133,0.319 -0.133,0.426 0,0.266 0.213,0.479 0.479,0.479 0.32,0 0.399,-0.24 0.506,-0.479 l 4.207,-11.024"
             id="path284" />
          <path
             style="fill:#0000ff"
             inkscape:connector-curvature="0"
             d="m 809.404,414.504 c 0,-1.571 -0.586,-2.503 -1.518,-2.503 -0.798,0 -1.278,0.612 -1.278,1.278 0,0.639 0.48,1.252 1.278,1.252 0.267,0 0.586,-0.08 0.826,-0.293 0.08,-0.054 0.08,-0.08 0.106,-0.08 0.027,0 0.054,0.026 0.054,0.346 0,1.784 -0.826,3.195 -1.625,3.994 -0.266,0.266 -0.266,0.293 -0.266,0.373 0,0.16 0.133,0.266 0.24,0.266 0.266,0 2.183,-1.837 2.183,-4.633"
             id="path286" />
          <path
             style="fill:#0000ff"
             inkscape:connector-curvature="0"
             d="m 819.043,397.516 c 0,-0.426 0,-0.852 -0.479,-0.852 -0.453,0 -0.453,0.426 -0.453,0.852 l 0,22.127 c 0,0.426 0,0.852 0.453,0.852 0.479,0 0.479,-0.426 0.479,-0.852 l 0,-22.127"
             id="path288" />
          <path
             style="fill:#0000ff"
             inkscape:connector-curvature="0"
             d="m 828.869,399.273 c 0,-0.559 0,-0.612 -0.559,-0.612 -1.465,1.517 -3.568,1.517 -4.314,1.517 l 0,0.746 c 0.453,0 1.864,0 3.115,-0.613 l 0,12.329 c 0,0.879 -0.079,1.145 -2.21,1.145 l -0.772,0 0,0.746 c 0.826,-0.08 2.903,-0.08 3.861,-0.08 0.959,0 3.036,0 3.861,0.08 l 0,-0.746 -0.772,0 c -2.13,0 -2.21,-0.24 -2.21,-1.145 l 0,-13.367"
             id="path290" />
          <path
             style="fill:#0000ff"
             inkscape:connector-curvature="0"
             d="m 840.372,408.992 c 0.106,-0.293 0.106,-0.346 0.106,-0.426 0,-0.053 0,-0.107 -0.106,-0.399 l -4.181,-10.971 c -0.133,-0.399 -0.266,-0.532 -0.532,-0.532 -0.266,0 -0.479,0.213 -0.479,0.479 0,0.053 0,0.106 0.106,0.373 l 4.234,11.05 -4.234,11.024 c -0.106,0.266 -0.106,0.319 -0.106,0.426 0,0.266 0.213,0.479 0.479,0.479 0.293,0 0.399,-0.24 0.506,-0.479 l 4.207,-11.024"
             id="path292" />
        </g>
      </g>
      <g
         clip-path="url(#7fc874541480)"
         id="g294">
        <clipPath
           id="clipPath4945">
          <path
             style="fill:#000000;fill-opacity:0.35"
             inkscape:connector-curvature="0"
             d="m 763.097,467.851 21.009,0 0,-16.004 -21.009,0 z"
             id="path4947" />
        </clipPath>
        <g
           clip-path="url(#7fc87416c0f0)"
           id="g299">
          <clipPath
             id="clipPath4950">
            <path
               style="fill:#000000;fill-opacity:0.35"
               inkscape:connector-curvature="0"
               d="m 763.097,467.851 21,0 0,-16 -21,0 z"
               id="path4952" />
          </clipPath>
          <path
             style="fill:#0000ff"
             inkscape:connector-curvature="0"
             d="m 763.976,456.401 c 0.932,-2.743 3.515,-2.77 3.781,-2.77 3.621,0 3.861,4.181 3.861,6.045 0,1.464 -0.107,1.864 -0.266,2.343 -0.533,1.731 -1.252,4.5 -1.252,5.139 0,0.24 0.133,0.426 0.32,0.426 0.293,0 0.506,-0.532 0.745,-1.438 0.559,-1.997 0.799,-3.355 0.879,-4.1 0.053,-0.32 0.106,-0.613 0.213,-0.932 0.745,-2.37 2.29,-5.912 3.222,-7.802 0.186,-0.266 0.452,-0.799 0.452,-0.905 0,-0.24 -0.239,-0.24 -0.266,-0.24 -0.08,0 -0.213,0 -0.293,0.186 -1.251,2.264 -2.183,4.634 -3.142,7.057 -0.026,-0.746 -0.053,-2.557 -0.985,-4.873 -0.559,-1.465 -1.518,-2.636 -3.169,-2.636 -2.982,0 -4.659,3.648 -4.659,4.367 0,0.239 0.213,0.239 0.452,0.239 l 0.107,-0.106"
             id="path304" />
          <path
             style="fill:#0000ff"
             inkscape:connector-curvature="0"
             d="m 779.979,460.448 c 1.331,0 2.263,0.905 2.263,2.689 0,2.077 -1.225,2.716 -2.183,2.716 -0.666,0 -2.157,-0.186 -2.876,-1.171 0.799,-0.053 0.985,-0.613 0.985,-0.959 0,-0.532 -0.399,-0.905 -0.932,-0.905 -0.452,0 -0.932,0.266 -0.932,0.959 0,1.597 1.758,2.609 3.781,2.609 2.344,0 3.941,-1.571 3.941,-3.249 0,-1.304 -1.065,-2.609 -2.902,-3.008 1.757,-0.639 2.396,-1.891 2.396,-2.929 0,-1.332 -1.544,-2.317 -3.408,-2.317 -1.864,0 -3.275,0.905 -3.275,2.263 0,0.559 0.346,0.879 0.852,0.879 0.532,0 0.879,-0.373 0.879,-0.852 0,-0.479 -0.347,-0.852 -0.879,-0.879 0.612,-0.745 1.757,-0.905 2.37,-0.905 0.772,0 1.837,0.346 1.837,1.811 0,0.718 -0.24,1.491 -0.692,1.997 -0.533,0.639 -1.012,0.692 -1.864,0.745 -0.426,0.027 -0.453,0.027 -0.533,0.053 -0.026,0 -0.159,0.027 -0.159,0.213 0,0.24 0.133,0.24 0.426,0.24 l 0.905,0"
             id="path306" />
        </g>
      </g>
      <g
         clip-path="url(#7fc8745a08d0)"
         id="g308">
        <clipPath
           id="clipPath4957">
          <path
             style="fill:#000000;fill-opacity:0.35"
             inkscape:connector-curvature="0"
             d="m 833.36,467.851 21.941,0 0,-16.004 -21.941,0 z"
             id="path4959" />
        </clipPath>
        <g
           clip-path="url(#7fc87457d640)"
           id="g313">
          <clipPath
             id="clipPath4962">
            <path
               style="fill:#000000;fill-opacity:0.35"
               inkscape:connector-curvature="0"
               d="m 833.36,467.851 22,0 0,-16 -22,0 z"
               id="path4964" />
          </clipPath>
          <path
             style="fill:#0000ff"
             inkscape:connector-curvature="0"
             d="m 834.239,456.401 c 0.932,-2.743 3.514,-2.77 3.781,-2.77 3.621,0 3.861,4.181 3.861,6.045 0,1.464 -0.107,1.864 -0.267,2.343 -0.532,1.731 -1.251,4.5 -1.251,5.139 0,0.24 0.133,0.426 0.319,0.426 0.293,0 0.506,-0.532 0.746,-1.438 0.559,-1.997 0.799,-3.355 0.879,-4.1 0.053,-0.32 0.106,-0.613 0.213,-0.932 0.745,-2.37 2.29,-5.912 3.222,-7.802 0.186,-0.266 0.452,-0.799 0.452,-0.905 0,-0.24 -0.239,-0.24 -0.266,-0.24 -0.08,0 -0.213,0 -0.293,0.186 -1.251,2.264 -2.183,4.634 -3.142,7.057 -0.026,-0.746 -0.053,-2.557 -0.985,-4.873 -0.559,-1.465 -1.518,-2.636 -3.169,-2.636 -2.982,0 -4.66,3.648 -4.66,4.367 0,0.239 0.213,0.239 0.453,0.239 l 0.107,-0.106"
             id="path318" />
          <path
             style="fill:#0000ff"
             inkscape:connector-curvature="0"
             d="m 854.555,463.297 0,-0.612 -1.864,0 0,-7.483 c 0,-0.372 0,-0.479 -0.372,-0.479 -0.213,0 -0.267,0 -0.426,0.24 l -5.566,7.722 0,0.612 4.927,0 0,1.385 c 0,0.559 0,0.772 -1.358,0.772 l -0.453,0 0,0.586 c 0.852,-0.027 1.917,-0.053 2.53,-0.053 0.612,0 1.677,0.026 2.529,0.053 l 0,-0.586 -0.453,0 c -1.358,0 -1.358,-0.213 -1.358,-0.772 l 0,-1.385 1.864,0 z m -3.168,-6.763 0,6.151 -4.447,0 4.447,-6.151"
             id="path320" />
        </g>
      </g>
      <g
         clip-path="url(#7fc87458ae20)"
         id="g322">
        <clipPath
           id="clipPath4969">
          <path
             style="fill:#000000;fill-opacity:0.35"
             inkscape:connector-curvature="0"
             d="m 691.872,467.851 21.009,0 0,-16.004 -21.009,0 z"
             id="path4971" />
        </clipPath>
        <g
           clip-path="url(#7fc874576a70)"
           id="g327">
          <clipPath
             id="clipPath4974">
            <path
               style="fill:#000000;fill-opacity:0.35"
               inkscape:connector-curvature="0"
               d="m 691.872,467.851 21,0 0,-16 -21,0 z"
               id="path4976" />
          </clipPath>
          <path
             style="fill:#fdbb43"
             inkscape:connector-curvature="0"
             d="m 692.751,456.401 c 0.932,-2.743 3.515,-2.77 3.781,-2.77 3.621,0 3.861,4.181 3.861,6.045 0,1.464 -0.107,1.864 -0.266,2.343 -0.533,1.731 -1.252,4.5 -1.252,5.139 0,0.24 0.133,0.426 0.32,0.426 0.293,0 0.506,-0.532 0.745,-1.438 0.559,-1.997 0.799,-3.355 0.879,-4.1 0.053,-0.32 0.106,-0.613 0.213,-0.932 0.746,-2.37 2.29,-5.912 3.222,-7.802 0.186,-0.266 0.453,-0.799 0.453,-0.905 0,-0.24 -0.24,-0.24 -0.267,-0.24 -0.08,0 -0.213,0 -0.293,0.186 -1.251,2.264 -2.183,4.634 -3.142,7.057 -0.026,-0.746 -0.053,-2.557 -0.985,-4.873 -0.559,-1.465 -1.518,-2.636 -3.169,-2.636 -2.982,0 -4.659,3.648 -4.659,4.367 0,0.239 0.213,0.239 0.452,0.239 l 0.107,-0.106"
             id="path332" />
          <path
             style="fill:#fdbb43"
             inkscape:connector-curvature="0"
             d="m 712.668,463.004 -0.586,0 c -0.053,0.346 -0.213,1.358 -0.426,1.518 -0.133,0.107 -1.438,0.107 -1.677,0.107 l -3.089,0 c 1.784,-1.571 2.37,-2.051 3.355,-2.823 1.252,-1.012 2.423,-2.05 2.423,-3.648 0,-2.024 -1.784,-3.275 -3.941,-3.275 -2.077,0 -3.488,1.464 -3.488,3.009 0,0.852 0.719,0.958 0.879,0.958 0.399,0 0.905,-0.292 0.905,-0.905 0,-0.293 -0.133,-0.879 -1.012,-0.879 0.533,-1.198 1.678,-1.571 2.477,-1.571 1.677,0 2.556,1.305 2.556,2.663 0,1.465 -1.065,2.636 -1.598,3.249 l -4.047,3.994 c -0.16,0.133 -0.16,0.186 -0.16,0.639 l 6.923,0 0.506,-3.036"
             id="path334" />
        </g>
      </g>
      <g
         clip-path="url(#7fc87454cbf0)"
         id="g336">
        <clipPath
           id="clipPath4981">
          <path
             style="fill:#000000;fill-opacity:0.35"
             inkscape:connector-curvature="0"
             d="m 619.798,468.334 21.009,0 0,-16.004 -21.009,0 z"
             id="path4983" />
        </clipPath>
        <g
           clip-path="url(#7fc87455c0f0)"
           id="g341">
          <clipPath
             id="clipPath4986">
            <path
               style="fill:#000000;fill-opacity:0.35"
               inkscape:connector-curvature="0"
               d="m 619.798,468.334 21,0 0,-16 -21,0 z"
               id="path4988" />
          </clipPath>
          <path
             style="fill:#fdbb43"
             inkscape:connector-curvature="0"
             d="m 620.677,456.884 c 0.932,-2.743 3.514,-2.77 3.781,-2.77 3.621,0 3.861,4.181 3.861,6.045 0,1.464 -0.107,1.864 -0.267,2.343 -0.532,1.731 -1.251,4.5 -1.251,5.139 0,0.24 0.133,0.426 0.319,0.426 0.293,0 0.506,-0.532 0.746,-1.438 0.559,-1.997 0.799,-3.355 0.879,-4.1 0.053,-0.32 0.106,-0.613 0.213,-0.932 0.745,-2.37 2.29,-5.911 3.222,-7.802 0.186,-0.266 0.452,-0.799 0.452,-0.905 0,-0.24 -0.239,-0.24 -0.266,-0.24 -0.08,0 -0.213,0 -0.293,0.186 -1.251,2.264 -2.183,4.634 -3.142,7.057 -0.027,-0.746 -0.053,-2.557 -0.985,-4.873 -0.559,-1.465 -1.518,-2.636 -3.169,-2.636 -2.982,0 -4.66,3.648 -4.66,4.367 0,0.239 0.213,0.239 0.453,0.239 l 0.107,-0.106"
             id="path346" />
          <path
             style="fill:#fdbb43"
             inkscape:connector-curvature="0"
             d="m 637.718,455.845 c 0,-0.452 -0.026,-0.479 -0.506,-0.479 -1.065,1.065 -2.583,1.092 -3.275,1.092 l 0,0.586 c 0.399,0 1.518,0 2.423,-0.453 l 0,8.574 c 0,0.559 0,0.772 -1.677,0.772 l -0.639,0 0,0.586 c 0.319,0 2.369,-0.053 3.008,-0.053 0.506,0 2.637,0.053 3.009,0.053 l 0,-0.586 -0.639,0 c -1.704,0 -1.704,-0.24 -1.704,-0.772 l 0,-9.32"
             id="path348" />
        </g>
      </g>
      <g
         clip-path="url(#7fc8741df7b0)"
         id="g350">
        <clipPath
           id="clipPath4993">
          <path
             style="fill:#000000;fill-opacity:0.35"
             inkscape:connector-curvature="0"
             d="m 706.638,430.752 0,10.012 -88.516,0 0,-10.012 z"
             id="path4995" />
        </clipPath>
        <g
           clip-path="url(#7fc87415a040)"
           id="g355">
          <clipPath
             id="clipPath4998">
            <path
               style="fill:#000000;fill-opacity:0.35"
               inkscape:connector-curvature="0"
               d="m 706.638,431.752 0,9 -88.504,0 0,-9 z"
               id="path5000" />
          </clipPath>
          <path
             style="fill:#fdbb43"
             inkscape:connector-curvature="0"
             d="m 631.225,436.797 c -3.393,0 -8.766,0.612 -9.426,3.222 -0.094,0.106 -0.377,0.213 -0.943,0.213 -0.848,0 -0.848,-0.187 -0.848,-0.453 0,-2.37 4.242,-4.553 10.558,-4.58 l 19.23,0 c 3.299,0 5.938,0 8.766,-0.958 2.452,-0.826 2.546,-1.731 2.64,-2.264 0.094,-0.106 0.471,-0.213 0.943,-0.213 0.848,0 0.848,0.16 0.942,0.4 0.377,1.571 3.394,2.716 7.542,2.955 0.942,0.08 1.036,0.08 4.147,0.08 l 16.685,0 c 3.582,0 6.222,0 9.427,1.145 2.545,0.932 3.488,2.503 3.488,3.435 0,0.266 0,0.453 -0.943,0.453 -0.848,0 -0.848,-0.133 -0.943,-0.373 -0.282,-1.518 -3.016,-2.689 -7.352,-2.982 -0.754,-0.08 -0.943,-0.08 -3.959,-0.08 l -17.722,0 c -3.865,0 -5.279,-0.187 -8.013,-0.959 -1.791,-0.506 -2.64,-1.171 -3.299,-1.864 -1.886,1.971 -5.845,2.823 -10.653,2.823 l -20.267,0"
             id="path360" />
        </g>
      </g>
      <g
         clip-path="url(#7fc8747bc390)"
         id="g362">
        <clipPath
           id="clipPath5004">
          <path
             style="fill:#000000;fill-opacity:0.35"
             inkscape:connector-curvature="0"
             d="m 640.078,422.456 61.989,0 0,-25.004 -61.989,0 z"
             id="path5006" />
        </clipPath>
        <g
           clip-path="url(#7fc87502fe10)"
           id="g367">
          <clipPath
             id="clipPath5009">
            <path
               style="fill:#000000;fill-opacity:0.35"
               inkscape:connector-curvature="0"
               d="m 640.078,422.456 62,0 0,-25 -62,0 z"
               id="path5011" />
          </clipPath>
          <path
             style="fill:#fdbb43"
             inkscape:connector-curvature="0"
             d="m 641.276,398.837 c 0,-0.426 0,-0.852 -0.479,-0.852 -0.479,0 -0.479,0.426 -0.479,0.852 l 0,22.127 c 0,0.426 0,0.852 0.479,0.852 0.479,0 0.479,-0.426 0.479,-0.852 l 0,-22.127"
             id="path372" />
          <path
             style="fill:#fdbb43"
             inkscape:connector-curvature="0"
             d="m 655.149,408.236 c 0,-1.917 -0.133,-3.834 -0.959,-5.591 -1.091,-2.29 -3.062,-2.663 -4.047,-2.663 -1.438,0 -3.169,0.612 -4.154,2.823 -0.772,1.65 -0.879,3.514 -0.879,5.431 0,1.785 0.08,3.915 1.066,5.725 1.038,1.944 2.769,2.423 3.94,2.423 1.279,0 3.089,-0.505 4.154,-2.769 0.746,-1.651 0.879,-3.515 0.879,-5.379 z m -5.033,7.616 c -0.931,0 -2.343,-0.586 -2.769,-2.876 -0.266,-1.438 -0.266,-3.621 -0.266,-5.032 0,-1.518 0,-3.089 0.186,-4.394 0.453,-2.822 2.264,-3.035 2.849,-3.035 0.773,0 2.37,0.426 2.823,2.769 0.24,1.331 0.24,3.142 0.24,4.66 0,1.784 0,3.408 -0.267,4.926 -0.372,2.263 -1.73,2.982 -2.796,2.982"
             id="path374" />
          <path
             style="fill:#fdbb43"
             inkscape:connector-curvature="0"
             d="m 662.578,410.313 c 0.133,-0.292 0.133,-0.346 0.133,-0.426 0,-0.053 0,-0.106 -0.133,-0.399 l -4.154,-10.971 c -0.16,-0.399 -0.293,-0.532 -0.559,-0.532 -0.266,0 -0.479,0.213 -0.479,0.479 0,0.053 0,0.107 0.133,0.373 l 4.207,11.05 -4.207,11.024 c -0.133,0.266 -0.133,0.32 -0.133,0.426 0,0.266 0.213,0.479 0.479,0.479 0.32,0 0.399,-0.239 0.506,-0.479 l 4.207,-11.024"
             id="path376" />
          <path
             style="fill:#fdbb43"
             inkscape:connector-curvature="0"
             d="m 670.22,415.825 c 0,-1.571 -0.586,-2.503 -1.518,-2.503 -0.798,0 -1.278,0.613 -1.278,1.278 0,0.64 0.48,1.252 1.278,1.252 0.267,0 0.586,-0.08 0.826,-0.293 0.08,-0.053 0.08,-0.08 0.106,-0.08 0.027,0 0.054,0.027 0.054,0.346 0,1.784 -0.826,3.196 -1.625,3.994 -0.266,0.267 -0.266,0.293 -0.266,0.373 0,0.16 0.133,0.266 0.24,0.266 0.266,0 2.183,-1.837 2.183,-4.633"
             id="path378" />
          <path
             style="fill:#fdbb43"
             inkscape:connector-curvature="0"
             d="m 679.859,398.837 c 0,-0.426 0,-0.852 -0.479,-0.852 -0.453,0 -0.453,0.426 -0.453,0.852 l 0,22.127 c 0,0.426 0,0.852 0.453,0.852 0.479,0 0.479,-0.426 0.479,-0.852 l 0,-22.127"
             id="path380" />
          <path
             style="fill:#fdbb43"
             inkscape:connector-curvature="0"
             d="m 689.685,400.594 c 0,-0.559 0,-0.612 -0.559,-0.612 -1.465,1.518 -3.568,1.518 -4.314,1.518 l 0,0.745 c 0.453,0 1.864,0 3.115,-0.612 l 0,12.328 c 0,0.879 -0.079,1.145 -2.21,1.145 l -0.772,0 0,0.746 c 0.826,-0.08 2.903,-0.08 3.861,-0.08 0.959,0 3.036,0 3.861,0.08 l 0,-0.746 -0.772,0 c -2.13,0 -2.21,-0.239 -2.21,-1.145 l 0,-13.367"
             id="path382" />
          <path
             style="fill:#fdbb43"
             inkscape:connector-curvature="0"
             d="m 701.188,410.313 c 0.106,-0.292 0.106,-0.346 0.106,-0.426 0,-0.053 0,-0.106 -0.106,-0.399 l -4.181,-10.971 c -0.133,-0.399 -0.266,-0.532 -0.532,-0.532 -0.266,0 -0.479,0.213 -0.479,0.479 0,0.053 0,0.107 0.106,0.373 l 4.234,11.05 -4.234,11.024 c -0.106,0.266 -0.106,0.32 -0.106,0.426 0,0.266 0.213,0.479 0.479,0.479 0.293,0 0.399,-0.239 0.506,-0.479 l 4.207,-11.024"
             id="path384" />
        </g>
      </g>
    </g>
  </g>
</svg>
