<?xml version="1.0" encoding="UTF-8" standalone="no"?>
<!-- Created with Inkscape (http://www.inkscape.org/) -->

<svg
   xmlns:dc="http://purl.org/dc/elements/1.1/"
   xmlns:cc="http://creativecommons.org/ns#"
   xmlns:rdf="http://www.w3.org/1999/02/22-rdf-syntax-ns#"
   xmlns:svg="http://www.w3.org/2000/svg"
   xmlns="http://www.w3.org/2000/svg"
   xmlns:sodipodi="http://sodipodi.sourceforge.net/DTD/sodipodi-0.dtd"
   xmlns:inkscape="http://www.inkscape.org/namespaces/inkscape"
   width="899.63593"
   height="708.99475"
   id="svg5587"
   version="1.1"
   inkscape:version="0.48.4 r9939"
   sodipodi:docname="New document 14">
  <defs
     id="defs5589">
    <clipPath
       id="7fc874753fe0">
      <path
         style="fill:#000000;fill-opacity:0.35"
         inkscape:connector-curvature="0"
         d="m 281.066,848.676 66.399,0 0,-29.609 -66.399,0 z"
         id="path591" />
    </clipPath>
    <clipPath
       id="7fc8742e8220">
      <path
         style="fill:#000000;fill-opacity:0.35"
         inkscape:connector-curvature="0"
         d="m 281.066,848.676 66.4,0 0,-29.6 -66.4,0 z"
         id="path596" />
    </clipPath>
    <clipPath
       id="7fc874796bb0">
      <path
         style="fill:#000000;fill-opacity:0.35"
         inkscape:connector-curvature="0"
         d="m 277.223,1279.18 12.802,0 0,-20.62 -12.802,0 z"
         id="path609" />
    </clipPath>
    <clipPath
       id="7fc87421f540">
      <path
         style="fill:#000000;fill-opacity:0.35"
         inkscape:connector-curvature="0"
         d="m 277.223,1279.35 12.8,0 0,-20.8 -12.8,0 z"
         id="path614" />
    </clipPath>
    <clipPath
       id="7fc87434a610">
      <path
         style="fill:#000000;fill-opacity:0.35"
         inkscape:connector-curvature="0"
         d="m 228.196,1170.48 79.201,0 0,-34.41 -79.201,0 z"
         id="path697" />
    </clipPath>
    <clipPath
       id="7fc8743e4560">
      <path
         style="fill:#000000;fill-opacity:0.35"
         inkscape:connector-curvature="0"
         d="m 228.196,1170.48 79.2,0 0,-34.4 -79.2,0 z"
         id="path702" />
    </clipPath>
    <clipPath
       id="7fc8751eb790">
      <path
         style="fill:#000000;fill-opacity:0.35"
         inkscape:connector-curvature="0"
         d="m 205.51,1395.41 102.398,0 0,-34.4 -102.398,0 z"
         id="path719" />
    </clipPath>
    <clipPath
       id="7fc87511af60">
      <path
         style="fill:#000000;fill-opacity:0.35"
         inkscape:connector-curvature="0"
         d="m 205.51,1395.41 102.4,0 0,-34.4 -102.4,0 z"
         id="path724" />
    </clipPath>
  </defs>
  <sodipodi:namedview
     id="base"
     pagecolor="#ffffff"
     bordercolor="#666666"
     borderopacity="1.0"
     inkscape:pageopacity="0.0"
     inkscape:pageshadow="2"
     inkscape:zoom="0.86377106"
     inkscape:cx="741.98292"
     inkscape:cy="280.4794"
     inkscape:document-units="px"
     inkscape:current-layer="layer1"
     showgrid="false"
     fit-margin-top="0"
     fit-margin-left="0"
     fit-margin-right="0"
     fit-margin-bottom="0"
     inkscape:window-width="1855"
     inkscape:window-height="1056"
     inkscape:window-x="65"
     inkscape:window-y="24"
     inkscape:window-maximized="1" />
  <metadata
     id="metadata5592">
    <rdf:RDF>
      <cc:Work
         rdf:about="">
        <dc:format>image/svg+xml</dc:format>
        <dc:type
           rdf:resource="http://purl.org/dc/dcmitype/StillImage" />
        <dc:title></dc:title>
      </cc:Work>
    </rdf:RDF>
  </metadata>
  <g
     inkscape:label="Layer 1"
     inkscape:groupmode="layer"
     id="layer1"
     transform="translate(369.93568,-97.66574)">
    <g
       transform="translate(-485.15993,-721.93326)"
       id="g528">
      <path
         style="fill:#ffffff;fill-opacity:0.01000001;stroke:#000000;stroke-width:2;stroke-dasharray:2"
         inkscape:connector-curvature="0"
         d="m 628.387,1460.12 c 0,-2.43 -10.375,-4.4 -23.174,-4.4 -12.798,0 -23.173,1.97 -23.173,4.4 0,2.43 10.375,4.4 23.173,4.4 12.799,0 23.174,-1.97 23.174,-4.4 z"
         id="path530" />
      <path
         style="fill:#ffffff;fill-opacity:0.01000001;stroke:#000000;stroke-width:2;stroke-dasharray:2"
         inkscape:connector-curvature="0"
         d="m 582.04,1459.27 c 0,-11.97 10.271,-21.68 22.941,-21.68 12.67,0 22.942,9.71 22.942,21.68"
         id="path532" />
      <g
         id="g534">
        <path
           style="fill:#ffffff;fill-opacity:0.01000001;stroke:#000000;stroke-width:2;stroke-dasharray:2"
           inkscape:connector-curvature="0"
           d="m 399.277,1162.69 c 0,-11.97 10.271,-21.68 22.941,-21.68 12.67,0 22.942,9.71 22.942,21.68"
           id="path536" />
        <path
           style="fill:#ffffff;fill-opacity:0.01000001;stroke:#000000;stroke-width:2;stroke-dasharray:2"
           inkscape:connector-curvature="0"
           d="m 445.624,1163.54 c 0,-2.44 -10.375,-4.4 -23.174,-4.4 -12.798,0 -23.173,1.96 -23.173,4.4 0,2.43 10.375,4.4 23.173,4.4 12.799,0 23.174,-1.97 23.174,-4.4 z"
           id="path538" />
      </g>
      <g
         id="g540">
        <path
           style="fill:#ffffff;fill-opacity:0.01000001;stroke:#000000;stroke-width:2;stroke-dasharray:2"
           inkscape:connector-curvature="0"
           d="m 399.277,1277.89 c 0,-11.97 10.271,-21.68 22.941,-21.68 12.67,0 22.942,9.71 22.942,21.68"
           id="path542" />
        <path
           style="fill:#ffffff;fill-opacity:0.01000001;stroke:#000000;stroke-width:2;stroke-dasharray:2"
           inkscape:connector-curvature="0"
           d="m 445.624,1278.74 c 0,-2.44 -10.375,-4.4 -23.174,-4.4 -12.798,0 -23.173,1.96 -23.173,4.4 0,2.43 10.375,4.4 23.173,4.4 12.799,0 23.174,-1.97 23.174,-4.4 z"
           id="path544" />
      </g>
      <g
         id="g546">
        <path
           style="fill:#ffffff;fill-opacity:0.01000001;stroke:#000000;stroke-width:2;stroke-dasharray:2"
           inkscape:connector-curvature="0"
           d="m 399.277,1508.29 c 0,-11.97 10.271,-21.68 22.941,-21.68 12.67,0 22.942,9.71 22.942,21.68"
           id="path548" />
        <path
           style="fill:#ffffff;fill-opacity:0.01000001;stroke:#000000;stroke-width:2;stroke-dasharray:2"
           inkscape:connector-curvature="0"
           d="m 445.624,1509.14 c 0,-2.44 -10.375,-4.4 -23.174,-4.4 -12.798,0 -23.173,1.96 -23.173,4.4 0,2.43 10.375,4.4 23.173,4.4 12.799,0 23.174,-1.97 23.174,-4.4 z"
           id="path550" />
      </g>
      <path
         style="fill:#c9c9c9;fill-opacity:0.42000002;stroke:#000000;stroke-width:2;stroke-dasharray:5"
         inkscape:connector-curvature="0"
         d="m 441.458,1415 259.2,0 -119.808,86.4 -259.2,0 z"
         id="path552" />
      <g
         id="g554">
        <path
           style="fill:#007efd;stroke:#000000;stroke-width:2"
           inkscape:connector-curvature="0"
           d="m 398.914,1452.69 c 0,11.98 10.271,21.68 22.941,21.68 12.67,0 22.941,-9.7 22.941,-21.68"
           id="path556" />
        <path
           style="fill:#0049fd;stroke:#000000;stroke-width:2"
           inkscape:connector-curvature="0"
           d="m 445.261,1451.85 c 0,2.43 -10.376,4.4 -23.174,4.4 -12.798,0 -23.173,-1.97 -23.173,-4.4 0,-2.43 10.375,-4.4 23.173,-4.4 12.798,0 23.174,1.97 23.174,4.4 z"
           id="path558" />
      </g>
      <path
         style="fill:#c9c9c9;fill-opacity:0.42000002;stroke:#000000;stroke-width:2;stroke-dasharray:5"
         inkscape:connector-curvature="0"
         d="m 441.458,1069.4 259.2,0 -119.808,86.4 -259.2,0 z"
         id="path560" />
      <g
         id="g562">
        <path
           style="fill:none;stroke:#000000;stroke-width:2"
           inkscape:connector-curvature="0"
           d="m 321.65,1528.6 0,-663.203"
           id="path564" />
        <path
           style="fill:none;stroke:#000000;stroke-width:2"
           inkscape:connector-curvature="0"
           d="m 316.65,875.397 5,-10 5,10"
           id="path566" />
      </g>
      <g
         id="g568">
        <path
           style="fill:#ffffff;fill-opacity:0.01000001;stroke:#000000;stroke-width:2;stroke-dasharray:2"
           inkscape:connector-curvature="0"
           d="m 582.04,1228.87 c 0,-11.97 10.271,-21.68 22.941,-21.68 12.67,0 22.942,9.71 22.942,21.68"
           id="path570" />
        <path
           style="fill:#ffffff;fill-opacity:0.01000001;stroke:#000000;stroke-width:2;stroke-dasharray:2"
           inkscape:connector-curvature="0"
           d="m 628.387,1229.72 c 0,-2.43 -10.375,-4.4 -23.174,-4.4 -12.798,0 -23.173,1.97 -23.173,4.4 0,2.43 10.375,4.4 23.173,4.4 12.799,0 23.174,-1.97 23.174,-4.4 z"
           id="path572" />
      </g>
      <path
         style="fill:#c9c9c9;fill-opacity:0.42000002;stroke:#000000;stroke-width:2;stroke-dasharray:5"
         inkscape:connector-curvature="0"
         d="m 441.458,1184.6 259.2,0 -119.808,86.4 -259.2,0 z"
         id="path574" />
      <g
         id="g576">
        <path
           style="fill:#ff0004;stroke:#000000;stroke-width:2"
           inkscape:connector-curvature="0"
           d="m 398.914,1222.29 c 0,11.98 10.271,21.68 22.941,21.68 12.67,0 22.941,-9.7 22.941,-21.68"
           id="path578" />
        <path
           style="fill:#d20000;stroke:#000000;stroke-width:2"
           inkscape:connector-curvature="0"
           d="m 445.261,1221.45 c 0,2.43 -10.376,4.4 -23.174,4.4 -12.798,0 -23.173,-1.97 -23.173,-4.4 0,-2.43 10.375,-4.4 23.173,-4.4 12.798,0 23.174,1.97 23.174,4.4 z"
           id="path580" />
      </g>
      <g
         id="g582">
        <path
           style="fill:#ff0004;stroke:#000000;stroke-width:2"
           inkscape:connector-curvature="0"
           d="m 398.914,1107.09 c 0,11.98 10.271,21.68 22.941,21.68 12.67,0 22.941,-9.7 22.941,-21.68"
           id="path584" />
        <path
           style="fill:#d20000;stroke:#000000;stroke-width:2"
           inkscape:connector-curvature="0"
           d="m 445.261,1106.25 c 0,2.43 -10.376,4.4 -23.174,4.4 -12.798,0 -23.173,-1.97 -23.173,-4.4 0,-2.43 10.375,-4.4 23.173,-4.4 12.798,0 23.174,1.97 23.174,4.4 z"
           id="path586" />
      </g>
      <g
         clip-path="url(#7fc874753fe0)"
         id="g588">
        <clipPath
           id="clipPath5440">
          <path
             style="fill:#000000;fill-opacity:0.35"
             inkscape:connector-curvature="0"
             d="m 281.066,848.676 66.399,0 0,-29.609 -66.399,0 z"
             id="path5442" />
        </clipPath>
        <g
           clip-path="url(#7fc8742e8220)"
           id="g593">
          <clipPath
             id="clipPath5445">
            <path
               style="fill:#000000;fill-opacity:0.35"
               inkscape:connector-curvature="0"
               d="m 281.066,848.676 66.4,0 0,-29.6 -66.4,0 z"
               id="path5447" />
          </clipPath>
          <path
             style="fill:#000000"
             inkscape:connector-curvature="0"
             d="m 286.988,829.654 2.706,0 c 0.575,0 0.852,0 0.852,-0.575 0,-0.299 -0.277,-0.299 -0.81,-0.299 l -2.513,0 c 1.022,-4.09 1.171,-4.665 1.171,-4.835 0,-0.49 -0.341,-0.767 -0.83,-0.767 -0.086,0 -0.895,0.021 -1.151,1.022 l -1.129,4.58 -2.684,0 c -0.575,0 -0.873,0 -0.873,0.533 0,0.341 0.234,0.341 0.809,0.341 l 2.535,0 c -2.087,8.18 -2.194,8.648 -2.194,9.181 0,1.555 1.086,2.641 2.642,2.641 2.939,0 4.579,-4.196 4.579,-4.43 0,-0.277 -0.234,-0.277 -0.362,-0.277 -0.255,0 -0.277,0.085 -0.426,0.404 -1.235,2.983 -2.748,3.664 -3.728,3.664 -0.617,0 -0.894,-0.362 -0.894,-1.32 0,-0.682 0.064,-0.895 0.17,-1.385 l 2.13,-8.457"
             id="path598" />
          <path
             style="fill:#000000"
             inkscape:connector-curvature="0"
             d="m 301.516,841.817 -0.681,0 c -0.064,0.448 -0.256,1.64 -0.533,1.832 -0.149,0.128 -1.704,0.128 -1.981,0.128 l -3.685,0 c 2.109,-1.875 2.812,-2.428 4.005,-3.366 1.491,-1.193 2.875,-2.428 2.875,-4.345 0,-2.429 -2.13,-3.899 -4.686,-3.899 -2.492,0 -4.175,1.747 -4.175,3.579 0,1.023 0.852,1.129 1.065,1.129 0.468,0 1.065,-0.341 1.065,-1.065 0,-0.362 -0.149,-1.065 -1.193,-1.065 0.618,-1.427 1.981,-1.853 2.918,-1.853 2.003,0 3.068,1.555 3.068,3.174 0,1.746 -1.257,3.131 -1.896,3.855 l -4.836,4.772 c -0.191,0.192 -0.191,0.213 -0.191,0.788 l 8.265,0 0.596,-3.664"
             id="path600" />
          <path
             style="fill:#000000"
             inkscape:connector-curvature="0"
             d="m 316.875,820.707 c 0.149,-0.384 0.149,-0.49 0.149,-0.533 0,-0.298 -0.255,-0.575 -0.575,-0.575 -0.192,0 -0.405,0.085 -0.49,0.277 l -9.969,27.373 c -0.149,0.362 -0.149,0.49 -0.149,0.511 0,0.32 0.255,0.576 0.575,0.576 0.383,0 0.468,-0.192 0.639,-0.682 l 9.82,-26.947"
             id="path602" />
          <path
             style="fill:#000000"
             inkscape:connector-curvature="0"
             d="m 343.587,823.753 c 0.256,-1.044 0.32,-1.321 2.472,-1.321 0.66,0 0.916,0 0.916,-0.575 0,-0.319 -0.277,-0.319 -0.767,-0.319 l -3.792,0 c -0.745,0 -0.788,0 -1.129,0.532 l -10.48,16.381 -2.237,-16.253 c -0.085,-0.66 -0.149,-0.66 -0.895,-0.66 l -3.941,0 c -0.532,0 -0.852,0 -0.852,0.532 0,0.362 0.256,0.362 0.831,0.362 0.362,0 0.895,0.022 1.236,0.043 0.447,0.064 0.617,0.149 0.617,0.469 0,0.106 -0.021,0.191 -0.106,0.532 l -3.643,14.635 c -0.298,1.15 -0.788,2.066 -3.11,2.151 -0.149,0 -0.511,0.021 -0.511,0.554 0,0.256 0.17,0.341 0.404,0.341 0.916,0 1.918,-0.085 2.876,-0.085 0.959,0 2.003,0.085 2.94,0.085 0.149,0 0.533,0 0.533,-0.575 0,-0.32 -0.32,-0.32 -0.533,-0.32 -1.619,-0.021 -1.939,-0.596 -1.939,-1.257 0,-0.213 0.022,-0.341 0.107,-0.66 l 3.92,-15.657 0.021,0 2.471,17.808 c 0.064,0.341 0.085,0.661 0.426,0.661 0.319,0 0.49,-0.32 0.639,-0.511 l 11.61,-18.192 0.021,0 -4.111,16.466 c -0.277,1.108 -0.341,1.342 -2.621,1.342 -0.468,0 -0.788,0 -0.788,0.554 0,0.341 0.341,0.341 0.426,0.341 0.81,0 2.748,-0.085 3.558,-0.085 1.171,0 2.407,0.085 3.6,0.085 0.17,0 0.532,0 0.532,-0.575 0,-0.32 -0.255,-0.32 -0.788,-0.32 -1.065,0 -1.874,0 -1.874,-0.511 0,-0.128 0,-0.171 0.149,-0.703 l 3.812,-15.295"
             id="path604" />
        </g>
      </g>
      <g
         clip-path="url(#7fc874796bb0)"
         id="g606">
        <clipPath
           id="clipPath5454">
          <path
             style="fill:#000000;fill-opacity:0.35"
             inkscape:connector-curvature="0"
             d="m 277.223,1279.18 12.802,0 0,-20.62 -12.802,0 z"
             id="path5456" />
        </clipPath>
        <g
           clip-path="url(#7fc87421f540)"
           id="g611">
          <clipPath
             id="clipPath5459">
            <path
               style="fill:#000000;fill-opacity:0.35"
               inkscape:connector-curvature="0"
               d="m 277.223,1279.35 12.8,0 0,-20.8 -12.8,0 z"
               id="path5461" />
          </clipPath>
          <path
             style="fill:#000000"
             inkscape:connector-curvature="0"
             d="m 289.961,1269.04 c 0,-2.3 -0.149,-4.6 -1.15,-6.73 -1.321,-2.75 -3.685,-3.22 -4.878,-3.22 -1.725,0 -3.834,0.74 -5.006,3.43 -0.916,1.98 -1.065,4.22 -1.065,6.52 0,2.15 0.106,4.73 1.299,6.92 1.236,2.32 3.323,2.9 4.729,2.9 1.555,0 3.75,-0.6 5.006,-3.33 0.916,-1.98 1.065,-4.23 1.065,-6.49 z m -6.071,9.18 c -1.107,0 -2.811,-0.7 -3.323,-3.47 -0.319,-1.73 -0.319,-4.37 -0.319,-6.05 0,-1.86 0,-3.75 0.234,-5.31 0.533,-3.41 2.705,-3.66 3.408,-3.66 0.959,0 2.855,0.51 3.387,3.36 0.299,1.6 0.299,3.8 0.299,5.61 0,2.15 0,4.11 -0.32,5.94 -0.426,2.73 -2.066,3.58 -3.366,3.58"
             id="path616" />
        </g>
      </g>
      <text
         style="font-size:30px;text-anchor:middle;font-family:American Typewriter"
         font-size="30"
         transform="matrix(0.8,0,0,0.8,821.115,1001.18)"
         xml:space="preserve"
         id="text618"><tspan
           id="tspan620">topological phase,</tspan></text>
      <text
         style="font-size:30px;text-anchor:middle;font-family:American Typewriter"
         font-size="30"
         transform="matrix(0.8,0,0,0.8,821.115,1451.73)"
         xml:space="preserve"
         id="text622"><tspan
           id="tspan624">topological phase,</tspan></text>
      <text
         style="font-size:30px;text-anchor:middle;font-family:American Typewriter"
         font-size="30"
         transform="matrix(0.8,0,0,0.8,828.684,1236.21)"
         xml:space="preserve"
         id="text626"><tspan
           id="tspan628">trivial phase, W=0</tspan></text>
      <text
         style="font-size:30px;text-anchor:middle;font-family:American Typewriter"
         font-size="30"
         transform="matrix(0.8,0,0,0.8,817.26,1098.71)"
         xml:space="preserve"
         id="text630"><tspan
           id="tspan632">gap closing at K'</tspan></text>
      <text
         style="font-size:30px;text-anchor:middle;font-family:American Typewriter"
         font-size="30"
         transform="matrix(0.8,0,0,0.8,812.237,1341.66)"
         xml:space="preserve"
         id="text634"><tspan
           id="tspan636">gap closing at K</tspan></text>
      <g
         id="g638">
        <path
           style="fill:#ffffff;fill-opacity:0.01000001;stroke:#000000;stroke-width:2;stroke-dasharray:2"
           inkscape:connector-curvature="0"
           d="m 399.277,1047.49 c 0,-11.97 10.271,-21.68 22.941,-21.68 12.67,0 22.942,9.71 22.942,21.68"
           id="path640" />
        <path
           style="fill:#ffffff;fill-opacity:0.01000001;stroke:#000000;stroke-width:2;stroke-dasharray:2"
           inkscape:connector-curvature="0"
           d="m 445.624,1048.34 c 0,-2.44 -10.375,-4.4 -23.174,-4.4 -12.798,0 -23.173,1.96 -23.173,4.4 0,2.43 10.375,4.4 23.173,4.4 12.799,0 23.174,-1.97 23.174,-4.4 z"
           id="path642" />
      </g>
      <g
         id="g644">
        <path
           style="fill:#ffffff;fill-opacity:0.01000001;stroke:#000000;stroke-width:2;stroke-dasharray:2"
           inkscape:connector-curvature="0"
           d="m 582.04,998.474 c 0,-11.977 10.271,-21.685 22.941,-21.685 12.67,0 22.942,9.708 22.942,21.685"
           id="path646" />
        <path
           style="fill:#ffffff;fill-opacity:0.01000001;stroke:#000000;stroke-width:2;stroke-dasharray:2"
           inkscape:connector-curvature="0"
           d="m 628.387,999.316 c 0,-2.43 -10.375,-4.4 -23.174,-4.4 -12.798,0 -23.173,1.97 -23.173,4.4 0,2.434 10.375,4.404 23.173,4.404 12.799,0 23.174,-1.97 23.174,-4.404 z"
           id="path648" />
      </g>
      <path
         style="fill:#c9c9c9;fill-opacity:0.42000002;stroke:#000000;stroke-width:2;stroke-dasharray:5"
         inkscape:connector-curvature="0"
         d="m 441.458,954.197 259.2,0 -119.808,86.403 -259.2,0 z"
         id="path650" />
      <g
         id="g652">
        <path
           style="fill:#ff0004;stroke:#000000;stroke-width:2"
           inkscape:connector-curvature="0"
           d="m 398.914,991.889 c 0,11.981 10.271,21.681 22.941,21.681 12.67,0 22.941,-9.7 22.941,-21.681"
           id="path654" />
        <path
           style="fill:#d20000;stroke:#000000;stroke-width:2"
           inkscape:connector-curvature="0"
           d="m 445.261,991.046 c 0,2.43 -10.376,4.4 -23.174,4.4 -12.798,0 -23.173,-1.97 -23.173,-4.4 0,-2.43 10.375,-4.4 23.173,-4.4 12.798,0 23.174,1.97 23.174,4.4 z"
           id="path656" />
      </g>
      <path
         style="fill:#ffffff;fill-opacity:0.01000001;stroke:#000000;stroke-width:2;stroke-dasharray:2"
         inkscape:connector-curvature="0"
         d="m 582.04,1344.07 c 0,-11.97 10.271,-21.68 22.941,-21.68 12.67,0 22.942,9.71 22.942,21.68"
         id="path658" />
      <path
         style="fill:#ffffff;fill-opacity:0.01000001;stroke:#000000;stroke-width:2;stroke-dasharray:2"
         inkscape:connector-curvature="0"
         d="m 628.387,1344.92 c 0,-2.43 -10.375,-4.4 -23.174,-4.4 -12.798,0 -23.173,1.97 -23.173,4.4 0,2.43 10.375,4.4 23.173,4.4 12.799,0 23.174,-1.97 23.174,-4.4 z"
         id="path660" />
      <path
         style="fill:#c9c9c9;fill-opacity:0.42000002;stroke:#000000;stroke-width:2;stroke-dasharray:5"
         inkscape:connector-curvature="0"
         d="m 441.458,1299.8 259.2,0 -119.808,86.4 -259.2,0 z"
         id="path662" />
      <path
         style="fill:none;stroke:#000000"
         inkscape:connector-curvature="0"
         d="M 281.727,1220.65 381,1234.12"
         id="path664" />
      <text
         style="font-size:30px;text-anchor:middle;fill:#ff0004;font-family:American Typewriter"
         font-size="30"
         transform="matrix(0.8,0,0,0.8,196.318,1200.08)"
         xml:space="preserve"
         id="text666"><tspan
           id="tspan668">positive Berry</tspan><tspan
           x="0"
           y="36"
           id="tspan670">curvature</tspan></text>
      <g
         id="g672">
        <g
           id="g674">
          <path
             style="fill:#ffffff;fill-opacity:0.01000001;stroke:#000000;stroke-width:2;stroke-dasharray:2"
             inkscape:connector-curvature="0"
             d="m 627.987,1114.31 c 0,2.43 -10.375,4.4 -23.174,4.4 -12.798,0 -23.173,-1.97 -23.173,-4.4 0,-2.43 10.375,-4.4 23.173,-4.4 12.799,0 23.174,1.97 23.174,4.4 z"
             id="path676" />
          <path
             style="fill:none;stroke:#000000;stroke-width:2;stroke-dasharray:2"
             inkscape:connector-curvature="0"
             d="m 581.64,1114.66 23.173,-28.44"
             id="path678" />
          <path
             style="fill:none;stroke:#000000;stroke-width:2;stroke-dasharray:2"
             inkscape:connector-curvature="0"
             d="m 604.813,1086.22 23.174,28.44"
             id="path680" />
        </g>
        <g
           id="g682">
          <path
             style="fill:#a544fd;stroke:#000000;stroke-width:2"
             inkscape:connector-curvature="0"
             d="m 581.64,1057.42 23.173,28.44 23.174,-28.44"
             id="path684" />
          <path
             style="fill:#7d00fd;stroke:#000000;stroke-width:2"
             inkscape:connector-curvature="0"
             d="m 627.987,1057.42 c 0,2.43 -10.375,4.4 -23.174,4.4 -12.798,0 -23.173,-1.97 -23.173,-4.4 0,-2.43 10.375,-4.4 23.173,-4.4 12.799,0 23.174,1.97 23.174,4.4 z"
             id="path686" />
        </g>
      </g>
      <path
         style="fill:none;stroke:#000000"
         inkscape:connector-curvature="0"
         d="M 711.807,868.32 652,966.601"
         id="path688" />
      <text
         style="font-size:30px;text-anchor:middle;font-family:American Typewriter"
         font-size="30"
         transform="matrix(0.8,0,0,0.8,731.213,859.238)"
         xml:space="preserve"
         id="text690"><tspan
           id="tspan692">Brillouin zone</tspan></text>
      <g
         clip-path="url(#7fc87434a610)"
         id="g694">
        <clipPath
           id="clipPath5503">
          <path
             style="fill:#000000;fill-opacity:0.35"
             inkscape:connector-curvature="0"
             d="m 228.196,1170.48 79.201,0 0,-34.41 -79.201,0 z"
             id="path5505" />
        </clipPath>
        <g
           clip-path="url(#7fc8743e4560)"
           id="g699">
          <clipPath
             id="clipPath5508">
            <path
               style="fill:#000000;fill-opacity:0.35"
               inkscape:connector-curvature="0"
               d="m 228.196,1170.48 79.2,0 0,-34.4 -79.2,0 z"
               id="path5510" />
          </clipPath>
          <path
             style="fill:#000000"
             inkscape:connector-curvature="0"
             d="m 234.395,1144.72 c 0,-0.68 0,-0.74 -0.66,-0.74 -1.768,1.85 -4.303,1.85 -5.219,1.85 l 0,0.87 c 0.575,0 2.258,0 3.77,-0.74 l 0,14.89 c 0,1.04 -0.085,1.38 -2.684,1.38 l -0.916,0 0,0.88 c 1.001,-0.09 3.515,-0.09 4.644,-0.09 1.15,0 3.664,0 4.665,0.09 l 0,-0.88 -0.916,0 c -2.599,0 -2.684,-0.32 -2.684,-1.38 l 0,-16.13"
             id="path704" />
          <path
             style="fill:#000000"
             inkscape:connector-curvature="0"
             d="m 252.885,1142.66 c 0.149,-0.37 0.149,-0.49 0.149,-0.52 0,-0.32 -0.255,-0.57 -0.575,-0.57 -0.191,0 -0.405,0.08 -0.49,0.25 L 242,1169.2 c -0.149,0.38 -0.149,0.49 -0.149,0.53 0,0.32 0.255,0.58 0.575,0.58 0.383,0 0.469,-0.22 0.639,-0.71 l 9.82,-26.94"
             id="path706" />
          <path
             style="fill:#000000"
             inkscape:connector-curvature="0"
             d="m 263.004,1153.01 c 2.364,-0.79 4.026,-2.79 4.026,-5.07 0,-2.34 -2.535,-3.96 -5.283,-3.96 -2.897,0 -5.091,1.72 -5.091,3.92 0,0.93 0.639,1.49 1.47,1.49 0.894,0 1.469,-0.64 1.469,-1.47 0,-1.43 -1.363,-1.43 -1.789,-1.43 0.895,-1.43 2.791,-1.79 3.813,-1.79 1.193,0 2.769,0.64 2.769,3.22 0,0.34 -0.064,2 -0.809,3.28 -0.852,1.36 -1.832,1.47 -2.556,1.49 -0.235,0.02 -0.916,0.08 -1.108,0.08 -0.234,0.03 -0.447,0.07 -0.447,0.34 0,0.32 0.213,0.32 0.703,0.32 l 1.256,0 c 2.365,0 3.43,1.96 3.43,4.78 0,3.89 -1.981,4.72 -3.259,4.72 -1.236,0 -3.387,-0.49 -4.388,-2.17 1.001,0.15 1.895,-0.49 1.895,-1.57 0,-1.05 -0.788,-1.62 -1.619,-1.62 -0.681,0 -1.597,0.4 -1.597,1.66 0,2.62 2.663,4.51 5.794,4.51 3.515,0 6.135,-2.62 6.135,-5.53 0,-2.37 -1.811,-4.61 -4.814,-5.2"
             id="path708" />
          <path
             style="fill:#000000"
             inkscape:connector-curvature="0"
             d="m 280.173,1162.55 -5.048,-11.16 c -0.213,-0.47 -0.363,-0.47 -0.448,-0.47 -0.021,0 -0.17,0 -0.49,0.23 l -2.726,2.07 c -0.363,0.3 -0.363,0.38 -0.363,0.47 0,0.13 0.086,0.32 0.277,0.32 0.171,0 0.661,-0.41 0.98,-0.64 0.171,-0.15 0.597,-0.47 0.916,-0.7 l 5.667,12.44 c 0.191,0.47 0.34,0.47 0.596,0.47 0.447,0 0.533,-0.17 0.724,-0.58 l 13.037,-27.01 c 0.213,-0.4 0.213,-0.51 0.213,-0.57 0,-0.28 -0.234,-0.58 -0.575,-0.58 -0.234,0 -0.426,0.15 -0.66,0.62 l -12.1,25.09"
             id="path710" />
          <path
             style="fill:none;stroke:#000000;stroke-width:1.43280005;stroke-dasharray:2"
             inkscape:connector-curvature="0"
             d="m 292.89,1137.44 14.337,0"
             id="path712" />
          <path
             style="fill:#000000"
             inkscape:connector-curvature="0"
             d="m 301.241,1153.01 c 2.364,-0.79 4.026,-2.79 4.026,-5.07 0,-2.34 -2.514,-3.96 -5.283,-3.96 -2.897,0 -5.091,1.72 -5.091,3.92 0,0.93 0.639,1.49 1.47,1.49 0.894,0 1.469,-0.64 1.469,-1.47 0,-1.43 -1.363,-1.43 -1.789,-1.43 0.895,-1.43 2.79,-1.79 3.834,-1.79 1.172,0 2.748,0.64 2.748,3.22 0,0.34 -0.064,2 -0.809,3.28 -0.852,1.36 -1.832,1.47 -2.557,1.49 -0.212,0.02 -0.915,0.08 -1.107,0.08 -0.234,0.03 -0.426,0.07 -0.426,0.34 0,0.32 0.192,0.32 0.682,0.32 l 1.257,0 c 2.364,0 3.429,1.96 3.429,4.78 0,3.89 -1.981,4.72 -3.259,4.72 -1.235,0 -3.387,-0.49 -4.389,-2.17 1.002,0.15 1.897,-0.49 1.897,-1.57 0,-1.05 -0.767,-1.62 -1.62,-1.62 -0.681,0 -1.597,0.4 -1.597,1.66 0,2.62 2.662,4.51 5.794,4.51 3.515,0 6.135,-2.62 6.135,-5.53 0,-2.37 -1.811,-4.61 -4.814,-5.2"
             id="path714" />
        </g>
      </g>
      <g
         clip-path="url(#7fc8751eb790)"
         id="g716">
        <clipPath
           id="clipPath5519">
          <path
             style="fill:#000000;fill-opacity:0.35"
             inkscape:connector-curvature="0"
             d="m 205.51,1395.41 102.398,0 0,-34.4 -102.398,0 z"
             id="path5521" />
        </clipPath>
        <g
           clip-path="url(#7fc87511af60)"
           id="g721">
          <clipPath
             id="clipPath5524">
            <path
               style="fill:#000000;fill-opacity:0.35"
               inkscape:connector-curvature="0"
               d="m 205.51,1395.41 102.4,0 0,-34.4 -102.4,0 z"
               id="path5526" />
          </clipPath>
          <path
             style="fill:#000000"
             inkscape:connector-curvature="0"
             d="m 222.53,1381.43 c 0.49,0 1.001,0 1.001,-0.57 0,-0.58 -0.511,-0.58 -1.001,-0.58 l -15.55,0 c -0.49,0 -1.001,0 -1.001,0.58 0,0.57 0.511,0.57 1.001,0.57 l 15.55,0"
             id="path726" />
          <path
             style="fill:#000000"
             inkscape:connector-curvature="0"
             d="m 234.353,1369.65 c 0,-0.68 0,-0.74 -0.66,-0.74 -1.769,1.85 -4.303,1.85 -5.219,1.85 l 0,0.88 c 0.575,0 2.258,0 3.749,-0.75 l 0,14.89 c 0,1.04 -0.086,1.38 -2.663,1.38 l -0.916,0 0,0.88 c 1.001,-0.09 3.493,-0.09 4.644,-0.09 1.15,0 3.664,0 4.665,0.09 l 0,-0.88 -0.916,0 c -2.599,0 -2.684,-0.32 -2.684,-1.38 l 0,-16.13"
             id="path728" />
          <path
             style="fill:#000000"
             inkscape:connector-curvature="0"
             d="m 252.928,1367.59 c 0.149,-0.36 0.149,-0.49 0.149,-0.51 0,-0.32 -0.277,-0.58 -0.575,-0.58 -0.213,0 -0.405,0.09 -0.49,0.26 l -9.969,27.37 c -0.149,0.38 -0.149,0.49 -0.149,0.53 0,0.32 0.255,0.58 0.575,0.58 0.362,0 0.447,-0.22 0.639,-0.71 l 9.82,-26.94"
             id="path730" />
          <path
             style="fill:#000000"
             inkscape:connector-curvature="0"
             d="m 262.962,1377.94 c 2.364,-0.79 4.025,-2.79 4.025,-5.07 0,-2.34 -2.534,-3.96 -5.282,-3.96 -2.919,0 -5.092,1.72 -5.092,3.92 0,0.94 0.639,1.49 1.47,1.49 0.895,0 1.47,-0.64 1.47,-1.47 0,-1.43 -1.363,-1.43 -1.789,-1.43 0.894,-1.43 2.791,-1.79 3.813,-1.79 1.193,0 2.769,0.64 2.769,3.22 0,0.34 -0.064,2 -0.81,3.28 -0.851,1.36 -1.831,1.47 -2.556,1.49 -0.234,0.02 -0.916,0.09 -1.129,0.09 -0.213,0.02 -0.426,0.06 -0.426,0.34 0,0.32 0.213,0.32 0.703,0.32 l 1.257,0 c 2.343,0 3.408,1.96 3.408,4.77 0,3.9 -1.981,4.73 -3.238,4.73 -1.235,0 -3.387,-0.49 -4.388,-2.18 1.001,0.15 1.896,-0.49 1.896,-1.57 0,-1.05 -0.788,-1.62 -1.619,-1.62 -0.681,0 -1.597,0.4 -1.597,1.66 0,2.62 2.662,4.52 5.794,4.52 3.515,0 6.114,-2.62 6.114,-5.54 0,-2.37 -1.811,-4.6 -4.793,-5.2"
             id="path732" />
          <path
             style="fill:#000000"
             inkscape:connector-curvature="0"
             d="m 280.131,1387.48 -5.07,-11.16 c -0.192,-0.47 -0.341,-0.47 -0.426,-0.47 -0.021,0 -0.171,0 -0.49,0.24 l -2.727,2.06 c -0.362,0.3 -0.362,0.39 -0.362,0.47 0,0.13 0.086,0.32 0.277,0.32 0.171,0 0.66,-0.4 0.98,-0.64 0.17,-0.15 0.597,-0.47 0.916,-0.7 l 5.666,12.44 c 0.192,0.47 0.341,0.47 0.597,0.47 0.426,0 0.511,-0.17 0.724,-0.58 l 13.037,-27.01 c 0.213,-0.4 0.213,-0.51 0.213,-0.57 0,-0.28 -0.235,-0.58 -0.576,-0.58 -0.233,0 -0.447,0.15 -0.66,0.62 l -12.099,25.09"
             id="path734" />
          <path
             style="fill:none;stroke:#000000;stroke-width:1.43280005;stroke-dasharray:2"
             inkscape:connector-curvature="0"
             d="m 292.89,1362.37 14.337,0"
             id="path736" />
          <path
             style="fill:#000000"
             inkscape:connector-curvature="0"
             d="m 301.199,1377.94 c 2.364,-0.79 4.026,-2.79 4.026,-5.07 0,-2.34 -2.535,-3.96 -5.283,-3.96 -2.897,0 -5.092,1.72 -5.092,3.92 0,0.94 0.64,1.49 1.47,1.49 0.895,0 1.47,-0.64 1.47,-1.47 0,-1.43 -1.363,-1.43 -1.789,-1.43 0.894,-1.43 2.791,-1.79 3.813,-1.79 1.193,0 2.769,0.64 2.769,3.22 0,0.34 -0.064,2 -0.81,3.28 -0.851,1.36 -1.831,1.47 -2.556,1.49 -0.234,0.02 -0.916,0.09 -1.128,0.09 -0.214,0.02 -0.427,0.06 -0.427,0.34 0,0.32 0.213,0.32 0.703,0.32 l 1.257,0 c 2.365,0 3.43,1.96 3.43,4.77 0,3.9 -2.003,4.73 -3.259,4.73 -1.236,0 -3.387,-0.49 -4.389,-2.18 1.002,0.15 1.896,-0.49 1.896,-1.57 0,-1.05 -0.788,-1.62 -1.619,-1.62 -0.681,0 -1.597,0.4 -1.597,1.66 0,2.62 2.662,4.52 5.794,4.52 3.514,0 6.114,-2.62 6.114,-5.54 0,-2.37 -1.79,-4.6 -4.793,-5.2"
             id="path738" />
        </g>
      </g>
      <g
         id="g740">
        <path
           style="fill:#007efd;stroke:#000000;stroke-width:2"
           inkscape:connector-curvature="0"
           d="m 581.576,1172.7 c 0,11.98 10.271,21.69 22.941,21.69 12.67,0 22.941,-9.71 22.941,-21.69"
           id="path742" />
        <path
           style="fill:#0049fd;stroke:#000000;stroke-width:2"
           inkscape:connector-curvature="0"
           d="m 627.923,1171.86 c 0,2.43 -10.376,4.4 -23.174,4.4 -12.798,0 -23.173,-1.97 -23.173,-4.4 0,-2.43 10.375,-4.4 23.173,-4.4 12.798,0 23.174,1.97 23.174,4.4 z"
           id="path744" />
      </g>
      <g
         id="g746">
        <path
           style="fill:#ff0004;stroke:#000000;stroke-width:2"
           inkscape:connector-curvature="0"
           d="m 581.576,942.945 c 0,11.977 10.271,21.685 22.941,21.685 12.67,0 22.941,-9.708 22.941,-21.685"
           id="path748" />
        <path
           style="fill:#d20000;stroke:#000000;stroke-width:2"
           inkscape:connector-curvature="0"
           d="m 627.923,942.103 c 0,2.43 -10.376,4.4 -23.174,4.4 -12.798,0 -23.173,-1.97 -23.173,-4.4 0,-2.43 10.375,-4.4 23.173,-4.4 12.798,0 23.174,1.97 23.174,4.4 z"
           id="path750" />
      </g>
      <g
         id="g752">
        <path
           style="fill:#007efd;stroke:#000000;stroke-width:2"
           inkscape:connector-curvature="0"
           d="m 581.576,1288.06 c 0,11.98 10.271,21.69 22.941,21.69 12.67,0 22.941,-9.71 22.941,-21.69"
           id="path754" />
        <path
           style="fill:#0049fd;stroke:#000000;stroke-width:2"
           inkscape:connector-curvature="0"
           d="m 627.923,1287.22 c 0,2.43 -10.376,4.4 -23.174,4.4 -12.798,0 -23.173,-1.97 -23.173,-4.4 0,-2.43 10.375,-4.4 23.173,-4.4 12.798,0 23.174,1.97 23.174,4.4 z"
           id="path756" />
      </g>
      <g
         id="g758">
        <path
           style="fill:#007efd;stroke:#000000;stroke-width:2"
           inkscape:connector-curvature="0"
           d="m 581.576,1403.92 c 0,11.98 10.271,21.68 22.941,21.68 12.67,0 22.941,-9.7 22.941,-21.68"
           id="path760" />
        <path
           style="fill:#0049fd;stroke:#000000;stroke-width:2"
           inkscape:connector-curvature="0"
           d="m 627.923,1403.08 c 0,2.43 -10.376,4.4 -23.174,4.4 -12.798,0 -23.173,-1.97 -23.173,-4.4 0,-2.43 10.375,-4.4 23.173,-4.4 12.798,0 23.174,1.97 23.174,4.4 z"
           id="path762" />
      </g>
      <path
         style="fill:none;stroke:#000000"
         inkscape:connector-curvature="0"
         d="m 641.321,1170.31 59.337,-13.73"
         id="path764" />
      <text
         style="font-size:30px;text-anchor:middle;fill:#007efd;font-family:American Typewriter"
         font-size="30"
         transform="matrix(0.8,0,0,0.8,865.575,1155.19)"
         xml:space="preserve"
         id="text766"><tspan
           id="tspan768">negative Berry curvature</tspan></text>
      <g
         id="g770">
        <text
           style="font-size:30px;text-anchor:middle;font-family:American Typewriter"
           font-size="30"
           transform="matrix(0.8,0,0,0.8,460.442,1255.32)"
           xml:space="preserve"
           id="text772"><tspan
             id="tspan774">K</tspan></text>
        <text
           style="font-size:30px;text-anchor:middle;font-family:American Typewriter"
           font-size="30"
           transform="matrix(0.8,0,0,0.8,571.968,1214.4)"
           xml:space="preserve"
           id="text776"><tspan
             id="tspan778">K'</tspan></text>
      </g>
      <g
         id="g780">
        <text
           style="font-size:30px;text-anchor:middle;font-family:American Typewriter"
           font-size="30"
           transform="matrix(0.8,0,0,0.8,460.442,1141.32)"
           xml:space="preserve"
           id="text782"><tspan
             id="tspan784">K</tspan></text>
        <text
           style="font-size:30px;text-anchor:middle;font-family:American Typewriter"
           font-size="30"
           transform="matrix(0.8,0,0,0.8,571.968,1100.4)"
           xml:space="preserve"
           id="text786"><tspan
             id="tspan788">K'</tspan></text>
      </g>
      <g
         id="g790">
        <text
           style="font-size:30px;text-anchor:middle;font-family:American Typewriter"
           font-size="30"
           transform="matrix(0.8,0,0,0.8,460.442,1023.32)"
           xml:space="preserve"
           id="text792"><tspan
             id="tspan794">K</tspan></text>
        <text
           style="font-size:30px;text-anchor:middle;font-family:American Typewriter"
           font-size="30"
           transform="matrix(0.8,0,0,0.8,571.968,982.396)"
           xml:space="preserve"
           id="text796"><tspan
             id="tspan798">K'</tspan></text>
      </g>
      <g
         id="g800">
        <text
           style="font-size:30px;text-anchor:middle;font-family:American Typewriter"
           font-size="30"
           transform="matrix(0.8,0,0,0.8,460.442,1369.32)"
           xml:space="preserve"
           id="text802"><tspan
             id="tspan804">K</tspan></text>
        <text
           style="font-size:30px;text-anchor:middle;font-family:American Typewriter"
           font-size="30"
           transform="matrix(0.8,0,0,0.8,571.968,1328.4)"
           xml:space="preserve"
           id="text806"><tspan
             id="tspan808">K'</tspan></text>
      </g>
      <g
         id="g810">
        <text
           style="font-size:30px;text-anchor:middle;font-family:American Typewriter"
           font-size="30"
           transform="matrix(0.8,0,0,0.8,460.442,1483.32)"
           xml:space="preserve"
           id="text812"><tspan
             id="tspan814">K</tspan></text>
        <text
           style="font-size:30px;text-anchor:middle;font-family:American Typewriter"
           font-size="30"
           transform="matrix(0.8,0,0,0.8,571.968,1442.4)"
           xml:space="preserve"
           id="text816"><tspan
             id="tspan818">K'</tspan></text>
      </g>
      <text
         style="font-size:30px;text-anchor:middle;fill:#ff0004;font-family:American Typewriter"
         font-size="30"
         transform="matrix(0.8,0,0,0.8,959.766,1001.37)"
         xml:space="preserve"
         id="text820"><tspan
           id="tspan822">W=1</tspan></text>
      <text
         style="font-size:30px;text-anchor:middle;fill:#007efd;font-family:American Typewriter"
         font-size="30"
         transform="matrix(0.8,0,0,0.8,967.522,1450.48)"
         xml:space="preserve"
         id="text824"><tspan
           id="tspan826">W= -1</tspan></text>
      <g
         id="g828">
        <g
           id="g830">
          <path
             style="fill:#ffffff;fill-opacity:0.01000001;stroke:#000000;stroke-width:2;stroke-dasharray:2"
             inkscape:connector-curvature="0"
             d="m 445.587,1393.51 c 0,2.43 -10.375,4.4 -23.174,4.4 -12.798,0 -23.173,-1.97 -23.173,-4.4 0,-2.43 10.375,-4.4 23.173,-4.4 12.799,0 23.174,1.97 23.174,4.4 z"
             id="path832" />
          <path
             style="fill:none;stroke:#000000;stroke-width:2;stroke-dasharray:2"
             inkscape:connector-curvature="0"
             d="m 399.24,1393.86 23.173,-28.44"
             id="path834" />
          <path
             style="fill:none;stroke:#000000;stroke-width:2;stroke-dasharray:2"
             inkscape:connector-curvature="0"
             d="m 422.413,1365.42 23.174,28.44"
             id="path836" />
        </g>
        <g
           id="g838">
          <path
             style="fill:#a544fd;stroke:#000000;stroke-width:2"
             inkscape:connector-curvature="0"
             d="m 399.277,1335 23.173,28.44 23.174,-28.44"
             id="path840" />
          <path
             style="fill:#7d00fd;stroke:#000000;stroke-width:2"
             inkscape:connector-curvature="0"
             d="m 445.624,1335 c 0,2.43 -10.375,4.4 -23.174,4.4 -12.798,0 -23.173,-1.97 -23.173,-4.4 0,-2.43 10.375,-4.4 23.173,-4.4 12.799,0 23.174,1.97 23.174,4.4 z"
             id="path842" />
        </g>
      </g>
    </g>
  </g>
</svg>
