<?xml version="1.0" encoding="UTF-8" standalone="no"?>
<!-- Created with Inkscape (http://www.inkscape.org/) -->

<svg
   xmlns:dc="http://purl.org/dc/elements/1.1/"
   xmlns:cc="http://creativecommons.org/ns#"
   xmlns:rdf="http://www.w3.org/1999/02/22-rdf-syntax-ns#"
   xmlns:svg="http://www.w3.org/2000/svg"
   xmlns="http://www.w3.org/2000/svg"
   xmlns:sodipodi="http://sodipodi.sourceforge.net/DTD/sodipodi-0.dtd"
   xmlns:inkscape="http://www.inkscape.org/namespaces/inkscape"
   width="295.82571"
   height="284.84375"
   id="svg4410"
   version="1.1"
   inkscape:version="0.48.4 r9939"
   sodipodi:docname="New document 8">
  <defs
     id="defs4412">
    <clipPath
       id="7fc8750e76b0">
      <path
         style="fill:#000000;fill-opacity:0.35"
         inkscape:connector-curvature="0"
         d="m 147.108,1798.32 21.009,0 0,-21.99 -21.009,0 z"
         id="path685" />
    </clipPath>
    <clipPath
       id="7fc8750f1fe0">
      <path
         style="fill:#000000;fill-opacity:0.35"
         inkscape:connector-curvature="0"
         d="m 147.108,1798.32 22,0 0,-22 -22,0 z"
         id="path690" />
    </clipPath>
    <clipPath
       id="7fc8750d5e30">
      <path
         style="fill:#000000;fill-opacity:0.35"
         inkscape:connector-curvature="0"
         d="m 36.5619,1692.27 21.009,0 0,-22 -21.009,0 z"
         id="path699" />
    </clipPath>
    <clipPath
       id="7fc87509a7c0">
      <path
         style="fill:#000000;fill-opacity:0.35"
         inkscape:connector-curvature="0"
         d="m 36.5619,1692.27 21,0 0,-22 -21,0 z"
         id="path704" />
    </clipPath>
    <clipPath
       id="7fc8747f8c00">
      <path
         style="fill:#000000;fill-opacity:0.35"
         inkscape:connector-curvature="0"
         d="m 285.878,1752.02 21.009,0 0,-25 -21.009,0 z"
         id="path713" />
    </clipPath>
    <clipPath
       id="7fc875007160">
      <path
         style="fill:#000000;fill-opacity:0.35"
         inkscape:connector-curvature="0"
         d="m 285.878,1752.02 21,0 0,-25 -21,0 z"
         id="path718" />
    </clipPath>
    <clipPath
       id="7fc874775840">
      <path
         style="fill:#000000;fill-opacity:0.35"
         inkscape:connector-curvature="0"
         d="m 233.554,1792.74 12.994,0 0,-11 -12.994,0 z"
         id="path727" />
    </clipPath>
    <clipPath
       id="7fc874220000">
      <path
         style="fill:#000000;fill-opacity:0.35"
         inkscape:connector-curvature="0"
         d="m 233.554,1792.74 13,0 0,-11 -13,0 z"
         id="path732" />
    </clipPath>
    <clipPath
       id="7fc87421f540">
      <path
         style="fill:#000000;fill-opacity:0.35"
         inkscape:connector-curvature="0"
         d="m 320.086,1703.88 12.994,0 0,-11 -12.994,0 z"
         id="path739" />
    </clipPath>
    <clipPath
       id="7fc87505cee0">
      <path
         style="fill:#000000;fill-opacity:0.35"
         inkscape:connector-curvature="0"
         d="m 320.086,1703.88 13,0 0,-11 -13,0 z"
         id="path744" />
    </clipPath>
    <clipPath
       id="7fc875032ed0">
      <path
         style="fill:#000000;fill-opacity:0.35"
         inkscape:connector-curvature="0"
         d="m 40.6625,1596.33 12.9942,0 0,-10.99 -12.9942,0 z"
         id="path755" />
    </clipPath>
    <clipPath
       id="7fc874796bb0">
      <path
         style="fill:#000000;fill-opacity:0.35"
         inkscape:connector-curvature="0"
         d="m 40.6625,1596.33 13,0 0,-11 -13,0 z"
         id="path760" />
    </clipPath>
  </defs>
  <sodipodi:namedview
     id="base"
     pagecolor="#ffffff"
     bordercolor="#666666"
     borderopacity="1.0"
     inkscape:pageopacity="0.0"
     inkscape:pageshadow="2"
     inkscape:zoom="0.86377106"
     inkscape:cx="275.6824"
     inkscape:cy="56.170309"
     inkscape:document-units="px"
     inkscape:current-layer="layer1"
     showgrid="false"
     fit-margin-top="0"
     fit-margin-left="0"
     fit-margin-right="0"
     fit-margin-bottom="0"
     inkscape:window-width="1855"
     inkscape:window-height="1056"
     inkscape:window-x="65"
     inkscape:window-y="24"
     inkscape:window-maximized="1" />
  <metadata
     id="metadata4415">
    <rdf:RDF>
      <cc:Work
         rdf:about="">
        <dc:format>image/svg+xml</dc:format>
        <dc:type
           rdf:resource="http://purl.org/dc/dcmitype/StillImage" />
        <dc:title></dc:title>
      </cc:Work>
    </rdf:RDF>
  </metadata>
  <g
     inkscape:label="Layer 1"
     inkscape:groupmode="layer"
     id="layer1"
     transform="translate(-96.36484,-297.50765)">
    <g
       transform="translate(59.19054,-1215.1486)"
       id="g660">
      <path
         style="fill:#000000"
         inkscape:connector-curvature="0"
         d="m 64.7532,1787.37 c 0,-1.61 -0.0899,-3.22 -0.8088,-4.72 -0.9286,-1.95 -2.5762,-2.26 -3.43,-2.26 -1.2132,0 -2.681,0.52 -3.5198,2.39 -0.644,1.4 -0.7489,2.97 -0.7489,4.59 0,1.52 0.0899,3.34 0.9137,4.86 0.8687,1.65 2.3515,2.06 3.3401,2.06 1.0784,0 2.6211,-0.44 3.5048,-2.35 0.659,-1.4 0.7489,-2.97 0.7489,-4.57 z m -4.2537,6.47 c -0.7939,0 -1.9771,-0.51 -2.3516,-2.44 -0.2247,-1.22 -0.2247,-3.07 -0.2247,-4.27 0,-1.29 0,-2.62 0.1648,-3.72 0.3895,-2.39 1.9022,-2.59 2.4115,-2.59 0.659,0 1.992,0.38 2.3814,2.37 0.1948,1.14 0.1948,2.66 0.1948,3.94 0,1.51 0,2.89 -0.2097,4.18 -0.3145,1.93 -1.4679,2.53 -2.3665,2.53"
         id="path662" />
      <path
         style="fill:none;stroke:#000000;stroke-width:1.5"
         inkscape:connector-curvature="0"
         d="m 61.1666,1589.93 180.8334,0 0,178.99 -180.8334,0 z"
         id="path664" />
      <path
         style="fill:none;stroke:#000000;stroke-width:1.5"
         inkscape:connector-curvature="0"
         d="m 242,1768.92 70,-72.28"
         id="path666" />
      <path
         style="fill:none;stroke:#000000;stroke-width:1.5;stroke-dasharray:2"
         inkscape:connector-curvature="0"
         d="m 61.1666,1768.92 71.7504,-72.28"
         id="path668" />
      <path
         style="fill:none;stroke:#000000;stroke-width:1.5"
         inkscape:connector-curvature="0"
         d="m 61.1666,1589.93 71.7504,-71.85"
         id="path670" />
      <path
         style="fill:none;stroke:#000000;stroke-width:1.5"
         inkscape:connector-curvature="0"
         d="m 242,1589.93 70,-71.85"
         id="path672" />
      <path
         style="fill:none;stroke:#000000;stroke-width:1.5;stroke-dasharray:2"
         inkscape:connector-curvature="0"
         d="m 132.917,1518.08 0,178.56"
         id="path674" />
      <path
         style="fill:none;stroke:#000000;stroke-width:1.5;stroke-dasharray:2"
         inkscape:connector-curvature="0"
         d="m 132.917,1697.64 179.083,0"
         id="path676" />
      <path
         style="fill:none;stroke:#000000;stroke-width:1.5"
         inkscape:connector-curvature="0"
         d="m 132.917,1518.08 179.083,0"
         id="path678" />
      <path
         style="fill:none;stroke:#000000;stroke-width:1.5"
         inkscape:connector-curvature="0"
         d="m 312,1518.08 0,178.56"
         id="path680" />
      <g
         clip-path="url(#7fc8750e76b0)"
         id="g682">
        <clipPath
           id="clipPath4332">
          <path
             style="fill:#000000;fill-opacity:0.35"
             inkscape:connector-curvature="0"
             d="m 147.108,1798.32 21.009,0 0,-21.99 -21.009,0 z"
             id="path4334" />
        </clipPath>
        <g
           clip-path="url(#7fc8750f1fe0)"
           id="g687">
          <clipPath
             id="clipPath4337">
            <path
               style="fill:#000000;fill-opacity:0.35"
               inkscape:connector-curvature="0"
               d="m 147.108,1798.32 22,0 0,-22 -22,0 z"
               id="path4339" />
          </clipPath>
          <path
             style="fill:#000000"
             inkscape:connector-curvature="0"
             d="m 152.753,1777.44 c 0,-0.02 0,-0.26 -0.32,-0.26 -0.532,0 -2.289,0.18 -2.902,0.24 -0.186,0.02 -0.453,0.05 -0.453,0.48 0,0.26 0.213,0.26 0.586,0.26 1.145,0 1.172,0.19 1.172,0.43 l -0.053,0.48 -3.462,13.71 c -0.106,0.35 -0.106,0.4 -0.106,0.53 0,0.56 0.479,0.67 0.692,0.67 0.319,0 0.666,-0.21 0.825,-0.51 0.107,-0.21 1.172,-4.6 1.332,-5.21 0.798,0.08 2.769,0.45 2.769,2.02 0,0.19 0,0.27 -0.08,0.5 -0.053,0.3 -0.106,0.59 -0.106,0.83 0,1.41 0.958,2.37 2.21,2.37 0.719,0 1.358,-0.37 1.864,-1.25 0.612,-1.07 0.878,-2.37 0.878,-2.42 0,-0.24 -0.213,-0.24 -0.293,-0.24 -0.239,0 -0.266,0.1 -0.346,0.42 -0.452,1.76 -1.012,2.96 -2.05,2.96 -0.453,0 -0.772,-0.27 -0.772,-1.12 0,-0.4 0.08,-0.93 0.186,-1.33 0.107,-0.4 0.107,-0.51 0.107,-0.75 0,-1.54 -1.518,-2.23 -3.542,-2.5 0.746,-0.43 1.518,-1.17 2.05,-1.76 1.145,-1.25 2.237,-2.29 3.409,-2.29 0.16,0 0.16,0 0.213,0.03 0.293,0.05 0.319,0.05 0.506,0.19 0.053,0.02 0.053,0.05 0.106,0.1 -1.145,0.08 -1.358,0.99 -1.358,1.28 0,0.37 0.24,0.83 0.906,0.83 0.612,0 1.304,-0.51 1.304,-1.44 0,-0.72 -0.559,-1.52 -1.624,-1.52 -0.666,0 -1.757,0.21 -3.488,2.1 -0.799,0.91 -1.731,1.87 -2.636,2.21 l 2.476,-10.04"
             id="path692" />
          <path
             style="fill:#000000"
             inkscape:connector-curvature="0"
             d="m 162.499,1795.55 c -0.187,0.56 -0.719,1.47 -1.598,1.47 -0.027,0 -0.533,0 -0.905,-0.24 0.692,-0.22 0.745,-0.83 0.745,-0.91 0,-0.37 -0.293,-0.64 -0.665,-0.64 -0.48,0 -0.959,0.4 -0.959,1.04 0,0.83 0.932,1.23 1.757,1.23 0.773,0 1.465,-0.51 1.891,-1.2 0.399,0.88 1.331,1.2 1.997,1.2 1.944,0 2.956,-2.11 2.956,-2.59 0,-0.21 -0.213,-0.21 -0.267,-0.21 -0.239,0 -0.239,0.08 -0.319,0.29 -0.346,1.15 -1.358,2.03 -2.29,2.03 -0.692,0 -1.039,-0.46 -1.039,-1.1 0,-0.42 0.4,-1.97 0.879,-3.83 0.346,-1.28 1.092,-1.7 1.651,-1.7 0.027,0 0.559,0 0.905,0.24 -0.532,0.13 -0.745,0.61 -0.745,0.9 0,0.37 0.293,0.64 0.666,0.64 0.399,0 0.958,-0.32 0.958,-1.04 0,-0.93 -1.092,-1.22 -1.757,-1.22 -0.826,0 -1.518,0.56 -1.891,1.19 -0.293,-0.69 -1.065,-1.19 -1.997,-1.19 -1.891,0 -2.982,2.07 -2.982,2.58 0,0.21 0.239,0.21 0.293,0.21 0.213,0 0.239,-0.08 0.319,-0.29 0.426,-1.31 1.491,-2.02 2.317,-2.02 0.559,0 1.012,0.29 1.012,1.09 0,0.34 -0.213,1.2 -0.373,1.75 l -0.559,2.32"
             id="path694" />
        </g>
      </g>
      <g
         clip-path="url(#7fc8750d5e30)"
         id="g696">
        <clipPath
           id="clipPath4344">
          <path
             style="fill:#000000;fill-opacity:0.35"
             inkscape:connector-curvature="0"
             d="m 36.5619,1692.27 21.009,0 0,-22 -21.009,0 z"
             id="path4346" />
        </clipPath>
        <g
           clip-path="url(#7fc87509a7c0)"
           id="g701">
          <clipPath
             id="clipPath4349">
            <path
               style="fill:#000000;fill-opacity:0.35"
               inkscape:connector-curvature="0"
               d="m 36.5619,1692.27 21,0 0,-22 -21,0 z"
               id="path4351" />
          </clipPath>
          <path
             style="fill:#000000"
             inkscape:connector-curvature="0"
             d="m 42.7128,1671.39 c 0,-0.02 0,-0.26 -0.3195,-0.26 -0.5592,0 -2.29,0.18 -2.9024,0.24 -0.1864,0.02 -0.4527,0.05 -0.4527,0.48 0,0.26 0.213,0.26 0.5592,0.26 1.145,0 1.1982,0.19 1.1982,0.43 l -0.0799,0.48 -3.4349,13.71 c -0.1065,0.35 -0.1065,0.4 -0.1065,0.53 0,0.56 0.4793,0.67 0.6923,0.67 0.3195,0 0.6657,-0.21 0.7988,-0.51 0.1332,-0.21 1.1983,-4.6 1.358,-5.22 0.7989,0.08 2.7427,0.46 2.7427,2.03 0,0.18 0,0.26 -0.0533,0.5 -0.0533,0.3 -0.1065,0.59 -0.1065,0.83 0,1.41 0.9586,2.37 2.2101,2.37 0.6923,0 1.358,-0.37 1.8639,-1.25 0.6124,-1.07 0.8787,-2.37 0.8787,-2.43 0,-0.24 -0.2397,-0.24 -0.2929,-0.24 -0.2396,0 -0.2663,0.11 -0.3462,0.43 -0.4792,1.76 -1.0118,2.96 -2.0769,2.96 -0.4527,0 -0.7456,-0.27 -0.7456,-1.12 0,-0.4 0.0799,-0.93 0.1864,-1.33 0.0799,-0.4 0.0799,-0.51 0.0799,-0.75 0,-1.54 -1.4911,-2.24 -3.5148,-2.5 0.7455,-0.43 1.4911,-1.17 2.0503,-1.76 1.145,-1.25 2.2367,-2.29 3.4083,-2.29 0.1332,0 0.1597,0 0.213,0.03 0.293,0.05 0.3195,0.05 0.506,0.18 0.0532,0.03 0.0532,0.06 0.0799,0.11 -1.145,0.08 -1.358,0.99 -1.358,1.28 0,0.37 0.2662,0.82 0.9053,0.82 0.639,0 1.3313,-0.5 1.3313,-1.43 0,-0.72 -0.5591,-1.52 -1.6242,-1.52 -0.6657,0 -1.7841,0.21 -3.4882,2.1 -0.7989,0.91 -1.7308,1.87 -2.6362,2.21 l 2.4764,-10.04"
             id="path706" />
          <path
             style="fill:#000000"
             inkscape:connector-curvature="0"
             d="m 51.1803,1689.79 c 0.4527,-0.45 0.7456,-0.77 2.1835,-1.89 0.3461,-0.29 1.5976,-1.3 2.1036,-1.78 1.0118,-1.01 1.6508,-1.87 1.6508,-2.05 0,-0.22 -0.2129,-0.22 -0.2928,-0.22 -0.1332,0 -0.1865,0.03 -0.2663,0.16 -0.5326,0.78 -0.8787,1.04 -1.2782,1.04 -0.213,0 -0.4526,-0.02 -0.9585,-0.5 -0.5858,-0.59 -0.9586,-0.7 -1.3314,-0.7 -1.358,0 -2.2634,1.47 -2.2634,1.98 0,0.16 0.1865,0.18 0.2929,0.18 0.2131,0 0.2397,-0.02 0.293,-0.21 0.2662,-0.59 1.1982,-0.64 1.4645,-0.64 0.3994,0 0.8254,0.11 1.0651,0.16 0.932,0.21 1.0384,0.21 1.4645,0.21 -0.4261,0.46 -0.7456,0.75 -2.3432,2.03 -1.3048,1.03 -1.7574,1.46 -2.077,1.78 -1.0118,1.01 -1.4911,1.76 -1.4911,1.89 0,0.21 0.213,0.21 0.2663,0.21 0.1864,0 0.213,-0.02 0.2928,-0.18 0.4527,-0.64 0.9853,-1.01 1.5445,-1.01 0.213,0 0.4526,0.02 0.9053,0.42 0.5325,0.51 0.8787,0.77 1.4112,0.77 1.7841,0 2.9291,-2.05 2.9291,-2.61 0,-0.21 -0.1864,-0.21 -0.2929,-0.21 -0.213,0 -0.2397,0.08 -0.2929,0.27 -0.3196,0.82 -1.3314,1.25 -2.1569,1.25 -0.3727,0 -0.7988,-0.11 -1.2248,-0.19 -0.7723,-0.18 -0.9054,-0.18 -1.1983,-0.18 -0.0266,0 -0.2928,0 -0.3994,0.02"
             id="path708" />
        </g>
      </g>
      <g
         clip-path="url(#7fc8747f8c00)"
         id="g710">
        <clipPath
           id="clipPath4356">
          <path
             style="fill:#000000;fill-opacity:0.35"
             inkscape:connector-curvature="0"
             d="m 285.878,1752.02 21.009,0 0,-25 -21.009,0 z"
             id="path4358" />
        </clipPath>
        <g
           clip-path="url(#7fc875007160)"
           id="g715">
          <clipPath
             id="clipPath4361">
            <path
               style="fill:#000000;fill-opacity:0.35"
               inkscape:connector-curvature="0"
               d="m 285.878,1752.02 21,0 0,-25 -21,0 z"
               id="path4363" />
          </clipPath>
          <path
             style="fill:#000000"
             inkscape:connector-curvature="0"
             d="m 291.816,1728.14 c 0,-0.03 0,-0.27 -0.293,-0.27 -0.559,0 -2.29,0.19 -2.929,0.24 -0.186,0.03 -0.453,0.05 -0.453,0.48 0,0.29 0.213,0.29 0.586,0.29 1.145,0 1.198,0.16 1.198,0.4 l -0.08,0.48 -3.461,13.74 c -0.107,0.32 -0.107,0.37 -0.107,0.51 0,0.56 0.48,0.66 0.693,0.66 0.319,0 0.692,-0.21 0.825,-0.48 0.107,-0.21 1.198,-4.63 1.332,-5.22 0.798,0.06 2.769,0.46 2.769,2.03 0,0.16 0,0.24 -0.08,0.48 -0.053,0.29 -0.08,0.58 -0.08,0.85 0,1.41 0.932,2.34 2.184,2.34 0.718,0 1.358,-0.37 1.89,-1.25 0.586,-1.04 0.852,-2.37 0.852,-2.4 0,-0.24 -0.213,-0.24 -0.293,-0.24 -0.239,0 -0.266,0.08 -0.319,0.43 -0.48,1.73 -1.039,2.96 -2.077,2.96 -0.453,0 -0.772,-0.27 -0.772,-1.12 0,-0.43 0.106,-0.96 0.186,-1.33 0.106,-0.43 0.106,-0.51 0.106,-0.75 0,-1.54 -1.517,-2.24 -3.541,-2.5 0.746,-0.43 1.518,-1.2 2.05,-1.79 1.145,-1.25 2.264,-2.26 3.409,-2.26 0.159,0 0.186,0 0.213,0 0.293,0.05 0.319,0.05 0.506,0.21 0.053,0 0.053,0.03 0.106,0.08 -1.145,0.08 -1.358,1.02 -1.358,1.28 0,0.4 0.266,0.85 0.905,0.85 0.613,0 1.305,-0.53 1.305,-1.46 0,-0.72 -0.532,-1.49 -1.624,-1.49 -0.666,0 -1.758,0.18 -3.462,2.1 -0.825,0.91 -1.757,1.84 -2.662,2.21 l 2.476,-10.06"
             id="path720" />
          <path
             style="fill:#000000"
             inkscape:connector-curvature="0"
             d="m 306.727,1741.69 c 0.054,-0.24 0.054,-0.27 0.054,-0.37 0,-0.35 -0.267,-0.54 -0.533,-0.54 -0.186,0 -0.506,0.08 -0.692,0.4 -0.054,0.11 -0.187,0.64 -0.267,0.96 l -0.372,1.41 c -0.08,0.4 -0.613,2.53 -0.666,2.69 -0.027,0 -0.746,1.47 -2.077,1.47 -1.145,0 -1.145,-1.09 -1.145,-1.39 0,-0.9 0.399,-1.97 0.905,-3.27 0.213,-0.53 0.293,-0.72 0.293,-1.01 0,-0.8 -0.692,-1.44 -1.597,-1.44 -1.705,0 -2.45,2.29 -2.45,2.58 0,0.21 0.213,0.21 0.266,0.21 0.24,0 0.266,-0.08 0.32,-0.26 0.399,-1.39 1.145,-2.05 1.81,-2.05 0.293,0 0.426,0.18 0.426,0.58 0,0.4 -0.159,0.75 -0.239,0.99 -0.799,2.05 -0.985,2.66 -0.985,3.41 0,0.29 0,1.06 0.665,1.59 0.506,0.46 1.225,0.54 1.678,0.54 0.665,0 1.278,-0.24 1.837,-0.75 -0.213,0.91 -0.399,1.63 -1.118,2.45 -0.453,0.53 -1.119,1.09 -2.024,1.09 -0.107,0 -0.905,0 -1.252,-0.56 0.906,-0.1 0.906,-0.9 0.906,-0.93 0,-0.53 -0.479,-0.64 -0.639,-0.64 -0.426,0 -0.985,0.35 -0.985,1.12 0,0.85 0.798,1.47 1.997,1.47 1.704,0 3.754,-1.31 4.287,-3.41 l 1.597,-6.34"
             id="path722" />
        </g>
      </g>
      <g
         clip-path="url(#7fc874775840)"
         id="g724">
        <clipPath
           id="clipPath4368">
          <path
             style="fill:#000000;fill-opacity:0.35"
             inkscape:connector-curvature="0"
             d="m 233.554,1792.74 12.994,0 0,-11 -12.994,0 z"
             id="path4370" />
        </clipPath>
        <g
           clip-path="url(#7fc874220000)"
           id="g729">
          <clipPath
             id="clipPath4373">
            <path
               style="fill:#000000;fill-opacity:0.35"
               inkscape:connector-curvature="0"
               d="m 233.554,1792.74 13,0 0,-11 -13,0 z"
               id="path4375" />
          </clipPath>
          <path
             style="fill:#000000"
             inkscape:connector-curvature="0"
             d="m 239.279,1783.45 2.689,0 c -0.799,3.54 -1.012,4.55 -1.012,6.15 0,0.35 0,1.01 0.187,1.81 0.239,1.04 0.506,1.2 0.879,1.2 0.479,0 0.958,-0.43 0.958,-0.91 0,-0.16 0,-0.18 -0.133,-0.53 -0.692,-1.7 -0.692,-3.27 -0.692,-3.94 0,-1.25 0.159,-2.53 0.426,-3.78 l 2.716,0 c 0.319,0 1.171,0 1.171,-0.8 0,-0.59 -0.506,-0.59 -0.958,-0.59 l -7.989,0 c -0.505,0 -1.411,0 -2.476,1.12 -0.825,0.93 -1.438,2.03 -1.438,2.16 0,0.03 0,0.24 0.267,0.24 0.186,0 0.239,-0.11 0.399,-0.29 1.172,-1.84 2.53,-1.84 3.009,-1.84 l 1.358,0 c -0.746,2.87 -2.05,5.78 -3.036,7.93 -0.186,0.38 -0.186,0.4 -0.186,0.59 0,0.45 0.373,0.64 0.692,0.64 0.693,0 0.906,-0.67 1.172,-1.55 0.346,-1.11 0.346,-1.14 0.639,-2.34 l 1.358,-5.27"
             id="path734" />
        </g>
      </g>
      <g
         clip-path="url(#7fc87421f540)"
         id="g736">
        <clipPath
           id="clipPath4379">
          <path
             style="fill:#000000;fill-opacity:0.35"
             inkscape:connector-curvature="0"
             d="m 320.086,1703.88 12.994,0 0,-11 -12.994,0 z"
             id="path4381" />
        </clipPath>
        <g
           clip-path="url(#7fc87505cee0)"
           id="g741">
          <clipPath
             id="clipPath4384">
            <path
               style="fill:#000000;fill-opacity:0.35"
               inkscape:connector-curvature="0"
               d="m 320.086,1703.88 13,0 0,-11 -13,0 z"
               id="path4386" />
          </clipPath>
          <path
             style="fill:#000000"
             inkscape:connector-curvature="0"
             d="m 325.811,1694.58 2.689,0 c -0.799,3.55 -1.012,4.56 -1.012,6.16 0,0.34 0,1.01 0.187,1.81 0.239,1.04 0.505,1.19 0.878,1.19 0.48,0 0.959,-0.42 0.959,-0.9 0,-0.16 0,-0.19 -0.133,-0.53 -0.693,-1.71 -0.693,-3.28 -0.693,-3.94 0,-1.26 0.16,-2.53 0.426,-3.79 l 2.716,0 c 0.32,0 1.172,0 1.172,-0.79 0,-0.59 -0.506,-0.59 -0.959,-0.59 l -7.988,0 c -0.506,0 -1.411,0 -2.476,1.12 -0.826,0.93 -1.438,2.02 -1.438,2.16 0,0.02 0,0.24 0.266,0.24 0.187,0 0.24,-0.11 0.4,-0.3 1.171,-1.84 2.529,-1.84 3.009,-1.84 l 1.358,0 c -0.746,2.88 -2.051,5.78 -3.036,7.94 -0.186,0.37 -0.186,0.4 -0.186,0.59 0,0.45 0.372,0.63 0.692,0.63 0.692,0 0.905,-0.66 1.172,-1.54 0.346,-1.12 0.346,-1.14 0.639,-2.34 l 1.358,-5.28"
             id="path746" />
        </g>
      </g>
      <path
         style="fill:#000000"
         inkscape:connector-curvature="0"
         d="m 264.741,1770.31 c 0,-1.61 -0.09,-3.22 -0.809,-4.72 -0.929,-1.95 -2.576,-2.26 -3.43,-2.26 -1.213,0 -2.681,0.52 -3.52,2.39 -0.644,1.4 -0.749,2.97 -0.749,4.59 0,1.52 0.09,3.34 0.914,4.86 0.869,1.65 2.352,2.06 3.34,2.06 1.079,0 2.621,-0.44 3.505,-2.36 0.659,-1.39 0.749,-2.96 0.749,-4.56 z m -4.254,6.47 c -0.794,0 -1.977,-0.51 -2.351,-2.45 -0.225,-1.21 -0.225,-3.07 -0.225,-4.26 0,-1.29 0,-2.62 0.165,-3.72 0.389,-2.39 1.902,-2.59 2.411,-2.59 0.659,0 1.992,0.38 2.382,2.37 0.194,1.14 0.194,2.66 0.194,3.94 0,1.51 0,2.89 -0.209,4.18 -0.315,1.93 -1.468,2.53 -2.367,2.53"
         id="path748" />
      <path
         style="fill:#000000"
         inkscape:connector-curvature="0"
         d="m 51.4,1770.1 c 0,-1.6 -0.0898,-3.22 -0.8088,-4.71 -0.9286,-1.95 -2.5762,-2.26 -3.43,-2.26 -1.2132,0 -2.681,0.52 -3.5198,2.39 -0.644,1.39 -0.7489,2.97 -0.7489,4.58 0,1.53 0.0899,3.34 0.9137,4.87 0.8687,1.65 2.3515,2.05 3.3401,2.05 1.0784,0 2.6211,-0.43 3.5048,-2.35 0.6591,-1.39 0.7489,-2.96 0.7489,-4.57 z m -4.2537,6.48 c -0.7938,0 -1.9771,-0.51 -2.3516,-2.45 -0.2246,-1.21 -0.2246,-3.07 -0.2246,-4.26 0,-1.29 0,-2.63 0.1647,-3.72 0.3895,-2.4 1.9022,-2.59 2.4115,-2.59 0.659,0 1.992,0.37 2.3815,2.37 0.1947,1.13 0.1947,2.66 0.1947,3.94 0,1.51 0,2.89 -0.2097,4.17 -0.3145,1.94 -1.4679,2.54 -2.3665,2.54"
         id="path750" />
      <g
         clip-path="url(#7fc875032ed0)"
         id="g752">
        <clipPath
           id="clipPath4392">
          <path
             style="fill:#000000;fill-opacity:0.35"
             inkscape:connector-curvature="0"
             d="m 40.6625,1596.33 12.9942,0 0,-10.99 -12.9942,0 z"
             id="path4394" />
        </clipPath>
        <g
           clip-path="url(#7fc874796bb0)"
           id="g757">
          <clipPath
             id="clipPath4397">
            <path
               style="fill:#000000;fill-opacity:0.35"
               inkscape:connector-curvature="0"
               d="m 40.6625,1596.33 13,0 0,-11 -13,0 z"
               id="path4399" />
          </clipPath>
          <path
             style="fill:#000000"
             inkscape:connector-curvature="0"
             d="m 46.3874,1587.04 2.6894,0 c -0.7989,3.54 -1.0119,4.55 -1.0119,6.15 0,0.35 0,1.01 0.1864,1.81 0.2397,1.04 0.5059,1.2 0.8787,1.2 0.4793,0 0.9586,-0.43 0.9586,-0.91 0,-0.15 0,-0.18 -0.1331,-0.53 -0.6923,-1.7 -0.6923,-3.27 -0.6923,-3.94 0,-1.25 0.1597,-2.53 0.426,-3.78 l 2.716,0 c 0.3195,0 1.1716,0 1.1716,-0.8 0,-0.58 -0.5059,-0.58 -0.9586,-0.58 l -7.9882,0 c -0.506,0 -1.4113,0 -2.4764,1.11 -0.8254,0.94 -1.4379,2.03 -1.4379,2.16 0,0.03 0,0.24 0.2663,0.24 0.1864,0 0.2397,-0.11 0.3994,-0.29 1.1716,-1.84 2.5296,-1.84 3.0089,-1.84 l 1.358,0 c -0.7455,2.88 -2.0503,5.78 -3.0355,7.94 -0.1864,0.37 -0.1864,0.39 -0.1864,0.58 0,0.45 0.3728,0.64 0.6923,0.64 0.6923,0 0.9053,-0.67 1.1716,-1.54 0.3462,-1.12 0.3462,-1.15 0.6391,-2.35 l 1.358,-5.27"
             id="path762" />
        </g>
      </g>
      <path
         style="stroke:#000000;stroke-width:2"
         inkscape:connector-curvature="0"
         d="m 61.4994,1586.09 c -2.2091,0 -4,1.79 -4,4 0,2.21 1.7909,4 4,4 2.2092,0 4,-1.79 4,-4 0,-2.21 -1.7908,-4 -4,-4 z"
         id="path764" />
      <path
         style="stroke:#000000;stroke-width:2"
         inkscape:connector-curvature="0"
         d="m 242,1585.66 c -2.209,0 -4,1.79 -4,4 0,2.2 1.791,4 4,4 2.209,0 4,-1.8 4,-4 0,-2.21 -1.791,-4 -4,-4 z"
         id="path766" />
      <path
         style="stroke:#000000;stroke-width:2"
         inkscape:connector-curvature="0"
         d="m 242,1765.66 c -2.209,0 -4,1.79 -4,4 0,2.2 1.791,4 4,4 2.209,0 4,-1.8 4,-4 0,-2.21 -1.791,-4 -4,-4 z"
         id="path768" />
      <path
         style="stroke:#000000;stroke-width:2"
         inkscape:connector-curvature="0"
         d="m 62,1765.66 c -2.2091,0 -4,1.79 -4,4 0,2.2 1.7909,4 4,4 2.2091,0 4,-1.8 4,-4 0,-2.21 -1.7909,-4 -4,-4 z"
         id="path770" />
      <path
         style="stroke:#000000;stroke-width:2"
         inkscape:connector-curvature="0"
         d="m 134,1693.66 c -2.209,0 -4,1.79 -4,4 0,2.2 1.791,4 4,4 2.209,0 4,-1.8 4,-4 0,-2.21 -1.791,-4 -4,-4 z"
         id="path772" />
      <path
         style="stroke:#000000;stroke-width:2"
         inkscape:connector-curvature="0"
         d="m 314,1693.66 c -2.209,0 -4,1.79 -4,4 0,2.2 1.791,4 4,4 2.209,0 4,-1.8 4,-4 0,-2.21 -1.791,-4 -4,-4 z"
         id="path774" />
      <path
         style="stroke:#000000;stroke-width:2"
         inkscape:connector-curvature="0"
         d="m 312,1513.66 c -2.209,0 -4,1.79 -4,4 0,2.2 1.791,4 4,4 2.209,0 4,-1.8 4,-4 0,-2.21 -1.791,-4 -4,-4 z"
         id="path776" />
      <path
         style="stroke:#000000;stroke-width:2"
         inkscape:connector-curvature="0"
         d="m 134,1513.66 c -2.209,0 -4,1.79 -4,4 0,2.2 1.791,4 4,4 2.209,0 4,-1.8 4,-4 0,-2.21 -1.791,-4 -4,-4 z"
         id="path778" />
    </g>
  </g>
</svg>
