<?xml version="1.0" encoding="UTF-8" standalone="no"?>
<!DOCTYPE svg PUBLIC "-//W3C//DTD SVG 1.1//EN" "http://www.w3.org/Graphics/SVG/1.1/DTD/svg11.dtd">
<!--Generated by Intaglio, www.PurgatoryDesign.com-->
<svg version="1.1" viewBox="36,67,564,332" width="564" height="332" xmlns="http://www.w3.org/2000/svg" xmlns:xlink="http://www.w3.org/1999/xlink"><g><path fill="none" stroke="#000100" stroke-width="2" stroke-linecap="round" d="M425.223,350.452 C429.823,350.333,434.078,349.802,437,347 C445.469,338.879,447.4,324.9,453,313"/><path fill="#000100" d="M425.999,355.427 C421.765,354.019,417.752,351.978,413.375,351 C417.262,348.665,421.614,347.341,425.701,345.432"/></g><g><path fill="none" stroke="#000100" stroke-width="2" stroke-linecap="round" d="M410.796,205.028 C415.565,191.378,408.672,183.253,417.421,173.028 C426.041,162.953,432.524,150.871,440.421,149.028 C441.438,148.791,444.117,149.624,446.879,150.978"/><path fill="#000100" d="M444.221,155.25 C447.715,155.625,452.638,154.968,454.421,159.028 C456.382,153.616,451.416,149.684,448.419,146.174"/></g><path fill="none" stroke="#000100" stroke-dasharray="2" d="M154.5,201 L412,201"/><path fill="#d20000" stroke="#000100" stroke-width="2" d="M154.5,196.5 C152.084,196.5,150.125,198.515,150.125,201 C150.125,203.485,152.084,205.5,154.5,205.5 C156.916,205.5,158.875,203.485,158.875,201 C158.875,198.515,156.916,196.5,154.5,196.5 Z"/><path fill="none" stroke="#000100" d="M254,398 L254,182 L37,182 L37,398 L254,398 Z"/><path fill="none" stroke="#000100" d="M37,182 L109,110"/><path fill="none" stroke="#000100" d="M254,398 L326,326"/><path fill="none" stroke="#000100" d="M254,182 L326,110"/><path fill="none" stroke="#000100" d="M397,398 L397,182"/><path fill="none" stroke="#000100" d="M397,398 L469,326"/><path fill="none" stroke="#000100" d="M397,182 L469,110"/><path fill="none" stroke="#000100" d="M469,326 L469,110"/><path fill="none" stroke="#000100" stroke-dasharray="5" d="M37,398 L109,326"/><path fill="#007efd" stroke="#000100" stroke-width="2" d="M213.125,155.5 C210.709,155.5,208.75,157.515,208.75,160 C208.75,162.485,210.709,164.5,213.125,164.5 C215.541,164.5,217.5,162.485,217.5,160 C217.5,157.515,215.541,155.5,213.125,155.5 Z"/><path fill="#d20000" stroke="#000100" stroke-width="2" d="M413.375,196.5 C410.959,196.5,409,198.515,409,201 C409,203.485,410.959,205.5,413.375,205.5 C415.791,205.5,417.75,203.485,417.75,201 C417.75,198.515,415.791,196.5,413.375,196.5 Z"/><path fill="none" stroke="#000100" stroke-dasharray="2" d="M145.5,351 L409,351"/><path fill="#007efd" stroke="#000100" stroke-width="2" d="M413.375,346.5 C410.959,346.5,409,348.515,409,351 C409,353.485,410.959,355.5,413.375,355.5 C415.791,355.5,417.75,353.485,417.75,351 C417.75,348.515,415.791,346.5,413.375,346.5 Z"/><path fill="none" stroke="#000100" stroke-width="0.943067" stroke-dasharray="2" d="M217.5,160 L450.996,160"/><path fill="#007efd" stroke="#000100" stroke-width="1.88613" d="M454.873,155.5 C452.732,155.5,450.996,157.515,450.996,160 C450.996,162.485,452.732,164.5,454.873,164.5 C457.014,164.5,458.75,162.485,458.75,160 C458.75,157.515,457.014,155.5,454.873,155.5 Z"/><path fill="none" stroke="#000100" stroke-dasharray="2" d="M195.5,313 L453,313"/><path fill="#d20000" stroke="#000100" stroke-width="2" d="M195.5,308.5 C193.084,308.5,191.125,310.515,191.125,313 C191.125,315.485,193.084,317.5,195.5,317.5 C197.916,317.5,199.875,315.485,199.875,313 C199.875,310.515,197.916,308.5,195.5,308.5 Z"/><path fill="#d20000" stroke="#000100" stroke-width="2" d="M448.625,308.5 C446.209,308.5,444.25,310.515,444.25,313 C444.25,315.485,446.209,317.5,448.625,317.5 C451.041,317.5,453,315.485,453,313 C453,310.515,451.041,308.5,448.625,308.5 Z"/><path fill="none" stroke="#000100" d="M326,326 L326,110"/><path fill="none" stroke="#000100" stroke-dasharray="5" d="M109,326 L326,326"/><path fill="none" stroke="#000100" stroke-dasharray="5" d="M109,326 L109,110"/><path fill="none" stroke="#000100" d="M109,110 L326,110"/><path fill="#007efd" stroke="#000100" stroke-width="2" d="M145.5,346.5 C143.084,346.5,141.125,348.515,141.125,351 C141.125,353.485,143.084,355.5,145.5,355.5 C147.916,355.5,149.875,353.485,149.875,351 C149.875,348.515,147.916,346.5,145.5,346.5 Z"/><path fill="none" stroke="#000100" d="M432.718,177.01 L496,222.5"/><text font-family="American Typewriter" font-size="30" text-anchor="middle" transform="matrix(0.675,0,0,0.675,539.773,249.494)" xml:space="preserve"><tspan>Fermi arcs</tspan></text><path fill="none" stroke="#000100" d="M450.996,328.255 L496,261"/><text font-family="American Typewriter" font-size="30" text-anchor="middle" transform="matrix(0.675,0,0,0.675,134.415,88.4937)" xml:space="preserve"><tspan>Weyl points</tspan></text><path fill="none" stroke="#000100" d="M141.125,102.51 L204.407,148"/><path fill="none" stroke="#000100" d="M-150.468,28.0097 L-87.186,73.5"/><path fill="none" stroke="#000100" d="M122,102.51 L146,177.01"/><text font-family="American Typewriter" font-size="44" text-anchor="middle" transform="matrix(0.675,0,0,0.675,139.555,224.743)" xml:space="preserve"><tspan>+</tspan></text><text font-family="American Typewriter" font-size="44" text-anchor="middle" transform="matrix(0.675,0,0,0.675,220.99,158.157)" xml:space="preserve"><tspan>-</tspan></text><text font-family="American Typewriter" font-size="44" text-anchor="middle" transform="matrix(0.675,0,0,0.675,201.945,304.518)" xml:space="preserve"><tspan>+</tspan></text><text font-family="American Typewriter" font-size="44" text-anchor="middle" transform="matrix(0.675,0,0,0.675,125.49,362.39)" xml:space="preserve"><tspan>-</tspan></text></svg>
