<?xml version="1.0" encoding="UTF-8" standalone="no"?>
<!-- Created with Inkscape (http://www.inkscape.org/) -->

<svg
   xmlns:dc="http://purl.org/dc/elements/1.1/"
   xmlns:cc="http://creativecommons.org/ns#"
   xmlns:rdf="http://www.w3.org/1999/02/22-rdf-syntax-ns#"
   xmlns:svg="http://www.w3.org/2000/svg"
   xmlns="http://www.w3.org/2000/svg"
   xmlns:sodipodi="http://sodipodi.sourceforge.net/DTD/sodipodi-0.dtd"
   xmlns:inkscape="http://www.inkscape.org/namespaces/inkscape"
   width="522.55902"
   height="299.08548"
   id="svg3424"
   version="1.1"
   inkscape:version="0.48.4 r9939"
   sodipodi:docname="New document 2">
  <defs
     id="defs3426">
    <clipPath
       id="7fc87434a610">
      <path
         style="fill:#000000;fill-opacity:0.35"
         inkscape:connector-curvature="0"
         d="m 623.116,757.261 14.991,0 0,-21.009 -14.991,0 z"
         id="path139" />
    </clipPath>
    <clipPath
       id="7fc874572b90">
      <path
         style="fill:#000000;fill-opacity:0.35"
         inkscape:connector-curvature="0"
         d="m 623.116,757.261 15,0 0,-21 -15,0 z"
         id="path144" />
    </clipPath>
    <clipPath
       id="7fc874363d10">
      <path
         style="fill:#000000;fill-opacity:0.35"
         inkscape:connector-curvature="0"
         d="m 362.967,599.969 54.001,0 0,-30.994 -54.001,0 z"
         id="path151" />
    </clipPath>
    <clipPath
       id="7fc8745444c0">
      <path
         style="fill:#000000;fill-opacity:0.35"
         inkscape:connector-curvature="0"
         d="m 362.967,599.969 54,0 0,-31 -54,0 z"
         id="path156" />
    </clipPath>
    <clipPath
       id="7fc874350b80">
      <path
         style="fill:#000000;fill-opacity:0.35"
         inkscape:connector-curvature="0"
         d="m 671.406,658.921 68.992,0 0,-21.994 -68.992,0 z"
         id="path169" />
    </clipPath>
    <clipPath
       id="7fc874314ae0">
      <path
         style="fill:#000000;fill-opacity:0.35"
         inkscape:connector-curvature="0"
         d="m 671.406,658.921 69,0 0,-22 -69,0 z"
         id="path174" />
    </clipPath>
    <clipPath
       id="7fc8751006c0">
      <path
         style="fill:#000000;fill-opacity:0.35"
         inkscape:connector-curvature="0"
         d="m 670.456,802.875 68.007,0 0,-21.994 -68.007,0 z"
         id="path185" />
    </clipPath>
    <clipPath
       id="7fc87511c1f0">
      <path
         style="fill:#000000;fill-opacity:0.35"
         inkscape:connector-curvature="0"
         d="m 670.456,802.875 68,0 0,-22 -68,0 z"
         id="path190" />
    </clipPath>
    <clipPath
       id="7fc8743422c0">
      <path
         style="fill:#000000;fill-opacity:0.35"
         inkscape:connector-curvature="0"
         d="m 671.526,727.875 68.991,0 0,-21.994 -68.991,0 z"
         id="path201" />
    </clipPath>
    <clipPath
       id="7fc874315af0">
      <path
         style="fill:#000000;fill-opacity:0.35"
         inkscape:connector-curvature="0"
         d="m 671.526,727.875 69,0 0,-22 -69,0 z"
         id="path206" />
    </clipPath>
  </defs>
  <sodipodi:namedview
     id="base"
     pagecolor="#ffffff"
     bordercolor="#666666"
     borderopacity="1.0"
     inkscape:pageopacity="0.0"
     inkscape:pageshadow="2"
     inkscape:zoom="0.86377106"
     inkscape:cx="379.41934"
     inkscape:cy="7.7695108"
     inkscape:document-units="px"
     inkscape:current-layer="layer1"
     showgrid="false"
     fit-margin-top="0"
     fit-margin-left="0"
     fit-margin-right="0"
     fit-margin-bottom="0"
     inkscape:window-width="1855"
     inkscape:window-height="1056"
     inkscape:window-x="65"
     inkscape:window-y="24"
     inkscape:window-maximized="1" />
  <metadata
     id="metadata3429">
    <rdf:RDF>
      <cc:Work
         rdf:about="">
        <dc:format>image/svg+xml</dc:format>
        <dc:type
           rdf:resource="http://purl.org/dc/dcmitype/StillImage" />
        <dc:title></dc:title>
      </cc:Work>
    </rdf:RDF>
  </metadata>
  <g
     inkscape:label="Layer 1"
     inkscape:groupmode="layer"
     id="layer1"
     transform="translate(7.3721,-234.86511)">
    <g
       transform="translate(-224.9971,-334.64289)"
       id="g112">
      <g
         id="g114">
        <path
           style="fill:none;stroke:#000000;stroke-width:1.5"
           inkscape:connector-curvature="0"
           d="m 432.77,867.5 0.287,-293.75"
           id="path116" />
        <path
           style="fill:none;stroke:#000000;stroke-width:1.5"
           inkscape:connector-curvature="0"
           d="m 428.549,582.746 4.508,-8.996 4.492,9.004"
           id="path118" />
      </g>
      <g
         id="g120">
        <path
           style="fill:none;stroke:#000000;stroke-width:1.5"
           inkscape:connector-curvature="0"
           d="m 651.389,722.763 -433.75,0"
           id="path122" />
        <path
           style="fill:none;stroke:#000000;stroke-width:1.5"
           inkscape:connector-curvature="0"
           d="m 642.389,718.263 9,4.5 -9,4.5"
           id="path124" />
      </g>
      <path
         style="fill:none;stroke:#000000;stroke-width:2;stroke-linecap:round"
         inkscape:connector-curvature="0"
         d="m 251.389,867.5 c 13.125,-25 31.776,-49.88 54.375,-70.625 20.057,-18.411 42.213,-30.831 67.5,-41.25 25.682,-10.581 50.284,-15.73 78.125,-18.75 54.846,-5.949 135.164,-8.51 190.507,-10.916"
         id="path126" />
      <path
         style="fill:none;stroke:#0049fd;stroke-width:2"
         inkscape:connector-curvature="0"
         d="m 651.389,652.232 -77.5,0"
         id="path128" />
      <path
         style="fill:none;stroke:#0049fd;stroke-width:2;stroke-linecap:round"
         inkscape:connector-curvature="0"
         d="m 240.764,867.5 c 10.625,-45.625 26.91,-86.87 52.5,-126.25 13.785,-21.214 47.592,-51.405 70.625,-62.329 36.467,-17.295 56.25,-19.859 91.875,-23.609 38.408,-4.043 79.062,-3.08 118.125,-3.08"
         id="path130" />
      <path
         style="fill:none;stroke:#ff0004;stroke-width:2"
         inkscape:connector-curvature="0"
         d="m 651.389,796.232 -50,0"
         id="path132" />
      <path
         style="fill:none;stroke:#ff0004;stroke-width:2;stroke-linecap:round"
         inkscape:connector-curvature="0"
         d="m 264.514,867.5 c 17.5,-31.25 75.959,-50.642 128.125,-60 62.812,-11.268 144.062,-10.77 208.75,-11.268"
         id="path134" />
      <g
         clip-path="url(#7fc87434a610)"
         id="g136">
        <clipPath
           id="clipPath3342">
          <path
             style="fill:#000000;fill-opacity:0.35"
             inkscape:connector-curvature="0"
             d="m 623.116,757.261 14.991,0 0,-21.009 -14.991,0 z"
             id="path3344" />
        </clipPath>
        <g
           clip-path="url(#7fc874572b90)"
           id="g141">
          <clipPath
             id="clipPath3347">
            <path
               style="fill:#000000;fill-opacity:0.35"
               inkscape:connector-curvature="0"
               d="m 623.116,757.261 15,0 0,-21 -15,0 z"
               id="path3349" />
          </clipPath>
          <path
             style="fill:#000000"
             inkscape:connector-curvature="0"
             d="m 637.415,738.968 c 0.026,-0.186 0.106,-0.319 0.106,-0.532 0,-0.506 -0.372,-0.826 -0.878,-0.826 -0.293,0 -1.092,0.213 -1.225,1.305 -0.533,-1.119 -1.598,-1.891 -2.796,-1.891 -3.408,0 -7.11,4.181 -7.11,8.494 0,2.983 1.811,4.74 3.968,4.74 1.784,0 3.169,-1.411 3.488,-1.731 l 0.027,0.027 c -0.639,2.663 -0.986,3.888 -0.986,3.967 -0.133,0.267 -1.144,3.222 -4.313,3.222 -0.586,0 -1.571,-0.026 -2.397,-0.293 0.879,-0.266 1.225,-1.065 1.225,-1.571 0,-0.479 -0.346,-1.038 -1.145,-1.038 -0.665,0 -1.624,0.533 -1.624,1.731 0,1.225 1.118,1.837 3.994,1.837 3.755,0 5.911,-2.343 6.364,-4.154 l 3.302,-13.287 z m -3.888,7.456 c -0.186,0.772 -0.878,1.544 -1.518,2.103 -0.639,0.533 -1.571,1.065 -2.423,1.065 -1.517,0 -1.943,-1.544 -1.943,-2.742 0,-1.438 0.852,-4.98 1.677,-6.497 0.799,-1.465 2.077,-2.663 3.355,-2.663 1.971,0 2.397,2.423 2.397,2.556 0,0.16 -0.08,0.346 -0.107,0.453 l -1.438,5.725"
             id="path146" />
        </g>
      </g>
      <g
         clip-path="url(#7fc874363d10)"
         id="g148">
        <clipPath
           id="clipPath3353">
          <path
             style="fill:#000000;fill-opacity:0.35"
             inkscape:connector-curvature="0"
             d="m 362.967,599.969 54.001,0 0,-30.994 -54.001,0 z"
             id="path3355" />
        </clipPath>
        <g
           clip-path="url(#7fc8745444c0)"
           id="g153">
          <clipPath
             id="clipPath3358">
            <path
               style="fill:#000000;fill-opacity:0.35"
               inkscape:connector-curvature="0"
               d="m 362.967,599.969 54,0 0,-31 -54,0 z"
               id="path3360" />
          </clipPath>
          <path
             style="fill:#000000"
             inkscape:connector-curvature="0"
             d="m 379.503,574.913 c 0,-2.237 -1.651,-4.101 -4.074,-4.101 -1.758,0 -2.583,0.48 -3.648,1.278 -1.625,1.199 -3.275,4.101 -3.861,6.364 l -4.767,19.039 c -0.026,0.106 0.134,0.293 0.373,0.293 0.24,0 0.32,-0.053 0.346,-0.16 l 2.104,-8.254 c 0.586,1.784 1.89,2.902 4.074,2.902 2.183,0 4.447,-1.065 5.778,-2.37 1.438,-1.384 2.397,-3.302 2.397,-5.512 0,-2.157 -1.092,-3.728 -2.184,-4.473 1.731,-0.985 3.462,-2.849 3.462,-5.006 z m -5.406,4.979 c -0.399,0.16 -0.719,0.213 -1.438,0.213 -0.426,0 -1.011,0.027 -1.304,-0.106 0.053,-0.32 1.118,-0.24 1.464,-0.24 0.613,0 0.879,0 1.278,0.133 z m 3.728,-5.645 c 0,2.077 -1.145,4.234 -2.716,5.166 -0.799,-0.293 -1.411,-0.346 -2.29,-0.346 -0.639,0 -2.316,-0.027 -2.316,0.958 -0.027,0.826 1.517,0.746 2.077,0.746 1.091,0 1.544,-0.027 2.449,-0.399 1.145,1.091 1.278,2.023 1.305,3.381 0.08,1.758 -0.639,3.994 -1.491,5.166 -1.172,1.624 -3.169,2.689 -4.873,2.689 -2.29,0 -3.408,-1.73 -3.408,-3.861 0,-0.293 0,-0.745 0.133,-1.331 l 1.917,-7.562 c 0.666,-2.583 2.823,-7.349 6.417,-7.349 1.731,0 2.796,0.932 2.796,2.742"
             id="path158" />
          <path
             style="fill:#000000"
             inkscape:connector-curvature="0"
             d="m 390.686,599.171 c 0,-0.107 0,-0.16 -0.506,-0.666 -3.754,-3.781 -4.713,-9.453 -4.713,-14.033 0,-5.192 1.145,-10.411 4.82,-14.166 0.399,-0.346 0.399,-0.426 0.399,-0.506 0,-0.213 -0.133,-0.292 -0.293,-0.292 -0.319,0 -3.009,2.023 -4.766,5.831 -1.544,3.302 -1.891,6.63 -1.891,9.133 0,2.343 0.32,5.965 1.971,9.346 1.81,3.702 4.367,5.645 4.686,5.645 0.16,0 0.293,-0.106 0.293,-0.292"
             id="path160" />
          <path
             style="fill:#000000"
             inkscape:connector-curvature="0"
             d="m 406.476,580.664 c 0.027,-0.159 0.08,-0.319 0.08,-0.532 0,-0.506 -0.346,-0.799 -0.852,-0.799 -0.319,0 -1.118,0.213 -1.225,1.278 -0.559,-1.092 -1.597,-1.89 -2.796,-1.89 -3.408,0 -7.136,4.207 -7.136,8.52 0,2.956 1.837,4.74 3.994,4.74 1.758,0 3.169,-1.411 3.462,-1.757 l 0.026,0.026 c -0.612,2.69 -0.985,3.915 -0.985,3.968 -0.106,0.266 -1.118,3.222 -4.313,3.222 -0.56,0 -1.545,-0.027 -2.397,-0.293 0.906,-0.266 1.225,-1.039 1.225,-1.545 0,-0.479 -0.319,-1.065 -1.118,-1.065 -0.666,0 -1.625,0.56 -1.625,1.758 0,1.225 1.119,1.81 3.994,1.81 3.728,0 5.885,-2.343 6.338,-4.127 l 3.328,-13.287 z m -3.887,7.483 c -0.187,0.772 -0.879,1.517 -1.545,2.077 -0.612,0.559 -1.544,1.091 -2.423,1.091 -1.491,0 -1.944,-1.571 -1.944,-2.769 0,-1.438 0.879,-4.953 1.678,-6.497 0.799,-1.464 2.103,-2.663 3.355,-2.663 1.97,0 2.396,2.423 2.396,2.583 0,0.133 -0.053,0.32 -0.079,0.453 l -1.438,5.725"
             id="path162" />
          <path
             style="fill:#000000"
             inkscape:connector-curvature="0"
             d="m 416.328,584.472 c 0,-2.316 -0.346,-5.964 -1.97,-9.346 -1.811,-3.675 -4.394,-5.618 -4.686,-5.618 -0.187,0 -0.293,0.106 -0.293,0.292 0,0.08 0,0.16 0.559,0.693 2.929,2.955 4.66,7.722 4.66,13.979 0,5.139 -1.119,10.411 -4.847,14.166 -0.372,0.373 -0.372,0.426 -0.372,0.533 0,0.159 0.106,0.292 0.293,0.292 0.292,0 3.008,-2.05 4.766,-5.858 1.518,-3.275 1.89,-6.603 1.89,-9.133"
             id="path164" />
        </g>
      </g>
      <g
         clip-path="url(#7fc874350b80)"
         id="g166">
        <clipPath
           id="clipPath3367">
          <path
             style="fill:#000000;fill-opacity:0.35"
             inkscape:connector-curvature="0"
             d="m 671.406,658.921 68.992,0 0,-21.994 -68.992,0 z"
             id="path3369" />
        </clipPath>
        <g
           clip-path="url(#7fc874314ae0)"
           id="g171">
          <clipPath
             id="clipPath3372">
            <path
               style="fill:#000000;fill-opacity:0.35"
               inkscape:connector-curvature="0"
               d="m 671.406,658.921 69,0 0,-22 -69,0 z"
               id="path3374" />
          </clipPath>
          <path
             style="fill:#0000ff"
             inkscape:connector-curvature="0"
             d="m 686.451,637.459 c 0,-0.027 0,-0.319 -0.373,-0.319 -0.453,0 -3.302,0.266 -3.808,0.319 -0.24,0.027 -0.426,0.187 -0.426,0.586 0,0.346 0.266,0.346 0.719,0.346 1.438,0 1.491,0.213 1.491,0.506 l -0.08,0.612 -1.784,7.083 c -0.559,-1.091 -1.411,-1.917 -2.769,-1.917 -3.515,0 -7.216,4.42 -7.216,8.787 0,2.823 1.651,4.793 3.994,4.793 0.586,0 2.077,-0.133 3.888,-2.263 0.239,1.278 1.278,2.263 2.716,2.263 1.065,0 1.73,-0.692 2.21,-1.651 0.532,-1.091 0.905,-2.902 0.905,-2.955 0,-0.32 -0.266,-0.32 -0.346,-0.32 -0.32,0 -0.346,0.133 -0.426,0.559 -0.506,1.944 -1.039,3.701 -2.29,3.701 -0.799,0 -0.879,-0.772 -0.879,-1.384 0,-0.719 0.053,-0.932 0.16,-1.438 l 4.314,-17.308 z m -6.231,16.909 c -0.133,0.532 -0.133,0.585 -0.586,1.091 -1.305,1.651 -2.556,2.13 -3.382,2.13 -1.491,0 -1.917,-1.65 -1.917,-2.822 0,-1.491 0.959,-5.166 1.651,-6.55 0.932,-1.758 2.263,-2.876 3.462,-2.876 1.943,0 2.369,2.45 2.369,2.636 0,0.186 -0.053,0.346 -0.08,0.506 l -1.517,5.885"
             id="path176" />
          <path
             style="fill:#0000ff"
             inkscape:connector-curvature="0"
             d="m 715.474,648.137 c 0.453,0 1.039,0 1.039,-0.613 0,-0.586 -0.586,-0.586 -1.012,-0.586 l -17.92,0 c -0.426,0 -0.985,0 -0.985,0.586 0,0.613 0.559,0.613 1.011,0.613 l 17.867,0 z m 0.027,5.804 c 0.426,0 1.012,0 1.012,-0.612 0,-0.586 -0.586,-0.586 -1.039,-0.586 l -17.867,0 c -0.452,0 -1.011,0 -1.011,0.586 0,0.612 0.559,0.612 0.985,0.612 l 17.92,0"
             id="path178" />
          <path
             style="fill:#0000ff"
             inkscape:connector-curvature="0"
             d="m 735.179,647.365 c 2.476,-0.799 4.207,-2.903 4.207,-5.273 0,-2.449 -2.636,-4.127 -5.512,-4.127 -3.035,0 -5.299,1.811 -5.299,4.074 0,0.985 0.666,1.571 1.518,1.571 0.932,0 1.544,-0.666 1.544,-1.544 0,-1.492 -1.411,-1.492 -1.864,-1.492 0.932,-1.464 2.903,-1.863 3.995,-1.863 1.224,0 2.875,0.665 2.875,3.355 0,0.372 -0.08,2.103 -0.852,3.435 -0.905,1.437 -1.917,1.517 -2.663,1.544 -0.239,0.027 -0.958,0.107 -1.171,0.107 -0.24,0.026 -0.453,0.053 -0.453,0.346 0,0.319 0.213,0.319 0.719,0.319 l 1.332,0 c 2.449,0 3.541,2.051 3.541,4.98 0,4.074 -2.05,4.952 -3.382,4.952 -1.278,0 -3.515,-0.506 -4.58,-2.29 1.065,0.16 1.997,-0.506 1.997,-1.651 0,-1.065 -0.825,-1.677 -1.677,-1.677 -0.719,0 -1.678,0.426 -1.678,1.757 0,2.716 2.77,4.687 6.045,4.687 3.648,0 6.363,-2.716 6.363,-5.778 0,-2.45 -1.863,-4.793 -4.979,-5.432"
             id="path180" />
        </g>
      </g>
      <g
         clip-path="url(#7fc8751006c0)"
         id="g182">
        <clipPath
           id="clipPath3380">
          <path
             style="fill:#000000;fill-opacity:0.35"
             inkscape:connector-curvature="0"
             d="m 670.456,802.875 68.007,0 0,-21.994 -68.007,0 z"
             id="path3382" />
        </clipPath>
        <g
           clip-path="url(#7fc87511c1f0)"
           id="g187">
          <clipPath
             id="clipPath3385">
            <path
               style="fill:#000000;fill-opacity:0.35"
               inkscape:connector-curvature="0"
               d="m 670.456,802.875 68,0 0,-22 -68,0 z"
               id="path3387" />
          </clipPath>
          <path
             style="fill:#ff0000"
             inkscape:connector-curvature="0"
             d="m 685.501,781.413 c 0,-0.027 0,-0.319 -0.373,-0.319 -0.453,0 -3.302,0.266 -3.808,0.319 -0.24,0.027 -0.426,0.186 -0.426,0.586 0,0.346 0.266,0.346 0.719,0.346 1.438,0 1.491,0.213 1.491,0.506 l -0.08,0.612 -1.784,7.083 c -0.559,-1.091 -1.411,-1.917 -2.769,-1.917 -3.515,0 -7.216,4.42 -7.216,8.787 0,2.823 1.651,4.793 3.994,4.793 0.586,0 2.077,-0.133 3.888,-2.263 0.239,1.278 1.278,2.263 2.716,2.263 1.065,0 1.73,-0.692 2.21,-1.651 0.532,-1.092 0.905,-2.902 0.905,-2.955 0,-0.32 -0.266,-0.32 -0.346,-0.32 -0.32,0 -0.346,0.133 -0.426,0.559 -0.506,1.944 -1.039,3.701 -2.29,3.701 -0.799,0 -0.879,-0.772 -0.879,-1.384 0,-0.719 0.053,-0.932 0.16,-1.438 l 4.314,-17.308 z m -6.231,16.908 c -0.133,0.533 -0.133,0.586 -0.586,1.092 -1.305,1.651 -2.556,2.13 -3.382,2.13 -1.491,0 -1.917,-1.65 -1.917,-2.822 0,-1.491 0.959,-5.166 1.651,-6.55 0.932,-1.758 2.263,-2.876 3.462,-2.876 1.943,0 2.369,2.45 2.369,2.636 0,0.186 -0.053,0.346 -0.079,0.506 l -1.518,5.884"
             id="path192" />
          <path
             style="fill:#ff0000"
             inkscape:connector-curvature="0"
             d="m 714.525,792.091 c 0.452,0 1.038,0 1.038,-0.613 0,-0.586 -0.586,-0.586 -1.012,-0.586 l -17.92,0 c -0.426,0 -0.985,0 -0.985,0.586 0,0.613 0.559,0.613 1.012,0.613 l 17.867,0 z m 0.026,5.804 c 0.426,0 1.012,0 1.012,-0.612 0,-0.586 -0.586,-0.586 -1.038,-0.586 l -17.867,0 c -0.453,0 -1.012,0 -1.012,0.586 0,0.612 0.559,0.612 0.985,0.612 l 17.92,0"
             id="path194" />
          <path
             style="fill:#ff0000"
             inkscape:connector-curvature="0"
             d="m 734.362,782.718 c 0,-0.719 0,-0.799 -0.692,-0.799 -1.864,1.917 -4.5,1.917 -5.459,1.917 l 0,0.932 c 0.613,0 2.37,0 3.941,-0.772 l 0,15.524 c 0,1.065 -0.107,1.438 -2.796,1.438 l -0.959,0 0,0.905 c 1.039,-0.08 3.648,-0.08 4.847,-0.08 1.198,0 3.807,0 4.873,0.08 l 0,-0.905 -0.959,0 c -2.716,0 -2.796,-0.347 -2.796,-1.438 l 0,-16.829"
             id="path196" />
        </g>
      </g>
      <g
         clip-path="url(#7fc8743422c0)"
         id="g198">
        <clipPath
           id="clipPath3393">
          <path
             style="fill:#000000;fill-opacity:0.35"
             inkscape:connector-curvature="0"
             d="m 671.526,727.875 68.991,0 0,-21.994 -68.991,0 z"
             id="path3395" />
        </clipPath>
        <g
           clip-path="url(#7fc874315af0)"
           id="g203">
          <clipPath
             id="clipPath3398">
            <path
               style="fill:#000000;fill-opacity:0.35"
               inkscape:connector-curvature="0"
               d="m 671.526,727.875 69,0 0,-22 -69,0 z"
               id="path3400" />
          </clipPath>
          <path
             style="fill:#000000"
             inkscape:connector-curvature="0"
             d="m 686.57,706.413 c 0,-0.027 0,-0.319 -0.373,-0.319 -0.452,0 -3.301,0.266 -3.807,0.319 -0.24,0.027 -0.426,0.186 -0.426,0.586 0,0.346 0.266,0.346 0.719,0.346 1.437,0 1.491,0.213 1.491,0.506 l -0.08,0.612 -1.784,7.083 c -0.559,-1.091 -1.411,-1.917 -2.769,-1.917 -3.515,0 -7.217,4.42 -7.217,8.787 0,2.823 1.651,4.793 3.995,4.793 0.585,0 2.077,-0.133 3.887,-2.263 0.24,1.278 1.278,2.263 2.716,2.263 1.065,0 1.731,-0.692 2.21,-1.651 0.533,-1.092 0.906,-2.902 0.906,-2.955 0,-0.32 -0.267,-0.32 -0.347,-0.32 -0.319,0 -0.346,0.133 -0.426,0.559 -0.505,1.944 -1.038,3.701 -2.29,3.701 -0.798,0 -0.878,-0.772 -0.878,-1.384 0,-0.719 0.053,-0.932 0.16,-1.438 l 4.313,-17.308 z m -6.231,16.908 c -0.133,0.533 -0.133,0.586 -0.585,1.092 -1.305,1.651 -2.557,2.13 -3.382,2.13 -1.491,0 -1.917,-1.65 -1.917,-2.822 0,-1.491 0.958,-5.166 1.651,-6.55 0.932,-1.758 2.263,-2.876 3.461,-2.876 1.944,0 2.37,2.45 2.37,2.636 0,0.186 -0.053,0.346 -0.08,0.506 l -1.518,5.884"
             id="path208" />
          <path
             style="fill:#000000"
             inkscape:connector-curvature="0"
             d="m 715.594,717.091 c 0.453,0 1.039,0 1.039,-0.613 0,-0.586 -0.586,-0.586 -1.012,-0.586 l -17.921,0 c -0.426,0 -0.985,0 -0.985,0.586 0,0.613 0.559,0.613 1.012,0.613 l 17.867,0 z m 0.027,5.804 c 0.426,0 1.012,0 1.012,-0.612 0,-0.586 -0.586,-0.586 -1.039,-0.586 l -17.867,0 c -0.453,0 -1.012,0 -1.012,0.586 0,0.612 0.559,0.612 0.985,0.612 l 17.921,0"
             id="path210" />
          <path
             style="fill:#000000"
             inkscape:connector-curvature="0"
             d="m 730.426,724.573 3.168,-3.089 c 4.687,-4.127 6.471,-5.751 6.471,-8.734 0,-3.435 -2.69,-5.831 -6.338,-5.831 -3.381,0 -5.591,2.769 -5.591,5.432 0,1.677 1.491,1.677 1.571,1.677 0.506,0 1.571,-0.372 1.571,-1.597 0,-0.772 -0.56,-1.545 -1.598,-1.545 -0.24,0 -0.293,0 -0.399,0.027 0.692,-1.944 2.316,-3.062 4.047,-3.062 2.743,0 4.021,2.423 4.021,4.873 0,2.396 -1.491,4.766 -3.142,6.63 l -5.752,6.417 c -0.319,0.32 -0.319,0.373 -0.319,1.092 l 11.103,0 0.826,-5.192 -0.746,0 c -0.133,0.878 -0.346,2.21 -0.639,2.662 -0.213,0.24 -2.21,0.24 -2.849,0.24 l -5.405,0"
             id="path212" />
        </g>
      </g>
      <path
         style="fill:#0049fd"
         inkscape:connector-curvature="0"
         d="m 312.214,722.724 c 0,2.051 -1.612,3.714 -3.6,3.714 -1.988,0 -3.6,-1.663 -3.6,-3.714 0,-2.052 1.612,-3.715 3.6,-3.715 1.988,0 3.6,1.663 3.6,3.715 z"
         id="path214" />
      <g
         id="g216">
        <path
           style="fill:none;stroke:#000000;stroke-width:2;stroke-dasharray:0.1"
           inkscape:connector-curvature="0"
           d="m 305.764,796.406 6.45,-5.059"
           id="path218" />
        <path
           style="fill:none;stroke:#000000;stroke-width:2"
           inkscape:connector-curvature="0"
           d="m 316.718,794.169 -10.954,2.237 4.783,-10.105"
           id="path220" />
      </g>
      <g
         id="g222">
        <path
           style="fill:none;stroke:#000000;stroke-width:2;stroke-dasharray:0.1"
           inkscape:connector-curvature="0"
           d="m 479.763,734.295 8.169,-0.675"
           id="path224" />
        <path
           style="fill:none;stroke:#000000;stroke-width:2"
           inkscape:connector-curvature="0"
           d="m 490.14,738.455 -10.377,-4.16 9.554,-5.806"
           id="path226" />
      </g>
      <g
         id="g228">
        <path
           style="fill:none;stroke:#0049fd;stroke-width:2;stroke-dasharray:0.1"
           inkscape:connector-curvature="0"
           d="m 264.2,794.379 3.952,-7.181"
           id="path230" />
        <path
           style="fill:none;stroke:#0049fd;stroke-width:2"
           inkscape:connector-curvature="0"
           d="m 273.402,788.029 -9.202,6.35 0.441,-11.172"
           id="path232" />
      </g>
      <g
         id="g234">
        <path
           style="fill:none;stroke:#0049fd;stroke-width:2;stroke-dasharray:0.1"
           inkscape:connector-curvature="0"
           d="m 370.849,675.989 -7.566,3.155"
           id="path236" />
        <path
           style="fill:none;stroke:#0049fd;stroke-width:2"
           inkscape:connector-curvature="0"
           d="m 359.695,675.222 11.154,0.767 -7.306,8.463"
           id="path238" />
      </g>
      <g
         id="g240">
        <path
           style="fill:none;stroke:#ff0004;stroke-width:2;stroke-dasharray:0.1"
           inkscape:connector-curvature="0"
           d="m 319.551,827.305 7.751,-2.669"
           id="path242" />
        <path
           style="fill:none;stroke:#ff0004;stroke-width:2"
           inkscape:connector-curvature="0"
           d="m 330.634,828.776 -11.083,-1.471 7.827,-7.984"
           id="path244" />
      </g>
      <g
         id="g246">
        <path
           style="fill:none;stroke:#ff0004;stroke-width:2;stroke-dasharray:0.1"
           inkscape:connector-curvature="0"
           d="m 481.625,798.286 8.195,-0.187"
           id="path248" />
        <path
           style="fill:none;stroke:#ff0004;stroke-width:2"
           inkscape:connector-curvature="0"
           d="m 491.736,803.056 -10.111,-4.77 9.883,-5.227"
           id="path250" />
      </g>
    </g>
  </g>
</svg>
