<?xml version="1.0" encoding="UTF-8" standalone="no"?>
<!DOCTYPE svg PUBLIC "-//W3C//DTD SVG 1.1//EN" "http://www.w3.org/Graphics/SVG/1.1/DTD/svg11.dtd">
<!--Generated by Intaglio, www.PurgatoryDesign.com-->
<svg version="1.1" viewBox="35,70,397,399" width="397" height="399" xmlns="http://www.w3.org/2000/svg" xmlns:xlink="http://www.w3.org/1999/xlink"><path fill="#fff" stroke="#000" d="M109.167,252 L217.167,252 L217.167,360 L109.167,360 Z"/><path fill="#bcbcbc" stroke="#000" d="M323,144 L431,144 L431,252 L323,252 Z"/><path fill="#fff" stroke="#000" d="M323,252 L431,252 L431,360 L323,360 Z"/><path fill="#bcbcbc" stroke="#000" d="M323,360 L431,360 L431,468 L323,468 Z"/><text font-family="American Typewriter" font-size="30" text-anchor="middle" transform="matrix(0.9,0,0,0.9,377.065,420.974)" xml:space="preserve"><tspan>BDI</tspan></text><text font-family="American Typewriter" font-size="30" text-anchor="middle" transform="matrix(0.9,0,0,0.9,377.066,311.808)" xml:space="preserve"><tspan>D</tspan></text><text font-family="American Typewriter" font-size="30" text-anchor="middle" transform="matrix(0.9,0,0,0.9,377.037,204.974)" xml:space="preserve"><tspan>DIII</tspan></text><path fill="#bcbcbc" stroke="#000" d="M109.167,144 L217.167,144 L217.167,252 L109.167,252 Z"/><path fill="#bcbcbc" stroke="#000" d="M109.167,360 L217.167,360 L217.167,468 L109.167,468 Z"/><text font-family="American Typewriter" font-size="30" text-anchor="middle" transform="matrix(0.9,0,0,0.9,162.985,204.868)" xml:space="preserve"><tspan>CII</tspan></text><text font-family="American Typewriter" font-size="30" text-anchor="middle" transform="matrix(0.9,0,0,0.9,162.671,311.808)" xml:space="preserve"><tspan>C</tspan></text><text font-family="American Typewriter" font-size="30" text-anchor="middle" transform="matrix(0.9,0,0,0.9,162.828,420.474)" xml:space="preserve"><tspan>CI</tspan></text><path fill="#fff" stroke="#000" d="M217,144 L325,144 L325,252 L217,252 Z"/><path fill="#bcbcbc" stroke="#000" d="M217,306 L325,306 L325,360 L217,360 Z"/><path fill="#fff" stroke="#000" d="M217,360 L325,360 L325,468 L217,468 Z"/><path fill="#fff" stroke="#000" d="M217,252 L325,252 L325,306 L217,306 Z"/><text font-family="American Typewriter" font-size="30" text-anchor="middle" transform="matrix(0.9,0,0,0.9,270.966,421.212)" xml:space="preserve"><tspan>AI</tspan></text><text font-family="American Typewriter" font-size="30" text-anchor="middle" transform="matrix(0.9,0,0,0.9,271.123,205.212)" xml:space="preserve"><tspan>AII</tspan></text><text font-family="American Typewriter" font-size="30" text-anchor="middle" transform="matrix(0.9,0,0,0.9,270.809,285.045)" xml:space="preserve"><tspan>A</tspan></text><text font-family="American Typewriter" font-size="30" text-anchor="middle" transform="matrix(0.9,0,0,0.9,271.28,342.045)" xml:space="preserve"><tspan>AIII</tspan></text><text font-family="American Typewriter" font-size="30" text-anchor="middle" transform="matrix(0.675,0,0,0.675,270.45,91.8842)" xml:space="preserve"><tspan>particle-hole symmetry</tspan></text><text font-family="American Typewriter" font-size="30" text-anchor="middle" transform="matrix(4.13318e-17,-0.675,0.675,4.13318e-17,56.6485,306.441)" xml:space="preserve"><tspan>time-reversal symmetry</tspan></text><g clip-path="url(#7fc87264ce90)"><clipPath id="7fc87264ce90"><path fill="#000" fill-opacity="0.35" d="M149.144,131.424 L176.144,131.424 L176.144,114.436 L149.144,114.436 Z"/></clipPath><g clip-path="url(#7fc872606680)"><clipPath id="7fc872606680"><path fill="#000" fill-opacity="0.35" d="M149.144,131.424 L176.144,131.424 L176.144,114.424 L149.144,114.424 Z"/></clipPath><path fill="#000" d="M163.044,125.353 C163.47,125.353,163.896,125.353,163.896,124.874 C163.896,124.394,163.47,124.394,163.044,124.394 L150.156,124.394 C149.756,124.394,149.33,124.394,149.33,124.874 C149.33,125.353,149.756,125.353,150.156,125.353 L163.044,125.353"/><path fill="#000" d="M172.949,115.554 C172.949,114.995,172.949,114.942,172.416,114.942 C170.925,116.486,168.822,116.486,168.076,116.486 L168.076,117.205 C168.555,117.205,169.94,117.205,171.192,116.593 L171.192,128.948 C171.192,129.8,171.112,130.093,168.981,130.093 L168.209,130.093 L168.209,130.838 C169.035,130.758,171.112,130.758,172.07,130.758 C173.029,130.758,175.106,130.758,175.931,130.838 L175.931,130.093 L175.159,130.093 C173.029,130.093,172.949,129.826,172.949,128.948 L172.949,115.554"/></g></g><g clip-path="url(#7fc872642430)"><clipPath id="7fc872642430"><path fill="#000" fill-opacity="0.35" d="M362.407,132.911 L391.405,132.911 L391.405,113.899 L362.407,113.899 Z"/></clipPath><g clip-path="url(#7fc87263f5d0)"><clipPath id="7fc87263f5d0"><path fill="#000" fill-opacity="0.35" d="M362.407,132.911 L391.407,132.911 L391.407,113.911 L362.407,113.911 Z"/></clipPath><path fill="#000" d="M371.754,124.816 L378.41,124.816 C378.757,124.816,379.209,124.816,379.209,124.337 C379.209,123.884,378.757,123.884,378.41,123.884 L371.754,123.884 L371.754,117.201 C371.754,116.855,371.754,116.402,371.274,116.402 C370.795,116.402,370.795,116.855,370.795,117.201 L370.795,123.884 L364.138,123.884 C363.792,123.884,363.339,123.884,363.339,124.337 C363.339,124.816,363.792,124.816,364.138,124.816 L370.795,124.816 L370.795,131.5 C370.795,131.846,370.795,132.299,371.274,132.299 C371.754,132.299,371.754,131.846,371.754,131.5 L371.754,124.816"/><path fill="#000" d="M387.624,115.044 C387.624,114.485,387.624,114.432,387.064,114.432 C385.6,115.949,383.496,115.949,382.724,115.949 L382.724,116.695 C383.203,116.695,384.615,116.695,385.839,116.083 L385.839,128.438 C385.839,129.29,385.786,129.583,383.629,129.583 L382.884,129.583 L382.884,130.302 C383.709,130.248,385.786,130.248,386.745,130.248 C387.677,130.248,389.754,130.248,390.606,130.302 L390.606,129.583 L389.834,129.583 C387.703,129.583,387.624,129.316,387.624,128.438 L387.624,115.044"/></g></g><g clip-path="url(#7fc87260fe10)"><clipPath id="7fc87260fe10"><path fill="#000" fill-opacity="0.35" d="M263.95,130.924 L276.944,130.924 L276.944,117.93 L263.95,117.93 Z"/></clipPath><g clip-path="url(#7fc872615a60)"><clipPath id="7fc872615a60"><path fill="#000" fill-opacity="0.35" d="M263.95,130.924 L275.95,130.924 L275.95,117.924 L263.95,117.924 Z"/></clipPath><path fill="#000" d="M270.128,123.894 L265.361,119.155 C265.068,118.862,265.015,118.809,264.829,118.809 C264.589,118.809,264.349,119.022,264.349,119.288 C264.349,119.474,264.403,119.501,264.669,119.767 L269.435,124.56 L264.669,129.353 C264.403,129.619,264.349,129.673,264.349,129.832 C264.349,130.099,264.589,130.312,264.829,130.312 C265.015,130.312,265.068,130.258,265.361,129.965 L270.101,125.226 L275.027,130.178 C275.08,130.178,275.24,130.312,275.4,130.312 C275.693,130.312,275.879,130.099,275.879,129.832 C275.879,129.779,275.879,129.699,275.799,129.566 C275.773,129.513,271.992,125.785,270.793,124.56 L275.16,120.193 C275.267,120.06,275.639,119.741,275.746,119.607 C275.773,119.554,275.879,119.474,275.879,119.288 C275.879,119.022,275.666,118.809,275.4,118.809 C275.213,118.809,275.107,118.915,274.841,119.181 L270.128,123.894"/></g></g><g clip-path="url(#7fc875143d60)"><clipPath id="7fc875143d60"><path fill="#000" fill-opacity="0.35" d="M77.144,203.424 L104.144,203.424 L104.144,186.436 L77.144,186.436 Z"/></clipPath><g clip-path="url(#7fc874167b20)"><clipPath id="7fc874167b20"><path fill="#000" fill-opacity="0.35" d="M77.144,203.424 L104.144,203.424 L104.144,186.424 L77.144,186.424 Z"/></clipPath><path fill="#000" d="M91.0435,197.353 C91.4696,197.353,91.8956,197.353,91.8956,196.874 C91.8956,196.394,91.4696,196.394,91.0435,196.394 L78.1558,196.394 C77.7564,196.394,77.3304,196.394,77.3304,196.874 C77.3304,197.353,77.7564,197.353,78.1558,197.353 L91.0435,197.353"/><path fill="#000" d="M100.949,187.554 C100.949,186.995,100.949,186.942,100.416,186.942 C98.9252,188.486,96.8217,188.486,96.0761,188.486 L96.0761,189.205 C96.5554,189.205,97.94,189.205,99.1916,188.593 L99.1916,200.948 C99.1916,201.8,99.1117,202.093,96.9815,202.093 L96.2093,202.093 L96.2093,202.838 C97.0347,202.758,99.1117,202.758,100.07,202.758 C101.029,202.758,103.106,202.758,103.931,202.838 L103.931,202.093 L103.159,202.093 C101.029,202.093,100.949,201.826,100.949,200.948 L100.949,187.554"/></g></g><g clip-path="url(#7fc874586700)"><clipPath id="7fc874586700"><path fill="#000" fill-opacity="0.35" d="M74.4073,420.911 L103.405,420.911 L103.405,401.899 L74.4073,401.899 Z"/></clipPath><g clip-path="url(#7fc8743d28c0)"><clipPath id="7fc8743d28c0"><path fill="#000" fill-opacity="0.35" d="M74.4073,420.911 L103.407,420.911 L103.407,401.911 L74.4073,401.911 Z"/></clipPath><path fill="#000" d="M83.7535,412.816 L90.4104,412.816 C90.7566,412.816,91.2092,412.816,91.2092,412.337 C91.2092,411.884,90.7566,411.884,90.4104,411.884 L83.7535,411.884 L83.7535,405.201 C83.7535,404.855,83.7535,404.402,83.2742,404.402 C82.795,404.402,82.795,404.855,82.795,405.201 L82.795,411.884 L76.1381,411.884 C75.7919,411.884,75.3393,411.884,75.3393,412.337 C75.3393,412.816,75.7919,412.816,76.1381,412.816 L82.795,412.816 L82.795,419.5 C82.795,419.846,82.795,420.299,83.2742,420.299 C83.7535,420.299,83.7535,419.846,83.7535,419.5 L83.7535,412.816"/><path fill="#000" d="M99.6235,403.044 C99.6235,402.485,99.6235,402.432,99.0644,402.432 C97.5998,403.949,95.4963,403.949,94.7241,403.949 L94.7241,404.695 C95.2034,404.695,96.6146,404.695,97.8395,404.083 L97.8395,416.438 C97.8395,417.29,97.7862,417.583,95.6294,417.583 L94.8839,417.583 L94.8839,418.302 C95.7093,418.248,97.7862,418.248,98.7448,418.248 C99.6768,418.248,101.754,418.248,102.606,418.302 L102.606,417.583 L101.834,417.583 C99.7034,417.583,99.6235,417.316,99.6235,416.438 L99.6235,403.044"/></g></g><g clip-path="url(#7fc8745f78f0)"><clipPath id="7fc8745f78f0"><path fill="#000" fill-opacity="0.35" d="M83.95,310.924 L96.9442,310.924 L96.9442,297.93 L83.95,297.93 Z"/></clipPath><g clip-path="url(#7fc87431a8d0)"><clipPath id="7fc87431a8d0"><path fill="#000" fill-opacity="0.35" d="M83.95,310.924 L95.95,310.924 L95.95,297.924 L83.95,297.924 Z"/></clipPath><path fill="#000" d="M90.1276,303.894 L85.3613,299.155 C85.0683,298.862,85.0151,298.809,84.8287,298.809 C84.5891,298.809,84.3494,299.022,84.3494,299.288 C84.3494,299.474,84.4027,299.501,84.6689,299.767 L89.4353,304.56 L84.6689,309.353 C84.4027,309.619,84.3494,309.673,84.3494,309.832 C84.3494,310.099,84.5891,310.312,84.8287,310.312 C85.0151,310.312,85.0683,310.258,85.3613,309.965 L90.1009,305.226 L95.027,310.178 C95.0803,310.178,95.24,310.312,95.3998,310.312 C95.6927,310.312,95.8791,310.099,95.8791,309.832 C95.8791,309.779,95.8791,309.699,95.7992,309.566 C95.7726,309.513,91.9915,305.785,90.7933,304.56 L95.1601,300.193 C95.2667,300.06,95.6394,299.741,95.746,299.607 C95.7726,299.554,95.8791,299.474,95.8791,299.288 C95.8791,299.022,95.6661,298.809,95.3998,298.809 C95.2134,298.809,95.1069,298.915,94.8407,299.181 L90.1276,303.894"/></g></g><g clip-path="url(#7fc8745bd8f0)"><clipPath id="7fc8745bd8f0"><path fill="#000" fill-opacity="0.35" d="M207.397,419.642 L229.392,419.642 L229.392,405.849 L207.397,405.849 Z"/></clipPath><g clip-path="url(#7fc874363260)"><clipPath id="7fc874363260"><path fill="#000" fill-opacity="0.35" d="M207.397,419.855 L229.397,419.855 L229.397,405.855 L207.397,405.855 Z"/></clipPath><path fill="#000" d="M226.383,413.384 C225.078,414.369,224.412,415.355,224.226,415.648 C223.161,417.298,222.974,418.816,222.974,418.843 C222.974,419.109,223.267,419.109,223.454,419.109 C223.853,419.109,223.88,419.056,223.96,418.63 C224.519,416.313,225.93,414.29,228.619,413.198 C228.912,413.118,228.966,413.065,228.966,412.905 C228.966,412.719,228.833,412.665,228.779,412.639 C227.741,412.213,224.865,411.041,223.96,407.02 C223.88,406.754,223.853,406.674,223.454,406.674 C223.267,406.674,222.974,406.674,222.974,406.967 C222.974,406.994,223.188,408.511,224.199,410.109 C224.652,410.828,225.344,411.654,226.383,412.426 L208.676,412.426 C208.249,412.426,207.797,412.426,207.797,412.905 C207.797,413.358,208.249,413.358,208.676,413.358 L226.383,413.358"/></g></g><g clip-path="url(#7fc874156790)"><clipPath id="7fc874156790"><path fill="#000" fill-opacity="0.35" d="M315.397,419.642 L337.392,419.642 L337.392,405.849 L315.397,405.849 Z"/></clipPath><g clip-path="url(#7fc8745edfa0)"><clipPath id="7fc8745edfa0"><path fill="#000" fill-opacity="0.35" d="M315.397,419.855 L337.397,419.855 L337.397,405.855 L315.397,405.855 Z"/></clipPath><path fill="#000" d="M334.383,413.384 C333.078,414.369,332.412,415.355,332.226,415.648 C331.161,417.298,330.974,418.816,330.974,418.843 C330.974,419.109,331.267,419.109,331.454,419.109 C331.853,419.109,331.88,419.056,331.96,418.63 C332.519,416.313,333.93,414.29,336.619,413.198 C336.912,413.118,336.966,413.065,336.966,412.905 C336.966,412.719,336.833,412.665,336.779,412.639 C335.741,412.213,332.865,411.041,331.96,407.02 C331.88,406.754,331.853,406.674,331.454,406.674 C331.267,406.674,330.974,406.674,330.974,406.967 C330.974,406.994,331.188,408.511,332.199,410.109 C332.652,410.828,333.344,411.654,334.383,412.426 L316.676,412.426 C316.249,412.426,315.797,412.426,315.797,412.905 C315.797,413.358,316.249,413.358,316.676,413.358 L334.383,413.358"/></g></g><g><g clip-path="url(#7fc87511af60)"><clipPath id="7fc87511af60"><path fill="#000" fill-opacity="0.35" d="M335.365,203.642 L313.371,203.642 L313.371,189.849 L335.365,189.849 Z"/></clipPath><g clip-path="url(#7fc874544b90)"><clipPath id="7fc874544b90"><path fill="#000" fill-opacity="0.35" d="M335.365,203.855 L313.365,203.855 L313.365,189.855 L335.365,189.855 Z"/></clipPath><path fill="#000" d="M316.38,197.384 C317.684,198.369,318.35,199.355,318.536,199.648 C319.602,201.298,319.788,202.816,319.788,202.843 C319.788,203.109,319.495,203.109,319.309,203.109 C318.909,203.109,318.883,203.056,318.803,202.63 C318.244,200.313,316.832,198.29,314.143,197.198 C313.85,197.118,313.797,197.065,313.797,196.905 C313.797,196.719,313.93,196.665,313.983,196.639 C315.022,196.213,317.897,195.041,318.803,191.02 C318.883,190.754,318.909,190.674,319.309,190.674 C319.495,190.674,319.788,190.674,319.788,190.967 C319.788,190.994,319.575,192.511,318.563,194.109 C318.11,194.828,317.418,195.654,316.38,196.426 L334.087,196.426 C334.513,196.426,334.966,196.426,334.966,196.905 C334.966,197.358,334.513,197.358,334.087,197.358 L316.38,197.358"/></g></g><g clip-path="url(#7fc87434a610)"><clipPath id="7fc87434a610"><path fill="#000" fill-opacity="0.35" d="M227.365,203.642 L205.371,203.642 L205.371,189.849 L227.365,189.849 Z"/></clipPath><g clip-path="url(#7fc8743e4560)"><clipPath id="7fc8743e4560"><path fill="#000" fill-opacity="0.35" d="M227.365,203.855 L205.365,203.855 L205.365,189.855 L227.365,189.855 Z"/></clipPath><path fill="#000" d="M208.38,197.384 C209.684,198.369,210.35,199.355,210.536,199.648 C211.602,201.298,211.788,202.816,211.788,202.843 C211.788,203.109,211.495,203.109,211.309,203.109 C210.909,203.109,210.883,203.056,210.803,202.63 C210.244,200.313,208.832,198.29,206.143,197.198 C205.85,197.118,205.797,197.065,205.797,196.905 C205.797,196.719,205.93,196.665,205.983,196.639 C207.022,196.213,209.897,195.041,210.803,191.02 C210.883,190.754,210.909,190.674,211.309,190.674 C211.495,190.674,211.788,190.674,211.788,190.967 C211.788,190.994,211.575,192.511,210.563,194.109 C210.11,194.828,209.418,195.654,208.38,196.426 L226.087,196.426 C226.513,196.426,226.966,196.426,226.966,196.905 C226.966,197.358,226.513,197.358,226.087,197.358 L208.38,197.358"/></g></g></g><g><g clip-path="url(#7fc874572b90)"><clipPath id="7fc874572b90"><path fill="#000" fill-opacity="0.35" d="M171.911,245.561 L171.911,267.556 L158.118,267.556 L158.118,245.561 Z"/></clipPath><g clip-path="url(#7fc874363d10)"><clipPath id="7fc874363d10"><path fill="#000" fill-opacity="0.35" d="M172.124,245.561 L172.124,267.561 L158.124,267.561 L158.124,245.561 Z"/></clipPath><path fill="#000" d="M165.653,264.547 C166.639,263.242,167.624,262.576,167.917,262.39 C169.568,261.325,171.085,261.139,171.112,261.139 C171.378,261.139,171.378,261.431,171.378,261.618 C171.378,262.017,171.325,262.044,170.899,262.124 C168.582,262.683,166.559,264.094,165.467,266.784 C165.387,267.076,165.334,267.13,165.174,267.13 C164.988,267.13,164.934,266.997,164.908,266.943 C164.482,265.905,163.31,263.029,159.289,262.124 C159.023,262.044,158.943,262.017,158.943,261.618 C158.943,261.431,158.943,261.139,159.236,261.139 C159.263,261.139,160.781,261.352,162.378,262.363 C163.097,262.816,163.923,263.508,164.695,264.547 L164.695,246.84 C164.695,246.414,164.695,245.961,165.174,245.961 C165.627,245.961,165.627,246.414,165.627,246.84 L165.627,264.547"/></g></g><g clip-path="url(#7fc8741568a0)"><clipPath id="7fc8741568a0"><path fill="#000" fill-opacity="0.35" d="M171.911,353.561 L171.911,375.556 L158.118,375.556 L158.118,353.561 Z"/></clipPath><g clip-path="url(#7fc874546ea0)"><clipPath id="7fc874546ea0"><path fill="#000" fill-opacity="0.35" d="M172.124,353.561 L172.124,375.561 L158.124,375.561 L158.124,353.561 Z"/></clipPath><path fill="#000" d="M165.653,372.547 C166.639,371.242,167.624,370.576,167.917,370.39 C169.568,369.325,171.085,369.139,171.112,369.139 C171.378,369.139,171.378,369.431,171.378,369.618 C171.378,370.017,171.325,370.044,170.899,370.124 C168.582,370.683,166.559,372.094,165.467,374.784 C165.387,375.076,165.334,375.13,165.174,375.13 C164.988,375.13,164.934,374.997,164.908,374.943 C164.482,373.905,163.31,371.029,159.289,370.124 C159.023,370.044,158.943,370.017,158.943,369.618 C158.943,369.431,158.943,369.139,159.236,369.139 C159.263,369.139,160.781,369.352,162.378,370.363 C163.097,370.816,163.923,371.508,164.695,372.547 L164.695,354.84 C164.695,354.414,164.695,353.961,165.174,353.961 C165.627,353.961,165.627,354.414,165.627,354.84 L165.627,372.547"/></g></g></g><g clip-path="url(#7fc8741a7220)"><clipPath id="7fc8741a7220"><path fill="#000" fill-opacity="0.35" d="M387.125,370.67 L387.125,348.676 L373.332,348.676 L373.332,370.67 Z"/></clipPath><g clip-path="url(#7fc874564420)"><clipPath id="7fc874564420"><path fill="#000" fill-opacity="0.35" d="M387.338,370.67 L387.338,348.67 L373.338,348.67 L373.338,370.67 Z"/></clipPath><path fill="#000" d="M380.867,351.685 C381.852,352.989,382.838,353.655,383.13,353.841 C384.781,354.907,386.299,355.093,386.326,355.093 C386.592,355.093,386.592,354.8,386.592,354.614 C386.592,354.214,386.539,354.188,386.113,354.108 C383.796,353.549,381.772,352.137,380.681,349.448 C380.601,349.155,380.548,349.102,380.388,349.102 C380.201,349.102,380.148,349.235,380.122,349.288 C379.696,350.327,378.524,353.202,374.503,354.108 C374.237,354.188,374.157,354.214,374.157,354.614 C374.157,354.8,374.157,355.093,374.45,355.093 C374.477,355.093,375.994,354.88,377.592,353.868 C378.311,353.415,379.136,352.723,379.909,351.685 L379.909,369.392 C379.909,369.818,379.909,370.271,380.388,370.271 C380.84,370.271,380.84,369.818,380.84,369.392 L380.84,351.685"/></g></g><g clip-path="url(#7fc874315af0)"><clipPath id="7fc874315af0"><path fill="#000" fill-opacity="0.35" d="M387.125,262.67 L387.125,240.676 L373.332,240.676 L373.332,262.67 Z"/></clipPath><g clip-path="url(#7fc8743960e0)"><clipPath id="7fc8743960e0"><path fill="#000" fill-opacity="0.35" d="M387.338,262.67 L387.338,240.67 L373.338,240.67 L373.338,262.67 Z"/></clipPath><path fill="#000" d="M380.867,243.685 C381.852,244.989,382.838,245.655,383.13,245.841 C384.781,246.907,386.299,247.093,386.326,247.093 C386.592,247.093,386.592,246.8,386.592,246.614 C386.592,246.214,386.539,246.188,386.113,246.108 C383.796,245.549,381.772,244.137,380.681,241.448 C380.601,241.155,380.548,241.102,380.388,241.102 C380.201,241.102,380.148,241.235,380.122,241.288 C379.696,242.327,378.524,245.202,374.503,246.108 C374.237,246.188,374.157,246.214,374.157,246.614 C374.157,246.8,374.157,247.093,374.45,247.093 C374.477,247.093,375.994,246.88,377.592,245.868 C378.311,245.415,379.136,244.723,379.909,243.685 L379.909,261.392 C379.909,261.818,379.909,262.271,380.388,262.271 C380.84,262.271,380.84,261.818,380.84,261.392 L380.84,243.685"/></g></g><g clip-path="url(#7fc874324830)"><clipPath id="7fc874324830"><path fill="#000" fill-opacity="0.35" d="M313.125,316.67 L313.125,294.676 L299.332,294.676 L299.332,316.67 Z"/></clipPath><g clip-path="url(#7fc874578190)"><clipPath id="7fc874578190"><path fill="#000" fill-opacity="0.35" d="M313.338,316.67 L313.338,294.67 L299.338,294.67 L299.338,316.67 Z"/></clipPath><path fill="#000" d="M306.867,297.685 C307.852,298.989,308.838,299.655,309.13,299.841 C310.781,300.907,312.299,301.093,312.326,301.093 C312.592,301.093,312.592,300.8,312.592,300.614 C312.592,300.214,312.539,300.188,312.113,300.108 C309.796,299.549,307.772,298.137,306.681,295.448 C306.601,295.155,306.548,295.102,306.388,295.102 C306.201,295.102,306.148,295.235,306.122,295.288 C305.696,296.327,304.524,299.202,300.503,300.108 C300.237,300.188,300.157,300.214,300.157,300.614 C300.157,300.8,300.157,301.093,300.45,301.093 C300.477,301.093,301.994,300.88,303.592,299.868 C304.311,299.415,305.136,298.723,305.909,297.685 L305.909,315.392 C305.909,315.818,305.909,316.271,306.388,316.271 C306.84,316.271,306.84,315.818,306.84,315.392 L306.84,297.685"/></g></g><g clip-path="url(#7fc874575510)"><clipPath id="7fc874575510"><path fill="#000" fill-opacity="0.35" d="M244.125,296.702 L244.125,318.697 L230.332,318.697 L230.332,296.702 Z"/></clipPath><g clip-path="url(#7fc8751604f0)"><clipPath id="7fc8751604f0"><path fill="#000" fill-opacity="0.35" d="M244.338,296.702 L244.338,318.702 L230.338,318.702 L230.338,296.702 Z"/></clipPath><path fill="#000" d="M237.867,315.688 C238.852,314.383,239.838,313.717,240.13,313.531 C241.781,312.466,243.299,312.279,243.326,312.279 C243.592,312.279,243.592,312.572,243.592,312.759 C243.592,313.158,243.539,313.185,243.113,313.265 C240.796,313.824,238.772,315.235,237.681,317.924 C237.601,318.217,237.548,318.271,237.388,318.271 C237.201,318.271,237.148,318.137,237.122,318.084 C236.696,317.046,235.524,314.17,231.503,313.265 C231.237,313.185,231.157,313.158,231.157,312.759 C231.157,312.572,231.157,312.279,231.45,312.279 C231.477,312.279,232.994,312.492,234.592,313.504 C235.311,313.957,236.136,314.649,236.909,315.688 L236.909,297.981 C236.909,297.554,236.909,297.102,237.388,297.102 C237.84,297.102,237.84,297.554,237.84,297.981 L237.84,315.688"/></g></g></svg>
