<?xml version="1.0" encoding="UTF-8" standalone="no"?>
<!-- Created with Inkscape (http://www.inkscape.org/) -->

<svg
   xmlns:dc="http://purl.org/dc/elements/1.1/"
   xmlns:cc="http://creativecommons.org/ns#"
   xmlns:rdf="http://www.w3.org/1999/02/22-rdf-syntax-ns#"
   xmlns:svg="http://www.w3.org/2000/svg"
   xmlns="http://www.w3.org/2000/svg"
   xmlns:sodipodi="http://sodipodi.sourceforge.net/DTD/sodipodi-0.dtd"
   xmlns:inkscape="http://www.inkscape.org/namespaces/inkscape"
   width="233.30475"
   height="155.23984"
   id="svg3761"
   version="1.1"
   inkscape:version="0.48.4 r9939"
   sodipodi:docname="New document 8">
  <defs
     id="defs3763" />
  <sodipodi:namedview
     id="base"
     pagecolor="#ffffff"
     bordercolor="#666666"
     borderopacity="1.0"
     inkscape:pageopacity="0.0"
     inkscape:pageshadow="2"
     inkscape:zoom="0.86377106"
     inkscape:cx="267.18412"
     inkscape:cy="118.71877"
     inkscape:document-units="px"
     inkscape:current-layer="layer1"
     showgrid="false"
     fit-margin-top="0"
     fit-margin-left="0"
     fit-margin-right="0"
     fit-margin-bottom="0"
     inkscape:window-width="1855"
     inkscape:window-height="1056"
     inkscape:window-x="65"
     inkscape:window-y="24"
     inkscape:window-maximized="1" />
  <metadata
     id="metadata3766">
    <rdf:RDF>
      <cc:Work
         rdf:about="">
        <dc:format>image/svg+xml</dc:format>
        <dc:type
           rdf:resource="http://purl.org/dc/dcmitype/StillImage" />
        <dc:title></dc:title>
      </cc:Work>
    </rdf:RDF>
  </metadata>
  <g
     inkscape:label="Layer 1"
     inkscape:groupmode="layer"
     id="layer1"
     transform="translate(-104.86312,-489.66002)">
    <g
       transform="translate(-623.35563,-781.83998)"
       id="g241">
      <g
         id="g243">
        <path
           style="fill:#ffffff;stroke:#000000;stroke-width:2"
           inkscape:connector-curvature="0"
           d="m 731,1272.5 104.239,0 0,128 -104.239,0"
           id="path245" />
        <path
           style="fill:#aeaeae;stroke:#000000;stroke-width:2"
           inkscape:connector-curvature="0"
           d="m 947,1272.72 -102.75,0 0,127.78 102.75,0"
           id="path247" />
        <path
           style="fill:#3c3c3c;stroke:#000000;stroke-width:2"
           inkscape:connector-curvature="0"
           d="m 835.239,1272.5 9.011,0 0,128 -9.011,0 z"
           id="path249" />
      </g>
      <text
         style="font-size:24px;font-family:American Typewriter"
         font-size="24"
         transform="translate(852.135,1293.85)"
         xml:space="preserve"
         id="text251"><tspan
           id="tspan253">S</tspan></text>
      <text
         style="font-size:24px;font-family:American Typewriter"
         font-size="24"
         transform="translate(806.697,1293.71)"
         xml:space="preserve"
         id="text255"><tspan
           id="tspan257">N</tspan></text>
      <g
         id="g259">
        <path
           style="fill:none;stroke:#000000;stroke-width:2.5"
           inkscape:connector-curvature="0"
           d="M 832,1339.54 731,1339"
           id="path261" />
        <path
           style="fill:none;stroke:#000000;stroke-width:2.5"
           inkscape:connector-curvature="0"
           d="M 741.971,1344.56 731,1339 l 11.029,-5.44"
           id="path263" />
      </g>
      <path
         style="fill:#ff0004;stroke:#000000;stroke-width:2"
         inkscape:connector-curvature="0"
         d="m 792.378,1333.75 c 2.761,0 5,2.24 5,5 0,2.76 -2.239,5 -5,5 -2.761,0 -5,-2.24 -5,-5 0,-2.76 2.239,-5 5,-5 z"
         id="path265" />
      <text
         style="font-size:24px;font-family:American Typewriter"
         font-size="24"
         transform="translate(751.546,1323.09)"
         xml:space="preserve"
         id="text267"><tspan
           id="tspan269">e</tspan></text>
      <text
         style="font-size:24px;font-family:American Typewriter"
         font-size="24"
         transform="translate(780.112,1360.41)"
         xml:space="preserve"
         id="text271"><tspan
           id="tspan273">h</tspan></text>
      <text
         style="font-size:24px;font-family:American Typewriter"
         font-size="24"
         transform="translate(742.711,1426.4)"
         xml:space="preserve"
         id="text275"><tspan
           id="tspan277">Andreev reflection</tspan></text>
      <g
         id="g279">
        <path
           style="fill:none;stroke:#000000;stroke-width:2.5"
           inkscape:connector-curvature="0"
           d="m 731,1328.5 101,0"
           id="path281" />
        <path
           style="fill:none;stroke:#000000;stroke-width:2.5"
           inkscape:connector-curvature="0"
           d="m 821,1323 11,5.5 -11,5.5"
           id="path283" />
      </g>
      <path
         style="fill:#00a0fe;stroke:#000000;stroke-width:2"
         inkscape:connector-curvature="0"
         d="m 768.378,1323.5 c 2.761,0 5,2.24 5,5 0,2.76 -2.239,5 -5,5 -2.761,0 -5,-2.24 -5,-5 0,-2.76 2.239,-5 5,-5 z"
         id="path285" />
      <g
         id="g287">
        <path
           style="fill:none;stroke:#000000;stroke-width:2.5"
           inkscape:connector-curvature="0"
           d="m 849.372,1329.25 93.793,0"
           id="path289" />
        <path
           style="fill:none;stroke:#000000;stroke-width:2.5"
           inkscape:connector-curvature="0"
           d="m 932.165,1323.75 11,5.5 -11,5.5"
           id="path291" />
      </g>
      <g
         id="g293">
        <path
           style="fill:none;stroke:#000000;stroke-width:2.5"
           inkscape:connector-curvature="0"
           d="m 849.372,1339.5 93.793,0"
           id="path295" />
        <path
           style="fill:none;stroke:#000000;stroke-width:2.5"
           inkscape:connector-curvature="0"
           d="m 932.165,1334 11,5.5 -11,5.5"
           id="path297" />
      </g>
      <path
         style="fill:#00a0fe;stroke:#000000;stroke-width:2"
         inkscape:connector-curvature="0"
         d="m 898.627,1335.1 c 2.762,0 5,2.23 5,5 0,2.76 -2.238,5 -5,5 -2.761,0 -5,-2.24 -5,-5 0,-2.77 2.239,-5 5,-5 z"
         id="path299" />
      <path
         style="fill:#00a0fe;stroke:#000000;stroke-width:2"
         inkscape:connector-curvature="0"
         d="m 898.269,1323.5 c 2.761,0 5,2.24 5,5 0,2.76 -2.239,5 -5,5 -2.762,0 -5,-2.24 -5,-5 0,-2.76 2.238,-5 5,-5 z"
         id="path301" />
      <text
         style="font-size:24px;font-family:American Typewriter"
         font-size="24"
         transform="translate(863.994,1325.22)"
         xml:space="preserve"
         id="text303"><tspan
           id="tspan305">2e</tspan></text>
    </g>
  </g>
</svg>
