<?xml version="1.0" encoding="UTF-8" standalone="no"?>
<!-- Created with Inkscape (http://www.inkscape.org/) -->

<svg
   xmlns:dc="http://purl.org/dc/elements/1.1/"
   xmlns:cc="http://creativecommons.org/ns#"
   xmlns:rdf="http://www.w3.org/1999/02/22-rdf-syntax-ns#"
   xmlns:svg="http://www.w3.org/2000/svg"
   xmlns="http://www.w3.org/2000/svg"
   xmlns:sodipodi="http://sodipodi.sourceforge.net/DTD/sodipodi-0.dtd"
   xmlns:inkscape="http://www.inkscape.org/namespaces/inkscape"
   width="343.83984"
   height="378.60779"
   id="svg4648"
   version="1.1"
   inkscape:version="0.48.4 r9939"
   sodipodi:docname="New document 9">
  <sodipodi:namedview
     id="base"
     pagecolor="#ffffff"
     bordercolor="#666666"
     borderopacity="1.0"
     inkscape:pageopacity="0.0"
     inkscape:pageshadow="2"
     inkscape:zoom="1.2215568"
     inkscape:cx="109.78589"
     inkscape:cy="107.23973"
     inkscape:document-units="px"
     inkscape:current-layer="layer1"
     showgrid="false"
     inkscape:window-width="1855"
     inkscape:window-height="1056"
     inkscape:window-x="65"
     inkscape:window-y="24"
     inkscape:window-maximized="1"
     fit-margin-top="0"
     fit-margin-left="0"
     fit-margin-right="0"
     fit-margin-bottom="0" />
  <defs
     id="defs4650" />
  <metadata
     id="metadata4653">
    <rdf:RDF>
      <cc:Work
         rdf:about="">
        <dc:format>image/svg+xml</dc:format>
        <dc:type
           rdf:resource="http://purl.org/dc/dcmitype/StillImage" />
        <dc:title></dc:title>
      </cc:Work>
    </rdf:RDF>
  </metadata>
  <g
     id="layer1"
     inkscape:groupmode="layer"
     inkscape:label="Layer 1"
     transform="translate(-168.55014,-197.67696)">
    <g
       id="g4821">
      <path
         d="m 215.96061,287.99256 c 0,-27.83501 22.565,-50.40001 50.4,-50.40001 l 151.2,0 c 27.835,0 50.4,22.565 50.4,50.40001 l 0,151.2 c 0,27.83499 -22.565,50.39999 -50.4,50.39999 l -151.2,0 c -27.835,0 -50.4,-22.565 -50.4,-50.39999 z"
         id="path4"
         inkscape:connector-curvature="0"
         style="fill:#aeaeae;stroke:#000000;stroke-width:2" />
      <path
         d="m 273.96061,320.63056 c 0,-15.071 12.178,-27.28801 27.2,-27.28801 l 81.6,0 c 15.022,0 27.2,12.21701 27.2,27.28801 l 0,81.865 c 0,15.071 -12.178,27.28899 -27.2,27.28899 l -81.6,0 c -15.022,0 -27.2,-12.218 -27.2,-27.28899 z"
         id="path6"
         inkscape:connector-curvature="0"
         style="fill:#ffffff;stroke:#000000;stroke-width:2" />
      <path
         d="m 320.96061,429.78455 41.75,0 0,59.5 -41.75,0 z"
         id="path8"
         inkscape:connector-curvature="0"
         style="fill:#3c3c3c;stroke:#000000;stroke-width:2" />
      <path
         d="m 298.85561,482.75455 c 19.876,-2.68 41.217,1.687 57.752,-7.907 4.842,-2.81 3.501,-34.337 6.31,-34.656 2.858,-0.324 4.071,29.525 8.917,33.07 14.783,10.816 29.916,6.331 46.424,9.118"
         id="path10"
         inkscape:connector-curvature="0"
         style="fill:#ffc013;stroke:#000000;stroke-width:2;stroke-linecap:round" />
      <path
         d="m 261.16061,483.75455 c 18.522,-2.713 38.411,1.708 53.821,-8.007 4.511,-2.845 3.262,-34.77 5.879,-35.093 2.664,-0.328 3.794,29.897 8.31,33.488 13.777,10.951 27.88,6.41 43.264,9.232"
         id="path12"
         inkscape:connector-curvature="0"
         style="fill:#ff0004;stroke:#000000;stroke-width:2;stroke-linecap:round" />
      <text
         font-size="24"
         xml:space="preserve"
         id="text189"
         style="font-size:24px;font-family:American Typewriter"
         x="167.90561"
         y="215.36055"><tspan
           id="tspan191"
           style="font-style:normal;font-variant:normal;font-weight:normal;font-stretch:normal;font-family:Abyssinica SIL;-inkscape-font-specification:Abyssinica SIL">topological supercoducting ring</tspan></text>
      <path
         style="fill:none;stroke:#000000;stroke-width:2"
         inkscape:connector-curvature="0"
         id="path203"
         d="m 353.10761,520.90156 -2.147,-25.36701" />
      <text
         xml:space="preserve"
         style="font-size:40px;font-style:normal;font-variant:normal;font-weight:normal;font-stretch:normal;line-height:125%;letter-spacing:0px;word-spacing:0px;fill:#000000;fill-opacity:1;stroke:none;font-family:Abyssinica SIL;-inkscape-font-specification:Abyssinica SIL"
         x="263.70102"
         y="540.78864"
         id="text4742"
         sodipodi:linespacing="125%"><tspan
           sodipodi:role="line"
           x="263.70102"
           y="540.78864"
           id="tspan4750"
           style="font-size:24px;font-style:normal;font-variant:normal;font-weight:normal;font-stretch:normal;font-family:Abyssinica SIL;-inkscape-font-specification:Abyssinica SIL">Josephson junction</tspan><tspan
           sodipodi:role="line"
           x="263.70102"
           y="570.78864"
           id="tspan4767"
           style="font-size:24px;font-style:normal;font-variant:normal;font-weight:normal;font-stretch:normal;font-family:Abyssinica SIL;-inkscape-font-specification:Abyssinica SIL">with Majoranas!</tspan></text>
      <text
         xml:space="preserve"
         style="font-size:40px;font-style:normal;font-variant:normal;font-weight:normal;font-stretch:normal;line-height:125%;letter-spacing:0px;word-spacing:0px;fill:#000000;fill-opacity:1;stroke:none;font-family:Abyssinica SIL;-inkscape-font-specification:Abyssinica SIL"
         x="338.01688"
         y="325.40137"
         id="text4771"
         sodipodi:linespacing="125%"><tspan
           sodipodi:role="line"
           id="tspan4773"
           x="338.01688"
           y="325.40137"
           style="font-size:24px;font-style:normal;font-weight:normal;text-align:center;text-anchor:middle;-inkscape-font-specification:Abyssinica SIL">magnetic</tspan><tspan
           sodipodi:role="line"
           x="338.01688"
           y="355.40137"
           id="tspan4775"
           style="font-size:24px;font-style:normal;font-weight:normal;text-align:center;text-anchor:middle;-inkscape-font-specification:Abyssinica SIL">flux</tspan></text>
      <g
         transform="matrix(0.7486832,0,0,0.7486832,97.688311,135.84184)"
         id="g4796">
        <g
           style="font-style:normal;font-variant:normal;font-weight:normal;font-stretch:normal;letter-spacing:normal;word-spacing:normal;text-anchor:start;fill:none;stroke:#000000;stroke-linecap:butt;stroke-linejoin:miter;stroke-miterlimit:10.43299961;stroke-opacity:1;stroke-dasharray:none;stroke-dashoffset:0"
           id="content"
           transform="matrix(1.0629921,0,0,-1.0629921,-186.02362,789.27165)"
           xml:space="preserve"
           stroke-miterlimit="10.433"
           font-style="normal"
           font-variant="normal"
           font-weight="normal"
           font-stretch="normal"
           font-size-adjust="none"
           letter-spacing="normal"
           word-spacing="normal"><path
             style="fill:#000000;stroke-width:0"
             inkscape:connector-curvature="0"
             d="m 475.39,412.92 0.72,0.07 0.71,0.09 0.69,0.11 0.67,0.14 0.66,0.15 0.64,0.18 0.63,0.2 0.61,0.21 0.59,0.23 0.58,0.26 0.55,0.26 0.54,0.29 0.51,0.3 0.5,0.31 0.47,0.33 0.45,0.34 0.43,0.36 0.41,0.37 0.38,0.37 0.36,0.4 0.33,0.4 0.31,0.41 0.28,0.42 0.25,0.42 0.23,0.44 0.19,0.44 0.17,0.45 0.14,0.45 0.11,0.46 0.08,0.47 0.05,0.46 0.01,0.47 c 0,5.19 -5.67,9.72 -13.25,10.32 v -1.1 c 6.88,-0.79 8.29,-5.37 8.29,-9.17 0,-2.98 -0.75,-8.31 -8.29,-9.2 v 18.37 1.1 2.79 c 0,1.69 0,2.39 4.74,2.39 h 1.64 v 1.55 c -1.78,-0.16 -6.38,-0.16 -8.41,-0.16 -2.04,0 -6.68,0 -8.48,0.16 v -1.55 h 1.66 c 4.73,0 4.73,-0.65 4.73,-2.39 v -2.79 -1.14 -18.29 c -7.08,0.94 -7.98,6.04 -7.98,9.11 0,2.6 0.5,8.18 7.98,9.18 v 1.14 c -7.63,-0.74 -12.95,-5.33 -12.95,-10.27 0,-5.12 5.51,-9.56 12.95,-10.31 v -2.78 c 0,-1.71 0,-2.39 -4.73,-2.39 h -1.66 v -1.55 c 1.8,0.16 6.39,0.16 8.42,0.16 2.05,0 6.69,0 8.47,-0.16 v 1.55 h -1.64 c -4.74,0 -4.74,0.64 -4.74,2.39 z"
             id="path4799" /></g>      </g>
    </g>
  </g>
</svg>
