<?xml version="1.0" encoding="UTF-8" standalone="no"?>
<!-- Created with Inkscape (http://www.inkscape.org/) -->

<svg
   xmlns:dc="http://purl.org/dc/elements/1.1/"
   xmlns:cc="http://creativecommons.org/ns#"
   xmlns:rdf="http://www.w3.org/1999/02/22-rdf-syntax-ns#"
   xmlns:svg="http://www.w3.org/2000/svg"
   xmlns="http://www.w3.org/2000/svg"
   xmlns:sodipodi="http://sodipodi.sourceforge.net/DTD/sodipodi-0.dtd"
   xmlns:inkscape="http://www.inkscape.org/namespaces/inkscape"
   width="481.31543"
   height="405.93118"
   id="svg6815"
   version="1.1"
   inkscape:version="0.48.4 r9939"
   sodipodi:docname="New document 15">
  <defs
     id="defs6817">
    <clipPath
       id="7fc8745de100">
      <path
         style="fill:#000000;fill-opacity:0.35"
         inkscape:connector-curvature="0"
         id="path893"
         d="m 238.813,134.58 21.009,0 0,-16.004 -21.009,0 z" />
    </clipPath>
    <clipPath
       id="7fc874156790">
      <path
         style="fill:#000000;fill-opacity:0.35"
         inkscape:connector-curvature="0"
         id="path898"
         d="m 238.813,134.58 21,0 0,-16 -21,0 z" />
    </clipPath>
    <clipPath
       id="7fc874547860">
      <path
         style="fill:#000000;fill-opacity:0.35"
         inkscape:connector-curvature="0"
         id="path919"
         d="m 158.895,431.751 21.009,0 0,-16.003 -21.009,0 z" />
    </clipPath>
    <clipPath
       id="7fc8745bd8f0">
      <path
         style="fill:#000000;fill-opacity:0.35"
         inkscape:connector-curvature="0"
         id="path924"
         d="m 158.895,431.751 21,0 0,-16 -21,0 z" />
    </clipPath>
    <clipPath
       id="7fc87455e770">
      <path
         style="fill:#000000;fill-opacity:0.35"
         inkscape:connector-curvature="0"
         id="path1003"
         d="m 240.631,283.389 21.009,0 0,-16.003 -21.009,0 z" />
    </clipPath>
    <clipPath
       id="7fc87458e370">
      <path
         style="fill:#000000;fill-opacity:0.35"
         inkscape:connector-curvature="0"
         id="path1008"
         d="m 240.631,283.389 21,0 0,-16 -21,0 z" />
    </clipPath>
  </defs>
  <sodipodi:namedview
     id="base"
     pagecolor="#ffffff"
     bordercolor="#666666"
     borderopacity="1.0"
     inkscape:pageopacity="0.0"
     inkscape:pageshadow="2"
     inkscape:zoom="0.86377106"
     inkscape:cx="479.56783"
     inkscape:cy="165.33988"
     inkscape:document-units="px"
     inkscape:current-layer="layer1"
     showgrid="false"
     fit-margin-top="0"
     fit-margin-left="0"
     fit-margin-right="0"
     fit-margin-bottom="0"
     inkscape:window-width="1855"
     inkscape:window-height="1056"
     inkscape:window-x="65"
     inkscape:window-y="24"
     inkscape:window-maximized="1" />
  <metadata
     id="metadata6820">
    <rdf:RDF>
      <cc:Work
         rdf:about="">
        <dc:format>image/svg+xml</dc:format>
        <dc:type
           rdf:resource="http://purl.org/dc/dcmitype/StillImage" />
        <dc:title></dc:title>
      </cc:Work>
    </rdf:RDF>
  </metadata>
  <g
     inkscape:label="Layer 1"
     inkscape:groupmode="layer"
     id="layer1"
     transform="translate(107.52059,-285.58978)">
    <g
       transform="translate(-149.12139,166.95978)"
       id="g6440">
      <path
         style="fill:none;stroke:#000000;stroke-width:2"
         inkscape:connector-curvature="0"
         id="path688"
         d="m 65.008,150.503 434,0" />
      <path
         style="fill:none;stroke:#000000;stroke-width:2"
         inkscape:connector-curvature="0"
         id="path690"
         d="m 65.008,168.006 65,0" />
      <g
         id="g692">
        <path
           style="fill:none;stroke:#000000;stroke-width:2"
           inkscape:connector-curvature="0"
           id="path694"
           d="m 130.008,218.006 0,-50" />
        <path
           style="fill:none;stroke:#000000;stroke-width:2"
           inkscape:connector-curvature="0"
           id="path696"
           d="m 149.008,218.006 0,-50" />
      </g>
      <g
         id="g698">
        <path
           style="fill:none;stroke:#000000;stroke-width:2"
           inkscape:connector-curvature="0"
           id="path700"
           d="m 202.008,218.006 0,-50" />
        <path
           style="fill:none;stroke:#000000;stroke-width:2"
           inkscape:connector-curvature="0"
           id="path702"
           d="m 221.008,218.006 0,-50" />
      </g>
      <g
         id="g704">
        <path
           style="fill:none;stroke:#000000;stroke-width:2"
           inkscape:connector-curvature="0"
           id="path706"
           d="m 274.008,218.006 0,-50" />
        <path
           style="fill:none;stroke:#000000;stroke-width:2"
           inkscape:connector-curvature="0"
           id="path708"
           d="m 293.008,218.006 0,-50" />
      </g>
      <g
         id="g710">
        <path
           style="fill:none;stroke:#000000;stroke-width:2"
           inkscape:connector-curvature="0"
           id="path712"
           d="m 346.008,218.006 0,-50" />
        <path
           style="fill:none;stroke:#000000;stroke-width:2"
           inkscape:connector-curvature="0"
           id="path714"
           d="m 365.008,218.006 0,-50" />
      </g>
      <g
         id="g716">
        <path
           style="fill:none;stroke:#000000;stroke-width:2"
           inkscape:connector-curvature="0"
           id="path718"
           d="m 418.008,218.006 0,-50" />
        <path
           style="fill:none;stroke:#000000;stroke-width:2"
           inkscape:connector-curvature="0"
           id="path720"
           d="m 437.008,218.006 0,-50" />
      </g>
      <path
         style="fill:none;stroke:#000000;stroke-width:2"
         inkscape:connector-curvature="0"
         id="path722"
         d="m 149.008,168.006 53,0" />
      <path
         style="fill:none;stroke:#000000;stroke-width:2"
         inkscape:connector-curvature="0"
         id="path724"
         d="m 221.008,168.006 53,0" />
      <path
         style="fill:none;stroke:#000000;stroke-width:2"
         inkscape:connector-curvature="0"
         id="path726"
         d="m 293.008,168.006 53,0" />
      <path
         style="fill:none;stroke:#000000;stroke-width:2"
         inkscape:connector-curvature="0"
         id="path728"
         d="m 365.008,168.006 53,0" />
      <path
         style="fill:none;stroke:#000000;stroke-width:2"
         inkscape:connector-curvature="0"
         id="path730"
         d="m 437.008,168.006 62,0" />
      <path
         style="fill:#4a9b0f;stroke:#000000;stroke-width:2"
         inkscape:connector-curvature="0"
         id="path732"
         d="m 180.008,158.506 c 0,-5.247 -4.253,-9.5 -9.5,-9.5 -5.247,0 -9.5,4.253 -9.5,9.5 0,5.247 4.253,9.5 9.5,9.5 5.247,0 9.5,-4.253 9.5,-9.5 z" />
      <path
         style="fill:#4a9b0f;stroke:#000000;stroke-width:2"
         inkscape:connector-curvature="0"
         id="path734"
         d="m 107.008,158.506 c 0,5.247 -4.253,9.5 -9.5,9.5 -5.2467,0 -9.5,-4.253 -9.5,-9.5 0,-5.247 4.2533,-9.5 9.5,-9.5 5.247,0 9.5,4.253 9.5,9.5 z" />
      <path
         style="fill:#003acb;stroke:#000000;stroke-width:2"
         inkscape:connector-curvature="0"
         id="path736"
         d="m 258.217,158.506 c 0,-5.247 -4.253,-9.5 -9.5,-9.5 -5.247,0 -9.5,4.253 -9.5,9.5 0,5.247 4.253,9.5 9.5,9.5 5.247,0 9.5,-4.253 9.5,-9.5 z" />
      <path
         style="fill:#003acb;stroke:#000000;stroke-width:2"
         inkscape:connector-curvature="0"
         id="path738"
         d="m 324.508,158.506 c 0,5.247 -4.253,9.5 -9.5,9.5 -5.247,0 -9.5,-4.253 -9.5,-9.5 0,-5.247 4.253,-9.5 9.5,-9.5 5.247,0 9.5,4.253 9.5,9.5 z" />
      <path
         style="fill:#ff0004;stroke:#000000;stroke-width:2"
         inkscape:connector-curvature="0"
         id="path740"
         d="m 396.508,158.506 c 0,5.247 -4.253,9.5 -9.5,9.5 -5.247,0 -9.5,-4.253 -9.5,-9.5 0,-5.247 4.253,-9.5 9.5,-9.5 5.247,0 9.5,4.253 9.5,9.5 z" />
      <path
         style="fill:#ff0004;stroke:#000000;stroke-width:2"
         inkscape:connector-curvature="0"
         id="path742"
         d="m 468.508,158.506 c 0,5.247 -4.253,9.5 -9.5,9.5 -5.247,0 -9.5,-4.253 -9.5,-9.5 0,-5.247 4.253,-9.5 9.5,-9.5 5.247,0 9.5,4.253 9.5,9.5 z" />
      <text
         style="font-size:18px;font-family:American Typewriter"
         id="text744"
         xml:space="preserve"
         transform="translate(507.676,159.952)"
         font-size="18"><tspan
           id="tspan746">...</tspan></text>
      <text
         style="font-size:18px;font-family:American Typewriter"
         id="text748"
         xml:space="preserve"
         transform="translate(39.676,159.952)"
         font-size="18"><tspan
           id="tspan750">...</tspan></text>
      <text
         style="font-size:18px;font-family:American Typewriter"
         id="text752"
         xml:space="preserve"
         transform="matrix(0,-1,1,0,140.366,238.486)"
         font-size="18"><tspan
           id="tspan754">...</tspan></text>
      <text
         style="font-size:18px;font-family:American Typewriter"
         id="text756"
         xml:space="preserve"
         transform="matrix(0,-1,1,0,212.366,238.486)"
         font-size="18"><tspan
           id="tspan758">...</tspan></text>
      <text
         style="font-size:18px;font-family:American Typewriter"
         id="text760"
         xml:space="preserve"
         transform="matrix(0,-1,1,0,284.366,238.486)"
         font-size="18"><tspan
           id="tspan762">...</tspan></text>
      <text
         style="font-size:18px;font-family:American Typewriter"
         id="text764"
         xml:space="preserve"
         transform="matrix(0,-1,1,0,356.366,238.486)"
         font-size="18"><tspan
           id="tspan766">...</tspan></text>
      <text
         style="font-size:18px;font-family:American Typewriter"
         id="text768"
         xml:space="preserve"
         transform="matrix(0,-1,1,0,428.366,238.486)"
         font-size="18"><tspan
           id="tspan770">...</tspan></text>
      <text
         style="font-size:18px;font-family:American Typewriter"
         id="text772"
         xml:space="preserve"
         transform="translate(507.676,303.952)"
         font-size="18"><tspan
           id="tspan774">...</tspan></text>
      <text
         style="font-size:18px;font-family:American Typewriter"
         id="text776"
         xml:space="preserve"
         transform="translate(39.676,303.952)"
         font-size="18"><tspan
           id="tspan778">...</tspan></text>
      <text
         style="font-size:18px;font-family:American Typewriter"
         id="text780"
         xml:space="preserve"
         transform="matrix(0,-1,1,0,140.366,382.486)"
         font-size="18"><tspan
           id="tspan782">...</tspan></text>
      <text
         style="font-size:18px;font-family:American Typewriter"
         id="text784"
         xml:space="preserve"
         transform="matrix(0,-1,1,0,212.366,382.486)"
         font-size="18"><tspan
           id="tspan786">...</tspan></text>
      <text
         style="font-size:18px;font-family:American Typewriter"
         id="text788"
         xml:space="preserve"
         transform="matrix(0,-1,1,0,284.366,382.486)"
         font-size="18"><tspan
           id="tspan790">...</tspan></text>
      <text
         style="font-size:18px;font-family:American Typewriter"
         id="text792"
         xml:space="preserve"
         transform="matrix(0,-1,1,0,356.366,382.486)"
         font-size="18"><tspan
           id="tspan794">...</tspan></text>
      <text
         style="font-size:18px;font-family:American Typewriter"
         id="text796"
         xml:space="preserve"
         transform="matrix(0,-1,1,0,428.366,382.486)"
         font-size="18"><tspan
           id="tspan798">...</tspan></text>
      <path
         style="fill:none;stroke:#000000;stroke-width:2"
         inkscape:connector-curvature="0"
         id="path800"
         d="m 65.008,438.503 434,0" />
      <path
         style="fill:none;stroke:#000000;stroke-width:2"
         inkscape:connector-curvature="0"
         id="path802"
         d="m 65.008,456.006 65,0" />
      <g
         id="g804">
        <path
           style="fill:none;stroke:#000000;stroke-width:2"
           inkscape:connector-curvature="0"
           id="path806"
           d="m 130.008,506.006 0,-50" />
        <path
           style="fill:none;stroke:#000000;stroke-width:2"
           inkscape:connector-curvature="0"
           id="path808"
           d="m 149.008,506.006 0,-50" />
      </g>
      <g
         id="g810">
        <path
           style="fill:none;stroke:#000000;stroke-width:2"
           inkscape:connector-curvature="0"
           id="path812"
           d="m 202.008,506.006 0,-50" />
        <path
           style="fill:none;stroke:#000000;stroke-width:2"
           inkscape:connector-curvature="0"
           id="path814"
           d="m 221.008,506.006 0,-50" />
      </g>
      <g
         id="g816">
        <path
           style="fill:none;stroke:#000000;stroke-width:2"
           inkscape:connector-curvature="0"
           id="path818"
           d="m 274.008,506.006 0,-50" />
        <path
           style="fill:none;stroke:#000000;stroke-width:2"
           inkscape:connector-curvature="0"
           id="path820"
           d="m 293.008,506.006 0,-50" />
      </g>
      <g
         id="g822">
        <path
           style="fill:none;stroke:#000000;stroke-width:2"
           inkscape:connector-curvature="0"
           id="path824"
           d="m 346.008,506.006 0,-50" />
        <path
           style="fill:none;stroke:#000000;stroke-width:2"
           inkscape:connector-curvature="0"
           id="path826"
           d="m 365.008,506.006 0,-50" />
      </g>
      <g
         id="g828">
        <path
           style="fill:none;stroke:#000000;stroke-width:2"
           inkscape:connector-curvature="0"
           id="path830"
           d="m 418.008,506.006 0,-50" />
        <path
           style="fill:none;stroke:#000000;stroke-width:2"
           inkscape:connector-curvature="0"
           id="path832"
           d="m 437.008,506.006 0,-50" />
      </g>
      <path
         style="fill:none;stroke:#000000;stroke-width:2"
         inkscape:connector-curvature="0"
         id="path834"
         d="m 149.008,456.006 53,0" />
      <path
         style="fill:none;stroke:#000000;stroke-width:2"
         inkscape:connector-curvature="0"
         id="path836"
         d="m 221.008,456.006 53,0" />
      <path
         style="fill:none;stroke:#000000;stroke-width:2"
         inkscape:connector-curvature="0"
         id="path838"
         d="m 293.008,456.006 53,0" />
      <path
         style="fill:none;stroke:#000000;stroke-width:2"
         inkscape:connector-curvature="0"
         id="path840"
         d="m 365.008,456.006 53,0" />
      <path
         style="fill:none;stroke:#000000;stroke-width:2"
         inkscape:connector-curvature="0"
         id="path842"
         d="m 437.008,456.006 62,0" />
      <path
         style="fill:#4a9b0f;stroke:#000000;stroke-width:2"
         inkscape:connector-curvature="0"
         id="path844"
         d="m 108.508,446.506 c 0,5.247 -4.253,9.5 -9.5,9.5 -5.2467,0 -9.5,-4.253 -9.5,-9.5 0,-5.247 4.2533,-9.5 9.5,-9.5 5.247,0 9.5,4.253 9.5,9.5 z" />
      <path
         style="fill:#4a9b0f;stroke:#000000;stroke-width:2"
         inkscape:connector-curvature="0"
         id="path846"
         d="m 258.217,446.506 c 0,5.247 -4.253,9.5 -9.5,9.5 -5.247,0 -9.5,-4.253 -9.5,-9.5 0,-5.247 4.253,-9.5 9.5,-9.5 5.247,0 9.5,4.253 9.5,9.5 z" />
      <path
         style="fill:#003acb;stroke:#000000;stroke-width:2"
         inkscape:connector-curvature="0"
         id="path848"
         d="m 180.008,446.506 c 0,5.247 -4.253,9.5 -9.5,9.5 -5.247,0 -9.5,-4.253 -9.5,-9.5 0,-5.247 4.253,-9.5 9.5,-9.5 5.247,0 9.5,4.253 9.5,9.5 z" />
      <path
         style="fill:#003acb;stroke:#000000;stroke-width:2"
         inkscape:connector-curvature="0"
         id="path850"
         d="m 324.508,446.506 c 0,5.247 -4.253,9.5 -9.5,9.5 -5.247,0 -9.5,-4.253 -9.5,-9.5 0,-5.247 4.253,-9.5 9.5,-9.5 5.247,0 9.5,4.253 9.5,9.5 z" />
      <path
         style="fill:#ff0004;stroke:#000000;stroke-width:2"
         inkscape:connector-curvature="0"
         id="path852"
         d="m 396.508,446.506 c 0,5.247 -4.253,9.5 -9.5,9.5 -5.247,0 -9.5,-4.253 -9.5,-9.5 0,-5.247 4.253,-9.5 9.5,-9.5 5.247,0 9.5,4.253 9.5,9.5 z" />
      <path
         style="fill:#ff0004;stroke:#000000;stroke-width:2"
         inkscape:connector-curvature="0"
         id="path854"
         d="m 468.508,446.506 c 0,5.247 -4.253,9.5 -9.5,9.5 -5.247,0 -9.5,-4.253 -9.5,-9.5 0,-5.247 4.253,-9.5 9.5,-9.5 5.247,0 9.5,4.253 9.5,9.5 z" />
      <text
         style="font-size:18px;font-family:American Typewriter"
         id="text856"
         xml:space="preserve"
         transform="translate(507.676,447.952)"
         font-size="18"><tspan
           id="tspan858">...</tspan></text>
      <text
         style="font-size:18px;font-family:American Typewriter"
         id="text860"
         xml:space="preserve"
         transform="translate(39.676,447.952)"
         font-size="18"><tspan
           id="tspan862">...</tspan></text>
      <text
         style="font-size:18px;font-family:American Typewriter"
         id="text864"
         xml:space="preserve"
         transform="matrix(0,-1,1,0,140.366,526.486)"
         font-size="18"><tspan
           id="tspan866">...</tspan></text>
      <text
         style="font-size:18px;font-family:American Typewriter"
         id="text868"
         xml:space="preserve"
         transform="matrix(0,-1,1,0,212.366,526.486)"
         font-size="18"><tspan
           id="tspan870">...</tspan></text>
      <text
         style="font-size:18px;font-family:American Typewriter"
         id="text872"
         xml:space="preserve"
         transform="matrix(0,-1,1,0,284.366,526.486)"
         font-size="18"><tspan
           id="tspan874">...</tspan></text>
      <text
         style="font-size:18px;font-family:American Typewriter"
         id="text876"
         xml:space="preserve"
         transform="matrix(0,-1,1,0,356.366,526.486)"
         font-size="18"><tspan
           id="tspan878">...</tspan></text>
      <text
         style="font-size:18px;font-family:American Typewriter"
         id="text880"
         xml:space="preserve"
         transform="matrix(0,-1,1,0,428.366,526.486)"
         font-size="18"><tspan
           id="tspan882">...</tspan></text>
      <g
         id="g884">
        <path
           style="fill:none;stroke:#4a9b0f;stroke-width:2.5;stroke-linecap:round"
           inkscape:connector-curvature="0"
           id="path886"
           d="m 252.844,463.202 c -7.835,1.641 -18.049,-0.694 -22.387,4.69 -5.374,6.67 -3.486,19.337 -5.363,29.75" />
        <path
           style="fill:none;stroke:#4a9b0f;stroke-width:2.5;stroke-linecap:round"
           inkscape:connector-curvature="0"
           id="path888"
           d="m 241.665,458.556 c 3.721,1.559 7.267,3.564 11.179,4.646 -3.31,2.55 -7.14,4.252 -10.729,6.345" />
      </g>
      <g
         id="g890"
         clip-path="url(#7fc8745de100)">
        <clipPath
           id="clipPath6736">
          <path
             style="fill:#000000;fill-opacity:0.35"
             inkscape:connector-curvature="0"
             id="path6738"
             d="m 238.813,134.58 21.009,0 0,-16.004 -21.009,0 z" />
        </clipPath>
        <g
           id="g895"
           clip-path="url(#7fc874156790)">
          <clipPath
             id="clipPath6741">
            <path
               style="fill:#000000;fill-opacity:0.35"
               inkscape:connector-curvature="0"
               id="path6743"
               d="m 238.813,134.58 21,0 0,-16 -21,0 z" />
          </clipPath>
          <path
             style="fill:#0000ff"
             inkscape:connector-curvature="0"
             id="path900"
             d="m 239.691,123.13 c 0.932,-2.743 3.515,-2.77 3.781,-2.77 3.622,0 3.861,4.181 3.861,6.045 0,1.464 -0.106,1.864 -0.266,2.343 -0.533,1.731 -1.251,4.5 -1.251,5.139 0,0.24 0.133,0.426 0.319,0.426 0.293,0 0.506,-0.532 0.746,-1.438 0.559,-1.997 0.798,-3.355 0.878,-4.1 0.054,-0.32 0.107,-0.613 0.213,-0.932 0.746,-2.37 2.29,-5.911 3.222,-7.802 0.187,-0.266 0.453,-0.799 0.453,-0.905 0,-0.24 -0.24,-0.24 -0.266,-0.24 -0.08,0 -0.213,0 -0.293,0.186 -1.252,2.264 -2.184,4.634 -3.142,7.057 -0.027,-0.746 -0.054,-2.557 -0.985,-4.873 -0.56,-1.465 -1.518,-2.636 -3.169,-2.636 -2.982,0 -4.66,3.648 -4.66,4.367 0,0.239 0.213,0.239 0.453,0.239 l 0.106,-0.106" />
          <path
             style="fill:#0000ff"
             inkscape:connector-curvature="0"
             id="path902"
             d="m 255.694,127.177 c 1.332,0 2.264,0.905 2.264,2.689 0,2.077 -1.225,2.716 -2.184,2.716 -0.665,0 -2.157,-0.186 -2.876,-1.171 0.799,-0.053 0.986,-0.613 0.986,-0.959 0,-0.532 -0.4,-0.905 -0.932,-0.905 -0.453,0 -0.932,0.266 -0.932,0.959 0,1.597 1.757,2.609 3.781,2.609 2.343,0 3.941,-1.571 3.941,-3.249 0,-1.304 -1.065,-2.609 -2.903,-3.008 1.758,-0.639 2.397,-1.891 2.397,-2.929 0,-1.332 -1.545,-2.317 -3.409,-2.317 -1.863,0 -3.275,0.905 -3.275,2.263 0,0.56 0.346,0.879 0.852,0.879 0.533,0 0.879,-0.373 0.879,-0.852 0,-0.479 -0.346,-0.852 -0.879,-0.879 0.613,-0.745 1.758,-0.905 2.37,-0.905 0.772,0 1.838,0.346 1.838,1.811 0,0.719 -0.24,1.491 -0.693,1.997 -0.532,0.639 -1.012,0.692 -1.864,0.745 -0.426,0.027 -0.452,0.027 -0.532,0.053 -0.027,0 -0.16,0.027 -0.16,0.213 0,0.24 0.133,0.24 0.426,0.24 l 0.905,0" />
        </g>
      </g>
      <g
         id="g904">
        <path
           style="fill:#3c7f32"
           inkscape:connector-curvature="0"
           id="path906"
           d="m 159.884,123.446 c 0.932,-2.742 3.542,-2.769 3.781,-2.769 3.621,0 3.861,4.18 3.861,6.044 0,1.465 -0.106,1.864 -0.266,2.344 -0.533,1.73 -1.251,4.5 -1.251,5.139 0,0.239 0.133,0.426 0.319,0.426 0.293,0 0.506,-0.533 0.746,-1.438 0.559,-1.997 0.799,-3.355 0.905,-4.101 0.027,-0.319 0.08,-0.612 0.186,-0.932 0.746,-2.37 2.29,-5.911 3.222,-7.802 0.186,-0.266 0.48,-0.798 0.48,-0.905 0,-0.24 -0.24,-0.24 -0.294,-0.24 -0.079,0 -0.212,0 -0.292,0.187 -1.252,2.263 -2.183,4.633 -3.143,7.056 -0.026,-0.745 -0.053,-2.556 -0.985,-4.873 -0.558,-1.464 -1.517,-2.636 -3.168,-2.636 -2.982,0 -4.633,3.648 -4.633,4.367 0,0.24 0.213,0.24 0.452,0.24 l 0.08,-0.107" />
        <path
           style="fill:#3c7f32"
           inkscape:connector-curvature="0"
           id="path908"
           d="m 179.802,130.05 -0.586,0 c -0.054,0.346 -0.213,1.358 -0.427,1.518 -0.132,0.106 -1.437,0.106 -1.677,0.106 l -3.089,0 c 1.784,-1.571 2.37,-2.05 3.382,-2.822 1.225,-1.012 2.397,-2.051 2.397,-3.648 0,-2.024 -1.784,-3.276 -3.942,-3.276 -2.076,0 -3.488,1.465 -3.488,3.009 0,0.852 0.719,0.959 0.879,0.959 0.399,0 0.905,-0.293 0.905,-0.905 0,-0.293 -0.133,-0.879 -1.011,-0.879 0.532,-1.198 1.677,-1.571 2.476,-1.571 1.678,0 2.556,1.305 2.556,2.663 0,1.464 -1.038,2.636 -1.597,3.248 l -4.048,3.994 c -0.16,0.133 -0.16,0.187 -0.16,0.639 l 6.924,0 0.506,-3.035" />
      </g>
      <g
         id="g910">
        <path
           style="fill:#3c7f32"
           inkscape:connector-curvature="0"
           id="path912"
           d="m 239.275,419.985 c 0.932,-2.743 3.542,-2.77 3.781,-2.77 3.621,0 3.861,4.181 3.861,6.045 0,1.464 -0.106,1.864 -0.266,2.343 -0.533,1.731 -1.251,4.5 -1.251,5.139 0,0.24 0.133,0.426 0.319,0.426 0.293,0 0.506,-0.532 0.746,-1.438 0.559,-1.997 0.799,-3.355 0.905,-4.1 0.027,-0.32 0.08,-0.613 0.186,-0.932 0.746,-2.37 2.29,-5.912 3.222,-7.802 0.186,-0.266 0.48,-0.799 0.48,-0.905 0,-0.24 -0.24,-0.24 -0.294,-0.24 -0.079,0 -0.212,0 -0.292,0.186 -1.252,2.264 -2.183,4.634 -3.142,7.057 -0.027,-0.746 -0.054,-2.557 -0.986,-4.873 -0.558,-1.465 -1.517,-2.636 -3.168,-2.636 -2.982,0 -4.633,3.648 -4.633,4.367 0,0.239 0.213,0.239 0.452,0.239 l 0.08,-0.106" />
        <path
           style="fill:#3c7f32"
           inkscape:connector-curvature="0"
           id="path914"
           d="m 259.193,426.588 -0.586,0 c -0.054,0.346 -0.213,1.358 -0.427,1.518 -0.132,0.107 -1.437,0.107 -1.677,0.107 l -3.089,0 c 1.784,-1.571 2.37,-2.051 3.382,-2.823 1.225,-1.012 2.397,-2.05 2.397,-3.648 0,-2.024 -1.784,-3.275 -3.942,-3.275 -2.076,0 -3.488,1.464 -3.488,3.009 0,0.852 0.719,0.958 0.879,0.958 0.399,0 0.905,-0.292 0.905,-0.905 0,-0.293 -0.133,-0.879 -1.011,-0.879 0.532,-1.198 1.677,-1.571 2.476,-1.571 1.678,0 2.556,1.305 2.556,2.663 0,1.465 -1.038,2.636 -1.597,3.249 l -4.047,3.994 c -0.161,0.133 -0.161,0.186 -0.161,0.639 l 6.924,0 0.506,-3.036" />
      </g>
      <g
         id="g916"
         clip-path="url(#7fc874547860)">
        <clipPath
           id="clipPath6754">
          <path
             style="fill:#000000;fill-opacity:0.35"
             inkscape:connector-curvature="0"
             id="path6756"
             d="m 158.895,431.751 21.009,0 0,-16.003 -21.009,0 z" />
        </clipPath>
        <g
           id="g921"
           clip-path="url(#7fc8745bd8f0)">
          <clipPath
             id="clipPath6759">
            <path
               style="fill:#000000;fill-opacity:0.35"
               inkscape:connector-curvature="0"
               id="path6761"
               d="m 158.895,431.751 21,0 0,-16 -21,0 z" />
          </clipPath>
          <path
             style="fill:#0000ff"
             inkscape:connector-curvature="0"
             id="path926"
             d="m 159.774,420.301 c 0.932,-2.742 3.515,-2.769 3.781,-2.769 3.621,0 3.861,4.18 3.861,6.044 0,1.465 -0.107,1.864 -0.266,2.344 -0.533,1.73 -1.252,4.5 -1.252,5.139 0,0.239 0.133,0.426 0.32,0.426 0.293,0 0.506,-0.533 0.745,-1.438 0.559,-1.997 0.799,-3.355 0.879,-4.101 0.053,-0.319 0.106,-0.612 0.213,-0.932 0.745,-2.37 2.29,-5.911 3.222,-7.802 0.186,-0.266 0.452,-0.798 0.452,-0.905 0,-0.24 -0.239,-0.24 -0.266,-0.24 -0.08,0 -0.213,0 -0.293,0.187 -1.251,2.263 -2.183,4.633 -3.142,7.056 -0.026,-0.746 -0.053,-2.556 -0.985,-4.873 -0.559,-1.464 -1.518,-2.636 -3.169,-2.636 -2.982,0 -4.659,3.648 -4.659,4.367 0,0.24 0.213,0.24 0.452,0.24 l 0.107,-0.107" />
          <path
             style="fill:#0000ff"
             inkscape:connector-curvature="0"
             id="path928"
             d="m 175.777,424.349 c 1.331,0 2.263,0.905 2.263,2.689 0,2.077 -1.225,2.716 -2.183,2.716 -0.666,0 -2.157,-0.186 -2.876,-1.172 0.799,-0.053 0.985,-0.612 0.985,-0.958 0,-0.533 -0.399,-0.906 -0.932,-0.906 -0.452,0 -0.932,0.267 -0.932,0.959 0,1.598 1.758,2.609 3.781,2.609 2.344,0 3.941,-1.571 3.941,-3.248 0,-1.305 -1.065,-2.61 -2.902,-3.009 1.757,-0.639 2.396,-1.891 2.396,-2.929 0,-1.331 -1.544,-2.317 -3.408,-2.317 -1.864,0 -3.275,0.906 -3.275,2.264 0,0.559 0.346,0.878 0.852,0.878 0.532,0 0.879,-0.372 0.879,-0.852 0,-0.479 -0.347,-0.852 -0.879,-0.878 0.612,-0.746 1.757,-0.906 2.37,-0.906 0.772,0 1.837,0.346 1.837,1.811 0,0.719 -0.24,1.491 -0.692,1.997 -0.533,0.639 -1.012,0.692 -1.864,0.746 -0.426,0.026 -0.453,0.026 -0.533,0.053 -0.026,0 -0.159,0.026 -0.159,0.213 0,0.24 0.133,0.24 0.426,0.24 l 0.905,0" />
        </g>
      </g>
      <g
         id="g930">
        <path
           style="fill:none;stroke:#000000;stroke-width:2"
           inkscape:connector-curvature="0"
           id="path932"
           d="m 65.008,294.503 434,0" />
        <path
           style="fill:none;stroke:#000000;stroke-width:2"
           inkscape:connector-curvature="0"
           id="path934"
           d="m 65.008,312.006 65,0" />
        <g
           id="g936">
          <path
             style="fill:none;stroke:#000000;stroke-width:2"
             inkscape:connector-curvature="0"
             id="path938"
             d="m 130.008,362.006 0,-50" />
          <path
             style="fill:none;stroke:#000000;stroke-width:2"
             inkscape:connector-curvature="0"
             id="path940"
             d="m 149.008,362.006 0,-50" />
        </g>
        <g
           id="g942">
          <path
             style="fill:none;stroke:#000000;stroke-width:2"
             inkscape:connector-curvature="0"
             id="path944"
             d="m 202.008,362.006 0,-50" />
          <path
             style="fill:none;stroke:#000000;stroke-width:2"
             inkscape:connector-curvature="0"
             id="path946"
             d="m 221.008,362.006 0,-50" />
        </g>
        <g
           id="g948">
          <path
             style="fill:none;stroke:#000000;stroke-width:2"
             inkscape:connector-curvature="0"
             id="path950"
             d="m 274.008,362.006 0,-50" />
          <path
             style="fill:none;stroke:#000000;stroke-width:2"
             inkscape:connector-curvature="0"
             id="path952"
             d="m 293.008,362.006 0,-50" />
        </g>
        <g
           id="g954">
          <path
             style="fill:none;stroke:#000000;stroke-width:2"
             inkscape:connector-curvature="0"
             id="path956"
             d="m 346.008,362.006 0,-50" />
          <path
             style="fill:none;stroke:#000000;stroke-width:2"
             inkscape:connector-curvature="0"
             id="path958"
             d="m 365.008,362.006 0,-50" />
        </g>
        <g
           id="g960">
          <path
             style="fill:none;stroke:#000000;stroke-width:2"
             inkscape:connector-curvature="0"
             id="path962"
             d="m 418.008,362.006 0,-50" />
          <path
             style="fill:none;stroke:#000000;stroke-width:2"
             inkscape:connector-curvature="0"
             id="path964"
             d="m 437.008,362.006 0,-50" />
        </g>
        <path
           style="fill:none;stroke:#000000;stroke-width:2"
           inkscape:connector-curvature="0"
           id="path966"
           d="m 149.008,312.006 53,0" />
        <path
           style="fill:none;stroke:#000000;stroke-width:2"
           inkscape:connector-curvature="0"
           id="path968"
           d="m 221.008,312.006 53,0" />
        <path
           style="fill:none;stroke:#000000;stroke-width:2"
           inkscape:connector-curvature="0"
           id="path970"
           d="m 293.008,312.006 53,0" />
        <path
           style="fill:none;stroke:#000000;stroke-width:2"
           inkscape:connector-curvature="0"
           id="path972"
           d="m 365.008,312.006 53,0" />
        <path
           style="fill:none;stroke:#000000;stroke-width:2"
           inkscape:connector-curvature="0"
           id="path974"
           d="m 437.008,312.006 62,0" />
        <path
           style="fill:#4a9b0f;stroke:#000000;stroke-width:2"
           inkscape:connector-curvature="0"
           id="path976"
           d="m 108.508,302.506 c 0,5.247 -4.253,9.5 -9.5,9.5 -5.2467,0 -9.5,-4.253 -9.5,-9.5 0,-5.247 4.2533,-9.5 9.5,-9.5 5.247,0 9.5,4.253 9.5,9.5 z" />
        <path
           style="fill:#4a9b0f;stroke:#000000;stroke-width:2"
           inkscape:connector-curvature="0"
           id="path978"
           d="m 220.717,347.506 c 0,5.247 -4.253,9.5 -9.5,9.5 -5.247,0 -9.5,-4.253 -9.5,-9.5 0,-5.247 4.253,-9.5 9.5,-9.5 5.247,0 9.5,4.253 9.5,9.5 z" />
        <path
           style="fill:#003acb;stroke:#000000;stroke-width:2"
           inkscape:connector-curvature="0"
           id="path980"
           d="m 257.008,302.506 c 0,5.247 -4.253,9.5 -9.5,9.5 -5.247,0 -9.5,-4.253 -9.5,-9.5 0,-5.247 4.253,-9.5 9.5,-9.5 5.247,0 9.5,4.253 9.5,9.5 z" />
        <path
           style="fill:#003acb;stroke:#000000;stroke-width:2"
           inkscape:connector-curvature="0"
           id="path982"
           d="m 324.508,302.506 c 0,5.247 -4.253,9.5 -9.5,9.5 -5.247,0 -9.5,-4.253 -9.5,-9.5 0,-5.247 4.253,-9.5 9.5,-9.5 5.247,0 9.5,4.253 9.5,9.5 z" />
        <path
           style="fill:#ff0004;stroke:#000000;stroke-width:2"
           inkscape:connector-curvature="0"
           id="path984"
           d="m 396.508,302.506 c 0,5.247 -4.253,9.5 -9.5,9.5 -5.247,0 -9.5,-4.253 -9.5,-9.5 0,-5.247 4.253,-9.5 9.5,-9.5 5.247,0 9.5,4.253 9.5,9.5 z" />
        <path
           style="fill:#ff0004;stroke:#000000;stroke-width:2"
           inkscape:connector-curvature="0"
           id="path986"
           d="m 468.508,302.506 c 0,5.247 -4.253,9.5 -9.5,9.5 -5.247,0 -9.5,-4.253 -9.5,-9.5 0,-5.247 4.253,-9.5 9.5,-9.5 5.247,0 9.5,4.253 9.5,9.5 z" />
        <g
           id="g988">
          <path
             style="fill:none;stroke:#003acb;stroke-width:2.5"
             inkscape:connector-curvature="0"
             id="path990"
             d="m 247.508,302.298 -77,0.5" />
          <path
             style="fill:none;stroke:#003acb;stroke-width:2.5"
             inkscape:connector-curvature="0"
             id="path992"
             d="m 181.543,308.226 -11.035,-5.428 10.964,-5.572" />
        </g>
        <g
           id="g994">
          <path
             style="fill:none;stroke:#4a9b0f;stroke-width:2.5;stroke-linecap:round"
             inkscape:connector-curvature="0"
             id="path996"
             d="m 168.758,317.173 c 7.835,1.641 18.049,-0.694 22.387,4.69 5.374,6.67 3.486,19.337 5.363,29.75" />
          <path
             style="fill:none;stroke:#4a9b0f;stroke-width:2.5;stroke-linecap:round"
             inkscape:connector-curvature="0"
             id="path998"
             d="m 189.984,340.976 c 2.064,3.609 4.035,7.291 6.524,10.637 1.143,-3.88 2.861,-7.548 4.459,-11.251" />
        </g>
        <g
           id="g1000"
           clip-path="url(#7fc87455e770)">
          <clipPath
             id="clipPath6801">
            <path
               style="fill:#000000;fill-opacity:0.35"
               inkscape:connector-curvature="0"
               id="path6803"
               d="m 240.631,283.389 21.009,0 0,-16.003 -21.009,0 z" />
          </clipPath>
          <g
             id="g1005"
             clip-path="url(#7fc87458e370)">
            <clipPath
               id="clipPath6806">
              <path
                 style="fill:#000000;fill-opacity:0.35"
                 inkscape:connector-curvature="0"
                 id="path6808"
                 d="m 240.631,283.389 21,0 0,-16 -21,0 z" />
            </clipPath>
            <path
               style="fill:#0000ff"
               inkscape:connector-curvature="0"
               id="path1010"
               d="m 241.51,271.94 c 0.932,-2.743 3.515,-2.77 3.781,-2.77 3.621,0 3.861,4.181 3.861,6.045 0,1.464 -0.107,1.864 -0.266,2.343 -0.533,1.731 -1.252,4.5 -1.252,5.139 0,0.24 0.133,0.426 0.32,0.426 0.293,0 0.506,-0.532 0.745,-1.438 0.559,-1.997 0.799,-3.355 0.879,-4.1 0.053,-0.32 0.106,-0.613 0.213,-0.932 0.746,-2.37 2.29,-5.912 3.222,-7.802 0.186,-0.267 0.453,-0.799 0.453,-0.906 0,-0.239 -0.24,-0.239 -0.267,-0.239 -0.08,0 -0.213,0 -0.293,0.186 -1.251,2.263 -2.183,4.633 -3.142,7.056 -0.026,-0.745 -0.053,-2.556 -0.985,-4.872 -0.559,-1.465 -1.518,-2.636 -3.168,-2.636 -2.983,0 -4.66,3.647 -4.66,4.366 0,0.24 0.213,0.24 0.452,0.24 l 0.107,-0.106" />
            <path
               style="fill:#0000ff"
               inkscape:connector-curvature="0"
               id="path1012"
               d="m 257.513,275.987 c 1.331,0 2.263,0.905 2.263,2.689 0,2.077 -1.225,2.716 -2.183,2.716 -0.666,0 -2.157,-0.186 -2.876,-1.171 0.799,-0.054 0.985,-0.613 0.985,-0.959 0,-0.532 -0.399,-0.905 -0.932,-0.905 -0.452,0 -0.932,0.266 -0.932,0.958 0,1.598 1.758,2.61 3.782,2.61 2.343,0 3.94,-1.571 3.94,-3.249 0,-1.304 -1.065,-2.609 -2.902,-3.009 1.757,-0.639 2.396,-1.89 2.396,-2.929 0,-1.331 -1.544,-2.316 -3.408,-2.316 -1.864,0 -3.275,0.905 -3.275,2.263 0,0.559 0.346,0.879 0.852,0.879 0.533,0 0.879,-0.373 0.879,-0.852 0,-0.48 -0.346,-0.852 -0.879,-0.879 0.612,-0.746 1.757,-0.905 2.37,-0.905 0.772,0 1.837,0.346 1.837,1.81 0,0.719 -0.239,1.491 -0.692,1.997 -0.533,0.639 -1.012,0.693 -1.864,0.746 -0.426,0.027 -0.453,0.027 -0.533,0.053 -0.026,0 -0.159,0.027 -0.159,0.213 0,0.24 0.133,0.24 0.426,0.24 l 0.905,0" />
          </g>
        </g>
        <g
           id="g1014">
          <path
             style="fill:#3c7f32"
             inkscape:connector-curvature="0"
             id="path1016"
             d="m 224.484,344.29 c 0.932,-2.742 3.542,-2.769 3.781,-2.769 3.621,0 3.861,4.181 3.861,6.045 0,1.464 -0.106,1.864 -0.266,2.343 -0.533,1.731 -1.251,4.5 -1.251,5.139 0,0.24 0.133,0.426 0.319,0.426 0.293,0 0.506,-0.533 0.746,-1.438 0.559,-1.997 0.799,-3.355 0.905,-4.101 0.027,-0.319 0.08,-0.612 0.186,-0.931 0.746,-2.37 2.29,-5.912 3.222,-7.802 0.186,-0.267 0.48,-0.799 0.48,-0.906 0,-0.239 -0.24,-0.239 -0.294,-0.239 -0.079,0 -0.212,0 -0.292,0.186 -1.252,2.263 -2.183,4.633 -3.142,7.056 -0.027,-0.745 -0.054,-2.556 -0.986,-4.872 -0.558,-1.465 -1.517,-2.637 -3.168,-2.637 -2.982,0 -4.633,3.648 -4.633,4.367 0,0.24 0.213,0.24 0.452,0.24 l 0.08,-0.107" />
          <path
             style="fill:#3c7f32"
             inkscape:connector-curvature="0"
             id="path1018"
             d="m 244.402,350.894 -0.586,0 c -0.054,0.346 -0.213,1.358 -0.427,1.518 -0.132,0.106 -1.437,0.106 -1.677,0.106 l -3.089,0 c 1.784,-1.571 2.37,-2.05 3.382,-2.822 1.225,-1.012 2.397,-2.05 2.397,-3.648 0,-2.024 -1.784,-3.275 -3.942,-3.275 -2.076,0 -3.488,1.464 -3.488,3.009 0,0.852 0.719,0.958 0.879,0.958 0.399,0 0.905,-0.293 0.905,-0.905 0,-0.293 -0.133,-0.879 -1.011,-0.879 0.532,-1.198 1.677,-1.571 2.476,-1.571 1.678,0 2.556,1.305 2.556,2.663 0,1.464 -1.038,2.636 -1.597,3.248 l -4.047,3.995 c -0.161,0.133 -0.161,0.186 -0.161,0.639 l 6.924,0 0.506,-3.036" />
        </g>
      </g>
    </g>
  </g>
</svg>
