<?xml version="1.0" encoding="UTF-8" standalone="no"?>
<!-- Created with Inkscape (http://www.inkscape.org/) -->

<svg
   xmlns:dc="http://purl.org/dc/elements/1.1/"
   xmlns:cc="http://creativecommons.org/ns#"
   xmlns:rdf="http://www.w3.org/1999/02/22-rdf-syntax-ns#"
   xmlns:svg="http://www.w3.org/2000/svg"
   xmlns="http://www.w3.org/2000/svg"
   xmlns:sodipodi="http://sodipodi.sourceforge.net/DTD/sodipodi-0.dtd"
   xmlns:inkscape="http://www.inkscape.org/namespaces/inkscape"
   width="539.6875"
   height="177.04013"
   id="svg4110"
   version="1.1"
   inkscape:version="0.48.4 r9939"
   sodipodi:docname="New document 14">
  <defs
     id="defs4112">
    <clipPath
       id="7fc8744f7880">
      <path
         style="fill:#000000;fill-opacity:0.35"
         inkscape:connector-curvature="0"
         d="m 65.28,774.772 16.2002,0 0,-15.833 -16.2002,0 z"
         id="path54" />
    </clipPath>
    <clipPath
       id="7fc8744eb630">
      <path
         style="fill:#000000;fill-opacity:0.35"
         inkscape:connector-curvature="0"
         d="m 65.28,774.54 16.2,0 0,-15.6 -16.2,0 z"
         id="path59" />
    </clipPath>
  </defs>
  <sodipodi:namedview
     id="base"
     pagecolor="#ffffff"
     bordercolor="#666666"
     borderopacity="1.0"
     inkscape:pageopacity="0.0"
     inkscape:pageshadow="2"
     inkscape:zoom="0.86377106"
     inkscape:cx="277.71013"
     inkscape:cy="111.08837"
     inkscape:document-units="px"
     inkscape:current-layer="layer1"
     showgrid="false"
     fit-margin-top="0"
     fit-margin-left="0"
     fit-margin-right="0"
     fit-margin-bottom="0"
     inkscape:window-width="1855"
     inkscape:window-height="1056"
     inkscape:window-x="65"
     inkscape:window-y="24"
     inkscape:window-maximized="1" />
  <metadata
     id="metadata4115">
    <rdf:RDF>
      <cc:Work
         rdf:about="">
        <dc:format>image/svg+xml</dc:format>
        <dc:type
           rdf:resource="http://purl.org/dc/dcmitype/StillImage" />
        <dc:title></dc:title>
      </cc:Work>
    </rdf:RDF>
  </metadata>
  <g
     inkscape:label="Layer 1"
     inkscape:groupmode="layer"
     id="layer1"
     transform="translate(-94.337114,-460.22933)">
    <g
       transform="translate(40.399614,-146.44929)"
       id="g29">
      <g
         id="g31">
        <path
           style="fill:#ffffff;stroke:#000000;stroke-width:2"
           inkscape:connector-curvature="0"
           d="m 125.5,640.346 200.239,0 0,81 -200.239,0"
           id="path33" />
        <path
           style="fill:#aeaeae;stroke:#000000;stroke-width:2"
           inkscape:connector-curvature="0"
           d="m 525.5,640.566 -190.75,0 0,80.78 190.75,0"
           id="path35" />
        <path
           style="fill:#3c3c3c;stroke:#000000;stroke-width:2"
           inkscape:connector-curvature="0"
           d="m 325.739,640.346 9.011,0 0,81 -9.011,0 z"
           id="path37" />
      </g>
      <path
         style="fill:#aeaeae"
         inkscape:connector-curvature="0"
         d="m 562.686,639.565 -37.634,0 0,82.75 37.634,0"
         id="path39" />
      <g
         id="g41">
        <path
           style="fill:none;stroke:#000000;stroke-width:2"
           inkscape:connector-curvature="0"
           d="M 333.218,747.346 330.739,725.96"
           id="path43" />
        <text
           style="font-size:24px;font-family:American Typewriter"
           font-size="24"
           transform="translate(337.154,756.62)"
           xml:space="preserve"
           id="text45"><tspan
             id="tspan47">barrier</tspan></text>
      </g>
      <path
         style="fill:#fffffe;fill-opacity:0.01000001;stroke:#000100;stroke-width:2"
         inkscape:connector-curvature="0"
         d="m 87.3357,765.31 c 0,8.947 -7.2529,16.2 -16.2,16.2 -8.947,0 -16.2,-7.253 -16.2,-16.2 0,-8.947 7.253,-16.2 16.2,-16.2 8.9471,0 16.2,7.253 16.2,16.2 z"
         id="path49" />
      <g
         clip-path="url(#7fc8744f7880)"
         id="g51">
        <clipPath
           id="clipPath4080">
          <path
             style="fill:#000000;fill-opacity:0.35"
             inkscape:connector-curvature="0"
             d="m 65.28,774.772 16.2002,0 0,-15.833 -16.2002,0 z"
             id="path4082" />
        </clipPath>
        <g
           clip-path="url(#7fc8744eb630)"
           id="g56">
          <clipPath
             id="clipPath4085">
            <path
               style="fill:#000000;fill-opacity:0.35"
               inkscape:connector-curvature="0"
               d="m 65.28,774.54 16.2,0 0,-15.6 -16.2,0 z"
               id="path4087" />
          </clipPath>
          <path
             style="fill:#000000"
             inkscape:connector-curvature="0"
             d="m 77.9174,761.799 c 1.0545,-1.677 1.9491,-1.741 2.748,-1.789 0.2715,-0.016 0.2875,-0.384 0.2875,-0.415 0,-0.16 -0.1118,-0.256 -0.2875,-0.256 -0.5592,0 -1.1823,0.064 -1.7575,0.064 -0.7189,0 -1.4538,-0.064 -2.1408,-0.064 -0.1278,0 -0.3994,0 -0.3994,0.415 0,0.24 0.1917,0.256 0.3355,0.256 0.5911,0.048 0.9905,0.256 0.9905,0.703 0,0.335 -0.3195,0.799 -0.3195,0.831 l -6.6143,10.512 -1.4698,-11.407 c 0,-0.352 0.4953,-0.639 1.4858,-0.639 0.3036,0 0.5432,0 0.5432,-0.431 0,-0.192 -0.1757,-0.24 -0.3036,-0.24 -0.8627,0 -1.7893,0.064 -2.668,0.064 -0.3834,0 -0.7988,-0.016 -1.1823,-0.016 -0.3994,0 -0.7988,-0.048 -1.1663,-0.048 -0.1597,0 -0.4153,0 -0.4153,0.415 0,0.256 0.1917,0.256 0.5432,0.256 1.1982,0 1.2301,0.192 1.2941,0.735 l 1.6935,13.292 c 0.0798,0.432 0.1597,0.496 0.4313,0.496 0.3515,0 0.4314,-0.112 0.6071,-0.384 l 7.7646,-12.35"
             id="path61" />
        </g>
      </g>
      <path
         style="fill:none;stroke:#000100;stroke-width:2"
         inkscape:connector-curvature="0"
         d="m 558.625,771.983 35,0"
         id="path63" />
      <path
         style="fill:none;stroke:#000100;stroke-width:2"
         inkscape:connector-curvature="0"
         d="m 564.875,776.983 23.25,0"
         id="path65" />
      <path
         style="fill:none;stroke:#000100;stroke-width:2"
         inkscape:connector-curvature="0"
         d="m 570.125,782.733 13.25,0"
         id="path67" />
      <g
         id="g69">
        <path
           style="fill:none;stroke:#000000;stroke-width:2;stroke-dasharray:2"
           inkscape:connector-curvature="0"
           d="m 525.5,640.566 34.875,0"
           id="path71" />
        <path
           style="fill:none;stroke:#000000;stroke-width:2;stroke-dasharray:2"
           inkscape:connector-curvature="0"
           d="m 522.776,721.346 34.875,0"
           id="path73" />
      </g>
      <g
         id="g75">
        <path
           style="fill:none;stroke:#000000;stroke-width:2;stroke-dasharray:2"
           inkscape:connector-curvature="0"
           d="m 93.5,640.566 34.875,0"
           id="path77" />
        <path
           style="fill:none;stroke:#000000;stroke-width:2;stroke-dasharray:2"
           inkscape:connector-curvature="0"
           d="m 90.7764,721.346 34.8746,0"
           id="path79" />
      </g>
      <path
         style="fill:none;stroke:#000100;stroke-width:2"
         inkscape:connector-curvature="0"
         d="m 548.497,682.385 28.378,0"
         id="path81" />
      <path
         style="stroke:#000000;stroke-width:2"
         inkscape:connector-curvature="0"
         d="m 544.375,677.54 c 2.761,0 5,2.239 5,5 0,2.762 -2.239,5 -5,5 -2.761,0 -5,-2.238 -5,-5 0,-2.761 2.239,-5 5,-5 z"
         id="path83" />
      <path
         style="fill:none;stroke:#000100;stroke-width:2"
         inkscape:connector-curvature="0"
         d="m 576.875,682.385 0,89.598"
         id="path85" />
      <path
         style="fill:none;stroke:#000100;stroke-width:2"
         inkscape:connector-curvature="0"
         d="m 99.7531,682.385 -28.3781,0"
         id="path87" />
      <path
         style="stroke:#000000;stroke-width:2"
         inkscape:connector-curvature="0"
         d="m 103.875,677.54 c -2.761,0 -5,2.239 -5,5 0,2.762 2.239,5 5,5 2.761,0 5,-2.238 5,-5 0,-2.761 -2.239,-5 -5,-5 z"
         id="path89" />
      <path
         style="fill:none;stroke:#000100;stroke-width:2"
         inkscape:connector-curvature="0"
         d="m 71.375,682.385 0,65.961"
         id="path91" />
      <path
         style="fill:#ffc013;stroke:#000000;stroke-width:2;stroke-linecap:round"
         inkscape:connector-curvature="0"
         d="m 269.323,703.716 c 23.083,-2.679 47.87,1.687 67.074,-7.907 5.623,-2.809 4.066,-34.337 7.328,-34.656 3.32,-0.324 4.728,29.525 10.357,33.071 17.169,10.815 34.745,6.33 53.918,9.117"
         id="path93" />
      <g
         id="g95">
        <path
           style="fill:none;stroke:#000000;stroke-width:2"
           inkscape:connector-curvature="0"
           d="M 352.739,661.153 377,632.834"
           id="path97" />
        <text
           style="font-size:24px;font-family:American Typewriter"
           font-size="24"
           transform="translate(377.576,624.913)"
           xml:space="preserve"
           id="text99"><tspan
             id="tspan101">Majorana</tspan></text>
      </g>
    </g>
  </g>
</svg>
