<?xml version="1.0" encoding="UTF-8" standalone="no"?>
<!-- Created with Inkscape (http://www.inkscape.org/) -->

<svg
   xmlns:dc="http://purl.org/dc/elements/1.1/"
   xmlns:cc="http://creativecommons.org/ns#"
   xmlns:rdf="http://www.w3.org/1999/02/22-rdf-syntax-ns#"
   xmlns:svg="http://www.w3.org/2000/svg"
   xmlns="http://www.w3.org/2000/svg"
   xmlns:sodipodi="http://sodipodi.sourceforge.net/DTD/sodipodi-0.dtd"
   xmlns:inkscape="http://www.inkscape.org/namespaces/inkscape"
   width="328.78125"
   height="185.93219"
   id="svg3946"
   version="1.1"
   inkscape:version="0.48.4 r9939"
   sodipodi:docname="New document 11">
  <defs
     id="defs3948" />
  <sodipodi:namedview
     id="base"
     pagecolor="#ffffff"
     bordercolor="#666666"
     borderopacity="1.0"
     inkscape:pageopacity="0.0"
     inkscape:pageshadow="2"
     inkscape:zoom="0.86377106"
     inkscape:cx="290.7688"
     inkscape:cy="51.209526"
     inkscape:document-units="px"
     inkscape:current-layer="layer1"
     showgrid="false"
     fit-margin-top="0"
     fit-margin-left="0"
     fit-margin-right="0"
     fit-margin-bottom="0"
     inkscape:window-width="1855"
     inkscape:window-height="1056"
     inkscape:window-x="65"
     inkscape:window-y="24"
     inkscape:window-maximized="1" />
  <metadata
     id="metadata3951">
    <rdf:RDF>
      <cc:Work
         rdf:about="">
        <dc:format>image/svg+xml</dc:format>
        <dc:type
           rdf:resource="http://purl.org/dc/dcmitype/StillImage" />
        <dc:title></dc:title>
      </cc:Work>
    </rdf:RDF>
  </metadata>
  <g
     inkscape:label="Layer 1"
     inkscape:groupmode="layer"
     id="layer1"
     transform="translate(-81.27844,-391.45843)">
    <g
       transform="translate(-80.00281,-439.56157)"
       id="g3859">
      <path
         style="fill:#aeaeae;stroke:#000000;stroke-width:2"
         inkscape:connector-curvature="0"
         id="path103"
         d="m 274.537,831.02 0,132.3 98.606,0 0,-132.3" />
      <text
         style="font-size:24px;font-family:American Typewriter"
         id="text105"
         xml:space="preserve"
         transform="translate(169.571,900.809)"
         font-size="24"><tspan
           id="tspan107">“e lead”</tspan></text>
      <path
         style="fill:#ffffff;stroke:#000000;stroke-width:2"
         inkscape:connector-curvature="0"
         id="path109"
         d="m 161.287,907.32 104.239,0 0,56 -104.239,0" />
      <path
         style="fill:#3c3c3c;stroke:#000000;stroke-width:2"
         inkscape:connector-curvature="0"
         id="path111"
         d="m 265.526,907.32 9.011,0 0,56 -9.011,0 z" />
      <text
         style="font-size:24px;font-family:American Typewriter"
         id="text113"
         xml:space="preserve"
         transform="translate(336.327,868.216)"
         font-size="24"><tspan
           id="tspan115">2e</tspan></text>
      <path
         style="fill:#ffffff;stroke:#000000;stroke-width:2"
         inkscape:connector-curvature="0"
         id="path117"
         d="m 486.393,907.422 -104.239,0 0,56 104.239,0" />
      <text
         style="font-size:24px;font-family:American Typewriter"
         id="text119"
         xml:space="preserve"
         transform="translate(181.833,941.391)"
         font-size="24"><tspan
           id="tspan121">e</tspan></text>
      <g
         id="g123">
        <path
           style="fill:none;stroke:#000000;stroke-width:2.5"
           inkscape:connector-curvature="0"
           id="path125"
           d="m 161.287,946.799 101,0" />
        <path
           style="fill:none;stroke:#000000;stroke-width:2.5"
           inkscape:connector-curvature="0"
           id="path127"
           d="m 251.287,941.299 11,5.5 -11,5.5" />
      </g>
      <path
         style="fill:#00a0fe;stroke:#000000;stroke-width:2"
         inkscape:connector-curvature="0"
         id="path129"
         d="m 198.665,941.799 c 2.762,0 5,2.239 5,5 0,2.762 -2.238,5 -5,5 -2.761,0 -5,-2.238 -5,-5 0,-2.761 2.239,-5 5,-5 z" />
      <path
         style="fill:#3c3c3c;stroke:#000000;stroke-width:2"
         inkscape:connector-curvature="0"
         id="path131"
         d="m 373.143,907.422 9.011,0 0,55.949 -9.011,0 z" />
      <g
         id="g133">
        <path
           style="fill:none;stroke:#000000;stroke-width:2.5"
           inkscape:connector-curvature="0"
           id="path135"
           d="m 386.274,947.272 101,-0.539" />
        <path
           style="fill:none;stroke:#000000;stroke-width:2.5"
           inkscape:connector-curvature="0"
           id="path137"
           d="m 476.244,941.292 11.03,5.441 -10.971,5.559" />
      </g>
      <path
         style="fill:#ff0004;stroke:#000000;stroke-width:2"
         inkscape:connector-curvature="0"
         id="path139"
         d="m 420.396,941.329 c -2.762,0 -5,2.239 -5,5 0,2.762 2.238,5 5,5 2.761,0 5,-2.238 5,-5 0,-2.761 -2.239,-5 -5,-5 z" />
      <text
         style="font-size:24px;font-family:American Typewriter"
         id="text141"
         xml:space="preserve"
         transform="translate(431.386,942.282)"
         font-size="24"><tspan
           id="tspan143">h</tspan></text>
      <g
         id="g145">
        <g
           id="g147">
          <g
             id="g149">
            <path
               style="fill:none;stroke:#000000;stroke-width:2.05411005"
               inkscape:connector-curvature="0"
               id="path151"
               d="m 321.586,899.961 0,-61.82" />
            <path
               style="fill:none;stroke:#000000;stroke-width:2.05411005"
               inkscape:connector-curvature="0"
               id="path153"
               d="m 316.532,848.25 5.054,-10.109 5.054,10.109" />
          </g>
          <g
             id="g155">
            <path
               style="fill:none;stroke:#000000;stroke-width:2.05411005"
               inkscape:connector-curvature="0"
               id="path157"
               d="m 331.836,899.961 0,-61.82" />
            <path
               style="fill:none;stroke:#000000;stroke-width:2.05411005"
               inkscape:connector-curvature="0"
               id="path159"
               d="m 326.782,848.25 5.054,-10.109 5.054,10.109" />
          </g>
        </g>
        <path
           style="fill:#00a0fe;stroke:#000000;stroke-width:2"
           inkscape:connector-curvature="0"
           id="path161"
           d="m 327.431,873.355 c 0,-2.761 2.239,-5 5,-5 2.762,0 5,2.239 5,5 0,2.762 -2.238,5 -5,5 -2.761,0 -5,-2.238 -5,-5 z" />
        <path
           style="fill:#00a0fe;stroke:#000000;stroke-width:2"
           inkscape:connector-curvature="0"
           id="path163"
           d="m 315.836,873.713 c 0,-2.761 2.238,-5 5,-5 2.761,0 5,2.239 5,5 0,2.762 -2.239,5 -5,5 -2.762,0 -5,-2.238 -5,-5 z" />
      </g>
      <text
         style="font-size:24px;font-family:American Typewriter"
         id="text165"
         xml:space="preserve"
         transform="translate(389.107,899.553)"
         font-size="24"><tspan
           id="tspan167">“h lead”</tspan></text>
      <path
         style="fill:#ffc013;stroke:#000000;stroke-width:2;stroke-linecap:round"
         inkscape:connector-curvature="0"
         id="path169"
         d="m 252,947.733 c 23.084,-2.679 47.871,1.688 67.075,-7.907 5.623,-2.809 4.066,-34.336 7.328,-34.655 3.32,-0.324 4.728,29.525 10.357,33.07 17.169,10.816 34.745,6.331 53.918,9.117" />
      <path
         style="fill:none;stroke:#000000;stroke-width:2"
         inkscape:connector-curvature="0"
         id="path171"
         d="M 350.439,986.983 332.438,944.378" />
      <text
         style="font-size:24px;font-family:American Typewriter"
         id="text173"
         xml:space="preserve"
         transform="translate(351.708,1011.96)"
         font-size="24"><tspan
           id="tspan175">Majorana</tspan></text>
    </g>
  </g>
</svg>
