<?xml version="1.0" encoding="UTF-8" standalone="no"?>
<!DOCTYPE svg PUBLIC "-//W3C//DTD SVG 1.1//EN" "http://www.w3.org/Graphics/SVG/1.1/DTD/svg11.dtd">
<!--Generated by Intaglio, www.PurgatoryDesign.com-->
<svg version="1.1" viewBox="0,141,1105,275" width="1105" height="275" xmlns="http://www.w3.org/2000/svg" xmlns:xlink="http://www.w3.org/1999/xlink"><g><path fill="none" stroke="#000" d="M-559.846,36.7329 L-389.746,36.7329 L-389.746,206.833 L-559.846,206.833 Z"/><path fill="none" stroke="#007efd" stroke-width="2" d="M-486.946,206.833 L-486.946,36.7329"/><path fill="none" stroke="#ff0004" stroke-width="2" d="M-390.196,136.183 L-560.296,136.183"/><g clip-path="url(#7f85e2cd4020)"><clipPath id="7f85e2cd4020"><path fill="#000" fill-opacity="0.35" d="M-479.332,74.3485 L-459.537,74.3485 L-459.537,55.4403 L-479.332,55.4403 Z"/></clipPath><g clip-path="url(#7f85e2cd4300)"><clipPath id="7f85e2cd4300"><path fill="#000" fill-opacity="0.35" d="M-479.332,73.4485 L-459.532,73.4485 L-459.532,55.4485 L-479.332,55.4485 Z"/></clipPath><path fill="#000" d="M-470.082,57.1897 C-469.938,56.5906,-469.842,56.4468,-469.578,56.3989 C-469.387,56.351,-468.692,56.351,-468.236,56.351 C-466.056,56.351,-465.097,56.4229,-465.097,58.1004 C-465.097,58.4359,-465.193,59.2747,-465.265,59.8259 C-465.289,59.9218,-465.337,60.1614,-465.337,60.2333 C-465.337,60.3531,-465.265,60.5208,-465.073,60.5208 C-464.833,60.5208,-464.809,60.3291,-464.761,60.0176 L-464.186,56.2791 C-464.162,56.2072,-464.138,55.9915,-464.138,55.9196 C-464.138,55.68,-464.354,55.68,-464.713,55.68 L-476.624,55.68 C-477.151,55.68,-477.151,55.704,-477.319,56.1113 L-478.589,59.8978 C-478.613,59.9218,-478.733,60.2333,-478.733,60.2812 C-478.733,60.401,-478.613,60.5208,-478.469,60.5208 C-478.254,60.5208,-478.23,60.401,-478.11,60.0656 C-476.935,56.7344,-476.384,56.351,-473.221,56.351 L-472.382,56.351 C-471.783,56.351,-471.783,56.4229,-471.783,56.6146 C-471.783,56.7344,-471.831,56.9981,-471.855,57.046 L-474.731,68.5251 C-474.922,69.3159,-474.994,69.5555,-477.295,69.5555 C-478.062,69.5555,-478.182,69.5555,-478.182,69.9629 C-478.182,70.2026,-477.966,70.2026,-477.822,70.2026 C-477.247,70.2026,-476.648,70.1547,-476.073,70.1547 C-475.474,70.1547,-474.851,70.1547,-474.251,70.1547 C-473.652,70.1547,-473.029,70.1547,-472.454,70.1547 C-471.831,70.1547,-471.184,70.2026,-470.585,70.2026 C-470.369,70.2026,-470.13,70.2026,-470.13,69.7712 C-470.13,69.5316,-470.297,69.5316,-470.848,69.5316 C-471.4,69.5316,-471.663,69.5316,-472.214,69.5076 C-472.838,69.4357,-473.029,69.3638,-473.029,69.0283 C-473.029,69.0044,-473.029,68.9085,-472.933,68.573 L-470.082,57.1897 Z"/><path fill="#000" d="M-461.574,63.828 C-461.574,63.4206,-461.598,63.3966,-462.029,63.3966 C-462.988,64.3552,-464.378,64.3792,-465.001,64.3792 L-465.001,64.9064 C-464.642,64.9064,-463.635,64.9064,-462.796,64.499 L-462.796,72.2156 C-462.796,72.7189,-462.796,72.9106,-464.306,72.9106 L-464.881,72.9106 L-464.881,73.4378 C-464.618,73.4378,-462.748,73.3899,-462.197,73.3899 C-461.718,73.3899,-459.825,73.4378,-459.489,73.4378 L-459.489,72.9106 L-460.064,72.9106 C-461.574,72.9106,-461.574,72.7189,-461.574,72.2156 L-461.574,63.828 Z"/></g></g><g clip-path="url(#7f85e2cd3800)"><clipPath id="7f85e2cd3800"><path fill="#000" fill-opacity="0.35" d="M-533.782,131.948 L-513.076,131.948 L-513.076,113.04 L-533.782,113.04 Z"/></clipPath><g clip-path="url(#7f85e2cd3ae0)"><clipPath id="7f85e2cd3ae0"><path fill="#000" fill-opacity="0.35" d="M-533.782,131.048 L-513.082,131.048 L-513.082,113.048 L-533.782,113.048 Z"/></clipPath><path fill="#000" d="M-524.532,114.79 C-524.388,114.191,-524.292,114.047,-524.028,113.999 C-523.837,113.951,-523.142,113.951,-522.686,113.951 C-520.506,113.951,-519.547,114.023,-519.547,115.7 C-519.547,116.036,-519.643,116.875,-519.715,117.426 C-519.739,117.522,-519.787,117.761,-519.787,117.833 C-519.787,117.953,-519.715,118.121,-519.523,118.121 C-519.283,118.121,-519.259,117.929,-519.211,117.618 L-518.636,113.879 C-518.612,113.807,-518.588,113.592,-518.588,113.52 C-518.588,113.28,-518.804,113.28,-519.163,113.28 L-531.074,113.28 C-531.601,113.28,-531.601,113.304,-531.769,113.711 L-533.039,117.498 C-533.063,117.522,-533.183,117.833,-533.183,117.881 C-533.183,118.001,-533.063,118.121,-532.919,118.121 C-532.704,118.121,-532.68,118.001,-532.56,117.666 C-531.385,114.334,-530.834,113.951,-527.671,113.951 L-526.832,113.951 C-526.233,113.951,-526.233,114.023,-526.233,114.215 C-526.233,114.334,-526.281,114.598,-526.305,114.646 L-529.181,126.125 C-529.372,126.916,-529.444,127.156,-531.745,127.156 C-532.512,127.156,-532.632,127.156,-532.632,127.563 C-532.632,127.803,-532.416,127.803,-532.272,127.803 C-531.697,127.803,-531.098,127.755,-530.523,127.755 C-529.924,127.755,-529.301,127.755,-528.701,127.755 C-528.102,127.755,-527.479,127.755,-526.904,127.755 C-526.281,127.755,-525.634,127.803,-525.035,127.803 C-524.819,127.803,-524.58,127.803,-524.58,127.371 C-524.58,127.132,-524.747,127.132,-525.298,127.132 C-525.85,127.132,-526.113,127.132,-526.664,127.108 C-527.288,127.036,-527.479,126.964,-527.479,126.628 C-527.479,126.604,-527.479,126.508,-527.383,126.173 L-524.532,114.79 Z"/><path fill="#000" d="M-513.46,128.306 L-513.963,128.306 C-514.011,128.617,-514.155,129.528,-514.371,129.672 C-514.49,129.768,-515.641,129.768,-515.856,129.768 L-518.636,129.768 C-517.055,128.354,-516.527,127.922,-515.617,127.227 C-514.49,126.341,-513.46,125.382,-513.46,123.944 C-513.46,122.123,-515.066,120.997,-516.983,120.997 C-518.876,120.997,-520.146,122.315,-520.146,123.705 C-520.146,124.495,-519.499,124.567,-519.331,124.567 C-518.972,124.567,-518.54,124.304,-518.54,123.753 C-518.54,123.489,-518.636,122.962,-519.427,122.962 C-518.948,121.883,-517.917,121.548,-517.222,121.548 C-515.713,121.548,-514.922,122.722,-514.922,123.944 C-514.922,125.262,-515.856,126.317,-516.336,126.868 L-519.978,130.463 C-520.146,130.606,-520.146,130.63,-520.146,131.038 L-513.915,131.038 L-513.46,128.306 Z"/></g></g><g><g><path fill="none" stroke="#007efd" stroke-linecap="round" stroke-dasharray="2" d="M-214.941,135.603 C-208.941,135.603,-204.711,139.672,-202.941,144.003 C-199.776,151.747,-199.771,161.244,-200.841,170.103 C-201.661,176.889,-203.944,183.964,-208.341,188.703 C-212.029,192.679,-214.941,194.103,-223.941,195.003"/><path fill="none" stroke="#000100" stroke-width="1.5" d="M-36.1408,119.703 C-36.1408,162.782,-101.418,197.703,-181.941,197.703 C-262.464,197.703,-327.741,162.782,-327.741,119.703 C-327.741,76.6252,-262.464,41.7034,-181.941,41.7034 C-101.418,41.7034,-36.1408,76.6252,-36.1408,119.703 Z"/><g><path fill="none" stroke="#000100" stroke-width="1.5" stroke-linecap="round" d="M-265.341,105.373 C-243.141,127.503,-217.605,138.244,-184.941,138.903 C-160.065,139.406,-136.341,134.703,-122.541,112.503"/><path fill="none" stroke="#000100" stroke-width="1.5" stroke-linecap="round" d="M-232.941,128.424 C-230.541,115.364,-206.724,97.8475,-190.941,97.8239 C-173.964,97.7986,-147.741,107.703,-141.741,126.624"/></g><path fill="none" stroke="#007efd" stroke-linecap="round" d="M-224.241,194.103 C-238.041,183.303,-236.774,173.703,-236.541,161.703 C-236.354,152.073,-228.441,138.603,-215.841,135.603"/><path fill="none" stroke="#ff0004" d="M-63.1408,117.078 C-63.1408,143.464,-115.926,164.853,-181.041,164.853 C-246.155,164.853,-298.941,143.464,-298.941,117.078 C-298.941,90.693,-246.155,69.3034,-181.041,69.3034 C-115.926,69.3034,-63.1408,90.693,-63.1408,117.078 Z"/></g><g clip-path="url(#7f85e2cd2130)"><clipPath id="7f85e2cd2130"><path fill="#000" fill-opacity="0.35" d="M-255.326,186.203 L-235.531,186.203 L-235.531,167.295 L-255.326,167.295 Z"/></clipPath><g clip-path="url(#7f85e2cd2410)"><clipPath id="7f85e2cd2410"><path fill="#000" fill-opacity="0.35" d="M-255.326,185.303 L-235.526,185.303 L-235.526,167.303 L-255.326,167.303 Z"/></clipPath><path fill="#000" d="M-246.076,169.045 C-245.932,168.446,-245.836,168.302,-245.572,168.254 C-245.381,168.206,-244.686,168.206,-244.23,168.206 C-242.05,168.206,-241.091,168.278,-241.091,169.955 C-241.091,170.291,-241.187,171.13,-241.259,171.681 C-241.283,171.777,-241.331,172.016,-241.331,172.088 C-241.331,172.208,-241.259,172.376,-241.067,172.376 C-240.827,172.376,-240.803,172.184,-240.756,171.872 L-240.18,168.134 C-240.156,168.062,-240.132,167.846,-240.132,167.775 C-240.132,167.535,-240.348,167.535,-240.708,167.535 L-252.618,167.535 C-253.145,167.535,-253.145,167.559,-253.313,167.966 L-254.583,171.753 C-254.607,171.777,-254.727,172.088,-254.727,172.136 C-254.727,172.256,-254.607,172.376,-254.463,172.376 C-254.248,172.376,-254.224,172.256,-254.104,171.92 C-252.93,168.589,-252.378,168.206,-249.215,168.206 L-248.376,168.206 C-247.777,168.206,-247.777,168.278,-247.777,168.47 C-247.777,168.589,-247.825,168.853,-247.849,168.901 L-250.725,180.38 C-250.917,181.171,-250.988,181.41,-253.289,181.41 C-254.056,181.41,-254.176,181.41,-254.176,181.818 C-254.176,182.058,-253.96,182.058,-253.816,182.058 C-253.241,182.058,-252.642,182.01,-252.067,182.01 C-251.468,182.01,-250.845,182.01,-250.246,182.01 C-249.646,182.01,-249.023,182.01,-248.448,182.01 C-247.825,182.01,-247.178,182.058,-246.579,182.058 C-246.363,182.058,-246.124,182.058,-246.124,181.626 C-246.124,181.387,-246.291,181.387,-246.843,181.387 C-247.394,181.387,-247.657,181.387,-248.209,181.363 C-248.832,181.291,-249.023,181.219,-249.023,180.883 C-249.023,180.859,-249.023,180.763,-248.928,180.428 L-246.076,169.045 Z"/><path fill="#000" d="M-237.568,175.683 C-237.568,175.276,-237.592,175.252,-238.024,175.252 C-238.982,176.21,-240.372,176.234,-240.995,176.234 L-240.995,176.761 C-240.636,176.761,-239.629,176.761,-238.79,176.354 L-238.79,184.071 C-238.79,184.574,-238.79,184.766,-240.3,184.766 L-240.875,184.766 L-240.875,185.293 C-240.612,185.293,-238.743,185.245,-238.191,185.245 C-237.712,185.245,-235.819,185.293,-235.483,185.293 L-235.483,184.766 L-236.058,184.766 C-237.568,184.766,-237.568,184.574,-237.568,184.071 L-237.568,175.683 Z"/></g></g><g clip-path="url(#7f85e2cd1910)"><clipPath id="7f85e2cd1910"><path fill="#000" fill-opacity="0.35" d="M-256.113,73.8406 L-235.407,73.8406 L-235.407,54.9325 L-256.113,54.9325 Z"/></clipPath><g clip-path="url(#7f85e2cd1bf0)"><clipPath id="7f85e2cd1bf0"><path fill="#000" fill-opacity="0.35" d="M-256.113,72.9406 L-235.413,72.9406 L-235.413,54.9406 L-256.113,54.9406 Z"/></clipPath><path fill="#000" d="M-246.862,56.6819 C-246.719,56.0828,-246.623,55.939,-246.359,55.8911 C-246.167,55.8432,-245.472,55.8432,-245.017,55.8432 C-242.836,55.8432,-241.878,55.915,-241.878,57.5925 C-241.878,57.9281,-241.973,58.7668,-242.045,59.318 C-242.069,59.4139,-242.117,59.6535,-242.117,59.7254 C-242.117,59.8452,-242.045,60.013,-241.854,60.013 C-241.614,60.013,-241.59,59.8213,-241.542,59.5097 L-240.967,55.7713 C-240.943,55.6994,-240.919,55.4836,-240.919,55.4117 C-240.919,55.1721,-241.135,55.1721,-241.494,55.1721 L-253.405,55.1721 C-253.932,55.1721,-253.932,55.1961,-254.1,55.6035 L-255.37,59.3899 C-255.394,59.4139,-255.514,59.7254,-255.514,59.7733 C-255.514,59.8932,-255.394,60.013,-255.25,60.013 C-255.034,60.013,-255.01,59.8932,-254.89,59.5577 C-253.716,56.2266,-253.165,55.8432,-250.002,55.8432 L-249.163,55.8432 C-248.564,55.8432,-248.564,55.915,-248.564,56.1068 C-248.564,56.2266,-248.612,56.4902,-248.636,56.5381 L-251.511,68.0172 C-251.703,68.808,-251.775,69.0477,-254.076,69.0477 C-254.843,69.0477,-254.962,69.0477,-254.962,69.4551 C-254.962,69.6947,-254.747,69.6947,-254.603,69.6947 C-254.028,69.6947,-253.429,69.6468,-252.853,69.6468 C-252.254,69.6468,-251.631,69.6468,-251.032,69.6468 C-250.433,69.6468,-249.81,69.6468,-249.235,69.6468 C-248.612,69.6468,-247.965,69.6947,-247.366,69.6947 C-247.15,69.6947,-246.91,69.6947,-246.91,69.2634 C-246.91,69.0237,-247.078,69.0237,-247.629,69.0237 C-248.18,69.0237,-248.444,69.0237,-248.995,68.9998 C-249.618,68.9279,-249.81,68.856,-249.81,68.5205 C-249.81,68.4965,-249.81,68.4006,-249.714,68.0651 L-246.862,56.6819 Z"/><path fill="#000" d="M-235.791,70.198 L-236.294,70.198 C-236.342,70.5095,-236.486,71.4202,-236.701,71.564 C-236.821,71.6598,-237.971,71.6598,-238.187,71.6598 L-240.967,71.6598 C-239.385,70.2459,-238.858,69.8146,-237.947,69.1196 C-236.821,68.2329,-235.791,67.2743,-235.791,65.8364 C-235.791,64.0151,-237.396,62.8887,-239.313,62.8887 C-241.207,62.8887,-242.477,64.2068,-242.477,65.5968 C-242.477,66.3876,-241.83,66.4595,-241.662,66.4595 C-241.303,66.4595,-240.871,66.1959,-240.871,65.6447 C-240.871,65.3811,-240.967,64.8539,-241.758,64.8539 C-241.279,63.7755,-240.248,63.44,-239.553,63.44 C-238.043,63.44,-237.252,64.6142,-237.252,65.8364 C-237.252,67.1545,-238.187,68.2089,-238.666,68.7601 L-242.309,72.3548 C-242.477,72.4986,-242.477,72.5226,-242.477,72.93 L-236.246,72.93 L-235.791,70.198 Z"/></g></g></g></g><g><path fill="none" stroke="#000" stroke-width="2" d="M0,381.6 L391.2,382.8"/><path fill="none" stroke="#000" stroke-width="2" d="M0,381.6 L175.2,252"/><path fill="none" stroke="#000" stroke-width="2" d="M175.2,252 L564,252"/><path fill="none" stroke="#000" stroke-width="2" d="M391.2,382.8 L564,252"/></g><path fill="#ff0004" stroke="#000" stroke-width="2" d="M169.8,331.2 C169.8,335.176,160.667,338.4,149.4,338.4 C138.133,338.4,129,335.176,129,331.2 C129,327.224,138.133,324,149.4,324 C160.667,324,169.8,327.224,169.8,331.2 Z"/><path fill="#ff0004" stroke="#000" stroke-width="2" d="M451.8,304.4 C451.8,308.376,442.667,311.6,431.4,311.6 C420.133,311.6,411,308.376,411,304.4 C411,300.424,420.133,297.2,431.4,297.2 C442.667,297.2,451.8,300.424,451.8,304.4 Z"/><path fill="#ff0004" stroke="#000" stroke-width="2" d="M311.8,330.2 C311.8,334.176,302.667,337.4,291.4,337.4 C280.133,337.4,271,334.176,271,330.2 C271,326.224,280.133,323,291.4,323 C302.667,323,311.8,326.224,311.8,330.2 Z"/><g><path fill="none" stroke="#000100" stroke-width="2" d="M216,281.4 L216,144"/><path fill="none" stroke="#000100" stroke-width="2" d="M211,154 L216,144 L221,154"/></g><g><path fill="none" stroke="#000100" stroke-width="2" d="M288,281.4 L288,144"/><path fill="none" stroke="#000100" stroke-width="2" d="M283,154 L288,144 L293,154"/></g><g><path fill="none" stroke="#000100" stroke-width="2" d="M360,281.4 L360,144"/><path fill="none" stroke="#000100" stroke-width="2" d="M355,154 L360,144 L365,154"/></g><g><path fill="none" stroke="#000100" stroke-width="2" d="M432,281.4 L432,144"/><path fill="none" stroke="#000100" stroke-width="2" d="M427,154 L432,144 L437,154"/></g><g><path fill="none" stroke="#000100" stroke-width="2" d="M504,281.4 L504,144"/><path fill="none" stroke="#000100" stroke-width="2" d="M499,154 L504,144 L509,154"/></g><g><path fill="none" stroke="#000100" stroke-width="2" d="M108,353.4 L108,216"/><path fill="none" stroke="#000100" stroke-width="2" d="M103,226 L108,216 L113,226"/></g><g><path fill="none" stroke="#000100" stroke-width="2" d="M180,353.4 L180,216"/><path fill="none" stroke="#000100" stroke-width="2" d="M175,226 L180,216 L185,226"/></g><g><path fill="none" stroke="#000100" stroke-width="2" d="M252,353.4 L252,216"/><path fill="none" stroke="#000100" stroke-width="2" d="M247,226 L252,216 L257,226"/></g><g><path fill="none" stroke="#000100" stroke-width="2" d="M396,353.4 L396,216"/><path fill="none" stroke="#000100" stroke-width="2" d="M391,226 L396,216 L401,226"/></g><path fill="#ff0004" stroke="#000" stroke-width="2" d="M244.8,297.8 C244.8,301.776,235.667,305,224.4,305 C213.133,305,204,301.776,204,297.8 C204,293.824,213.133,290.6,224.4,290.6 C235.667,290.6,244.8,293.824,244.8,297.8 Z"/><path fill="none" stroke="#000100" stroke-width="2" d="M108,416 L108,382.8"/><path fill="none" stroke="#000100" stroke-width="2" d="M180,416 L180,382.8"/><path fill="none" stroke="#000100" stroke-width="2" d="M252,416 L252,382.8"/><path fill="none" stroke="#000100" stroke-width="2" d="M396,416 L396,378"/><path fill="none" stroke="#000100" stroke-width="2" d="M504,332 L504,298.8"/><g><path fill="none" stroke="#000" stroke-width="2" d="M540,381.6 L931.2,382.8"/><path fill="none" stroke="#000" stroke-width="2" d="M540,381.6 L715.2,252"/><path fill="none" stroke="#000" stroke-width="2" d="M715.2,252 L1104,252"/><path fill="none" stroke="#000" stroke-width="2" d="M931.2,382.8 L1104,252"/></g><g><path fill="#ff0004" stroke="#000" stroke-width="2" d="M709.8,331.2 C709.8,335.176,700.667,338.4,689.4,338.4 C678.133,338.4,669,335.176,669,331.2 C669,327.224,678.133,324,689.4,324 C700.667,324,709.8,327.224,709.8,331.2 Z"/><g><g><path fill="none" stroke="#000100" stroke-width="2" d="M684,331 L684,295.6"/><path fill="none" stroke="#000100" stroke-width="2" d="M679,305.6 L684,295.6 L689,305.6"/></g><g><path fill="none" stroke="#000100" stroke-width="2" d="M695,331 L695,295.6"/><path fill="none" stroke="#000100" stroke-width="2" d="M690,305.6 L695,295.6 L700,305.6"/></g></g></g><g><path fill="#ff0004" stroke="#000" stroke-width="2" d="M781.8,295.2 C781.8,299.176,772.667,302.4,761.4,302.4 C750.133,302.4,741,299.176,741,295.2 C741,291.224,750.133,288,761.4,288 C772.667,288,781.8,291.224,781.8,295.2 Z"/><g><g><path fill="none" stroke="#000100" stroke-width="2" d="M756,295 L756,259.6"/><path fill="none" stroke="#000100" stroke-width="2" d="M751,269.6 L756,259.6 L761,269.6"/></g><g><path fill="none" stroke="#000100" stroke-width="2" d="M767,295 L767,259.6"/><path fill="none" stroke="#000100" stroke-width="2" d="M762,269.6 L767,259.6 L772,269.6"/></g></g></g><g><path fill="#ff0004" stroke="#000" stroke-width="2" d="M853.8,331.2 C853.8,335.176,844.667,338.4,833.4,338.4 C822.133,338.4,813,335.176,813,331.2 C813,327.224,822.133,324,833.4,324 C844.667,324,853.8,327.224,853.8,331.2 Z"/><g><g><path fill="none" stroke="#000100" stroke-width="2" d="M828,331 L828,295.6"/><path fill="none" stroke="#000100" stroke-width="2" d="M823,305.6 L828,295.6 L833,305.6"/></g><g><path fill="none" stroke="#000100" stroke-width="2" d="M839,331 L839,295.6"/><path fill="none" stroke="#000100" stroke-width="2" d="M834,305.6 L839,295.6 L844,305.6"/></g></g></g><g><path fill="#ff0004" stroke="#000" stroke-width="2" d="M997.8,295.2 C997.8,299.176,988.667,302.4,977.4,302.4 C966.133,302.4,957,299.176,957,295.2 C957,291.224,966.133,288,977.4,288 C988.667,288,997.8,291.224,997.8,295.2 Z"/><g><g><path fill="none" stroke="#000100" stroke-width="2" d="M972,295 L972,259.6"/><path fill="none" stroke="#000100" stroke-width="2" d="M967,269.6 L972,259.6 L977,269.6"/></g><g><path fill="none" stroke="#000100" stroke-width="2" d="M983,295 L983,259.6"/><path fill="none" stroke="#000100" stroke-width="2" d="M978,269.6 L983,259.6 L988,269.6"/></g></g></g><g><g><path fill="none" stroke="#000100" stroke-width="2" d="M324,353.4 L324,216"/><path fill="none" stroke="#000100" stroke-width="2" d="M319,226 L324,216 L329,226"/></g><path fill="none" stroke="#000100" stroke-width="2" d="M324,416 L324,382.8"/></g><g><g><path fill="none" stroke="#000100" stroke-width="2" d="M900,353.4 L900,216"/><path fill="none" stroke="#000100" stroke-width="2" d="M895,226 L900,216 L905,226"/></g><path fill="none" stroke="#000100" stroke-width="2" d="M900,416 L900,382.8"/></g><g><path fill="none" stroke="#000100" stroke-width="2" d="M792,281.4 L792,144"/><path fill="none" stroke="#000100" stroke-width="2" d="M787,154 L792,144 L797,154"/></g><g><path fill="none" stroke="#000100" stroke-width="4" d="M517,323 L572.375,323"/><path fill="#000100" d="M571.5,316 L589,323 L571.5,330"/></g></svg>
