<?xml version="1.0" encoding="UTF-8" standalone="no"?>
<!-- Created with Inkscape (http://www.inkscape.org/) -->

<svg
   xmlns:dc="http://purl.org/dc/elements/1.1/"
   xmlns:cc="http://creativecommons.org/ns#"
   xmlns:rdf="http://www.w3.org/1999/02/22-rdf-syntax-ns#"
   xmlns:svg="http://www.w3.org/2000/svg"
   xmlns="http://www.w3.org/2000/svg"
   xmlns:sodipodi="http://sodipodi.sourceforge.net/DTD/sodipodi-0.dtd"
   xmlns:inkscape="http://www.inkscape.org/namespaces/inkscape"
   width="659.25"
   height="371.5625"
   id="svg4271"
   version="1.1"
   inkscape:version="0.48.4 r9939"
   sodipodi:docname="New document 2">
  <defs
     id="defs4273" />
  <sodipodi:namedview
     id="base"
     pagecolor="#ffffff"
     bordercolor="#666666"
     borderopacity="1.0"
     inkscape:pageopacity="0.0"
     inkscape:pageshadow="2"
     inkscape:zoom="1.01"
     inkscape:cx="411.54939"
     inkscape:cy="163.20375"
     inkscape:document-units="px"
     inkscape:current-layer="layer1"
     showgrid="false"
     fit-margin-top="0"
     fit-margin-left="0"
     fit-margin-right="0"
     fit-margin-bottom="0"
     inkscape:window-width="1855"
     inkscape:window-height="1056"
     inkscape:window-x="65"
     inkscape:window-y="24"
     inkscape:window-maximized="1" />
  <metadata
     id="metadata4276">
    <rdf:RDF>
      <cc:Work
         rdf:about="">
        <dc:format>image/svg+xml</dc:format>
        <dc:type
           rdf:resource="http://purl.org/dc/dcmitype/StillImage" />
        <dc:title></dc:title>
      </cc:Work>
    </rdf:RDF>
  </metadata>
  <g
     inkscape:label="Layer 1"
     inkscape:groupmode="layer"
     id="layer1"
     transform="translate(36.549393,-324.00343)">
    <g
       transform="translate(-67.268143,-427.87157)"
       id="g4">
      <path
         style="fill:#ffffff;stroke:#000100"
         inkscape:connector-curvature="0"
         d="m 31.7169,1045.37 364.6211,0"
         id="path6" />
      <path
         style="fill:#ffffff;stroke:#d20000;stroke-width:3"
         inkscape:connector-curvature="0"
         d="m 36.3377,1045.68 72.0003,0"
         id="path8" />
      <path
         style="fill:#ffffff;stroke:#000100"
         inkscape:connector-curvature="0"
         d="m 324.338,869.869 0,252.001"
         id="path10" />
      <path
         style="fill:#ffffff;stroke:#007efd;stroke-width:3"
         inkscape:connector-curvature="0"
         d="m 432.338,1009.11 0,-72.005"
         id="path12" />
      <path
         style="fill:#ffffff;stroke:#007efd;stroke-width:3"
         inkscape:connector-curvature="0"
         d="m 576.338,1009.11 0,-143.741"
         id="path14" />
      <path
         style="fill:#ffffff;stroke:#007efd;stroke-width:3"
         inkscape:connector-curvature="0"
         d="m 432.338,1009.19 144,0"
         id="path16" />
      <path
         style="fill:#ffffff;stroke:#007efd;stroke-width:3"
         inkscape:connector-curvature="0"
         d="m 360.338,937.105 0,-72"
         id="path18" />
      <path
         style="fill:#ffffff;stroke:#007efd;stroke-width:3"
         inkscape:connector-curvature="0"
         d="m 360.338,865.105 216,0"
         id="path20" />
      <path
         style="fill:#ffffff;stroke:#007efd;stroke-width:3"
         inkscape:connector-curvature="0"
         d="m 360.338,937.192 72,0"
         id="path22" />
      <path
         style="fill:#ffffff;stroke:#000100"
         inkscape:connector-curvature="0"
         d="m 612.338,865.105 0,256.765"
         id="path24" />
      <path
         style="fill:none;stroke:#000100"
         inkscape:connector-curvature="0"
         d="m 612.338,752.869 0,153"
         id="path26" />
      <path
         style="fill:#ffffff;stroke:#000100"
         inkscape:connector-curvature="0"
         d="m 540.338,865.369 0,256.501"
         id="path28" />
      <path
         style="fill:#ffffff;stroke:#000100"
         inkscape:connector-curvature="0"
         d="m 468.338,901.105 0,220.765"
         id="path30" />
      <path
         style="fill:#ffffff;stroke:#000100"
         inkscape:connector-curvature="0"
         d="m 391.717,829.369 297.241,0"
         id="path32" />
      <path
         style="fill:#ffffff;stroke:#000100"
         inkscape:connector-curvature="0"
         d="m 391.717,1045.37 297.241,0"
         id="path34" />
      <path
         style="fill:#ffffff;stroke:#000100"
         inkscape:connector-curvature="0"
         d="m 391.717,973.369 297.241,0"
         id="path36" />
      <path
         style="fill:#ffffff;stroke:#000100"
         inkscape:connector-curvature="0"
         d="m 391.717,901.369 297.241,0"
         id="path38" />
      <path
         style="fill:none;stroke:#000100"
         inkscape:connector-curvature="0"
         d="m 468.338,752.869 0,153"
         id="path40" />
      <path
         style="fill:none;stroke:#000100"
         inkscape:connector-curvature="0"
         d="m 540.338,752.869 0,153"
         id="path42" />
      <path
         style="fill:none;stroke:#000100"
         inkscape:connector-curvature="0"
         d="m 684.338,752.869 0,216"
         id="path44" />
      <g
         id="g46">
        <path
           style="fill:#ffffff;stroke:#d20000;stroke-width:3"
           inkscape:connector-curvature="0"
           d="m 468.338,829.105 216,0"
           id="path48" />
        <path
           style="fill:#ffffff;stroke:#d20000;stroke-width:3"
           inkscape:connector-curvature="0"
           d="m 468.338,1045.37 0,-216.265"
           id="path50" />
        <path
           style="fill:#ffffff;stroke:#d20000;stroke-width:3"
           inkscape:connector-curvature="0"
           d="m 468.338,1045.11 72,0"
           id="path52" />
        <path
           style="fill:#ffffff;stroke:#d20000;stroke-width:3"
           inkscape:connector-curvature="0"
           d="m 540.338,1045.11 0,-144.005"
           id="path54" />
        <path
           style="fill:#ffffff;stroke:#d20000;stroke-width:3"
           inkscape:connector-curvature="0"
           d="m 540.338,901.105 144,0"
           id="path56" />
      </g>
      <g
         id="g58">
        <path
           style="fill:#ffffff;stroke:#4181fe;stroke-width:3"
           inkscape:connector-curvature="0"
           d="m 144.338,1009.11 0,-216.005"
           id="path60" />
        <path
           style="fill:#ffffff;stroke:#4181fe;stroke-width:3"
           inkscape:connector-curvature="0"
           d="m 288.338,1009.11 0,-216.005"
           id="path62" />
        <path
           style="fill:#ffffff;stroke:#4181fe;stroke-width:3"
           inkscape:connector-curvature="0"
           d="m 144.338,793.105 144,0"
           id="path64" />
        <path
           style="fill:#ffffff;stroke:#4181fe;stroke-width:3"
           inkscape:connector-curvature="0"
           d="m 144.338,1009.11 144,0"
           id="path66" />
      </g>
      <path
         style="fill:#ffffff;stroke:#000100"
         inkscape:connector-curvature="0"
         d="m 31.7169,829.369 364.6211,0"
         id="path68" />
      <path
         style="fill:#ffffff;stroke:#000100"
         inkscape:connector-curvature="0"
         d="m 31.7169,901.369 364.6211,0"
         id="path70" />
      <path
         style="fill:none;stroke:#000100"
         inkscape:connector-curvature="0"
         d="m 108.338,752.869 0,153"
         id="path72" />
      <path
         style="fill:none;stroke:#000100"
         inkscape:connector-curvature="0"
         d="m 36.338,752.869 0,153"
         id="path74" />
      <path
         style="fill:none;stroke:#000100"
         inkscape:connector-curvature="0"
         d="m 31.7169,757.369 360.0001,0"
         id="path76" />
      <path
         style="fill:none;stroke:#000100"
         inkscape:connector-curvature="0"
         d="m 180.338,752.869 0,153"
         id="path78" />
      <path
         style="fill:none;stroke:#000100"
         inkscape:connector-curvature="0"
         d="m 324.338,752.869 0,153"
         id="path80" />
      <path
         style="fill:none;stroke:#000100"
         inkscape:connector-curvature="0"
         d="m 252.338,752.869 0,153"
         id="path82" />
      <path
         style="fill:#ffffff;stroke:#000100;stroke-width:2"
         inkscape:connector-curvature="0"
         d="m 252.337,860.605 c 2.552,0 4.621,2.015 4.621,4.5 0,2.486 -2.069,4.5 -4.621,4.5 -2.551,0 -4.62,-2.014 -4.62,-4.5 0,-2.485 2.069,-4.5 4.62,-4.5 z"
         id="path84" />
      <path
         style="fill:#007efd;stroke:#000100;stroke-width:2"
         inkscape:connector-curvature="0"
         d="m 252.337,788.605 c 2.552,0 4.621,2.015 4.621,4.5 0,2.486 -2.069,4.5 -4.621,4.5 -2.551,0 -4.62,-2.014 -4.62,-4.5 0,-2.485 2.069,-4.5 4.62,-4.5 z"
         id="path86" />
      <path
         style="fill:#ffffff;stroke:#000100;stroke-width:2"
         inkscape:connector-curvature="0"
         d="m 324.338,788.869 c 2.552,0 4.62,2.015 4.62,4.5 0,2.485 -2.068,4.5 -4.62,4.5 -2.552,0 -4.621,-2.015 -4.621,-4.5 0,-2.485 2.069,-4.5 4.621,-4.5 z"
         id="path88" />
      <path
         style="fill:#ffffff;stroke:#000100;stroke-width:2"
         inkscape:connector-curvature="0"
         d="m 288.338,752.869 c 2.552,0 4.62,2.015 4.62,4.5 0,2.485 -2.068,4.5 -4.62,4.5 -2.552,0 -4.621,-2.015 -4.621,-4.5 0,-2.485 2.069,-4.5 4.621,-4.5 z"
         id="path90" />
      <path
         style="fill:#ffffff;stroke:#000100;stroke-width:2"
         inkscape:connector-curvature="0"
         d="m 216.338,752.869 c 2.552,0 4.62,2.015 4.62,4.5 0,2.485 -2.068,4.5 -4.62,4.5 -2.552,0 -4.621,-2.015 -4.621,-4.5 0,-2.485 2.069,-4.5 4.621,-4.5 z"
         id="path92" />
      <path
         style="fill:#007efd;stroke:#000100;stroke-width:2"
         inkscape:connector-curvature="0"
         d="m 180.338,788.869 c 2.552,0 4.62,2.015 4.62,4.5 0,2.485 -2.068,4.5 -4.62,4.5 -2.552,0 -4.621,-2.015 -4.621,-4.5 0,-2.485 2.069,-4.5 4.621,-4.5 z"
         id="path94" />
      <path
         style="fill:#007efd;stroke:#000100;stroke-width:2"
         inkscape:connector-curvature="0"
         d="m 144.338,824.869 c 2.552,0 4.62,2.015 4.62,4.5 0,2.485 -2.068,4.5 -4.62,4.5 -2.552,0 -4.621,-2.015 -4.621,-4.5 0,-2.485 2.069,-4.5 4.621,-4.5 z"
         id="path96" />
      <path
         style="fill:#ffffff;stroke:#000100;stroke-width:2"
         inkscape:connector-curvature="0"
         d="m 108.338,860.869 c 2.552,0 4.62,2.015 4.62,4.5 0,2.485 -2.068,4.5 -4.62,4.5 -2.552,0 -4.621,-2.015 -4.621,-4.5 0,-2.485 2.069,-4.5 4.621,-4.5 z"
         id="path98" />
      <path
         style="fill:#ffffff;stroke:#000100;stroke-width:2"
         inkscape:connector-curvature="0"
         d="m 144.338,752.869 c 2.552,0 4.62,2.015 4.62,4.5 0,2.485 -2.068,4.5 -4.62,4.5 -2.552,0 -4.621,-2.015 -4.621,-4.5 0,-2.485 2.069,-4.5 4.621,-4.5 z"
         id="path100" />
      <path
         style="fill:#ffffff;stroke:#000100;stroke-width:2"
         inkscape:connector-curvature="0"
         d="m 108.338,788.869 c 2.552,0 4.62,2.015 4.62,4.5 0,2.485 -2.068,4.5 -4.62,4.5 -2.552,0 -4.621,-2.015 -4.621,-4.5 0,-2.485 2.069,-4.5 4.621,-4.5 z"
         id="path102" />
      <path
         style="fill:#ffffff;stroke:#000100;stroke-width:2"
         inkscape:connector-curvature="0"
         d="m 72.338,824.869 c 2.552,0 4.6203,2.015 4.6203,4.5 0,2.485 -2.0683,4.5 -4.6203,4.5 -2.552,0 -4.6211,-2.015 -4.6211,-4.5 0,-2.485 2.0691,-4.5 4.6211,-4.5 z"
         id="path104" />
      <path
         style="fill:#ffffff;stroke:#000100;stroke-width:2"
         inkscape:connector-curvature="0"
         d="m 36.338,860.869 c 2.552,0 4.6203,2.015 4.6203,4.5 0,2.485 -2.0683,4.5 -4.6203,4.5 -2.552,0 -4.6211,-2.015 -4.6211,-4.5 0,-2.485 2.0691,-4.5 4.6211,-4.5 z"
         id="path106" />
      <path
         style="fill:#ffffff;stroke:#000100;stroke-width:2"
         inkscape:connector-curvature="0"
         d="m 72.338,752.869 c 2.552,0 4.6203,2.015 4.6203,4.5 0,2.485 -2.0683,4.5 -4.6203,4.5 -2.552,0 -4.6211,-2.015 -4.6211,-4.5 0,-2.485 2.0691,-4.5 4.6211,-4.5 z"
         id="path108" />
      <path
         style="fill:#ffffff;stroke:#000100;stroke-width:2"
         inkscape:connector-curvature="0"
         d="m 36.338,788.869 c 2.552,0 4.6203,2.015 4.6203,4.5 0,2.485 -2.0683,4.5 -4.6203,4.5 -2.552,0 -4.6211,-2.015 -4.6211,-4.5 0,-2.485 2.0691,-4.5 4.6211,-4.5 z"
         id="path110" />
      <path
         style="fill:#ffffff;stroke:#000100"
         inkscape:connector-curvature="0"
         d="m 31.7169,1117.37 364.6211,0"
         id="path112" />
      <path
         style="fill:#ffffff;stroke:#000100"
         inkscape:connector-curvature="0"
         d="m 108.338,901.105 0,220.765"
         id="path114" />
      <path
         style="fill:#ffffff;stroke:#000100"
         inkscape:connector-curvature="0"
         d="m 36.338,901.105 0,220.765"
         id="path116" />
      <path
         style="fill:#ffffff;stroke:#000100"
         inkscape:connector-curvature="0"
         d="m 31.7169,973.369 360.0001,0"
         id="path118" />
      <path
         style="fill:#ffffff;stroke:#000100"
         inkscape:connector-curvature="0"
         d="m 180.338,905.869 0,216.001"
         id="path120" />
      <path
         style="fill:#ffffff;stroke:#000100"
         inkscape:connector-curvature="0"
         d="m 252.338,885.869 0,236.001"
         id="path122" />
      <path
         style="fill:#ffffff;stroke:#000100;stroke-width:2"
         inkscape:connector-curvature="0"
         d="m 216.338,1112.87 c 2.552,0 4.62,2.01 4.62,4.5 0,2.48 -2.068,4.5 -4.62,4.5 -2.552,0 -4.621,-2.02 -4.621,-4.5 0,-2.49 2.069,-4.5 4.621,-4.5 z"
         id="path124" />
      <path
         style="fill:#ffffff;stroke:#000100;stroke-width:2"
         inkscape:connector-curvature="0"
         d="m 252.337,1076.61 c 2.552,0 4.621,2.01 4.621,4.5 0,2.48 -2.069,4.5 -4.621,4.5 -2.551,0 -4.62,-2.02 -4.62,-4.5 0,-2.49 2.069,-4.5 4.62,-4.5 z"
         id="path126" />
      <path
         style="fill:#ffffff;stroke:#000100;stroke-width:2"
         inkscape:connector-curvature="0"
         d="m 288.337,1040.61 c 2.552,0 4.621,2.01 4.621,4.5 0,2.48 -2.069,4.5 -4.621,4.5 -2.551,0 -4.62,-2.02 -4.62,-4.5 0,-2.49 2.069,-4.5 4.62,-4.5 z"
         id="path128" />
      <path
         style="fill:#007efd;stroke:#000100;stroke-width:2"
         inkscape:connector-curvature="0"
         d="m 252.337,1004.61 c 2.552,0 4.621,2.01 4.621,4.5 0,2.48 -2.069,4.5 -4.621,4.5 -2.551,0 -4.62,-2.02 -4.62,-4.5 0,-2.49 2.069,-4.5 4.62,-4.5 z"
         id="path130" />
      <path
         style="fill:#ffffff;stroke:#000100;stroke-width:2"
         inkscape:connector-curvature="0"
         d="m 216.337,1040.61 c 2.552,0 4.621,2.01 4.621,4.5 0,2.48 -2.069,4.5 -4.621,4.5 -2.551,0 -4.62,-2.02 -4.62,-4.5 0,-2.49 2.069,-4.5 4.62,-4.5 z"
         id="path132" />
      <path
         style="fill:#ffffff;stroke:#000100;stroke-width:2"
         inkscape:connector-curvature="0"
         d="m 288.338,1112.87 c 2.552,0 4.62,2.01 4.62,4.5 0,2.48 -2.068,4.5 -4.62,4.5 -2.552,0 -4.621,-2.02 -4.621,-4.5 0,-2.49 2.069,-4.5 4.621,-4.5 z"
         id="path134" />
      <path
         style="fill:#ffffff;stroke:#000100;stroke-width:2"
         inkscape:connector-curvature="0"
         d="m 324.338,1076.87 c 2.552,0 4.62,2.01 4.62,4.5 0,2.48 -2.068,4.5 -4.62,4.5 -2.552,0 -4.621,-2.02 -4.621,-4.5 0,-2.49 2.069,-4.5 4.621,-4.5 z"
         id="path136" />
      <path
         style="fill:#ffffff;stroke:#000100;stroke-width:2"
         inkscape:connector-curvature="0"
         d="m 324.338,1004.87 c 2.552,0 4.62,2.01 4.62,4.5 0,2.48 -2.068,4.5 -4.62,4.5 -2.552,0 -4.621,-2.02 -4.621,-4.5 0,-2.49 2.069,-4.5 4.621,-4.5 z"
         id="path138" />
      <path
         style="fill:#007efd;stroke:#000100;stroke-width:2"
         inkscape:connector-curvature="0"
         d="m 288.338,968.869 c 2.552,0 4.62,2.015 4.62,4.5 0,2.485 -2.068,4.5 -4.62,4.5 -2.552,0 -4.621,-2.015 -4.621,-4.5 0,-2.485 2.069,-4.5 4.621,-4.5 z"
         id="path140" />
      <path
         style="fill:#ffffff;stroke:#000100;stroke-width:2"
         inkscape:connector-curvature="0"
         d="m 216.338,968.869 c 2.552,0 4.62,2.015 4.62,4.5 0,2.485 -2.068,4.5 -4.62,4.5 -2.552,0 -4.621,-2.015 -4.621,-4.5 0,-2.485 2.069,-4.5 4.621,-4.5 z"
         id="path142" />
      <path
         style="fill:#ffffff;stroke:#000100;stroke-width:2"
         inkscape:connector-curvature="0"
         d="m 144.338,1040.87 c 2.552,0 4.62,2.01 4.62,4.5 0,2.48 -2.068,4.5 -4.62,4.5 -2.552,0 -4.621,-2.02 -4.621,-4.5 0,-2.49 2.069,-4.5 4.621,-4.5 z"
         id="path144" />
      <path
         style="fill:#ffffff;stroke:#000100;stroke-width:2"
         inkscape:connector-curvature="0"
         d="m 108.338,1076.87 c 2.552,0 4.62,2.01 4.62,4.5 0,2.48 -2.068,4.5 -4.62,4.5 -2.552,0 -4.621,-2.02 -4.621,-4.5 0,-2.49 2.069,-4.5 4.621,-4.5 z"
         id="path146" />
      <path
         style="fill:#ffffff;stroke:#000100"
         inkscape:connector-curvature="0"
         d="m 391.717,1117.37 297.241,0"
         id="path148" />
      <path
         style="fill:#ffffff;stroke:#000100"
         inkscape:connector-curvature="0"
         d="m 396.338,865.369 0,256.501"
         id="path150" />
      <path
         style="fill:#ffffff;stroke:#000100"
         inkscape:connector-curvature="0"
         d="m 684.338,968.869 0,153.001"
         id="path152" />
      <path
         style="fill:#ffffff;stroke:#000100;stroke-width:2"
         inkscape:connector-curvature="0"
         d="m 576.338,1112.87 c 2.552,0 4.62,2.01 4.62,4.5 0,2.48 -2.068,4.5 -4.62,4.5 -2.552,0 -4.621,-2.02 -4.621,-4.5 0,-2.49 2.069,-4.5 4.621,-4.5 z"
         id="path154" />
      <path
         style="fill:#ffffff;stroke:#000100;stroke-width:2"
         inkscape:connector-curvature="0"
         d="m 612.337,1076.61 c 2.552,0 4.621,2.01 4.621,4.5 0,2.48 -2.069,4.5 -4.621,4.5 -2.551,0 -4.62,-2.02 -4.62,-4.5 0,-2.49 2.069,-4.5 4.62,-4.5 z"
         id="path156" />
      <path
         style="fill:#ffffff;stroke:#000100;stroke-width:2"
         inkscape:connector-curvature="0"
         d="m 648.337,1040.61 c 2.552,0 4.621,2.01 4.621,4.5 0,2.48 -2.069,4.5 -4.621,4.5 -2.551,0 -4.62,-2.02 -4.62,-4.5 0,-2.49 2.069,-4.5 4.62,-4.5 z"
         id="path158" />
      <path
         style="fill:#ffffff;stroke:#000100;stroke-width:2"
         inkscape:connector-curvature="0"
         d="m 612.337,1004.61 c 2.552,0 4.621,2.01 4.621,4.5 0,2.48 -2.069,4.5 -4.621,4.5 -2.551,0 -4.62,-2.02 -4.62,-4.5 0,-2.49 2.069,-4.5 4.62,-4.5 z"
         id="path160" />
      <path
         style="fill:#ffffff;stroke:#000100;stroke-width:2"
         inkscape:connector-curvature="0"
         d="m 576.337,1040.61 c 2.552,0 4.621,2.01 4.621,4.5 0,2.48 -2.069,4.5 -4.621,4.5 -2.551,0 -4.62,-2.02 -4.62,-4.5 0,-2.49 2.069,-4.5 4.62,-4.5 z"
         id="path162" />
      <path
         style="fill:#ffffff;stroke:#000100;stroke-width:2"
         inkscape:connector-curvature="0"
         d="m 648.338,1112.87 c 2.552,0 4.62,2.01 4.62,4.5 0,2.48 -2.068,4.5 -4.62,4.5 -2.552,0 -4.621,-2.02 -4.621,-4.5 0,-2.49 2.069,-4.5 4.621,-4.5 z"
         id="path164" />
      <path
         style="fill:#ffffff;stroke:#000100;stroke-width:2"
         inkscape:connector-curvature="0"
         d="m 684.338,1076.87 c 2.552,0 4.62,2.01 4.62,4.5 0,2.48 -2.068,4.5 -4.62,4.5 -2.552,0 -4.621,-2.02 -4.621,-4.5 0,-2.49 2.069,-4.5 4.621,-4.5 z"
         id="path166" />
      <path
         style="fill:#ffffff;stroke:#000100;stroke-width:2"
         inkscape:connector-curvature="0"
         d="m 684.338,1004.87 c 2.552,0 4.62,2.01 4.62,4.5 0,2.48 -2.068,4.5 -4.62,4.5 -2.552,0 -4.621,-2.02 -4.621,-4.5 0,-2.49 2.069,-4.5 4.621,-4.5 z"
         id="path168" />
      <path
         style="fill:#ffffff;stroke:#000100;stroke-width:2"
         inkscape:connector-curvature="0"
         d="m 648.338,968.869 c 2.552,0 4.62,2.015 4.62,4.5 0,2.485 -2.068,4.5 -4.62,4.5 -2.552,0 -4.621,-2.015 -4.621,-4.5 0,-2.485 2.069,-4.5 4.621,-4.5 z"
         id="path170" />
      <path
         style="fill:#007efd;stroke:#000100;stroke-width:2"
         inkscape:connector-curvature="0"
         d="m 576.338,968.869 c 2.552,0 4.62,2.015 4.62,4.5 0,2.485 -2.068,4.5 -4.62,4.5 -2.552,0 -4.621,-2.015 -4.621,-4.5 0,-2.485 2.069,-4.5 4.621,-4.5 z"
         id="path172" />
      <path
         style="fill:#ffffff;stroke:#000100;stroke-width:2"
         inkscape:connector-curvature="0"
         d="m 540.338,1076.87 c 2.552,0 4.62,2.01 4.62,4.5 0,2.48 -2.068,4.5 -4.62,4.5 -2.552,0 -4.621,-2.02 -4.621,-4.5 0,-2.49 2.069,-4.5 4.621,-4.5 z"
         id="path174" />
      <path
         style="fill:#ffffff;stroke:#000100;stroke-width:2"
         inkscape:connector-curvature="0"
         d="m 468.338,1076.87 c 2.552,0 4.62,2.01 4.62,4.5 0,2.48 -2.068,4.5 -4.62,4.5 -2.552,0 -4.621,-2.02 -4.621,-4.5 0,-2.49 2.069,-4.5 4.621,-4.5 z"
         id="path176" />
      <path
         style="fill:#ffffff;stroke:#000100;stroke-width:2"
         inkscape:connector-curvature="0"
         d="m 504.338,1112.87 c 2.552,0 4.62,2.01 4.62,4.5 0,2.48 -2.068,4.5 -4.62,4.5 -2.552,0 -4.621,-2.02 -4.621,-4.5 0,-2.49 2.069,-4.5 4.621,-4.5 z"
         id="path178" />
      <path
         style="fill:#ffffff;stroke:#000100;stroke-width:2"
         inkscape:connector-curvature="0"
         d="m 504.338,968.869 c 2.552,0 4.62,2.015 4.62,4.5 0,2.485 -2.068,4.5 -4.62,4.5 -2.552,0 -4.621,-2.015 -4.621,-4.5 0,-2.485 2.069,-4.5 4.621,-4.5 z"
         id="path180" />
      <path
         style="fill:#ffffff;stroke:#000100;stroke-width:2"
         inkscape:connector-curvature="0"
         d="m 432.338,1040.87 c 2.552,0 4.62,2.01 4.62,4.5 0,2.48 -2.068,4.5 -4.62,4.5 -2.552,0 -4.621,-2.02 -4.621,-4.5 0,-2.49 2.069,-4.5 4.621,-4.5 z"
         id="path182" />
      <path
         style="fill:#ffffff;stroke:#000100;stroke-width:2"
         inkscape:connector-curvature="0"
         d="m 396.338,1076.87 c 2.552,0 4.62,2.01 4.62,4.5 0,2.48 -2.068,4.5 -4.62,4.5 -2.552,0 -4.621,-2.02 -4.621,-4.5 0,-2.49 2.069,-4.5 4.621,-4.5 z"
         id="path184" />
      <path
         style="fill:#ffffff;stroke:#000100;stroke-width:2"
         inkscape:connector-curvature="0"
         d="m 432.338,1112.87 c 2.552,0 4.62,2.01 4.62,4.5 0,2.48 -2.068,4.5 -4.62,4.5 -2.552,0 -4.621,-2.02 -4.621,-4.5 0,-2.49 2.069,-4.5 4.621,-4.5 z"
         id="path186" />
      <path
         style="fill:#007efd;stroke:#000100;stroke-width:2"
         inkscape:connector-curvature="0"
         d="m 432.338,968.869 c 2.552,0 4.62,2.015 4.62,4.5 0,2.485 -2.068,4.5 -4.62,4.5 -2.552,0 -4.621,-2.015 -4.621,-4.5 0,-2.485 2.069,-4.5 4.621,-4.5 z"
         id="path188" />
      <path
         style="fill:#ffffff;stroke:#000100;stroke-width:2"
         inkscape:connector-curvature="0"
         d="m 396.338,1004.87 c 2.552,0 4.62,2.01 4.62,4.5 0,2.48 -2.068,4.5 -4.62,4.5 -2.552,0 -4.621,-2.02 -4.621,-4.5 0,-2.49 2.069,-4.5 4.621,-4.5 z"
         id="path190" />
      <path
         style="fill:none;stroke:#000100"
         inkscape:connector-curvature="0"
         d="m 396.338,752.869 0,153"
         id="path192" />
      <path
         style="fill:none;stroke:#000100"
         inkscape:connector-curvature="0"
         d="m 391.717,757.369 297.241,0"
         id="path194" />
      <path
         style="fill:#ffffff;stroke:#d20000;stroke-width:3"
         inkscape:connector-curvature="0"
         d="m 684.338,901.105 0,-72"
         id="path196" />
      <path
         style="fill:#ffffff;stroke:#000100;stroke-width:2"
         inkscape:connector-curvature="0"
         d="m 612.337,860.605 c 2.552,0 4.621,2.015 4.621,4.5 0,2.486 -2.069,4.5 -4.621,4.5 -2.551,0 -4.62,-2.014 -4.62,-4.5 0,-2.485 2.069,-4.5 4.62,-4.5 z"
         id="path198" />
      <path
         style="fill:#ffffff;stroke:#000100;stroke-width:2"
         inkscape:connector-curvature="0"
         d="m 612.337,788.605 c 2.552,0 4.621,2.015 4.621,4.5 0,2.486 -2.069,4.5 -4.621,4.5 -2.551,0 -4.62,-2.014 -4.62,-4.5 0,-2.485 2.069,-4.5 4.62,-4.5 z"
         id="path200" />
      <path
         style="fill:#ffffff;stroke:#000100;stroke-width:2"
         inkscape:connector-curvature="0"
         d="m 684.338,788.869 c 2.552,0 4.62,2.015 4.62,4.5 0,2.485 -2.068,4.5 -4.62,4.5 -2.552,0 -4.621,-2.015 -4.621,-4.5 0,-2.485 2.069,-4.5 4.621,-4.5 z"
         id="path202" />
      <path
         style="fill:#ffffff;stroke:#000100;stroke-width:2"
         inkscape:connector-curvature="0"
         d="m 648.338,752.869 c 2.552,0 4.62,2.015 4.62,4.5 0,2.485 -2.068,4.5 -4.62,4.5 -2.552,0 -4.621,-2.015 -4.621,-4.5 0,-2.485 2.069,-4.5 4.621,-4.5 z"
         id="path204" />
      <path
         style="fill:#ffffff;stroke:#000100;stroke-width:2"
         inkscape:connector-curvature="0"
         d="m 576.338,752.869 c 2.552,0 4.62,2.015 4.62,4.5 0,2.485 -2.068,4.5 -4.62,4.5 -2.552,0 -4.621,-2.015 -4.621,-4.5 0,-2.485 2.069,-4.5 4.621,-4.5 z"
         id="path206" />
      <path
         style="fill:#ffffff;stroke:#000100;stroke-width:2"
         inkscape:connector-curvature="0"
         d="m 540.338,788.869 c 2.552,0 4.62,2.015 4.62,4.5 0,2.485 -2.068,4.5 -4.62,4.5 -2.552,0 -4.621,-2.015 -4.621,-4.5 0,-2.485 2.069,-4.5 4.621,-4.5 z"
         id="path208" />
      <path
         style="fill:#007efd;stroke:#000100;stroke-width:2"
         inkscape:connector-curvature="0"
         d="m 540.338,860.869 c 2.552,0 4.62,2.015 4.62,4.5 0,2.485 -2.068,4.5 -4.62,4.5 -2.552,0 -4.621,-2.015 -4.621,-4.5 0,-2.485 2.069,-4.5 4.621,-4.5 z"
         id="path210" />
      <path
         style="fill:#ffffff;stroke:#000100;stroke-width:2"
         inkscape:connector-curvature="0"
         d="m 504.338,896.869 c 2.552,0 4.62,2.015 4.62,4.5 0,2.485 -2.068,4.5 -4.62,4.5 -2.552,0 -4.621,-2.015 -4.621,-4.5 0,-2.485 2.069,-4.5 4.621,-4.5 z"
         id="path212" />
      <path
         style="fill:#ffffff;stroke:#000100;stroke-width:2"
         inkscape:connector-curvature="0"
         d="m 504.338,752.869 c 2.552,0 4.62,2.015 4.62,4.5 0,2.485 -2.068,4.5 -4.62,4.5 -2.552,0 -4.621,-2.015 -4.621,-4.5 0,-2.485 2.069,-4.5 4.621,-4.5 z"
         id="path214" />
      <path
         style="fill:#ffffff;stroke:#000100;stroke-width:2"
         inkscape:connector-curvature="0"
         d="m 468.338,788.869 c 2.552,0 4.62,2.015 4.62,4.5 0,2.485 -2.068,4.5 -4.62,4.5 -2.552,0 -4.621,-2.015 -4.621,-4.5 0,-2.485 2.069,-4.5 4.621,-4.5 z"
         id="path216" />
      <path
         style="fill:#ffffff;stroke:#000100;stroke-width:2"
         inkscape:connector-curvature="0"
         d="m 432.338,824.869 c 2.552,0 4.62,2.015 4.62,4.5 0,2.485 -2.068,4.5 -4.62,4.5 -2.552,0 -4.621,-2.015 -4.621,-4.5 0,-2.485 2.069,-4.5 4.621,-4.5 z"
         id="path218" />
      <path
         style="fill:#007efd;stroke:#000100;stroke-width:2"
         inkscape:connector-curvature="0"
         d="m 396.338,860.869 c 2.552,0 4.62,2.015 4.62,4.5 0,2.485 -2.068,4.5 -4.62,4.5 -2.552,0 -4.621,-2.015 -4.621,-4.5 0,-2.485 2.069,-4.5 4.621,-4.5 z"
         id="path220" />
      <path
         style="fill:#ffffff;stroke:#000100;stroke-width:2"
         inkscape:connector-curvature="0"
         d="m 432.338,896.869 c 2.552,0 4.62,2.015 4.62,4.5 0,2.485 -2.068,4.5 -4.62,4.5 -2.552,0 -4.621,-2.015 -4.621,-4.5 0,-2.485 2.069,-4.5 4.621,-4.5 z"
         id="path222" />
      <path
         style="fill:#ffffff;stroke:#000100;stroke-width:2"
         inkscape:connector-curvature="0"
         d="m 432.338,752.869 c 2.552,0 4.62,2.015 4.62,4.5 0,2.485 -2.068,4.5 -4.62,4.5 -2.552,0 -4.621,-2.015 -4.621,-4.5 0,-2.485 2.069,-4.5 4.621,-4.5 z"
         id="path224" />
      <path
         style="fill:#ffffff;stroke:#000100;stroke-width:2"
         inkscape:connector-curvature="0"
         d="m 396.338,788.869 c 2.552,0 4.62,2.015 4.62,4.5 0,2.485 -2.068,4.5 -4.62,4.5 -2.552,0 -4.621,-2.015 -4.621,-4.5 0,-2.485 2.069,-4.5 4.621,-4.5 z"
         id="path226" />
      <path
         style="fill:#ffffff;stroke:#000100;stroke-width:2"
         inkscape:connector-curvature="0"
         d="m 108.338,932.869 c 2.552,0 4.62,2.015 4.62,4.5 0,2.485 -2.068,4.5 -4.62,4.5 -2.552,0 -4.621,-2.015 -4.621,-4.5 0,-2.485 2.069,-4.5 4.621,-4.5 z"
         id="path228" />
      <path
         style="fill:#ffffff;stroke:#000100;stroke-width:2"
         inkscape:connector-curvature="0"
         d="m 180.338,932.869 c 2.552,0 4.62,2.015 4.62,4.5 0,2.485 -2.068,4.5 -4.62,4.5 -2.552,0 -4.621,-2.015 -4.621,-4.5 0,-2.485 2.069,-4.5 4.621,-4.5 z"
         id="path230" />
      <path
         style="fill:#ffffff;stroke:#000100;stroke-width:2"
         inkscape:connector-curvature="0"
         d="m 252.338,932.869 c 2.552,0 4.62,2.015 4.62,4.5 0,2.485 -2.068,4.5 -4.62,4.5 -2.552,0 -4.621,-2.015 -4.621,-4.5 0,-2.485 2.069,-4.5 4.621,-4.5 z"
         id="path232" />
      <path
         style="fill:#ffffff;stroke:#000100;stroke-width:2"
         inkscape:connector-curvature="0"
         d="m 324.338,932.869 c 2.552,0 4.62,2.015 4.62,4.5 0,2.485 -2.068,4.5 -4.62,4.5 -2.552,0 -4.621,-2.015 -4.621,-4.5 0,-2.485 2.069,-4.5 4.621,-4.5 z"
         id="path234" />
      <path
         style="fill:#007efd;stroke:#000100;stroke-width:2"
         inkscape:connector-curvature="0"
         d="m 396.338,932.869 c 2.552,0 4.62,2.015 4.62,4.5 0,2.485 -2.068,4.5 -4.62,4.5 -2.552,0 -4.621,-2.015 -4.621,-4.5 0,-2.485 2.069,-4.5 4.621,-4.5 z"
         id="path236" />
      <path
         style="fill:#ffffff;stroke:#000100;stroke-width:2"
         inkscape:connector-curvature="0"
         d="m 612.338,932.869 c 2.552,0 4.62,2.015 4.62,4.5 0,2.485 -2.068,4.5 -4.62,4.5 -2.552,0 -4.621,-2.015 -4.621,-4.5 0,-2.485 2.069,-4.5 4.621,-4.5 z"
         id="path238" />
      <path
         style="fill:#ffffff;stroke:#000100;stroke-width:2"
         inkscape:connector-curvature="0"
         d="m 684.338,932.869 c 2.552,0 4.62,2.015 4.62,4.5 0,2.485 -2.068,4.5 -4.62,4.5 -2.552,0 -4.621,-2.015 -4.621,-4.5 0,-2.485 2.069,-4.5 4.621,-4.5 z"
         id="path240" />
      <path
         style="fill:#ffffff;stroke:#000100;stroke-width:2"
         inkscape:connector-curvature="0"
         d="m 360.338,752.869 c 2.552,0 4.62,2.015 4.62,4.5 0,2.485 -2.068,4.5 -4.62,4.5 -2.552,0 -4.621,-2.015 -4.621,-4.5 0,-2.485 2.069,-4.5 4.621,-4.5 z"
         id="path242" />
      <path
         style="fill:#ffffff;stroke:#000100;stroke-width:2"
         inkscape:connector-curvature="0"
         d="m 360.338,824.869 c 2.552,0 4.62,2.015 4.62,4.5 0,2.485 -2.068,4.5 -4.62,4.5 -2.552,0 -4.621,-2.015 -4.621,-4.5 0,-2.485 2.069,-4.5 4.621,-4.5 z"
         id="path244" />
      <path
         style="fill:#007efd;stroke:#000100;stroke-width:2"
         inkscape:connector-curvature="0"
         d="m 360.338,896.869 c 2.552,0 4.62,2.015 4.62,4.5 0,2.485 -2.068,4.5 -4.62,4.5 -2.552,0 -4.621,-2.015 -4.621,-4.5 0,-2.485 2.069,-4.5 4.621,-4.5 z"
         id="path246" />
      <path
         style="fill:#ffffff;stroke:#000100;stroke-width:2"
         inkscape:connector-curvature="0"
         d="m 360.338,968.869 c 2.552,0 4.62,2.015 4.62,4.5 0,2.485 -2.068,4.5 -4.62,4.5 -2.552,0 -4.621,-2.015 -4.621,-4.5 0,-2.485 2.069,-4.5 4.621,-4.5 z"
         id="path248" />
      <path
         style="fill:#ffffff;stroke:#000100;stroke-width:2"
         inkscape:connector-curvature="0"
         d="m 360.338,1040.87 c 2.552,0 4.62,2.01 4.62,4.5 0,2.48 -2.068,4.5 -4.62,4.5 -2.552,0 -4.621,-2.02 -4.621,-4.5 0,-2.49 2.069,-4.5 4.621,-4.5 z"
         id="path250" />
      <path
         style="fill:#ffffff;stroke:#000100;stroke-width:2"
         inkscape:connector-curvature="0"
         d="m 360.338,1112.87 c 2.552,0 4.62,2.01 4.62,4.5 0,2.48 -2.068,4.5 -4.62,4.5 -2.552,0 -4.621,-2.02 -4.621,-4.5 0,-2.49 2.069,-4.5 4.621,-4.5 z"
         id="path252" />
      <path
         style="fill:#a544fd;stroke:#000100;stroke-width:2"
         inkscape:connector-curvature="0"
         d="m 540.338,1004.87 c 2.552,0 4.62,2.01 4.62,4.5 0,2.48 -2.068,4.5 -4.62,4.5 -2.552,0 -4.621,-2.02 -4.621,-4.5 0,-2.49 2.069,-4.5 4.621,-4.5 z"
         id="path254" />
      <path
         style="fill:#d20000;stroke:#000100;stroke-width:2"
         inkscape:connector-curvature="0"
         d="m 504.338,1040.87 c 2.552,0 4.62,2.01 4.62,4.5 0,2.48 -2.068,4.5 -4.62,4.5 -2.552,0 -4.621,-2.02 -4.621,-4.5 0,-2.49 2.069,-4.5 4.621,-4.5 z"
         id="path256" />
      <path
         style="fill:#a544fd;stroke:#000100;stroke-width:2"
         inkscape:connector-curvature="0"
         d="m 468.338,1004.87 c 2.552,0 4.62,2.01 4.62,4.5 0,2.48 -2.068,4.5 -4.62,4.5 -2.552,0 -4.621,-2.02 -4.621,-4.5 0,-2.49 2.069,-4.5 4.621,-4.5 z"
         id="path258" />
      <path
         style="fill:#a544fd;stroke:#000100;stroke-width:2"
         inkscape:connector-curvature="0"
         d="m 576.338,896.869 c 2.552,0 4.62,2.015 4.62,4.5 0,2.485 -2.068,4.5 -4.62,4.5 -2.552,0 -4.621,-2.015 -4.621,-4.5 0,-2.485 2.069,-4.5 4.621,-4.5 z"
         id="path260" />
      <path
         style="fill:#d20000;stroke:#000100;stroke-width:2"
         inkscape:connector-curvature="0"
         d="m 648.337,824.605 c 2.552,0 4.621,2.015 4.621,4.5 0,2.486 -2.069,4.5 -4.621,4.5 -2.551,0 -4.62,-2.014 -4.62,-4.5 0,-2.485 2.069,-4.5 4.62,-4.5 z"
         id="path262" />
      <path
         style="fill:#d20000;stroke:#000100;stroke-width:2"
         inkscape:connector-curvature="0"
         d="m 576.337,824.605 c 2.552,0 4.621,2.015 4.621,4.5 0,2.486 -2.069,4.5 -4.621,4.5 -2.551,0 -4.62,-2.014 -4.62,-4.5 0,-2.485 2.069,-4.5 4.62,-4.5 z"
         id="path264" />
      <path
         style="fill:#d20000;stroke:#000100;stroke-width:2"
         inkscape:connector-curvature="0"
         d="m 648.338,896.869 c 2.552,0 4.62,2.015 4.62,4.5 0,2.485 -2.068,4.5 -4.62,4.5 -2.552,0 -4.621,-2.015 -4.621,-4.5 0,-2.485 2.069,-4.5 4.621,-4.5 z"
         id="path266" />
      <path
         style="fill:#d20000;stroke:#000100;stroke-width:2"
         inkscape:connector-curvature="0"
         d="m 684.338,860.869 c 2.552,0 4.62,2.015 4.62,4.5 0,2.485 -2.068,4.5 -4.62,4.5 -2.552,0 -4.621,-2.015 -4.621,-4.5 0,-2.485 2.069,-4.5 4.621,-4.5 z"
         id="path268" />
      <path
         style="fill:#d20000;stroke:#000100;stroke-width:2"
         inkscape:connector-curvature="0"
         d="m 504.338,824.869 c 2.552,0 4.62,2.015 4.62,4.5 0,2.485 -2.068,4.5 -4.62,4.5 -2.552,0 -4.621,-2.015 -4.621,-4.5 0,-2.485 2.069,-4.5 4.621,-4.5 z"
         id="path270" />
      <path
         style="fill:#a544fd;stroke:#000100;stroke-width:2"
         inkscape:connector-curvature="0"
         d="m 468.338,860.869 c 2.552,0 4.62,2.015 4.62,4.5 0,2.485 -2.068,4.5 -4.62,4.5 -2.552,0 -4.621,-2.015 -4.621,-4.5 0,-2.485 2.069,-4.5 4.621,-4.5 z"
         id="path272" />
      <path
         style="fill:#d20000;stroke:#000100;stroke-width:2"
         inkscape:connector-curvature="0"
         d="m 468.338,932.869 c 2.552,0 4.62,2.015 4.62,4.5 0,2.485 -2.068,4.5 -4.62,4.5 -2.552,0 -4.621,-2.015 -4.621,-4.5 0,-2.485 2.069,-4.5 4.621,-4.5 z"
         id="path274" />
      <path
         style="fill:#d20000;stroke:#000100;stroke-width:2"
         inkscape:connector-curvature="0"
         d="m 540.338,932.869 c 2.552,0 4.62,2.015 4.62,4.5 0,2.485 -2.068,4.5 -4.62,4.5 -2.552,0 -4.621,-2.015 -4.621,-4.5 0,-2.485 2.069,-4.5 4.621,-4.5 z"
         id="path276" />
      <g
         id="g278">
        <path
           style="fill:#007efd;stroke:#000100;stroke-width:2"
           inkscape:connector-curvature="0"
           d="m 180.338,1004.87 c 2.552,0 4.62,2.01 4.62,4.5 0,2.48 -2.068,4.5 -4.62,4.5 -2.552,0 -4.621,-2.02 -4.621,-4.5 0,-2.49 2.069,-4.5 4.621,-4.5 z"
           id="path280" />
        <path
           style="fill:#007efd;stroke:#000100;stroke-width:2"
           inkscape:connector-curvature="0"
           d="m 144.338,968.869 c 2.552,0 4.62,2.015 4.62,4.5 0,2.485 -2.068,4.5 -4.62,4.5 -2.552,0 -4.621,-2.015 -4.621,-4.5 0,-2.485 2.069,-4.5 4.621,-4.5 z"
           id="path282" />
      </g>
      <path
         style="fill:#ffffff;stroke:#000100;stroke-width:2"
         inkscape:connector-curvature="0"
         d="m 180.338,1076.87 c 2.552,0 4.62,2.01 4.62,4.5 0,2.48 -2.068,4.5 -4.62,4.5 -2.552,0 -4.621,-2.02 -4.621,-4.5 0,-2.49 2.069,-4.5 4.621,-4.5 z"
         id="path284" />
      <path
         style="fill:#ffffff;stroke:#000100;stroke-width:2"
         inkscape:connector-curvature="0"
         d="m 144.338,1112.87 c 2.552,0 4.62,2.01 4.62,4.5 0,2.48 -2.068,4.5 -4.62,4.5 -2.552,0 -4.621,-2.02 -4.621,-4.5 0,-2.49 2.069,-4.5 4.621,-4.5 z"
         id="path286" />
      <path
         style="fill:#ffffff;stroke:#000100;stroke-width:2"
         inkscape:connector-curvature="0"
         d="m 108.338,1004.87 c 2.552,0 4.62,2.01 4.62,4.5 0,2.48 -2.068,4.5 -4.62,4.5 -2.552,0 -4.621,-2.02 -4.621,-4.5 0,-2.49 2.069,-4.5 4.621,-4.5 z"
         id="path288" />
      <path
         style="fill:#ffffff;stroke:#000100;stroke-width:2"
         inkscape:connector-curvature="0"
         d="m 36.338,1076.87 c 2.552,0 4.6203,2.01 4.6203,4.5 0,2.48 -2.0683,4.5 -4.6203,4.5 -2.552,0 -4.6211,-2.02 -4.6211,-4.5 0,-2.49 2.0691,-4.5 4.6211,-4.5 z"
         id="path290" />
      <path
         style="fill:#ffffff;stroke:#000100;stroke-width:2"
         inkscape:connector-curvature="0"
         d="m 72.338,1112.87 c 2.552,0 4.6203,2.01 4.6203,4.5 0,2.48 -2.0683,4.5 -4.6203,4.5 -2.552,0 -4.6211,-2.02 -4.6211,-4.5 0,-2.49 2.0691,-4.5 4.6211,-4.5 z"
         id="path292" />
      <path
         style="fill:#d20000;stroke:#000100;stroke-width:2"
         inkscape:connector-curvature="0"
         d="m 216.338,896.869 c 2.552,0 4.62,2.015 4.62,4.5 0,2.485 -2.068,4.5 -4.62,4.5 -2.552,0 -4.621,-2.015 -4.621,-4.5 0,-2.485 2.069,-4.5 4.621,-4.5 z"
         id="path294" />
      <path
         style="fill:#ffffff;stroke:#000100;stroke-width:2"
         inkscape:connector-curvature="0"
         d="m 216.337,824.605 c 2.552,0 4.621,2.015 4.621,4.5 0,2.486 -2.069,4.5 -4.621,4.5 -2.551,0 -4.62,-2.014 -4.62,-4.5 0,-2.485 2.069,-4.5 4.62,-4.5 z"
         id="path296" />
      <path
         style="fill:#ffffff;stroke:#000100;stroke-width:2"
         inkscape:connector-curvature="0"
         d="m 324.338,860.869 c 2.552,0 4.62,2.015 4.62,4.5 0,2.485 -2.068,4.5 -4.62,4.5 -2.552,0 -4.621,-2.015 -4.621,-4.5 0,-2.485 2.069,-4.5 4.621,-4.5 z"
         id="path298" />
      <path
         style="fill:#ffffff;stroke:#000100;stroke-width:2"
         inkscape:connector-curvature="0"
         d="m 180.338,860.869 c 2.552,0 4.62,2.015 4.62,4.5 0,2.485 -2.068,4.5 -4.62,4.5 -2.552,0 -4.621,-2.015 -4.621,-4.5 0,-2.485 2.069,-4.5 4.621,-4.5 z"
         id="path300" />
      <path
         style="fill:#007efd;stroke:#000100;stroke-width:2"
         inkscape:connector-curvature="0"
         d="m 288.337,824.605 c 2.552,0 4.621,2.015 4.621,4.5 0,2.486 -2.069,4.5 -4.621,4.5 -2.551,0 -4.62,-2.014 -4.62,-4.5 0,-2.485 2.069,-4.5 4.62,-4.5 z"
         id="path302" />
      <path
         style="fill:#007efd;stroke:#000100;stroke-width:2"
         inkscape:connector-curvature="0"
         d="m 288.338,896.869 c 2.552,0 4.62,2.015 4.62,4.5 0,2.485 -2.068,4.5 -4.62,4.5 -2.552,0 -4.621,-2.015 -4.621,-4.5 0,-2.485 2.069,-4.5 4.621,-4.5 z"
         id="path304" />
      <path
         style="fill:#ffffff;stroke:#000100;stroke-width:2"
         inkscape:connector-curvature="0"
         d="m 72.338,896.869 c 2.552,0 4.6203,2.015 4.6203,4.5 0,2.485 -2.0683,4.5 -4.6203,4.5 -2.552,0 -4.6211,-2.015 -4.6211,-4.5 0,-2.485 2.0691,-4.5 4.6211,-4.5 z"
         id="path306" />
      <path
         style="fill:#ffffff;stroke:#000100;stroke-width:2"
         inkscape:connector-curvature="0"
         d="m 72.338,1040.87 c 2.552,0 4.6203,2.01 4.6203,4.5 0,2.48 -2.0683,4.5 -4.6203,4.5 -2.552,0 -4.6211,-2.02 -4.6211,-4.5 0,-2.49 2.0691,-4.5 4.6211,-4.5 z"
         id="path308" />
      <path
         style="fill:#ffffff;stroke:#000100;stroke-width:2"
         inkscape:connector-curvature="0"
         d="m 72.338,968.869 c 2.552,0 4.6203,2.015 4.6203,4.5 0,2.485 -2.0683,4.5 -4.6203,4.5 -2.552,0 -4.6211,-2.015 -4.6211,-4.5 0,-2.485 2.0691,-4.5 4.6211,-4.5 z"
         id="path310" />
      <path
         style="fill:#007efd;stroke:#000100;stroke-width:2"
         inkscape:connector-curvature="0"
         d="m 144.338,896.869 c 2.552,0 4.62,2.015 4.62,4.5 0,2.485 -2.068,4.5 -4.62,4.5 -2.552,0 -4.621,-2.015 -4.621,-4.5 0,-2.485 2.069,-4.5 4.621,-4.5 z"
         id="path312" />
      <path
         style="fill:#ffffff;stroke:#000100;stroke-width:2"
         inkscape:connector-curvature="0"
         d="m 36.338,1004.87 c 2.552,0 4.6203,2.01 4.6203,4.5 0,2.48 -2.0683,4.5 -4.6203,4.5 -2.552,0 -4.6211,-2.02 -4.6211,-4.5 0,-2.49 2.0691,-4.5 4.6211,-4.5 z"
         id="path314" />
      <path
         style="fill:#ffffff;stroke:#000100;stroke-width:2"
         inkscape:connector-curvature="0"
         d="m 36.338,932.869 c 2.552,0 4.6203,2.015 4.6203,4.5 0,2.485 -2.0683,4.5 -4.6203,4.5 -2.552,0 -4.6211,-2.015 -4.6211,-4.5 0,-2.485 2.0691,-4.5 4.6211,-4.5 z"
         id="path316" />
      <g
         id="g318">
        <path
           style="fill:#ffffff;stroke:#d20000;stroke-width:3"
           inkscape:connector-curvature="0"
           d="m 252.294,901.725 -72,0"
           id="path320" />
        <g
           id="g322">
          <path
             style="fill:#ffffff;stroke:#d20000;stroke-width:3"
             inkscape:connector-curvature="0"
             d="m 324.294,901.725 -72,0"
             id="path324" />
          <path
             style="fill:#ffffff;stroke:#d20000;stroke-width:3"
             inkscape:connector-curvature="0"
             d="m 324.294,829.725 -143.736,0"
             id="path326" />
          <path
             style="fill:#ffffff;stroke:#d20000;stroke-width:3"
             inkscape:connector-curvature="0"
             d="m 324.381,901.725 0,-72"
             id="path328" />
          <path
             style="fill:#ffffff;stroke:#d20000;stroke-width:3"
             inkscape:connector-curvature="0"
             d="m 180.294,901.725 0,-72"
             id="path330" />
        </g>
      </g>
      <path
         style="fill:#d20000;stroke:#000100;stroke-width:2"
         inkscape:connector-curvature="0"
         d="m 216.338,897.445 c 2.552,0 4.62,2.015 4.62,4.5 0,2.486 -2.068,4.5 -4.62,4.5 -2.552,0 -4.621,-2.014 -4.621,-4.5 0,-2.485 2.069,-4.5 4.621,-4.5 z"
         id="path332" />
      <path
         style="fill:#a544fd;stroke:#000100;stroke-width:2"
         inkscape:connector-curvature="0"
         d="m 288.337,825.182 c 2.552,0 4.621,2.014 4.621,4.5 0,2.485 -2.069,4.5 -4.621,4.5 -2.551,0 -4.62,-2.015 -4.62,-4.5 0,-2.486 2.069,-4.5 4.62,-4.5 z"
         id="path334" />
      <path
         style="fill:#d20000;stroke:#000100;stroke-width:2"
         inkscape:connector-curvature="0"
         d="m 216.337,825.182 c 2.552,0 4.621,2.014 4.621,4.5 0,2.485 -2.069,4.5 -4.621,4.5 -2.551,0 -4.62,-2.015 -4.62,-4.5 0,-2.486 2.069,-4.5 4.62,-4.5 z"
         id="path336" />
      <path
         style="fill:#a544fd;stroke:#000100;stroke-width:2"
         inkscape:connector-curvature="0"
         d="m 288.338,897.445 c 2.552,0 4.62,2.015 4.62,4.5 0,2.486 -2.068,4.5 -4.62,4.5 -2.552,0 -4.621,-2.014 -4.621,-4.5 0,-2.485 2.069,-4.5 4.621,-4.5 z"
         id="path338" />
      <path
         style="fill:#d20000;stroke:#000100;stroke-width:2"
         inkscape:connector-curvature="0"
         d="m 324.338,861.445 c 2.552,0 4.62,2.015 4.62,4.5 0,2.486 -2.068,4.5 -4.62,4.5 -2.552,0 -4.621,-2.014 -4.621,-4.5 0,-2.485 2.069,-4.5 4.621,-4.5 z"
         id="path340" />
      <path
         style="fill:#d20000;stroke:#000100;stroke-width:2"
         inkscape:connector-curvature="0"
         d="m 180.338,861.445 c 2.552,0 4.62,2.015 4.62,4.5 0,2.486 -2.068,4.5 -4.62,4.5 -2.552,0 -4.621,-2.014 -4.621,-4.5 0,-2.485 2.069,-4.5 4.621,-4.5 z"
         id="path342" />
      <path
         style="fill:#d20000;stroke:#000100;stroke-width:2"
         inkscape:connector-curvature="0"
         d="m 72.338,1041.45 c 2.552,0 4.6203,2.01 4.6203,4.5 0,2.48 -2.0683,4.5 -4.6203,4.5 -2.552,0 -4.6211,-2.02 -4.6211,-4.5 0,-2.49 2.0691,-4.5 4.6211,-4.5 z"
         id="path344" />
      <path
         style="fill:#ffffff;stroke:#d20000;stroke-width:3"
         inkscape:connector-curvature="0"
         d="m 36.3377,1117.68 0,-72"
         id="path346" />
      <path
         style="fill:#ffffff;stroke:#d20000;stroke-width:3"
         inkscape:connector-curvature="0"
         d="m 180.338,1117.68 0,-143.735"
         id="path348" />
      <path
         style="fill:#ffffff;stroke:#d20000;stroke-width:3"
         inkscape:connector-curvature="0"
         d="m 36.3377,1117.77 144.0003,0"
         id="path350" />
      <path
         style="fill:#ffffff;stroke:#d20000;stroke-width:3"
         inkscape:connector-curvature="0"
         d="m 108.338,1045.68 0,-71.998"
         id="path352" />
      <path
         style="fill:#ffffff;stroke:#d20000;stroke-width:3"
         inkscape:connector-curvature="0"
         d="m 108.338,973.682 72,0"
         id="path354" />
      <g
         id="g356">
        <path
           style="fill:#a544fd;stroke:#000100;stroke-width:2"
           inkscape:connector-curvature="0"
           d="m 180.338,1005.45 c 2.552,0 4.62,2.01 4.62,4.5 0,2.48 -2.068,4.5 -4.62,4.5 -2.552,0 -4.621,-2.02 -4.621,-4.5 0,-2.49 2.069,-4.5 4.621,-4.5 z"
           id="path358" />
        <path
           style="fill:#a544fd;stroke:#000100;stroke-width:2"
           inkscape:connector-curvature="0"
           d="m 144.338,969.445 c 2.552,0 4.62,2.015 4.62,4.5 0,2.486 -2.068,4.5 -4.62,4.5 -2.552,0 -4.621,-2.014 -4.621,-4.5 0,-2.485 2.069,-4.5 4.621,-4.5 z"
           id="path360" />
      </g>
      <path
         style="fill:#d20000;stroke:#000100;stroke-width:2"
         inkscape:connector-curvature="0"
         d="m 180.338,1077.45 c 2.552,0 4.62,2.01 4.62,4.5 0,2.48 -2.068,4.5 -4.62,4.5 -2.552,0 -4.621,-2.02 -4.621,-4.5 0,-2.49 2.069,-4.5 4.621,-4.5 z"
         id="path362" />
      <path
         style="fill:#d20000;stroke:#000100;stroke-width:2"
         inkscape:connector-curvature="0"
         d="m 144.338,1113.45 c 2.552,0 4.62,2.01 4.62,4.5 0,2.48 -2.068,4.5 -4.62,4.5 -2.552,0 -4.621,-2.02 -4.621,-4.5 0,-2.49 2.069,-4.5 4.621,-4.5 z"
         id="path364" />
      <path
         style="fill:#d20000;stroke:#000100;stroke-width:2"
         inkscape:connector-curvature="0"
         d="m 108.338,1005.45 c 2.552,0 4.62,2.01 4.62,4.5 0,2.48 -2.068,4.5 -4.62,4.5 -2.552,0 -4.621,-2.02 -4.621,-4.5 0,-2.49 2.069,-4.5 4.621,-4.5 z"
         id="path366" />
      <path
         style="fill:#d20000;stroke:#000100;stroke-width:2"
         inkscape:connector-curvature="0"
         d="m 36.338,1077.45 c 2.552,0 4.6203,2.01 4.6203,4.5 0,2.48 -2.0683,4.5 -4.6203,4.5 -2.552,0 -4.6211,-2.02 -4.6211,-4.5 0,-2.49 2.0691,-4.5 4.6211,-4.5 z"
         id="path368" />
      <path
         style="fill:#d20000;stroke:#000100;stroke-width:2"
         inkscape:connector-curvature="0"
         d="m 72.338,1113.45 c 2.552,0 4.6203,2.01 4.6203,4.5 0,2.48 -2.0683,4.5 -4.6203,4.5 -2.552,0 -4.6211,-2.02 -4.6211,-4.5 0,-2.49 2.0691,-4.5 4.6211,-4.5 z"
         id="path370" />
    </g>
  </g>
</svg>
