<?xml version="1.0" encoding="UTF-8" standalone="no"?>
<!-- Created with Inkscape (http://www.inkscape.org/) -->

<svg
   xmlns:dc="http://purl.org/dc/elements/1.1/"
   xmlns:cc="http://creativecommons.org/ns#"
   xmlns:rdf="http://www.w3.org/1999/02/22-rdf-syntax-ns#"
   xmlns:svg="http://www.w3.org/2000/svg"
   xmlns="http://www.w3.org/2000/svg"
   xmlns:sodipodi="http://sodipodi.sourceforge.net/DTD/sodipodi-0.dtd"
   xmlns:inkscape="http://www.inkscape.org/namespaces/inkscape"
   width="596.5"
   height="308.75"
   id="svg4134"
   version="1.1"
   inkscape:version="0.48.4 r9939"
   sodipodi:docname="drawing-2 (copy).svg">
  <sodipodi:namedview
     id="base"
     pagecolor="#ffffff"
     bordercolor="#666666"
     borderopacity="1.0"
     inkscape:pageopacity="0.0"
     inkscape:pageshadow="2"
     inkscape:zoom="1.2215567"
     inkscape:cx="238.51515"
     inkscape:cy="171.00114"
     inkscape:document-units="px"
     inkscape:current-layer="layer1"
     showgrid="false"
     fit-margin-top="0"
     fit-margin-left="0"
     fit-margin-right="0"
     fit-margin-bottom="0"
     inkscape:window-width="1855"
     inkscape:window-height="1056"
     inkscape:window-x="65"
     inkscape:window-y="24"
     inkscape:window-maximized="1" />
  <defs
     id="defs4136" />
  <metadata
     id="metadata4139">
    <rdf:RDF>
      <cc:Work
         rdf:about="">
        <dc:format>image/svg+xml</dc:format>
        <dc:type
           rdf:resource="http://purl.org/dc/dcmitype/StillImage" />
        <dc:title />
      </cc:Work>
    </rdf:RDF>
  </metadata>
  <g
     inkscape:label="Layer 1"
     inkscape:groupmode="layer"
     id="layer1"
     transform="translate(118.79815,-321.22802)">
    <g
       id="g4070">
      <path
         style="fill:none;stroke:#000100"
         inkscape:connector-curvature="0"
         d="m -117.7957,475.24052 594.4828,0"
         id="path698" />
      <path
         style="fill:none;stroke:#000100"
         inkscape:connector-curvature="0"
         d="m -117.7957,619.24052 594.4828,0"
         id="path700" />
      <path
         style="fill:none;stroke:#000100"
         inkscape:connector-curvature="0"
         d="m 35.4461,322.24052 0,306"
         id="path702" />
      <path
         style="fill:none;stroke:#000100"
         inkscape:connector-curvature="0"
         d="m -108.5535,322.24052 0,306"
         id="path704" />
      <path
         style="fill:#d20000;stroke:#d20000;stroke-width:3"
         inkscape:connector-curvature="0"
         d="m 35.4461,618.71052 0,-144"
         id="path706" />
      <path
         style="fill:none;stroke:#000100"
         inkscape:connector-curvature="0"
         d="m -117.7957,331.24052 594.4828,0"
         id="path708" />
      <path
         style="fill:none;stroke:#000100"
         inkscape:connector-curvature="0"
         d="m 179.4461,322.24052 0,306"
         id="path710" />
      <path
         style="fill:none;stroke:#000100"
         inkscape:connector-curvature="0"
         d="m 467.4461,322.24052 0,306"
         id="path712" />
      <path
         style="fill:none;stroke:#000100"
         inkscape:connector-curvature="0"
         d="m 323.4461,322.24052 0,306"
         id="path714" />
      <path
         style="fill:none;stroke:#4181fe;stroke-width:2.12388706"
         inkscape:connector-curvature="0"
         d="m 250.57171,474.71052 144.34878,0"
         id="path716" />
      <path
         style="fill:#007efd;stroke:#000100;stroke-width:2;fill-opacity:1"
         inkscape:connector-curvature="0"
         d="m 251.4451,465.71052 c 5.104,0 9.242,4.03 9.242,9 0,4.97 -4.138,9 -9.242,9 -5.103,0 -9.241,-4.03 -9.241,-9 0,-4.97 4.138,-9 9.241,-9 z"
         id="path722" />
      <path
         style="fill:#ffffff;stroke:#000100;stroke-width:2"
         inkscape:connector-curvature="0"
         d="m 395.4461,610.24052 c 5.104,0 9.241,4.02 9.241,9 0,4.97 -4.137,9 -9.241,9 -5.104,0 -9.242,-4.03 -9.242,-9 0,-4.98 4.138,-9 9.242,-9 z"
         id="path724" />
      <path
         style="fill:#ffffff;stroke:#000100;stroke-width:2"
         inkscape:connector-curvature="0"
         d="m 467.4461,538.24052 c 5.104,0 9.241,4.02 9.241,9 0,4.97 -4.137,9 -9.241,9 -5.104,0 -9.242,-4.03 -9.242,-9 0,-4.98 4.138,-9 9.242,-9 z"
         id="path726" />
      <path
         style="fill:#ffffff;stroke:#000100;stroke-width:2"
         inkscape:connector-curvature="0"
         d="m 467.4461,394.24052 c 5.104,0 9.241,4.02 9.241,9 0,4.97 -4.137,9 -9.241,9 -5.104,0 -9.242,-4.03 -9.242,-9 0,-4.98 4.138,-9 9.242,-9 z"
         id="path728" />
      <path
         style="fill:#ffffff;stroke:#000100;stroke-width:2"
         inkscape:connector-curvature="0"
         d="m 395.4461,322.24052 c 5.104,0 9.241,4.02 9.241,9 0,4.97 -4.137,9 -9.241,9 -5.104,0 -9.242,-4.03 -9.242,-9 0,-4.98 4.138,-9 9.242,-9 z"
         id="path730" />
      <path
         style="fill:#ffffff;stroke:#000100;stroke-width:2"
         inkscape:connector-curvature="0"
         d="m 251.4461,322.24052 c 5.104,0 9.241,4.02 9.241,9 0,4.97 -4.137,9 -9.241,9 -5.104,0 -9.242,-4.03 -9.242,-9 0,-4.98 4.138,-9 9.242,-9 z"
         id="path732" />
      <path
         style="fill:#ffffff;stroke:#000100;stroke-width:2"
         inkscape:connector-curvature="0"
         d="m 179.4461,538.24052 c 5.104,0 9.241,4.02 9.241,9 0,4.97 -4.137,9 -9.241,9 -5.104,0 -9.242,-4.03 -9.242,-9 0,-4.98 4.138,-9 9.242,-9 z"
         id="path734" />
      <path
         style="fill:#ffffff;stroke:#000100;stroke-width:2"
         inkscape:connector-curvature="0"
         d="m 107.4461,466.24052 c 5.104,0 9.241,4.02 9.241,9 0,4.97 -4.137,9 -9.241,9 -5.104,0 -9.242,-4.03 -9.242,-9 0,-4.98 4.138,-9 9.242,-9 z"
         id="path736" />
      <path
         style="fill:#d20000;stroke:#000100;stroke-width:2"
         inkscape:connector-curvature="0"
         d="m 35.4461,538.24052 c 5.104,0 9.241,4.02 9.241,9 0,4.97 -4.137,9 -9.241,9 -5.104,0 -9.242,-4.03 -9.242,-9 0,-4.98 4.138,-9 9.242,-9 z"
         id="path738" />
      <path
         style="fill:#ffffff;stroke:#000100;stroke-width:2"
         inkscape:connector-curvature="0"
         d="m 107.4461,322.24052 c 5.104,0 9.241,4.02 9.241,9 0,4.97 -4.137,9 -9.241,9 -5.104,0 -9.242,-4.03 -9.242,-9 0,-4.98 4.138,-9 9.242,-9 z"
         id="path740" />
      <path
         style="fill:#ffffff;stroke:#000100;stroke-width:2"
         inkscape:connector-curvature="0"
         d="m 35.4461,394.24052 c 5.104,0 9.241,4.02 9.241,9 0,4.97 -4.137,9 -9.241,9 -5.104,0 -9.242,-4.03 -9.242,-9 0,-4.98 4.138,-9 9.242,-9 z"
         id="path742" />
      <path
         style="fill:#ffffff;stroke:#000100;stroke-width:2"
         inkscape:connector-curvature="0"
         d="m -36.5539,322.24052 c 5.104,0 9.241,4.02 9.241,9 0,4.97 -4.137,9 -9.241,9 -5.104,0 -9.2418,-4.03 -9.2418,-9 0,-4.98 4.1378,-9 9.2418,-9 z"
         id="path750" />
      <path
         style="fill:#ffffff;stroke:#000100;stroke-width:2"
         inkscape:connector-curvature="0"
         d="m -108.5535,394.24052 c 5.104,0 9.2407,4.02 9.2407,9 0,4.97 -4.1367,9 -9.2407,9 -5.1041,0 -9.2422,-4.03 -9.2422,-9 0,-4.98 4.1381,-9 9.2422,-9 z"
         id="path752" />
      <path
         style="fill:#d20000;stroke:#d20000;stroke-width:3.01121569"
         inkscape:connector-curvature="0"
         d="m -108.98485,618.06315 144.348842,0"
         id="path754" />
      <path
         style="fill:#d20000;fill-opacity:1;stroke:#000100;stroke-width:2"
         inkscape:connector-curvature="0"
         d="m -36.5539,610.24052 c 5.104,0 9.241,4.02 9.241,9 0,4.97 -4.137,9 -9.241,9 -5.104,0 -9.2418,-4.03 -9.2418,-9 0,-4.98 4.1378,-9 9.2418,-9 z"
         id="path748" />
      <path
         style="fill:none;stroke:#000100;stroke-width:2"
         inkscape:connector-curvature="0"
         d="m 251.4461,610.24052 c 5.104,0 9.241,4.02 9.241,9 0,4.97 -4.137,9 -9.241,9 -5.104,0 -9.242,-4.03 -9.242,-9 0,-4.98 4.138,-9 9.242,-9 z"
         id="path756" />
      <path
         style="fill:none;stroke:#000100;stroke-width:2"
         inkscape:connector-curvature="0"
         d="m 107.4461,610.24052 c 5.104,0 9.241,4.02 9.241,9 0,4.97 -4.137,9 -9.241,9 -5.104,0 -9.242,-4.03 -9.242,-9 0,-4.98 4.138,-9 9.242,-9 z"
         id="path758" />
      <path
         style="fill:none;stroke:#4181fe;stroke-width:3"
         inkscape:connector-curvature="0"
         d="m 323.4461,547.24052 0,-144.53"
         id="path760" />
      <path
         style="fill:#007efd;stroke:#000100;stroke-width:2"
         inkscape:connector-curvature="0"
         d="m 323.4451,393.71052 c 5.104,0 9.242,4.03 9.242,9 0,4.97 -4.138,9 -9.242,9 -5.103,0 -9.241,-4.03 -9.241,-9 0,-4.97 4.138,-9 9.241,-9 z"
         id="path720" />
      <path
         style="fill:#007efd;stroke:#000100;stroke-width:2;fill-opacity:1"
         inkscape:connector-curvature="0"
         d="m 323.4451,537.71052 c 5.104,0 9.242,4.03 9.242,9 0,4.97 -4.138,9 -9.242,9 -5.103,0 -9.241,-4.03 -9.241,-9 0,-4.97 4.138,-9 9.241,-9 z"
         id="path718" />
      <path
         style="fill:#007efd;stroke:#000100;stroke-width:2"
         inkscape:connector-curvature="0"
         d="m 395.4451,465.71052 c 5.104,0 9.242,4.03 9.242,9 0,4.97 -4.138,9 -9.242,9 -5.103,0 -9.241,-4.03 -9.241,-9 0,-4.97 4.138,-9 9.241,-9 z"
         id="path762" />
      <path
         style="fill:none;stroke:#000100;stroke-width:2"
         inkscape:connector-curvature="0"
         d="m 179.4461,394.24052 c 5.104,0 9.241,4.02 9.241,9 0,4.97 -4.137,9 -9.241,9 -5.104,0 -9.242,-4.03 -9.242,-9 0,-4.98 4.138,-9 9.242,-9 z"
         id="path764" />
      <path
         style="fill:#d20000;stroke:#d20000;stroke-width:3"
         inkscape:connector-curvature="0"
         d="m -109.42215,619.96087 0,-144"
         id="path706-9" />
      <path
         style="fill:#d20000;fill-opacity:1;stroke:#000100;stroke-width:2"
         inkscape:connector-curvature="0"
         d="m -108.50693,536.19395 c 5.104,0 9.240699,4.02 9.240699,9 0,4.97 -4.136699,9 -9.240699,9 -5.1041,0 -9.2422,-4.03 -9.2422,-9 0,-4.98 4.1381,-9 9.2422,-9 z"
         id="path746" />
      <path
         style="fill:#d20000;stroke:#d20000;stroke-width:3.01121569"
         inkscape:connector-curvature="0"
         d="m -110.14744,475.23287 144.348842,0"
         id="path754-6" />
      <path
         style="fill:#d20000;stroke:#000100;stroke-width:2;fill-opacity:1"
         inkscape:connector-curvature="0"
         d="m -36.5539,466.24052 c 5.104,0 9.241,4.02 9.241,9 0,4.97 -4.137,9 -9.241,9 -5.104,0 -9.2418,-4.03 -9.2418,-9 0,-4.98 4.1378,-9 9.2418,-9 z"
         id="path744" />
      <g
         transform="matrix(1.5718105,0,0,1.5718105,70.808791,24.67124)"
         id="g3920">
        <g
           style="font-style:normal;font-variant:normal;font-weight:normal;font-stretch:normal;letter-spacing:normal;word-spacing:normal;text-anchor:start;fill:none;stroke:#000000;stroke-linecap:butt;stroke-linejoin:miter;stroke-miterlimit:10.43299961;stroke-opacity:1;stroke-dasharray:none;stroke-dashoffset:0"
           word-spacing="normal"
           letter-spacing="normal"
           font-size-adjust="none"
           font-stretch="normal"
           font-weight="normal"
           font-variant="normal"
           font-style="normal"
           stroke-miterlimit="10.433"
           xml:space="preserve"
           transform="matrix(0.44107143,0,0,-0.44107143,-77.1875,447.375)"
           id="content"><path
             style="fill:#000000;stroke-width:0"
             inkscape:connector-curvature="0"
             id="path3923"
             d="m 464.44,411.93 -0.19,-0.3 -0.18,-0.29 -0.19,-0.28 -0.19,-0.26 -0.18,-0.25 -0.19,-0.23 -0.19,-0.22 -0.18,-0.21 -0.19,-0.2 -0.19,-0.18 -0.18,-0.17 -0.19,-0.16 -0.19,-0.15 -0.18,-0.14 -0.19,-0.13 -0.19,-0.12 -0.19,-0.11 -0.19,-0.1 -0.19,-0.09 -0.19,-0.09 -0.19,-0.07 -0.2,-0.07 -0.19,-0.07 -0.2,-0.05 -0.19,-0.05 -0.2,-0.04 -0.2,-0.04 -0.19,-0.03 -0.41,-0.05 -0.4,-0.03 c -0.61,-0.05 -1.05,-0.05 -1.05,-1 0,-0.3 0.25,-0.55 0.64,-0.55 1.34,0 2.89,0.16 4.28,0.16 1.64,0 3.39,-0.16 4.99,-0.16 0.29,0 0.95,0 0.95,0.95 0,0.55 -0.45,0.6 -0.8,0.6 -1.15,0.09 -2.34,0.5 -2.34,1.73 0,0.61 0.3,1.16 0.69,1.84 l 3.79,6.39 h 12.5 l -0.14,1.54 h -11.42 l 9.83,16.45 1.59,-16.45 0.14,-1.54 c 0.11,-1.04 0.8,-7.82 0.8,-8.32 0,-1.5 -2.59,-1.64 -3.58,-1.64 -0.7,0 -1.2,0 -1.2,-1 0,-0.55 0.59,-0.55 0.7,-0.55 2.03,0 4.19,0.16 6.22,0.16 1.25,0 4.39,-0.16 5.64,-0.16 0.3,0 0.89,0 0.89,1 0,0.55 -0.5,0.55 -1.14,0.55 -3.09,0 -3.09,0.34 -3.25,1.79 l -3.03,31.13 c -0.11,1 -0.11,1.2 -0.95,1.2 -0.8,0 -0.99,-0.34 -1.3,-0.84 z" /><path
             style="fill:#000000;stroke-width:0"
             inkscape:connector-curvature="0"
             id="path3925"
             d="m 507.86,411.86 -0.09,-0.03 -0.08,-0.02 -0.08,-0.03 -0.08,-0.02 -0.07,-0.04 -0.08,-0.03 -0.07,-0.04 -0.07,-0.04 -0.06,-0.04 -0.07,-0.04 -0.06,-0.05 -0.06,-0.05 -0.05,-0.05 -0.06,-0.05 -0.05,-0.05 -0.05,-0.06 -0.04,-0.05 -0.05,-0.06 -0.04,-0.06 -0.04,-0.06 -0.03,-0.06 -0.04,-0.06 -0.02,-0.06 -0.03,-0.06 -0.02,-0.07 -0.03,-0.06 -0.01,-0.07 -0.02,-0.06 -0.01,-0.07 -0.01,-0.06 0,-0.07 0,-0.06 c 0,-0.81 0.7,-1.12 1.15,-1.12 0.35,0 1.67,0.21 1.67,1.98 0,2.27 -2.5,3.03 -4.62,3.03 -5.44,0 -6.42,-4 -6.42,-5.08 0,-1.29 0.73,-2.12 1.22,-2.54 0.9,-0.71 1.53,-0.83 3.93,-1.25 0.74,-0.14 2.97,-0.57 2.97,-2.3 0,-0.59 -0.39,-1.92 -1.84,-2.8 -1.36,-0.76 -3.08,-0.76 -3.49,-0.76 -1.4,0 -3.39,0.31 -4.18,1.47 1.15,0.14 1.92,1 1.92,1.98 0,0.87 -0.63,1.28 -1.36,1.28 -1.02,0 -2.03,-0.8 -2.03,-2.33 0,-2.09 2.23,-3.37 5.61,-3.37 6.42,0 7.61,4.39 7.61,5.75 0,3.2 -3.53,3.83 -4.82,4.08 -0.31,0.06 -1.18,0.2 -1.39,0.26 -1.29,0.25 -1.92,0.99 -1.92,1.75 0,0.8 0.63,1.74 1.39,2.24 0.94,0.59 2.16,0.65 2.75,0.65 0.74,0 2.55,-0.11 3.32,-1.29 z" /></g>      </g>
      <g
         transform="matrix(1.5182712,0,0,1.5182712,-238.60325,143.74734)"
         id="g4015">
        <g
           style="font-style:normal;font-variant:normal;font-weight:normal;font-stretch:normal;letter-spacing:normal;word-spacing:normal;text-anchor:start;fill:none;stroke:#000000;stroke-linecap:butt;stroke-linejoin:miter;stroke-miterlimit:10.43299961;stroke-opacity:1;stroke-dasharray:none;stroke-dashoffset:0"
           id="g4017"
           transform="matrix(0.44107143,0,0,-0.44107143,-77.1875,447.375)"
           xml:space="preserve"
           stroke-miterlimit="10.433"
           font-style="normal"
           font-variant="normal"
           font-weight="normal"
           font-stretch="normal"
           font-size-adjust="none"
           letter-spacing="normal"
           word-spacing="normal"><path
             style="fill:#000000;stroke-width:0"
             inkscape:connector-curvature="0"
             d="m 463.49,410.09 -0.05,-0.18 -0.04,-0.17 -0.05,-0.16 -0.04,-0.15 -0.04,-0.15 -0.05,-0.13 -0.05,-0.13 -0.05,-0.12 -0.05,-0.11 -0.06,-0.11 -0.07,-0.1 -0.07,-0.09 -0.07,-0.09 -0.09,-0.07 -0.09,-0.08 -0.11,-0.06 -0.11,-0.07 -0.13,-0.05 -0.13,-0.05 -0.15,-0.05 -0.16,-0.04 -0.09,-0.02 -0.09,-0.01 -0.09,-0.02 -0.1,-0.02 -0.1,-0.01 -0.1,-0.01 -0.11,-0.01 -0.12,-0.02 -0.11,-0.01 -0.13,-0.01 -0.12,0 -0.13,-0.01 -0.14,-0.01 -0.14,0 -0.14,-0.01 -0.15,0 -0.16,-0.01 -0.16,0 -0.16,0 -0.17,0 -0.18,0 -0.18,0 c -0.85,0 -1.35,0 -1.35,-1 0,-0.55 0.46,-0.55 1.35,-0.55 h 17.78 c 7.87,0 13.75,5.87 13.75,10.76 0,3.58 -2.89,6.47 -7.72,7.02 5.19,0.95 10.42,4.64 10.42,9.38 0,3.68 -3.3,6.87 -9.28,6.87 l -0.69,-1.55 c 4.38,0 5.42,-2.93 5.42,-5.12 0,-4.39 -4.28,-9.13 -10.35,-9.13 h -7.27 l -0.3,-1.09 h 9.41 c 4.78,0 5.73,-3.69 5.73,-5.83 0,-4.94 -4.43,-9.76 -10.31,-9.76 h -6.78 c -0.69,0 -0.8,0 -1.09,0.04 -0.5,0.05 -0.64,0.1 -0.64,0.5 0,0.14 0,0.25 0.25,1.14 l 3.43,13.91 0.3,1.09 3.08,12.36 c 0.45,1.74 0.54,1.89 2.7,1.89 h 6.42 l 0.69,1.55 h -16.73 c -0.94,0 -1.44,0 -1.44,-1 0,-0.55 0.44,-0.55 1.39,-0.55 0.09,0 1.05,0 1.89,-0.09 0.89,-0.11 1.34,-0.16 1.34,-0.8 0,-0.2 -0.04,-0.36 -0.2,-0.95 z"
             id="path4019" /><path
             style="fill:#000000;stroke-width:0"
             inkscape:connector-curvature="0"
             d="m 495.93,394.51 -0.02,-0.09 -0.02,-0.08 -0.02,-0.09 -0.02,-0.07 -0.02,-0.08 -0.03,-0.07 -0.02,-0.07 -0.02,-0.06 -0.02,-0.06 -0.03,-0.05 -0.03,-0.06 -0.03,-0.05 -0.03,-0.04 -0.03,-0.05 -0.04,-0.04 -0.04,-0.03 -0.04,-0.04 -0.05,-0.03 -0.05,-0.03 -0.06,-0.02 -0.05,-0.03 -0.07,-0.02 -0.07,-0.01 -0.07,-0.02 -0.08,-0.02 -0.05,0 -0.04,-0.01 -0.05,0 -0.04,-0.01 -0.05,0 -0.05,0 -0.05,-0.01 -0.06,0 -0.05,0 -0.06,0 -0.06,-0.01 -0.06,0 -0.06,0 -0.06,0 c -0.46,0 -0.94,0 -0.94,-0.73 0,-0.39 0.31,-0.53 0.48,-0.53 0.91,0 2.07,0.14 3,0.14 1.19,0 2.5,-0.14 3.66,-0.14 0.31,0 0.7,0.11 0.7,0.76 0,0.5 -0.5,0.5 -0.9,0.5 -0.78,0 -1.72,0 -1.72,0.41 0,0.19 0.25,1.09 0.39,1.61 0.42,1.84 0.9,3.73 1.28,5.18 0.42,-0.68 1.5,-2.04 3.59,-2.04 v 0.97 c -2.47,0 -3.09,2.68 -3.09,3.03 0,0.14 0.06,0.39 0.09,0.53 l 1.75,7 c 2.02,2.69 3.77,3.2 4.88,3.2 1.36,0 2.55,-1.01 2.55,-3.37 0,-1.44 -0.77,-4.99 -1.82,-7.02 -0.87,-1.7 -2.58,-3.37 -4.36,-3.37 v -0.97 c 4.25,0 8.96,4.7 8.96,9.89 0,4.08 -2.83,5.81 -5.22,5.81 -2.17,0 -4.02,-1.45 -4.96,-2.44 -0.59,1.99 -2.54,2.44 -3.59,2.44 -1.36,0 -2.19,-0.91 -2.75,-1.84 -0.7,-1.19 -1.25,-3.27 -1.25,-3.49 0,-0.45 0.49,-0.45 0.59,-0.45 0.49,0 0.52,0.11 0.77,1.05 0.52,2.03 1.19,3.76 2.55,3.76 0.9,0 1.14,-0.76 1.14,-1.7 0,-0.39 -0.06,-0.84 -0.11,-1.05 z"
             id="path4021" /></g>      </g>
    </g>
  </g>
</svg>
