<?xml version="1.0" encoding="UTF-8" standalone="no"?>
<!-- Created with Inkscape (http://www.inkscape.org/) -->

<svg
   xmlns:dc="http://purl.org/dc/elements/1.1/"
   xmlns:cc="http://creativecommons.org/ns#"
   xmlns:rdf="http://www.w3.org/1999/02/22-rdf-syntax-ns#"
   xmlns:svg="http://www.w3.org/2000/svg"
   xmlns="http://www.w3.org/2000/svg"
   xmlns:sodipodi="http://sodipodi.sourceforge.net/DTD/sodipodi-0.dtd"
   xmlns:inkscape="http://www.inkscape.org/namespaces/inkscape"
   width="665.6875"
   height="299"
   id="svg4951"
   version="1.1"
   inkscape:version="0.48.4 r9939"
   sodipodi:docname="New document 8">
  <defs
     id="defs4953" />
  <sodipodi:namedview
     id="base"
     pagecolor="#ffffff"
     bordercolor="#666666"
     borderopacity="1.0"
     inkscape:pageopacity="0.0"
     inkscape:pageshadow="2"
     inkscape:zoom="0.61077838"
     inkscape:cx="521.82334"
     inkscape:cy="-24.778587"
     inkscape:document-units="px"
     inkscape:current-layer="layer1"
     showgrid="false"
     fit-margin-top="0"
     fit-margin-left="0"
     fit-margin-right="0"
     fit-margin-bottom="0"
     inkscape:window-width="1855"
     inkscape:window-height="1056"
     inkscape:window-x="65"
     inkscape:window-y="24"
     inkscape:window-maximized="1" />
  <metadata
     id="metadata4956">
    <rdf:RDF>
      <cc:Work
         rdf:about="">
        <dc:format>image/svg+xml</dc:format>
        <dc:type
           rdf:resource="http://purl.org/dc/dcmitype/StillImage" />
        <dc:title></dc:title>
      </cc:Work>
    </rdf:RDF>
  </metadata>
  <g
     inkscape:label="Layer 1"
     inkscape:groupmode="layer"
     id="layer1"
     transform="translate(96.85222,-257.78948)">
    <g
       transform="translate(-121.13347,225.91448)"
       id="g790">
      <path
         style="fill:#ffffff;stroke:#000100"
         inkscape:connector-curvature="0"
         d="m 31.7169,325.369 364.6211,0"
         id="path792" />
      <path
         style="fill:#ffffff;stroke:#000100"
         inkscape:connector-curvature="0"
         d="m 324.338,149.869 0,180"
         id="path794" />
      <path
         style="fill:#ffffff;stroke:#007efd;stroke-width:3"
         inkscape:connector-curvature="0"
         d="m 360.338,217.105 0,-72"
         id="path796" />
      <path
         style="fill:#ffffff;stroke:#007efd;stroke-width:3"
         inkscape:connector-curvature="0"
         d="m 360.338,145.105 216,0"
         id="path798" />
      <path
         style="fill:#ffffff;stroke:#000100"
         inkscape:connector-curvature="0"
         d="m 612.338,145.105 0,184.5"
         id="path800" />
      <path
         style="fill:none;stroke:#000100"
         inkscape:connector-curvature="0"
         d="m 612.338,32.8694 0,152.9996"
         id="path802" />
      <path
         style="fill:#ffffff;stroke:#000100"
         inkscape:connector-curvature="0"
         d="m 540.338,145.369 0,184.5"
         id="path804" />
      <path
         style="fill:#ffffff;stroke:#000100"
         inkscape:connector-curvature="0"
         d="m 468.338,181.105 0,148.764"
         id="path806" />
      <path
         style="fill:#ffffff;stroke:#000100"
         inkscape:connector-curvature="0"
         d="m 391.717,109.369 297.241,0"
         id="path808" />
      <path
         style="fill:#ffffff;stroke:#000100"
         inkscape:connector-curvature="0"
         d="m 391.717,325.369 297.241,0"
         id="path810" />
      <path
         style="fill:#ffffff;stroke:#000100"
         inkscape:connector-curvature="0"
         d="m 391.717,253.369 297.241,0"
         id="path812" />
      <path
         style="fill:#ffffff;stroke:#000100"
         inkscape:connector-curvature="0"
         d="m 391.717,181.369 297.241,0"
         id="path814" />
      <path
         style="fill:none;stroke:#000100"
         inkscape:connector-curvature="0"
         d="m 468.338,32.8694 0,152.9996"
         id="path816" />
      <path
         style="fill:none;stroke:#000100"
         inkscape:connector-curvature="0"
         d="m 540.338,32.8694 0,152.9996"
         id="path818" />
      <path
         style="fill:none;stroke:#000100"
         inkscape:connector-curvature="0"
         d="m 684.338,32.8694 0,215.9996"
         id="path820" />
      <g
         id="g822">
        <path
           style="fill:#ffffff;stroke:#d20000;stroke-width:3"
           inkscape:connector-curvature="0"
           d="m 468.338,109.105 216,0"
           id="path824" />
        <path
           style="fill:#ffffff;stroke:#d20000;stroke-width:3"
           inkscape:connector-curvature="0"
           d="m 468.338,325.369 0,-216.264"
           id="path826" />
        <path
           style="fill:#ffffff;stroke:#d20000;stroke-width:3"
           inkscape:connector-curvature="0"
           d="m 468.338,325.105 72,0"
           id="path828" />
        <path
           style="fill:#ffffff;stroke:#d20000;stroke-width:3"
           inkscape:connector-curvature="0"
           d="m 540.338,325.105 0,-144"
           id="path830" />
        <path
           style="fill:#ffffff;stroke:#d20000;stroke-width:3"
           inkscape:connector-curvature="0"
           d="m 540.338,181.105 144,0"
           id="path832" />
      </g>
      <g
         id="g834">
        <path
           style="fill:#ffffff;stroke:#4181fe;stroke-width:3"
           inkscape:connector-curvature="0"
           d="m 144.338,289.105 0,-215.9995"
           id="path836" />
        <path
           style="fill:#ffffff;stroke:#4181fe;stroke-width:3"
           inkscape:connector-curvature="0"
           d="m 288.338,289.105 0,-215.9995"
           id="path838" />
        <path
           style="fill:#ffffff;stroke:#4181fe;stroke-width:3"
           inkscape:connector-curvature="0"
           d="m 144.338,73.1055 144,0"
           id="path840" />
        <path
           style="fill:#ffffff;stroke:#4181fe;stroke-width:3"
           inkscape:connector-curvature="0"
           d="m 144.338,289.105 144,0"
           id="path842" />
      </g>
      <path
         style="fill:#ffffff;stroke:#000100"
         inkscape:connector-curvature="0"
         d="m 31.7169,109.369 364.6211,0"
         id="path844" />
      <path
         style="fill:#ffffff;stroke:#000100"
         inkscape:connector-curvature="0"
         d="m 31.7169,181.369 364.6211,0"
         id="path846" />
      <path
         style="fill:none;stroke:#000100"
         inkscape:connector-curvature="0"
         d="m 108.338,32.8694 0,152.9996"
         id="path848" />
      <path
         style="fill:none;stroke:#000100"
         inkscape:connector-curvature="0"
         d="m 36.338,32.8694 0,152.9996"
         id="path850" />
      <path
         style="fill:none;stroke:#000100"
         inkscape:connector-curvature="0"
         d="m 31.7169,37.3694 360.0001,0"
         id="path852" />
      <path
         style="fill:none;stroke:#000100"
         inkscape:connector-curvature="0"
         d="m 180.338,32.8694 0,152.9996"
         id="path854" />
      <path
         style="fill:none;stroke:#000100"
         inkscape:connector-curvature="0"
         d="m 324.338,32.8694 0,152.9996"
         id="path856" />
      <path
         style="fill:none;stroke:#000100"
         inkscape:connector-curvature="0"
         d="m 252.338,32.8694 0,152.9996"
         id="path858" />
      <path
         style="fill:#ffffff;stroke:#000100;stroke-width:2"
         inkscape:connector-curvature="0"
         d="m 252.337,140.605 c 2.552,0 4.621,2.015 4.621,4.5 0,2.486 -2.069,4.5 -4.621,4.5 -2.551,0 -4.62,-2.014 -4.62,-4.5 0,-2.485 2.069,-4.5 4.62,-4.5 z"
         id="path860" />
      <path
         style="fill:#007efd;stroke:#000100;stroke-width:2"
         inkscape:connector-curvature="0"
         d="m 252.337,68.6055 c 2.552,0 4.621,2.0145 4.621,4.5 0,2.4854 -2.069,4.5 -4.621,4.5 -2.551,0 -4.62,-2.0146 -4.62,-4.5 0,-2.4855 2.069,-4.5 4.62,-4.5 z"
         id="path862" />
      <path
         style="fill:#ffffff;stroke:#000100;stroke-width:2"
         inkscape:connector-curvature="0"
         d="m 324.338,68.8694 c 2.552,0 4.62,2.0146 4.62,4.5 0,2.4851 -2.068,4.5 -4.62,4.5 -2.552,0 -4.621,-2.0149 -4.621,-4.5 0,-2.4854 2.069,-4.5 4.621,-4.5 z"
         id="path864" />
      <path
         style="fill:#ffffff;stroke:#000100;stroke-width:2"
         inkscape:connector-curvature="0"
         d="m 288.338,32.8694 c 2.552,0 4.62,2.0146 4.62,4.5 0,2.4851 -2.068,4.5 -4.62,4.5 -2.552,0 -4.621,-2.0149 -4.621,-4.5 0,-2.4854 2.069,-4.5 4.621,-4.5 z"
         id="path866" />
      <path
         style="fill:#ffffff;stroke:#000100;stroke-width:2"
         inkscape:connector-curvature="0"
         d="m 216.338,32.8694 c 2.552,0 4.62,2.0146 4.62,4.5 0,2.4851 -2.068,4.5 -4.62,4.5 -2.552,0 -4.621,-2.0149 -4.621,-4.5 0,-2.4854 2.069,-4.5 4.621,-4.5 z"
         id="path868" />
      <path
         style="fill:#007efd;stroke:#000100;stroke-width:2"
         inkscape:connector-curvature="0"
         d="m 180.338,68.8694 c 2.552,0 4.62,2.0146 4.62,4.5 0,2.4851 -2.068,4.5 -4.62,4.5 -2.552,0 -4.621,-2.0149 -4.621,-4.5 0,-2.4854 2.069,-4.5 4.621,-4.5 z"
         id="path870" />
      <path
         style="fill:#ffffff;stroke:#000100;stroke-width:2"
         inkscape:connector-curvature="0"
         d="m 108.338,140.869 c 2.552,0 4.62,2.015 4.62,4.5 0,2.485 -2.068,4.5 -4.62,4.5 -2.552,0 -4.621,-2.015 -4.621,-4.5 0,-2.485 2.069,-4.5 4.621,-4.5 z"
         id="path872" />
      <path
         style="fill:#ffffff;stroke:#000100;stroke-width:2"
         inkscape:connector-curvature="0"
         d="m 144.338,32.8694 c 2.552,0 4.62,2.0146 4.62,4.5 0,2.4851 -2.068,4.5 -4.62,4.5 -2.552,0 -4.621,-2.0149 -4.621,-4.5 0,-2.4854 2.069,-4.5 4.621,-4.5 z"
         id="path874" />
      <path
         style="fill:#ffffff;stroke:#000100;stroke-width:2"
         inkscape:connector-curvature="0"
         d="m 108.338,68.8694 c 2.552,0 4.62,2.0146 4.62,4.5 0,2.4851 -2.068,4.5 -4.62,4.5 -2.552,0 -4.621,-2.0149 -4.621,-4.5 0,-2.4854 2.069,-4.5 4.621,-4.5 z"
         id="path876" />
      <path
         style="fill:#ffffff;stroke:#000100;stroke-width:2"
         inkscape:connector-curvature="0"
         d="m 36.338,140.869 c 2.552,0 4.6203,2.015 4.6203,4.5 0,2.485 -2.0683,4.5 -4.6203,4.5 -2.552,0 -4.6211,-2.015 -4.6211,-4.5 0,-2.485 2.0691,-4.5 4.6211,-4.5 z"
         id="path878" />
      <path
         style="fill:#ffffff;stroke:#000100;stroke-width:2"
         inkscape:connector-curvature="0"
         d="m 72.338,32.8694 c 2.552,0 4.6203,2.0146 4.6203,4.5 0,2.4851 -2.0683,4.5 -4.6203,4.5 -2.552,0 -4.6211,-2.0149 -4.6211,-4.5 0,-2.4854 2.0691,-4.5 4.6211,-4.5 z"
         id="path880" />
      <path
         style="fill:#ffffff;stroke:#000100;stroke-width:2"
         inkscape:connector-curvature="0"
         d="m 36.338,68.8694 c 2.552,0 4.6203,2.0146 4.6203,4.5 0,2.4851 -2.0683,4.5 -4.6203,4.5 -2.552,0 -4.6211,-2.0149 -4.6211,-4.5 0,-2.4854 2.0691,-4.5 4.6211,-4.5 z"
         id="path882" />
      <path
         style="fill:#ffffff;stroke:#000100"
         inkscape:connector-curvature="0"
         d="m 108.338,181.105 0,148.5"
         id="path884" />
      <path
         style="fill:#ffffff;stroke:#000100"
         inkscape:connector-curvature="0"
         d="m 36.338,181.105 0,144.264"
         id="path886" />
      <path
         style="fill:#ffffff;stroke:#000100"
         inkscape:connector-curvature="0"
         d="m 31.7169,253.369 360.0001,0"
         id="path888" />
      <path
         style="fill:#ffffff;stroke:#000100"
         inkscape:connector-curvature="0"
         d="m 180.338,185.869 0,144"
         id="path890" />
      <path
         style="fill:#ffffff;stroke:#000100"
         inkscape:connector-curvature="0"
         d="m 252.338,165.869 0,163.736"
         id="path892" />
      <path
         style="fill:#ffffff;stroke:#000100;stroke-width:2"
         inkscape:connector-curvature="0"
         d="m 288.337,320.605 c 2.552,0 4.621,2.015 4.621,4.5 0,2.486 -2.069,4.5 -4.621,4.5 -2.551,0 -4.62,-2.014 -4.62,-4.5 0,-2.485 2.069,-4.5 4.62,-4.5 z"
         id="path894" />
      <path
         style="fill:#007efd;stroke:#000100;stroke-width:2"
         inkscape:connector-curvature="0"
         d="m 252.337,284.605 c 2.552,0 4.621,2.015 4.621,4.5 0,2.486 -2.069,4.5 -4.621,4.5 -2.551,0 -4.62,-2.014 -4.62,-4.5 0,-2.485 2.069,-4.5 4.62,-4.5 z"
         id="path896" />
      <path
         style="fill:#ffffff;stroke:#000100;stroke-width:2"
         inkscape:connector-curvature="0"
         d="m 216.337,320.605 c 2.552,0 4.621,2.015 4.621,4.5 0,2.486 -2.069,4.5 -4.621,4.5 -2.551,0 -4.62,-2.014 -4.62,-4.5 0,-2.485 2.069,-4.5 4.62,-4.5 z"
         id="path898" />
      <path
         style="fill:#ffffff;stroke:#000100;stroke-width:2"
         inkscape:connector-curvature="0"
         d="m 324.338,284.869 c 2.552,0 4.62,2.015 4.62,4.5 0,2.485 -2.068,4.5 -4.62,4.5 -2.552,0 -4.621,-2.015 -4.621,-4.5 0,-2.485 2.069,-4.5 4.621,-4.5 z"
         id="path900" />
      <path
         style="fill:#007efd;stroke:#000100;stroke-width:2"
         inkscape:connector-curvature="0"
         d="m 288.338,248.869 c 2.552,0 4.62,2.015 4.62,4.5 0,2.485 -2.068,4.5 -4.62,4.5 -2.552,0 -4.621,-2.015 -4.621,-4.5 0,-2.485 2.069,-4.5 4.621,-4.5 z"
         id="path902" />
      <path
         style="fill:#ffffff;stroke:#000100;stroke-width:2"
         inkscape:connector-curvature="0"
         d="m 216.338,248.869 c 2.552,0 4.62,2.015 4.62,4.5 0,2.485 -2.068,4.5 -4.62,4.5 -2.552,0 -4.621,-2.015 -4.621,-4.5 0,-2.485 2.069,-4.5 4.621,-4.5 z"
         id="path904" />
      <path
         style="fill:#ffffff;stroke:#000100;stroke-width:2"
         inkscape:connector-curvature="0"
         d="m 144.338,320.869 c 2.552,0 4.62,2.015 4.62,4.5 0,2.485 -2.068,4.5 -4.62,4.5 -2.552,0 -4.621,-2.015 -4.621,-4.5 0,-2.485 2.069,-4.5 4.621,-4.5 z"
         id="path906" />
      <path
         style="fill:#ffffff;stroke:#000100"
         inkscape:connector-curvature="0"
         d="m 396.338,145.369 0,184.5"
         id="path908" />
      <path
         style="fill:#ffffff;stroke:#000100"
         inkscape:connector-curvature="0"
         d="m 684.338,248.869 0,81"
         id="path910" />
      <path
         style="fill:#ffffff;stroke:#000100;stroke-width:2"
         inkscape:connector-curvature="0"
         d="m 648.337,320.605 c 2.552,0 4.621,2.015 4.621,4.5 0,2.486 -2.069,4.5 -4.621,4.5 -2.551,0 -4.62,-2.014 -4.62,-4.5 0,-2.485 2.069,-4.5 4.62,-4.5 z"
         id="path912" />
      <path
         style="fill:#ffffff;stroke:#000100;stroke-width:2"
         inkscape:connector-curvature="0"
         d="m 612.337,284.605 c 2.552,0 4.621,2.015 4.621,4.5 0,2.486 -2.069,4.5 -4.621,4.5 -2.551,0 -4.62,-2.014 -4.62,-4.5 0,-2.485 2.069,-4.5 4.62,-4.5 z"
         id="path914" />
      <path
         style="fill:#ffffff;stroke:#000100;stroke-width:2"
         inkscape:connector-curvature="0"
         d="m 576.337,320.605 c 2.552,0 4.621,2.015 4.621,4.5 0,2.486 -2.069,4.5 -4.621,4.5 -2.551,0 -4.62,-2.014 -4.62,-4.5 0,-2.485 2.069,-4.5 4.62,-4.5 z"
         id="path916" />
      <path
         style="fill:#ffffff;stroke:#000100;stroke-width:2"
         inkscape:connector-curvature="0"
         d="m 684.338,284.869 c 2.552,0 4.62,2.015 4.62,4.5 0,2.485 -2.068,4.5 -4.62,4.5 -2.552,0 -4.621,-2.015 -4.621,-4.5 0,-2.485 2.069,-4.5 4.621,-4.5 z"
         id="path918" />
      <path
         style="fill:#ffffff;stroke:#000100;stroke-width:2"
         inkscape:connector-curvature="0"
         d="m 648.338,248.869 c 2.552,0 4.62,2.015 4.62,4.5 0,2.485 -2.068,4.5 -4.62,4.5 -2.552,0 -4.621,-2.015 -4.621,-4.5 0,-2.485 2.069,-4.5 4.621,-4.5 z"
         id="path920" />
      <path
         style="fill:#ffffff;stroke:#000100;stroke-width:2"
         inkscape:connector-curvature="0"
         d="m 576.338,248.869 c 2.552,0 4.62,2.015 4.62,4.5 0,2.485 -2.068,4.5 -4.62,4.5 -2.552,0 -4.621,-2.015 -4.621,-4.5 0,-2.485 2.069,-4.5 4.621,-4.5 z"
         id="path922" />
      <path
         style="fill:#ffffff;stroke:#000100;stroke-width:2"
         inkscape:connector-curvature="0"
         d="m 504.338,248.869 c 2.552,0 4.62,2.015 4.62,4.5 0,2.485 -2.068,4.5 -4.62,4.5 -2.552,0 -4.621,-2.015 -4.621,-4.5 0,-2.485 2.069,-4.5 4.621,-4.5 z"
         id="path924" />
      <path
         style="fill:#ffffff;stroke:#000100;stroke-width:2"
         inkscape:connector-curvature="0"
         d="m 432.338,320.869 c 2.552,0 4.62,2.015 4.62,4.5 0,2.485 -2.068,4.5 -4.62,4.5 -2.552,0 -4.621,-2.015 -4.621,-4.5 0,-2.485 2.069,-4.5 4.621,-4.5 z"
         id="path926" />
      <path
         style="fill:#ffffff;stroke:#000100;stroke-width:2"
         inkscape:connector-curvature="0"
         d="m 432.338,248.869 c 2.552,0 4.62,2.015 4.62,4.5 0,2.485 -2.068,4.5 -4.62,4.5 -2.552,0 -4.621,-2.015 -4.621,-4.5 0,-2.485 2.069,-4.5 4.621,-4.5 z"
         id="path928" />
      <path
         style="fill:#ffffff;stroke:#000100;stroke-width:2"
         inkscape:connector-curvature="0"
         d="m 396.338,284.869 c 2.552,0 4.62,2.015 4.62,4.5 0,2.485 -2.068,4.5 -4.62,4.5 -2.552,0 -4.621,-2.015 -4.621,-4.5 0,-2.485 2.069,-4.5 4.621,-4.5 z"
         id="path930" />
      <path
         style="fill:none;stroke:#000100"
         inkscape:connector-curvature="0"
         d="m 396.338,32.8694 0,152.9996"
         id="path932" />
      <path
         style="fill:none;stroke:#000100"
         inkscape:connector-curvature="0"
         d="m 391.717,37.3694 297.241,0"
         id="path934" />
      <path
         style="fill:#ffffff;stroke:#d20000;stroke-width:3"
         inkscape:connector-curvature="0"
         d="m 684.338,181.105 0,-72"
         id="path936" />
      <path
         style="fill:#ffffff;stroke:#000100;stroke-width:2"
         inkscape:connector-curvature="0"
         d="m 612.337,140.605 c 2.552,0 4.621,2.015 4.621,4.5 0,2.486 -2.069,4.5 -4.621,4.5 -2.551,0 -4.62,-2.014 -4.62,-4.5 0,-2.485 2.069,-4.5 4.62,-4.5 z"
         id="path938" />
      <path
         style="fill:#ffffff;stroke:#000100;stroke-width:2"
         inkscape:connector-curvature="0"
         d="m 612.337,68.6055 c 2.552,0 4.621,2.0145 4.621,4.5 0,2.4854 -2.069,4.5 -4.621,4.5 -2.551,0 -4.62,-2.0146 -4.62,-4.5 0,-2.4855 2.069,-4.5 4.62,-4.5 z"
         id="path940" />
      <path
         style="fill:#ffffff;stroke:#000100;stroke-width:2"
         inkscape:connector-curvature="0"
         d="m 684.338,68.8694 c 2.552,0 4.62,2.0146 4.62,4.5 0,2.4851 -2.068,4.5 -4.62,4.5 -2.552,0 -4.621,-2.0149 -4.621,-4.5 0,-2.4854 2.069,-4.5 4.621,-4.5 z"
         id="path942" />
      <path
         style="fill:#ffffff;stroke:#000100;stroke-width:2"
         inkscape:connector-curvature="0"
         d="m 648.338,32.8694 c 2.552,0 4.62,2.0146 4.62,4.5 0,2.4851 -2.068,4.5 -4.62,4.5 -2.552,0 -4.621,-2.0149 -4.621,-4.5 0,-2.4854 2.069,-4.5 4.621,-4.5 z"
         id="path944" />
      <path
         style="fill:#ffffff;stroke:#000100;stroke-width:2"
         inkscape:connector-curvature="0"
         d="m 576.338,32.8694 c 2.552,0 4.62,2.0146 4.62,4.5 0,2.4851 -2.068,4.5 -4.62,4.5 -2.552,0 -4.621,-2.0149 -4.621,-4.5 0,-2.4854 2.069,-4.5 4.621,-4.5 z"
         id="path946" />
      <path
         style="fill:#ffffff;stroke:#000100;stroke-width:2"
         inkscape:connector-curvature="0"
         d="m 540.338,68.8694 c 2.552,0 4.62,2.0146 4.62,4.5 0,2.4851 -2.068,4.5 -4.62,4.5 -2.552,0 -4.621,-2.0149 -4.621,-4.5 0,-2.4854 2.069,-4.5 4.621,-4.5 z"
         id="path948" />
      <path
         style="fill:#007efd;stroke:#000100;stroke-width:2"
         inkscape:connector-curvature="0"
         d="m 540.338,140.869 c 2.552,0 4.62,2.015 4.62,4.5 0,2.485 -2.068,4.5 -4.62,4.5 -2.552,0 -4.621,-2.015 -4.621,-4.5 0,-2.485 2.069,-4.5 4.621,-4.5 z"
         id="path950" />
      <path
         style="fill:#ffffff;stroke:#000100;stroke-width:2"
         inkscape:connector-curvature="0"
         d="m 504.338,176.869 c 2.552,0 4.62,2.015 4.62,4.5 0,2.485 -2.068,4.5 -4.62,4.5 -2.552,0 -4.621,-2.015 -4.621,-4.5 0,-2.485 2.069,-4.5 4.621,-4.5 z"
         id="path952" />
      <path
         style="fill:#ffffff;stroke:#000100;stroke-width:2"
         inkscape:connector-curvature="0"
         d="m 504.338,32.8694 c 2.552,0 4.62,2.0146 4.62,4.5 0,2.4851 -2.068,4.5 -4.62,4.5 -2.552,0 -4.621,-2.0149 -4.621,-4.5 0,-2.4854 2.069,-4.5 4.621,-4.5 z"
         id="path954" />
      <path
         style="fill:#ffffff;stroke:#000100;stroke-width:2"
         inkscape:connector-curvature="0"
         d="m 468.338,68.8694 c 2.552,0 4.62,2.0146 4.62,4.5 0,2.4851 -2.068,4.5 -4.62,4.5 -2.552,0 -4.621,-2.0149 -4.621,-4.5 0,-2.4854 2.069,-4.5 4.621,-4.5 z"
         id="path956" />
      <path
         style="fill:#ffffff;stroke:#000100;stroke-width:2"
         inkscape:connector-curvature="0"
         d="m 432.338,104.869 c 2.552,0 4.62,2.015 4.62,4.5 0,2.485 -2.068,4.5 -4.62,4.5 -2.552,0 -4.621,-2.015 -4.621,-4.5 0,-2.485 2.069,-4.5 4.621,-4.5 z"
         id="path958" />
      <path
         style="fill:#007efd;stroke:#000100;stroke-width:2"
         inkscape:connector-curvature="0"
         d="m 396.338,140.869 c 2.552,0 4.62,2.015 4.62,4.5 0,2.485 -2.068,4.5 -4.62,4.5 -2.552,0 -4.621,-2.015 -4.621,-4.5 0,-2.485 2.069,-4.5 4.621,-4.5 z"
         id="path960" />
      <path
         style="fill:#ffffff;stroke:#000100;stroke-width:2"
         inkscape:connector-curvature="0"
         d="m 432.338,176.869 c 2.552,0 4.62,2.015 4.62,4.5 0,2.485 -2.068,4.5 -4.62,4.5 -2.552,0 -4.621,-2.015 -4.621,-4.5 0,-2.485 2.069,-4.5 4.621,-4.5 z"
         id="path962" />
      <path
         style="fill:#ffffff;stroke:#000100;stroke-width:2"
         inkscape:connector-curvature="0"
         d="m 432.338,32.8694 c 2.552,0 4.62,2.0146 4.62,4.5 0,2.4851 -2.068,4.5 -4.62,4.5 -2.552,0 -4.621,-2.0149 -4.621,-4.5 0,-2.4854 2.069,-4.5 4.621,-4.5 z"
         id="path964" />
      <path
         style="fill:#ffffff;stroke:#000100;stroke-width:2"
         inkscape:connector-curvature="0"
         d="m 396.338,68.8694 c 2.552,0 4.62,2.0146 4.62,4.5 0,2.4851 -2.068,4.5 -4.62,4.5 -2.552,0 -4.621,-2.0149 -4.621,-4.5 0,-2.4854 2.069,-4.5 4.621,-4.5 z"
         id="path966" />
      <path
         style="fill:#ffffff;stroke:#000100;stroke-width:2"
         inkscape:connector-curvature="0"
         d="m 108.338,212.869 c 2.552,0 4.62,2.015 4.62,4.5 0,2.485 -2.068,4.5 -4.62,4.5 -2.552,0 -4.621,-2.015 -4.621,-4.5 0,-2.485 2.069,-4.5 4.621,-4.5 z"
         id="path968" />
      <path
         style="fill:#ffffff;stroke:#000100;stroke-width:2"
         inkscape:connector-curvature="0"
         d="m 180.338,212.869 c 2.552,0 4.62,2.015 4.62,4.5 0,2.485 -2.068,4.5 -4.62,4.5 -2.552,0 -4.621,-2.015 -4.621,-4.5 0,-2.485 2.069,-4.5 4.621,-4.5 z"
         id="path970" />
      <path
         style="fill:#ffffff;stroke:#000100;stroke-width:2"
         inkscape:connector-curvature="0"
         d="m 252.338,212.869 c 2.552,0 4.62,2.015 4.62,4.5 0,2.485 -2.068,4.5 -4.62,4.5 -2.552,0 -4.621,-2.015 -4.621,-4.5 0,-2.485 2.069,-4.5 4.621,-4.5 z"
         id="path972" />
      <path
         style="fill:#ffffff;stroke:#000100;stroke-width:2"
         inkscape:connector-curvature="0"
         d="m 324.338,212.869 c 2.552,0 4.62,2.015 4.62,4.5 0,2.485 -2.068,4.5 -4.62,4.5 -2.552,0 -4.621,-2.015 -4.621,-4.5 0,-2.485 2.069,-4.5 4.621,-4.5 z"
         id="path974" />
      <path
         style="fill:#ffffff;stroke:#000100;stroke-width:2"
         inkscape:connector-curvature="0"
         d="m 396.338,212.869 c 2.552,0 4.62,2.015 4.62,4.5 0,2.485 -2.068,4.5 -4.62,4.5 -2.552,0 -4.621,-2.015 -4.621,-4.5 0,-2.485 2.069,-4.5 4.621,-4.5 z"
         id="path976" />
      <path
         style="fill:#ffffff;stroke:#000100;stroke-width:2"
         inkscape:connector-curvature="0"
         d="m 612.338,212.869 c 2.552,0 4.62,2.015 4.62,4.5 0,2.485 -2.068,4.5 -4.62,4.5 -2.552,0 -4.621,-2.015 -4.621,-4.5 0,-2.485 2.069,-4.5 4.621,-4.5 z"
         id="path978" />
      <path
         style="fill:#ffffff;stroke:#000100;stroke-width:2"
         inkscape:connector-curvature="0"
         d="m 684.338,212.869 c 2.552,0 4.62,2.015 4.62,4.5 0,2.485 -2.068,4.5 -4.62,4.5 -2.552,0 -4.621,-2.015 -4.621,-4.5 0,-2.485 2.069,-4.5 4.621,-4.5 z"
         id="path980" />
      <path
         style="fill:#ffffff;stroke:#000100;stroke-width:2"
         inkscape:connector-curvature="0"
         d="m 360.338,32.8694 c 2.552,0 4.62,2.0146 4.62,4.5 0,2.4851 -2.068,4.5 -4.62,4.5 -2.552,0 -4.621,-2.0149 -4.621,-4.5 0,-2.4854 2.069,-4.5 4.621,-4.5 z"
         id="path982" />
      <path
         style="fill:#ffffff;stroke:#000100;stroke-width:2"
         inkscape:connector-curvature="0"
         d="m 360.338,104.869 c 2.552,0 4.62,2.015 4.62,4.5 0,2.485 -2.068,4.5 -4.62,4.5 -2.552,0 -4.621,-2.015 -4.621,-4.5 0,-2.485 2.069,-4.5 4.621,-4.5 z"
         id="path984" />
      <path
         style="fill:#007efd;stroke:#000100;stroke-width:2"
         inkscape:connector-curvature="0"
         d="m 360.338,176.869 c 2.552,0 4.62,2.015 4.62,4.5 0,2.485 -2.068,4.5 -4.62,4.5 -2.552,0 -4.621,-2.015 -4.621,-4.5 0,-2.485 2.069,-4.5 4.621,-4.5 z"
         id="path986" />
      <path
         style="fill:#ffffff;stroke:#000100;stroke-width:2"
         inkscape:connector-curvature="0"
         d="m 360.338,248.869 c 2.552,0 4.62,2.015 4.62,4.5 0,2.485 -2.068,4.5 -4.62,4.5 -2.552,0 -4.621,-2.015 -4.621,-4.5 0,-2.485 2.069,-4.5 4.621,-4.5 z"
         id="path988" />
      <path
         style="fill:#ffffff;stroke:#000100;stroke-width:2"
         inkscape:connector-curvature="0"
         d="m 360.338,320.869 c 2.552,0 4.62,2.015 4.62,4.5 0,2.485 -2.068,4.5 -4.62,4.5 -2.552,0 -4.621,-2.015 -4.621,-4.5 0,-2.485 2.069,-4.5 4.621,-4.5 z"
         id="path990" />
      <path
         style="fill:#d20000;stroke:#000100;stroke-width:2"
         inkscape:connector-curvature="0"
         d="m 540.338,284.869 c 2.552,0 4.62,2.015 4.62,4.5 0,2.485 -2.068,4.5 -4.62,4.5 -2.552,0 -4.621,-2.015 -4.621,-4.5 0,-2.485 2.069,-4.5 4.621,-4.5 z"
         id="path992" />
      <path
         style="fill:#d20000;stroke:#000100;stroke-width:2"
         inkscape:connector-curvature="0"
         d="m 504.338,320.869 c 2.552,0 4.62,2.015 4.62,4.5 0,2.485 -2.068,4.5 -4.62,4.5 -2.552,0 -4.621,-2.015 -4.621,-4.5 0,-2.485 2.069,-4.5 4.621,-4.5 z"
         id="path994" />
      <path
         style="fill:#d20000;stroke:#000100;stroke-width:2"
         inkscape:connector-curvature="0"
         d="m 468.338,284.869 c 2.552,0 4.62,2.015 4.62,4.5 0,2.485 -2.068,4.5 -4.62,4.5 -2.552,0 -4.621,-2.015 -4.621,-4.5 0,-2.485 2.069,-4.5 4.621,-4.5 z"
         id="path996" />
      <path
         style="fill:#d20000;stroke:#000100;stroke-width:2"
         inkscape:connector-curvature="0"
         d="m 576.338,176.869 c 2.552,0 4.62,2.015 4.62,4.5 0,2.485 -2.068,4.5 -4.62,4.5 -2.552,0 -4.621,-2.015 -4.621,-4.5 0,-2.485 2.069,-4.5 4.621,-4.5 z"
         id="path998" />
      <path
         style="fill:#d20000;stroke:#000100;stroke-width:2"
         inkscape:connector-curvature="0"
         d="m 648.337,104.605 c 2.552,0 4.621,2.015 4.621,4.5 0,2.486 -2.069,4.5 -4.621,4.5 -2.551,0 -4.62,-2.014 -4.62,-4.5 0,-2.485 2.069,-4.5 4.62,-4.5 z"
         id="path1000" />
      <path
         style="fill:#d20000;stroke:#000100;stroke-width:2"
         inkscape:connector-curvature="0"
         d="m 576.337,104.605 c 2.552,0 4.621,2.015 4.621,4.5 0,2.486 -2.069,4.5 -4.621,4.5 -2.551,0 -4.62,-2.014 -4.62,-4.5 0,-2.485 2.069,-4.5 4.62,-4.5 z"
         id="path1002" />
      <path
         style="fill:#d20000;stroke:#000100;stroke-width:2"
         inkscape:connector-curvature="0"
         d="m 648.338,176.869 c 2.552,0 4.62,2.015 4.62,4.5 0,2.485 -2.068,4.5 -4.62,4.5 -2.552,0 -4.621,-2.015 -4.621,-4.5 0,-2.485 2.069,-4.5 4.621,-4.5 z"
         id="path1004" />
      <path
         style="fill:#d20000;stroke:#000100;stroke-width:2"
         inkscape:connector-curvature="0"
         d="m 684.338,140.869 c 2.552,0 4.62,2.015 4.62,4.5 0,2.485 -2.068,4.5 -4.62,4.5 -2.552,0 -4.621,-2.015 -4.621,-4.5 0,-2.485 2.069,-4.5 4.621,-4.5 z"
         id="path1006" />
      <path
         style="fill:#d20000;stroke:#000100;stroke-width:2"
         inkscape:connector-curvature="0"
         d="m 504.338,104.869 c 2.552,0 4.62,2.015 4.62,4.5 0,2.485 -2.068,4.5 -4.62,4.5 -2.552,0 -4.621,-2.015 -4.621,-4.5 0,-2.485 2.069,-4.5 4.621,-4.5 z"
         id="path1008" />
      <path
         style="fill:#a544fd;stroke:#000100;stroke-width:2"
         inkscape:connector-curvature="0"
         d="m 468.338,140.869 c 2.552,0 4.62,2.015 4.62,4.5 0,2.485 -2.068,4.5 -4.62,4.5 -2.552,0 -4.621,-2.015 -4.621,-4.5 0,-2.485 2.069,-4.5 4.621,-4.5 z"
         id="path1010" />
      <path
         style="fill:#d20000;stroke:#000100;stroke-width:2"
         inkscape:connector-curvature="0"
         d="m 468.338,212.869 c 2.552,0 4.62,2.015 4.62,4.5 0,2.485 -2.068,4.5 -4.62,4.5 -2.552,0 -4.621,-2.015 -4.621,-4.5 0,-2.485 2.069,-4.5 4.621,-4.5 z"
         id="path1012" />
      <path
         style="fill:#d20000;stroke:#000100;stroke-width:2"
         inkscape:connector-curvature="0"
         d="m 540.338,212.869 c 2.552,0 4.62,2.015 4.62,4.5 0,2.485 -2.068,4.5 -4.62,4.5 -2.552,0 -4.621,-2.015 -4.621,-4.5 0,-2.485 2.069,-4.5 4.621,-4.5 z"
         id="path1014" />
      <g
         id="g1016">
        <path
           style="fill:#007efd;stroke:#000100;stroke-width:2"
           inkscape:connector-curvature="0"
           d="m 180.338,284.869 c 2.552,0 4.62,2.015 4.62,4.5 0,2.485 -2.068,4.5 -4.62,4.5 -2.552,0 -4.621,-2.015 -4.621,-4.5 0,-2.485 2.069,-4.5 4.621,-4.5 z"
           id="path1018" />
        <path
           style="fill:#007efd;stroke:#000100;stroke-width:2"
           inkscape:connector-curvature="0"
           d="m 144.338,248.869 c 2.552,0 4.62,2.015 4.62,4.5 0,2.485 -2.068,4.5 -4.62,4.5 -2.552,0 -4.621,-2.015 -4.621,-4.5 0,-2.485 2.069,-4.5 4.621,-4.5 z"
           id="path1020" />
      </g>
      <path
         style="fill:#ffffff;stroke:#000100;stroke-width:2"
         inkscape:connector-curvature="0"
         d="m 108.338,284.869 c 2.552,0 4.62,2.015 4.62,4.5 0,2.485 -2.068,4.5 -4.62,4.5 -2.552,0 -4.621,-2.015 -4.621,-4.5 0,-2.485 2.069,-4.5 4.621,-4.5 z"
         id="path1022" />
      <path
         style="fill:#d20000;stroke:#000100;stroke-width:2"
         inkscape:connector-curvature="0"
         d="m 216.338,176.869 c 2.552,0 4.62,2.015 4.62,4.5 0,2.485 -2.068,4.5 -4.62,4.5 -2.552,0 -4.621,-2.015 -4.621,-4.5 0,-2.485 2.069,-4.5 4.621,-4.5 z"
         id="path1024" />
      <path
         style="fill:#ffffff;stroke:#000100;stroke-width:2"
         inkscape:connector-curvature="0"
         d="m 216.337,104.605 c 2.552,0 4.621,2.015 4.621,4.5 0,2.486 -2.069,4.5 -4.621,4.5 -2.551,0 -4.62,-2.014 -4.62,-4.5 0,-2.485 2.069,-4.5 4.62,-4.5 z"
         id="path1026" />
      <path
         style="fill:#ffffff;stroke:#000100;stroke-width:2"
         inkscape:connector-curvature="0"
         d="m 324.338,140.869 c 2.552,0 4.62,2.015 4.62,4.5 0,2.485 -2.068,4.5 -4.62,4.5 -2.552,0 -4.621,-2.015 -4.621,-4.5 0,-2.485 2.069,-4.5 4.621,-4.5 z"
         id="path1028" />
      <path
         style="fill:#ffffff;stroke:#000100;stroke-width:2"
         inkscape:connector-curvature="0"
         d="m 180.338,140.869 c 2.552,0 4.62,2.015 4.62,4.5 0,2.485 -2.068,4.5 -4.62,4.5 -2.552,0 -4.621,-2.015 -4.621,-4.5 0,-2.485 2.069,-4.5 4.621,-4.5 z"
         id="path1030" />
      <path
         style="fill:#007efd;stroke:#000100;stroke-width:2"
         inkscape:connector-curvature="0"
         d="m 288.337,104.605 c 2.552,0 4.621,2.015 4.621,4.5 0,2.486 -2.069,4.5 -4.621,4.5 -2.551,0 -4.62,-2.014 -4.62,-4.5 0,-2.485 2.069,-4.5 4.62,-4.5 z"
         id="path1032" />
      <path
         style="fill:#007efd;stroke:#000100;stroke-width:2"
         inkscape:connector-curvature="0"
         d="m 288.338,176.869 c 2.552,0 4.62,2.015 4.62,4.5 0,2.485 -2.068,4.5 -4.62,4.5 -2.552,0 -4.621,-2.015 -4.621,-4.5 0,-2.485 2.069,-4.5 4.621,-4.5 z"
         id="path1034" />
      <path
         style="fill:#ffffff;stroke:#000100;stroke-width:2"
         inkscape:connector-curvature="0"
         d="m 72.338,176.869 c 2.552,0 4.6203,2.015 4.6203,4.5 0,2.485 -2.0683,4.5 -4.6203,4.5 -2.552,0 -4.6211,-2.015 -4.6211,-4.5 0,-2.485 2.0691,-4.5 4.6211,-4.5 z"
         id="path1036" />
      <path
         style="fill:#ffffff;stroke:#000100;stroke-width:2"
         inkscape:connector-curvature="0"
         d="m 72.338,320.869 c 2.552,0 4.6203,2.015 4.6203,4.5 0,2.485 -2.0683,4.5 -4.6203,4.5 -2.552,0 -4.6211,-2.015 -4.6211,-4.5 0,-2.485 2.0691,-4.5 4.6211,-4.5 z"
         id="path1038" />
      <path
         style="fill:#ffffff;stroke:#000100;stroke-width:2"
         inkscape:connector-curvature="0"
         d="m 72.338,248.869 c 2.552,0 4.6203,2.015 4.6203,4.5 0,2.485 -2.0683,4.5 -4.6203,4.5 -2.552,0 -4.6211,-2.015 -4.6211,-4.5 0,-2.485 2.0691,-4.5 4.6211,-4.5 z"
         id="path1040" />
      <path
         style="fill:#007efd;stroke:#000100;stroke-width:2"
         inkscape:connector-curvature="0"
         d="m 144.338,176.869 c 2.552,0 4.62,2.015 4.62,4.5 0,2.485 -2.068,4.5 -4.62,4.5 -2.552,0 -4.621,-2.015 -4.621,-4.5 0,-2.485 2.069,-4.5 4.621,-4.5 z"
         id="path1042" />
      <path
         style="fill:#ffffff;stroke:#000100;stroke-width:2"
         inkscape:connector-curvature="0"
         d="m 36.338,284.869 c 2.552,0 4.6203,2.015 4.6203,4.5 0,2.485 -2.0683,4.5 -4.6203,4.5 -2.552,0 -4.6211,-2.015 -4.6211,-4.5 0,-2.485 2.0691,-4.5 4.6211,-4.5 z"
         id="path1044" />
      <path
         style="fill:#ffffff;stroke:#000100;stroke-width:2"
         inkscape:connector-curvature="0"
         d="m 36.338,212.869 c 2.552,0 4.6203,2.015 4.6203,4.5 0,2.485 -2.0683,4.5 -4.6203,4.5 -2.552,0 -4.6211,-2.015 -4.6211,-4.5 0,-2.485 2.0691,-4.5 4.6211,-4.5 z"
         id="path1046" />
      <path
         style="fill:#ffffff;stroke:#d20000;stroke-width:3"
         inkscape:connector-curvature="0"
         d="m 252.294,109.725 -215.956,0"
         id="path1048" />
      <path
         style="fill:#ffffff;stroke:#000100;stroke-width:2"
         inkscape:connector-curvature="0"
         d="m 216.338,177.445 c 2.552,0 4.62,2.015 4.62,4.5 0,2.486 -2.068,4.5 -4.62,4.5 -2.552,0 -4.621,-2.014 -4.621,-4.5 0,-2.485 2.069,-4.5 4.621,-4.5 z"
         id="path1050" />
      <path
         style="fill:#007efd;stroke:#000100;stroke-width:2"
         inkscape:connector-curvature="0"
         d="m 288.337,105.182 c 2.552,0 4.621,2.014 4.621,4.5 0,2.485 -2.069,4.5 -4.621,4.5 -2.551,0 -4.62,-2.015 -4.62,-4.5 0,-2.486 2.069,-4.5 4.62,-4.5 z"
         id="path1052" />
      <path
         style="fill:#d20000;stroke:#000100;stroke-width:2"
         inkscape:connector-curvature="0"
         d="m 216.337,105.182 c 2.552,0 4.621,2.014 4.621,4.5 0,2.485 -2.069,4.5 -4.621,4.5 -2.551,0 -4.62,-2.015 -4.62,-4.5 0,-2.486 2.069,-4.5 4.62,-4.5 z"
         id="path1054" />
      <path
         style="fill:#007efd;stroke:#000100;stroke-width:2"
         inkscape:connector-curvature="0"
         d="m 288.338,177.445 c 2.552,0 4.62,2.015 4.62,4.5 0,2.486 -2.068,4.5 -4.62,4.5 -2.552,0 -4.621,-2.014 -4.621,-4.5 0,-2.485 2.069,-4.5 4.621,-4.5 z"
         id="path1056" />
      <path
         style="fill:#ffffff;stroke:#000100;stroke-width:2"
         inkscape:connector-curvature="0"
         d="m 324.338,141.445 c 2.552,0 4.62,2.015 4.62,4.5 0,2.486 -2.068,4.5 -4.62,4.5 -2.552,0 -4.621,-2.014 -4.621,-4.5 0,-2.485 2.069,-4.5 4.621,-4.5 z"
         id="path1058" />
      <path
         style="fill:#ffffff;stroke:#000100;stroke-width:2"
         inkscape:connector-curvature="0"
         d="m 180.338,141.445 c 2.552,0 4.62,2.015 4.62,4.5 0,2.486 -2.068,4.5 -4.62,4.5 -2.552,0 -4.621,-2.014 -4.621,-4.5 0,-2.485 2.069,-4.5 4.621,-4.5 z"
         id="path1060" />
      <g
         id="g1062">
        <path
           style="fill:#007efd;stroke:#000100;stroke-width:2"
           inkscape:connector-curvature="0"
           d="m 180.338,285.445 c 2.552,0 4.62,2.015 4.62,4.5 0,2.486 -2.068,4.5 -4.62,4.5 -2.552,0 -4.621,-2.014 -4.621,-4.5 0,-2.485 2.069,-4.5 4.621,-4.5 z"
           id="path1064" />
        <path
           style="fill:#007efd;stroke:#000100;stroke-width:2"
           inkscape:connector-curvature="0"
           d="m 144.338,249.445 c 2.552,0 4.62,2.015 4.62,4.5 0,2.486 -2.068,4.5 -4.62,4.5 -2.552,0 -4.621,-2.014 -4.621,-4.5 0,-2.485 2.069,-4.5 4.621,-4.5 z"
           id="path1066" />
      </g>
      <path
         style="fill:#a544fd;stroke:#000100;stroke-width:2"
         inkscape:connector-curvature="0"
         d="m 144.338,104.869 c 2.552,0 4.62,2.015 4.62,4.5 0,2.485 -2.068,4.5 -4.62,4.5 -2.552,0 -4.621,-2.015 -4.621,-4.5 0,-2.485 2.069,-4.5 4.621,-4.5 z"
         id="path1068" />
      <g
         id="g1070">
        <path
           style="fill:none;stroke:#d20000;stroke-width:3"
           inkscape:connector-curvature="0"
           d="M 25.3384,119.61 46.1739,99.1527"
           id="path1072" />
        <path
           style="fill:none;stroke:#d20000;stroke-width:3"
           inkscape:connector-curvature="0"
           d="M 46.1739,119.61 25.3384,99.1527"
           id="path1074" />
      </g>
      <g
         id="g1076">
        <path
           style="fill:none;stroke:#d20000;stroke-width:3"
           inkscape:connector-curvature="0"
           d="M 242.338,120.11 263.174,99.6527"
           id="path1078" />
        <path
           style="fill:none;stroke:#d20000;stroke-width:3"
           inkscape:connector-curvature="0"
           d="M 263.174,120.11 242.338,99.6527"
           id="path1080" />
      </g>
      <path
         style="fill:#d20000;stroke:#000100;stroke-width:2"
         inkscape:connector-curvature="0"
         d="m 72.338,104.869 c 2.552,0 4.6203,2.015 4.6203,4.5 0,2.485 -2.0683,4.5 -4.6203,4.5 -2.552,0 -4.6211,-2.015 -4.6211,-4.5 0,-2.485 2.0691,-4.5 4.6211,-4.5 z"
         id="path1082" />
      <g
         id="g1084">
        <path
           style="fill:#007efd;stroke:#007efd;stroke-width:3"
           inkscape:connector-curvature="0"
           d="m 350.338,228.11 20.836,-20.457"
           id="path1086" />
        <path
           style="fill:#007efd;stroke:#007efd;stroke-width:3"
           inkscape:connector-curvature="0"
           d="M 371.174,228.11 350.338,207.653"
           id="path1088" />
      </g>
      <g
         id="g1090">
        <path
           style="fill:#007efd;stroke:#007efd;stroke-width:3"
           inkscape:connector-curvature="0"
           d="m 566.338,156.11 20.836,-20.457"
           id="path1092" />
        <path
           style="fill:#007efd;stroke:#007efd;stroke-width:3"
           inkscape:connector-curvature="0"
           d="M 587.174,156.11 566.338,135.653"
           id="path1094" />
      </g>
    </g>
  </g>
</svg>
