<?xml version="1.0" encoding="UTF-8" standalone="no"?>
<!-- Created with Inkscape (http://www.inkscape.org/) -->

<svg
   xmlns:dc="http://purl.org/dc/elements/1.1/"
   xmlns:cc="http://creativecommons.org/ns#"
   xmlns:rdf="http://www.w3.org/1999/02/22-rdf-syntax-ns#"
   xmlns:svg="http://www.w3.org/2000/svg"
   xmlns="http://www.w3.org/2000/svg"
   xmlns:sodipodi="http://sodipodi.sourceforge.net/DTD/sodipodi-0.dtd"
   xmlns:inkscape="http://www.inkscape.org/namespaces/inkscape"
   width="524.9375"
   height="171.125"
   id="svg3261"
   version="1.1"
   inkscape:version="0.48.4 r9939"
   sodipodi:docname="New document 5">
  <defs
     id="defs3263">
    <clipPath
       id="7fc874572b90">
      <path
         style="fill:#000000;fill-opacity:0.35"
         inkscape:connector-curvature="0"
         d="m 348.668,254.348 19.795,0 0,-18.908 -19.795,0 z"
         id="path15" />
    </clipPath>
    <clipPath
       id="7fc874363d10">
      <path
         style="fill:#000000;fill-opacity:0.35"
         inkscape:connector-curvature="0"
         d="m 348.668,253.448 19.8,0 0,-18 -19.8,0 z"
         id="path20" />
    </clipPath>
    <clipPath
       id="7fc8751eb790">
      <path
         style="fill:#000000;fill-opacity:0.35"
         inkscape:connector-curvature="0"
         d="m 294.218,311.948 20.706,0 0,-18.908 -20.706,0 z"
         id="path29" />
    </clipPath>
    <clipPath
       id="7fc87434a610">
      <path
         style="fill:#000000;fill-opacity:0.35"
         inkscape:connector-curvature="0"
         d="m 294.218,311.048 20.7,0 0,-18 -20.7,0 z"
         id="path34" />
    </clipPath>
    <clipPath
       id="7fc8745edfa0">
      <path
         style="fill:#000000;fill-opacity:0.35"
         inkscape:connector-curvature="0"
         d="m 572.674,366.203 19.795,0 0,-18.908 -19.795,0 z"
         id="path61" />
    </clipPath>
    <clipPath
       id="7fc8745bd8f0">
      <path
         style="fill:#000000;fill-opacity:0.35"
         inkscape:connector-curvature="0"
         d="m 572.674,365.303 19.8,0 0,-18 -19.8,0 z"
         id="path66" />
    </clipPath>
    <clipPath
       id="7fc8745f78f0">
      <path
         style="fill:#000000;fill-opacity:0.35"
         inkscape:connector-curvature="0"
         d="m 571.887,253.841 20.706,0 0,-18.909 -20.706,0 z"
         id="path75" />
    </clipPath>
    <clipPath
       id="7fc87431a8d0">
      <path
         style="fill:#000000;fill-opacity:0.35"
         inkscape:connector-curvature="0"
         d="m 571.887,252.941 20.7,0 0,-18 -20.7,0 z"
         id="path80" />
    </clipPath>
  </defs>
  <sodipodi:namedview
     id="base"
     pagecolor="#ffffff"
     bordercolor="#666666"
     borderopacity="1.0"
     inkscape:pageopacity="0.0"
     inkscape:pageshadow="2"
     inkscape:zoom="1.33"
     inkscape:cx="229.28596"
     inkscape:cy="28.417897"
     inkscape:document-units="px"
     inkscape:current-layer="layer1"
     showgrid="false"
     fit-margin-top="0"
     fit-margin-left="0"
     fit-margin-right="0"
     fit-margin-bottom="0"
     inkscape:window-width="1855"
     inkscape:window-height="1056"
     inkscape:window-x="65"
     inkscape:window-y="24"
     inkscape:window-maximized="1" />
  <metadata
     id="metadata3266">
    <rdf:RDF>
      <cc:Work
         rdf:about="">
        <dc:format>image/svg+xml</dc:format>
        <dc:type
           rdf:resource="http://purl.org/dc/dcmitype/StillImage" />
        <dc:title></dc:title>
      </cc:Work>
    </rdf:RDF>
  </metadata>
  <g
     inkscape:label="Layer 1"
     inkscape:groupmode="layer"
     id="layer1"
     transform="translate(-145.71404,-389.65508)">
    <g
       transform="translate(-121.94221,173.43633)"
       id="g4">
      <path
         style="fill:none;stroke:#000000"
         inkscape:connector-curvature="0"
         d="m 268.154,216.733 170.1,0 0,170.1 -170.1,0 z"
         id="path6" />
      <path
         style="fill:none;stroke:#007efd;stroke-width:2"
         inkscape:connector-curvature="0"
         d="m 341.054,386.833 0,-170.1"
         id="path8" />
      <path
         style="fill:none;stroke:#ff0004;stroke-width:2"
         inkscape:connector-curvature="0"
         d="m 437.804,316.183 -170.1,0"
         id="path10" />
      <g
         clip-path="url(#7fc874572b90)"
         id="g12">
        <clipPath
           id="clipPath3205">
          <path
             style="fill:#000000;fill-opacity:0.35"
             inkscape:connector-curvature="0"
             d="m 348.668,254.348 19.795,0 0,-18.908 -19.795,0 z"
             id="path3207" />
        </clipPath>
        <g
           clip-path="url(#7fc874363d10)"
           id="g17">
          <clipPath
             id="clipPath3210">
            <path
               style="fill:#000000;fill-opacity:0.35"
               inkscape:connector-curvature="0"
               d="m 348.668,253.448 19.8,0 0,-18 -19.8,0 z"
               id="path3212" />
          </clipPath>
          <path
             style="fill:#000000"
             inkscape:connector-curvature="0"
             d="m 357.918,237.19 c 0.144,-0.599 0.24,-0.743 0.504,-0.791 0.191,-0.048 0.886,-0.048 1.342,-0.048 2.18,0 3.139,0.072 3.139,1.749 0,0.336 -0.096,1.175 -0.168,1.726 -0.024,0.096 -0.072,0.335 -0.072,0.407 0,0.12 0.072,0.288 0.264,0.288 0.24,0 0.264,-0.192 0.312,-0.503 l 0.575,-3.739 c 0.024,-0.072 0.048,-0.287 0.048,-0.359 0,-0.24 -0.216,-0.24 -0.575,-0.24 l -11.911,0 c -0.527,0 -0.527,0.024 -0.695,0.431 l -1.27,3.787 c -0.024,0.024 -0.144,0.335 -0.144,0.383 0,0.12 0.12,0.24 0.264,0.24 0.215,0 0.239,-0.12 0.359,-0.455 1.175,-3.332 1.726,-3.715 4.889,-3.715 l 0.839,0 c 0.599,0 0.599,0.072 0.599,0.264 0,0.119 -0.048,0.383 -0.072,0.431 l -2.876,11.479 c -0.191,0.791 -0.263,1.031 -2.564,1.031 -0.767,0 -0.887,0 -0.887,0.407 0,0.24 0.216,0.24 0.36,0.24 0.575,0 1.174,-0.048 1.749,-0.048 0.599,0 1.222,0 1.822,0 0.599,0 1.222,0 1.797,0 0.623,0 1.27,0.048 1.869,0.048 0.216,0 0.455,0 0.455,-0.432 0,-0.239 -0.167,-0.239 -0.718,-0.239 -0.552,0 -0.815,0 -1.366,-0.024 -0.624,-0.072 -0.815,-0.144 -0.815,-0.48 0,-0.024 0,-0.12 0.096,-0.455 l 2.851,-11.383 z"
             id="path22" />
          <path
             style="fill:#000000"
             inkscape:connector-curvature="0"
             d="m 366.426,243.828 c 0,-0.407 -0.024,-0.431 -0.455,-0.431 -0.959,0.958 -2.349,0.982 -2.972,0.982 l 0,0.527 c 0.359,0 1.366,0 2.205,-0.407 l 0,7.717 c 0,0.503 0,0.695 -1.51,0.695 l -0.575,0 0,0.527 c 0.263,0 2.133,-0.048 2.684,-0.048 0.479,0 2.372,0.048 2.708,0.048 l 0,-0.527 -0.575,0 c -1.51,0 -1.51,-0.192 -1.51,-0.695 l 0,-8.388 z"
             id="path24" />
        </g>
      </g>
      <g
         clip-path="url(#7fc8751eb790)"
         id="g26">
        <clipPath
           id="clipPath3217">
          <path
             style="fill:#000000;fill-opacity:0.35"
             inkscape:connector-curvature="0"
             d="m 294.218,311.948 20.706,0 0,-18.908 -20.706,0 z"
             id="path3219" />
        </clipPath>
        <g
           clip-path="url(#7fc87434a610)"
           id="g31">
          <clipPath
             id="clipPath3222">
            <path
               style="fill:#000000;fill-opacity:0.35"
               inkscape:connector-curvature="0"
               d="m 294.218,311.048 20.7,0 0,-18 -20.7,0 z"
               id="path3224" />
          </clipPath>
          <path
             style="fill:#000000"
             inkscape:connector-curvature="0"
             d="m 303.468,294.79 c 0.144,-0.599 0.24,-0.743 0.504,-0.791 0.191,-0.048 0.886,-0.048 1.342,-0.048 2.18,0 3.139,0.072 3.139,1.749 0,0.336 -0.096,1.175 -0.168,1.726 -0.024,0.096 -0.072,0.335 -0.072,0.407 0,0.12 0.072,0.288 0.264,0.288 0.24,0 0.264,-0.192 0.312,-0.503 l 0.575,-3.739 c 0.024,-0.072 0.048,-0.287 0.048,-0.359 0,-0.24 -0.216,-0.24 -0.575,-0.24 l -11.911,0 c -0.527,0 -0.527,0.024 -0.695,0.431 l -1.27,3.787 c -0.024,0.024 -0.144,0.335 -0.144,0.383 0,0.12 0.12,0.24 0.264,0.24 0.215,0 0.239,-0.12 0.359,-0.455 1.175,-3.332 1.726,-3.715 4.889,-3.715 l 0.839,0 c 0.599,0 0.599,0.072 0.599,0.264 0,0.119 -0.048,0.383 -0.072,0.431 l -2.876,11.479 c -0.191,0.791 -0.263,1.031 -2.564,1.031 -0.767,0 -0.887,0 -0.887,0.407 0,0.24 0.216,0.24 0.36,0.24 0.575,0 1.174,-0.048 1.749,-0.048 0.599,0 1.222,0 1.822,0 0.599,0 1.222,0 1.797,0 0.623,0 1.27,0.048 1.869,0.048 0.216,0 0.455,0 0.455,-0.432 0,-0.239 -0.167,-0.239 -0.718,-0.239 -0.552,0 -0.815,0 -1.366,-0.024 -0.624,-0.072 -0.815,-0.144 -0.815,-0.48 0,-0.024 0,-0.12 0.096,-0.455 l 2.851,-11.383 z"
             id="path36" />
          <path
             style="fill:#000000"
             inkscape:connector-curvature="0"
             d="m 314.54,308.306 -0.503,0 c -0.048,0.311 -0.192,1.222 -0.408,1.366 -0.119,0.096 -1.27,0.096 -1.485,0.096 l -2.78,0 c 1.581,-1.414 2.109,-1.846 3.019,-2.541 1.127,-0.886 2.157,-1.845 2.157,-3.283 0,-1.821 -1.606,-2.947 -3.523,-2.947 -1.893,0 -3.163,1.318 -3.163,2.708 0,0.79 0.647,0.862 0.815,0.862 0.359,0 0.791,-0.263 0.791,-0.814 0,-0.264 -0.096,-0.791 -0.887,-0.791 0.479,-1.079 1.51,-1.414 2.205,-1.414 1.509,0 2.3,1.174 2.3,2.396 0,1.318 -0.934,2.373 -1.414,2.924 l -3.642,3.595 c -0.168,0.143 -0.168,0.167 -0.168,0.575 l 6.231,0 0.455,-2.732 z"
             id="path38" />
        </g>
      </g>
      <g
         id="g40">
        <g
           id="g42">
          <path
             style="fill:none;stroke:#007efd;stroke-linecap:round;stroke-dasharray:2"
             inkscape:connector-curvature="0"
             d="m 613.059,315.603 c 6,0 10.23,4.069 12,8.4 3.165,7.744 3.17,17.241 2.1,26.1 -0.82,6.786 -3.103,13.861 -7.5,18.6 -3.688,3.976 -6.6,5.4 -15.6,6.3"
             id="path44" />
          <path
             style="fill:none;stroke:#000100;stroke-width:1.5"
             inkscape:connector-curvature="0"
             d="m 791.859,299.703 c 0,43.079 -65.277,78 -145.8,78 -80.523,0 -145.8,-34.921 -145.8,-78 0,-43.078 65.277,-78 145.8,-78 80.523,0 145.8,34.922 145.8,78 z"
             id="path46" />
          <g
             id="g48">
            <path
               style="fill:none;stroke:#000100;stroke-width:1.5;stroke-linecap:round"
               inkscape:connector-curvature="0"
               d="m 562.659,285.373 c 22.2,22.13 47.736,32.871 80.4,33.53 24.876,0.503 48.6,-4.2 62.4,-26.4"
               id="path50" />
            <path
               style="fill:none;stroke:#000100;stroke-width:1.5;stroke-linecap:round"
               inkscape:connector-curvature="0"
               d="m 595.059,308.424 c 2.4,-13.06 26.217,-30.577 42,-30.6 16.977,-0.025 43.2,9.879 49.2,28.8"
               id="path52" />
          </g>
          <path
             style="fill:none;stroke:#007efd;stroke-linecap:round"
             inkscape:connector-curvature="0"
             d="m 603.759,374.103 c -13.8,-10.8 -12.533,-20.4 -12.3,-32.4 0.187,-9.63 8.1,-23.1 20.7,-26.1"
             id="path54" />
          <path
             style="fill:none;stroke:#ff0004"
             inkscape:connector-curvature="0"
             d="m 764.859,297.078 c 0,26.386 -52.785,47.775 -117.9,47.775 -65.114,0 -117.9,-21.389 -117.9,-47.775 0,-26.385 52.786,-47.775 117.9,-47.775 65.115,0 117.9,21.39 117.9,47.775 z"
             id="path56" />
        </g>
        <g
           clip-path="url(#7fc8745edfa0)"
           id="g58">
          <clipPath
             id="clipPath3238">
            <path
               style="fill:#000000;fill-opacity:0.35"
               inkscape:connector-curvature="0"
               d="m 572.674,366.203 19.795,0 0,-18.908 -19.795,0 z"
               id="path3240" />
          </clipPath>
          <g
             clip-path="url(#7fc8745bd8f0)"
             id="g63">
            <clipPath
               id="clipPath3243">
              <path
                 style="fill:#000000;fill-opacity:0.35"
                 inkscape:connector-curvature="0"
                 d="m 572.674,365.303 19.8,0 0,-18 -19.8,0 z"
                 id="path3245" />
            </clipPath>
            <path
               style="fill:#000000"
               inkscape:connector-curvature="0"
               d="m 581.924,349.045 c 0.144,-0.599 0.24,-0.743 0.504,-0.791 0.191,-0.048 0.886,-0.048 1.342,-0.048 2.18,0 3.139,0.072 3.139,1.749 0,0.336 -0.096,1.175 -0.168,1.726 -0.024,0.096 -0.072,0.335 -0.072,0.407 0,0.12 0.072,0.288 0.264,0.288 0.24,0 0.264,-0.192 0.311,-0.504 l 0.576,-3.738 c 0.024,-0.072 0.048,-0.288 0.048,-0.359 0,-0.24 -0.216,-0.24 -0.576,-0.24 l -11.91,0 c -0.527,0 -0.527,0.024 -0.695,0.431 l -1.27,3.787 c -0.024,0.024 -0.144,0.335 -0.144,0.383 0,0.12 0.12,0.24 0.264,0.24 0.215,0 0.239,-0.12 0.359,-0.456 1.174,-3.331 1.726,-3.714 4.889,-3.714 l 0.839,0 c 0.599,0 0.599,0.072 0.599,0.264 0,0.119 -0.048,0.383 -0.072,0.431 l -2.876,11.479 c -0.192,0.791 -0.263,1.03 -2.564,1.03 -0.767,0 -0.887,0 -0.887,0.408 0,0.24 0.216,0.24 0.36,0.24 0.575,0 1.174,-0.048 1.749,-0.048 0.599,0 1.222,0 1.821,0 0.6,0 1.223,0 1.798,0 0.623,0 1.27,0.048 1.869,0.048 0.216,0 0.455,0 0.455,-0.432 0,-0.239 -0.167,-0.239 -0.719,-0.239 -0.551,0 -0.814,0 -1.366,-0.024 -0.623,-0.072 -0.814,-0.144 -0.814,-0.48 0,-0.024 0,-0.12 0.095,-0.455 l 2.852,-11.383 z"
               id="path68" />
            <path
               style="fill:#000000"
               inkscape:connector-curvature="0"
               d="m 590.432,355.683 c 0,-0.407 -0.024,-0.431 -0.456,-0.431 -0.958,0.958 -2.348,0.982 -2.971,0.982 l 0,0.527 c 0.359,0 1.366,0 2.205,-0.407 l 0,7.717 c 0,0.503 0,0.695 -1.51,0.695 l -0.575,0 0,0.527 c 0.263,0 2.132,-0.048 2.684,-0.048 0.479,0 2.372,0.048 2.708,0.048 l 0,-0.527 -0.575,0 c -1.51,0 -1.51,-0.192 -1.51,-0.695 l 0,-8.388 z"
               id="path70" />
          </g>
        </g>
        <g
           clip-path="url(#7fc8745f78f0)"
           id="g72">
          <clipPath
             id="clipPath3250">
            <path
               style="fill:#000000;fill-opacity:0.35"
               inkscape:connector-curvature="0"
               d="m 571.887,253.841 20.706,0 0,-18.909 -20.706,0 z"
               id="path3252" />
          </clipPath>
          <g
             clip-path="url(#7fc87431a8d0)"
             id="g77">
            <clipPath
               id="clipPath3255">
              <path
                 style="fill:#000000;fill-opacity:0.35"
                 inkscape:connector-curvature="0"
                 d="m 571.887,252.941 20.7,0 0,-18 -20.7,0 z"
                 id="path3257" />
            </clipPath>
            <path
               style="fill:#000000"
               inkscape:connector-curvature="0"
               d="m 581.138,236.682 c 0.143,-0.599 0.239,-0.743 0.503,-0.791 0.192,-0.048 0.887,-0.048 1.342,-0.048 2.181,0 3.139,0.072 3.139,1.75 0,0.335 -0.095,1.174 -0.167,1.725 -0.024,0.096 -0.072,0.336 -0.072,0.407 0,0.12 0.072,0.288 0.263,0.288 0.24,0 0.264,-0.192 0.312,-0.503 l 0.575,-3.739 c 0.024,-0.072 0.048,-0.287 0.048,-0.359 0,-0.24 -0.216,-0.24 -0.575,-0.24 l -11.911,0 c -0.527,0 -0.527,0.024 -0.695,0.431 l -1.27,3.787 c -0.024,0.024 -0.144,0.335 -0.144,0.383 0,0.12 0.12,0.24 0.264,0.24 0.216,0 0.24,-0.12 0.36,-0.455 1.174,-3.331 1.725,-3.715 4.888,-3.715 l 0.839,0 c 0.599,0 0.599,0.072 0.599,0.264 0,0.12 -0.048,0.383 -0.072,0.431 l -2.875,11.479 c -0.192,0.791 -0.264,1.031 -2.565,1.031 -0.767,0 -0.886,0 -0.886,0.407 0,0.24 0.215,0.24 0.359,0.24 0.575,0 1.174,-0.048 1.75,-0.048 0.599,0 1.222,0 1.821,0 0.599,0 1.222,0 1.797,0 0.623,0 1.27,0.048 1.869,0.048 0.216,0 0.456,0 0.456,-0.432 0,-0.239 -0.168,-0.239 -0.719,-0.239 -0.551,0 -0.815,0 -1.366,-0.024 -0.623,-0.072 -0.815,-0.144 -0.815,-0.48 0,-0.023 0,-0.119 0.096,-0.455 l 2.852,-11.383 z"
               id="path82" />
            <path
               style="fill:#000000"
               inkscape:connector-curvature="0"
               d="m 592.209,250.198 -0.503,0 c -0.048,0.312 -0.192,1.222 -0.407,1.366 -0.12,0.096 -1.27,0.096 -1.486,0.096 l -2.78,0 c 1.582,-1.414 2.109,-1.845 3.02,-2.54 1.126,-0.887 2.156,-1.846 2.156,-3.284 0,-1.821 -1.605,-2.947 -3.522,-2.947 -1.894,0 -3.164,1.318 -3.164,2.708 0,0.791 0.647,0.863 0.815,0.863 0.359,0 0.791,-0.264 0.791,-0.815 0,-0.264 -0.096,-0.791 -0.887,-0.791 0.479,-1.079 1.51,-1.414 2.205,-1.414 1.51,0 2.301,1.174 2.301,2.396 0,1.319 -0.935,2.373 -1.414,2.924 l -3.643,3.595 c -0.168,0.144 -0.168,0.168 -0.168,0.575 l 6.231,0 0.455,-2.732 z"
               id="path84" />
          </g>
        </g>
      </g>
    </g>
  </g>
</svg>
