<?xml version="1.0" encoding="UTF-8" standalone="no"?>
<!-- Created with Inkscape (http://www.inkscape.org/) -->

<svg
   xmlns:dc="http://purl.org/dc/elements/1.1/"
   xmlns:cc="http://creativecommons.org/ns#"
   xmlns:rdf="http://www.w3.org/1999/02/22-rdf-syntax-ns#"
   xmlns:svg="http://www.w3.org/2000/svg"
   xmlns="http://www.w3.org/2000/svg"
   xmlns:sodipodi="http://sodipodi.sourceforge.net/DTD/sodipodi-0.dtd"
   xmlns:inkscape="http://www.inkscape.org/namespaces/inkscape"
   width="825.875"
   height="441.75204"
   id="svg3797"
   version="1.1"
   inkscape:version="0.48.4 r9939"
   sodipodi:docname="New document 11">
  <defs
     id="defs3799" />
  <sodipodi:namedview
     id="base"
     pagecolor="#ffffff"
     bordercolor="#666666"
     borderopacity="1.0"
     inkscape:pageopacity="0.0"
     inkscape:pageshadow="2"
     inkscape:zoom="2.0463145"
     inkscape:cx="412.9375"
     inkscape:cy="220.87602"
     inkscape:document-units="px"
     inkscape:current-layer="layer1"
     showgrid="false"
     fit-margin-top="0"
     fit-margin-left="0"
     fit-margin-right="0"
     fit-margin-bottom="0"
     inkscape:window-width="1855"
     inkscape:window-height="1056"
     inkscape:window-x="65"
     inkscape:window-y="24"
     inkscape:window-maximized="1" />
  <metadata
     id="metadata3802">
    <rdf:RDF>
      <cc:Work
         rdf:about="">
        <dc:format>image/svg+xml</dc:format>
        <dc:type
           rdf:resource="http://purl.org/dc/dcmitype/StillImage" />
        <dc:title></dc:title>
      </cc:Work>
    </rdf:RDF>
  </metadata>
  <g
     inkscape:label="Layer 1"
     inkscape:groupmode="layer"
     id="layer1"
     transform="translate(967.23245,-299.30572)">
    <g
       transform="translate(-1035.5137,-827.8485)"
       id="g104">
      <path
         style="fill:none;stroke:#434343;stroke-width:3"
         inkscape:connector-curvature="0"
         d="m 479.938,1568.91 0,-72"
         id="path106" />
      <path
         style="fill:none;stroke:#000000;stroke-width:2;stroke-dasharray:2"
         inkscape:connector-curvature="0"
         d="m 251.838,1376.19 -179.8981,177.52 638.6791,0 179.897,-177.52 z"
         id="path108" />
      <path
         style="fill:#d22d05;fill-opacity:0.37000002;stroke:#000000;stroke-width:3"
         inkscape:connector-curvature="0"
         d="m 251.838,1227.2 -179.8981,177.52 638.6791,0 179.897,-177.52 z"
         id="path110" />
      <g
         id="g112">
        <path
           style="fill:#cfb412;fill-opacity:0.68999999;stroke:#000000;stroke-width:3.20297003"
           inkscape:connector-curvature="0"
           d="m 560.469,1356.22 c -77.607,23.32 -175.998,23.53 -219.761,0.46 -43.764,-23.08 -16.329,-60.69 61.279,-84.01 77.607,-23.33 175.998,-23.53 219.762,-0.46 43.763,23.07 16.328,60.68 -61.28,84.01 z"
           id="path114" />
        <path
           style="fill:none;stroke:#000000;stroke-width:3.20297003"
           inkscape:connector-curvature="0"
           d="m 546.961,1353.58 c 4.485,0.97 8.989,1.85 13.508,2.64 -3.395,3.19 -6.856,6.31 -10.374,9.36"
           id="path116" />
      </g>
      <path
         style="fill:none;stroke:#000000;stroke-width:2"
         inkscape:connector-curvature="0"
         d="m 71.9399,1404.72 0,148.99"
         id="path118" />
      <path
         style="fill:#cfb412;fill-opacity:0.95999995"
         inkscape:connector-curvature="0"
         d="m 502.601,1325.71 c -18.692,5.62 -42.777,5.46 -53.796,-0.35 -11.019,-5.81 -4.8,-15.07 13.891,-20.69 18.692,-5.62 42.777,-5.46 53.796,0.35 11.019,5.81 4.8,15.07 -13.891,20.69 z"
         id="path120" />
      <g
         id="g122">
        <g
           id="g124">
          <path
             style="fill:#a48e0f;stroke:#000000;stroke-width:2.30920005"
             inkscape:connector-curvature="0"
             d="m 496.01,1322.24 c -12.98,3.9 -29.706,3.79 -37.358,-0.25 -7.652,-4.03 -3.333,-10.46 9.647,-14.36 12.98,-3.91 29.706,-3.8 37.358,0.24 7.652,4.03 3.333,10.46 -9.647,14.37 z"
             id="path126" />
          <path
             style="fill:none;stroke:#000000;stroke-width:2.30920005"
             inkscape:connector-curvature="0"
             d="m 484.966,1319.16 c 3.575,1.37 7.272,2.42 11.044,3.08 -2.977,2.8 -6.264,5.26 -9.713,7.46"
             id="path128" />
        </g>
        <path
           style="fill:#515151"
           inkscape:connector-curvature="0"
           d="m 488.402,1318.73 c -6.923,2.08 -15.843,2.03 -19.924,-0.13 -4.081,-2.15 -1.778,-5.58 5.145,-7.66 6.923,-2.08 15.843,-2.02 19.924,0.13 4.081,2.15 1.778,5.58 -5.145,7.66 z"
           id="path130" />
      </g>
      <path
         style="fill:#949494;stroke:#000000"
         inkscape:connector-curvature="0"
         d="m 495.591,1497.8 c -12.98,3.9 -29.706,3.79 -37.358,-0.24 -7.653,-4.03 -3.334,-10.47 9.646,-14.37 12.981,-3.9 29.706,-3.79 37.359,0.24 7.652,4.04 3.333,10.47 -9.647,14.37 z"
         id="path132" />
      <path
         style="fill:#515151"
         inkscape:connector-curvature="0"
         d="m 488.983,1494.3 c -6.923,2.08 -15.843,2.02 -19.925,-0.13 -4.081,-2.15 -1.777,-5.58 5.145,-7.66 6.923,-2.08 15.844,-2.03 19.925,0.12 4.081,2.16 1.778,5.59 -5.145,7.67 z"
         id="path134" />
      <path
         style="fill:none;stroke:#000000;stroke-width:2"
         inkscape:connector-curvature="0"
         d="m 709.432,1405.44 0,148.99"
         id="path136" />
      <path
         style="fill:none;stroke:#000000;stroke-width:2"
         inkscape:connector-curvature="0"
         d="m 890.23,1228.23 0,148.98"
         id="path138" />
      <path
         style="fill:none;stroke:#000000;stroke-width:2"
         inkscape:connector-curvature="0"
         d="M 890.23,1375.84 709.432,1555.92"
         id="path140" />
      <path
         style="fill:none;stroke:#000000;stroke-width:2"
         inkscape:connector-curvature="0"
         d="m 71.9399,1552.71 637.4921,2.21"
         id="path142" />
      <path
         style="fill:none;stroke:#000000;stroke-dasharray:2"
         inkscape:connector-curvature="0"
         d="m 251.838,1376.19 0,-148.99"
         id="path144" />
      <g
         id="g146">
        <path
           style="fill:none;stroke:#434343;stroke-width:3"
           inkscape:connector-curvature="0"
           d="m 479.938,1316.91 0,-142.17"
           id="path148" />
        <path
           style="fill:none;stroke:#434343;stroke-width:3"
           inkscape:connector-curvature="0"
           d="m 473.938,1186.74 6,-12 6,12"
           id="path150" />
      </g>
      <path
         style="fill:none;stroke:#434343;stroke-dasharray:2"
         inkscape:connector-curvature="0"
         d="m 479.938,1496.91 0,-180"
         id="path152" />
      <text
         style="font-size:30px;text-anchor:middle;font-family:American Typewriter"
         font-size="30"
         transform="matrix(0.6,0,0,0.6,751.664,1201.4)"
         xml:space="preserve"
         id="text154"><tspan
           id="tspan156">s-wave superconductor</tspan></text>
      <path
         style="fill:none;stroke:#000000"
         inkscape:connector-curvature="0"
         d="m 565.81,1294.31 77.324,-92.53"
         id="path158" />
      <text
         style="font-size:30px;text-anchor:middle;font-family:American Typewriter"
         font-size="30"
         transform="matrix(0.6,0,0,0.6,133.889,1192.38)"
         xml:space="preserve"
         id="text160"><tspan
           id="tspan162">magnet</tspan></text>
      <path
         style="fill:none;stroke:#000000"
         inkscape:connector-curvature="0"
         d="m 175.363,1204.63 112.836,73.94"
         id="path164" />
      <text
         style="font-size:30px;text-anchor:middle;font-family:American Typewriter"
         font-size="30"
         transform="matrix(0.6,0,0,0.6,635.366,1537.95)"
         xml:space="preserve"
         id="text166"><tspan
           id="tspan168">3D TI slab</tspan></text>
      <text
         style="font-size:30px;text-anchor:middle;font-family:American Typewriter"
         font-size="30"
         transform="matrix(0.6,0,0,0.6,655.841,1140.83)"
         xml:space="preserve"
         id="text170"><tspan
           id="tspan172">magnetic field line</tspan></text>
      <path
         style="fill:none;stroke:#000000"
         inkscape:connector-curvature="0"
         d="m 496.119,1204.63 69.691,-58.36"
         id="path174" />
    </g>
  </g>
</svg>
