<?xml version="1.0" encoding="UTF-8" standalone="no"?>
<!-- Created with Inkscape (http://www.inkscape.org/) -->

<svg
   xmlns:dc="http://purl.org/dc/elements/1.1/"
   xmlns:cc="http://creativecommons.org/ns#"
   xmlns:rdf="http://www.w3.org/1999/02/22-rdf-syntax-ns#"
   xmlns:svg="http://www.w3.org/2000/svg"
   xmlns="http://www.w3.org/2000/svg"
   xmlns:sodipodi="http://sodipodi.sourceforge.net/DTD/sodipodi-0.dtd"
   xmlns:inkscape="http://www.inkscape.org/namespaces/inkscape"
   width="726.47247"
   height="441.91348"
   id="svg3313"
   version="1.1"
   inkscape:version="0.91 r13725"
   sodipodi:docname="qsh_josephson_ring.svg">
  <defs
     id="defs3315" />
  <sodipodi:namedview
     id="base"
     pagecolor="#ffffff"
     bordercolor="#666666"
     borderopacity="1.0"
     inkscape:pageopacity="0.0"
     inkscape:pageshadow="2"
     inkscape:zoom="1.7275421"
     inkscape:cx="191.29905"
     inkscape:cy="232.45278"
     inkscape:document-units="px"
     inkscape:current-layer="layer1"
     showgrid="false"
     fit-margin-top="0"
     fit-margin-left="0"
     fit-margin-right="0"
     fit-margin-bottom="0"
     inkscape:window-width="1855"
     inkscape:window-height="1056"
     inkscape:window-x="65"
     inkscape:window-y="24"
     inkscape:window-maximized="1"
     showguides="false" />
  <metadata
     id="metadata3318">
    <rdf:RDF>
      <cc:Work
         rdf:about="">
        <dc:format>image/svg+xml</dc:format>
        <dc:type
           rdf:resource="http://purl.org/dc/dcmitype/StillImage" />
        <dc:title />
      </cc:Work>
    </rdf:RDF>
  </metadata>
  <g
     inkscape:label="Layer 1"
     inkscape:groupmode="layer"
     id="layer1"
     transform="translate(-8.8077433,-305.22698)">
    <path
       style="fill:#cfb412;fill-opacity:0.68999999;stroke:#000000;stroke-width:2"
       inkscape:connector-curvature="0"
       d="m 261.7968,713.79034 c 111.124,-25.197 180.782,-135.707 155.586,-246.831 -25.197,-111.1237 -135.707,-180.7817 -246.831,-155.5852 -111.123996,25.1965 -180.781596,135.7062 -155.585096,246.8302 18.2549,80.51 82.7441,142.387 163.940096,157.299"
       id="path224" />
    <path
       id="path228"
       d="m 178.2968,592.33634 83.5,0 0,123.167 -83.5,0 z"
       inkscape:connector-curvature="0"
       style="fill:#ffffff" />
    <path
       id="path230"
       d="m 178.7968,714.22234 -0.5,-92.356"
       inkscape:connector-curvature="0"
       style="fill:#ffffff;fill-opacity:0.21000001;stroke:#000000;stroke-width:2" />
    <path
       id="path232"
       d="m 178.2968,621.86634 c -60.633,-23.135 -91.031996,-91.042 -67.898,-151.675 23.135,-60.634 91.042,-91.033 151.675,-67.898 60.634,23.134 91.033,91.041 67.898,151.675 -11.986,31.416 -36.857,56.191 -68.319,68.058"
       inkscape:connector-curvature="0"
       style="fill:#ffffff;stroke:#000000;stroke-width:2" />
    <path
       style="fill:#bcbcbc;fill-opacity:0.43000004;stroke:#000000"
       inkscape:connector-curvature="0"
       d="m 382.6608,522.87034 c -6.947,89.2 -84.89,155.879 -174.09,148.931 -89.2,-6.947 -155.878996,-84.89 -148.930996,-174.09 6.947,-89.2 84.889996,-155.8787 174.089996,-148.9314 89.2,6.9474 155.879,84.8904 148.931,174.0904 z"
       id="path226" />
    <path
       id="path234"
       d="m 261.6528,622.02634 0.144,92.196"
       inkscape:connector-curvature="0"
       style="fill:#ffffff;fill-opacity:0.21000001;stroke:#000000;stroke-width:2" />
    <path
       id="path236"
       d="m 301.1748,510.87534 c 0,-44.735 -36.265,-81 -81,-81 -44.735,0 -81,36.265 -81,81 0,44.735 36.265,81 81,81 44.735,0 81,-36.265 81,-81 z"
       inkscape:connector-curvature="0"
       style="fill:#ffffff;stroke:#000000" />
    <path
       id="path238"
       d="m 219.0968,518.66534 c 4.441,-0.319 7.604,-3.003 7.604,-5.879 0,-2.972 -3.259,-5.592 -7.604,-5.911 l 0,-1.63 c 0,-0.958 0,-1.374 2.716,-1.374 l 0.958,0 0,-0.862 c -1.022,0.063 -3.674,0.063 -4.857,0.063 -1.15,0 -3.802,0 -4.856,-0.063 l 0,0.862 0.958,0 c 2.716,0 2.716,0.384 2.716,1.374 l 0,1.63 c -4.377,0.415 -7.445,3.035 -7.445,5.879 0,2.94 3.163,5.496 7.445,5.911 l 0,1.598 c 0,0.991 0,1.374 -2.716,1.374 l -0.958,0 0,0.895 c 1.054,-0.096 3.674,-0.096 4.856,-0.096 1.151,0 3.835,0 4.857,0.096 l 0,-0.895 -0.958,0 c -2.716,0 -2.716,-0.351 -2.716,-1.374 l 0,-1.598 z m -2.365,-0.639 c -4.058,-0.543 -4.569,-3.482 -4.569,-5.24 0,-1.502 0.287,-4.697 4.569,-5.272 l 0,10.512 z m 2.365,-10.544 c 3.962,0.447 4.761,3.099 4.761,5.272 0,1.726 -0.448,4.761 -4.761,5.272 l 0,-10.544"
       inkscape:connector-curvature="0"
       style="fill:#000000" />
    <g
       id="g240"
       transform="translate(-48.110196,273.96034)">
      <path
         id="path242"
         d="m 355.692,236.7 c 0,-49.32 -39.982,-89.303 -89.303,-89.303 -49.32,0 -89.302,39.983 -89.302,89.303 0,49.32 39.982,89.302 89.302,89.302 49.321,0 89.303,-39.982 89.303,-89.302 z"
         inkscape:connector-curvature="0"
         style="fill:none;stroke:#ff0004;stroke-width:2" />
      <path
         id="path244"
         d="m 360.101,226.153 c -1.173,3.632 -2.745,7.118 -4.409,10.547 -1.67,-3.232 -3.413,-6.442 -5.526,-9.411"
         inkscape:connector-curvature="0"
         style="fill:none;stroke:#ff0004;stroke-width:2" />
    </g>
    <g
       id="g246"
       transform="translate(-48.110196,273.96034)">
      <path
         id="path248"
         d="m 359.872,236.915 c 0,-51.786 -41.981,-93.768 -93.768,-93.768 -51.786,0 -93.767,41.982 -93.767,93.768 0,51.787 41.981,93.768 93.767,93.768 51.787,0 93.768,-41.981 93.768,-93.768 z"
         inkscape:connector-curvature="0"
         style="fill:none;stroke:#007efd;stroke-width:2" />
      <path
         id="path250"
         d="m 364.31,247.464 c -1.231,-3.614 -2.733,-7.134 -4.438,-10.549 -1.629,3.251 -3.439,6.414 -5.497,9.413"
         inkscape:connector-curvature="0"
         style="fill:none;stroke:#007efd;stroke-width:2" />
    </g>
    <g
       id="g252"
       transform="translate(-48.110196,273.96034)">
      <path
         id="path254"
         d="m 229.174,384.133 c 25.343,6.357 51.898,6.065 77.094,-0.849"
         inkscape:connector-curvature="0"
         style="fill:none;stroke:#ff0004;stroke-width:2" />
      <path
         id="path256"
         d="m 297.515,390.514 c 3.034,-2.265 5.92,-4.721 8.753,-7.23 -3.592,-0.739 -7.176,-1.54 -10.694,-2.58"
         inkscape:connector-curvature="0"
         style="fill:none;stroke:#ff0004;stroke-width:2" />
    </g>
    <g
       id="g258"
       transform="translate(-48.110196,273.96034)">
      <path
         id="path260"
         d="m 229.174,377.795 c 26.015,6.724 53.371,6.218 79.119,-1.464"
         inkscape:connector-curvature="0"
         style="fill:none;stroke:#007efd;stroke-width:2" />
      <path
         id="path262"
         d="m 237.973,384.874 c -3.015,-2.255 -5.951,-4.616 -8.799,-7.079 3.605,-0.784 7.181,-1.695 10.72,-2.735"
         inkscape:connector-curvature="0"
         style="fill:none;stroke:#007efd;stroke-width:2" />
    </g>
    <g
       id="g264"
       transform="translate(-48.110196,273.96034)">
      <text
         id="text266"
         xml:space="preserve"
         transform="matrix(0.6,0,0,0.6,565.181,361.644)"
         font-size="30"
         style="font-size:30px;font-family:'American Typewriter';text-anchor:middle"><tspan
           id="tspan268">superconductor</tspan></text>
      <path
         id="path270"
         d="m 418.174,340.694 69.932,15.325"
         inkscape:connector-curvature="0"
         style="fill:none;stroke:#000000" />
    </g>
    <text
       id="text272"
       xml:space="preserve"
       font-size="30"
       style="font-size:18px;font-family:'American Typewriter';text-anchor:middle"
       x="455.2948"
       y="743.39636"><tspan
         id="tspan274">Josephson junction on the helical edge</tspan></text>
    <path
       id="path276"
       d="m 212.1748,684.59634 64.503,54.507"
       inkscape:connector-curvature="0"
       style="fill:none;stroke:#000000" />
    <text
       id="text278"
       xml:space="preserve"
       font-size="30"
       style="font-size:18px;font-family:'American Typewriter';text-anchor:middle"
       x="218.1508"
       y="490.73035"><tspan
         id="tspan280">magnetic flux</tspan></text>
    <text
       id="text282"
       xml:space="preserve"
       font-size="30"
       style="font-size:18px;font-family:'American Typewriter';text-anchor:middle"
       x="610.75677"
       y="553.34137"><tspan
         id="tspan284">quantum spin Hall insulator</tspan></text>
    <path
       id="path286"
       d="m 322.0728,536.14634 155.6,15.325"
       inkscape:connector-curvature="0"
       style="fill:none;stroke:#000000" />
  </g>
</svg>
