<?xml version="1.0" encoding="UTF-8" standalone="no"?>
<!-- Created with Inkscape (http://www.inkscape.org/) -->

<svg
   xmlns:dc="http://purl.org/dc/elements/1.1/"
   xmlns:cc="http://creativecommons.org/ns#"
   xmlns:rdf="http://www.w3.org/1999/02/22-rdf-syntax-ns#"
   xmlns:svg="http://www.w3.org/2000/svg"
   xmlns="http://www.w3.org/2000/svg"
   xmlns:sodipodi="http://sodipodi.sourceforge.net/DTD/sodipodi-0.dtd"
   xmlns:inkscape="http://www.inkscape.org/namespaces/inkscape"
   width="760.07874"
   height="319.59177"
   id="svg9291"
   version="1.1"
   inkscape:version="0.48.4 r9939"
   sodipodi:docname="New document 28">
  <sodipodi:namedview
     id="base"
     pagecolor="#ffffff"
     bordercolor="#666666"
     borderopacity="1.0"
     inkscape:pageopacity="0.0"
     inkscape:pageshadow="2"
     inkscape:zoom="1.2215568"
     inkscape:cx="345.79625"
     inkscape:cy="311.7053"
     inkscape:document-units="px"
     inkscape:current-layer="layer1"
     showgrid="false"
     inkscape:window-width="1855"
     inkscape:window-height="1056"
     inkscape:window-x="65"
     inkscape:window-y="24"
     inkscape:window-maximized="1"
     fit-margin-top="0"
     fit-margin-left="0"
     fit-margin-right="0"
     fit-margin-bottom="0" />
  <defs
     id="defs9293">
    <clipPath
       id="7fc874538f30">
      <path
         style="fill:#000000;fill-opacity:0.35"
         inkscape:connector-curvature="0"
         d="m 1217.37,1196.72 35.19,0 0,-20.79 -35.19,0 z"
         id="path201" />
    </clipPath>
    <clipPath
       id="7fc87413c1a0">
      <path
         style="fill:#000000;fill-opacity:0.35"
         inkscape:connector-curvature="0"
         d="m 1217.37,1196.72 35.2,0 0,-20.8 -35.2,0 z"
         id="path206" />
    </clipPath>
    <clipPath
       id="7fc8745832e0">
      <path
         style="fill:#000000;fill-opacity:0.35"
         inkscape:connector-curvature="0"
         d="m 942.525,1320.74 11.205,0 0,-16.8 -11.205,0 z"
         id="path217" />
    </clipPath>
    <clipPath
       id="7fc8745566f0">
      <path
         style="fill:#000000;fill-opacity:0.35"
         inkscape:connector-curvature="0"
         d="m 942.525,1320.74 11.2,0 0,-16.8 -11.2,0 z"
         id="path222" />
    </clipPath>
    <clipPath
       id="7fc8745733a0">
      <path
         style="fill:#000000;fill-opacity:0.35"
         inkscape:connector-curvature="0"
         d="m 1148.23,1320.89 24.01,0 0,-17.59 -24.01,0 z"
         id="path229" />
    </clipPath>
    <clipPath
       id="7fc874569980">
      <path
         style="fill:#000000;fill-opacity:0.35"
         inkscape:connector-curvature="0"
         d="m 1148.23,1320.89 24,0 0,-17.6 -24,0 z"
         id="path234" />
    </clipPath>
    <clipPath
       id="7fc87457d0f0">
      <path
         style="fill:#000000;fill-opacity:0.35"
         inkscape:connector-curvature="0"
         d="m 1200.96,1032.97 17.6,0 0,-17.59 -17.6,0 z"
         id="path241" />
    </clipPath>
    <clipPath
       id="7fc874163570">
      <path
         style="fill:#000000;fill-opacity:0.35"
         inkscape:connector-curvature="0"
         d="m 1200.96,1032.97 17.6,0 0,-17.6 -17.6,0 z"
         id="path246" />
    </clipPath>
    <clipPath
       id="7fc8745e5e70">
      <path
         style="fill:#000000;fill-opacity:0.35"
         inkscape:connector-curvature="0"
         d="m 855.635,1031.19 57.6,0 0,-24.79 -57.6,0 z"
         id="path253" />
    </clipPath>
    <clipPath
       id="7fc8745b4a20">
      <path
         style="fill:#000000;fill-opacity:0.35"
         inkscape:connector-curvature="0"
         d="m 855.635,1031.19 57.6,0 0,-24.8 -57.6,0 z"
         id="path258" />
    </clipPath>
    <clipPath
       id="7fc875111660">
      <path
         style="fill:#000000;fill-opacity:0.35"
         inkscape:connector-curvature="0"
         d="m 1226.31,1303.29 20.79,0 0,-16.81 -20.79,0 z"
         id="path273" />
    </clipPath>
    <clipPath
       id="7fc8745b4af0">
      <path
         style="fill:#000000;fill-opacity:0.35"
         inkscape:connector-curvature="0"
         d="m 1226.31,1303.29 20.8,0 0,-16.8 -20.8,0 z"
         id="path278" />
    </clipPath>
    <clipPath
       id="7fc87518b250">
      <path
         style="fill:#000000;fill-opacity:0.35"
         inkscape:connector-curvature="0"
         d="m 1020.69,1260.74 56.79,0 0,-16.8 -56.79,0 z"
         id="path287" />
    </clipPath>
    <clipPath
       id="7fc872466410">
      <path
         style="fill:#000000;fill-opacity:0.35"
         inkscape:connector-curvature="0"
         d="m 1020.69,1260.74 56.8,0 0,-16.8 -56.8,0 z"
         id="path292" />
    </clipPath>
    <clipPath
       id="7fc8741a01e0">
      <path
         style="fill:#000000;fill-opacity:0.35"
         inkscape:connector-curvature="0"
         d="m 1020.52,1177.59 56.01,0 0,-16.8 -56.01,0 z"
         id="path303" />
    </clipPath>
    <clipPath
       id="7fc874546b10">
      <path
         style="fill:#000000;fill-opacity:0.35"
         inkscape:connector-curvature="0"
         d="m 1020.52,1177.59 56,0 0,-16.8 -56,0 z"
         id="path308" />
    </clipPath>
    <clipPath
       id="7fc8751006c0">
      <path
         style="fill:#000000;fill-opacity:0.35"
         inkscape:connector-curvature="0"
         d="m 1020.4,1098.01 56.8,0 0,-16.81 -56.8,0 z"
         id="path319" />
    </clipPath>
    <clipPath
       id="7fc8751033b0">
      <path
         style="fill:#000000;fill-opacity:0.35"
         inkscape:connector-curvature="0"
         d="m 1020.4,1098.01 56.8,0 0,-16.8 -56.8,0 z"
         id="path324" />
    </clipPath>
    <clipPath
       id="7fc874167ff0">
      <path
         style="fill:#000000;fill-opacity:0.35"
         inkscape:connector-curvature="0"
         d="m 1053.69,1054.1 3.2,0 0,-22.41 -3.2,0 z"
         id="path335" />
    </clipPath>
    <clipPath
       id="7fc8745824a0">
      <path
         style="fill:#000000;fill-opacity:0.35"
         inkscape:connector-curvature="0"
         d="m 1053.69,1054.1 3.2,0 0,-22.4 -3.2,0 z"
         id="path340" />
    </clipPath>
    <clipPath
       id="7fc874547860">
      <path
         style="fill:#000000;fill-opacity:0.35"
         inkscape:connector-curvature="0"
         d="m 264.467,124.498 49.207,0 0,-30.0039 -49.207,0 z"
         id="path407" />
    </clipPath>
    <clipPath
       id="7fc8745bd8f0">
      <path
         style="fill:#000000;fill-opacity:0.35"
         inkscape:connector-curvature="0"
         d="m 264.467,124.498 49.2,0 0,-30.0001 -49.2,0 z"
         id="path412" />
    </clipPath>
    <clipPath
       id="7fc874180100">
      <path
         style="fill:#000000;fill-opacity:0.35"
         inkscape:connector-curvature="0"
         d="m 290.508,326.576 12.009,0 0,-16.003 -12.009,0 z"
         id="path439" />
    </clipPath>
    <clipPath
       id="7fc8745e29a0">
      <path
         style="fill:#000000;fill-opacity:0.35"
         inkscape:connector-curvature="0"
         d="m 290.508,326.576 12,0 0,-16 -12,0 z"
         id="path444" />
    </clipPath>
    <clipPath
       id="7fc8745de100">
      <path
         style="fill:#000000;fill-opacity:0.35"
         inkscape:connector-curvature="0"
         d="m 377.218,385.936 12.994,0 0,-10.997 -12.994,0 z"
         id="path451" />
    </clipPath>
    <clipPath
       id="7fc874156790">
      <path
         style="fill:#000000;fill-opacity:0.35"
         inkscape:connector-curvature="0"
         d="m 377.218,385.936 12,0 0,-11 -12,0 z"
         id="path456" />
    </clipPath>
  </defs>
  <metadata
     id="metadata9296">
    <rdf:RDF>
      <cc:Work
         rdf:about="">
        <dc:format>image/svg+xml</dc:format>
        <dc:type
           rdf:resource="http://purl.org/dc/dcmitype/StillImage" />
        <dc:title></dc:title>
      </cc:Work>
    </rdf:RDF>
  </metadata>
  <g
     inkscape:label="Layer 1"
     inkscape:groupmode="layer"
     id="layer1"
     transform="translate(104.75975,-531.15667)">
    <g
       id="g11198">
      <g
         id="g11137">
        <g
           id="g384"
           transform="translate(-190.63475,418.16197)">
          <path
             id="path386"
             d="m 410.86,383.585 c 0,14.682 -72.53,26.584 -162,26.584 -89.47,0 -162.0002,-11.902 -162.0002,-26.584 0,-14.682 72.5302,-26.584 162.0002,-26.584 89.47,0 162,11.902 162,26.584 z"
             inkscape:connector-curvature="0"
             style="fill:#bcbcbc;stroke:#000000;stroke-width:2" />
          <path
             id="path388"
             d="m 86.8598,167.07 324.0002,0 0,216.515 -324.0002,0 z"
             inkscape:connector-curvature="0"
             style="fill:#bcbcbc" />
          <path
             id="path390"
             d="m 86.8598,167.07 0,217.293"
             inkscape:connector-curvature="0"
             style="fill:none;stroke:#000000;stroke-width:2" />
          <path
             id="path392"
             d="m 410.86,383.585 0,-216.515"
             inkscape:connector-curvature="0"
             style="fill:none;stroke:#000000;stroke-width:2" />
          <path
             id="path394"
             d="m 410.86,167.07 c 0,14.682 -72.53,26.584 -162,26.584 -89.47,0 -162.0002,-11.902 -162.0002,-26.584 0,-14.682 72.5302,-26.584 162.0002,-26.584 89.47,0 162,11.902 162,26.584 z"
             inkscape:connector-curvature="0"
             style="fill:#ffffff;stroke:#000000;stroke-width:2" />
          <path
             id="path396"
             d="m 410.86,383.485 c 0,14.682 -72.53,26.584 -162,26.584 -89.47,0 -162.0002,-11.902 -162.0002,-26.584 0,-14.682 72.5302,-26.584 162.0002,-26.584 89.47,0 162,11.902 162,26.584 z"
             inkscape:connector-curvature="0"
             style="fill:none;stroke:#000000;stroke-dasharray:5" />
        </g>
        <g
           id="g422"
           transform="translate(-208.63475,418.16197)">
          <g
             id="g424">
            <path
               id="path426"
               d="m 296.415,398.082 0,-64.227"
               inkscape:connector-curvature="0"
               style="fill:none;stroke:#000000;stroke-width:2" />
            <path
               id="path428"
               d="m 291.415,343.855 5,-10 5,10"
               inkscape:connector-curvature="0"
               style="fill:none;stroke:#000000;stroke-width:2" />
          </g>
          <g
             id="g430">
            <path
               id="path432"
               d="m 295.415,398.082 c 29.744,0 58.822,-2.991 83.57,-8.596"
               inkscape:connector-curvature="0"
               style="fill:none;stroke:#000000;stroke-width:2" />
            <path
               id="path434"
               d="m 370.118,396.438 c 3.013,-2.243 5.953,-4.582 8.867,-6.952 -3.588,-0.895 -7.167,-1.826 -10.713,-2.876"
               inkscape:connector-curvature="0"
               style="fill:none;stroke:#000000;stroke-width:2" />
          </g>
          <g
             id="g436"
             clip-path="url(#7fc874180100)">
            <clipPath
               id="clipPath9645">
              <path
                 id="path9647"
                 d="m 290.508,326.576 12.009,0 0,-16.003 -12.009,0 z"
                 inkscape:connector-curvature="0"
                 style="fill:#000000;fill-opacity:0.35" />
            </clipPath>
            <g
               id="g441"
               clip-path="url(#7fc8745e29a0)">
              <clipPath
                 id="clipPath9650">
                <path
                   id="path9652"
                   d="m 290.508,326.576 12,0 0,-16 -12,0 z"
                   inkscape:connector-curvature="0"
                   style="fill:#000000;fill-opacity:0.35" />
              </clipPath>
              <path
                 id="path446"
                 d="m 302.091,312.09 c 0.106,-0.319 0.106,-0.372 0.106,-0.532 0,-0.453 -0.346,-0.666 -0.692,-0.666 -0.24,0 -0.639,0.16 -0.852,0.506 -0.027,0.133 -0.24,0.852 -0.32,1.278 -0.159,0.639 -0.346,1.278 -0.479,1.917 l -1.065,4.287 c -0.107,0.373 -1.118,2.024 -2.689,2.024 -1.225,0 -1.492,-1.038 -1.492,-1.917 0,-1.092 0.4,-2.583 1.225,-4.687 0.373,-0.958 0.48,-1.224 0.48,-1.704 0,-1.065 -0.773,-1.97 -1.971,-1.97 -2.263,0 -3.142,3.461 -3.142,3.674 0,0.24 0.24,0.24 0.293,0.24 0.24,0 0.266,-0.026 0.373,-0.426 0.639,-2.237 1.597,-2.956 2.423,-2.956 0.186,0 0.586,0 0.586,0.773 0,0.585 -0.24,1.198 -0.4,1.651 -0.958,2.529 -1.384,3.887 -1.384,5.005 0,2.131 1.491,2.85 2.902,2.85 0.932,0 1.731,-0.4 2.397,-1.065 -0.293,1.224 -0.586,2.396 -1.545,3.674 -0.612,0.799 -1.518,1.491 -2.609,1.491 -0.346,0 -1.412,-0.08 -1.811,-1.012 0.373,0 0.692,0 1.012,-0.266 0.239,-0.213 0.479,-0.532 0.479,-0.985 0,-0.746 -0.639,-0.826 -0.879,-0.826 -0.559,0 -1.331,0.373 -1.331,1.545 0,1.198 1.039,2.077 2.53,2.077 2.449,0 4.899,-2.184 5.565,-4.873 l 2.29,-9.107"
                 inkscape:connector-curvature="0"
                 style="fill:#000000" />
            </g>
          </g>
          <g
             id="g448"
             clip-path="url(#7fc8745de100)">
            <clipPath
               id="clipPath9656">
              <path
                 id="path9658"
                 d="m 377.218,385.936 12.994,0 0,-10.997 -12.994,0 z"
                 inkscape:connector-curvature="0"
                 style="fill:#000000;fill-opacity:0.35" />
            </clipPath>
            <g
               id="g453"
               clip-path="url(#7fc874156790)">
              <clipPath
                 id="clipPath9661">
                <path
                   id="path9663"
                   d="m 377.218,385.936 12,0 0,-11 -12,0 z"
                   inkscape:connector-curvature="0"
                   style="fill:#000000;fill-opacity:0.35" />
              </clipPath>
              <path
                 id="path458"
                 d="m 384.594,378.348 c 0.133,-0.639 0.692,-2.823 2.343,-2.823 0.133,0 0.692,0 1.198,0.32 -0.666,0.106 -1.145,0.692 -1.145,1.278 0,0.373 0.266,0.825 0.905,0.825 0.533,0 1.279,-0.426 1.279,-1.384 0,-1.225 -1.385,-1.571 -2.211,-1.571 -1.384,0 -2.21,1.278 -2.503,1.81 -0.585,-1.571 -1.89,-1.81 -2.582,-1.81 -2.477,0 -3.835,3.088 -3.835,3.674 0,0.24 0.24,0.24 0.293,0.24 0.187,0 0.266,-0.053 0.32,-0.266 0.799,-2.53 2.37,-3.116 3.195,-3.116 0.453,0 1.278,0.213 1.278,1.598 0,0.745 -0.399,2.343 -1.278,5.671 -0.399,1.465 -1.225,2.477 -2.263,2.477 -0.16,0 -0.693,0 -1.199,-0.32 0.586,-0.106 1.119,-0.612 1.119,-1.278 0,-0.639 -0.533,-0.825 -0.879,-0.825 -0.719,0 -1.331,0.612 -1.331,1.384 0,1.092 1.198,1.571 2.263,1.571 1.571,0 2.423,-1.677 2.503,-1.81 0.266,0.878 1.145,1.81 2.556,1.81 2.477,0 3.835,-3.088 3.835,-3.674 0,-0.24 -0.213,-0.24 -0.293,-0.24 -0.213,0 -0.267,0.08 -0.32,0.266 -0.772,2.53 -2.396,3.116 -3.168,3.116 -0.932,0 -1.305,-0.772 -1.305,-1.571 0,-0.533 0.133,-1.065 0.399,-2.104 l 0.826,-3.275"
                 inkscape:connector-curvature="0"
                 style="fill:#000000" />
            </g>
          </g>
        </g>
      </g>
      <g
         id="g11167">
        <g
           id="g358"
           transform="translate(-585.48157,-477.0771)">
          <path
             style="fill:none;stroke:#000000;stroke-width:2"
             inkscape:connector-curvature="0"
             d="m 894.912,1289.85 322.498,0"
             id="path360" />
          <path
             style="fill:none;stroke:#000000;stroke-width:2"
             inkscape:connector-curvature="0"
             d="m 1207.41,1284.85 10,5 -10,5"
             id="path362" />
        </g>
        <g
           id="g364"
           transform="translate(-585.48157,-477.0771)">
          <path
             style="fill:none;stroke:#000000;stroke-width:2"
             inkscape:connector-curvature="0"
             d="m 894.912,1289.85 0,-244.5"
             id="path366" />
          <path
             style="fill:none;stroke:#000000;stroke-width:2"
             inkscape:connector-curvature="0"
             d="m 889.912,1055.35 5,-10 5,10"
             id="path368" />
        </g>
        <path
           style="fill:none;stroke:#000000;stroke-width:3;stroke-linecap:round"
           inkscape:connector-curvature="0"
           d="m 337.18043,568.2729 c 3.75,39 -1.125,162 26.625,225.75 8.054,18.5 196.503,2.25 213.003,2.25 8.12,0 17.71,-35.01 18.75,-43.5 8.41,-69.21 7.95,-113.36 11.62,-184.5"
           id="path370" />
        <path
           style="fill:none;stroke:#000000;stroke-width:2"
           inkscape:connector-curvature="0"
           d="m 364.18043,812.7729 0,6.75"
           id="path372" />
        <path
           style="fill:none;stroke:#000000;stroke-width:2"
           inkscape:connector-curvature="0"
           d="m 580.17843,812.7729 0,6.75"
           id="path374" />
        <g
           id="g10088"
           transform="matrix(0.4451337,0,0,0.4451337,429.06614,685.69934)">
          <g
             id="content"
             transform="matrix(1.0629921,0,0,-1.0629921,-186.02362,789.27165)"
             xml:space="preserve"
             stroke-miterlimit="10.433"
             font-style="normal"
             font-variant="normal"
             font-weight="normal"
             font-stretch="normal"
             font-size-adjust="none"
             letter-spacing="normal"
             word-spacing="normal"
             style="font-style:normal;font-variant:normal;font-weight:normal;font-stretch:normal;letter-spacing:normal;word-spacing:normal;text-anchor:start;fill:none;stroke:#000000;stroke-linecap:butt;stroke-linejoin:miter;stroke-miterlimit:10.43299961;stroke-opacity:1;stroke-dasharray:none;stroke-dashoffset:0"><path
               d="m 501.21,434.45 0.23,0.4 0.24,0.4 0.24,0.38 0.24,0.37 0.13,0.18 0.13,0.17 0.14,0.17 0.13,0.16 0.14,0.16 0.15,0.16 0.15,0.15 0.16,0.14 0.16,0.14 0.17,0.13 0.17,0.13 0.18,0.12 0.19,0.11 0.19,0.11 0.2,0.1 0.21,0.09 0.22,0.09 0.23,0.08 0.24,0.07 0.25,0.06 0.25,0.05 0.27,0.05 0.28,0.04 0.29,0.02 c 0.45,0.05 0.95,0.05 0.95,1 0,0.19 -0.2,0.55 -0.61,0.55 -1.19,0 -2.58,-0.16 -3.83,-0.16 -1.7,0 -3.55,0.16 -5.19,0.16 -0.29,0 -0.93,0 -0.93,-0.95 0,-0.55 0.43,-0.6 0.73,-0.6 1.2,-0.04 2.95,-0.45 2.95,-1.93 0,-0.55 -0.25,-0.96 -0.65,-1.66 l -13.46,-23.45 -1.84,24.7 c -0.05,1 -0.14,2.3 3.48,2.34 0.86,0 1.36,0 1.36,1 0,0.5 -0.56,0.55 -0.75,0.55 -2,0 -4.09,-0.16 -6.07,-0.16 -1.16,0 -4.1,0.16 -5.24,0.16 -0.3,0 -0.95,0 -0.95,-1 0,-0.55 0.5,-0.55 1.2,-0.55 2.19,0 2.53,-0.29 2.64,-1.25 l 0.3,-3.82 -12.61,-21.97 -1.89,25.25 c 0,0.59 0,1.75 3.78,1.79 0.5,0 1.05,0 1.05,1 0,0.55 -0.6,0.55 -0.69,0.55 -2,0 -4.09,-0.16 -6.13,-0.16 -1.75,0 -3.54,0.16 -5.23,0.16 -0.25,0 -0.91,0 -0.91,-0.95 0,-0.6 0.46,-0.6 1.25,-0.6 2.5,0 2.55,-0.45 2.64,-1.84 l 2.25,-30.44 c 0.05,-0.9 0.1,-1.29 0.8,-1.29 0.6,0 0.74,0.29 1.19,1.04 l 14.66,25.41 1.84,-25.16 c 0.09,-1.04 0.19,-1.29 0.8,-1.29 0.64,0 0.93,0.5 1.18,0.93 z"
               id="path10091"
               inkscape:connector-curvature="0"
               style="fill:#000000;stroke-width:0" /><path
               d="m 525.88,441.67 0.01,0.03 0.01,0.03 0.01,0.03 0.01,0.03 0.01,0.02 0.01,0.03 0.01,0.03 0.01,0.02 0.01,0.05 0.02,0.05 0.02,0.04 0.01,0.05 0.01,0.04 0.01,0.04 0.01,0.03 0.01,0.04 0.01,0.03 0.01,0.03 0.01,0.03 0,0.02 0.01,0.03 0,0.02 0.01,0.02 0,0.02 0,0.02 0.01,0.02 0,0.01 0,0.02 0,0.01 0,0.01 0,0.01 0,0.01 0,0.01 0,0.01 0,0.01 0,0 c 0,0.55 -0.45,0.99 -1,0.99 -0.34,0 -0.7,-0.14 -0.84,-0.44 l -17.3,-47.48 c -0.25,-0.64 -0.25,-0.85 -0.25,-0.89 0,-0.55 0.46,-1 1,-1 0.66,0 0.8,0.34 1.1,1.18 z"
               id="path10093"
               inkscape:connector-curvature="0"
               style="fill:#000000;stroke-width:0" /><path
               d="m 535.28,410.04 5.29,5.13 c 7.76,6.87 10.76,9.56 10.76,14.54 0,5.69 -4.48,9.68 -10.56,9.68 -5.64,0 -9.33,-4.6 -9.33,-9.03 0,-2.79 2.5,-2.79 2.64,-2.79 0.86,0 2.6,0.6 2.6,2.64 0,1.3 -0.9,2.6 -2.65,2.6 -0.38,0 -0.5,0 -0.63,-0.05 1.13,3.24 3.82,5.08 6.71,5.08 4.54,0 6.69,-4.05 6.69,-8.13 0,-3.98 -2.5,-7.92 -5.23,-11.01 L 532,408.04 c -0.56,-0.54 -0.56,-0.64 -0.56,-1.84 h 18.49 l 1.4,8.67 h -1.25 c -0.25,-1.5 -0.59,-3.69 -1.09,-4.44 -0.36,-0.39 -3.64,-0.39 -4.74,-0.39 z"
               id="path10095"
               inkscape:connector-curvature="0"
               style="fill:#000000;stroke-width:0" /></g>        </g>
        <g
           id="g10373"
           transform="matrix(0.45544749,0,0,0.45544749,192.77687,681.87537)">
          <g
             word-spacing="normal"
             letter-spacing="normal"
             font-size-adjust="none"
             font-stretch="normal"
             font-weight="normal"
             font-variant="normal"
             font-style="normal"
             stroke-miterlimit="10.433"
             xml:space="preserve"
             transform="matrix(1.0629921,0,0,-1.0629921,-186.02362,789.27165)"
             id="g10375"
             style="font-style:normal;font-variant:normal;font-weight:normal;font-stretch:normal;letter-spacing:normal;word-spacing:normal;text-anchor:start;fill:none;stroke:#000000;stroke-linecap:butt;stroke-linejoin:miter;stroke-miterlimit:10.43299961;stroke-opacity:1;stroke-dasharray:none;stroke-dashoffset:0"><path
               id="path10377"
               d="m 488.35,417.65 0.16,0 0.16,0 0.15,0.01 0.08,0 0.08,0.01 0.07,0 0.08,0.01 0.07,0.01 0.07,0.01 0.07,0.02 0.07,0.02 0.07,0.02 0.06,0.02 0.06,0.02 0.06,0.03 0.05,0.03 0.06,0.04 0.05,0.03 0.04,0.05 0.04,0.04 0.04,0.05 0.02,0.03 0.02,0.03 0.01,0.03 0.02,0.03 0.01,0.03 0.02,0.03 0.01,0.04 0.01,0.03 0.01,0.04 0,0.04 0.01,0.04 0.01,0.04 0,0.04 0.01,0.04 0,0.05 0,0.04 c 0,1 -0.91,1 -1.75,1 h -26.96 c -0.84,0 -1.73,0 -1.73,-1 0,-1 0.89,-1 1.73,-1 z"
               inkscape:connector-curvature="0"
               style="fill:#000000;stroke-width:0" /><path
               id="path10379"
               d="m 539.97,434.45 0.23,0.4 0.23,0.4 0.24,0.38 0.25,0.37 0.13,0.18 0.13,0.17 0.13,0.17 0.14,0.16 0.14,0.16 0.15,0.16 0.15,0.15 0.15,0.14 0.17,0.14 0.16,0.13 0.18,0.13 0.18,0.12 0.18,0.11 0.2,0.11 0.2,0.1 0.21,0.09 0.22,0.09 0.23,0.08 0.24,0.07 0.24,0.06 0.26,0.05 0.27,0.05 0.27,0.04 0.29,0.02 c 0.46,0.05 0.96,0.05 0.96,1 0,0.19 -0.21,0.55 -0.61,0.55 -1.19,0 -2.58,-0.16 -3.83,-0.16 -1.71,0 -3.55,0.16 -5.19,0.16 -0.3,0 -0.94,0 -0.94,-0.95 0,-0.55 0.44,-0.6 0.74,-0.6 1.2,-0.04 2.95,-0.45 2.95,-1.93 0,-0.55 -0.25,-0.96 -0.65,-1.66 l -13.46,-23.45 -1.84,24.7 c -0.05,1 -0.14,2.3 3.48,2.34 0.86,0 1.36,0 1.36,1 0,0.5 -0.56,0.55 -0.75,0.55 -2,0 -4.09,-0.16 -6.08,-0.16 -1.15,0 -4.09,0.16 -5.23,0.16 -0.3,0 -0.95,0 -0.95,-1 0,-0.55 0.5,-0.55 1.2,-0.55 2.19,0 2.53,-0.29 2.64,-1.25 l 0.3,-3.82 -12.61,-21.97 -1.89,25.25 c 0,0.59 0,1.75 3.78,1.79 0.5,0 1.04,0 1.04,1 0,0.55 -0.59,0.55 -0.68,0.55 -2,0 -4.1,-0.16 -6.13,-0.16 -1.75,0 -3.54,0.16 -5.23,0.16 -0.25,0 -0.91,0 -0.91,-0.95 0,-0.6 0.45,-0.6 1.25,-0.6 2.5,0 2.55,-0.45 2.64,-1.84 l 2.25,-30.44 c 0.05,-0.9 0.1,-1.29 0.8,-1.29 0.59,0 0.73,0.29 1.19,1.04 l 14.65,25.41 1.85,-25.16 c 0.09,-1.04 0.18,-1.29 0.79,-1.29 0.64,0 0.94,0.5 1.19,0.93 z"
               inkscape:connector-curvature="0"
               style="fill:#000000;stroke-width:0" /><path
               id="path10381"
               d="m 564.63,441.67 0.01,0.03 0.02,0.03 0.01,0.03 0.01,0.03 0.01,0.02 0.01,0.03 0.01,0.03 0.01,0.02 0.01,0.05 0.02,0.05 0.01,0.04 0.02,0.05 0.01,0.04 0.01,0.04 0.01,0.03 0.01,0.04 0.01,0.03 0.01,0.03 0.01,0.03 0,0.02 0.01,0.03 0,0.02 0.01,0.02 0,0.02 0,0.02 0.01,0.02 0,0.01 0,0.02 0,0.01 0,0.01 0,0.01 0,0.01 0,0.01 0,0.01 0,0.01 0,0 c 0,0.55 -0.45,0.99 -1,0.99 -0.34,0 -0.7,-0.14 -0.84,-0.44 l -17.3,-47.48 c -0.25,-0.64 -0.25,-0.85 -0.25,-0.89 0,-0.55 0.46,-1 1,-1 0.66,0 0.8,0.34 1.1,1.18 z"
               inkscape:connector-curvature="0"
               style="fill:#000000;stroke-width:0" /><path
               id="path10383"
               d="m 574.04,410.04 5.28,5.13 c 7.77,6.87 10.77,9.56 10.77,14.54 0,5.69 -4.49,9.68 -10.56,9.68 -5.64,0 -9.33,-4.6 -9.33,-9.03 0,-2.79 2.5,-2.79 2.64,-2.79 0.86,0 2.59,0.6 2.59,2.64 0,1.3 -0.89,2.6 -2.64,2.6 -0.39,0 -0.5,0 -0.64,-0.05 1.14,3.24 3.83,5.08 6.72,5.08 4.53,0 6.69,-4.05 6.69,-8.13 0,-3.98 -2.5,-7.92 -5.24,-11.01 l -9.56,-10.66 c -0.56,-0.54 -0.56,-0.64 -0.56,-1.84 h 18.48 l 1.41,8.67 h -1.25 c -0.25,-1.5 -0.59,-3.69 -1.09,-4.44 -0.36,-0.39 -3.65,-0.39 -4.74,-0.39 z"
               inkscape:connector-curvature="0"
               style="fill:#000000;stroke-width:0" /></g>        </g>
        <g
           id="g10673"
           transform="matrix(0.53311374,0,0,0.53311374,482.49449,627.82969)">
          <g
             id="g10675"
             transform="matrix(1.0629921,0,0,-1.0629921,-186.02362,789.27165)"
             xml:space="preserve"
             stroke-miterlimit="10.433"
             font-style="normal"
             font-variant="normal"
             font-weight="normal"
             font-stretch="normal"
             font-size-adjust="none"
             letter-spacing="normal"
             word-spacing="normal"
             style="font-style:normal;font-variant:normal;font-weight:normal;font-stretch:normal;letter-spacing:normal;word-spacing:normal;text-anchor:start;fill:none;stroke:#000000;stroke-linecap:butt;stroke-linejoin:miter;stroke-miterlimit:10.43299961;stroke-opacity:1;stroke-dasharray:none;stroke-dashoffset:0"><path
               d="m 479.74,425.18 0.01,0.04 0.01,0.03 0.01,0.06 0.02,0.05 0.01,0.06 0.01,0.05 0.02,0.04 0.01,0.05 0.01,0.04 0.01,0.04 0,0.04 0.01,0.04 0.01,0.04 0.01,0.03 0,0.03 0.01,0.03 0,0.03 0.01,0.03 0,0.03 0.01,0.05 0,0.06 0,0.05 0,0.05 0.01,0.05 0,0.03 0,0.03 0,0.03 0,0.03 c 0,0.91 -0.69,1.35 -1.44,1.35 -0.5,0 -1.3,-0.3 -1.75,-1.05 -0.1,-0.25 -0.5,-1.78 -0.69,-2.69 -0.36,-1.29 -0.7,-2.64 -1,-3.98 l -2.25,-8.97 c -0.19,-0.75 -2.33,-4.23 -5.62,-4.23 -2.54,0 -3.1,2.18 -3.1,4.03 0,2.29 0.86,5.39 2.55,9.76 0.8,2.05 1,2.6 1,3.6 0,2.23 -1.59,4.07 -4.09,4.07 -4.74,0 -6.58,-7.21 -6.58,-7.67 0,-0.5 0.5,-0.5 0.61,-0.5 0.5,0 0.54,0.11 0.79,0.91 1.35,4.69 3.33,6.17 5.03,6.17 0.4,0 1.25,0 1.25,-1.59 0,-1.25 -0.5,-2.53 -0.85,-3.49 -1.99,-5.28 -2.9,-8.12 -2.9,-10.47 0,-4.42 3.15,-5.92 6.08,-5.92 1.96,0 3.64,0.85 5.03,2.24 -0.64,-2.58 -1.23,-5.03 -3.23,-7.68 -1.3,-1.68 -3.19,-3.14 -5.48,-3.14 -0.69,0 -2.94,0.16 -3.79,2.1 0.8,0 1.46,0 2.14,0.61 0.5,0.43 1,1.09 1,2.03 0,1.55 -1.34,1.75 -1.84,1.75 -1.14,0 -2.8,-0.8 -2.8,-3.24 0,-2.5 2.21,-4.34 5.29,-4.34 5.14,0 10.26,4.55 11.67,10.17 z"
               id="path10677"
               inkscape:connector-curvature="0"
               style="fill:#000000;stroke-width:0" /></g>        </g>
        <g
           id="g10973"
           transform="matrix(0.51987085,0,0,0.51987085,136.59906,365.99278)">
          <g
             word-spacing="normal"
             letter-spacing="normal"
             font-size-adjust="none"
             font-stretch="normal"
             font-weight="normal"
             font-variant="normal"
             font-style="normal"
             stroke-miterlimit="10.433"
             xml:space="preserve"
             transform="matrix(1.0629921,0,0,-1.0629921,-186.02362,789.27165)"
             id="g10975"
             style="font-style:normal;font-variant:normal;font-weight:normal;font-stretch:normal;letter-spacing:normal;word-spacing:normal;text-anchor:start;fill:none;stroke:#000000;stroke-linecap:butt;stroke-linejoin:miter;stroke-miterlimit:10.43299961;stroke-opacity:1;stroke-dasharray:none;stroke-dashoffset:0"><path
               id="path10977"
               d="m 486.8,434.54 0.23,0.36 0.23,0.33 0.22,0.31 0.22,0.29 0.22,0.28 0.22,0.25 0.22,0.24 0.22,0.22 0.21,0.2 0.21,0.19 0.21,0.17 0.2,0.16 0.21,0.14 0.2,0.13 0.21,0.12 0.19,0.11 0.2,0.09 0.2,0.09 0.19,0.07 0.2,0.07 0.19,0.06 0.19,0.05 0.18,0.04 0.19,0.03 0.18,0.03 0.19,0.03 0.36,0.04 0.35,0.02 0.35,0.02 c 0.6,0.05 0.64,0.89 0.64,0.96 0,0.39 -0.25,0.59 -0.64,0.59 -1.3,0 -2.75,-0.16 -4.09,-0.16 -1.64,0 -3.35,0.16 -4.94,0.16 -0.3,0 -0.94,0 -0.94,-0.95 0,-0.55 0.46,-0.6 0.8,-0.6 1.34,-0.09 2.3,-0.59 2.3,-1.64 0,-0.75 -0.75,-1.84 -0.75,-1.89 l -15.3,-24.31 -3.39,26.34 c 0,0.85 1.14,1.5 3.44,1.5 0.7,0 1.25,0 1.25,1 0,0.44 -0.41,0.55 -0.71,0.55 -1.98,0 -4.14,-0.16 -6.17,-0.16 -0.9,0 -1.84,0.05 -2.75,0.05 -0.89,0 -1.84,0.11 -2.69,0.11 -0.34,0 -0.93,0 -0.93,-0.95 0,-0.6 0.43,-0.6 1.23,-0.6 2.8,0 2.84,-0.45 3,-1.68 l 3.92,-30.75 c 0.16,-1 0.36,-1.14 1,-1.14 0.8,0 1,0.25 1.41,0.89 z"
               inkscape:connector-curvature="0"
               style="fill:#000000;stroke-width:0" /><path
               id="path10979"
               d="m 512.2,394.25 0,0.02 0,0.03 0,0.01 0,0.02 -0.01,0.01 0,0.02 -0.01,0.01 0,0.02 -0.01,0.02 -0.01,0.02 -0.01,0.02 -0.02,0.03 -0.01,0.02 -0.02,0.03 -0.02,0.03 -0.03,0.03 -0.02,0.03 -0.03,0.04 -0.02,0.02 -0.02,0.02 -0.01,0.02 -0.02,0.02 -0.02,0.02 -0.02,0.03 -0.02,0.02 -0.02,0.02 -0.03,0.03 -0.02,0.02 -0.02,0.03 -0.03,0.03 -0.03,0.03 -0.02,0.03 -0.03,0.03 -0.03,0.03 -0.03,0.03 -0.04,0.03 -0.03,0.04 -0.03,0.03 -0.04,0.04 -0.03,0.03 -0.04,0.04 -0.04,0.04 c -6.22,6.28 -7.81,15.69 -7.81,23.31 0,8.67 1.89,17.35 8.01,23.56 0.64,0.61 0.64,0.71 0.64,0.86 0,0.35 -0.18,0.49 -0.48,0.49 -0.5,0 -4.99,-3.38 -7.92,-9.7 -2.55,-5.49 -3.14,-11.02 -3.14,-15.21 0,-3.89 0.54,-9.9 3.28,-15.54 2.98,-6.13 7.28,-9.36 7.78,-9.36 0.3,0 0.48,0.14 0.48,0.5 z"
               inkscape:connector-curvature="0"
               style="fill:#000000;stroke-width:0" /><path
               id="path10981"
               d="m 539.25,425.18 0.01,0.04 0.01,0.03 0.02,0.06 0.01,0.05 0.02,0.06 0.01,0.05 0.01,0.04 0.01,0.05 0.01,0.04 0.01,0.04 0.01,0.04 0.01,0.04 0.01,0.04 0,0.03 0.01,0.03 0,0.03 0.01,0.03 0,0.03 0.01,0.03 0,0.05 0.01,0.06 0,0.05 0,0.05 0,0.05 0,0.03 0,0.03 0,0.03 0,0.03 c 0,0.91 -0.69,1.35 -1.44,1.35 -0.5,0 -1.29,-0.3 -1.75,-1.05 -0.09,-0.25 -0.5,-1.78 -0.68,-2.69 -0.36,-1.29 -0.71,-2.64 -1,-3.98 l -2.25,-8.97 c -0.19,-0.75 -2.33,-4.23 -5.63,-4.23 -2.53,0 -3.09,2.18 -3.09,4.03 0,2.29 0.86,5.39 2.55,9.76 0.79,2.05 1,2.6 1,3.6 0,2.23 -1.6,4.07 -4.1,4.07 -4.73,0 -6.58,-7.21 -6.58,-7.67 0,-0.5 0.5,-0.5 0.61,-0.5 0.5,0 0.55,0.11 0.8,0.91 1.34,4.69 3.33,6.17 5.03,6.17 0.39,0 1.25,0 1.25,-1.59 0,-1.25 -0.5,-2.53 -0.86,-3.49 -1.98,-5.28 -2.89,-8.12 -2.89,-10.47 0,-4.42 3.14,-5.92 6.08,-5.92 1.95,0 3.64,0.85 5.03,2.24 -0.64,-2.58 -1.24,-5.03 -3.24,-7.68 -1.29,-1.68 -3.18,-3.14 -5.48,-3.14 -0.69,0 -2.94,0.16 -3.78,2.1 0.8,0 1.45,0 2.14,0.61 0.5,0.43 1,1.09 1,2.03 0,1.55 -1.34,1.75 -1.84,1.75 -1.14,0 -2.8,-0.8 -2.8,-3.24 0,-2.5 2.2,-4.34 5.28,-4.34 5.14,0 10.27,4.55 11.67,10.17 z"
               inkscape:connector-curvature="0"
               style="fill:#000000;stroke-width:0" /><path
               id="path10983"
               d="m 555.7,418.65 0,0.37 0,0.39 -0.01,0.39 -0.02,0.41 -0.04,0.84 -0.06,0.88 -0.08,0.92 -0.1,0.95 -0.14,0.97 -0.16,1.01 -0.2,1.02 -0.23,1.03 -0.27,1.05 -0.3,1.06 -0.35,1.07 -0.39,1.07 -0.22,0.53 -0.22,0.53 -0.24,0.53 -0.25,0.53 c -2.98,6.12 -7.26,9.36 -7.76,9.36 -0.3,0 -0.5,-0.19 -0.5,-0.49 0,-0.15 0,-0.25 0.93,-1.15 4.89,-4.92 7.74,-12.85 7.74,-23.27 0,-8.51 -1.85,-17.28 -8.03,-23.56 -0.64,-0.59 -0.64,-0.7 -0.64,-0.84 0,-0.3 0.2,-0.5 0.5,-0.5 0.5,0 4.96,3.39 7.92,9.71 2.53,5.47 3.12,11 3.12,15.19 z"
               inkscape:connector-curvature="0"
               style="fill:#000000;stroke-width:0" /></g>        </g>
      </g>
    </g>
  </g>
</svg>
