<?xml version="1.0" encoding="UTF-8" standalone="no"?>
<!-- Created with Inkscape (http://www.inkscape.org/) -->

<svg
   xmlns:dc="http://purl.org/dc/elements/1.1/"
   xmlns:cc="http://creativecommons.org/ns#"
   xmlns:rdf="http://www.w3.org/1999/02/22-rdf-syntax-ns#"
   xmlns:svg="http://www.w3.org/2000/svg"
   xmlns="http://www.w3.org/2000/svg"
   xmlns:sodipodi="http://sodipodi.sourceforge.net/DTD/sodipodi-0.dtd"
   xmlns:inkscape="http://www.inkscape.org/namespaces/inkscape"
   width="326"
   height="340.13733"
   id="svg3973"
   version="1.1"
   inkscape:version="0.48.4 r9939"
   sodipodi:docname="New document 2">
  <defs
     id="defs3975">
    <clipPath
       id="7fc874547860">
      <path
         style="fill:#000000;fill-opacity:0.35"
         inkscape:connector-curvature="0"
         d="m 264.467,124.498 49.207,0 0,-30.0039 -49.207,0 z"
         id="path407" />
    </clipPath>
    <clipPath
       id="7fc8745bd8f0">
      <path
         style="fill:#000000;fill-opacity:0.35"
         inkscape:connector-curvature="0"
         d="m 264.467,124.498 49.2,0 0,-30.0001 -49.2,0 z"
         id="path412" />
    </clipPath>
    <clipPath
       id="7fc874180100">
      <path
         style="fill:#000000;fill-opacity:0.35"
         inkscape:connector-curvature="0"
         d="m 290.508,326.576 12.009,0 0,-16.003 -12.009,0 z"
         id="path439" />
    </clipPath>
    <clipPath
       id="7fc8745e29a0">
      <path
         style="fill:#000000;fill-opacity:0.35"
         inkscape:connector-curvature="0"
         d="m 290.508,326.576 12,0 0,-16 -12,0 z"
         id="path444" />
    </clipPath>
    <clipPath
       id="7fc8745de100">
      <path
         style="fill:#000000;fill-opacity:0.35"
         inkscape:connector-curvature="0"
         d="m 377.218,385.936 12.994,0 0,-10.997 -12.994,0 z"
         id="path451" />
    </clipPath>
    <clipPath
       id="7fc874156790">
      <path
         style="fill:#000000;fill-opacity:0.35"
         inkscape:connector-curvature="0"
         d="m 377.218,385.936 12,0 0,-11 -12,0 z"
         id="path456" />
    </clipPath>
  </defs>
  <sodipodi:namedview
     id="base"
     pagecolor="#ffffff"
     bordercolor="#666666"
     borderopacity="1.0"
     inkscape:pageopacity="0.0"
     inkscape:pageshadow="2"
     inkscape:zoom="0.86377106"
     inkscape:cx="331.27445"
     inkscape:cy="97.705149"
     inkscape:document-units="px"
     inkscape:current-layer="layer1"
     showgrid="false"
     fit-margin-top="0"
     fit-margin-left="0"
     fit-margin-right="0"
     fit-margin-bottom="0"
     inkscape:window-width="1855"
     inkscape:window-height="1056"
     inkscape:window-x="65"
     inkscape:window-y="24"
     inkscape:window-maximized="1" />
  <metadata
     id="metadata3978">
    <rdf:RDF>
      <cc:Work
         rdf:about="">
        <dc:format>image/svg+xml</dc:format>
        <dc:type
           rdf:resource="http://purl.org/dc/dcmitype/StillImage" />
        <dc:title></dc:title>
      </cc:Work>
    </rdf:RDF>
  </metadata>
  <g
     inkscape:label="Layer 1"
     inkscape:groupmode="layer"
     id="layer1"
     transform="translate(-40.772794,-283.74891)">
    <g
       transform="translate(-45.102206,212.72999)"
       id="g382">
      <g
         id="g384">
        <path
           style="fill:#bcbcbc;stroke:#000000;stroke-width:2"
           inkscape:connector-curvature="0"
           d="m 410.86,383.585 c 0,14.682 -72.53,26.584 -162,26.584 -89.47,0 -162.0002,-11.902 -162.0002,-26.584 0,-14.682 72.5302,-26.584 162.0002,-26.584 89.47,0 162,11.902 162,26.584 z"
           id="path386" />
        <path
           style="fill:#bcbcbc"
           inkscape:connector-curvature="0"
           d="m 86.8598,167.07 324.0002,0 0,216.515 -324.0002,0 z"
           id="path388" />
        <path
           style="fill:none;stroke:#000000;stroke-width:2"
           inkscape:connector-curvature="0"
           d="m 86.8598,167.07 0,217.293"
           id="path390" />
        <path
           style="fill:none;stroke:#000000;stroke-width:2"
           inkscape:connector-curvature="0"
           d="m 410.86,383.585 0,-216.515"
           id="path392" />
        <path
           style="fill:#ffffff;stroke:#000000;stroke-width:2"
           inkscape:connector-curvature="0"
           d="m 410.86,167.07 c 0,14.682 -72.53,26.584 -162,26.584 -89.47,0 -162.0002,-11.902 -162.0002,-26.584 0,-14.682 72.5302,-26.584 162.0002,-26.584 89.47,0 162,11.902 162,26.584 z"
           id="path394" />
        <path
           style="fill:none;stroke:#000000;stroke-dasharray:5"
           inkscape:connector-curvature="0"
           d="m 410.86,383.485 c 0,14.682 -72.53,26.584 -162,26.584 -89.47,0 -162.0002,-11.902 -162.0002,-26.584 0,-14.682 72.5302,-26.584 162.0002,-26.584 89.47,0 162,11.902 162,26.584 z"
           id="path396" />
      </g>
      <g
         id="g398">
        <path
           style="fill:none;stroke:#000000;stroke-width:3"
           inkscape:connector-curvature="0"
           d="m 248.86,167.07 0,-88.5154"
           id="path400" />
        <path
           style="fill:none;stroke:#000000;stroke-width:3"
           inkscape:connector-curvature="0"
           d="m 242.86,90.5546 6,-12 6,12"
           id="path402" />
      </g>
      <g
         clip-path="url(#7fc874547860)"
         id="g404">
        <clipPath
           id="clipPath3927">
          <path
             style="fill:#000000;fill-opacity:0.35"
             inkscape:connector-curvature="0"
             d="m 264.467,124.498 49.207,0 0,-30.0039 -49.207,0 z"
             id="path3929" />
        </clipPath>
        <g
           clip-path="url(#7fc8745bd8f0)"
           id="g409">
          <clipPath
             id="clipPath3932">
            <path
               style="fill:#000000;fill-opacity:0.35"
               inkscape:connector-curvature="0"
               d="m 264.467,124.498 49.2,0 0,-30.0001 -49.2,0 z"
               id="path3934" />
          </clipPath>
          <path
             style="fill:#000000"
             inkscape:connector-curvature="0"
             d="m 274.436,112.707 c 4.441,-0.319 7.605,-3.003 7.605,-5.879 0,-2.972 -3.26,-5.592 -7.605,-5.911 l 0,-1.6299 c 0,-0.9587 0,-1.374 2.716,-1.374 l 0.958,0 0,-0.8628 c -1.022,0.0639 -3.674,0.0639 -4.856,0.0639 -1.151,0 -3.803,0 -4.857,-0.0639 l 0,0.8628 0.958,0 c 2.716,0 2.716,0.3834 2.716,1.374 l 0,1.6299 c -4.377,0.415 -7.445,3.035 -7.445,5.879 0,2.94 3.164,5.496 7.445,5.911 l 0,1.598 c 0,0.99 0,1.374 -2.716,1.374 l -0.958,0 0,0.895 c 1.054,-0.096 3.674,-0.096 4.857,-0.096 1.15,0 3.834,0 4.856,0.096 l 0,-0.895 -0.958,0 c -2.716,0 -2.716,-0.352 -2.716,-1.374 l 0,-1.598 z m -2.365,-0.639 c -4.058,-0.543 -4.569,-3.483 -4.569,-5.24 0,-1.502 0.288,-4.697 4.569,-5.272 l 0,10.512 z m 2.365,-10.544 c 3.962,0.447 4.761,3.099 4.761,5.272 0,1.725 -0.448,4.761 -4.761,5.272 l 0,-10.544"
             id="path414" />
          <path
             style="fill:#000000"
             inkscape:connector-curvature="0"
             d="m 293.256,123.443 c 0,-0.095 0,-0.127 -0.479,-0.639 -3.579,-3.578 -4.506,-9.01 -4.506,-13.388 0,-4.953 1.087,-9.9372 4.602,-13.5159 0.383,-0.3515 0.383,-0.4155 0.383,-0.4794 0,-0.2236 -0.128,-0.2875 -0.287,-0.2875 -0.288,0 -2.844,1.9171 -4.538,5.5598 -1.47,3.163 -1.821,6.327 -1.821,8.723 0,2.237 0.319,5.688 1.885,8.947 1.726,3.515 4.186,5.368 4.474,5.368 0.159,0 0.287,-0.096 0.287,-0.288"
             id="path416" />
          <path
             style="fill:#000000"
             inkscape:connector-curvature="0"
             d="m 300.829,105.134 2.684,0 c 0.575,0 0.863,0 0.863,-0.575 0,-0.319 -0.288,-0.319 -0.799,-0.319 l -2.492,0 c 1.022,-4.058 1.15,-4.6334 1.15,-4.7932 0,-0.4793 -0.32,-0.7669 -0.831,-0.7669 -0.064,0 -0.863,0.032 -1.15,1.0225 l -1.087,4.5376 -2.716,0 c -0.575,0 -0.83,0 -0.83,0.543 0,0.351 0.223,0.351 0.798,0.351 l 2.493,0 c -2.045,8.116 -2.173,8.596 -2.173,9.139 0,1.534 1.086,2.62 2.652,2.62 2.908,0 4.537,-4.186 4.537,-4.409 0,-0.288 -0.223,-0.288 -0.351,-0.288 -0.256,0 -0.288,0.096 -0.415,0.415 -1.247,2.972 -2.748,3.643 -3.707,3.643 -0.607,0 -0.895,-0.351 -0.895,-1.31 0,-0.671 0.064,-0.895 0.16,-1.374 l 2.109,-8.436"
             id="path418" />
          <path
             style="fill:#000000"
             inkscape:connector-curvature="0"
             d="m 313.546,109.416 c 0,-2.237 -0.319,-5.687 -1.885,-8.915 -1.725,-3.5146 -4.186,-5.3678 -4.473,-5.3678 -0.16,0 -0.288,0.0959 -0.288,0.2875 0,0.0639 0,0.1279 0.543,0.6391 2.812,2.8438 4.442,7.3812 4.442,13.3562 0,4.889 -1.055,9.938 -4.601,13.548 -0.384,0.352 -0.384,0.384 -0.384,0.479 0,0.16 0.128,0.288 0.288,0.288 0.287,0 2.843,-1.949 4.537,-5.592 1.47,-3.131 1.821,-6.326 1.821,-8.723"
             id="path420" />
        </g>
      </g>
      <g
         id="g422">
        <g
           id="g424">
          <path
             style="fill:none;stroke:#000000;stroke-width:2"
             inkscape:connector-curvature="0"
             d="m 296.415,398.082 0,-64.227"
             id="path426" />
          <path
             style="fill:none;stroke:#000000;stroke-width:2"
             inkscape:connector-curvature="0"
             d="m 291.415,343.855 5,-10 5,10"
             id="path428" />
        </g>
        <g
           id="g430">
          <path
             style="fill:none;stroke:#000000;stroke-width:2"
             inkscape:connector-curvature="0"
             d="m 295.415,398.082 c 29.744,0 58.822,-2.991 83.57,-8.596"
             id="path432" />
          <path
             style="fill:none;stroke:#000000;stroke-width:2"
             inkscape:connector-curvature="0"
             d="m 370.118,396.438 c 3.013,-2.243 5.953,-4.582 8.867,-6.952 -3.588,-0.895 -7.167,-1.826 -10.713,-2.876"
             id="path434" />
        </g>
        <g
           clip-path="url(#7fc874180100)"
           id="g436">
          <clipPath
             id="clipPath3948">
            <path
               style="fill:#000000;fill-opacity:0.35"
               inkscape:connector-curvature="0"
               d="m 290.508,326.576 12.009,0 0,-16.003 -12.009,0 z"
               id="path3950" />
          </clipPath>
          <g
             clip-path="url(#7fc8745e29a0)"
             id="g441">
            <clipPath
               id="clipPath3953">
              <path
                 style="fill:#000000;fill-opacity:0.35"
                 inkscape:connector-curvature="0"
                 d="m 290.508,326.576 12,0 0,-16 -12,0 z"
                 id="path3955" />
            </clipPath>
            <path
               style="fill:#000000"
               inkscape:connector-curvature="0"
               d="m 302.091,312.09 c 0.106,-0.319 0.106,-0.372 0.106,-0.532 0,-0.453 -0.346,-0.666 -0.692,-0.666 -0.24,0 -0.639,0.16 -0.852,0.506 -0.027,0.133 -0.24,0.852 -0.32,1.278 -0.159,0.639 -0.346,1.278 -0.479,1.917 l -1.065,4.287 c -0.107,0.373 -1.118,2.024 -2.689,2.024 -1.225,0 -1.492,-1.038 -1.492,-1.917 0,-1.092 0.4,-2.583 1.225,-4.687 0.373,-0.958 0.48,-1.224 0.48,-1.704 0,-1.065 -0.773,-1.97 -1.971,-1.97 -2.263,0 -3.142,3.461 -3.142,3.674 0,0.24 0.24,0.24 0.293,0.24 0.24,0 0.266,-0.026 0.373,-0.426 0.639,-2.237 1.597,-2.956 2.423,-2.956 0.186,0 0.586,0 0.586,0.773 0,0.585 -0.24,1.198 -0.4,1.651 -0.958,2.529 -1.384,3.887 -1.384,5.005 0,2.131 1.491,2.85 2.902,2.85 0.932,0 1.731,-0.4 2.397,-1.065 -0.293,1.224 -0.586,2.396 -1.545,3.674 -0.612,0.799 -1.518,1.491 -2.609,1.491 -0.346,0 -1.412,-0.08 -1.811,-1.012 0.373,0 0.692,0 1.012,-0.266 0.239,-0.213 0.479,-0.532 0.479,-0.985 0,-0.746 -0.639,-0.826 -0.879,-0.826 -0.559,0 -1.331,0.373 -1.331,1.545 0,1.198 1.039,2.077 2.53,2.077 2.449,0 4.899,-2.184 5.565,-4.873 l 2.29,-9.107"
               id="path446" />
          </g>
        </g>
        <g
           clip-path="url(#7fc8745de100)"
           id="g448">
          <clipPath
             id="clipPath3959">
            <path
               style="fill:#000000;fill-opacity:0.35"
               inkscape:connector-curvature="0"
               d="m 377.218,385.936 12.994,0 0,-10.997 -12.994,0 z"
               id="path3961" />
          </clipPath>
          <g
             clip-path="url(#7fc874156790)"
             id="g453">
            <clipPath
               id="clipPath3964">
              <path
                 style="fill:#000000;fill-opacity:0.35"
                 inkscape:connector-curvature="0"
                 d="m 377.218,385.936 12,0 0,-11 -12,0 z"
                 id="path3966" />
            </clipPath>
            <path
               style="fill:#000000"
               inkscape:connector-curvature="0"
               d="m 384.594,378.348 c 0.133,-0.639 0.692,-2.823 2.343,-2.823 0.133,0 0.692,0 1.198,0.32 -0.666,0.106 -1.145,0.692 -1.145,1.278 0,0.373 0.266,0.825 0.905,0.825 0.533,0 1.279,-0.426 1.279,-1.384 0,-1.225 -1.385,-1.571 -2.211,-1.571 -1.384,0 -2.21,1.278 -2.503,1.81 -0.585,-1.571 -1.89,-1.81 -2.582,-1.81 -2.477,0 -3.835,3.088 -3.835,3.674 0,0.24 0.24,0.24 0.293,0.24 0.187,0 0.266,-0.053 0.32,-0.266 0.799,-2.53 2.37,-3.116 3.195,-3.116 0.453,0 1.278,0.213 1.278,1.598 0,0.745 -0.399,2.343 -1.278,5.671 -0.399,1.465 -1.225,2.477 -2.263,2.477 -0.16,0 -0.693,0 -1.199,-0.32 0.586,-0.106 1.119,-0.612 1.119,-1.278 0,-0.639 -0.533,-0.825 -0.879,-0.825 -0.719,0 -1.331,0.612 -1.331,1.384 0,1.092 1.198,1.571 2.263,1.571 1.571,0 2.423,-1.677 2.503,-1.81 0.266,0.878 1.145,1.81 2.556,1.81 2.477,0 3.835,-3.088 3.835,-3.674 0,-0.24 -0.213,-0.24 -0.293,-0.24 -0.213,0 -0.267,0.08 -0.32,0.266 -0.772,2.53 -2.396,3.116 -3.168,3.116 -0.932,0 -1.305,-0.772 -1.305,-1.571 0,-0.533 0.133,-1.065 0.399,-2.104 l 0.826,-3.275"
               id="path458" />
          </g>
        </g>
      </g>
      <text
         style="font-size:24px;font-family:American Typewriter"
         font-size="24"
         transform="translate(172.445,268.45)"
         xml:space="preserve"
         id="text460"><tspan
           id="tspan462">Hall cylinder</tspan></text>
      <text
         style="font-size:24px;font-family:American Typewriter"
         font-size="24"
         transform="translate(262.506,89.2533)"
         xml:space="preserve"
         id="text464"><tspan
           id="tspan466">flux</tspan></text>
    </g>
  </g>
</svg>
