<?xml version="1.0" encoding="UTF-8" standalone="no"?>
<!-- Created with Inkscape (http://www.inkscape.org/) -->

<svg
   xmlns:dc="http://purl.org/dc/elements/1.1/"
   xmlns:cc="http://creativecommons.org/ns#"
   xmlns:rdf="http://www.w3.org/1999/02/22-rdf-syntax-ns#"
   xmlns:svg="http://www.w3.org/2000/svg"
   xmlns="http://www.w3.org/2000/svg"
   xmlns:sodipodi="http://sodipodi.sourceforge.net/DTD/sodipodi-0.dtd"
   xmlns:inkscape="http://www.inkscape.org/namespaces/inkscape"
   width="686.5033"
   height="353.03125"
   id="svg3964"
   version="1.1"
   inkscape:version="0.48.4 r9939"
   sodipodi:docname="New document 2">
  <sodipodi:namedview
     id="base"
     pagecolor="#ffffff"
     bordercolor="#666666"
     borderopacity="1.0"
     inkscape:pageopacity="0.0"
     inkscape:pageshadow="2"
     inkscape:zoom="0.86377106"
     inkscape:cx="342.73805"
     inkscape:cy="176.50641"
     inkscape:document-units="px"
     inkscape:current-layer="layer1"
     showgrid="false"
     inkscape:window-width="1855"
     inkscape:window-height="1056"
     inkscape:window-x="65"
     inkscape:window-y="24"
     inkscape:window-maximized="1"
     showguides="true"
     inkscape:guide-bbox="true"
     fit-margin-top="0"
     fit-margin-left="0"
     fit-margin-right="0"
     fit-margin-bottom="0" />
  <defs
     id="defs3966" />
  <metadata
     id="metadata3969">
    <rdf:RDF>
      <cc:Work
         rdf:about="">
        <dc:format>image/svg+xml</dc:format>
        <dc:type
           rdf:resource="http://purl.org/dc/dcmitype/StillImage" />
        <dc:title></dc:title>
      </cc:Work>
    </rdf:RDF>
  </metadata>
  <g
     id="layer1"
     inkscape:groupmode="layer"
     inkscape:label="Layer 1"
     transform="translate(-29.309191,-349.65625)">
    <g
       id="g4645">
      <path
         id="path504"
         d="m 168.79719,469.86659 432,0 0,144 -432,0 z"
         inkscape:connector-curvature="0"
         style="fill:#ffffff;stroke:#000000;stroke-width:2" />
      <path
         id="path506"
         d="m 132.79719,613.86659 36,0 0,-144 -36,0 z"
         inkscape:connector-curvature="0"
         style="fill:#bcbcbc;stroke:#000000;stroke-width:2" />
      <path
         id="path508"
         d="m 600.79719,613.86659 36,0 0,-144 -36,0 z"
         inkscape:connector-curvature="0"
         style="fill:#aeaeae;stroke:#000000;stroke-width:2" />
      <path
         id="path510"
         d="m 312.79719,612.86659 0,37.463 -72,0 0,-37.463"
         inkscape:connector-curvature="0"
         style="fill:#ffffff;stroke:#000000;stroke-width:2" />
      <path
         id="path512"
         d="m 312.79719,470.86659 0,-38.281 -72,0 0,38.281"
         inkscape:connector-curvature="0"
         style="fill:#ffffff;stroke:#000000;stroke-width:2" />
      <path
         id="path514"
         d="m 528.79719,470.86659 0,-38.25 -72,0 0,38.25"
         inkscape:connector-curvature="0"
         style="fill:#ffffff;stroke:#000000;stroke-width:2" />
      <path
         id="path516"
         d="m 528.79719,612.86659 0,37.526 -72,0 0,-37.526"
         inkscape:connector-curvature="0"
         style="fill:#ffffff;stroke:#000000;stroke-width:2" />
      <path
         id="path518"
         d="m 240.79719,685.86659 72,0 0,-36 -72,0 z"
         inkscape:connector-curvature="0"
         style="fill:#bcbcbc;stroke:#000000;stroke-width:2" />
      <path
         id="path520"
         d="m 456.79719,685.86659 72,0 0,-36 -72,0 z"
         inkscape:connector-curvature="0"
         style="fill:#bcbcbc;stroke:#000000;stroke-width:2" />
      <path
         id="path522"
         d="m 456.79719,433.86659 72,0 0,-36 -72,0 z"
         inkscape:connector-curvature="0"
         style="fill:#bcbcbc;stroke:#000000;stroke-width:2" />
      <path
         id="path524"
         d="m 240.79719,433.86659 72,0 0,-36 -72,0 z"
         inkscape:connector-curvature="0"
         style="fill:#bcbcbc;stroke:#000000;stroke-width:2" />
      <g
         id="g526"
         transform="translate(-36.440809,-194.13341)">
        <path
           id="path528"
           d="m 654.238,807.421 0,23.114"
           inkscape:connector-curvature="0"
           style="fill:none;stroke:#000000;stroke-width:2" />
        <g
           id="g530">
          <path
             id="path532"
             d="m 685.738,830.535 -63,0"
             inkscape:connector-curvature="0"
             style="fill:none;stroke:#000000;stroke-width:2" />
          <path
             id="path534"
             d="m 679.438,836.035 -50.4,0"
             inkscape:connector-curvature="0"
             style="fill:none;stroke:#000000;stroke-width:2" />
          <path
             id="path536"
             d="m 673.138,841.535 -37.8,0"
             inkscape:connector-curvature="0"
             style="fill:none;stroke:#000000;stroke-width:2" />
          <path
             id="path538"
             d="m 666.838,847.035 -25.2,0"
             inkscape:connector-curvature="0"
             style="fill:none;stroke:#000000;stroke-width:2" />
        </g>
      </g>
      <path
         id="path540"
         d="m 491.74219,377.69859 196.055,0"
         inkscape:connector-curvature="0"
         style="fill:none;stroke:#000000;stroke-width:2" />
      <path
         id="path542"
         d="m 714.79719,543.83159 c 0,14.912 -12.088,27 -27,27 -14.912,0 -27,-12.088 -27,-27 0,-14.912 12.088,-27 27,-27 14.912,0 27,12.088 27,27 z"
         inkscape:connector-curvature="0"
         style="fill:#ffffff;stroke:#000000;stroke-width:2" />
      <path
         id="path544"
         d="m 491.74219,701.69859 196.055,0"
         inkscape:connector-curvature="0"
         style="fill:none;stroke:#000000;stroke-width:2" />
      <path
         id="path546"
         d="m 687.79719,377.69859 0,139.133"
         inkscape:connector-curvature="0"
         style="fill:none;stroke:#000000;stroke-width:2" />
      <path
         id="path548"
         d="m 687.79719,701.69859 0,-130.867"
         inkscape:connector-curvature="0"
         style="fill:none;stroke:#000000;stroke-width:2" />
      <path
         id="path550"
         d="m 491.74219,378.53059 0,20.168"
         inkscape:connector-curvature="0"
         style="fill:none;stroke:#000000;stroke-width:2" />
      <path
         id="path552"
         d="m 491.74219,685.86659 0,15.832"
         inkscape:connector-curvature="0"
         style="fill:none;stroke:#000000;stroke-width:2" />
      <text
         id="text557"
         xml:space="preserve"
         font-size="24"
         style="font-size:24px;text-anchor:middle;font-family:American Typewriter"
         x="460.85419"
         y="522.10358"><tspan
           id="tspan559">magnetic</tspan><tspan
           id="tspan561"
           y="550.10358"
           x="460.85419">field</tspan></text>
      <path
         id="path566"
         d="m 276.05219,377.69859 215.69,0"
         inkscape:connector-curvature="0"
         style="fill:none;stroke:#000000;stroke-width:2" />
      <path
         id="path568"
         d="m 276.05219,378.53059 0,20.168"
         inkscape:connector-curvature="0"
         style="fill:none;stroke:#000000;stroke-width:2" />
      <path
         id="path570"
         d="m 406.54719,377.66359 c 0,14.912 -12.088,27 -27,27 -14.912,0 -27,-12.088 -27,-27 0,-14.912 12.088,-27 27,-27 14.912,0 27,12.088 27,27 z"
         inkscape:connector-curvature="0"
         style="fill:#ffffff;stroke:#000000;stroke-width:2" />
      <text
         id="text575"
         xml:space="preserve"
         font-size="24"
         style="font-size:24px;text-anchor:middle;font-family:American Typewriter"
         x="278.32718"
         y="425.6796"><tspan
           id="tspan577">1</tspan></text>
      <text
         id="text579"
         xml:space="preserve"
         font-size="24"
         style="font-size:24px;text-anchor:middle;font-family:American Typewriter"
         x="492.97018"
         y="425.4556"><tspan
           id="tspan581">2</tspan></text>
      <text
         id="text583"
         xml:space="preserve"
         font-size="24"
         style="font-size:24px;text-anchor:middle;font-family:American Typewriter"
         x="274.41418"
         y="674.23157"><tspan
           id="tspan585">3</tspan></text>
      <text
         id="text587"
         xml:space="preserve"
         font-size="24"
         style="font-size:24px;text-anchor:middle;font-family:American Typewriter"
         x="492.97018"
         y="674.00757"><tspan
           id="tspan589">4</tspan></text>
      <text
         id="text591"
         xml:space="preserve"
         font-size="24"
         style="font-size:24px;text-anchor:middle;font-family:American Typewriter"
         x="151.83418"
         y="507.52258"><tspan
           id="tspan593">5</tspan></text>
      <text
         id="text595"
         xml:space="preserve"
         font-size="24"
         style="font-size:24px;text-anchor:middle;font-family:American Typewriter"
         x="620.86121"
         y="508.5336"><tspan
           id="tspan597">6</tspan></text>
      <path
         style="fill:none;stroke:#000000;stroke-width:2"
         inkscape:connector-curvature="0"
         d="m 132.79719,542.35859 -44.999999,0"
         id="path601" />
      <path
         style="fill:#ffffff;stroke:#000000;stroke-width:2"
         inkscape:connector-curvature="0"
         d="m 87.797191,544.46059 c 0,14.912 -12.088,27 -26.9999,27 -14.9117,0 -27,-12.088 -27,-27 0,-14.912 12.0883,-27 27,-27 14.9119,0 26.9999,12.088 26.9999,27 z"
         id="path603" />
      <path
         style="fill:none;stroke:#000000;stroke-width:2"
         inkscape:connector-curvature="0"
         d="m 60.797291,570.83159 0,65.57"
         id="path605" />
      <g
         id="g607"
         transform="translate(-36.440809,-194.13341)">
        <path
           style="fill:none;stroke:#000000;stroke-width:2"
           inkscape:connector-curvature="0"
           d="m 128.738,830.535 -62.9999,0"
           id="path609" />
        <path
           style="fill:none;stroke:#000000;stroke-width:2"
           inkscape:connector-curvature="0"
           d="m 122.438,836.035 -50.3999,0"
           id="path611" />
        <path
           style="fill:none;stroke:#000000;stroke-width:2"
           inkscape:connector-curvature="0"
           d="m 116.138,841.535 -37.7999,0"
           id="path613" />
        <path
           style="fill:none;stroke:#000000;stroke-width:2"
           inkscape:connector-curvature="0"
           d="m 109.838,847.035 -25.1999,0"
           id="path615" />
      </g>
      <g
         transform="matrix(0.66663279,0,0,0.66663279,162.39922,147.81006)"
         id="g4231">
        <g
           style="font-style:normal;font-variant:normal;font-weight:normal;font-stretch:normal;letter-spacing:normal;word-spacing:normal;text-anchor:start;fill:none;stroke:#000000;stroke-linecap:butt;stroke-linejoin:miter;stroke-miterlimit:10.43299961;stroke-opacity:1;stroke-dasharray:none;stroke-dashoffset:0"
           id="content"
           transform="matrix(1.0629921,0,0,-1.0629921,-186.02362,789.27165)"
           xml:space="preserve"
           stroke-miterlimit="10.433"
           font-style="normal"
           font-variant="normal"
           font-weight="normal"
           font-stretch="normal"
           font-size-adjust="none"
           letter-spacing="normal"
           word-spacing="normal"><path
             style="fill:#000000;stroke-width:0"
             inkscape:connector-curvature="0"
             d="m 486.8,434.54 0.23,0.36 0.23,0.33 0.22,0.31 0.22,0.29 0.22,0.28 0.22,0.25 0.22,0.24 0.22,0.22 0.21,0.2 0.21,0.19 0.21,0.17 0.2,0.16 0.21,0.14 0.2,0.13 0.21,0.12 0.19,0.11 0.2,0.09 0.2,0.09 0.19,0.07 0.2,0.07 0.19,0.06 0.19,0.05 0.18,0.04 0.19,0.03 0.18,0.03 0.19,0.03 0.36,0.04 0.35,0.02 0.35,0.02 c 0.6,0.05 0.64,0.89 0.64,0.96 0,0.39 -0.25,0.59 -0.64,0.59 -1.3,0 -2.75,-0.16 -4.09,-0.16 -1.64,0 -3.35,0.16 -4.94,0.16 -0.3,0 -0.94,0 -0.94,-0.95 0,-0.55 0.46,-0.6 0.8,-0.6 1.34,-0.09 2.3,-0.59 2.3,-1.64 0,-0.75 -0.75,-1.84 -0.75,-1.89 l -15.3,-24.31 -3.39,26.34 c 0,0.85 1.14,1.5 3.44,1.5 0.7,0 1.25,0 1.25,1 0,0.44 -0.41,0.55 -0.71,0.55 -1.98,0 -4.14,-0.16 -6.17,-0.16 -0.9,0 -1.84,0.05 -2.75,0.05 -0.89,0 -1.84,0.11 -2.69,0.11 -0.34,0 -0.93,0 -0.93,-0.95 0,-0.6 0.43,-0.6 1.23,-0.6 2.8,0 2.84,-0.45 3,-1.68 l 3.92,-30.75 c 0.16,-1 0.36,-1.14 1,-1.14 0.8,0 1,0.25 1.41,0.89 z"
             id="path4234" /><path
             style="fill:#000000;stroke-width:0"
             inkscape:connector-curvature="0"
             d="m 498.92,419.7 0.03,0.12 0.02,0.11 0.03,0.1 0.03,0.1 0.03,0.1 0.03,0.09 0.04,0.08 0.04,0.08 0.04,0.08 0.04,0.07 0.05,0.07 0.06,0.06 0.06,0.06 0.07,0.06 0.07,0.05 0.09,0.05 0.09,0.04 0.1,0.04 0.11,0.04 0.12,0.03 0.07,0.02 0.06,0.01 0.07,0.02 0.08,0.01 0.07,0.01 0.08,0.01 0.08,0.02 0.09,0.01 0.09,0 0.09,0.01 0.1,0.01 0.1,0.01 0.1,0.01 0.11,0 0.11,0.01 0.11,0 0.12,0.01 0.12,0 0.13,0 0.13,0 0.13,0.01 0.14,0 0.15,0 0.14,0 c 1.08,0 1.42,0 1.42,0.76 0,0.04 -0.03,0.49 -0.59,0.49 -0.8,0 -1.73,-0.06 -2.58,-0.11 -0.87,-0.03 -1.9,-0.03 -2.78,-0.03 -0.73,0 -1.67,0.03 -2.4,0.03 -0.74,0 -1.57,0.11 -2.27,0.11 -0.2,0 -0.73,0 -0.73,-0.77 0,-0.48 0.42,-0.48 1.12,-0.48 0.03,0 0.69,0 1.31,-0.08 0.74,-0.06 0.82,-0.14 0.82,-0.48 0,-0.07 0,-0.24 -0.15,-0.77 l -4.64,-18.5 c -0.31,-1.19 -0.39,-1.47 -3.06,-1.47 -0.59,0 -1.05,0 -1.05,-0.73 0,-0.52 0.43,-0.52 1.05,-0.52 h 17.52 c 0.87,0 0.9,0.03 1.18,0.7 0.36,0.94 2.97,7.69 2.97,7.97 0,0.11 -0.07,0.5 -0.59,0.5 -0.42,0 -0.48,-0.18 -0.7,-0.73 -1.32,-3.31 -2.86,-7.19 -9.24,-7.19 h -3.94 c -1.07,0 -1.1,0.05 -1.1,0.36 0,0.03 0,0.2 0.14,0.72 z"
             id="path4236" /></g>      </g>
      <g
         transform="matrix(0.64381404,0,0,0.64381404,473.27141,322.14779)"
         id="g4368">
        <g
           style="font-style:normal;font-variant:normal;font-weight:normal;font-stretch:normal;letter-spacing:normal;word-spacing:normal;text-anchor:start;fill:none;stroke:#000000;stroke-linecap:butt;stroke-linejoin:miter;stroke-miterlimit:10.43299961;stroke-opacity:1;stroke-dasharray:none;stroke-dashoffset:0"
           word-spacing="normal"
           letter-spacing="normal"
           font-size-adjust="none"
           font-stretch="normal"
           font-weight="normal"
           font-variant="normal"
           font-style="normal"
           stroke-miterlimit="10.433"
           xml:space="preserve"
           transform="matrix(1.0629921,0,0,-1.0629921,-186.02362,789.27165)"
           id="g4370"><path
             style="fill:#000000;stroke-width:0"
             inkscape:connector-curvature="0"
             id="path4372"
             d="m 486.8,434.54 0.23,0.36 0.23,0.33 0.22,0.31 0.22,0.29 0.22,0.28 0.22,0.25 0.22,0.24 0.22,0.22 0.21,0.2 0.21,0.19 0.21,0.17 0.2,0.16 0.21,0.14 0.2,0.13 0.21,0.12 0.19,0.11 0.2,0.09 0.2,0.09 0.19,0.07 0.2,0.07 0.19,0.06 0.19,0.05 0.18,0.04 0.19,0.03 0.18,0.03 0.19,0.03 0.36,0.04 0.35,0.02 0.35,0.02 c 0.6,0.05 0.64,0.89 0.64,0.96 0,0.39 -0.25,0.59 -0.64,0.59 -1.3,0 -2.75,-0.16 -4.09,-0.16 -1.64,0 -3.35,0.16 -4.94,0.16 -0.3,0 -0.94,0 -0.94,-0.95 0,-0.55 0.46,-0.6 0.8,-0.6 1.34,-0.09 2.3,-0.59 2.3,-1.64 0,-0.75 -0.75,-1.84 -0.75,-1.89 l -15.3,-24.31 -3.39,26.34 c 0,0.85 1.14,1.5 3.44,1.5 0.7,0 1.25,0 1.25,1 0,0.44 -0.41,0.55 -0.71,0.55 -1.98,0 -4.14,-0.16 -6.17,-0.16 -0.9,0 -1.84,0.05 -2.75,0.05 -0.89,0 -1.84,0.11 -2.69,0.11 -0.34,0 -0.93,0 -0.93,-0.95 0,-0.6 0.43,-0.6 1.23,-0.6 2.8,0 2.84,-0.45 3,-1.68 l 3.92,-30.75 c 0.16,-1 0.36,-1.14 1,-1.14 0.8,0 1,0.25 1.41,0.89 z" /><path
             style="fill:#000000;stroke-width:0"
             inkscape:connector-curvature="0"
             id="path4374"
             d="m 513.85,419.73 0.04,0.12 0.02,0.11 0.03,0.11 0.03,0.1 0.03,0.1 0.03,0.09 0.03,0.08 0.04,0.08 0.03,0.08 0.04,0.07 0.04,0.07 0.05,0.06 0.05,0.06 0.06,0.05 0.06,0.05 0.07,0.05 0.07,0.04 0.08,0.04 0.09,0.03 0.1,0.03 0.1,0.03 0.06,0.01 0.06,0.01 0.06,0.02 0.06,0.01 0.07,0.01 0.07,0 0.07,0.01 0.07,0.01 0.08,0.01 0.08,0 0.08,0.01 0.09,0.01 0.09,0 0.09,0 0.09,0.01 0.1,0 0.1,0 0.11,0.01 0.11,0 0.11,0 0.11,0 0.12,0 c 0.77,0 1.19,0 1.19,0.76 0,0.14 -0.11,0.49 -0.56,0.49 -1.02,0 -3.55,-0.14 -4.56,-0.14 -0.6,0 -1.82,0 -2.41,0.03 -0.69,0.05 -1.53,0.11 -2.19,0.11 -0.22,0 -0.73,0 -0.73,-0.77 0,-0.48 0.42,-0.48 1.11,-0.48 0.03,0 0.7,0 1.33,-0.08 0.73,-0.06 0.79,-0.14 0.79,-0.48 0,-0.04 0,-0.24 -0.14,-0.77 l -2.04,-8.22 h -11.68 l 2.02,8.08 c 0.31,1.19 0.39,1.47 3.06,1.47 0.6,0 1.05,0 1.05,0.76 0,0.14 -0.11,0.49 -0.56,0.49 -1,0 -3.55,-0.14 -4.57,-0.14 -0.59,0 -1.81,0 -2.4,0.03 -0.69,0.05 -1.53,0.11 -2.19,0.11 -0.2,0 -0.73,0 -0.73,-0.77 0,-0.48 0.42,-0.48 1.12,-0.48 0.03,0 0.69,0 1.31,-0.08 0.74,-0.06 0.82,-0.14 0.82,-0.48 0,-0.07 0,-0.24 -0.15,-0.77 l -4.64,-18.5 c -0.28,-1.19 -0.34,-1.47 -3.06,-1.47 -0.59,0 -1.05,0 -1.05,-0.73 0,-0.35 0.24,-0.52 0.57,-0.52 1,0 3.51,0.14 4.51,0.14 0.6,0 1.82,0 2.41,-0.03 0.7,-0.05 1.58,-0.11 2.23,-0.11 0.18,0 0.74,0 0.74,0.74 0,0.51 -0.35,0.51 -1.16,0.51 -0.55,0 -0.69,0 -1.31,0.08 -0.78,0.09 -0.78,0.17 -0.78,0.52 0,0.03 0,0.25 0.14,0.76 l 2.31,9.14 h 11.67 l -2.26,-9.03 c -0.28,-1.19 -0.36,-1.47 -3.08,-1.47 -0.58,0 -1.03,0 -1.03,-0.73 0,-0.35 0.23,-0.52 0.54,-0.52 1.02,0 3.52,0.14 4.54,0.14 0.59,0 1.81,0 2.4,-0.03 0.71,-0.05 1.56,-0.11 2.24,-0.11 0.17,0 0.73,0 0.73,0.74 0,0.51 -0.36,0.51 -1.16,0.51 -0.56,0 -0.7,0 -1.32,0.08 -0.77,0.09 -0.77,0.17 -0.77,0.52 0,0.21 0.11,0.56 0.14,0.76 z" /></g>      </g>
      <g
         transform="matrix(0.7513698,0,0,0.7513698,-174.37013,289.90097)"
         id="g4514">
        <g
           style="font-style:normal;font-variant:normal;font-weight:normal;font-stretch:normal;letter-spacing:normal;word-spacing:normal;text-anchor:start;fill:none;stroke:#000000;stroke-linecap:butt;stroke-linejoin:miter;stroke-miterlimit:10.43299961;stroke-opacity:1;stroke-dasharray:none;stroke-dashoffset:0"
           id="g4516"
           transform="matrix(1.0629921,0,0,-1.0629921,-186.02362,789.27165)"
           xml:space="preserve"
           stroke-miterlimit="10.433"
           font-style="normal"
           font-variant="normal"
           font-weight="normal"
           font-stretch="normal"
           font-size-adjust="none"
           letter-spacing="normal"
           word-spacing="normal"><path
             style="fill:#000000;stroke-width:0"
             inkscape:connector-curvature="0"
             d="m 474.16,436.39 0.04,0.16 0.04,0.16 0.04,0.15 0.04,0.14 0.04,0.14 0.04,0.13 0.05,0.12 0.05,0.11 0.05,0.11 0.06,0.11 0.07,0.09 0.07,0.09 0.08,0.09 0.08,0.08 0.1,0.07 0.1,0.07 0.12,0.06 0.12,0.06 0.14,0.05 0.15,0.05 0.17,0.04 0.08,0.02 0.09,0.02 0.1,0.02 0.1,0.02 0.1,0.01 0.1,0.02 0.11,0.01 0.12,0.01 0.12,0.02 0.12,0.01 0.13,0.01 0.13,0 0.13,0.01 0.14,0.01 0.15,0.01 0.15,0 0.16,0 0.16,0.01 0.16,0 0.17,0 0.18,0 0.18,0 c 1.19,0 1.6,0 1.6,0.96 0,0.59 -0.55,0.59 -0.75,0.59 -1.46,0 -5.15,-0.16 -6.58,-0.16 -1.5,0 -5.13,0.16 -6.63,0.16 -0.34,0 -1,0 -1,-1 0,-0.55 0.46,-0.55 1.39,-0.55 2.1,0 3.44,0 3.44,-0.95 0,-0.25 0,-0.34 -0.09,-0.8 l -6.72,-26.84 c -0.46,-1.84 -0.61,-2.34 -4.55,-2.34 -1.14,0 -1.59,0 -1.59,-1 0,-0.55 0.61,-0.55 0.75,-0.55 1.45,0 5.08,0.16 6.53,0.16 1.5,0 5.19,-0.16 6.67,-0.16 0.41,0 1,0 1,0.95 0,0.6 -0.41,0.6 -1.5,0.6 -0.89,0 -1.14,0 -2.14,0.09 -1.05,0.11 -1.23,0.3 -1.23,0.84 0,0.41 0.09,0.8 0.18,1.16 z"
             id="path4518" /></g>      </g>
      <path
         id="path570-4"
         d="m 425.35451,559.11222 c 0,9.18686 -7.44707,16.63393 -16.63393,16.63393 -9.18686,0 -16.63393,-7.44707 -16.63393,-16.63393 0,-9.18686 7.44707,-16.63393 16.63393,-16.63393 9.18686,0 16.63393,7.44707 16.63393,16.63393 z"
         inkscape:connector-curvature="0"
         style="fill:#ffffff;stroke:#000000;stroke-width:1.23214293" />
      <path
         transform="matrix(0.09393263,0,0,0.09393263,375.00679,546.20846)"
         d="m 392.12258,134.68071 c 0,21.70154 -17.59258,39.29412 -39.29412,39.29412 -21.70154,0 -39.29412,-17.59258 -39.29412,-39.29412 0,-21.70154 17.59258,-39.294121 39.29412,-39.294121 21.70154,0 39.29412,17.592581 39.29412,39.294121 z"
         sodipodi:ry="39.294121"
         sodipodi:rx="39.294121"
         sodipodi:cy="134.68071"
         sodipodi:cx="352.82846"
         id="path4637"
         style="fill:#000000"
         sodipodi:type="arc" />
    </g>
  </g>
</svg>
