<?xml version="1.0" encoding="UTF-8" standalone="no"?>
<!-- Created with Inkscape (http://www.inkscape.org/) -->

<svg
   xmlns:dc="http://purl.org/dc/elements/1.1/"
   xmlns:cc="http://creativecommons.org/ns#"
   xmlns:rdf="http://www.w3.org/1999/02/22-rdf-syntax-ns#"
   xmlns:svg="http://www.w3.org/2000/svg"
   xmlns="http://www.w3.org/2000/svg"
   xmlns:sodipodi="http://sodipodi.sourceforge.net/DTD/sodipodi-0.dtd"
   xmlns:inkscape="http://www.inkscape.org/namespaces/inkscape"
   width="548.745"
   height="291.83157"
   id="svg8774"
   version="1.1"
   inkscape:version="0.48.4 r9939"
   sodipodi:docname="New document 25">
  <defs
     id="defs8776" />
  <sodipodi:namedview
     id="base"
     pagecolor="#ffffff"
     bordercolor="#666666"
     borderopacity="1.0"
     inkscape:pageopacity="0.0"
     inkscape:pageshadow="2"
     inkscape:zoom="0.86377106"
     inkscape:cx="449.60833"
     inkscape:cy="256.47749"
     inkscape:document-units="px"
     inkscape:current-layer="layer1"
     showgrid="false"
     fit-margin-top="0"
     fit-margin-left="0"
     fit-margin-right="0"
     fit-margin-bottom="0"
     inkscape:window-width="1855"
     inkscape:window-height="1056"
     inkscape:window-x="65"
     inkscape:window-y="24"
     inkscape:window-maximized="1" />
  <metadata
     id="metadata8779">
    <rdf:RDF>
      <cc:Work
         rdf:about="">
        <dc:format>image/svg+xml</dc:format>
        <dc:type
           rdf:resource="http://purl.org/dc/dcmitype/StillImage" />
        <dc:title></dc:title>
      </cc:Work>
    </rdf:RDF>
  </metadata>
  <g
     inkscape:label="Layer 1"
     inkscape:groupmode="layer"
     id="layer1"
     transform="translate(77.56109,-490.82701)">
    <g
       transform="translate(-665.36609,371.81739)"
       id="g620">
      <path
         style="fill:#c9c9c9"
         inkscape:connector-curvature="0"
         d="m 587.805,155.919 548.745,0 0,223.5 -548.745,0"
         id="path622" />
      <text
         style="font-size:24px;text-anchor:middle;font-family:American Typewriter"
         font-size="24"
         transform="translate(863.631,265.408)"
         xml:space="preserve"
         id="text624"><tspan
           id="tspan626">cyclotron orbits</tspan></text>
      <g
         id="g628">
        <path
           style="fill:none;stroke:#000000;stroke-width:2"
           inkscape:connector-curvature="0"
           d="m 700.055,223.544 c 0,9.941 -8.059,18 -18,18 -9.941,0 -18,-8.059 -18,-18 0,-9.941 8.059,-18 18,-18 9.941,0 18,8.059 18,18 z"
           id="path630" />
        <path
           style="fill:none;stroke:#000000;stroke-width:2"
           inkscape:connector-curvature="0"
           d="m 693.138,230.338 c 3.054,-1.294 5.468,-3.845 6.917,-6.794 1.885,3.735 2.299,8.112 1.502,12.191"
           id="path632" />
      </g>
      <g
         id="g634">
        <path
           style="fill:none;stroke:#000000;stroke-width:2"
           inkscape:connector-curvature="0"
           d="m 772.055,223.544 c 0,9.941 -8.059,18 -18,18 -9.941,0 -18,-8.059 -18,-18 0,-9.941 8.059,-18 18,-18 9.941,0 18,8.059 18,18 z"
           id="path636" />
        <path
           style="fill:none;stroke:#000000;stroke-width:2"
           inkscape:connector-curvature="0"
           d="m 765.138,230.338 c 3.054,-1.294 5.468,-3.845 6.917,-6.794 1.885,3.735 2.299,8.112 1.502,12.191"
           id="path638" />
      </g>
      <g
         id="g640">
        <path
           style="fill:none;stroke:#000000;stroke-width:2"
           inkscape:connector-curvature="0"
           d="m 844.055,223.544 c 0,9.941 -8.059,18 -18,18 -9.941,0 -18,-8.059 -18,-18 0,-9.941 8.059,-18 18,-18 9.941,0 18,8.059 18,18 z"
           id="path642" />
        <path
           style="fill:none;stroke:#000000;stroke-width:2"
           inkscape:connector-curvature="0"
           d="m 837.138,230.338 c 3.054,-1.294 5.468,-3.845 6.917,-6.794 1.885,3.735 2.299,8.112 1.502,12.191"
           id="path644" />
      </g>
      <g
         id="g646">
        <path
           style="fill:none;stroke:#000000;stroke-width:2"
           inkscape:connector-curvature="0"
           d="m 916.055,223.544 c 0,9.941 -8.059,18 -18,18 -9.941,0 -18,-8.059 -18,-18 0,-9.941 8.059,-18 18,-18 9.941,0 18,8.059 18,18 z"
           id="path648" />
        <path
           style="fill:none;stroke:#000000;stroke-width:2"
           inkscape:connector-curvature="0"
           d="m 909.138,230.338 c 3.054,-1.294 5.468,-3.845 6.917,-6.794 1.885,3.735 2.299,8.112 1.502,12.191"
           id="path650" />
      </g>
      <g
         id="g652">
        <path
           style="fill:none;stroke:#000000;stroke-width:2"
           inkscape:connector-curvature="0"
           d="m 988.055,223.544 c 0,9.941 -8.059,18 -18,18 -9.941,0 -18,-8.059 -18,-18 0,-9.941 8.059,-18 18,-18 9.941,0 18,8.059 18,18 z"
           id="path654" />
        <path
           style="fill:none;stroke:#000000;stroke-width:2"
           inkscape:connector-curvature="0"
           d="m 981.138,230.338 c 3.054,-1.294 5.468,-3.845 6.917,-6.794 1.885,3.735 2.299,8.112 1.502,12.191"
           id="path656" />
      </g>
      <g
         id="g658">
        <path
           style="fill:none;stroke:#000000;stroke-width:2"
           inkscape:connector-curvature="0"
           d="m 1060.05,223.544 c 0,9.941 -8.05,18 -18,18 -9.94,0 -18,-8.059 -18,-18 0,-9.941 8.06,-18 18,-18 9.95,0 18,8.059 18,18 z"
           id="path660" />
        <path
           style="fill:none;stroke:#000000;stroke-width:2"
           inkscape:connector-curvature="0"
           d="m 1053.14,230.338 c 3.05,-1.294 5.47,-3.845 6.91,-6.794 1.89,3.735 2.3,8.112 1.51,12.191"
           id="path662" />
      </g>
      <g
         id="g664">
        <path
           style="fill:none;stroke:#000000;stroke-width:2"
           inkscape:connector-curvature="0"
           d="m 700.055,295.544 c 0,9.941 -8.059,18 -18,18 -9.941,0 -18,-8.059 -18,-18 0,-9.941 8.059,-18 18,-18 9.941,0 18,8.059 18,18 z"
           id="path666" />
        <path
           style="fill:none;stroke:#000000;stroke-width:2"
           inkscape:connector-curvature="0"
           d="m 693.138,302.338 c 3.054,-1.294 5.468,-3.845 6.917,-6.794 1.885,3.735 2.299,8.112 1.502,12.191"
           id="path668" />
      </g>
      <g
         id="g670">
        <path
           style="fill:none;stroke:#000000;stroke-width:2"
           inkscape:connector-curvature="0"
           d="m 772.055,295.544 c 0,9.941 -8.059,18 -18,18 -9.941,0 -18,-8.059 -18,-18 0,-9.941 8.059,-18 18,-18 9.941,0 18,8.059 18,18 z"
           id="path672" />
        <path
           style="fill:none;stroke:#000000;stroke-width:2"
           inkscape:connector-curvature="0"
           d="m 765.138,302.338 c 3.054,-1.294 5.468,-3.845 6.917,-6.794 1.885,3.735 2.299,8.112 1.502,12.191"
           id="path674" />
      </g>
      <g
         id="g676">
        <path
           style="fill:none;stroke:#000000;stroke-width:2"
           inkscape:connector-curvature="0"
           d="m 844.055,295.544 c 0,9.941 -8.059,18 -18,18 -9.941,0 -18,-8.059 -18,-18 0,-9.941 8.059,-18 18,-18 9.941,0 18,8.059 18,18 z"
           id="path678" />
        <path
           style="fill:none;stroke:#000000;stroke-width:2"
           inkscape:connector-curvature="0"
           d="m 837.138,302.338 c 3.054,-1.294 5.468,-3.845 6.917,-6.794 1.885,3.735 2.299,8.112 1.502,12.191"
           id="path680" />
      </g>
      <g
         id="g682">
        <path
           style="fill:none;stroke:#000000;stroke-width:2"
           inkscape:connector-curvature="0"
           d="m 916.055,295.544 c 0,9.941 -8.059,18 -18,18 -9.941,0 -18,-8.059 -18,-18 0,-9.941 8.059,-18 18,-18 9.941,0 18,8.059 18,18 z"
           id="path684" />
        <path
           style="fill:none;stroke:#000000;stroke-width:2"
           inkscape:connector-curvature="0"
           d="m 909.138,302.338 c 3.054,-1.294 5.468,-3.845 6.917,-6.794 1.885,3.735 2.299,8.112 1.502,12.191"
           id="path686" />
      </g>
      <g
         id="g688">
        <path
           style="fill:none;stroke:#000000;stroke-width:2"
           inkscape:connector-curvature="0"
           d="m 988.055,295.544 c 0,9.941 -8.059,18 -18,18 -9.941,0 -18,-8.059 -18,-18 0,-9.941 8.059,-18 18,-18 9.941,0 18,8.059 18,18 z"
           id="path690" />
        <path
           style="fill:none;stroke:#000000;stroke-width:2"
           inkscape:connector-curvature="0"
           d="m 981.138,302.338 c 3.054,-1.294 5.468,-3.845 6.917,-6.794 1.885,3.735 2.299,8.112 1.502,12.191"
           id="path692" />
      </g>
      <g
         id="g694">
        <path
           style="fill:none;stroke:#000000;stroke-width:2"
           inkscape:connector-curvature="0"
           d="m 1060.05,295.544 c 0,9.941 -8.05,18 -18,18 -9.94,0 -18,-8.059 -18,-18 0,-9.941 8.06,-18 18,-18 9.95,0 18,8.059 18,18 z"
           id="path696" />
        <path
           style="fill:none;stroke:#000000;stroke-width:2"
           inkscape:connector-curvature="0"
           d="m 1053.14,302.338 c 3.05,-1.294 5.47,-3.845 6.91,-6.794 1.89,3.735 2.3,8.112 1.51,12.191"
           id="path698" />
      </g>
      <text
         style="font-size:24px;text-anchor:middle;font-family:American Typewriter"
         font-size="24"
         transform="translate(884.472,405.849)"
         xml:space="preserve"
         id="text700"><tspan
           id="tspan702">left-moving skipping orbit</tspan></text>
      <path
         style="fill:none;stroke:#000000;stroke-width:2"
         inkscape:connector-curvature="0"
         d="m 706.805,385.89 22.425,11.654"
         id="path704" />
      <path
         style="fill:none;stroke:#000000;stroke-width:2"
         inkscape:connector-curvature="0"
         d="M 706.805,154.302 729.23,137.204"
         id="path706" />
      <text
         style="font-size:24px;text-anchor:middle;font-family:American Typewriter"
         font-size="24"
         transform="translate(894.071,137.244)"
         xml:space="preserve"
         id="text708"><tspan
           id="tspan710">right-moving skipping orbit</tspan></text>
      <g
         id="g712">
        <path
           style="fill:none;stroke:#000000;stroke-width:2"
           inkscape:connector-curvature="0"
           d="m 627.055,378.45 467.995,0"
           id="path714" />
        <path
           style="fill:none;stroke:#000000;stroke-width:2;stroke-dasharray:5"
           inkscape:connector-curvature="0"
           d="m 591.055,378.301 36,0.299"
           id="path716" />
        <path
           style="fill:none;stroke:#000000;stroke-width:2;stroke-dasharray:5"
           inkscape:connector-curvature="0"
           d="m 1095.05,378.301 36,0.299"
           id="path718" />
      </g>
      <g
         id="g720">
        <g
           id="g722">
          <path
             style="fill:none;stroke:#ff0004;stroke-width:2"
             inkscape:connector-curvature="0"
             d="m 1095.05,376.867 c 0,-9.941 -8.05,-18 -18,-18 -9.94,0 -18,8.059 -18,18"
             id="path724" />
          <path
             style="fill:none;stroke:#ff0004;stroke-width:2"
             inkscape:connector-curvature="0"
             d="m 1057.55,364.676 c -0.79,4.079 -0.38,8.456 1.5,12.191 1.45,-2.949 3.87,-5.5 6.92,-6.794"
             id="path726" />
        </g>
        <g
           id="g728">
          <path
             style="fill:none;stroke:#ff0004;stroke-width:2"
             inkscape:connector-curvature="0"
             d="m 1059.05,376.867 c 0,-9.941 -8.05,-18 -18,-18 -9.94,0 -18,8.059 -18,18"
             id="path730" />
          <path
             style="fill:none;stroke:#ff0004;stroke-width:2"
             inkscape:connector-curvature="0"
             d="m 1021.55,364.676 c -0.79,4.079 -0.38,8.456 1.5,12.191 1.45,-2.949 3.87,-5.5 6.92,-6.794"
             id="path732" />
        </g>
        <g
           id="g734">
          <path
             style="fill:none;stroke:#ff0004;stroke-width:2"
             inkscape:connector-curvature="0"
             d="m 1023.05,376.867 c 0,-9.941 -8.05,-18 -18,-18 -9.936,0 -17.995,8.059 -17.995,18"
             id="path736" />
          <path
             style="fill:none;stroke:#ff0004;stroke-width:2"
             inkscape:connector-curvature="0"
             d="m 985.553,364.676 c -0.797,4.079 -0.384,8.456 1.502,12.191 1.449,-2.949 3.862,-5.5 6.917,-6.794"
             id="path738" />
        </g>
        <g
           id="g740">
          <path
             style="fill:none;stroke:#ff0004;stroke-width:2"
             inkscape:connector-curvature="0"
             d="m 987.055,376.867 c 0,-9.941 -8.059,-18 -18,-18 -9.941,0 -18,8.059 -18,18"
             id="path742" />
          <path
             style="fill:none;stroke:#ff0004;stroke-width:2"
             inkscape:connector-curvature="0"
             d="m 949.553,364.676 c -0.797,4.079 -0.384,8.456 1.502,12.191 1.449,-2.949 3.862,-5.5 6.917,-6.794"
             id="path744" />
        </g>
        <g
           id="g746">
          <path
             style="fill:none;stroke:#ff0004;stroke-width:2"
             inkscape:connector-curvature="0"
             d="m 951.055,376.867 c 0,-9.941 -8.059,-18 -18,-18 -9.941,0 -18,8.059 -18,18"
             id="path748" />
          <path
             style="fill:none;stroke:#ff0004;stroke-width:2"
             inkscape:connector-curvature="0"
             d="m 913.553,364.676 c -0.797,4.079 -0.384,8.456 1.502,12.191 1.449,-2.949 3.862,-5.5 6.917,-6.794"
             id="path750" />
        </g>
        <g
           id="g752">
          <path
             style="fill:none;stroke:#ff0004;stroke-width:2"
             inkscape:connector-curvature="0"
             d="m 915.055,376.867 c 0,-9.941 -8.059,-18 -18,-18 -9.941,0 -18,8.059 -18,18"
             id="path754" />
          <path
             style="fill:none;stroke:#ff0004;stroke-width:2"
             inkscape:connector-curvature="0"
             d="m 877.553,364.676 c -0.797,4.079 -0.384,8.456 1.502,12.191 1.449,-2.949 3.862,-5.5 6.917,-6.794"
             id="path756" />
        </g>
        <g
           id="g758">
          <path
             style="fill:none;stroke:#ff0004;stroke-width:2"
             inkscape:connector-curvature="0"
             d="m 879.055,376.867 c 0,-9.941 -8.059,-18 -18,-18 -9.941,0 -18,8.059 -18,18"
             id="path760" />
          <path
             style="fill:none;stroke:#ff0004;stroke-width:2"
             inkscape:connector-curvature="0"
             d="m 841.553,364.676 c -0.797,4.079 -0.384,8.456 1.502,12.191 1.449,-2.949 3.862,-5.5 6.917,-6.794"
             id="path762" />
        </g>
        <g
           id="g764">
          <path
             style="fill:none;stroke:#ff0004;stroke-width:2"
             inkscape:connector-curvature="0"
             d="m 843.055,376.867 c 0,-9.941 -8.059,-18 -18,-18 -9.941,0 -18,8.059 -18,18"
             id="path766" />
          <path
             style="fill:none;stroke:#ff0004;stroke-width:2"
             inkscape:connector-curvature="0"
             d="m 805.553,364.676 c -0.797,4.079 -0.384,8.456 1.502,12.191 1.449,-2.949 3.862,-5.5 6.917,-6.794"
             id="path768" />
        </g>
        <g
           id="g770">
          <path
             style="fill:none;stroke:#ff0004;stroke-width:2"
             inkscape:connector-curvature="0"
             d="m 807.055,376.867 c 0,-9.941 -8.059,-18 -18,-18 -9.941,0 -18,8.059 -18,18"
             id="path772" />
          <path
             style="fill:none;stroke:#ff0004;stroke-width:2"
             inkscape:connector-curvature="0"
             d="m 769.553,364.676 c -0.797,4.079 -0.384,8.456 1.502,12.191 1.449,-2.949 3.862,-5.5 6.917,-6.794"
             id="path774" />
        </g>
        <g
           id="g776">
          <path
             style="fill:none;stroke:#ff0004;stroke-width:2"
             inkscape:connector-curvature="0"
             d="m 771.055,376.867 c 0,-9.941 -8.059,-18 -18,-18 -9.941,0 -18,8.059 -18,18"
             id="path778" />
          <path
             style="fill:none;stroke:#ff0004;stroke-width:2"
             inkscape:connector-curvature="0"
             d="m 733.553,364.676 c -0.797,4.079 -0.384,8.456 1.502,12.191 1.449,-2.949 3.862,-5.5 6.917,-6.794"
             id="path780" />
        </g>
        <g
           id="g782">
          <path
             style="fill:none;stroke:#ff0004;stroke-width:2"
             inkscape:connector-curvature="0"
             d="m 735.055,376.867 c 0,-9.941 -8.059,-18 -18,-18 -9.941,0 -18,8.059 -18,18"
             id="path784" />
          <path
             style="fill:none;stroke:#ff0004;stroke-width:2"
             inkscape:connector-curvature="0"
             d="m 697.553,364.676 c -0.797,4.079 -0.384,8.456 1.502,12.191 1.449,-2.949 3.862,-5.5 6.917,-6.794"
             id="path786" />
        </g>
        <g
           id="g788">
          <path
             style="fill:none;stroke:#ff0004;stroke-width:2"
             inkscape:connector-curvature="0"
             d="m 699.055,376.867 c 0,-9.941 -8.059,-18 -18,-18 -9.941,0 -18,8.059 -18,18"
             id="path790" />
          <path
             style="fill:none;stroke:#ff0004;stroke-width:2"
             inkscape:connector-curvature="0"
             d="m 661.553,364.676 c -0.797,4.079 -0.384,8.456 1.502,12.191 1.449,-2.949 3.862,-5.5 6.917,-6.794"
             id="path792" />
        </g>
        <g
           id="g794">
          <path
             style="fill:none;stroke:#ff0004;stroke-width:2"
             inkscape:connector-curvature="0"
             d="m 663.055,376.867 c 0,-9.941 -8.059,-18 -18,-18 -9.941,0 -18,8.059 -18,18"
             id="path796" />
          <path
             style="fill:none;stroke:#ff0004;stroke-width:2"
             inkscape:connector-curvature="0"
             d="m 625.553,364.676 c -0.797,4.079 -0.384,8.456 1.502,12.191 1.449,-2.949 3.862,-5.5 6.917,-6.794"
             id="path798" />
        </g>
        <g
           id="g800">
          <path
             style="fill:none;stroke:#ff0004;stroke-width:2;stroke-dasharray:5"
             inkscape:connector-curvature="0"
             d="m 627.055,376.867 c 0,-9.941 -8.059,-18 -18,-18 -9.941,0 -18,8.059 -18,18"
             id="path802" />
          <path
             style="fill:none;stroke:#ff0004;stroke-width:2"
             inkscape:connector-curvature="0"
             d="m 589.553,364.676 c -0.797,4.079 -0.384,8.456 1.502,12.191 1.449,-2.949 3.862,-5.5 6.917,-6.794"
             id="path804" />
        </g>
        <g
           id="g806">
          <path
             style="fill:none;stroke:#ff0004;stroke-width:2;stroke-dasharray:5"
             inkscape:connector-curvature="0"
             d="m 1131.05,376.867 c 0,-9.941 -8.05,-18 -18,-18 -9.94,0 -18,8.059 -18,18"
             id="path808" />
          <path
             style="fill:none;stroke:#ff0004;stroke-width:2"
             inkscape:connector-curvature="0"
             d="m 1093.55,364.676 c -0.79,4.079 -0.38,8.456 1.5,12.191 1.45,-2.949 3.87,-5.5 6.92,-6.794"
             id="path810" />
        </g>
      </g>
      <g
         id="g812">
        <g
           id="g814">
          <path
             style="fill:none;stroke:#0049fd;stroke-width:2"
             inkscape:connector-curvature="0"
             d="m 627.055,158.8 c 0,9.941 8.059,18 18,18 9.941,0 18,-8.059 18,-18"
             id="path816" />
          <path
             style="fill:none;stroke:#0049fd;stroke-width:2"
             inkscape:connector-curvature="0"
             d="m 664.557,170.991 c 0.797,-4.079 0.383,-8.456 -1.502,-12.191 -1.449,2.949 -3.863,5.5 -6.917,6.794"
             id="path818" />
        </g>
        <g
           id="g820">
          <path
             style="fill:none;stroke:#0049fd;stroke-width:2"
             inkscape:connector-curvature="0"
             d="m 663.055,158.8 c 0,9.941 8.059,18 18,18 9.941,0 18,-8.059 18,-18"
             id="path822" />
          <path
             style="fill:none;stroke:#0049fd;stroke-width:2"
             inkscape:connector-curvature="0"
             d="m 700.557,170.991 c 0.797,-4.079 0.383,-8.456 -1.502,-12.191 -1.449,2.949 -3.863,5.5 -6.917,6.794"
             id="path824" />
        </g>
        <g
           id="g826">
          <path
             style="fill:none;stroke:#0049fd;stroke-width:2"
             inkscape:connector-curvature="0"
             d="m 699.055,158.8 c 0,9.941 8.059,18 18,18 9.941,0 18,-8.059 18,-18"
             id="path828" />
          <path
             style="fill:none;stroke:#0049fd;stroke-width:2"
             inkscape:connector-curvature="0"
             d="m 736.557,170.991 c 0.797,-4.079 0.383,-8.456 -1.502,-12.191 -1.449,2.949 -3.863,5.5 -6.917,6.794"
             id="path830" />
        </g>
        <g
           id="g832">
          <path
             style="fill:none;stroke:#0049fd;stroke-width:2"
             inkscape:connector-curvature="0"
             d="m 735.055,158.8 c 0,9.941 8.059,18 18,18 9.941,0 18,-8.059 18,-18"
             id="path834" />
          <path
             style="fill:none;stroke:#0049fd;stroke-width:2"
             inkscape:connector-curvature="0"
             d="m 772.557,170.991 c 0.797,-4.079 0.383,-8.456 -1.502,-12.191 -1.449,2.949 -3.863,5.5 -6.917,6.794"
             id="path836" />
        </g>
        <g
           id="g838">
          <path
             style="fill:none;stroke:#0049fd;stroke-width:2"
             inkscape:connector-curvature="0"
             d="m 771.055,158.8 c 0,9.941 8.059,18 18,18 9.941,0 18,-8.059 18,-18"
             id="path840" />
          <path
             style="fill:none;stroke:#0049fd;stroke-width:2"
             inkscape:connector-curvature="0"
             d="m 808.557,170.991 c 0.797,-4.079 0.383,-8.456 -1.502,-12.191 -1.449,2.949 -3.863,5.5 -6.917,6.794"
             id="path842" />
        </g>
        <g
           id="g844">
          <path
             style="fill:none;stroke:#0049fd;stroke-width:2"
             inkscape:connector-curvature="0"
             d="m 807.055,158.8 c 0,9.941 8.059,18 18,18 9.941,0 18,-8.059 18,-18"
             id="path846" />
          <path
             style="fill:none;stroke:#0049fd;stroke-width:2"
             inkscape:connector-curvature="0"
             d="m 844.557,170.991 c 0.797,-4.079 0.383,-8.456 -1.502,-12.191 -1.449,2.949 -3.863,5.5 -6.917,6.794"
             id="path848" />
        </g>
        <g
           id="g850">
          <path
             style="fill:none;stroke:#0049fd;stroke-width:2"
             inkscape:connector-curvature="0"
             d="m 843.055,158.8 c 0,9.941 8.059,18 18,18 9.941,0 18,-8.059 18,-18"
             id="path852" />
          <path
             style="fill:none;stroke:#0049fd;stroke-width:2"
             inkscape:connector-curvature="0"
             d="m 880.557,170.991 c 0.797,-4.079 0.383,-8.456 -1.502,-12.191 -1.449,2.949 -3.863,5.5 -6.917,6.794"
             id="path854" />
        </g>
        <g
           id="g856">
          <path
             style="fill:none;stroke:#0049fd;stroke-width:2"
             inkscape:connector-curvature="0"
             d="m 879.055,158.8 c 0,9.941 8.059,18 18,18 9.941,0 18,-8.059 18,-18"
             id="path858" />
          <path
             style="fill:none;stroke:#0049fd;stroke-width:2"
             inkscape:connector-curvature="0"
             d="m 916.557,170.991 c 0.797,-4.079 0.383,-8.456 -1.502,-12.191 -1.449,2.949 -3.863,5.5 -6.917,6.794"
             id="path860" />
        </g>
        <g
           id="g862">
          <path
             style="fill:none;stroke:#0049fd;stroke-width:2"
             inkscape:connector-curvature="0"
             d="m 915.055,158.8 c 0,9.941 8.059,18 18,18 9.941,0 18,-8.059 18,-18"
             id="path864" />
          <path
             style="fill:none;stroke:#0049fd;stroke-width:2"
             inkscape:connector-curvature="0"
             d="m 952.557,170.991 c 0.797,-4.079 0.383,-8.456 -1.502,-12.191 -1.449,2.949 -3.863,5.5 -6.917,6.794"
             id="path866" />
        </g>
        <g
           id="g868">
          <path
             style="fill:none;stroke:#0049fd;stroke-width:2"
             inkscape:connector-curvature="0"
             d="m 951.055,158.8 c 0,9.941 8.059,18 18,18 9.941,0 18,-8.059 18,-18"
             id="path870" />
          <path
             style="fill:none;stroke:#0049fd;stroke-width:2"
             inkscape:connector-curvature="0"
             d="m 988.557,170.991 c 0.797,-4.079 0.383,-8.456 -1.502,-12.191 -1.449,2.949 -3.863,5.5 -6.917,6.794"
             id="path872" />
        </g>
        <g
           id="g874">
          <path
             style="fill:none;stroke:#0049fd;stroke-width:2"
             inkscape:connector-curvature="0"
             d="m 987.055,158.8 c 0,9.941 8.059,18 17.995,18 9.95,0 18,-8.059 18,-18"
             id="path876" />
          <path
             style="fill:none;stroke:#0049fd;stroke-width:2"
             inkscape:connector-curvature="0"
             d="m 1024.56,170.991 c 0.79,-4.079 0.38,-8.456 -1.51,-12.191 -1.44,2.949 -3.86,5.5 -6.91,6.794"
             id="path878" />
        </g>
        <g
           id="g880">
          <path
             style="fill:none;stroke:#0049fd;stroke-width:2"
             inkscape:connector-curvature="0"
             d="m 1023.05,158.8 c 0,9.941 8.06,18 18,18 9.95,0 18,-8.059 18,-18"
             id="path882" />
          <path
             style="fill:none;stroke:#0049fd;stroke-width:2"
             inkscape:connector-curvature="0"
             d="m 1060.56,170.991 c 0.79,-4.079 0.38,-8.456 -1.51,-12.191 -1.44,2.949 -3.86,5.5 -6.91,6.794"
             id="path884" />
        </g>
        <g
           id="g886">
          <path
             style="fill:none;stroke:#0049fd;stroke-width:2"
             inkscape:connector-curvature="0"
             d="m 1059.05,158.8 c 0,9.941 8.06,18 18,18 9.95,0 18,-8.059 18,-18"
             id="path888" />
          <path
             style="fill:none;stroke:#0049fd;stroke-width:2"
             inkscape:connector-curvature="0"
             d="m 1096.56,170.991 c 0.79,-4.079 0.38,-8.456 -1.51,-12.191 -1.44,2.949 -3.86,5.5 -6.91,6.794"
             id="path890" />
        </g>
        <g
           id="g892">
          <path
             style="fill:none;stroke:#000000;stroke-width:2"
             inkscape:connector-curvature="0"
             d="m 627.055,156.95 467.995,0"
             id="path894" />
          <path
             style="fill:none;stroke:#000000;stroke-width:2;stroke-dasharray:5"
             inkscape:connector-curvature="0"
             d="m 591.055,156.801 36,0.299"
             id="path896" />
          <path
             style="fill:none;stroke:#000000;stroke-width:2;stroke-dasharray:5"
             inkscape:connector-curvature="0"
             d="m 1095.05,156.801 36,0.299"
             id="path898" />
        </g>
        <g
           id="g900">
          <path
             style="fill:none;stroke:#0049fd;stroke-width:2;stroke-dasharray:5"
             inkscape:connector-curvature="0"
             d="m 1095.05,158.8 c 0,9.941 8.06,18 18,18 9.95,0 18,-8.059 18,-18"
             id="path902" />
          <path
             style="fill:none;stroke:#0049fd;stroke-width:2"
             inkscape:connector-curvature="0"
             d="m 1132.56,170.991 c 0.79,-4.079 0.38,-8.456 -1.51,-12.191 -1.44,2.949 -3.86,5.5 -6.91,6.794"
             id="path904" />
        </g>
        <g
           id="g906">
          <path
             style="fill:none;stroke:#0049fd;stroke-width:2;stroke-dasharray:5"
             inkscape:connector-curvature="0"
             d="m 591.055,158.8 c 0,9.941 8.059,18 18,18 9.941,0 18,-8.059 18,-18"
             id="path908" />
          <path
             style="fill:none;stroke:#0049fd;stroke-width:2"
             inkscape:connector-curvature="0"
             d="m 628.557,170.991 c 0.797,-4.079 0.383,-8.456 -1.502,-12.191 -1.449,2.949 -3.863,5.5 -6.917,6.794"
             id="path910" />
        </g>
      </g>
    </g>
  </g>
</svg>
