<?xml version="1.0" encoding="UTF-8" standalone="no"?>
<!-- Created with Inkscape (http://www.inkscape.org/) -->

<svg
   xmlns:dc="http://purl.org/dc/elements/1.1/"
   xmlns:cc="http://creativecommons.org/ns#"
   xmlns:rdf="http://www.w3.org/1999/02/22-rdf-syntax-ns#"
   xmlns:svg="http://www.w3.org/2000/svg"
   xmlns="http://www.w3.org/2000/svg"
   xmlns:sodipodi="http://sodipodi.sourceforge.net/DTD/sodipodi-0.dtd"
   xmlns:inkscape="http://www.inkscape.org/namespaces/inkscape"
   width="232.308"
   height="233.26801"
   id="svg5255"
   version="1.1"
   inkscape:version="0.48.4 r9939"
   sodipodi:docname="New document 11">
  <defs
     id="defs5257">
    <clipPath
       id="7fc8743c5b60">
      <path
         style="fill:#000000;fill-opacity:0.35"
         inkscape:connector-curvature="0"
         d="m 736.71,708.871 24.004,0 0,-24.005 -24.004,0 z"
         id="path469" />
    </clipPath>
    <clipPath
       id="7fc875143d60">
      <path
         style="fill:#000000;fill-opacity:0.35"
         inkscape:connector-curvature="0"
         d="m 736.71,708.871 24,0 0,-24 -24,0 z"
         id="path474" />
    </clipPath>
    <clipPath
       id="7fc8743b3ec0">
      <path
         style="fill:#000000;fill-opacity:0.35"
         inkscape:connector-curvature="0"
         d="m 631.749,592.514 24.005,0 0,-27.76 -24.005,0 z"
         id="path483" />
    </clipPath>
    <clipPath
       id="7fc8751e5ce0">
      <path
         style="fill:#000000;fill-opacity:0.35"
         inkscape:connector-curvature="0"
         d="m 631.749,592.514 24,0 0,-27.75 -24,0 z"
         id="path488" />
    </clipPath>
    <clipPath
       id="7fc8743c0380">
      <path
         style="fill:#000000;fill-opacity:0.35"
         inkscape:connector-curvature="0"
         d="m 750.962,568.02 20.25,0 0,-20.55 -20.25,0 z"
         id="path505" />
    </clipPath>
    <clipPath
       id="7fc875104630">
      <path
         style="fill:#000000;fill-opacity:0.35"
         inkscape:connector-curvature="0"
         d="m 750.962,567.729 20.25,0 0,-20.25 -20.25,0 z"
         id="path510" />
    </clipPath>
  </defs>
  <sodipodi:namedview
     id="base"
     pagecolor="#ffffff"
     bordercolor="#666666"
     borderopacity="1.0"
     inkscape:pageopacity="0.0"
     inkscape:pageshadow="2"
     inkscape:zoom="0.86377106"
     inkscape:cx="116.154"
     inkscape:cy="116.634"
     inkscape:document-units="px"
     inkscape:current-layer="layer1"
     showgrid="false"
     fit-margin-top="0"
     fit-margin-left="0"
     fit-margin-right="0"
     fit-margin-bottom="0"
     inkscape:window-width="1855"
     inkscape:window-height="1056"
     inkscape:window-x="65"
     inkscape:window-y="24"
     inkscape:window-maximized="1" />
  <metadata
     id="metadata5260">
    <rdf:RDF>
      <cc:Work
         rdf:about="">
        <dc:format>image/svg+xml</dc:format>
        <dc:type
           rdf:resource="http://purl.org/dc/dcmitype/StillImage" />
        <dc:title></dc:title>
      </cc:Work>
    </rdf:RDF>
  </metadata>
  <g
     inkscape:label="Layer 1"
     inkscape:groupmode="layer"
     id="layer1"
     transform="translate(-255.89324,-409.54709)">
    <g
       transform="translate(-376.29576,-65.496909)"
       id="g462">
      <path
         style="fill:none;stroke:#000000;stroke-width:2"
         inkscape:connector-curvature="0"
         d="m 666.547,484.411 189,0 0,189 -189,0 z"
         id="path464" />
      <g
         clip-path="url(#7fc8743c5b60)"
         id="g466">
        <clipPath
           id="clipPath5210">
          <path
             style="fill:#000000;fill-opacity:0.35"
             inkscape:connector-curvature="0"
             d="m 736.71,708.871 24.004,0 0,-24.005 -24.004,0 z"
             id="path5212" />
        </clipPath>
        <g
           clip-path="url(#7fc875143d60)"
           id="g471">
          <clipPath
             id="clipPath5215">
            <path
               style="fill:#000000;fill-opacity:0.35"
               inkscape:connector-curvature="0"
               d="m 736.71,708.871 24,0 0,-24 -24,0 z"
               id="path5217" />
          </clipPath>
          <path
             style="fill:#000000"
             inkscape:connector-curvature="0"
             d="m 743.1,685.665 c 0,-0.02 0,-0.28 -0.359,-0.28 -0.619,0 -2.596,0.2 -3.295,0.26 -0.2,0.02 -0.5,0.06 -0.5,0.539 0,0.32 0.24,0.32 0.64,0.32 1.298,0 1.358,0.199 1.358,0.459 l -0.08,0.539 -3.915,15.517 c -0.099,0.38 -0.099,0.44 -0.099,0.599 0,0.62 0.539,0.739 0.778,0.739 0.34,0 0.739,-0.239 0.919,-0.559 0.12,-0.239 1.338,-5.232 1.498,-5.891 0.918,0.08 3.135,0.499 3.135,2.276 0,0.2 0,0.3 -0.1,0.58 -0.04,0.319 -0.099,0.639 -0.099,0.938 0,1.578 1.078,2.656 2.476,2.656 0.819,0 1.538,-0.419 2.137,-1.418 0.659,-1.178 0.958,-2.676 0.958,-2.716 0,-0.279 -0.239,-0.279 -0.319,-0.279 -0.26,0 -0.3,0.12 -0.38,0.499 -0.539,1.957 -1.158,3.335 -2.336,3.335 -0.519,0 -0.859,-0.299 -0.859,-1.278 0,-0.459 0.1,-1.078 0.22,-1.498 0.1,-0.459 0.1,-0.579 0.1,-0.838 0,-1.758 -1.698,-2.537 -3.995,-2.836 0.839,-0.48 1.698,-1.338 2.317,-1.977 1.298,-1.438 2.536,-2.597 3.854,-2.597 0.16,0 0.2,0 0.24,0.02 0.32,0.06 0.36,0.06 0.579,0.22 0.04,0.04 0.04,0.06 0.1,0.12 -1.298,0.08 -1.538,1.118 -1.538,1.438 0,0.439 0.3,0.958 1.019,0.958 0.699,0 1.498,-0.599 1.498,-1.657 0,-0.799 -0.62,-1.698 -1.838,-1.698 -0.759,0 -1.997,0.22 -3.934,2.377 -0.919,1.018 -1.957,2.097 -2.996,2.516 l 2.816,-11.383"
             id="path476" />
          <path
             style="fill:#000000"
             inkscape:connector-curvature="0"
             d="m 754.064,706.135 c -0.18,0.639 -0.799,1.657 -1.757,1.657 -0.06,0 -0.619,0 -1.019,-0.279 0.759,-0.24 0.819,-0.919 0.819,-1.019 0,-0.419 -0.319,-0.699 -0.739,-0.699 -0.539,0 -1.078,0.44 -1.078,1.139 0,0.938 1.058,1.378 1.977,1.378 0.859,0 1.637,-0.54 2.097,-1.339 0.459,0.999 1.498,1.339 2.236,1.339 2.157,0 3.316,-2.357 3.316,-2.876 0,-0.24 -0.24,-0.24 -0.3,-0.24 -0.26,0 -0.28,0.08 -0.359,0.32 -0.4,1.298 -1.518,2.276 -2.577,2.276 -0.759,0 -1.158,-0.519 -1.158,-1.238 0,-0.479 0.459,-2.197 0.979,-4.274 0.379,-1.457 1.238,-1.917 1.857,-1.917 0.02,0 0.619,0 1.018,0.26 -0.619,0.16 -0.838,0.699 -0.838,1.038 0,0.4 0.319,0.699 0.759,0.699 0.419,0 1.038,-0.359 1.038,-1.158 0,-1.058 -1.198,-1.378 -1.937,-1.378 -0.959,0 -1.698,0.619 -2.117,1.338 -0.34,-0.759 -1.198,-1.338 -2.257,-1.338 -2.097,0 -3.295,2.317 -3.295,2.876 0,0.259 0.26,0.259 0.32,0.259 0.239,0 0.259,-0.08 0.339,-0.319 0.479,-1.478 1.658,-2.277 2.576,-2.277 0.619,0 1.139,0.34 1.139,1.238 0,0.38 -0.22,1.318 -0.4,1.958 l -0.639,2.576"
             id="path478" />
        </g>
      </g>
      <g
         clip-path="url(#7fc8743b3ec0)"
         id="g480">
        <clipPath
           id="clipPath5222">
          <path
             style="fill:#000000;fill-opacity:0.35"
             inkscape:connector-curvature="0"
             d="m 631.749,592.514 24.005,0 0,-27.76 -24.005,0 z"
             id="path5224" />
        </clipPath>
        <g
           clip-path="url(#7fc8751e5ce0)"
           id="g485">
          <clipPath
             id="clipPath5227">
            <path
               style="fill:#000000;fill-opacity:0.35"
               inkscape:connector-curvature="0"
               d="m 631.749,592.514 24,0 0,-27.75 -24,0 z"
               id="path5229" />
          </clipPath>
          <path
             style="fill:#000000"
             inkscape:connector-curvature="0"
             d="m 638.44,565.573 c 0,-0.04 0,-0.299 -0.36,-0.299 -0.619,0 -2.576,0.219 -3.295,0.259 -0.2,0.04 -0.499,0.06 -0.499,0.539 0,0.32 0.239,0.32 0.639,0.32 1.298,0 1.358,0.2 1.358,0.459 l -0.08,0.54 -3.914,15.517 c -0.1,0.379 -0.1,0.439 -0.1,0.599 0,0.619 0.539,0.759 0.779,0.759 0.339,0 0.739,-0.24 0.918,-0.579 0.12,-0.24 1.338,-5.213 1.498,-5.892 0.919,0.08 3.135,0.519 3.135,2.297 0,0.18 0,0.279 -0.079,0.559 -0.06,0.32 -0.12,0.639 -0.12,0.939 0,1.597 1.078,2.676 2.476,2.676 0.819,0 1.538,-0.44 2.137,-1.438 0.659,-1.178 0.959,-2.656 0.959,-2.716 0,-0.28 -0.24,-0.28 -0.32,-0.28 -0.26,0 -0.299,0.12 -0.379,0.499 -0.54,1.958 -1.159,3.336 -2.337,3.336 -0.519,0 -0.859,-0.3 -0.859,-1.259 0,-0.459 0.1,-1.078 0.22,-1.517 0.1,-0.46 0.1,-0.56 0.1,-0.839 0,-1.738 -1.698,-2.536 -3.994,-2.816 0.838,-0.499 1.697,-1.358 2.316,-1.997 1.298,-1.438 2.537,-2.596 3.855,-2.596 0.159,0 0.199,0 0.239,0.04 0.32,0.04 0.36,0.04 0.579,0.199 0.04,0.04 0.04,0.06 0.1,0.12 -1.298,0.08 -1.537,1.119 -1.537,1.458 0,0.419 0.299,0.939 1.018,0.939 0.699,0 1.498,-0.599 1.498,-1.638 0,-0.819 -0.619,-1.697 -1.837,-1.697 -0.759,0 -1.997,0.199 -3.935,2.356 -0.918,1.039 -1.957,2.117 -2.995,2.516 l 2.816,-11.363"
             id="path490" />
          <path
             style="fill:#000000"
             inkscape:connector-curvature="0"
             d="m 655.175,580.931 c 0.08,-0.26 0.08,-0.3 0.08,-0.42 0,-0.379 -0.3,-0.599 -0.619,-0.599 -0.22,0 -0.579,0.1 -0.779,0.459 -0.06,0.1 -0.2,0.699 -0.3,1.079 l -0.399,1.557 c -0.1,0.46 -0.699,2.816 -0.739,3.036 -0.02,0 -0.859,1.638 -2.317,1.638 -1.278,0 -1.278,-1.219 -1.278,-1.558 0,-1.019 0.44,-2.197 0.999,-3.655 0.219,-0.599 0.319,-0.818 0.319,-1.138 0,-0.919 -0.778,-1.598 -1.797,-1.598 -1.897,0 -2.736,2.557 -2.736,2.876 0,0.24 0.26,0.24 0.32,0.24 0.259,0 0.279,-0.1 0.339,-0.3 0.459,-1.558 1.278,-2.296 2.037,-2.296 0.32,0 0.459,0.199 0.459,0.659 0,0.439 -0.159,0.838 -0.259,1.078 -0.899,2.297 -1.099,2.996 -1.099,3.834 0,0.32 0,1.199 0.739,1.798 0.579,0.479 1.378,0.579 1.878,0.579 0.758,0 1.437,-0.28 2.057,-0.839 -0.26,1.019 -0.46,1.817 -1.239,2.756 -0.519,0.579 -1.278,1.198 -2.256,1.198 -0.14,0 -1.019,0 -1.418,-0.619 1.018,-0.1 1.018,-1.018 1.018,-1.038 0,-0.599 -0.539,-0.699 -0.739,-0.699 -0.459,0 -1.078,0.379 -1.078,1.238 0,0.959 0.899,1.657 2.237,1.657 1.897,0 4.193,-1.477 4.793,-3.814 l 1.777,-7.109"
             id="path492" />
        </g>
      </g>
      <g
         id="g494">
        <path
           style="fill:none;stroke:#007efd;stroke-width:3"
           inkscape:connector-curvature="0"
           d="m 747.547,673.411 0,-189"
           id="path496" />
        <path
           style="fill:#007efd"
           inkscape:connector-curvature="0"
           d="m 747.547,678.661 c -2.899,0 -5.25,-2.351 -5.25,-5.25 0,-2.9 2.351,-5.25 5.25,-5.25 2.9,0 5.25,2.35 5.25,5.25 0,2.899 -2.35,5.25 -5.25,5.25"
           id="path498" />
        <path
           style="fill:#007efd"
           inkscape:connector-curvature="0"
           d="m 747.547,479.161 c 2.9,0 5.25,2.35 5.25,5.25 0,2.899 -2.35,5.25 -5.25,5.25 -2.899,0 -5.25,-2.351 -5.25,-5.25 0,-2.9 2.351,-5.25 5.25,-5.25"
           id="path500" />
      </g>
      <g
         clip-path="url(#7fc8743c0380)"
         id="g502">
        <clipPath
           id="clipPath5238">
          <path
             style="fill:#000000;fill-opacity:0.35"
             inkscape:connector-curvature="0"
             d="m 750.962,568.02 20.25,0 0,-20.55 -20.25,0 z"
             id="path5240" />
        </clipPath>
        <g
           clip-path="url(#7fc875104630)"
           id="g507">
          <clipPath
             id="clipPath5243">
            <path
               style="fill:#000000;fill-opacity:0.35"
               inkscape:connector-curvature="0"
               d="m 750.962,567.729 20.25,0 0,-20.25 -20.25,0 z"
               id="path5245" />
          </clipPath>
          <path
             style="fill:#000000"
             inkscape:connector-curvature="0"
             d="m 770.613,548.409 c 0,-0.08 -0.06,-0.26 -0.299,-0.26 -0.08,0 -0.1,0.02 -0.4,0.32 l -1.897,2.077 c -0.24,-0.38 -1.478,-2.397 -4.473,-2.397 -5.992,0 -12.063,5.952 -12.063,12.202 0,4.434 3.176,7.37 7.31,7.37 2.336,0 4.393,-1.079 5.811,-2.317 2.496,-2.197 2.956,-4.653 2.956,-4.733 0,-0.28 -0.26,-0.28 -0.32,-0.28 -0.16,0 -0.299,0.06 -0.339,0.28 -0.24,0.779 -0.879,2.696 -2.736,4.254 -1.858,1.497 -3.555,1.957 -4.953,1.957 -2.417,0 -5.272,-1.398 -5.272,-5.592 0,-1.538 0.559,-5.911 3.255,-9.047 1.637,-1.917 4.174,-3.275 6.57,-3.275 2.756,0 4.334,2.077 4.334,5.212 0,1.079 -0.08,1.099 -0.08,1.358 0,0.28 0.299,0.28 0.419,0.28 0.34,0 0.34,-0.06 0.48,-0.539 l 1.697,-6.87"
             id="path512" />
        </g>
      </g>
      <path
         style="fill:#000000"
         inkscape:connector-curvature="0"
         d="m 659.305,685.321 c 0,-1.603 -0.09,-3.22 -0.809,-4.718 -0.929,-1.947 -2.576,-2.262 -3.43,-2.262 -1.213,0 -2.681,0.524 -3.52,2.396 -0.644,1.394 -0.749,2.966 -0.749,4.584 0,1.528 0.09,3.34 0.914,4.868 0.869,1.647 2.351,2.052 3.34,2.052 1.078,0 2.621,-0.435 3.505,-2.352 0.659,-1.393 0.749,-2.966 0.749,-4.568 z m -4.254,6.47 c -0.794,0 -1.977,-0.509 -2.352,-2.441 -0.224,-1.213 -0.224,-3.071 -0.224,-4.269 0,-1.288 0,-2.621 0.164,-3.714 0.39,-2.397 1.903,-2.592 2.412,-2.592 0.659,0 1.992,0.375 2.381,2.367 0.195,1.138 0.195,2.666 0.195,3.939 0,1.513 0,2.891 -0.21,4.179 -0.314,1.932 -1.467,2.531 -2.366,2.531"
         id="path514" />
      <g
         id="g516">
        <path
           style="fill:#000000"
           inkscape:connector-curvature="0"
           d="m 845.535,689.677 2.142,-2.081 c 3.16,-2.786 4.359,-3.88 4.359,-5.902 0,-2.306 -1.813,-3.924 -4.269,-3.924 -2.292,0 -3.79,1.857 -3.79,3.655 0,1.138 1.019,1.138 1.079,1.138 0.344,0 1.048,-0.24 1.048,-1.078 0,-0.525 -0.359,-1.049 -1.078,-1.049 -0.15,0 -0.195,0 -0.255,0.03 0.465,-1.318 1.558,-2.067 2.726,-2.067 1.843,0 2.711,1.633 2.711,3.295 0,1.618 -1.018,3.205 -2.127,4.464 l -3.879,4.328 c -0.225,0.21 -0.225,0.255 -0.225,0.734 l 7.504,0 0.555,-3.505 -0.495,0 c -0.105,0.599 -0.239,1.498 -0.449,1.798 -0.135,0.164 -1.468,0.164 -1.917,0.164 l -3.64,0"
           id="path518" />
        <path
           style="fill:#000000"
           inkscape:connector-curvature="0"
           d="m 858.401,683.686 2.277,0 c -0.674,2.996 -0.854,3.865 -0.854,5.213 0,0.314 0,0.853 0.165,1.542 0.21,0.884 0.419,1.004 0.734,1.004 0.404,0 0.824,-0.36 0.824,-0.764 0,-0.12 0,-0.165 -0.12,-0.449 -0.584,-1.453 -0.584,-2.756 -0.584,-3.325 0,-1.079 0.134,-2.157 0.359,-3.221 l 2.307,0 c 0.254,0 0.988,0 0.988,-0.674 0,-0.494 -0.419,-0.494 -0.809,-0.494 l -6.77,0 c -0.449,0 -1.213,0 -2.097,0.959 -0.703,0.778 -1.228,1.707 -1.228,1.812 0,0.015 0,0.195 0.24,0.195 0.165,0 0.195,-0.075 0.314,-0.24 0.989,-1.558 2.172,-1.558 2.577,-1.558 l 1.153,0 c -0.659,2.457 -1.737,4.898 -2.591,6.74 -0.165,0.3 -0.165,0.33 -0.165,0.48 0,0.374 0.33,0.539 0.584,0.539 0.614,0 0.764,-0.569 1.019,-1.303 0.284,-0.929 0.284,-0.974 0.539,-1.992 l 1.138,-4.464"
           id="path520" />
      </g>
      <g
         id="g522">
        <path
           style="fill:#000000"
           inkscape:connector-curvature="0"
           d="m 643.27,486.952 2.141,-2.082 c 3.161,-2.786 4.359,-3.88 4.359,-5.902 0,-2.306 -1.812,-3.924 -4.269,-3.924 -2.291,0 -3.789,1.857 -3.789,3.655 0,1.138 1.018,1.138 1.078,1.138 0.345,0 1.049,-0.24 1.049,-1.078 0,-0.525 -0.36,-1.049 -1.079,-1.049 -0.149,0 -0.194,0 -0.254,0.03 0.464,-1.318 1.557,-2.067 2.726,-2.067 1.842,0 2.711,1.633 2.711,3.295 0,1.618 -1.019,3.206 -2.127,4.464 l -3.879,4.328 c -0.225,0.21 -0.225,0.255 -0.225,0.734 l 7.504,0 0.554,-3.505 -0.494,0 c -0.105,0.6 -0.24,1.498 -0.45,1.798 -0.134,0.165 -1.467,0.165 -1.917,0.165 l -3.639,0"
           id="path524" />
        <path
           style="fill:#000000"
           inkscape:connector-curvature="0"
           d="m 656.136,480.96 2.276,0 c -0.674,2.996 -0.853,3.865 -0.853,5.213 0,0.314 0,0.853 0.164,1.542 0.21,0.884 0.42,1.004 0.734,1.004 0.405,0 0.824,-0.36 0.824,-0.764 0,-0.12 0,-0.165 -0.12,-0.449 -0.584,-1.453 -0.584,-2.756 -0.584,-3.325 0,-1.079 0.135,-2.157 0.36,-3.221 l 2.306,0 c 0.255,0 0.989,0 0.989,-0.674 0,-0.494 -0.42,-0.494 -0.809,-0.494 l -6.77,0 c -0.449,0 -1.213,0 -2.097,0.959 -0.704,0.778 -1.228,1.707 -1.228,1.812 0,0.015 0,0.195 0.239,0.195 0.165,0 0.195,-0.075 0.315,-0.24 0.989,-1.558 2.172,-1.558 2.576,-1.558 l 1.153,0 c -0.659,2.457 -1.737,4.898 -2.591,6.74 -0.164,0.3 -0.164,0.33 -0.164,0.48 0,0.374 0.329,0.539 0.584,0.539 0.614,0 0.764,-0.569 1.018,-1.303 0.285,-0.929 0.285,-0.974 0.539,-1.992 l 1.139,-4.464"
           id="path526" />
      </g>
    </g>
  </g>
</svg>
