<?xml version="1.0" encoding="UTF-8" standalone="no"?>
<!-- Created with Inkscape (http://www.inkscape.org/) -->

<svg
   xmlns:dc="http://purl.org/dc/elements/1.1/"
   xmlns:cc="http://creativecommons.org/ns#"
   xmlns:rdf="http://www.w3.org/1999/02/22-rdf-syntax-ns#"
   xmlns:svg="http://www.w3.org/2000/svg"
   xmlns="http://www.w3.org/2000/svg"
   xmlns:sodipodi="http://sodipodi.sourceforge.net/DTD/sodipodi-0.dtd"
   xmlns:inkscape="http://www.inkscape.org/namespaces/inkscape"
   width="792.5"
   height="252.12053"
   id="svg4145"
   version="1.1"
   inkscape:version="0.48.4 r9939"
   sodipodi:docname="New document 2">
  <defs
     id="defs4147">
    <clipPath
       id="7fc8747fbcc0">
      <path
         style="fill:#000000;fill-opacity:0.35"
         inkscape:connector-curvature="0"
         d="m 423.792,305.229 11.407,0 0,-10.193 -11.407,0 z"
         id="path185" />
    </clipPath>
    <clipPath
       id="7fc87479ed80">
      <path
         style="fill:#000000;fill-opacity:0.35"
         inkscape:connector-curvature="0"
         d="m 423.792,305.229 11.4,0 0,-10.2 -11.4,0 z"
         id="path190" />
    </clipPath>
    <clipPath
       id="7fc8750c22b0">
      <path
         style="fill:#000000;fill-opacity:0.35"
         inkscape:connector-curvature="0"
         d="m 282.678,160.599 10.8,0 0,-14.394 -10.8,0 z"
         id="path197" />
    </clipPath>
    <clipPath
       id="7fc8750c80f0">
      <path
         style="fill:#000000;fill-opacity:0.35"
         inkscape:connector-curvature="0"
         d="m 283.278,160.599 10.2,0 0,-14.4 -10.2,0 z"
         id="path202" />
    </clipPath>
    <clipPath
       id="7fc872512890">
      <path
         style="fill:#000000;fill-opacity:0.35"
         inkscape:connector-curvature="0"
         d="m 856.542,305.761 11.407,0 0,-10.193 -11.407,0 z"
         id="path429" />
    </clipPath>
    <clipPath
       id="7fc87500d450">
      <path
         style="fill:#000000;fill-opacity:0.35"
         inkscape:connector-curvature="0"
         d="m 856.542,305.761 11.4,0 0,-10.2 -11.4,0 z"
         id="path434" />
    </clipPath>
    <clipPath
       id="7fc8750e1d50">
      <path
         style="fill:#000000;fill-opacity:0.35"
         inkscape:connector-curvature="0"
         d="m 715.428,161.132 10.8,0 0,-14.395 -10.8,0 z"
         id="path441" />
    </clipPath>
    <clipPath
       id="7fc8747bb3f0">
      <path
         style="fill:#000000;fill-opacity:0.35"
         inkscape:connector-curvature="0"
         d="m 716.028,161.132 10.2,0 0,-14.4 -10.2,0 z"
         id="path446" />
    </clipPath>
  </defs>
  <sodipodi:namedview
     id="base"
     pagecolor="#ffffff"
     bordercolor="#666666"
     borderopacity="1.0"
     inkscape:pageopacity="0.0"
     inkscape:pageshadow="2"
     inkscape:zoom="0.86377106"
     inkscape:cx="689.74589"
     inkscape:cy="206.46503"
     inkscape:document-units="px"
     inkscape:current-layer="layer1"
     showgrid="false"
     fit-margin-top="0"
     fit-margin-left="0"
     fit-margin-right="0"
     fit-margin-bottom="0"
     inkscape:window-width="1855"
     inkscape:window-height="1056"
     inkscape:window-x="65"
     inkscape:window-y="24"
     inkscape:window-maximized="1" />
  <metadata
     id="metadata4150">
    <rdf:RDF>
      <cc:Work
         rdf:about="">
        <dc:format>image/svg+xml</dc:format>
        <dc:type
           rdf:resource="http://purl.org/dc/dcmitype/StillImage" />
        <dc:title></dc:title>
      </cc:Work>
    </rdf:RDF>
  </metadata>
  <g
     inkscape:label="Layer 1"
     inkscape:groupmode="layer"
     id="layer1"
     transform="translate(317.69865,-480.52559)">
    <g
       transform="translate(-599.88615,426.36487)"
       id="g154">
      <path
         style="fill:none;stroke:#000000;stroke-width:2.523;stroke-dasharray:12.615"
         inkscape:connector-curvature="0"
         d="m 774.783,82.6718 0,162.0002"
         id="path156" />
      <path
         style="fill:none;stroke:#000000;stroke-width:2.523;stroke-dasharray:12.615"
         inkscape:connector-curvature="0"
         d="m 828.783,82.6718 0,162.0002"
         id="path158" />
      <path
         style="fill:none;stroke:#000000;stroke-width:2.523;stroke-dasharray:12.615"
         inkscape:connector-curvature="0"
         d="m 882.783,82.6718 0,162.0002"
         id="path160" />
      <path
         style="fill:none;stroke:#000000;stroke-width:2.523;stroke-dasharray:12.615"
         inkscape:connector-curvature="0"
         d="m 936.783,82.6718 0,162.0002"
         id="path162" />
      <path
         style="fill:none;stroke:#000000;stroke-width:2.523;stroke-dasharray:12.615"
         inkscape:connector-curvature="0"
         d="m 990.783,82.6718 0,162.0002"
         id="path164" />
      <path
         style="fill:none;stroke:#000000;stroke-width:2.523;stroke-dasharray:12.615"
         inkscape:connector-curvature="0"
         d="m 1044.78,82.6718 0,162.0002"
         id="path166" />
      <g
         id="g168">
        <g
           id="g170">
          <path
             style="fill:none;stroke:#000000;stroke-width:2"
             inkscape:connector-curvature="0"
             d="m 288.076,299.075 129.6,0.852"
             id="path172" />
          <path
             style="fill:none;stroke:#000000;stroke-width:2"
             inkscape:connector-curvature="0"
             d="m 407.709,294.862 9.967,5.065 -10.033,4.934"
             id="path174" />
        </g>
        <g
           id="g176">
          <path
             style="fill:none;stroke:#000000;stroke-width:2"
             inkscape:connector-curvature="0"
             d="m 288.076,298.933 0,-131.19"
             id="path178" />
          <path
             style="fill:none;stroke:#000000;stroke-width:2"
             inkscape:connector-curvature="0"
             d="m 283.076,177.743 5,-10 5,10"
             id="path180" />
        </g>
        <g
           clip-path="url(#7fc8747fbcc0)"
           id="g182">
          <clipPath
             id="clipPath3986">
            <path
               style="fill:#000000;fill-opacity:0.35"
               inkscape:connector-curvature="0"
               d="m 423.792,305.229 11.407,0 0,-10.193 -11.407,0 z"
               id="path3988" />
          </clipPath>
          <g
             clip-path="url(#7fc87479ed80)"
             id="g187">
            <clipPath
               id="clipPath3991">
              <path
                 style="fill:#000000;fill-opacity:0.35"
                 inkscape:connector-curvature="0"
                 d="m 423.792,305.229 11.4,0 0,-10.2 -11.4,0 z"
                 id="path3993" />
            </clipPath>
            <path
               style="fill:#000000"
               inkscape:connector-curvature="0"
               d="m 430.454,298.359 c 0.128,-0.559 0.623,-2.54 2.125,-2.54 0.112,0 0.623,0 1.087,0.288 -0.608,0.095 -1.039,0.639 -1.039,1.15 0,0.351 0.24,0.767 0.815,0.767 0.479,0 1.166,-0.4 1.166,-1.262 0,-1.119 -1.278,-1.422 -1.997,-1.422 -1.262,0 -2.013,1.15 -2.269,1.645 -0.543,-1.422 -1.709,-1.645 -2.332,-1.645 -2.237,0 -3.467,2.78 -3.467,3.323 0,0.223 0.224,0.223 0.256,0.223 0.175,0 0.239,-0.047 0.287,-0.239 0.735,-2.285 2.157,-2.828 2.892,-2.828 0.399,0 1.15,0.192 1.15,1.438 0,0.671 -0.367,2.125 -1.15,5.128 -0.352,1.342 -1.102,2.253 -2.061,2.253 -0.128,0 -0.623,0 -1.07,-0.288 0.543,-0.111 1.006,-0.559 1.006,-1.166 0,-0.575 -0.463,-0.751 -0.783,-0.751 -0.655,0 -1.198,0.559 -1.198,1.246 0,0.991 1.086,1.422 2.029,1.422 1.422,0 2.205,-1.502 2.269,-1.629 0.255,0.799 1.022,1.629 2.316,1.629 2.221,0 3.451,-2.78 3.451,-3.307 0,-0.224 -0.192,-0.224 -0.255,-0.224 -0.192,0 -0.24,0.096 -0.272,0.24 -0.719,2.301 -2.189,2.828 -2.876,2.828 -0.831,0 -1.182,-0.687 -1.182,-1.422 0,-0.479 0.128,-0.959 0.367,-1.901 l 0.735,-2.956"
               id="path192" />
          </g>
        </g>
        <g
           clip-path="url(#7fc8750c22b0)"
           id="g194">
          <clipPath
             id="clipPath3997">
            <path
               style="fill:#000000;fill-opacity:0.35"
               inkscape:connector-curvature="0"
               d="m 282.678,160.599 10.8,0 0,-14.394 -10.8,0 z"
               id="path3999" />
          </clipPath>
          <g
             clip-path="url(#7fc8750c80f0)"
             id="g199">
            <clipPath
               id="clipPath4002">
              <path
                 style="fill:#000000;fill-opacity:0.35"
                 inkscape:connector-curvature="0"
                 d="m 283.278,160.599 10.2,0 0,-14.4 -10.2,0 z"
                 id="path4004" />
            </clipPath>
            <path
               style="fill:#000000"
               inkscape:connector-curvature="0"
               d="m 293.159,147.834 c 0.08,-0.303 0.08,-0.351 0.08,-0.495 0,-0.399 -0.304,-0.591 -0.624,-0.591 -0.223,0 -0.559,0.128 -0.75,0.463 -0.048,0.096 -0.224,0.767 -0.304,1.15 -0.16,0.56 -0.304,1.151 -0.431,1.726 l -0.975,3.882 c -0.08,0.32 -1.006,1.837 -2.428,1.837 -1.103,0 -1.342,-0.958 -1.342,-1.757 0,-0.991 0.367,-2.317 1.102,-4.218 0.335,-0.878 0.431,-1.118 0.431,-1.549 0,-0.975 -0.687,-1.774 -1.773,-1.774 -2.045,0 -2.844,3.132 -2.844,3.323 0,0.224 0.224,0.224 0.256,0.224 0.223,0 0.239,-0.048 0.351,-0.399 0.575,-2.014 1.438,-2.669 2.173,-2.669 0.176,0 0.543,0 0.543,0.687 0,0.544 -0.223,1.103 -0.367,1.518 -0.863,2.285 -1.246,3.499 -1.246,4.522 0,1.917 1.358,2.556 2.62,2.556 0.847,0 1.581,-0.368 2.173,-0.959 -0.272,1.119 -0.528,2.173 -1.39,3.307 -0.56,0.735 -1.374,1.358 -2.381,1.358 -0.287,0 -1.262,-0.064 -1.629,-0.894 0.351,0 0.623,0 0.926,-0.272 0.208,-0.192 0.432,-0.463 0.432,-0.879 0,-0.671 -0.576,-0.751 -0.799,-0.751 -0.496,0 -1.215,0.352 -1.215,1.406 0,1.071 0.959,1.87 2.285,1.87 2.221,0 4.442,-1.966 5.049,-4.394 l 2.077,-8.228"
               id="path204" />
          </g>
        </g>
      </g>
      <path
         style="fill:none;stroke:#000000"
         inkscape:connector-curvature="0"
         d="m 862.083,274.147 -26.4,-51.48"
         id="path206" />
      <text
         style="font-size:30px;text-anchor:middle;font-family:American Typewriter"
         font-size="30"
         transform="matrix(0.6,0,0,0.6,958.423,284.679)"
         xml:space="preserve"
         id="text208"><tspan
           id="tspan210">inter-chain couplings</tspan></text>
      <g
         id="g212">
        <text
           style="font-size:30px;text-anchor:middle;fill:#ff0004;font-family:American Typewriter"
           font-size="30"
           transform="matrix(0.6,0,0,0.6,490.821,67.8365)"
           xml:space="preserve"
           id="text214"><tspan
             id="tspan216">left movers</tspan></text>
        <text
           style="font-size:30px;text-anchor:middle;fill:#007efd;font-family:American Typewriter"
           font-size="30"
           transform="matrix(0.6,0,0,0.6,500.472,107.231)"
           xml:space="preserve"
           id="text218"><tspan
             id="tspan220">right movers</tspan></text>
        <path
           style="fill:none;stroke:#000000;stroke-width:2"
           inkscape:connector-curvature="0"
           d="m 313.301,82.6718 326.024,0"
           id="path222" />
        <path
           style="fill:#a1a1a1;stroke:#000000;stroke-width:2"
           inkscape:connector-curvature="0"
           d="m 349.858,82.6718 c 0,3.935 -3.358,7.125 -7.5,7.125 -4.142,0 -7.5,-3.19 -7.5,-7.125 0,-3.935 3.358,-7.125 7.5,-7.125 4.142,0 7.5,3.19 7.5,7.125 z"
           id="path224" />
        <path
           style="fill:#a1a1a1;stroke:#000000;stroke-width:2"
           inkscape:connector-curvature="0"
           d="m 403.858,82.6718 c 0,3.935 -3.358,7.125 -7.5,7.125 -4.142,0 -7.5,-3.19 -7.5,-7.125 0,-3.935 3.358,-7.125 7.5,-7.125 4.142,0 7.5,3.19 7.5,7.125 z"
           id="path226" />
        <path
           style="fill:#a1a1a1;stroke:#000000;stroke-width:2"
           inkscape:connector-curvature="0"
           d="m 457.858,82.6718 c 0,3.935 -3.358,7.125 -7.5,7.125 -4.142,0 -7.5,-3.19 -7.5,-7.125 0,-3.935 3.358,-7.125 7.5,-7.125 4.142,0 7.5,3.19 7.5,7.125 z"
           id="path228" />
        <path
           style="fill:#a1a1a1;stroke:#000000;stroke-width:2"
           inkscape:connector-curvature="0"
           d="m 511.858,82.6718 c 0,3.935 -3.358,7.125 -7.5,7.125 -4.142,0 -7.5,-3.19 -7.5,-7.125 0,-3.935 3.358,-7.125 7.5,-7.125 4.142,0 7.5,3.19 7.5,7.125 z"
           id="path230" />
        <path
           style="fill:#a1a1a1;stroke:#000000;stroke-width:2"
           inkscape:connector-curvature="0"
           d="m 565.858,82.6718 c 0,3.935 -3.358,7.125 -7.5,7.125 -4.142,0 -7.5,-3.19 -7.5,-7.125 0,-3.935 3.358,-7.125 7.5,-7.125 4.142,0 7.5,3.19 7.5,7.125 z"
           id="path232" />
        <path
           style="fill:#a1a1a1;stroke:#000000;stroke-width:2"
           inkscape:connector-curvature="0"
           d="m 619.858,82.6718 c 0,3.935 -3.358,7.125 -7.5,7.125 -4.142,0 -7.5,-3.19 -7.5,-7.125 0,-3.935 3.358,-7.125 7.5,-7.125 4.142,0 7.5,3.19 7.5,7.125 z"
           id="path234" />
        <path
           style="fill:none;stroke:#000000;stroke-width:2"
           inkscape:connector-curvature="0"
           d="m 313.301,136.672 326.024,0"
           id="path236" />
        <path
           style="fill:#a1a1a1;stroke:#000000;stroke-width:2"
           inkscape:connector-curvature="0"
           d="m 349.858,136.672 c 0,3.935 -3.358,7.125 -7.5,7.125 -4.142,0 -7.5,-3.19 -7.5,-7.125 0,-3.935 3.358,-7.125 7.5,-7.125 4.142,0 7.5,3.19 7.5,7.125 z"
           id="path238" />
        <path
           style="fill:#a1a1a1;stroke:#000000;stroke-width:2"
           inkscape:connector-curvature="0"
           d="m 403.858,136.672 c 0,3.935 -3.358,7.125 -7.5,7.125 -4.142,0 -7.5,-3.19 -7.5,-7.125 0,-3.935 3.358,-7.125 7.5,-7.125 4.142,0 7.5,3.19 7.5,7.125 z"
           id="path240" />
        <path
           style="fill:#a1a1a1;stroke:#000000;stroke-width:2"
           inkscape:connector-curvature="0"
           d="m 457.858,136.672 c 0,3.935 -3.358,7.125 -7.5,7.125 -4.142,0 -7.5,-3.19 -7.5,-7.125 0,-3.935 3.358,-7.125 7.5,-7.125 4.142,0 7.5,3.19 7.5,7.125 z"
           id="path242" />
        <path
           style="fill:#a1a1a1;stroke:#000000;stroke-width:2"
           inkscape:connector-curvature="0"
           d="m 511.858,136.672 c 0,3.935 -3.358,7.125 -7.5,7.125 -4.142,0 -7.5,-3.19 -7.5,-7.125 0,-3.935 3.358,-7.125 7.5,-7.125 4.142,0 7.5,3.19 7.5,7.125 z"
           id="path244" />
        <path
           style="fill:#a1a1a1;stroke:#000000;stroke-width:2"
           inkscape:connector-curvature="0"
           d="m 565.858,136.672 c 0,3.935 -3.358,7.125 -7.5,7.125 -4.142,0 -7.5,-3.19 -7.5,-7.125 0,-3.935 3.358,-7.125 7.5,-7.125 4.142,0 7.5,3.19 7.5,7.125 z"
           id="path246" />
        <path
           style="fill:#a1a1a1;stroke:#000000;stroke-width:2"
           inkscape:connector-curvature="0"
           d="m 619.858,136.672 c 0,3.935 -3.358,7.125 -7.5,7.125 -4.142,0 -7.5,-3.19 -7.5,-7.125 0,-3.935 3.358,-7.125 7.5,-7.125 4.142,0 7.5,3.19 7.5,7.125 z"
           id="path248" />
        <g
           id="g250">
          <g
             id="g252">
            <path
               style="fill:none;stroke:#ff0004;stroke-width:3"
               inkscape:connector-curvature="0"
               d="m 316.683,73.0383 322.642,0"
               id="path254" />
            <path
               style="fill:none;stroke:#ff0004;stroke-width:3"
               inkscape:connector-curvature="0"
               d="m 328.683,79.0383 -12,-6 12,-6"
               id="path256" />
          </g>
          <g
             id="g258">
            <path
               style="fill:none;stroke:#007efd;stroke-width:3"
               inkscape:connector-curvature="0"
               d="m 639.325,92.0675 -323.842,0"
               id="path260" />
            <path
               style="fill:none;stroke:#007efd;stroke-width:3"
               inkscape:connector-curvature="0"
               d="m 627.325,86.0675 12,6 -12,6"
               id="path262" />
          </g>
        </g>
        <g
           id="g264">
          <g
             id="g266">
            <path
               style="fill:none;stroke:#ff0004;stroke-width:3"
               inkscape:connector-curvature="0"
               d="m 316.683,127.038 322.642,0"
               id="path268" />
            <path
               style="fill:none;stroke:#ff0004;stroke-width:3"
               inkscape:connector-curvature="0"
               d="m 328.683,133.038 -12,-6 12,-6"
               id="path270" />
          </g>
          <g
             id="g272">
            <path
               style="fill:none;stroke:#007efd;stroke-width:3"
               inkscape:connector-curvature="0"
               d="m 639.325,146.068 -323.842,0"
               id="path274" />
            <path
               style="fill:none;stroke:#007efd;stroke-width:3"
               inkscape:connector-curvature="0"
               d="m 627.325,140.068 12,6 -12,6"
               id="path276" />
          </g>
        </g>
        <g
           id="g278">
          <path
             style="fill:none;stroke:#000000;stroke-width:2"
             inkscape:connector-curvature="0"
             d="m 313.301,190.672 326.024,0"
             id="path280" />
          <path
             style="fill:#a1a1a1;stroke:#000000;stroke-width:2"
             inkscape:connector-curvature="0"
             d="m 349.858,190.672 c 0,3.935 -3.358,7.125 -7.5,7.125 -4.142,0 -7.5,-3.19 -7.5,-7.125 0,-3.935 3.358,-7.125 7.5,-7.125 4.142,0 7.5,3.19 7.5,7.125 z"
             id="path282" />
          <path
             style="fill:#a1a1a1;stroke:#000000;stroke-width:2"
             inkscape:connector-curvature="0"
             d="m 403.858,190.672 c 0,3.935 -3.358,7.125 -7.5,7.125 -4.142,0 -7.5,-3.19 -7.5,-7.125 0,-3.935 3.358,-7.125 7.5,-7.125 4.142,0 7.5,3.19 7.5,7.125 z"
             id="path284" />
          <path
             style="fill:#a1a1a1;stroke:#000000;stroke-width:2"
             inkscape:connector-curvature="0"
             d="m 457.858,190.672 c 0,3.935 -3.358,7.125 -7.5,7.125 -4.142,0 -7.5,-3.19 -7.5,-7.125 0,-3.935 3.358,-7.125 7.5,-7.125 4.142,0 7.5,3.19 7.5,7.125 z"
             id="path286" />
          <path
             style="fill:#a1a1a1;stroke:#000000;stroke-width:2"
             inkscape:connector-curvature="0"
             d="m 511.858,190.672 c 0,3.935 -3.358,7.125 -7.5,7.125 -4.142,0 -7.5,-3.19 -7.5,-7.125 0,-3.935 3.358,-7.125 7.5,-7.125 4.142,0 7.5,3.19 7.5,7.125 z"
             id="path288" />
          <path
             style="fill:#a1a1a1;stroke:#000000;stroke-width:2"
             inkscape:connector-curvature="0"
             d="m 565.858,190.672 c 0,3.935 -3.358,7.125 -7.5,7.125 -4.142,0 -7.5,-3.19 -7.5,-7.125 0,-3.935 3.358,-7.125 7.5,-7.125 4.142,0 7.5,3.19 7.5,7.125 z"
             id="path290" />
          <path
             style="fill:#a1a1a1;stroke:#000000;stroke-width:2"
             inkscape:connector-curvature="0"
             d="m 619.858,190.672 c 0,3.935 -3.358,7.125 -7.5,7.125 -4.142,0 -7.5,-3.19 -7.5,-7.125 0,-3.935 3.358,-7.125 7.5,-7.125 4.142,0 7.5,3.19 7.5,7.125 z"
             id="path292" />
          <g
             id="g294">
            <g
               id="g296">
              <path
                 style="fill:none;stroke:#ff0004;stroke-width:3"
                 inkscape:connector-curvature="0"
                 d="m 316.683,181.038 322.642,0"
                 id="path298" />
              <path
                 style="fill:none;stroke:#ff0004;stroke-width:3"
                 inkscape:connector-curvature="0"
                 d="m 328.683,187.038 -12,-6 12,-6"
                 id="path300" />
            </g>
            <g
               id="g302">
              <path
                 style="fill:none;stroke:#007efd;stroke-width:3"
                 inkscape:connector-curvature="0"
                 d="m 639.325,200.068 -323.842,0"
                 id="path304" />
              <path
                 style="fill:none;stroke:#007efd;stroke-width:3"
                 inkscape:connector-curvature="0"
                 d="m 627.325,194.068 12,6 -12,6"
                 id="path306" />
            </g>
          </g>
        </g>
        <g
           id="g308">
          <path
             style="fill:none;stroke:#000000;stroke-width:2"
             inkscape:connector-curvature="0"
             d="m 313.301,244.672 326.024,0"
             id="path310" />
          <path
             style="fill:#a1a1a1;stroke:#000000;stroke-width:2"
             inkscape:connector-curvature="0"
             d="m 349.858,244.672 c 0,3.935 -3.358,7.125 -7.5,7.125 -4.142,0 -7.5,-3.19 -7.5,-7.125 0,-3.935 3.358,-7.125 7.5,-7.125 4.142,0 7.5,3.19 7.5,7.125 z"
             id="path312" />
          <path
             style="fill:#a1a1a1;stroke:#000000;stroke-width:2"
             inkscape:connector-curvature="0"
             d="m 403.858,244.672 c 0,3.935 -3.358,7.125 -7.5,7.125 -4.142,0 -7.5,-3.19 -7.5,-7.125 0,-3.935 3.358,-7.125 7.5,-7.125 4.142,0 7.5,3.19 7.5,7.125 z"
             id="path314" />
          <path
             style="fill:#a1a1a1;stroke:#000000;stroke-width:2"
             inkscape:connector-curvature="0"
             d="m 457.858,244.672 c 0,3.935 -3.358,7.125 -7.5,7.125 -4.142,0 -7.5,-3.19 -7.5,-7.125 0,-3.935 3.358,-7.125 7.5,-7.125 4.142,0 7.5,3.19 7.5,7.125 z"
             id="path316" />
          <path
             style="fill:#a1a1a1;stroke:#000000;stroke-width:2"
             inkscape:connector-curvature="0"
             d="m 511.858,244.672 c 0,3.935 -3.358,7.125 -7.5,7.125 -4.142,0 -7.5,-3.19 -7.5,-7.125 0,-3.935 3.358,-7.125 7.5,-7.125 4.142,0 7.5,3.19 7.5,7.125 z"
             id="path318" />
          <path
             style="fill:#a1a1a1;stroke:#000000;stroke-width:2"
             inkscape:connector-curvature="0"
             d="m 565.858,244.672 c 0,3.935 -3.358,7.125 -7.5,7.125 -4.142,0 -7.5,-3.19 -7.5,-7.125 0,-3.935 3.358,-7.125 7.5,-7.125 4.142,0 7.5,3.19 7.5,7.125 z"
             id="path320" />
          <path
             style="fill:#a1a1a1;stroke:#000000;stroke-width:2"
             inkscape:connector-curvature="0"
             d="m 619.858,244.672 c 0,3.935 -3.358,7.125 -7.5,7.125 -4.142,0 -7.5,-3.19 -7.5,-7.125 0,-3.935 3.358,-7.125 7.5,-7.125 4.142,0 7.5,3.19 7.5,7.125 z"
             id="path322" />
          <g
             id="g324">
            <g
               id="g326">
              <path
                 style="fill:none;stroke:#ff0004;stroke-width:3"
                 inkscape:connector-curvature="0"
                 d="m 316.683,235.038 322.642,0"
                 id="path328" />
              <path
                 style="fill:none;stroke:#ff0004;stroke-width:3"
                 inkscape:connector-curvature="0"
                 d="m 328.683,241.038 -12,-6 12,-6"
                 id="path330" />
            </g>
            <g
               id="g332">
              <path
                 style="fill:none;stroke:#007efd;stroke-width:3"
                 inkscape:connector-curvature="0"
                 d="m 639.325,254.068 -323.842,0"
                 id="path334" />
              <path
                 style="fill:none;stroke:#007efd;stroke-width:3"
                 inkscape:connector-curvature="0"
                 d="m 627.325,248.068 12,6 -12,6"
                 id="path336" />
            </g>
          </g>
        </g>
      </g>
      <g
         id="g338">
        <path
           style="fill:none;stroke:#000000;stroke-width:2"
           inkscape:connector-curvature="0"
           d="m 745.301,82.6718 326.029,0"
           id="path340" />
        <path
           style="fill:#a1a1a1;stroke:#000000;stroke-width:2"
           inkscape:connector-curvature="0"
           d="m 781.858,82.6718 c 0,3.935 -3.358,7.125 -7.5,7.125 -4.142,0 -7.5,-3.19 -7.5,-7.125 0,-3.935 3.358,-7.125 7.5,-7.125 4.142,0 7.5,3.19 7.5,7.125 z"
           id="path342" />
        <path
           style="fill:#a1a1a1;stroke:#000000;stroke-width:2"
           inkscape:connector-curvature="0"
           d="m 835.858,82.6718 c 0,3.935 -3.358,7.125 -7.5,7.125 -4.142,0 -7.5,-3.19 -7.5,-7.125 0,-3.935 3.358,-7.125 7.5,-7.125 4.142,0 7.5,3.19 7.5,7.125 z"
           id="path344" />
        <path
           style="fill:#a1a1a1;stroke:#000000;stroke-width:2"
           inkscape:connector-curvature="0"
           d="m 889.858,82.6718 c 0,3.935 -3.358,7.125 -7.5,7.125 -4.142,0 -7.5,-3.19 -7.5,-7.125 0,-3.935 3.358,-7.125 7.5,-7.125 4.142,0 7.5,3.19 7.5,7.125 z"
           id="path346" />
        <path
           style="fill:#a1a1a1;stroke:#000000;stroke-width:2"
           inkscape:connector-curvature="0"
           d="m 943.858,82.6718 c 0,3.935 -3.358,7.125 -7.5,7.125 -4.142,0 -7.5,-3.19 -7.5,-7.125 0,-3.935 3.358,-7.125 7.5,-7.125 4.142,0 7.5,3.19 7.5,7.125 z"
           id="path348" />
        <path
           style="fill:#a1a1a1;stroke:#000000;stroke-width:2"
           inkscape:connector-curvature="0"
           d="m 997.858,82.6718 c 0,3.935 -3.358,7.125 -7.5,7.125 -4.142,0 -7.5,-3.19 -7.5,-7.125 0,-3.935 3.358,-7.125 7.5,-7.125 4.142,0 7.5,3.19 7.5,7.125 z"
           id="path350" />
        <path
           style="fill:#a1a1a1;stroke:#000000;stroke-width:2"
           inkscape:connector-curvature="0"
           d="m 1051.86,82.6718 c 0,3.935 -3.36,7.125 -7.5,7.125 -4.14,0 -7.5,-3.19 -7.5,-7.125 0,-3.935 3.36,-7.125 7.5,-7.125 4.14,0 7.5,3.19 7.5,7.125 z"
           id="path352" />
        <path
           style="fill:none;stroke:#000000;stroke-width:2"
           inkscape:connector-curvature="0"
           d="m 745.301,136.672 326.029,0"
           id="path354" />
        <path
           style="fill:#a1a1a1;stroke:#000000;stroke-width:2"
           inkscape:connector-curvature="0"
           d="m 781.858,136.672 c 0,3.935 -3.358,7.125 -7.5,7.125 -4.142,0 -7.5,-3.19 -7.5,-7.125 0,-3.935 3.358,-7.125 7.5,-7.125 4.142,0 7.5,3.19 7.5,7.125 z"
           id="path356" />
        <path
           style="fill:#a1a1a1;stroke:#000000;stroke-width:2"
           inkscape:connector-curvature="0"
           d="m 835.858,136.672 c 0,3.935 -3.358,7.125 -7.5,7.125 -4.142,0 -7.5,-3.19 -7.5,-7.125 0,-3.935 3.358,-7.125 7.5,-7.125 4.142,0 7.5,3.19 7.5,7.125 z"
           id="path358" />
        <path
           style="fill:#a1a1a1;stroke:#000000;stroke-width:2"
           inkscape:connector-curvature="0"
           d="m 889.858,136.672 c 0,3.935 -3.358,7.125 -7.5,7.125 -4.142,0 -7.5,-3.19 -7.5,-7.125 0,-3.935 3.358,-7.125 7.5,-7.125 4.142,0 7.5,3.19 7.5,7.125 z"
           id="path360" />
        <path
           style="fill:#a1a1a1;stroke:#000000;stroke-width:2"
           inkscape:connector-curvature="0"
           d="m 943.858,136.672 c 0,3.935 -3.358,7.125 -7.5,7.125 -4.142,0 -7.5,-3.19 -7.5,-7.125 0,-3.935 3.358,-7.125 7.5,-7.125 4.142,0 7.5,3.19 7.5,7.125 z"
           id="path362" />
        <path
           style="fill:#a1a1a1;stroke:#000000;stroke-width:2"
           inkscape:connector-curvature="0"
           d="m 997.858,136.672 c 0,3.935 -3.358,7.125 -7.5,7.125 -4.142,0 -7.5,-3.19 -7.5,-7.125 0,-3.935 3.358,-7.125 7.5,-7.125 4.142,0 7.5,3.19 7.5,7.125 z"
           id="path364" />
        <path
           style="fill:#a1a1a1;stroke:#000000;stroke-width:2"
           inkscape:connector-curvature="0"
           d="m 1051.86,136.672 c 0,3.935 -3.36,7.125 -7.5,7.125 -4.14,0 -7.5,-3.19 -7.5,-7.125 0,-3.935 3.36,-7.125 7.5,-7.125 4.14,0 7.5,3.19 7.5,7.125 z"
           id="path366" />
        <path
           style="fill:none;stroke:#000000;stroke-width:2"
           inkscape:connector-curvature="0"
           d="m 745.301,190.672 326.029,0"
           id="path368" />
        <path
           style="fill:#a1a1a1;stroke:#000000;stroke-width:2"
           inkscape:connector-curvature="0"
           d="m 781.858,190.672 c 0,3.935 -3.358,7.125 -7.5,7.125 -4.142,0 -7.5,-3.19 -7.5,-7.125 0,-3.935 3.358,-7.125 7.5,-7.125 4.142,0 7.5,3.19 7.5,7.125 z"
           id="path370" />
        <path
           style="fill:#a1a1a1;stroke:#000000;stroke-width:2"
           inkscape:connector-curvature="0"
           d="m 835.858,190.672 c 0,3.935 -3.358,7.125 -7.5,7.125 -4.142,0 -7.5,-3.19 -7.5,-7.125 0,-3.935 3.358,-7.125 7.5,-7.125 4.142,0 7.5,3.19 7.5,7.125 z"
           id="path372" />
        <path
           style="fill:#a1a1a1;stroke:#000000;stroke-width:2"
           inkscape:connector-curvature="0"
           d="m 889.858,190.672 c 0,3.935 -3.358,7.125 -7.5,7.125 -4.142,0 -7.5,-3.19 -7.5,-7.125 0,-3.935 3.358,-7.125 7.5,-7.125 4.142,0 7.5,3.19 7.5,7.125 z"
           id="path374" />
        <path
           style="fill:#a1a1a1;stroke:#000000;stroke-width:2"
           inkscape:connector-curvature="0"
           d="m 943.858,190.672 c 0,3.935 -3.358,7.125 -7.5,7.125 -4.142,0 -7.5,-3.19 -7.5,-7.125 0,-3.935 3.358,-7.125 7.5,-7.125 4.142,0 7.5,3.19 7.5,7.125 z"
           id="path376" />
        <path
           style="fill:#a1a1a1;stroke:#000000;stroke-width:2"
           inkscape:connector-curvature="0"
           d="m 997.858,190.672 c 0,3.935 -3.358,7.125 -7.5,7.125 -4.142,0 -7.5,-3.19 -7.5,-7.125 0,-3.935 3.358,-7.125 7.5,-7.125 4.142,0 7.5,3.19 7.5,7.125 z"
           id="path378" />
        <path
           style="fill:#a1a1a1;stroke:#000000;stroke-width:2"
           inkscape:connector-curvature="0"
           d="m 1051.86,190.672 c 0,3.935 -3.36,7.125 -7.5,7.125 -4.14,0 -7.5,-3.19 -7.5,-7.125 0,-3.935 3.36,-7.125 7.5,-7.125 4.14,0 7.5,3.19 7.5,7.125 z"
           id="path380" />
      </g>
      <g
         id="g382">
        <path
           style="fill:none;stroke:#ff0004;stroke-width:3"
           inkscape:connector-curvature="0"
           d="m 748.683,73.0383 322.647,0"
           id="path384" />
        <path
           style="fill:none;stroke:#ff0004;stroke-width:3"
           inkscape:connector-curvature="0"
           d="m 760.683,79.0383 -12,-6 12,-6"
           id="path386" />
      </g>
      <path
         style="fill:none;stroke:#000000;stroke-width:2"
         inkscape:connector-curvature="0"
         d="m 745.301,244.672 326.029,0"
         id="path388" />
      <path
         style="fill:#a1a1a1;stroke:#000000;stroke-width:2"
         inkscape:connector-curvature="0"
         d="m 781.858,244.672 c 0,3.935 -3.358,7.125 -7.5,7.125 -4.142,0 -7.5,-3.19 -7.5,-7.125 0,-3.935 3.358,-7.125 7.5,-7.125 4.142,0 7.5,3.19 7.5,7.125 z"
         id="path390" />
      <path
         style="fill:#a1a1a1;stroke:#000000;stroke-width:2"
         inkscape:connector-curvature="0"
         d="m 835.858,244.672 c 0,3.935 -3.358,7.125 -7.5,7.125 -4.142,0 -7.5,-3.19 -7.5,-7.125 0,-3.935 3.358,-7.125 7.5,-7.125 4.142,0 7.5,3.19 7.5,7.125 z"
         id="path392" />
      <path
         style="fill:#a1a1a1;stroke:#000000;stroke-width:2"
         inkscape:connector-curvature="0"
         d="m 889.858,244.672 c 0,3.935 -3.358,7.125 -7.5,7.125 -4.142,0 -7.5,-3.19 -7.5,-7.125 0,-3.935 3.358,-7.125 7.5,-7.125 4.142,0 7.5,3.19 7.5,7.125 z"
         id="path394" />
      <path
         style="fill:#a1a1a1;stroke:#000000;stroke-width:2"
         inkscape:connector-curvature="0"
         d="m 943.858,244.672 c 0,3.935 -3.358,7.125 -7.5,7.125 -4.142,0 -7.5,-3.19 -7.5,-7.125 0,-3.935 3.358,-7.125 7.5,-7.125 4.142,0 7.5,3.19 7.5,7.125 z"
         id="path396" />
      <path
         style="fill:#a1a1a1;stroke:#000000;stroke-width:2"
         inkscape:connector-curvature="0"
         d="m 997.858,244.672 c 0,3.935 -3.358,7.125 -7.5,7.125 -4.142,0 -7.5,-3.19 -7.5,-7.125 0,-3.935 3.358,-7.125 7.5,-7.125 4.142,0 7.5,3.19 7.5,7.125 z"
         id="path398" />
      <path
         style="fill:#a1a1a1;stroke:#000000;stroke-width:2"
         inkscape:connector-curvature="0"
         d="m 1051.86,244.672 c 0,3.935 -3.36,7.125 -7.5,7.125 -4.14,0 -7.5,-3.19 -7.5,-7.125 0,-3.935 3.36,-7.125 7.5,-7.125 4.14,0 7.5,3.19 7.5,7.125 z"
         id="path400" />
      <g
         id="g402">
        <path
           style="fill:none;stroke:#007efd;stroke-width:3"
           inkscape:connector-curvature="0"
           d="m 1071.33,254.068 -323.847,0"
           id="path404" />
        <path
           style="fill:none;stroke:#007efd;stroke-width:3"
           inkscape:connector-curvature="0"
           d="m 1059.33,248.068 12,6 -12,6"
           id="path406" />
      </g>
      <text
         style="font-size:30px;text-anchor:middle;font-family:American Typewriter"
         font-size="30"
         transform="matrix(0.6,0,0,0.6,477.049,281.199)"
         xml:space="preserve"
         id="text408"><tspan
           id="tspan410">stack of uncoupled chains</tspan></text>
      <g
         id="g412">
        <g
           id="g414">
          <path
             style="fill:none;stroke:#000000;stroke-width:2"
             inkscape:connector-curvature="0"
             d="m 720.826,299.607 129.6,0.853"
             id="path416" />
          <path
             style="fill:none;stroke:#000000;stroke-width:2"
             inkscape:connector-curvature="0"
             d="m 840.459,295.394 9.967,5.066 -10.033,4.934"
             id="path418" />
        </g>
        <g
           id="g420">
          <path
             style="fill:none;stroke:#000000;stroke-width:2"
             inkscape:connector-curvature="0"
             d="m 720.826,299.465 0,-131.19"
             id="path422" />
          <path
             style="fill:none;stroke:#000000;stroke-width:2"
             inkscape:connector-curvature="0"
             d="m 715.826,178.275 5,-10 5,10"
             id="path424" />
        </g>
        <g
           clip-path="url(#7fc872512890)"
           id="g426">
          <clipPath
             id="clipPath4118">
            <path
               style="fill:#000000;fill-opacity:0.35"
               inkscape:connector-curvature="0"
               d="m 856.542,305.761 11.407,0 0,-10.193 -11.407,0 z"
               id="path4120" />
          </clipPath>
          <g
             clip-path="url(#7fc87500d450)"
             id="g431">
            <clipPath
               id="clipPath4123">
              <path
                 style="fill:#000000;fill-opacity:0.35"
                 inkscape:connector-curvature="0"
                 d="m 856.542,305.761 11.4,0 0,-10.2 -11.4,0 z"
                 id="path4125" />
            </clipPath>
            <path
               style="fill:#000000"
               inkscape:connector-curvature="0"
               d="m 863.204,298.891 c 0.128,-0.559 0.623,-2.54 2.125,-2.54 0.112,0 0.623,0 1.087,0.288 -0.608,0.096 -1.039,0.639 -1.039,1.15 0,0.352 0.24,0.767 0.815,0.767 0.479,0 1.166,-0.399 1.166,-1.262 0,-1.119 -1.278,-1.422 -1.997,-1.422 -1.262,0 -2.013,1.15 -2.269,1.646 -0.543,-1.422 -1.709,-1.646 -2.332,-1.646 -2.237,0 -3.467,2.78 -3.467,3.323 0,0.224 0.224,0.224 0.256,0.224 0.175,0 0.239,-0.048 0.287,-0.24 0.735,-2.285 2.157,-2.828 2.892,-2.828 0.399,0 1.15,0.192 1.15,1.438 0,0.671 -0.367,2.125 -1.15,5.129 -0.352,1.342 -1.102,2.252 -2.061,2.252 -0.128,0 -0.623,0 -1.07,-0.287 0.543,-0.112 1.006,-0.56 1.006,-1.167 0,-0.575 -0.463,-0.751 -0.783,-0.751 -0.655,0 -1.198,0.56 -1.198,1.247 0,0.99 1.086,1.422 2.029,1.422 1.422,0 2.205,-1.502 2.269,-1.63 0.255,0.799 1.022,1.63 2.316,1.63 2.221,0 3.451,-2.78 3.451,-3.308 0,-0.223 -0.192,-0.223 -0.255,-0.223 -0.192,0 -0.24,0.096 -0.272,0.239 -0.719,2.301 -2.189,2.828 -2.876,2.828 -0.831,0 -1.182,-0.687 -1.182,-1.422 0,-0.479 0.128,-0.958 0.367,-1.901 l 0.735,-2.956"
               id="path436" />
          </g>
        </g>
        <g
           clip-path="url(#7fc8750e1d50)"
           id="g438">
          <clipPath
             id="clipPath4129">
            <path
               style="fill:#000000;fill-opacity:0.35"
               inkscape:connector-curvature="0"
               d="m 715.428,161.132 10.8,0 0,-14.395 -10.8,0 z"
               id="path4131" />
          </clipPath>
          <g
             clip-path="url(#7fc8747bb3f0)"
             id="g443">
            <clipPath
               id="clipPath4134">
              <path
                 style="fill:#000000;fill-opacity:0.35"
                 inkscape:connector-curvature="0"
                 d="m 716.028,161.132 10.2,0 0,-14.4 -10.2,0 z"
                 id="path4136" />
            </clipPath>
            <path
               style="fill:#000000"
               inkscape:connector-curvature="0"
               d="m 725.909,148.366 c 0.08,-0.303 0.08,-0.351 0.08,-0.495 0,-0.399 -0.304,-0.591 -0.624,-0.591 -0.223,0 -0.559,0.128 -0.75,0.463 -0.048,0.096 -0.224,0.767 -0.304,1.151 -0.16,0.559 -0.304,1.15 -0.431,1.725 l -0.975,3.882 c -0.08,0.32 -1.006,1.838 -2.428,1.838 -1.103,0 -1.342,-0.959 -1.342,-1.758 0,-0.99 0.367,-2.316 1.102,-4.217 0.335,-0.879 0.431,-1.119 0.431,-1.55 0,-0.975 -0.687,-1.774 -1.773,-1.774 -2.045,0 -2.844,3.132 -2.844,3.324 0,0.223 0.224,0.223 0.256,0.223 0.223,0 0.239,-0.048 0.351,-0.399 0.575,-2.013 1.438,-2.668 2.173,-2.668 0.176,0 0.543,0 0.543,0.687 0,0.543 -0.223,1.102 -0.367,1.517 -0.863,2.285 -1.246,3.499 -1.246,4.522 0,1.917 1.358,2.556 2.62,2.556 0.847,0 1.581,-0.367 2.173,-0.959 -0.272,1.119 -0.528,2.173 -1.39,3.308 -0.56,0.734 -1.374,1.358 -2.381,1.358 -0.287,0 -1.262,-0.064 -1.629,-0.895 0.351,0 0.623,0 0.926,-0.272 0.208,-0.191 0.432,-0.463 0.432,-0.878 0,-0.671 -0.576,-0.751 -0.799,-0.751 -0.496,0 -1.215,0.351 -1.215,1.406 0,1.07 0.959,1.869 2.285,1.869 2.221,0 4.442,-1.965 5.049,-4.394 l 2.077,-8.228"
               id="path448" />
          </g>
        </g>
      </g>
      <g
         id="g450">
        <path
           style="fill:none;stroke:#ff0004;stroke-width:3"
           inkscape:connector-curvature="0"
           d="m 836.673,160.874 c 0,-10.604 8.596,-19.2 19.2,-19.2 10.604,0 19.2,8.596 19.2,19.2 0,0.426 -0.014,0.852 -0.042,1.277"
           id="path452" />
        <path
           style="fill:none;stroke:#ff0004;stroke-width:3"
           inkscape:connector-curvature="0"
           d="m 845.195,153.12 c -3.743,1.292 -6.77,4.247 -8.522,7.754 -2.24,-4.525 -2.524,-9.864 -1.258,-14.708"
           id="path454" />
      </g>
      <g
         id="g456">
        <path
           style="fill:none;stroke:#007efd;stroke-width:3"
           inkscape:connector-curvature="0"
           d="m 875.288,163.669 c 0,10.604 -8.596,19.2 -19.2,19.2 -10.604,0 -19.2,-8.596 -19.2,-19.2 0,-0.426 0.014,-0.852 0.043,-1.277"
           id="path458" />
        <path
           style="fill:none;stroke:#007efd;stroke-width:3"
           inkscape:connector-curvature="0"
           d="m 866.766,171.423 c 3.743,-1.292 6.77,-4.247 8.522,-7.754 2.24,4.526 2.524,9.864 1.258,14.708"
           id="path460" />
      </g>
    </g>
  </g>
</svg>
