<?xml version="1.0" encoding="UTF-8" standalone="no"?>
<!-- Created with Inkscape (http://www.inkscape.org/) -->

<svg
   xmlns:dc="http://purl.org/dc/elements/1.1/"
   xmlns:cc="http://creativecommons.org/ns#"
   xmlns:rdf="http://www.w3.org/1999/02/22-rdf-syntax-ns#"
   xmlns:svg="http://www.w3.org/2000/svg"
   xmlns="http://www.w3.org/2000/svg"
   xmlns:sodipodi="http://sodipodi.sourceforge.net/DTD/sodipodi-0.dtd"
   xmlns:inkscape="http://www.inkscape.org/namespaces/inkscape"
   width="216.21875"
   height="230.3886"
   id="svg4993"
   version="1.1"
   inkscape:version="0.48.4 r9939"
   sodipodi:docname="New document 8">
  <defs
     id="defs4995">
    <clipPath
       id="7fc87260fe10">
      <path
         style="fill:#000000;fill-opacity:0.35"
         inkscape:connector-curvature="0"
         d="m 156.118,154.989 32.006,0 0,-25.003 -32.006,0 z"
         id="path909" />
    </clipPath>
    <clipPath
       id="7fc872615a60">
      <path
         style="fill:#000000;fill-opacity:0.35"
         inkscape:connector-curvature="0"
         d="m 156.118,154.989 32,0 0,-25 -32,0 z"
         id="path914" />
    </clipPath>
    <clipPath
       id="7fc8726038d0">
      <path
         style="fill:#000000;fill-opacity:0.35"
         inkscape:connector-curvature="0"
         d="m 155.26,255.034 30.009,0 0,-25.989 -30.009,0 z"
         id="path925" />
    </clipPath>
    <clipPath
       id="7fc872642430">
      <path
         style="fill:#000000;fill-opacity:0.35"
         inkscape:connector-curvature="0"
         d="m 155.26,255.034 30,0 0,-26 -30,0 z"
         id="path930" />
    </clipPath>
    <clipPath
       id="7fc8750506a0">
      <path
         style="fill:#000000;fill-opacity:0.35"
         inkscape:connector-curvature="0"
         d="m 195.299,115.981 28.997,0 0,-25.9888 -28.997,0 z"
         id="path939" />
    </clipPath>
    <clipPath
       id="7fc8747f68f0">
      <path
         style="fill:#000000;fill-opacity:0.35"
         inkscape:connector-curvature="0"
         d="m 195.299,115.981 29,0 0,-26.0004 -29,0 z"
         id="path944" />
    </clipPath>
    <clipPath
       id="7fc8750c5b70">
      <path
         style="fill:#000000;fill-opacity:0.35"
         inkscape:connector-curvature="0"
         d="m 34.5376,124.01 30.0091,0 0,-25.9881 -30.0091,0 z"
         id="path953" />
    </clipPath>
    <clipPath
       id="7fc8750b6240">
      <path
         style="fill:#000000;fill-opacity:0.35"
         inkscape:connector-curvature="0"
         d="m 34.5376,124.01 30,0 0,-25.9997 -30,0 z"
         id="path958" />
    </clipPath>
  </defs>
  <sodipodi:namedview
     id="base"
     pagecolor="#ffffff"
     bordercolor="#666666"
     borderopacity="1.0"
     inkscape:pageopacity="0.0"
     inkscape:pageshadow="2"
     inkscape:zoom="0.86377106"
     inkscape:cx="564.67782"
     inkscape:cy="127.3503"
     inkscape:document-units="px"
     inkscape:current-layer="layer1"
     showgrid="false"
     fit-margin-top="0"
     fit-margin-left="0"
     fit-margin-right="0"
     fit-margin-bottom="0"
     inkscape:window-width="1855"
     inkscape:window-height="1056"
     inkscape:window-x="65"
     inkscape:window-y="24"
     inkscape:window-maximized="1" />
  <metadata
     id="metadata4998">
    <rdf:RDF>
      <cc:Work
         rdf:about="">
        <dc:format>image/svg+xml</dc:format>
        <dc:type
           rdf:resource="http://purl.org/dc/dcmitype/StillImage" />
        <dc:title></dc:title>
      </cc:Work>
    </rdf:RDF>
  </metadata>
  <g
     inkscape:label="Layer 1"
     inkscape:groupmode="layer"
     id="layer1"
     transform="translate(192.63058,-423.1428)">
    <g
       transform="translate(-227.13058,398.57739)"
       id="g844">
      <path
         style="fill:none;stroke:#000000;stroke-dasharray:5"
         inkscape:connector-curvature="0"
         d="m 193.703,234.348 c 0,0 -101.8991,-0.453 -101.8991,-0.453 0,0 -50.5572,-88.474 -50.5572,-88.474 0,0 51.3418,-88.0204 51.3418,-88.0204 0,0 101.8995,0.4529 101.8995,0.4529 0,0 50.557,88.4735 50.557,88.4735 0,0 -51.342,88.021 -51.342,88.021 z"
         id="path846" />
      <g
         id="g848">
        <path
           style="fill:none;stroke:#ff0004;stroke-width:2"
           inkscape:connector-curvature="0"
           d="M 91.2419,234.703 237.281,149.219"
           id="path850" />
        <path
           style="fill:none;stroke:#ff0004;stroke-width:2"
           inkscape:connector-curvature="0"
           d="m 226.125,149.956 11.156,-0.737 -6.105,9.367"
           id="path852" />
      </g>
      <g
         id="g854">
        <path
           style="fill:none;stroke:#ff0004;stroke-width:2"
           inkscape:connector-curvature="0"
           d="M 98.364,60.3721 243.466,145.308"
           id="path856" />
        <path
           style="fill:none;stroke:#ff0004;stroke-width:2"
           inkscape:connector-curvature="0"
           d="m 104.468,69.7389 -6.104,-9.3668 11.156,0.7366"
           id="path858" />
      </g>
      <g
         id="g860">
        <path
           style="fill:none;stroke:#ff0004;stroke-width:2"
           inkscape:connector-curvature="0"
           d="m 91.1923,56.125 0.0496,172.818"
           id="path862" />
        <path
           style="fill:none;stroke:#ff0004;stroke-width:2"
           inkscape:connector-curvature="0"
           d="m 96.239,218.942 -4.9971,10.001 -5.0029,-9.999"
           id="path864" />
      </g>
      <g
         id="g866">
        <g
           id="g868">
          <path
             style="fill:none;stroke:#00a0fe;stroke-width:2"
             inkscape:connector-curvature="0"
             d="M 193.958,234.138 192.946,64.9231"
             id="path870" />
          <path
             style="fill:none;stroke:#00a0fe;stroke-width:2"
             inkscape:connector-curvature="0"
             d="m 188.006,74.9528 4.94,-10.0297 5.06,9.9699"
             id="path872" />
        </g>
        <g
           id="g874">
          <path
             style="fill:none;stroke:#00a0fe;stroke-width:2"
             inkscape:connector-curvature="0"
             d="M 46.5442,140.805 192.652,57.6102"
             id="path876" />
          <path
             style="fill:none;stroke:#00a0fe;stroke-width:2"
             inkscape:connector-curvature="0"
             d="m 57.7083,140.202 -11.1641,0.603 6.216,-9.293"
             id="path878" />
        </g>
        <g
           id="g880">
          <path
             style="fill:none;stroke:#00a0fe;stroke-width:2"
             inkscape:connector-curvature="0"
             d="M 39.2803,144.892 188.97,231.258"
             id="path882" />
          <path
             style="fill:none;stroke:#00a0fe;stroke-width:2"
             inkscape:connector-curvature="0"
             d="m 182.807,221.93 6.163,9.328 -11.161,-0.667"
             id="path884" />
        </g>
      </g>
      <path
         style="fill:#00a0fe;stroke:#000000;stroke-width:2"
         inkscape:connector-curvature="0"
         d="m 41.2719,139.548 c 3.1811,0 5.76,2.579 5.76,5.76 0,3.181 -2.5789,5.76 -5.76,5.76 -3.1812,0 -5.76,-2.579 -5.76,-5.76 0,-3.181 2.5788,-5.76 5.76,-5.76 z"
         id="path886" />
      <path
         style="fill:#00a0fe;stroke:#000000;stroke-width:2"
         inkscape:connector-curvature="0"
         d="m 194.28,51.6118 c 3.181,0 5.76,2.5788 5.76,5.76 0,3.1811 -2.579,5.76 -5.76,5.76 -3.181,0 -5.76,-2.5789 -5.76,-5.76 0,-3.1812 2.579,-5.76 5.76,-5.76 z"
         id="path888" />
      <path
         style="fill:#00a0fe;stroke:#000000;stroke-width:2"
         inkscape:connector-curvature="0"
         d="m 193.512,228.943 c 3.181,0 5.76,2.579 5.76,5.76 0,3.181 -2.579,5.76 -5.76,5.76 -3.181,0 -5.76,-2.579 -5.76,-5.76 0,-3.181 2.579,-5.76 5.76,-5.76 z"
         id="path890" />
      <text
         style="font-size:24px;font-family:American Typewriter"
         font-size="24"
         transform="translate(82.2726,42.1095)"
         xml:space="preserve"
         id="text892"><tspan
           id="tspan894">A</tspan></text>
      <text
         style="font-size:24px;font-family:American Typewriter"
         font-size="24"
         transform="translate(185.507,42.0615)"
         xml:space="preserve"
         id="text896"><tspan
           id="tspan898">B</tspan></text>
      <path
         style="fill:#ff0004;stroke:#000000;stroke-width:2"
         inkscape:connector-curvature="0"
         d="m 243.963,139.548 c 3.181,0 5.76,2.579 5.76,5.76 0,3.181 -2.579,5.76 -5.76,5.76 -3.181,0 -5.76,-2.579 -5.76,-5.76 0,-3.181 2.579,-5.76 5.76,-5.76 z"
         id="path900" />
      <path
         style="fill:#ff0004;stroke:#000000;stroke-width:2"
         inkscape:connector-curvature="0"
         d="m 92.0099,52.3798 c 3.1812,0 5.76,2.5788 5.76,5.76 0,3.1811 -2.5788,5.76 -5.76,5.76 -3.1812,0 -5.76,-2.5789 -5.76,-5.76 0,-3.1812 2.5788,-5.76 5.76,-5.76 z"
         id="path902" />
      <path
         style="fill:#ff0004;stroke:#000000;stroke-width:2"
         inkscape:connector-curvature="0"
         d="m 91.2419,228.943 c 3.1812,0 5.76,2.579 5.76,5.76 0,3.181 -2.5788,5.76 -5.76,5.76 -3.1812,0 -5.76,-2.579 -5.76,-5.76 0,-3.181 2.5788,-5.76 5.76,-5.76 z"
         id="path904" />
      <g
         clip-path="url(#7fc87260fe10)"
         id="g906">
        <clipPath
           id="clipPath4945">
          <path
             style="fill:#000000;fill-opacity:0.35"
             inkscape:connector-curvature="0"
             d="m 156.118,154.989 32.006,0 0,-25.003 -32.006,0 z"
             id="path4947" />
        </clipPath>
        <g
           clip-path="url(#7fc872615a60)"
           id="g911">
          <clipPath
             id="clipPath4950">
            <path
               style="fill:#000000;fill-opacity:0.35"
               inkscape:connector-curvature="0"
               d="m 156.118,154.989 32,0 0,-25 -32,0 z"
               id="path4952" />
          </clipPath>
          <path
             style="fill:#000000"
             inkscape:connector-curvature="0"
             d="m 164.213,131.264 c 0,-0.586 -0.399,-1.065 -1.092,-1.065 -0.825,0 -1.624,0.772 -1.624,1.571 0,0.585 0.426,1.091 1.145,1.091 0.692,0 1.571,-0.692 1.571,-1.597 z m -2.263,11.263 c 0.372,-0.852 0.372,-0.932 0.665,-1.731 0.24,-0.612 0.373,-1.011 0.373,-1.597 0,-1.332 -0.959,-2.45 -2.45,-2.45 -2.822,0 -3.941,4.34 -3.941,4.607 0,0.292 0.293,0.292 0.347,0.292 0.293,0 0.319,-0.053 0.479,-0.532 0.799,-2.823 1.997,-3.701 3.035,-3.701 0.24,0 0.746,0 0.746,0.958 0,0.613 -0.213,1.252 -0.346,1.545 -0.24,0.772 -1.571,4.26 -2.05,5.538 -0.293,0.799 -0.693,1.784 -0.693,2.397 0,1.411 1.012,2.476 2.45,2.476 2.822,0 3.941,-4.367 3.941,-4.633 0,-0.293 -0.293,-0.293 -0.373,-0.293 -0.293,0 -0.293,0.08 -0.453,0.533 -0.532,1.89 -1.517,3.727 -3.062,3.727 -0.506,0 -0.719,-0.319 -0.719,-0.985 0,-0.745 0.187,-1.172 0.879,-3.009 l 1.172,-3.142"
             id="path916" />
          <path
             style="fill:#000000"
             inkscape:connector-curvature="0"
             d="m 172.201,138 2.796,0 c 0.613,0 0.905,0 0.905,-0.585 0,-0.346 -0.292,-0.346 -0.825,-0.346 l -2.636,0 c 1.065,-4.234 1.225,-4.847 1.225,-5.033 0,-0.506 -0.373,-0.799 -0.879,-0.799 -0.08,0 -0.932,0.027 -1.198,1.092 l -1.172,4.74 -2.822,0 c -0.586,0 -0.879,0 -0.879,0.585 0,0.346 0.24,0.346 0.825,0.346 l 2.636,0 c -2.156,8.521 -2.263,9.027 -2.263,9.56 0,1.624 1.118,2.769 2.743,2.769 3.062,0 4.766,-4.393 4.766,-4.633 0,-0.293 -0.24,-0.293 -0.346,-0.293 -0.293,0 -0.32,0.08 -0.453,0.426 -1.304,3.115 -2.876,3.834 -3.914,3.834 -0.612,0 -0.905,-0.399 -0.905,-1.384 0,-0.719 0.053,-0.932 0.159,-1.438 L 172.201,138"
             id="path918" />
          <path
             style="fill:#000000"
             inkscape:connector-curvature="0"
             d="m 187.379,150.675 -0.692,0 c -0.08,0.453 -0.267,1.704 -0.56,1.917 -0.159,0.107 -1.784,0.107 -2.077,0.107 l -3.834,0 c 2.183,-1.944 2.929,-2.53 4.181,-3.515 1.544,-1.225 3.008,-2.53 3.008,-4.527 0,-2.529 -2.236,-4.074 -4.926,-4.074 -2.583,0 -4.34,1.838 -4.34,3.755 0,1.065 0.905,1.171 1.118,1.171 0.48,0 1.092,-0.346 1.092,-1.118 0,-0.373 -0.133,-1.092 -1.225,-1.092 0.639,-1.491 2.077,-1.97 3.062,-1.97 2.077,0 3.169,1.651 3.169,3.328 0,1.838 -1.305,3.276 -1.97,4.021 l -5.033,5.006 c -0.213,0.186 -0.213,0.213 -0.213,0.799 l 8.627,0 0.639,-3.808"
             id="path920" />
        </g>
      </g>
      <g
         clip-path="url(#7fc8726038d0)"
         id="g922">
        <clipPath
           id="clipPath4958">
          <path
             style="fill:#000000;fill-opacity:0.35"
             inkscape:connector-curvature="0"
             d="m 155.26,255.034 30.009,0 0,-25.989 -30.009,0 z"
             id="path4960" />
        </clipPath>
        <g
           clip-path="url(#7fc872642430)"
           id="g927">
          <clipPath
             id="clipPath4963">
            <path
               style="fill:#000000;fill-opacity:0.35"
               inkscape:connector-curvature="0"
               d="m 155.26,255.034 30,0 0,-26 -30,0 z"
               id="path4965" />
          </clipPath>
          <path
             style="fill:#000000"
             inkscape:connector-curvature="0"
             d="m 161.278,238.019 0,-8.761 -5.299,0.24 0,1.385 c 1.838,0 2.051,0 2.051,1.171 l 0,17.974 1.411,0 1.464,-1.678 c 0.24,0.24 1.705,1.864 4.367,1.864 4.474,0 7.562,-2.689 7.562,-6.87 0,-3.967 -2.822,-6.79 -7.162,-6.79 -2.184,0 -3.675,0.879 -4.394,1.465 z m 0.187,9.053 0,-7.535 c 0.798,-1.039 2.236,-1.918 3.887,-1.918 3.648,0 3.648,3.648 3.648,5.725 0,1.412 0,3.062 -0.772,4.234 -0.879,1.225 -2.263,1.544 -3.222,1.544 -2.077,0 -3.249,-1.597 -3.541,-2.05"
             id="path932" />
          <path
             style="fill:#000000"
             inkscape:connector-curvature="0"
             d="m 179.678,247.551 c 1.624,0 2.796,1.119 2.796,3.355 0,2.61 -1.491,3.382 -2.716,3.382 -0.826,0 -2.69,-0.239 -3.568,-1.464 0.985,-0.054 1.224,-0.746 1.224,-1.172 0,-0.666 -0.506,-1.172 -1.145,-1.172 -0.585,0 -1.171,0.373 -1.171,1.225 0,1.971 2.183,3.249 4.713,3.249 2.902,0 4.899,-1.944 4.899,-4.048 0,-1.624 -1.331,-3.275 -3.621,-3.754 2.183,-0.772 2.982,-2.343 2.982,-3.621 0,-1.678 -1.917,-2.903 -4.233,-2.903 -2.317,0 -4.101,1.145 -4.101,2.796 0,0.719 0.453,1.119 1.092,1.119 0.639,0 1.065,-0.48 1.065,-1.066 0,-0.612 -0.426,-1.038 -1.065,-1.091 0.745,-0.906 2.183,-1.145 2.955,-1.145 0.932,0 2.264,0.452 2.264,2.29 0,0.878 -0.293,1.837 -0.852,2.476 -0.693,0.799 -1.279,0.852 -2.317,0.905 -0.533,0.054 -0.559,0.054 -0.666,0.054 -0.053,0 -0.213,0.053 -0.213,0.293 0,0.292 0.187,0.292 0.559,0.292 l 1.119,0"
             id="path934" />
        </g>
      </g>
      <g
         clip-path="url(#7fc8750506a0)"
         id="g936">
        <clipPath
           id="clipPath4970">
          <path
             style="fill:#000000;fill-opacity:0.35"
             inkscape:connector-curvature="0"
             d="m 195.299,115.981 28.997,0 0,-25.9888 -28.997,0 z"
             id="path4972" />
        </clipPath>
        <g
           clip-path="url(#7fc8747f68f0)"
           id="g941">
          <clipPath
             id="clipPath4975">
            <path
               style="fill:#000000;fill-opacity:0.35"
               inkscape:connector-curvature="0"
               d="m 195.299,115.981 29,0 0,-26.0004 -29,0 z"
               id="path4977" />
          </clipPath>
          <path
             style="fill:#000000"
             inkscape:connector-curvature="0"
             d="m 201.317,98.9657 0,-8.7605 -5.299,0.2397 0,1.3846 c 1.837,0 2.05,0 2.05,1.1716 l 0,17.9739 1.411,0 1.465,-1.678 c 0.24,0.24 1.704,1.864 4.367,1.864 4.473,0 7.562,-2.689 7.562,-6.87 0,-3.967 -2.822,-6.7899 -7.163,-6.7899 -2.183,0 -3.674,0.8787 -4.393,1.4646 z m 0.186,9.0533 0,-7.536 c 0.799,-1.0381 2.237,-1.9168 3.888,-1.9168 3.648,0 3.648,3.6478 3.648,5.7248 0,1.411 0,3.062 -0.773,4.234 -0.878,1.225 -2.263,1.544 -3.221,1.544 -2.077,0 -3.249,-1.597 -3.542,-2.05"
             id="path946" />
          <path
             style="fill:#000000"
             inkscape:connector-curvature="0"
             d="m 221.021,102.161 c 0,-0.559 -0.053,-0.586 -0.639,-0.586 -1.331,1.331 -3.249,1.331 -4.101,1.331 l 0,0.773 c 0.506,0 1.891,0 3.036,-0.586 l 0,10.678 c 0,0.692 0,0.958 -2.104,0.958 l -0.798,0 0,0.746 c 0.399,-0.027 2.955,-0.08 3.727,-0.08 0.666,0 3.302,0.053 3.755,0.08 l 0,-0.746 -0.799,0 c -2.077,0 -2.077,-0.266 -2.077,-0.958 l 0,-11.61"
             id="path948" />
        </g>
      </g>
      <g
         clip-path="url(#7fc8750c5b70)"
         id="g950">
        <clipPath
           id="clipPath4982">
          <path
             style="fill:#000000;fill-opacity:0.35"
             inkscape:connector-curvature="0"
             d="m 34.5376,124.01 30.0091,0 0,-25.9881 -30.0091,0 z"
             id="path4984" />
        </clipPath>
        <g
           clip-path="url(#7fc8750b6240)"
           id="g955">
          <clipPath
             id="clipPath4987">
            <path
               style="fill:#000000;fill-opacity:0.35"
               inkscape:connector-curvature="0"
               d="m 34.5376,124.01 30,0 0,-25.9997 -30,0 z"
               id="path4989" />
          </clipPath>
          <path
             style="fill:#000000"
             inkscape:connector-curvature="0"
             d="m 40.5554,106.995 0,-8.7601 -5.2989,0.2397 0,1.3846 c 1.8373,0 2.0504,0 2.0504,1.1718 l 0,17.973 1.4112,0 1.4645,-1.677 c 0.2397,0.239 1.7041,1.864 4.3669,1.864 4.4734,0 7.5622,-2.69 7.5622,-6.87 0,-3.968 -2.8225,-6.79 -7.1628,-6.79 -2.1834,0 -3.6746,0.879 -4.3935,1.464 z m 0.1864,9.054 0,-7.536 c 0.7988,-1.038 2.2367,-1.917 3.8876,-1.917 3.6479,0 3.6479,3.648 3.6479,5.725 0,1.411 0,3.062 -0.7722,4.234 -0.8786,1.224 -2.2633,1.544 -3.2218,1.544 -2.077,0 -3.2486,-1.598 -3.5415,-2.05"
             id="path960" />
          <path
             style="fill:#000000"
             inkscape:connector-curvature="0"
             d="m 63.8012,119.697 -0.6923,0 c -0.0799,0.452 -0.2929,1.704 -0.5592,1.917 -0.1598,0.106 -1.784,0.106 -2.0769,0.106 l -3.8344,0 c 2.1834,-1.943 2.929,-2.529 4.1805,-3.514 1.5444,-1.225 2.9823,-2.53 2.9823,-4.527 0,-2.53 -2.2101,-4.074 -4.8995,-4.074 -2.5829,0 -4.3403,1.837 -4.3403,3.754 0,1.065 0.9054,1.172 1.0918,1.172 0.5059,0 1.1183,-0.346 1.1183,-1.118 0,-0.373 -0.1331,-1.092 -1.2249,-1.092 0.6391,-1.491 2.077,-1.971 3.0622,-1.971 2.077,0 3.1687,1.651 3.1687,3.329 0,1.837 -1.3047,3.275 -1.9704,4.021 l -5.0326,5.006 c -0.2131,0.186 -0.2131,0.213 -0.2131,0.798 l 8.6273,0 0.6125,-3.807"
             id="path962" />
        </g>
      </g>
    </g>
  </g>
</svg>
