<?xml version="1.0" encoding="UTF-8" standalone="no"?>
<svg
   xmlns:dc="http://purl.org/dc/elements/1.1/"
   xmlns:cc="http://creativecommons.org/ns#"
   xmlns:rdf="http://www.w3.org/1999/02/22-rdf-syntax-ns#"
   xmlns:svg="http://www.w3.org/2000/svg"
   xmlns="http://www.w3.org/2000/svg"
   xmlns:sodipodi="http://sodipodi.sourceforge.net/DTD/sodipodi-0.dtd"
   xmlns:inkscape="http://www.inkscape.org/namespaces/inkscape"
   version="1.1"
   viewBox="217 170 448.65399 298.992"
   width="448.65399"
   height="298.992"
   id="svg2"
   inkscape:version="1.0.2 (e86c870879, 2021-01-15)"
   sodipodi:docname="conductance_scaling_2D.svg">
  <metadata
     id="metadata322">
    <rdf:RDF>
      <cc:Work
         rdf:about="">
        <dc:format>image/svg+xml</dc:format>
        <dc:type
           rdf:resource="http://purl.org/dc/dcmitype/StillImage" />
        <dc:title />
      </cc:Work>
    </rdf:RDF>
  </metadata>
  <defs
     id="defs320" />
  <sodipodi:namedview
     pagecolor="#ffffff"
     bordercolor="#666666"
     borderopacity="1"
     objecttolerance="10"
     gridtolerance="10"
     guidetolerance="10"
     inkscape:pageopacity="0"
     inkscape:pageshadow="2"
     inkscape:window-width="1848"
     inkscape:window-height="1016"
     id="namedview318"
     showgrid="false"
     fit-margin-top="0"
     fit-margin-left="0"
     fit-margin-right="0"
     fit-margin-bottom="0"
     inkscape:zoom="3.5371253"
     inkscape:cx="341.31995"
     inkscape:cy="156.36787"
     inkscape:window-x="72"
     inkscape:window-y="27"
     inkscape:window-maximized="1"
     inkscape:current-layer="svg2"
     inkscape:document-rotation="0" />
  <g
     id="g4"
     transform="translate(-33.389,-0.874)">
    <path
       d="m 432.77,468.866 0.287,-293.75"
       id="path6"
       inkscape:connector-curvature="0"
       style="fill:none;stroke:#000000;stroke-width:1.5" />
    <path
       d="m 428.549,184.112 4.508,-8.996 4.492,9.005"
       id="path8"
       inkscape:connector-curvature="0"
       style="fill:none;stroke:#000000;stroke-width:1.5" />
  </g>
  <g
     id="g10"
     transform="translate(-33.389,-0.874)">
    <path
       d="m 651.389,324.129 -400,0"
       id="path12"
       inkscape:connector-curvature="0"
       style="fill:none;stroke:#000000;stroke-width:1.5" />
    <path
       d="m 642.389,319.629 9,4.5 -9,4.5"
       id="path14"
       inkscape:connector-curvature="0"
       style="fill:none;stroke:#000000;stroke-width:1.5" />
  </g>
  <path
     d="m 231.125,467.992 c 14.687,-24.437 20.312,-36.375 40,-56.625 18.979,-19.521 49.088,-44.047 74.375,-54.466 25.682,-10.581 51.534,-16.365 79.375,-19.384 54.846,-5.949 98.406,-7.409 153.75,-9.816"
     id="path16"
     inkscape:connector-curvature="0"
     style="fill:none;stroke:#ff0004;stroke-width:2;stroke-linecap:round" />
  <path
     d="m 218,467.992 c 31.5,-51.187 55.97,-97.034 88.125,-146.875 9.375,-14.531 38.664,-62.967 56.25,-72.768 17.619,-9.819 35,-10.717 50.879,0 27.218,18.372 51.308,51.518 83.808,60.268 21.61,5.818 57.813,8.75 80.313,8.75"
     id="path18"
     inkscape:connector-curvature="0"
     style="fill:none;stroke:#0049fd;stroke-width:2;stroke-linecap:round" />
  <path
     d="m 244.875,467.992 c 26.875,-44.75 92.074,-90.221 144.375,-106 61.431,-18.533 123.125,-24.475 189.587,-28.225"
     id="path20"
     inkscape:connector-curvature="0"
     style="fill:none;stroke:#000000;stroke-width:2;stroke-linecap:round" />
  <g
     clip-path="url(#7fc8742e8220)"
     id="g34"
     transform="translate(-33.389,-0.874)">
    <clipPath
       id="7fc8742e8220">
      <path
         d="m 362.967,201.336 54.001,0 0,-30.995 -54.001,0 z"
         id="path37"
         inkscape:connector-curvature="0"
         style="fill:#000000;fill-opacity:0.35" />
    </clipPath>
    <g
       clip-path="url(#7fc8747d6570)"
       id="g39">
      <clipPath
         id="7fc8747d6570">
        <path
           d="m 362.967,201.336 54,0 0,-31 -54,0 z"
           id="path42"
           inkscape:connector-curvature="0"
           style="fill:#000000;fill-opacity:0.35" />
      </clipPath>
      <path
         d="m 379.503,176.279 c 0,-2.237 -1.651,-4.1 -4.074,-4.1 -1.758,0 -2.583,0.479 -3.648,1.278 -1.625,1.198 -3.275,4.1 -3.861,6.364 l -4.767,19.038 c -0.026,0.107 0.134,0.293 0.373,0.293 0.24,0 0.32,-0.053 0.346,-0.16 l 2.104,-8.254 c 0.586,1.784 1.89,2.902 4.074,2.902 2.183,0 4.447,-1.065 5.778,-2.37 1.438,-1.384 2.397,-3.301 2.397,-5.512 0,-2.156 -1.092,-3.727 -2.184,-4.473 1.731,-0.985 3.462,-2.849 3.462,-5.006 z m -5.406,4.979 c -0.399,0.16 -0.719,0.214 -1.438,0.214 -0.426,0 -1.011,0.026 -1.304,-0.107 0.053,-0.32 1.118,-0.24 1.464,-0.24 0.613,0 0.879,0 1.278,0.133 z m 3.728,-5.645 c 0,2.077 -1.145,4.234 -2.716,5.166 -0.799,-0.293 -1.411,-0.346 -2.29,-0.346 -0.639,0 -2.316,-0.027 -2.316,0.959 -0.027,0.825 1.517,0.745 2.077,0.745 1.091,0 1.544,-0.026 2.449,-0.399 1.145,1.092 1.278,2.023 1.305,3.381 0.08,1.758 -0.639,3.995 -1.491,5.166 -1.172,1.624 -3.169,2.69 -4.873,2.69 -2.29,0 -3.408,-1.731 -3.408,-3.861 0,-0.293 0,-0.746 0.133,-1.332 l 1.917,-7.562 c 0.666,-2.583 2.823,-7.349 6.417,-7.349 1.731,0 2.796,0.932 2.796,2.742"
         id="path44"
         inkscape:connector-curvature="0"
         style="fill:#000000" />
      <path
         d="m 390.686,200.537 c 0,-0.107 0,-0.16 -0.506,-0.666 -3.754,-3.781 -4.713,-9.453 -4.713,-14.033 0,-5.192 1.145,-10.411 4.82,-14.165 0.399,-0.347 0.399,-0.426 0.399,-0.506 0,-0.213 -0.133,-0.293 -0.293,-0.293 -0.319,0 -3.009,2.023 -4.766,5.831 -1.544,3.302 -1.891,6.63 -1.891,9.133 0,2.344 0.32,5.965 1.971,9.347 1.81,3.701 4.367,5.645 4.686,5.645 0.16,0 0.293,-0.107 0.293,-0.293"
         id="path46"
         inkscape:connector-curvature="0"
         style="fill:#000000" />
      <path
         d="m 406.476,182.031 c 0.027,-0.16 0.08,-0.32 0.08,-0.533 0,-0.506 -0.346,-0.799 -0.852,-0.799 -0.319,0 -1.118,0.213 -1.225,1.278 -0.559,-1.091 -1.597,-1.89 -2.796,-1.89 -3.408,0 -7.136,4.207 -7.136,8.521 0,2.955 1.837,4.739 3.994,4.739 1.758,0 3.169,-1.411 3.462,-1.757 l 0.026,0.027 c -0.612,2.689 -0.985,3.914 -0.985,3.967 -0.106,0.266 -1.118,3.222 -4.313,3.222 -0.56,0 -1.545,-0.027 -2.397,-0.293 0.906,-0.266 1.225,-1.038 1.225,-1.544 0,-0.48 -0.319,-1.065 -1.118,-1.065 -0.666,0 -1.625,0.559 -1.625,1.757 0,1.225 1.119,1.811 3.994,1.811 3.728,0 5.885,-2.344 6.338,-4.128 l 3.328,-13.287 z m -3.887,7.482 c -0.187,0.772 -0.879,1.518 -1.545,2.077 -0.612,0.559 -1.544,1.092 -2.423,1.092 -1.491,0 -1.944,-1.571 -1.944,-2.77 0,-1.437 0.879,-4.952 1.678,-6.497 0.799,-1.464 2.103,-2.662 3.355,-2.662 1.97,0 2.396,2.423 2.396,2.582 0,0.134 -0.053,0.32 -0.079,0.453 l -1.438,5.725"
         id="path48"
         inkscape:connector-curvature="0"
         style="fill:#000000" />
      <path
         d="m 416.328,185.838 c 0,-2.316 -0.346,-5.964 -1.97,-9.346 -1.811,-3.674 -4.394,-5.618 -4.686,-5.618 -0.187,0 -0.293,0.106 -0.293,0.293 0,0.08 0,0.159 0.559,0.692 2.929,2.956 4.66,7.722 4.66,13.979 0,5.14 -1.119,10.412 -4.847,14.166 -0.372,0.373 -0.372,0.426 -0.372,0.533 0,0.16 0.106,0.293 0.293,0.293 0.292,0 3.008,-2.051 4.766,-5.858 1.518,-3.276 1.89,-6.604 1.89,-9.134"
         id="path50"
         inkscape:connector-curvature="0"
         style="fill:#000000" />
    </g>
  </g>
  <text
     font-size="30"
     xml:space="preserve"
     id="text52"
     style="font-size:21.6px;line-height:0%;font-family:'American Typewriter';text-anchor:middle;fill:#0049fd"
     x="505.85101"
     y="251.32001"><tspan
       id="tspan54">class AII</tspan></text>
  <text
     font-size="30"
     xml:space="preserve"
     id="text56"
     style="font-size:21.6px;line-height:0%;font-family:'American Typewriter';text-anchor:middle;fill:#ff0004"
     x="472.147"
     y="401.15799"><tspan
       id="tspan58">class A</tspan></text>
  <path
     d="M 494.562,381.055 540.5,331.142"
     id="path60"
     inkscape:connector-curvature="0"
     style="fill:none;stroke:#ff0004" />
  <path
     d="m 559.875,339.374 30.491,54.71"
     id="path62"
     inkscape:connector-curvature="0"
     style="fill:none;stroke:#000000" />
  <text
     font-size="30"
     xml:space="preserve"
     id="text64"
     style="font-size:21.6px;line-height:0%;font-family:'American Typewriter';text-anchor:middle"
     x="618.28802"
     y="416.05499"><tspan
       id="tspan66">class AI</tspan></text>
  <path
     d="m 308.512,322.852 c 0,2.052 -1.611,3.715 -3.6,3.715 -1.988,0 -3.6,-1.663 -3.6,-3.715 0,-2.051 1.612,-3.714 3.6,-3.714 1.989,0 3.6,1.663 3.6,3.714 z"
     id="path68"
     inkscape:connector-curvature="0"
     style="fill:#0049fd" />
  <g
     id="g70"
     transform="translate(-33.389,-0.874)">
    <path
       d="m 295.885,393.755 3.952,-7.181"
       id="path72"
       inkscape:connector-curvature="0"
       style="fill:none;stroke:#0049fd;stroke-width:2;stroke-dasharray:0.1" />
    <path
       d="m 305.086,387.405 -9.201,6.35 0.44,-11.171"
       id="path74"
       inkscape:connector-curvature="0"
       style="fill:none;stroke:#0049fd;stroke-width:2" />
  </g>
  <g
     id="g76"
     transform="translate(-33.389,-0.874)">
    <path
       d="m 373.911,270.617 -4.73,6.695"
       id="path78"
       inkscape:connector-curvature="0"
       style="fill:none;stroke:#0049fd;stroke-width:2;stroke-dasharray:0.1" />
    <path
       d="m 364.057,275.9 9.854,-5.283 -1.686,11.053"
       id="path80"
       inkscape:connector-curvature="0"
       style="fill:none;stroke:#0049fd;stroke-width:2" />
  </g>
  <g
     id="g82"
     transform="translate(-33.389,-0.874)">
    <path
       d="m 315.392,401.172 6.569,-4.902"
       id="path84"
       inkscape:connector-curvature="0"
       style="fill:none;stroke:#ff0004;stroke-width:2;stroke-dasharray:0.1" />
    <path
       d="m 326.396,399.199 -11.004,1.973 5.024,-9.988"
       id="path86"
       inkscape:connector-curvature="0"
       style="fill:none;stroke:#ff0004;stroke-width:2" />
  </g>
  <g
     id="g88"
     transform="translate(-33.389,-0.874)">
    <path
       d="m 497.524,334.643 8.179,-0.547"
       id="path90"
       inkscape:connector-curvature="0"
       style="fill:none;stroke:#ff0004;stroke-width:2;stroke-dasharray:0.1" />
    <path
       d="m 507.835,338.965 -10.311,-4.322 9.645,-5.656"
       id="path92"
       inkscape:connector-curvature="0"
       style="fill:none;stroke:#ff0004;stroke-width:2" />
  </g>
  <g
     id="g94"
     transform="translate(-33.389,-0.874)">
    <path
       d="m 504.439,297.314 -6.434,-5.079"
       id="path96"
       inkscape:connector-curvature="0"
       style="fill:none;stroke:#0049fd;stroke-width:2;stroke-dasharray:0.1" />
    <path
       d="m 499.687,287.193 4.752,10.121 -10.947,-2.271"
       id="path98"
       inkscape:connector-curvature="0"
       style="fill:none;stroke:#0049fd;stroke-width:2" />
  </g>
  <g
     id="g100"
     transform="translate(-33.389,-0.874)">
    <path
       d="m 329.517,413.535 6.569,-4.902"
       id="path102"
       inkscape:connector-curvature="0"
       style="fill:none;stroke:#000000;stroke-width:2;stroke-dasharray:0.1" />
    <path
       d="m 340.521,411.562 -11.004,1.973 5.024,-9.987"
       id="path104"
       inkscape:connector-curvature="0"
       style="fill:none;stroke:#000000;stroke-width:2" />
  </g>
  <g
     id="g106"
     transform="translate(-33.389,-0.874)">
    <path
       d="m 500.067,345.772 7.991,-1.829"
       id="path108"
       inkscape:connector-curvature="0"
       style="fill:none;stroke:#000000;stroke-width:2;stroke-dasharray:0.1" />
    <path
       d="m 510.931,348.415 -10.864,-2.643 8.633,-7.105"
       id="path110"
       inkscape:connector-curvature="0"
       style="fill:none;stroke:#000000;stroke-width:2" />
  </g>
  <g
     clip-path="url(#7fc874576f40)"
     id="g252"
     transform="translate(-33.389,-0.874)">
    <clipPath
       id="7fc874576f40">
      <path
         d="m 498.356,282.353 82.012,0 0,-25.004 -82.012,0 z"
         id="path255"
         inkscape:connector-curvature="0"
         style="fill:#000000;fill-opacity:0.35" />
    </clipPath>
    <g
       clip-path="url(#7fc8745935a0)"
       id="g257">
      <clipPath
         id="7fc8745935a0">
        <path
           d="m 498.356,282.353 82,0 0,-25 -82,0 z"
           id="path260"
           inkscape:connector-curvature="0"
           style="fill:#000000;fill-opacity:0.35" />
      </clipPath>
      <path
         d="m 511.856,262.196 c 0,-1.784 -1.305,-3.276 -3.222,-3.276 -1.384,0 -2.05,0.373 -2.902,1.012 -1.305,0.932 -2.61,3.249 -3.062,5.059 l -3.808,15.152 c -0.027,0.079 0.106,0.239 0.293,0.239 0.186,0 0.266,-0.053 0.293,-0.133 l 1.677,-6.577 c 0.453,1.438 1.491,2.317 3.222,2.317 1.758,0 3.542,-0.826 4.607,-1.891 1.145,-1.092 1.917,-2.609 1.917,-4.367 0,-1.731 -0.879,-2.955 -1.758,-3.568 1.385,-0.772 2.743,-2.263 2.743,-3.967 z m -4.287,3.94 c -0.293,0.134 -0.559,0.187 -1.145,0.187 -0.319,0 -0.799,0 -1.038,-0.107 0.053,-0.239 0.905,-0.186 1.171,-0.186 0.48,0 0.719,0 1.012,0.106 z m 2.956,-4.5 c 0,1.678 -0.906,3.382 -2.13,4.128 -0.666,-0.24 -1.119,-0.293 -1.838,-0.293 -0.506,0 -1.837,-0.027 -1.837,0.772 -0.027,0.666 1.198,0.586 1.624,0.586 0.906,0 1.252,-0.027 1.971,-0.293 0.905,0.852 1.012,1.598 1.038,2.689 0.053,1.385 -0.506,3.169 -1.198,4.101 -0.905,1.278 -2.503,2.13 -3.861,2.13 -1.811,0 -2.716,-1.384 -2.716,-3.062 0,-0.24 0,-0.612 0.106,-1.065 l 1.518,-6.018 c 0.533,-2.05 2.237,-5.831 5.113,-5.831 1.384,0 2.21,0.719 2.21,2.156"
         id="path262"
         inkscape:connector-curvature="0"
         style="fill:#0000ff" />
      <path
         d="m 536.859,267.787 c 0,-0.532 -0.133,-0.772 -0.319,-0.772 -0.133,0 -0.32,0.187 -0.346,0.639 -0.08,2.29 -1.651,3.595 -3.329,3.595 -1.491,0 -2.636,-1.039 -3.808,-2.05 -1.224,-1.092 -2.449,-2.21 -4.074,-2.21 -2.609,0 -4.02,2.636 -4.02,4.793 0,0.772 0.319,0.772 0.346,0.772 0.266,0 0.319,-0.48 0.319,-0.559 0.107,-2.61 1.891,-3.648 3.355,-3.648 1.492,0 2.637,1.011 3.808,2.05 1.225,1.092 2.45,2.183 4.074,2.183 2.61,0 3.994,-2.609 3.994,-4.793"
         id="path264"
         inkscape:connector-curvature="0"
         style="fill:#0000ff" />
      <path
         d="m 551.877,260.491 c 0,-0.559 0,-0.612 -0.559,-0.612 -1.491,1.518 -3.568,1.518 -4.34,1.518 l 0,0.745 c 0.479,0 1.89,0 3.115,-0.612 l 0,12.328 c 0,0.879 -0.053,1.145 -2.21,1.145 l -0.772,0 0,0.746 c 0.852,-0.08 2.929,-0.08 3.861,-0.08 0.958,0 3.035,0 3.861,0.08 l 0,-0.746 -0.746,0 c -2.157,0 -2.21,-0.239 -2.21,-1.145 l 0,-13.367"
         id="path266"
         inkscape:connector-curvature="0"
         style="fill:#0000ff" />
      <path
         d="m 567.215,258.787 c 0.133,-0.319 0.133,-0.426 0.133,-0.426 0,-0.266 -0.214,-0.479 -0.479,-0.479 -0.161,0 -0.347,0.053 -0.4,0.213 l -8.281,22.713 c -0.133,0.32 -0.133,0.4 -0.133,0.426 0,0.267 0.239,0.48 0.479,0.48 0.32,0 0.399,-0.16 0.533,-0.586 l 8.148,-22.341"
         id="path268"
         inkscape:connector-curvature="0"
         style="fill:#0000ff" />
      <path
         d="m 579.996,266.776 c 0,-0.16 0.053,-0.267 0.053,-0.453 0,-0.4 -0.266,-0.639 -0.692,-0.639 -0.24,0 -0.879,0.186 -0.959,1.038 -0.426,-0.878 -1.278,-1.517 -2.236,-1.517 -2.717,0 -5.672,3.355 -5.672,6.79 0,2.343 1.464,3.754 3.169,3.754 1.411,0 2.529,-1.118 2.769,-1.385 l 0.026,0.027 c -0.506,2.13 -0.772,3.089 -0.772,3.142 -0.107,0.213 -0.905,2.583 -3.435,2.583 -0.453,0 -1.252,-0.027 -1.917,-0.24 0.719,-0.213 0.985,-0.825 0.985,-1.251 0,-0.373 -0.266,-0.826 -0.905,-0.826 -0.533,0 -1.305,0.426 -1.305,1.385 0,0.985 0.879,1.464 3.169,1.464 2.982,0 4.713,-1.863 5.059,-3.301 l 2.663,-10.571 z m -3.116,5.937 c -0.133,0.613 -0.692,1.199 -1.198,1.651 -0.506,0.426 -1.251,0.852 -1.944,0.852 -1.198,0 -1.544,-1.224 -1.544,-2.183 0,-1.145 0.692,-3.967 1.331,-5.166 0.639,-1.171 1.678,-2.13 2.663,-2.13 1.571,0 1.917,1.944 1.917,2.05 0,0.134 -0.053,0.267 -0.08,0.373 l -1.145,4.553"
         id="path270"
         inkscape:connector-curvature="0"
         style="fill:#0000ff" />
    </g>
  </g>
  <g
     clip-path="url(#7fc87436a200)"
     id="g272"
     transform="translate(-33.389,-0.874)">
    <clipPath
       id="7fc87436a200">
      <path
         d="m 447.137,432.399 109.997,0 0,-28.013 -109.997,0 z"
         id="path275"
         inkscape:connector-curvature="0"
         style="fill:#000000;fill-opacity:0.35" />
    </clipPath>
    <g
       clip-path="url(#7fc8745e20e0)"
       id="g277">
      <clipPath
         id="7fc8745e20e0">
        <path
           d="m 447.137,432.399 110,0 0,-28 -110,0 z"
           id="path280"
           inkscape:connector-curvature="0"
           style="fill:#000000;fill-opacity:0.35" />
      </clipPath>
      <path
         d="m 460.45,412.029 c 0,-1.785 -1.304,-3.276 -3.248,-3.276 -1.385,0 -2.051,0.4 -2.876,1.012 -1.331,0.959 -2.636,3.275 -3.089,5.086 l -3.781,15.124 c -0.027,0.107 0.08,0.24 0.293,0.24 0.186,0 0.24,-0.027 0.266,-0.106 l 1.678,-6.577 c 0.452,1.411 1.491,2.316 3.248,2.316 1.731,0 3.515,-0.852 4.607,-1.89 1.145,-1.092 1.89,-2.637 1.89,-4.394 0,-1.704 -0.878,-2.956 -1.73,-3.541 1.384,-0.799 2.742,-2.264 2.742,-3.994 z m -4.287,3.967 c -0.319,0.107 -0.586,0.16 -1.145,0.16 -0.346,0 -0.825,0.026 -1.065,-0.107 0.053,-0.213 0.906,-0.186 1.172,-0.186 0.506,0 0.719,0 1.038,0.133 z m 2.956,-4.5 c 0,1.651 -0.905,3.382 -2.157,4.101 -0.639,-0.213 -1.118,-0.267 -1.837,-0.267 -0.506,0 -1.837,-0.026 -1.837,0.746 -0.027,0.666 1.224,0.612 1.65,0.612 0.879,0 1.225,-0.026 1.944,-0.319 0.906,0.852 1.039,1.597 1.065,2.689 0.054,1.385 -0.532,3.169 -1.198,4.101 -0.932,1.305 -2.53,2.157 -3.888,2.157 -1.81,0 -2.716,-1.385 -2.716,-3.089 0,-0.24 0,-0.586 0.107,-1.039 l 1.544,-6.044 c 0.506,-2.05 2.237,-5.832 5.086,-5.832 1.385,0 2.237,0.746 2.237,2.184"
         id="path282"
         inkscape:connector-curvature="0"
         style="fill:#ff0000" />
      <path
         d="m 485.347,417.647 c 0,-0.533 -0.133,-0.772 -0.32,-0.772 -0.133,0 -0.319,0.159 -0.346,0.612 -0.106,2.29 -1.677,3.595 -3.328,3.595 -1.518,0 -2.663,-1.012 -3.835,-2.05 -1.198,-1.092 -2.449,-2.184 -4.073,-2.184 -2.583,0 -3.995,2.61 -3.995,4.793 0,0.772 0.32,0.772 0.32,0.772 0.266,0 0.346,-0.479 0.346,-0.559 0.107,-2.609 1.891,-3.675 3.329,-3.675 1.517,0 2.662,1.039 3.834,2.051 1.198,1.091 2.45,2.21 4.074,2.21 2.583,0 3.994,-2.636 3.994,-4.793"
         id="path284"
         inkscape:connector-curvature="0"
         style="fill:#ff0000" />
      <path
         d="m 509.045,420.123 c 0.4,0 0.826,0 0.826,-0.479 0,-0.479 -0.426,-0.479 -0.826,-0.479 l -12.887,0 c -0.426,0 -0.852,0 -0.852,0.479 0,0.479 0.452,0.479 0.852,0.479 l 12.887,0"
         id="path286"
         inkscape:connector-curvature="0"
         style="fill:#ff0000" />
      <path
         d="m 518.951,410.351 c 0,-0.586 0,-0.639 -0.56,-0.639 -1.464,1.544 -3.567,1.544 -4.34,1.544 l 0,0.719 c 0.48,0 1.891,0 3.142,-0.612 l 0,12.355 c 0,0.852 -0.08,1.145 -2.236,1.145 l -0.746,0 0,0.746 c 0.826,-0.08 2.902,-0.08 3.861,-0.08 0.959,0 3.009,0 3.861,0.08 l 0,-0.746 -0.772,0 c -2.13,0 -2.21,-0.266 -2.21,-1.145 l 0,-13.367"
         id="path288"
         inkscape:connector-curvature="0"
         style="fill:#ff0000" />
      <path
         d="m 534.395,408.62 c 0.133,-0.293 0.133,-0.399 0.133,-0.426 0,-0.266 -0.213,-0.479 -0.479,-0.479 -0.16,0 -0.347,0.08 -0.4,0.213 l -8.281,22.713 c -0.133,0.32 -0.133,0.426 -0.133,0.453 0,0.239 0.24,0.452 0.479,0.452 0.32,0 0.399,-0.159 0.533,-0.559 l 8.148,-22.367"
         id="path290"
         inkscape:connector-curvature="0"
         style="fill:#ff0000" />
      <path
         d="m 547.07,416.608 c 0.026,-0.133 0.079,-0.266 0.079,-0.426 0,-0.399 -0.293,-0.639 -0.692,-0.639 -0.239,0 -0.905,0.16 -0.985,1.012 -0.426,-0.879 -1.278,-1.491 -2.21,-1.491 -2.716,0 -5.672,3.328 -5.672,6.763 0,2.37 1.438,3.782 3.169,3.782 1.384,0 2.53,-1.145 2.742,-1.385 l 0.027,0 c -0.479,2.13 -0.773,3.115 -0.773,3.169 -0.106,0.213 -0.905,2.556 -3.434,2.556 -0.453,0 -1.252,0 -1.917,-0.24 0.719,-0.213 0.985,-0.825 0.985,-1.225 0,-0.373 -0.266,-0.825 -0.906,-0.825 -0.532,0 -1.278,0.426 -1.278,1.358 0,0.985 0.879,1.464 3.169,1.464 2.983,0 4.687,-1.864 5.032,-3.301 l 2.664,-10.572 z m -3.116,5.938 c -0.133,0.613 -0.665,1.225 -1.199,1.678 -0.505,0.426 -1.25,0.852 -1.943,0.852 -1.172,0 -1.545,-1.252 -1.545,-2.183 0,-1.145 0.693,-3.968 1.332,-5.193 0.639,-1.171 1.677,-2.103 2.69,-2.103 1.57,0 1.89,1.917 1.89,2.05 0,0.106 -0.053,0.24 -0.08,0.346 l -1.145,4.553"
         id="path292"
         inkscape:connector-curvature="0"
         style="fill:#ff0000" />
      <path
         d="m 556.629,412.747 -0.586,0 c -0.026,0.373 -0.213,1.358 -0.426,1.518 -0.134,0.107 -1.438,0.107 -1.651,0.107 l -3.116,0 c 1.785,-1.571 2.37,-2.024 3.382,-2.823 1.225,-0.985 2.397,-2.023 2.397,-3.621 0,-2.05 -1.784,-3.302 -3.941,-3.302 -2.077,0 -3.488,1.465 -3.488,3.009 0,0.879 0.718,0.959 0.879,0.959 0.399,0 0.905,-0.293 0.905,-0.906 0,-0.293 -0.134,-0.879 -0.986,-0.879 0.507,-1.198 1.651,-1.571 2.45,-1.571 1.678,0 2.556,1.305 2.556,2.663 0,1.465 -1.038,2.636 -1.597,3.249 l -4.048,3.994 c -0.159,0.16 -0.159,0.186 -0.159,0.666 l 6.923,0 0.506,-3.063"
         id="path294"
         inkscape:connector-curvature="0"
         style="fill:#ff0000" />
    </g>
  </g>
  <g
     clip-path="url(#7fc874342710)"
     id="g296"
     transform="translate(-33.389,-0.874)">
    <clipPath
       id="7fc874342710">
      <path
         d="m 598.445,451.284 100.997,0 0,-25.003 -100.997,0 z"
         id="path299"
         inkscape:connector-curvature="0"
         style="fill:#000000;fill-opacity:0.35" />
    </clipPath>
    <g
       clip-path="url(#7fc875127a00)"
       id="g301">
      <clipPath
         id="7fc875127a00">
        <path
           d="m 598.445,451.284 101,0 0,-25 -101,0 z"
           id="path304"
           inkscape:connector-curvature="0"
           style="fill:#000000;fill-opacity:0.35" />
      </clipPath>
      <path
         d="m 612.264,431.127 c 0,-1.784 -1.331,-3.275 -3.248,-3.275 -1.385,0 -2.051,0.373 -2.903,1.012 -1.304,0.932 -2.609,3.249 -3.062,5.059 l -3.781,15.151 c -0.027,0.08 0.08,0.24 0.266,0.24 0.213,0 0.267,-0.053 0.293,-0.133 l 1.678,-6.577 c 0.452,1.438 1.491,2.316 3.248,2.316 1.731,0 3.515,-0.825 4.58,-1.89 1.145,-1.092 1.917,-2.61 1.917,-4.367 0,-1.731 -0.878,-2.956 -1.73,-3.568 1.384,-0.772 2.742,-2.263 2.742,-3.968 z m -4.313,3.941 c -0.293,0.133 -0.56,0.187 -1.145,0.187 -0.32,0 -0.799,0 -1.039,-0.107 0.053,-0.239 0.905,-0.186 1.172,-0.186 0.506,0 0.719,0 1.012,0.106 z m 2.955,-4.5 c 0,1.678 -0.905,3.382 -2.13,4.127 -0.639,-0.239 -1.118,-0.292 -1.837,-0.292 -0.506,0 -1.838,-0.027 -1.838,0.772 -0.026,0.665 1.225,0.586 1.651,0.586 0.879,0 1.225,-0.027 1.944,-0.293 0.905,0.852 1.039,1.597 1.065,2.689 0.027,1.385 -0.532,3.169 -1.198,4.101 -0.932,1.278 -2.53,2.13 -3.888,2.13 -1.81,0 -2.716,-1.385 -2.716,-3.062 0,-0.24 0,-0.613 0.107,-1.065 l 1.544,-6.018 c 0.506,-2.051 2.237,-5.832 5.086,-5.832 1.385,0 2.21,0.719 2.21,2.157"
         id="path306"
         inkscape:connector-curvature="0"
         style="fill:#000000" />
      <path
         d="m 637.267,436.719 c 0,-0.532 -0.159,-0.772 -0.346,-0.772 -0.106,0 -0.319,0.186 -0.319,0.639 -0.107,2.29 -1.678,3.595 -3.355,3.595 -1.491,0 -2.636,-1.039 -3.808,-2.051 -1.225,-1.091 -2.45,-2.21 -4.074,-2.21 -2.61,0 -4.021,2.636 -4.021,4.793 0,0.772 0.32,0.772 0.346,0.772 0.267,0 0.347,-0.479 0.347,-0.559 0.079,-2.609 1.863,-3.648 3.328,-3.648 1.491,0 2.636,1.012 3.808,2.051 1.225,1.091 2.449,2.183 4.074,2.183 2.609,0 4.02,-2.609 4.02,-4.793"
         id="path308"
         inkscape:connector-curvature="0"
         style="fill:#000000" />
      <path
         d="m 660.966,439.195 c 0.399,0 0.825,0 0.825,-0.479 0,-0.479 -0.426,-0.479 -0.825,-0.479 l -12.915,0 c -0.399,0 -0.825,0 -0.825,0.479 0,0.479 0.426,0.479 0.825,0.479 l 12.915,0"
         id="path310"
         inkscape:connector-curvature="0"
         style="fill:#000000" />
      <path
         d="m 670.845,429.423 c 0,-0.559 0,-0.612 -0.533,-0.612 -1.491,1.518 -3.595,1.518 -4.34,1.518 l 0,0.745 c 0.479,0 1.89,0 3.115,-0.612 l 0,12.328 c 0,0.879 -0.079,1.145 -2.21,1.145 l -0.772,0 0,0.746 c 0.852,-0.08 2.903,-0.08 3.861,-0.08 0.958,0 3.035,0 3.861,0.08 l 0,-0.746 -0.746,0 c -2.157,0 -2.236,-0.239 -2.236,-1.145 l 0,-13.367"
         id="path312"
         inkscape:connector-curvature="0"
         style="fill:#000000" />
      <path
         d="m 686.209,427.719 c 0.133,-0.319 0.133,-0.426 0.133,-0.426 0,-0.266 -0.24,-0.479 -0.48,-0.479 -0.186,0 -0.346,0.053 -0.426,0.213 l -8.254,22.713 c -0.134,0.32 -0.134,0.399 -0.134,0.426 0,0.266 0.214,0.479 0.48,0.479 0.319,0 0.373,-0.159 0.533,-0.585 l 8.148,-22.341"
         id="path314"
         inkscape:connector-curvature="0"
         style="fill:#000000" />
      <path
         d="m 698.963,435.707 c 0.027,-0.159 0.08,-0.266 0.08,-0.452 0,-0.4 -0.293,-0.639 -0.692,-0.639 -0.24,0 -0.879,0.186 -0.986,1.038 -0.426,-0.879 -1.251,-1.518 -2.209,-1.518 -2.716,0 -5.672,3.355 -5.672,6.79 0,2.344 1.464,3.755 3.168,3.755 1.411,0 2.53,-1.119 2.77,-1.385 l 0.027,0.027 c -0.507,2.13 -0.799,3.089 -0.799,3.142 -0.08,0.213 -0.906,2.583 -3.435,2.583 -0.453,0 -1.225,-0.027 -1.891,-0.24 0.719,-0.213 0.959,-0.825 0.959,-1.251 0,-0.373 -0.24,-0.826 -0.906,-0.826 -0.506,0 -1.278,0.426 -1.278,1.385 0,0.985 0.879,1.464 3.169,1.464 2.982,0 4.713,-1.864 5.059,-3.302 l 2.636,-10.571 z m -3.088,5.938 c -0.134,0.613 -0.693,1.198 -1.225,1.651 -0.506,0.426 -1.225,0.852 -1.918,0.852 -1.198,0 -1.544,-1.225 -1.544,-2.183 0,-1.145 0.692,-3.968 1.332,-5.166 0.638,-1.172 1.651,-2.13 2.662,-2.13 1.571,0 1.918,1.944 1.918,2.05 0,0.133 -0.054,0.266 -0.081,0.373 l -1.144,4.553"
         id="path316"
         inkscape:connector-curvature="0"
         style="fill:#000000" />
    </g>
  </g>
  <g
     inkscape:label=""
     transform="matrix(3.0151846,0,0,3.0151846,306.55233,102.33644)"
     id="g1116">
    <g
       id="g3643">
      <g
         style="fill:#000000;fill-opacity:1"
         id="g7315">
        <g
           id="use56"
           transform="translate(91.925003,81.962997)">
          <path
             style="stroke:none"
             d="M 1.765625,-6.921875 0.328125,-6.8125 V -6.5 c 0.703125,0 0.78125,0.0625 0.78125,0.5625 V -0.75 c 0,0.4375 -0.109375,0.4375 -0.78125,0.4375 V 0 C 0.65625,-0.015625 1.1875,-0.03125 1.4375,-0.03125 c 0.25,0 0.734375,0.015625 1.109375,0.03125 v -0.3125 c -0.671875,0 -0.78125,0 -0.78125,-0.4375 z m 0,0"
             id="path2197" />
        </g>
        <g
           id="use3357"
           transform="translate(94.692612,81.962997)">
          <path
             style="stroke:none"
             d="M 4.6875,-2.140625 C 4.6875,-3.40625 3.703125,-4.46875 2.5,-4.46875 c -1.25,0 -2.21875,1.09375 -2.21875,2.328125 0,1.296875 1.03125,2.25 2.203125,2.25 1.203125,0 2.203125,-0.984375 2.203125,-2.25 z m -2.1875,2 c -0.4375,0 -0.875,-0.203125 -1.140625,-0.671875 -0.25,-0.4375 -0.25,-1.046875 -0.25,-1.40625 0,-0.390625 0,-0.921875 0.234375,-1.359375 C 1.609375,-4.03125 2.078125,-4.25 2.484375,-4.25 c 0.4375,0 0.859375,0.21875 1.125,0.65625 0.265625,0.421875 0.265625,1 0.265625,1.375 0,0.359375 0,0.90625 -0.21875,1.34375 C 3.421875,-0.421875 2.984375,-0.140625 2.5,-0.140625 Z m 0,0"
             id="path2193" />
        </g>
        <g
           id="use495"
           transform="translate(99.673912,81.962997)">
          <path
             style="stroke:none"
             d="m 2.21875,-1.71875 c -0.875,0 -0.875,-1 -0.875,-1.21875 0,-0.265625 0.015625,-0.59375 0.15625,-0.84375 0.078125,-0.109375 0.3125,-0.390625 0.71875,-0.390625 0.859375,0 0.859375,0.984375 0.859375,1.21875 0,0.265625 0,0.59375 -0.15625,0.84375 C 2.84375,-2 2.609375,-1.71875 2.21875,-1.71875 Z M 1.0625,-1.328125 c 0,-0.03125 0,-0.265625 0.15625,-0.46875 0.390625,0.28125 0.8125,0.3125 1,0.3125 0.921875,0 1.609375,-0.6875 1.609375,-1.453125 0,-0.375 -0.15625,-0.734375 -0.40625,-0.96875 C 3.78125,-4.25 4.140625,-4.296875 4.3125,-4.296875 c 0.03125,0 0.078125,0 0.109375,0.015625 C 4.3125,-4.25 4.25,-4.140625 4.25,-4.015625 c 0,0.171875 0.140625,0.28125 0.296875,0.28125 0.09375,0 0.28125,-0.0625 0.28125,-0.296875 0,-0.171875 -0.109375,-0.484375 -0.5,-0.484375 -0.203125,0 -0.640625,0.0625 -1.0625,0.46875 C 2.84375,-4.375 2.4375,-4.40625 2.21875,-4.40625 c -0.9375,0 -1.625,0.6875 -1.625,1.453125 0,0.4375 0.21875,0.8125 0.46875,1.03125 -0.125,0.140625 -0.3125,0.46875 -0.3125,0.828125 0,0.3125 0.140625,0.6875 0.453125,0.890625 -0.609375,0.15625 -0.921875,0.59375 -0.921875,0.984375 0,0.71875 0.984375,1.265625 2.203125,1.265625 1.171875,0 2.203125,-0.5 2.203125,-1.28125 0,-0.34375 -0.125,-0.859375 -0.640625,-1.140625 -0.53125,-0.265625 -1.109375,-0.265625 -1.71875,-0.265625 -0.25,0 -0.671875,0 -0.75,-0.015625 C 1.265625,-0.703125 1.0625,-1 1.0625,-1.328125 Z M 2.5,1.828125 c -1.015625,0 -1.703125,-0.515625 -1.703125,-1.046875 0,-0.453125 0.375,-0.828125 0.8125,-0.84375 h 0.59375 c 0.859375,0 1.96875,0 1.96875,0.84375 0,0.546875 -0.703125,1.046875 -1.671875,1.046875 z m 0,0"
             id="path2189" />
        </g>
      </g>
      <g
         style="fill:#000000;fill-opacity:1"
         id="g7219">
        <g
           id="use3944"
           transform="translate(106.454,81.962997)">
          <path
             style="stroke:none"
             d="M 4.6875,-3.765625 C 4.703125,-3.8125 4.71875,-3.875 4.71875,-3.9375 c 0,-0.171875 -0.109375,-0.265625 -0.28125,-0.265625 -0.09375,0 -0.375,0.0625 -0.40625,0.421875 -0.1875,-0.359375 -0.53125,-0.625 -0.9375,-0.625 -1.125,0 -2.359375,1.390625 -2.359375,2.828125 0,0.984375 0.59375,1.578125 1.3125,1.578125 0.59375,0 1.0625,-0.46875 1.15625,-0.578125 L 3.21875,-0.5625 C 3.015625,0.3125 2.890625,0.734375 2.890625,0.75 2.84375,0.84375 2.515625,1.828125 1.453125,1.828125 1.265625,1.828125 0.9375,1.8125 0.65625,1.71875 0.953125,1.640625 1.0625,1.375 1.0625,1.203125 c 0,-0.15625 -0.109375,-0.34375 -0.375,-0.34375 -0.21875,0 -0.53125,0.171875 -0.53125,0.578125 0,0.40625 0.359375,0.609375 1.3125,0.609375 1.25,0 1.96875,-0.78125 2.125,-1.375 z M 3.40625,-1.28125 C 3.34375,-1.015625 3.109375,-0.765625 2.890625,-0.578125 2.6875,-0.40625 2.375,-0.21875 2.078125,-0.21875 c -0.5,0 -0.640625,-0.515625 -0.640625,-0.921875 0,-0.46875 0.28125,-1.65625 0.5625,-2.15625 C 2.265625,-3.78125 2.6875,-4.1875 3.109375,-4.1875 c 0.65625,0 0.796875,0.8125 0.796875,0.859375 0,0.046875 -0.015625,0.109375 -0.03125,0.140625 z m 0,0"
             id="path2185" />
        </g>
      </g>
    </g>
  </g>
</svg>
